<?xml version="1.0" encoding="UTF-8"?>
<svg version="1.1" xmlns="http://www.w3.org/2000/svg" width="809" height="308">
<path d="M0 0 C4.06729363 4.83678161 4.06729363 4.83678161 3.86328125 8.36328125 C2.45320759 12.67006731 -0.53578189 15.72085583 -3.3828125 19.18359375 C-5.27621351 21.89783396 -5.27621351 21.89783396 -4.86328125 25.03125 C-4.06061562 27.79154809 -3.15155462 30.40356286 -2.0625 33.0625 C3.41327448 47.88520088 2.44410532 61.63203185 -4 76 C-7.30494606 81.7836556 -11.80039149 86.84222838 -16 92 C-13.03 92.33 -10.06 92.66 -7 93 C-6.99413376 93.80464691 -6.98826752 94.60929382 -6.98222351 95.43832397 C-6.92408005 103.05837521 -6.85188142 110.67810752 -6.76428509 118.29787254 C-6.71974679 122.21434812 -6.68045543 126.13072363 -6.65356445 130.04736328 C-6.62736485 133.83419095 -6.58684815 137.62063006 -6.53681374 141.40721512 C-6.52025667 142.84468338 -6.50867345 144.28221867 -6.50238609 145.71976852 C-6.52729254 159.59003693 -6.52729254 159.59003693 -0.8125 171.875 C0.115625 172.57625 1.04375 173.2775 2 174 C2.76183594 174.58587891 2.76183594 174.58587891 3.5390625 175.18359375 C10.22182167 179.43759684 18.41729885 178.75827011 26 178 C31.57018639 176.58654429 35.07256241 173.34366403 38.7734375 169.07421875 C41.71917853 164.09272676 42.25441928 158.73536668 42.31884766 153.05493164 C42.32889328 152.40042023 42.3389389 151.74590881 42.34928894 151.07156372 C42.37987869 148.93443585 42.39708755 146.79743179 42.4140625 144.66015625 C42.43279373 143.1679937 42.45236857 141.67584152 42.4727478 140.18370056 C42.52386881 136.27609398 42.56360104 132.36845313 42.60089111 128.46069336 C42.64105708 124.46524723 42.69209168 120.46994116 42.7421875 116.47460938 C42.83870927 108.64983601 42.92318918 100.82499433 43 93 C46.96 93 50.92 93 55 93 C55.04650607 101.58026477 55.08196151 110.16047616 55.10362434 118.74083614 C55.11402564 122.72578853 55.12811741 126.71065416 55.15087891 130.69555664 C55.17273849 134.54701646 55.18459606 138.39839325 55.18975449 142.24991035 C55.19342684 143.71338773 55.20059754 145.17686099 55.21146011 146.64030266 C55.29804518 158.79775679 54.71128168 169.05261105 47 179 C38.53707389 187.33778118 29.47675256 189.86564784 17.8125 190.25 C7.78843159 190.11268399 -2.24942745 187.61970609 -10 181 C-16.53601445 172.53843772 -19.13385113 163.87029092 -19.11352539 153.26025391 C-19.11367142 152.61564209 -19.11381744 151.97103027 -19.1139679 151.30688477 C-19.11327661 149.19674195 -19.10552133 147.08668971 -19.09765625 144.9765625 C-19.09578928 143.5054021 -19.09436669 142.03424108 -19.09336853 140.56307983 C-19.08956533 136.70634215 -19.07975398 132.84964262 -19.06866455 128.99291992 C-19.05840302 125.05127478 -19.05386078 121.10962342 -19.04882812 117.16796875 C-19.03812959 109.44529518 -19.02107977 101.72265295 -19 94 C-20.75653734 94.79811783 -22.51304132 95.59630909 -24.26953125 96.39453125 C-25.73676636 97.06125854 -25.73676636 97.06125854 -27.23364258 97.74145508 C-28.8519329 98.47769077 -30.468785 99.21713189 -32.08203125 99.96435547 C-43.77492378 105.23113583 -58.02016002 105.04931568 -70 101 C-84.01754661 95.3841482 -94.59257961 86.90678058 -101 73 C-101 72.01 -101 71.02 -101 70 C-109.99511058 73.30339966 -109.99511058 73.30339966 -118.6875 77.3125 C-122 79 -122 79 -124 79 C-124 79.66 -124 80.32 -124 81 C-125.5 82.625 -125.5 82.625 -127 84 C-126.50628906 84.95261719 -126.01257813 85.90523438 -125.50390625 86.88671875 C-124.85644963 88.15348171 -124.20933206 89.42041801 -123.5625 90.6875 C-123.23701172 91.31333984 -122.91152344 91.93917969 -122.57617188 92.58398438 C-117.37647752 102.8225578 -117.70100054 114.87662049 -120.83984375 125.796875 C-126.44043861 141.25979683 -134.61553458 153.77224673 -150 161 C-163.89519377 166.40851722 -177.68827138 168.28952486 -192 163 C-203.98338404 157.35900477 -213.34120237 148.87805212 -219.0390625 136.796875 C-219.87198842 134.82324453 -219.87198842 134.82324453 -222 134 C-225.35842006 134.04059629 -228.70475028 134.12574264 -232.05859375 134.30273438 C-235.63405111 134.39162696 -237.55601788 134.34531943 -240.42578125 132.11328125 C-244.1311642 127.13905749 -244.1311642 127.13905749 -243.77734375 124.06640625 C-242.77944252 121.41369394 -241.55163396 120.55989236 -239.25 118.9375 C-238.23679688 118.20853516 -238.23679688 118.20853516 -237.203125 117.46484375 C-235 116 -235 116 -232.66015625 114.67578125 C-229.21265632 112.50400817 -226.25041214 109.92672969 -223.1875 107.25 C-222.25067383 106.44212036 -222.25067383 106.44212036 -221.29492188 105.61791992 C-218.14778762 102.89856341 -215.05804567 100.1317395 -212 97.3125 C-202.25277114 88.80695634 -190.77545503 83.11285224 -179 78 C-177.83082031 77.4740625 -176.66164063 76.948125 -175.45703125 76.40625 C-167.70266897 73.25193314 -159.72443825 71.95487801 -151.40771484 71.74462891 C-144.7126014 71.57235526 -139.85054259 71.2064577 -134.48828125 66.875 C-131.0987048 64.32084506 -127.44654722 62.45373954 -123.6875 60.5 C-122.94749756 60.1086084 -122.20749512 59.7172168 -121.44506836 59.31396484 C-118.19040758 57.60407703 -114.94484891 55.97539025 -111.5859375 54.4765625 C-104.57677515 51.3432677 -100.19274501 47.57510192 -95.25390625 41.68359375 C-90.70750766 36.27046406 -85.72090233 32.07744312 -80 28 C-79.33226562 27.5153125 -78.66453125 27.030625 -77.9765625 26.53125 C-62.14638491 15.46778016 -44.67647685 10.51170257 -26.08789062 6.24560547 C-19.18956945 4.63045553 -12.82487756 2.70308271 -6.35546875 -0.21484375 C-3.68886261 -1.10371246 -2.55661135 -1.12468954 0 0 Z M-15.4296875 13.8515625 C-20.25681186 15.4042699 -25.16333622 16.34988268 -30.125 17.375 C-49.18803279 21.46608537 -66.27265298 27.81095464 -81 41 C-81.8971875 41.76699219 -82.794375 42.53398438 -83.71875 43.32421875 C-90.76437887 49.09689894 -90.76437887 49.09689894 -94.3984375 57.17578125 C-94.28237271 67.75702156 -90.18512281 73.88334775 -82.95703125 81.2265625 C-74.20999391 89.67646658 -62.60883793 94.06180321 -50.5 94.5 C-41.44683131 94.19274094 -32.08549731 91.82585334 -25 86 C-24.22011719 85.39542969 -23.44023437 84.79085937 -22.63671875 84.16796875 C-13.47755862 76.63710376 -8.04725326 66.78716351 -6.78027344 54.9465332 C-6.66228131 52.85514751 -6.62018139 50.78215139 -6.625 48.6875 C-6.62661133 47.94838379 -6.62822266 47.20926758 -6.62988281 46.44775391 C-6.80816437 38.4268317 -9.1351616 31.93682707 -13.3125 25.125 C-15 22 -15 22 -14.9375 19.3125 C-13.9359577 16.84202899 -12.72457422 15.02450017 -11 13 C-13.11452707 12.88974804 -13.11452707 12.88974804 -15.4296875 13.8515625 Z M-206 105 C-206.48484863 105.42603516 -206.96969727 105.85207031 -207.46923828 106.29101562 C-209.09247395 107.72617232 -210.70500486 109.1722396 -212.3125 110.625 C-212.8168457 111.08052246 -213.32119141 111.53604492 -213.84082031 112.00537109 C-216.87557589 114.80363903 -219.47817137 117.73776694 -222 121 C-222.66 121.66 -223.32 122.32 -224 123 C-222.02 123 -220.04 123 -218 123 C-217.72285156 123.71671875 -217.44570312 124.4334375 -217.16015625 125.171875 C-212.30472905 137.00800056 -204.87783126 147.45837032 -193 153 C-180.84918991 157.91857026 -169.60990108 158.66018985 -157.14453125 154.39453125 C-144.93480833 148.97978457 -137.46460093 140.40495846 -132.265625 128.37890625 C-128.05585234 117.13985269 -127.71862828 104.12240777 -132.265625 92.8671875 C-133.68066204 90.37225377 -135.1744768 88.20822325 -137 86 C-137.44214844 85.43539062 -137.88429688 84.87078125 -138.33984375 84.2890625 C-141.23537656 81.25085127 -143.99687463 80.65238837 -148 80.5 C-169.02351677 81.55402455 -190.23771254 91.14913229 -206 105 Z " fill="#B8B7B4" transform="translate(258,16)"/>
<path d="M0 0 C5.94 0 11.88 0 18 0 C22.36761867 11.20389136 26.69998591 22.42040189 31.00512695 33.6484375 C33.32765519 39.69273468 35.67288521 45.72731686 38.05078125 51.75 C38.30312531 52.38958649 38.55546936 53.02917297 38.81546021 53.68814087 C40.04297644 56.79793766 41.2737348 59.90636748 42.50878906 63.01318359 C42.95061523 64.13031738 43.39244141 65.24745117 43.84765625 66.3984375 C44.23961182 67.38505371 44.63156738 68.37166992 45.03540039 69.38818359 C45.84785663 71.58804611 46.4935822 73.71384672 47 76 C50.96166001 67.91705266 54.27201935 59.75896925 57.3203125 51.30029297 C59.27089557 45.91159337 61.34907723 40.59842261 63.5625 35.3125 C66.42451113 28.47414398 69.0699974 21.57450998 71.6484375 14.625 C76.56701031 1.43298969 76.56701031 1.43298969 78 0 C83.61 0 89.22 0 95 0 C95 31.35 95 62.7 95 95 C91.04 95 87.08 95 83 95 C82.67 69.59 82.34 44.18 82 18 C77.11817279 31.2474907 77.11817279 31.2474907 72.25 44.5 C69.04310858 53.14292692 65.48385311 61.64588354 61.97998047 70.17138672 C59.05499434 77.31764817 56.27883761 84.47496911 53.8046875 91.7890625 C53 94 53 94 52 95 C50.31391034 95.07205511 48.62499341 95.08386068 46.9375 95.0625 C45.55884766 95.04896484 45.55884766 95.04896484 44.15234375 95.03515625 C43.08693359 95.01775391 43.08693359 95.01775391 42 95 C37.72894568 85.12454192 33.63306115 75.26174269 30.15429688 65.07763672 C28.17169557 59.33106413 25.81425783 53.82394656 23.3671875 48.2578125 C22.09267719 45.2208365 21.01093177 42.19555299 20 39.0625 C17.64713347 31.93037333 14.78922092 24.97305231 12 18 C12 43.41 12 68.82 12 95 C8.04 95 4.08 95 0 95 C0 63.65 0 32.3 0 0 Z " fill="#000000" transform="translate(359,109)"/>
<path d="M0 0 C14 0 14 0 17.08984375 2.67578125 C18.07397461 4.41772461 18.07397461 4.41772461 18.9375 6.3125 C19.64561371 7.61209886 20.35394924 8.91157687 21.0625 10.2109375 C21.38992188 10.85772461 21.71734375 11.50451172 22.0546875 12.17089844 C23.36062383 14.69777732 24.88383943 17.05665904 26.4375 19.4375 C27.00339844 20.32824219 27.56929687 21.21898437 28.15234375 22.13671875 C30.63550508 25.98483133 33.18434844 29.78796763 35.73486328 33.59155273 C40.4711909 40.67129292 45.10441505 47.81815541 49.734375 54.96777344 C52.33698045 58.97485044 54.93441946 62.95968423 57.76171875 66.8125 C60 70 60 70 63 76 C63 50.92 63 25.84 63 0 C66.96 0 70.92 0 75 0 C75 31.35 75 62.7 75 95 C70.38 95 65.76 95 61 95 C57.76594993 91.5466923 56.17432012 89.07745555 54 85 C52.29493438 82.28297332 50.51606227 79.61514724 48.75 76.9375 C47.79993487 75.4675322 46.85204998 73.99615319 45.90625 72.5234375 C45.42800781 71.77932617 44.94976563 71.03521484 44.45703125 70.26855469 C43.48567708 68.7561849 42.51432292 67.2438151 41.54296875 65.73144531 C40.11358481 63.50742407 38.68251917 61.28450302 37.25 59.0625 C36.79133545 58.35101807 36.3326709 57.63953613 35.86010742 56.90649414 C32.86370958 52.27924858 29.77678756 47.73378953 26.53515625 43.2734375 C24.5205724 40.29000798 22.78605882 37.12560293 21 34 C17.7 29.05 14.4 24.1 11 19 C11 44.08 11 69.16 11 95 C7.37 95 3.74 95 0 95 C0 63.65 0 32.3 0 0 Z " fill="#000000" transform="translate(561,109)"/>
<path d="M0 0 C4.29 0 8.58 0 13 0 C13.01458252 1.94696777 13.02916504 3.89393555 13.04418945 5.89990234 C13.09604369 12.36604719 13.16138306 18.8319485 13.23571491 25.29787254 C13.28025321 29.21434812 13.31954457 33.13072363 13.34643555 37.04736328 C13.37263515 40.83419095 13.41315185 44.62063006 13.46318626 48.40721512 C13.47974333 49.84468338 13.49132655 51.28221867 13.49761391 52.71976852 C13.47270746 66.59003693 13.47270746 66.59003693 19.1875 78.875 C20.5796875 79.926875 20.5796875 79.926875 22 81 C22.50789063 81.39058594 23.01578125 81.78117187 23.5390625 82.18359375 C30.22182167 86.43759684 38.41729885 85.75827011 46 85 C51.57018639 83.58654429 55.07256241 80.34366403 58.7734375 76.07421875 C61.71917853 71.09272676 62.25441928 65.73536668 62.31884766 60.05493164 C62.33391609 59.07316452 62.33391609 59.07316452 62.34928894 58.07156372 C62.37987869 55.93443585 62.39708755 53.79743179 62.4140625 51.66015625 C62.43279373 50.1679937 62.45236857 48.67584152 62.4727478 47.18370056 C62.52386881 43.27609398 62.56360104 39.36845313 62.60089111 35.46069336 C62.64105708 31.46524723 62.69209168 27.46994116 62.7421875 23.47460938 C62.83870927 15.64983601 62.92318918 7.82499433 63 0 C66.96 0 70.92 0 75 0 C75.04650607 8.58026477 75.08196151 17.16047616 75.10362434 25.74083614 C75.11402564 29.72578853 75.12811741 33.71065416 75.15087891 37.69555664 C75.17273849 41.54701646 75.18459606 45.39839325 75.18975449 49.24991035 C75.19342684 50.71338773 75.20059754 52.17686099 75.21146011 53.64030266 C75.29804518 65.79775679 74.71128168 76.05261105 67 86 C58.53707389 94.33778118 49.47675256 96.86564784 37.8125 97.25 C27.78843159 97.11268399 17.75057255 94.61970609 10 88 C3.42857297 79.4925924 0.93528359 70.81432921 0.79467773 60.16845703 C0.78477814 59.51409164 0.77487854 58.85972626 0.76467896 58.18553162 C0.73333027 56.04299418 0.70841308 53.90043465 0.68359375 51.7578125 C0.66300115 50.26422582 0.6420041 48.77064466 0.62062073 47.27706909 C0.565638 43.36121112 0.5161246 39.44530263 0.46777344 35.52935791 C0.41738374 31.52733915 0.3617892 27.52539301 0.30664062 23.5234375 C0.19935049 15.68235162 0.09832329 7.84120345 0 0 Z " fill="#010101" transform="translate(238,109)"/>
<path d="M0 0 C3.96 0 7.92 0 12 0 C12.47308594 1.24910156 12.94617188 2.49820313 13.43359375 3.78515625 C19.45120065 19.64442734 25.63292592 35.43672275 31.83984375 51.22265625 C32.3283706 52.46541284 32.81689599 53.70817 33.30541992 54.95092773 C34.23861128 57.32435966 35.17233048 59.69758414 36.10668945 62.07055664 C38.32107538 67.70003784 40.52668981 73.33292384 42.71484375 78.97265625 C43.11050537 79.99109619 43.50616699 81.00953613 43.91381836 82.05883789 C45.48733247 86.31959861 46.76107375 90.63115482 48 95 C44.04 95 40.08 95 36 95 C30.95501547 85.67442254 27.57933581 75.96599383 24 66 C5.685 65.505 5.685 65.505 -13 65 C-13.99 67.97 -14.98 70.94 -16 74 C-17.00684372 76.756651 -18.02285924 79.50598653 -19.0625 82.25 C-19.31837891 82.930625 -19.57425781 83.61125 -19.83789062 84.3125 C-21.18713946 87.89199818 -22.57912779 91.44781946 -24 95 C-28.29 95 -32.58 95 -37 95 C-33.33893705 85.0517952 -29.51318068 75.17398243 -25.625 65.3125 C-22.24755008 56.7455751 -18.89406074 48.17142287 -15.625 39.5625 C-15.29975342 38.70599854 -14.97450684 37.84949707 -14.6394043 36.96704102 C-13.30592696 33.45138394 -11.9752753 29.93466125 -10.64453125 26.41796875 C-7.26291102 17.54258363 -3.64448769 8.76987672 0 0 Z M5 15 C4.57589844 16.22332031 4.15179687 17.44664063 3.71484375 18.70703125 C0.28614327 28.56540747 -3.20966921 38.39247239 -6.86547852 48.16918945 C-8.34234183 51.50160524 -8.34234183 51.50160524 -9 55 C0.57 55 10.14 55 20 55 C19.3247289 51.6236445 18.67485447 48.81030494 17.546875 45.62890625 C17.11604614 44.40554565 17.11604614 44.40554565 16.67651367 43.1574707 C16.37076416 42.30113037 16.06501465 41.44479004 15.75 40.5625 C15.43716064 39.68102295 15.12432129 38.7995459 14.80200195 37.89135742 C14.16872617 36.10752533 13.53437736 34.32407379 12.89892578 32.54101562 C12.08320603 30.23520054 11.28512242 27.92443124 10.49609375 25.609375 C10.27276367 24.96154053 10.04943359 24.31370605 9.81933594 23.64624023 C9.22374605 21.91769478 8.63319316 20.18741613 8.04296875 18.45703125 C7.25228589 15.85590177 7.25228589 15.85590177 5 15 Z " fill="#010101" transform="translate(707,109)"/>
<path d="M0 0 C3.96 0 7.92 0 12 0 C12 28.05 12 56.1 12 85 C25.86 85 39.72 85 54 85 C54 88.3 54 91.6 54 95 C36.18 95 18.36 95 0 95 C0 63.65 0 32.3 0 0 Z " fill="#000000" transform="translate(148,109)"/>
<path d="M0 0 C3.96 0 7.92 0 12 0 C12 31.35 12 62.7 12 95 C8.04 95 4.08 95 0 95 C0 63.65 0 32.3 0 0 Z " fill="#000000" transform="translate(501,109)"/>
<path d="M0 0 C2.64 0 5.28 0 8 0 C9.8849413 7.00629124 11.39700836 13.76410027 12 21 C12.66 21 13.32 21 14 21 C14.0825 19.948125 14.165 18.89625 14.25 17.8125 C14.99189937 11.66691564 17.07941803 5.86000826 19 0 C21.31 0 23.62 0 26 0 C31 14.7 31 14.7 31 20 C31.66 20 32.32 20 33 20 C33.103125 18.9275 33.20625 17.855 33.3125 16.75 C34.0099734 11.04712923 35.53076782 5.54427239 37 0 C39.64 0 42.28 0 45 0 C42.76442231 11.15410571 40.33829317 22.11503345 37 33 C34.03 33 31.06 33 28 33 C27.566875 31.68 27.13375 30.36 26.6875 29 C25.23071027 24.62269372 23.64549375 20.3096265 22 16 C21.72285156 17.14339844 21.44570313 18.28679687 21.16015625 19.46484375 C20.79445622 20.95577465 20.42856071 22.44665761 20.0625 23.9375 C19.88009766 24.69224609 19.69769531 25.44699219 19.50976562 26.22460938 C18.11328125 31.88671875 18.11328125 31.88671875 17 33 C15.48071962 33.07179964 13.95832518 33.08392007 12.4375 33.0625 C11.61121094 33.05347656 10.78492188 33.04445313 9.93359375 33.03515625 C9.29550781 33.02355469 8.65742188 33.01195312 8 33 C6.85588819 28.7837502 5.7166931 24.56621222 4.58203125 20.34741211 C4.19535961 18.91247755 3.80734788 17.4779034 3.41796875 16.04370117 C2.8584468 13.98189132 2.30376041 11.91883244 1.75 9.85546875 C1.41484375 8.61434326 1.0796875 7.37321777 0.734375 6.09448242 C0 3 0 3 0 0 Z " fill="#F03736" transform="translate(419,250)"/>
<path d="M0 0 C2.90651604 0 4.0230822 1.01809146 6.3125 2.8125 C8 5 8 5 8.0625 7 C6.5910522 9.7697841 4.51990799 11.19083529 2 13 C-1.875 11.125 -1.875 11.125 -3 10 C-4.91059888 9.89117173 -6.82524455 9.85310506 -8.73890686 9.84178162 C-10.60891106 9.82709839 -10.60891106 9.82709839 -12.51669312 9.81211853 C-13.91094932 9.80621357 -15.30520593 9.80040318 -16.69946289 9.79467773 C-18.15772279 9.78510459 -19.61597988 9.77509485 -21.07423401 9.76467896 C-25.04510463 9.7375627 -29.01598721 9.71658966 -32.98689961 9.69667697 C-37.13227491 9.67485872 -41.27761303 9.64744974 -45.42295837 9.62062073 C-53.27816632 9.57063739 -61.13339483 9.52571957 -68.98864311 9.48259836 C-77.92927038 9.43327409 -86.86986038 9.37833818 -95.81045163 9.32291877 C-114.20693316 9.20901216 -132.60344985 9.10219212 -151 9 C-151 7.68 -151 6.36 -151 5 C-150.24608852 4.99853344 -149.49217705 4.99706688 -148.71541977 4.99555588 C-130.37949547 4.95852026 -112.04376219 4.89954882 -93.70798874 4.81609726 C-84.84096723 4.77627099 -75.97403493 4.74389678 -67.10693359 4.72900391 C-59.37925307 4.71600593 -51.65176854 4.68908893 -43.92419839 4.64538693 C-39.83164795 4.62273015 -35.73933961 4.60709183 -31.64672089 4.60811615 C-27.79540332 4.60886029 -23.94462182 4.59100939 -20.09344292 4.55883217 C-18.67932262 4.55030623 -17.26514239 4.5486015 -15.85100746 4.55419731 C-13.92121614 4.56081704 -11.99138822 4.54059152 -10.06170654 4.51898193 C-8.98136517 4.51529476 -7.90102379 4.51160759 -6.78794479 4.50780869 C-3.34987641 3.88158359 -2.27455476 2.56298044 0 0 Z " fill="#000000" transform="translate(759,260)"/>
<path d="M0 0 C2.4375 0.8125 2.4375 0.8125 4.4375 2.8125 C7.11393228 3.12805826 7.11393228 3.12805826 10.29666138 3.0909729 C11.54470551 3.10213638 12.79274963 3.11329987 14.07861328 3.12480164 C15.46923798 3.12716683 16.85986302 3.12934244 18.25048828 3.13134766 C19.70889851 3.14064169 21.16730339 3.15080957 22.6257019 3.16178894 C26.59238775 3.18916233 30.55903794 3.20425997 34.52579355 3.21721697 C38.6685131 3.23281553 42.81115948 3.25961611 46.9538269 3.2852478 C54.80191121 3.33209378 62.65000919 3.36880965 70.49816215 3.40192068 C79.43157823 3.44010105 88.36492094 3.48952184 97.29827523 3.53990483 C115.67796317 3.64331118 134.05769585 3.73254319 152.4375 3.8125 C152.4375 5.1325 152.4375 6.4525 152.4375 7.8125 C151.67935658 7.81396656 150.92121317 7.81543312 150.14009571 7.81694412 C131.69533378 7.85399094 113.25076158 7.91297735 94.80614948 7.99640274 C85.88646962 8.03621721 76.96687829 8.06859744 68.04711914 8.08349609 C60.27291797 8.09650016 52.49891141 8.12343285 44.72481984 8.16711307 C40.60820469 8.18975606 36.49182982 8.20540899 32.37514687 8.20438385 C28.5000255 8.2036389 24.62543585 8.22152261 20.75045204 8.25366783 C19.32868881 8.26218353 17.90686605 8.26390539 16.48508835 8.25830269 C14.54250974 8.25166761 12.59989497 8.27193533 10.65742493 8.29351807 C9.570631 8.29720524 8.48383707 8.30089241 7.36410999 8.30469131 C3.7764324 8.92720468 2.06902897 10.36007173 -0.5625 12.8125 C-2.5425 11.1625 -4.5225 9.5125 -6.5625 7.8125 C-6.20053085 5.13392828 -5.82262724 3.20269086 -4.3125 0.9375 C-2.5625 -0.1875 -2.5625 -0.1875 0 0 Z " fill="#020202" transform="translate(130.5625,260.1875)"/>
<path d="M0 0 C16.88571429 0 16.88571429 0 21.3125 4.1875 C23.48074603 7.80124338 23.59337198 9.84639617 23 14 C21 16.9375 21 16.9375 19 19 C20.3255581 22.62276315 21.94346955 25.63505348 24.125 28.8125 C24.66382813 29.60269531 25.20265625 30.39289063 25.7578125 31.20703125 C26.16773438 31.79871094 26.57765625 32.39039063 27 33 C23.46123374 33.70490515 20.50616574 33.95065135 17 33 C14.65798197 30.32958091 13.10856565 27.65112262 11.47265625 24.50390625 C10.19210799 21.69880259 10.19210799 21.69880259 7 21 C7 24.96 7 28.92 7 33 C4.69 33 2.38 33 0 33 C0 22.11 0 11.22 0 0 Z M7 7 C7 9.64 7 12.28 7 15 C10.465 14.505 10.465 14.505 14 14 C14.33 12.35 14.66 10.7 15 9 C11.77208445 6.8480563 10.71599191 6.79913557 7 7 Z " fill="#F33636" transform="translate(569,250)"/>
<path d="M0 0 C3.3 0 6.6 0 10 0 C12.75134328 6.12563221 14.94500627 12.4016666 17.125 18.75 C17.48464844 19.79027344 17.84429688 20.83054687 18.21484375 21.90234375 C19.4909861 25.59694315 20.76392839 29.29178518 22 33 C19.03 33 16.06 33 13 33 C12.34 31.02 11.68 29.04 11 27 C7.37 26.67 3.74 26.34 0 26 C-0.66 28.31 -1.32 30.62 -2 33 C-4.97 33 -7.94 33 -11 33 C-8.87489029 25.37460635 -6.21188198 18.00556093 -3.42553711 10.60229492 C-3.12784424 9.80799072 -2.83015137 9.01368652 -2.5234375 8.1953125 C-2.25450684 7.48391113 -1.98557617 6.77250977 -1.70849609 6.03955078 C-1.02195942 4.06321469 -0.50742933 2.02971733 0 0 Z M5 8 C4.49440092 9.43554025 3.9957251 10.8735202 3.5 12.3125 C3.2215625 13.11300781 2.943125 13.91351563 2.65625 14.73828125 C1.86066893 17.08769422 1.86066893 17.08769422 2 20 C4.31 20 6.62 20 9 20 C8.01 16.04 7.02 12.08 6 8 C5.67 8 5.34 8 5 8 Z " fill="#F23635" transform="translate(529,250)"/>
<path d="M0 0 C4.06729363 4.83678161 4.06729363 4.83678161 3.86328125 8.36328125 C2.45320759 12.67006731 -0.53578189 15.72085583 -3.3828125 19.18359375 C-5.27621351 21.89783396 -5.27621351 21.89783396 -4.86328125 25.03125 C-4.06061562 27.79154809 -3.15155462 30.40356286 -2.0625 33.0625 C1.86456433 43.67852005 2.58179558 52.97771887 0 64 C-0.66 64 -1.32 64 -2 64 C-1.98839844 62.87722656 -1.97679687 61.75445312 -1.96484375 60.59765625 C-1.53420383 45.83140055 -1.53420383 45.83140055 -6 32 C-5.7834375 33.46759766 -5.7834375 33.46759766 -5.5625 34.96484375 C-3.01250931 52.75574047 -3.01250931 52.75574047 -5 60 C-5.4021875 61.60875 -5.4021875 61.60875 -5.8125 63.25 C-7.13812202 67.43617481 -8.93445771 71.13964183 -11 75 C-11.66 75 -12.32 75 -13 75 C-13.061875 75.53625 -13.12375 76.0725 -13.1875 76.625 C-14.39471023 80.15376838 -16.43976171 82.32338724 -19 85 C-21.8125 86.375 -21.8125 86.375 -24 87 C-24 87.66 -24 88.32 -24 89 C-25.84736691 89.99193593 -27.70327783 90.96796697 -29.5625 91.9375 C-30.59503906 92.48277344 -31.62757813 93.02804688 -32.69140625 93.58984375 C-43.5219992 98.20595243 -58.18036242 97.31692611 -69 93 C-71.31798665 91.82296787 -72.98897765 90.68491062 -75 89 C-75 88.34 -75 87.68 -75 87 C-74.29875 87.28617187 -73.5975 87.57234375 -72.875 87.8671875 C-58.10111355 93.68841993 -45.99000852 95.02109129 -31 89 C-27.70472904 87.35880914 -27.70472904 87.35880914 -25 85 C-23.94039062 84.20335938 -23.94039062 84.20335938 -22.859375 83.390625 C-14.38933035 76.60337068 -9.9334963 67.58165537 -8 57 C-7.70303169 54.22190936 -7.61921705 51.48034387 -7.625 48.6875 C-7.62516113 47.94910889 -7.62532227 47.21071777 -7.62548828 46.44995117 C-7.75832081 40.03833451 -9.34799432 34.83036364 -12 29 C-12.67681023 27.00340982 -13.34961499 25.00535378 -14 23 C-13.01 23.33 -12.02 23.66 -11 24 C-9.8125 26.5625 -9.8125 26.5625 -9 29 C-8.814375 27.14375 -8.814375 27.14375 -8.625 25.25 C-8.24253695 22.1237803 -7.69450477 19.71120763 -6 17 C-5.34 17 -4.68 17 -4 17 C-4 16.34 -4 15.68 -4 15 C-3.34 15 -2.68 15 -2 15 C-1.6550855 13.66961551 -1.32483418 12.33542939 -1 11 C-0.773125 10.154375 -0.54625 9.30875 -0.3125 8.4375 C0.30360761 5.74474036 0.30360761 5.74474036 -2 3 C-8.84942449 4.77977172 -15.52449979 6.80769638 -22.17578125 9.23046875 C-25.23110651 10.06297093 -27.84799212 10.13501954 -31 10 C-31 9.34 -31 8.68 -31 8 C-29.88882813 7.68546875 -28.77765625 7.3709375 -27.6328125 7.046875 C-26.1298285 6.61590579 -24.62725037 6.18351954 -23.125 5.75 C-22.34938721 5.52618652 -21.57377441 5.30237305 -20.7746582 5.07177734 C-15.67784376 3.57180755 -10.80793142 1.84013811 -5.98046875 -0.3984375 C-3.54125372 -1.13934305 -2.34651482 -0.96392103 0 0 Z " fill="#C7C6C4" transform="translate(258,16)"/>
<path d="M0 0 C6.6 0 13.2 0 20 0 C20 2.31 20 4.62 20 7 C16.04 7 12.08 7 8 7 C8 8.98 8 10.96 8 13 C11.63 13 15.26 13 19 13 C19 15.31 19 17.62 19 20 C15.37 20 11.74 20 8 20 C8 22.31 8 24.62 8 27 C11.96 27 15.92 27 20 27 C20 28.98 20 30.96 20 33 C13.4 33 6.8 33 0 33 C0 22.11 0 11.22 0 0 Z " fill="#F03837" transform="translate(299,250)"/>
<path d="M0 0 C3.114375 -0.020625 6.22875 -0.04125 9.4375 -0.0625 C10.91174438 -0.07615601 10.91174438 -0.07615601 12.41577148 -0.09008789 C13.18477783 -0.09258545 13.95378418 -0.09508301 14.74609375 -0.09765625 C15.93223267 -0.10551147 15.93223267 -0.10551147 17.14233398 -0.11352539 C19 0 19 0 20 1 C20 2.98 20 4.96 20 7 C16.04 7 12.08 7 8 7 C8 8.98 8 10.96 8 13 C11.63 13 15.26 13 19 13 C19 15.31 19 17.62 19 20 C15.37 20 11.74 20 8 20 C8 22.31 8 24.62 8 27 C11.96 27 15.92 27 20 27 C20 28.98 20 30.96 20 33 C13.4 33 6.8 33 0 33 C0 22.11 0 11.22 0 0 Z " fill="#FC3231" transform="translate(383,250)"/>
<path d="M0 0 C3.114375 -0.020625 6.22875 -0.04125 9.4375 -0.0625 C10.91174438 -0.07615601 10.91174438 -0.07615601 12.41577148 -0.09008789 C13.18477783 -0.09258545 13.95378418 -0.09508301 14.74609375 -0.09765625 C15.93223267 -0.10551147 15.93223267 -0.10551147 17.14233398 -0.11352539 C19 0 19 0 20 1 C20 2.98 20 4.96 20 7 C16.04 7 12.08 7 8 7 C8 8.98 8 10.96 8 13 C11.63 13 15.26 13 19 13 C19 15.31 19 17.62 19 20 C15.37 20 11.74 20 8 20 C8 22.31 8 24.62 8 27 C11.96 27 15.92 27 20 27 C20 28.98 20 30.96 20 33 C13.4 33 6.8 33 0 33 C0 22.11 0 11.22 0 0 Z " fill="#F03939" transform="translate(482,250)"/>
<path d="M0 0 C0.99 1.98 0.99 1.98 2 4 C0.56570999 4.67354499 -0.87257057 5.33859701 -2.3125 6 C-3.51326172 6.556875 -3.51326172 6.556875 -4.73828125 7.125 C-7 8 -7 8 -10 8 C-10 8.99 -10 9.98 -10 11 C-11.03898437 11.50789063 -12.07796875 12.01578125 -13.1484375 12.5390625 C-27.55705668 19.38594795 -27.55705668 19.38594795 -40.25 28.875 C-42.99435834 31.41297366 -43.63985894 31.95498237 -47.5 32.4375 C-48.325 32.293125 -49.15 32.14875 -50 32 C-50.33 32.99 -50.66 33.98 -51 35 C-53.85243395 37.62115553 -56.12084756 39.42531075 -60 40 C-60 40.99 -60 41.98 -60 43 C-61.32 42.34 -62.64 41.68 -64 41 C-64 40.34 -64 39.68 -64 39 C-63.34 39 -62.68 39 -62 39 C-62 38.34 -62 37.68 -62 37 C-60.390625 35.37890625 -60.390625 35.37890625 -58.25 33.5625 C-57.55390625 32.96566406 -56.8578125 32.36882812 -56.140625 31.75390625 C-50.33853007 27 -50.33853007 27 -48 27 C-48 26.34 -48 25.68 -48 25 C-47.34 25 -46.68 25 -46 25 C-46 24.34 -46 23.68 -46 23 C-45.34 23 -44.68 23 -44 23 C-43.67 22.01 -43.34 21.02 -43 20 C-40.8203125 18.71875 -40.8203125 18.71875 -38.125 17.5 C-34.81180113 15.99312238 -32.45482852 14.68792796 -30 12 C-29.278125 11.484375 -28.55625 10.96875 -27.8125 10.4375 C-27.214375 9.963125 -26.61625 9.48875 -26 9 C-26 8.34 -26 7.68 -26 7 C-25.29875 7.226875 -24.5975 7.45375 -23.875 7.6875 C-20.1162103 8.0960641 -18.24963618 6.80535343 -15 5 C-14.34 5 -13.68 5 -13 5 C-12.67 4.34 -12.34 3.68 -12 3 C-9.27734375 2.1484375 -9.27734375 2.1484375 -5.9375 1.375 C-4.83277344 1.11460938 -3.72804687 0.85421875 -2.58984375 0.5859375 C-1.73519531 0.39257812 -0.88054687 0.19921875 0 0 Z " fill="#B0B0AC" transform="translate(94,92)"/>
<path d="M0 0 C2.64 0 5.28 0 8 0 C8.83819158 1.62249941 9.6704116 3.24808497 10.5 4.875 C10.9640625 5.77992188 11.428125 6.68484375 11.90625 7.6171875 C13 10 13 10 13 12 C13.66 12 14.32 12 15 12 C15.37125 10.700625 15.37125 10.700625 15.75 9.375 C17.1377002 5.62820945 18.30755484 2.97586044 21 0 C23.84628036 -0.52345386 26.07564677 -0.29243532 29 0 C27.69216312 3.61538153 25.97619834 6.80606446 24.02929688 10.11499023 C19.61886143 17.72969776 17.75812809 24.03562218 18 33 C15.36 33 12.72 33 10 33 C10.03222656 32.25878906 10.06445312 31.51757812 10.09765625 30.75390625 C9.98393153 20.4302286 6.05237651 13.3742674 0.81030273 4.69482422 C0 3 0 3 0 0 Z " fill="#F23635" transform="translate(336,250)"/>
<path d="M0 0 C1.32 0.33 2.64 0.66 4 1 C3.67 4.96 3.34 8.92 3 13 C3.66 13.33 4.32 13.66 5 14 C-1.32783507 28.24646667 -8.54183824 38.89513013 -23 46 C-26.625 47.375 -26.625 47.375 -29 48 C-29 47.01 -29 46.02 -29 45 C-30.0725 45.350625 -31.145 45.70125 -32.25 46.0625 C-36.92307692 47.23076923 -36.92307692 47.23076923 -40 46 C-39 44 -39 44 -36.1640625 42.96484375 C-34.99617188 42.62582031 -33.82828125 42.28679687 -32.625 41.9375 C-31.46226563 41.59589844 -30.29953125 41.25429687 -29.1015625 40.90234375 C-27.56628906 40.45568359 -27.56628906 40.45568359 -26 40 C-24.515 39.505 -24.515 39.505 -23 39 C-23 38.34 -23 37.68 -23 37 C-21.9275 36.443125 -20.855 35.88625 -19.75 35.3125 C-16.33165287 33.38579525 -14.36154604 31.14872805 -12 28 C-11.34 28 -10.68 28 -10 28 C-9.89429687 27.44183594 -9.78859375 26.88367188 -9.6796875 26.30859375 C-8.87487159 23.57499488 -7.59885054 21.50058609 -6.125 19.0625 C-2.69523206 12.96147048 -1.2405001 6.84451371 0 0 Z " fill="#B0B1AD" transform="translate(131,131)"/>
<path d="M0 0 C-0.33 0.99 -0.66 1.98 -1 3 C-1.66 3 -2.32 3 -3 3 C-3 3.66 -3 4.32 -3 5 C-6.63 5 -10.26 5 -14 5 C-14.66 6.32 -15.32 7.64 -16 9 C-18.31 9 -20.62 9 -23 9 C-23 9.66 -23 10.32 -23 11 C-23.66 11 -24.32 11 -25 11 C-25.33 11.66 -25.66 12.32 -26 13 C-27.671875 13.74609375 -27.671875 13.74609375 -29.75 14.4375 C-33.10372689 15.6378447 -36.12349284 16.84261963 -39 19 C-39 19.99 -39 20.98 -39 22 C-40.98 21.67 -42.96 21.34 -45 21 C-45 21.66 -45 22.32 -45 23 C-46.69197851 24.22751382 -48.38874823 25.44938139 -50.1171875 26.625 C-52.26058911 28.11619961 -52.26058911 28.11619961 -54.8125 30.8125 C-55.534375 31.534375 -56.25625 32.25625 -57 33 C-57.66 33 -58.32 33 -59 33 C-59.226875 33.515625 -59.45375 34.03125 -59.6875 34.5625 C-60.83954222 36.70200698 -62.0384937 38.72262276 -63.375 40.75 C-63.77460938 41.36359375 -64.17421875 41.9771875 -64.5859375 42.609375 C-66 44 -66 44 -70 44 C-70 44.66 -70 45.32 -70 46 C-71.32 46 -72.64 46 -74 46 C-74 46.66 -74 47.32 -74 48 C-75.32 47.67 -76.64 47.34 -78 47 C-72.25 42 -72.25 42 -70 42 C-69.76152344 41.10667969 -69.52304688 40.21335938 -69.27734375 39.29296875 C-67.8717492 35.66937179 -66.37188977 33.95581746 -63.5625 31.3125 C-62.78003906 30.56613281 -61.99757812 29.81976563 -61.19140625 29.05078125 C-60.10666016 28.03564453 -60.10666016 28.03564453 -59 27 C-57.99879736 26.00120409 -56.99858056 25.00141743 -56 24 C-51.77711212 20.08610392 -47.58518934 17.67001905 -42.39453125 15.1953125 C-39.41943548 13.71019128 -36.75376737 11.85719195 -34 10 C-30.99167651 8.60077977 -29.33265035 8 -26 8 C-26.495 6.02 -26.495 6.02 -27 4 C-26.360625 4.226875 -25.72125 4.45375 -25.0625 4.6875 C-21.24663879 5.07687359 -18.77241258 4.06863461 -15.21875 2.765625 C-12.51659097 1.83318984 -9.82276648 1.41308778 -7 1 C-4.53721199 -0.231394 -2.7204945 -0.07159196 0 0 Z " fill="#B1B0AD" transform="translate(228,27)"/>
<path d="M0 0 C0 0.66 0 1.32 0 2 C-0.78503906 2.30292969 -1.57007813 2.60585938 -2.37890625 2.91796875 C-8.59121072 5.39526808 -13.69060734 7.96486158 -19 12 C-21 13 -23 14 -25 15 C-26.67036393 16.32869858 -28.33784732 17.66104368 -30 19 C-30.66 19 -31.32 19 -32 19 C-32.25910156 19.59039062 -32.51820313 20.18078125 -32.78515625 20.7890625 C-34.44064675 23.80194876 -36.72571134 25.7262423 -39.24609375 28.0234375 C-41.18927336 29.9800753 -41.18927336 29.9800753 -42.125 32.9296875 C-44.90679692 37.48487996 -48.76477063 38.71459966 -53.5625 40.75 C-55.29450873 41.51213482 -57.02505319 42.27760859 -58.75390625 43.046875 C-59.52033447 43.37526367 -60.2867627 43.70365234 -61.07641602 44.04199219 C-63.16871323 44.95689884 -63.16871323 44.95689884 -65 47 C-66.32 47 -67.64 47 -69 47 C-69 47.66 -69 48.32 -69 49 C-70.78953185 49.83790789 -72.58169695 50.67019396 -74.375 51.5 C-75.37273437 51.9640625 -76.37046875 52.428125 -77.3984375 52.90625 C-80 54 -80 54 -82 54 C-80.59622996 50.4963413 -79.2733666 49.27537156 -75.88671875 47.66796875 C-75.0570459 47.26586182 -74.22737305 46.86375488 -73.37255859 46.44946289 C-72.48648926 46.03301514 -71.60041992 45.61656738 -70.6875 45.1875 C-68.86029032 44.29506227 -67.03346736 43.40183232 -65.20703125 42.5078125 C-62.79146303 41.33993171 -60.37466009 40.17623726 -57.94677734 39.03417969 C-50.14314181 35.3502406 -44.77567065 31.29009951 -39.21875 24.6484375 C-34.69170411 19.24467497 -29.70696687 15.06311228 -24 11 C-23.3090625 10.50371094 -22.618125 10.00742187 -21.90625 9.49609375 C-5.55246914 -1.85082305 -5.55246914 -1.85082305 0 0 Z " fill="#C3C3C1" transform="translate(202,33)"/>
<path d="M0 0 C2.31 0.33 4.62 0.66 7 1 C7 5.29 7 9.58 7 14 C7.66 14.33 8.32 14.66 9 15 C10.35308313 16.31328657 11.68870078 17.64499081 13 19 C12.01 19.66 11.02 20.32 10 21 C9.01 20.67 8.02 20.34 7 20 C7 23.96 7 27.92 7 32 C4.69 32 2.38 32 0 32 C0 21.44 0 10.88 0 0 Z " fill="#FB3331" transform="translate(569,251)"/>
<path d="M0 0 C1.74707031 1.25927734 1.74707031 1.25927734 2.68457031 4.07177734 C2.75763181 7.79791351 2.0436358 9.36730598 -0.25292969 12.25927734 C-0.91292969 12.25927734 -1.57292969 12.25927734 -2.25292969 12.25927734 C-2.56230469 13.06365234 -2.87167969 13.86802734 -3.19042969 14.69677734 C-4.25292969 17.25927734 -4.25292969 17.25927734 -5.25292969 18.25927734 C-5.48485833 19.77397183 -5.66508207 21.29682296 -5.81542969 22.82177734 C-5.89921875 23.64806641 -5.98300781 24.47435547 -6.06933594 25.32568359 C-6.16021484 26.2828125 -6.16021484 26.2828125 -6.25292969 27.25927734 C-7.75292969 25.94677734 -7.75292969 25.94677734 -9.25292969 24.25927734 C-9.25292969 23.26927734 -9.25292969 22.27927734 -9.25292969 21.25927734 C-10.24292969 20.92927734 -11.23292969 20.59927734 -12.25292969 20.25927734 C-10.87469867 15.74870312 -8.864148 14.148252 -5.25292969 11.25927734 C-3.91993995 8.64109278 -3.91993995 8.64109278 -3.25292969 6.25927734 C-4.03667969 6.58927734 -4.82042969 6.91927734 -5.62792969 7.25927734 C-8.25292969 8.25927734 -8.25292969 8.25927734 -10.25292969 8.25927734 C-10.95417969 8.58927734 -11.65542969 8.91927734 -12.37792969 9.25927734 C-16.17437127 10.57977876 -19.24409979 10.39516988 -23.25292969 10.25927734 C-23.25292969 8.93927734 -23.25292969 7.61927734 -23.25292969 6.25927734 C-19.8446018 5.0264589 -16.42533223 3.8274085 -13.00292969 2.63427734 C-12.03484375 2.28365234 -11.06675781 1.93302734 -10.06933594 1.57177734 C-9.13476562 1.24951172 -8.20019531 0.92724609 -7.23730469 0.59521484 C-5.94904785 0.13961182 -5.94904785 0.13961182 -4.63476562 -0.32519531 C-2.25292969 -0.74072266 -2.25292969 -0.74072266 0 0 Z " fill="#B4B3B0" transform="translate(256.2529296875,18.74072265625)"/>
<path d="M0 0 C3.14581423 -0.02888514 6.29159469 -0.04675923 9.4375 -0.0625 C10.33533203 -0.07087891 11.23316406 -0.07925781 12.15820312 -0.08789062 C13.01220703 -0.09111328 13.86621094 -0.09433594 14.74609375 -0.09765625 C15.93223267 -0.10551147 15.93223267 -0.10551147 17.14233398 -0.11352539 C19 0 19 0 20 1 C20 2.98 20 4.96 20 7 C16.04 7 12.08 7 8 7 C8 8.98 8 10.96 8 13 C11.63 13 15.26 13 19 13 C19 15.31 19 17.62 19 20 C15.37 20 11.74 20 8 20 C8 22.31 8 24.62 8 27 C11.96 27 15.92 27 20 27 C20 28.98 20 30.96 20 33 C19.34 33 18.68 33 18 33 C18 31.68 18 30.36 18 29 C14.37 29 10.74 29 7 29 C5.87752146 26.75504292 5.73168079 25.11556845 5.5 22.625 C5.22175328 19.6537225 4.78907653 16.88012934 4 14 C4.66 14 5.32 14 6 14 C5.443125 12.8553125 5.443125 12.8553125 4.875 11.6875 C4.58625 10.800625 4.2975 9.91375 4 9 C4.66 8.01 5.32 7.02 6 6 C8.8203125 5.70703125 8.8203125 5.70703125 12.125 5.8125 C13.76855469 5.85310547 13.76855469 5.85310547 15.4453125 5.89453125 C16.28835938 5.92933594 17.13140625 5.96414062 18 6 C17.67 4.68 17.34 3.36 17 2 C11.39 1.67 5.78 1.34 0 1 C0 0.67 0 0.34 0 0 Z " fill="#EF3B3D" transform="translate(383,250)"/>
<path d="M0 0 C2.97 0.495 2.97 0.495 6 1 C6.33 1.99 6.66 2.98 7 4 C8.56108612 5.19106288 8.56108612 5.19106288 10.4375 6.125 C11.05496094 6.45757812 11.67242187 6.79015625 12.30859375 7.1328125 C13.53564293 7.76192316 14.76665336 8.38332668 16 9 C16 9.66 16 10.32 16 11 C17.134375 11.103125 18.26875 11.20625 19.4375 11.3125 C24.8458117 11.98493662 30.22035044 13.44426659 34.99609375 16.1171875 C37.4002097 17.17631071 38.73282027 17.06780802 41.3125 16.6875 C42.10269531 16.57535156 42.89289063 16.46320313 43.70703125 16.34765625 C44.46371094 16.23292969 45.22039062 16.11820313 46 16 C47.7325 15.814375 47.7325 15.814375 49.5 15.625 C53.15759769 14.97185755 56.41683257 13.86294015 59.91015625 12.6328125 C62.34151749 11.89658723 64.47358903 11.75550862 67 12 C67.66 10.68 68.32 9.36 69 8 C70.32 8 71.64 8 73 8 C71.96874878 11.17625377 71.05291995 11.9703478 68.0859375 13.6328125 C52.87952496 19.74739102 37.6442393 22.46629364 21.98535156 16.19287109 C13.71247533 12.48676733 6.1811337 7.71716698 0 1 C0 0.67 0 0.34 0 0 Z " fill="#C4C4C0" transform="translate(164,100)"/>
<path d="M0 0 C1.32 0 2.64 0 4 0 C2.63764501 3.20393032 1.29451314 4.78760713 -1.5625 6.75 C-4.77086136 9.06259624 -7.82433988 11.46983166 -10.8125 14.0625 C-11.54082031 14.69285156 -12.26914063 15.32320312 -13.01953125 15.97265625 C-16.34512882 19.37696619 -18.42808688 22.47274647 -18.375 27.3125 C-17.78295535 39.72502225 -9.33489303 46.74958224 -1 55 C-1.99 55.495 -1.99 55.495 -3 56 C-5.125 55.0625 -5.125 55.0625 -7 54 C-7 53.34 -7 52.68 -7 52 C-7.61875 51.773125 -8.2375 51.54625 -8.875 51.3125 C-11.6292098 49.61137042 -11.82150461 47.94623846 -13 45 C-14.32520503 44.31731862 -15.65812182 43.6492959 -17 43 C-17.75 40.875 -17.75 40.875 -18 39 C-18.66 39 -19.32 39 -20 39 C-21.79565432 33.72526545 -23.31100769 28.54119249 -22 23 C-18.93429729 17.58053502 -15.32607009 12.37914531 -10 9 C-9.34 9 -8.68 9 -8 9 C-7.67 8.01 -7.34 7.02 -7 6 C-2.54285714 2 -2.54285714 2 0 2 C0 1.34 0 0.68 0 0 Z " fill="#C6C6C4" transform="translate(183,48)"/>
<path d="M0 0 C1.32 0.33 2.64 0.66 4 1 C3.67 4.96 3.34 8.92 3 13 C3.66 13.33 4.32 13.66 5 14 C4.01 14 3.02 14 2 14 C1.84144531 14.56847656 1.68289062 15.13695312 1.51953125 15.72265625 C-1.012155 24.10099916 -4.37198541 29.5651078 -12 34 C-12.33 32.35 -12.66 30.7 -13 29 C-12.01 28.67 -11.02 28.34 -10 28 C-9.61777434 26.67985136 -9.29418566 25.34251394 -9 24 C-8.07249422 22.33659892 -7.11026495 20.69235371 -6.125 19.0625 C-2.69523206 12.96147048 -1.2405001 6.84451371 0 0 Z " fill="#B0B1AD" transform="translate(131,131)"/>
<path d="M0 0 C0.66 0 1.32 0 2 0 C2 0.66 2 1.32 2 2 C2.66 2 3.32 2 4 2 C4 4.31 4 6.62 4 9 C6.64 8.67 9.28 8.34 12 8 C12 7.236875 12 6.47375 12 5.6875 C12 3.79166667 12 1.89583333 12 0 C13.65 0.66 15.3 1.32 17 2 C16.4140625 8.15234375 16.4140625 8.15234375 16 10 C15.01 10.495 15.01 10.495 14 11 C13.67 11.99 13.34 12.98 13 14 C11.95199219 14.06058594 10.90398438 14.12117188 9.82421875 14.18359375 C8.44529952 14.26801738 7.06639395 14.35266447 5.6875 14.4375 C4.65206055 14.49647461 4.65206055 14.49647461 3.59570312 14.55664062 C0.52838465 14.74927415 -2.06968152 15.02322717 -5 16 C-5 13.69 -5 11.38 -5 9 C-4.34 9 -3.68 9 -3 9 C-2.01 6.03 -1.02 3.06 0 0 Z " fill="#FB312F" transform="translate(527,261)"/>
<path d="M0 0 C0.99 0.33 1.98 0.66 3 1 C1.32382616 2.92759992 0.40227852 3.90534623 -2.125 4.5 C-2.74375 4.665 -3.3625 4.83 -4 5 C-4.33 5.99 -4.66 6.98 -5 8 C-7.25 9.31640625 -7.25 9.31640625 -10 10.5625 C-13.70967628 12.02364577 -13.70967628 12.02364577 -16 15 C-16.66 15 -17.32 15 -18 15 C-18 15.66 -18 16.32 -18 17 C-18.66 17 -19.32 17 -20 17 C-20 17.66 -20 18.32 -20 19 C-21.99284138 20.3440093 -23.99419671 21.67541292 -26 23 C-26.886875 23.886875 -27.77375 24.77375 -28.6875 25.6875 C-31 28 -31 28 -34 29 C-34 29.66 -34 30.32 -34 31 C-36.08203125 32.47265625 -36.08203125 32.47265625 -38.8125 34.0625 C-39.70582031 34.58972656 -40.59914063 35.11695313 -41.51953125 35.66015625 C-44 37 -44 37 -47 38 C-47 37.01 -47 36.02 -47 35 C-45.5234375 33.81640625 -45.5234375 33.81640625 -43.375 32.5625 C-38.89330833 29.73046735 -34.93344002 26.52600369 -30.9375 23.0625 C-30.32632324 22.53430664 -29.71514648 22.00611328 -29.08544922 21.46191406 C-26.63387969 19.33143858 -24.20311326 17.18748916 -21.81640625 14.984375 C-15.41578817 9.09305341 -7.79005106 3.89502553 0 0 Z " fill="#C2C2BF" transform="translate(66,100)"/>
<path d="M0 0 C1.134375 0.020625 2.26875 0.04125 3.4375 0.0625 C-1.58875782 5.38350751 -7.48431403 8.44041571 -14.5625 10.0625 C-14.2325 11.7125 -13.9025 13.3625 -13.5625 15.0625 C-14.160625 14.8975 -14.75875 14.7325 -15.375 14.5625 C-18.12478999 13.93397657 -19.89029 13.66844586 -22.375 15.125 C-25.36913387 16.40820023 -27.44822299 15.77029023 -30.5625 15.0625 C-29.9025 13.4125 -29.2425 11.7625 -28.5625 10.0625 C-27.9025 10.0625 -27.2425 10.0625 -26.5625 10.0625 C-26.2325 11.0525 -25.9025 12.0425 -25.5625 13.0625 C-23.5825 12.7325 -21.6025 12.4025 -19.5625 12.0625 C-19.5625 11.4025 -19.5625 10.7425 -19.5625 10.0625 C-20.8825 9.7325 -22.2025 9.4025 -23.5625 9.0625 C-21.16740662 6.16317643 -19.25004757 5.56081724 -15.5625 5.0625 C-15.8925 5.7225 -16.2225 6.3825 -16.5625 7.0625 C-15.2425 6.7325 -13.9225 6.4025 -12.5625 6.0625 C-13.2225 5.0725 -13.8825 4.0825 -14.5625 3.0625 C-13.5725 2.7325 -12.5825 2.4025 -11.5625 2.0625 C-11.2325 2.7225 -10.9025 3.3825 -10.5625 4.0625 C-2.34493671 0.04113924 -2.34493671 0.04113924 0 0 Z " fill="#BCBCB9" transform="translate(149.5625,79.9375)"/>
<path d="M0 0 C2.63706536 0.34860992 3.72955911 0.67197197 5.44921875 2.7578125 C9.48700818 10.47674119 9.87409628 17.41565524 10 26 C7.56640625 25.38671875 7.56640625 25.38671875 5 24 C4.21484375 21.20703125 4.21484375 21.20703125 3.9375 17.8125 C3.46938018 13.65449452 3.08699911 10.48076732 0.8125 6.9375 C-1 4 -1 4 -0.75 1.5625 C-0.5025 1.046875 -0.255 0.53125 0 0 Z " fill="#AFAFAB" transform="translate(126,101)"/>
<path d="M0 0 C0.66 0 1.32 0 2 0 C1.32313727 10.60418271 -5.26106223 19.05814384 -13 26 C-13.99 26 -14.98 26 -16 26 C-15.505 24.515 -15.505 24.515 -15 23 C-14.34 23 -13.68 23 -13 23 C-13 22.34 -13 21.68 -13 21 C-13.66 21 -14.32 21 -15 21 C-13.76341941 17.57562298 -12.64719559 14.55265289 -10 12 C-6.8125 11.75 -6.8125 11.75 -4 12 C-3.8453125 10.9790625 -3.8453125 10.9790625 -3.6875 9.9375 C-2.85274981 6.37084011 -1.50527246 3.33777806 0 0 Z " fill="#B2B1AD" transform="translate(255,81)"/>
<path d="M0 0 C-0.33 0.66 -0.66 1.32 -1 2 C-1.78503906 1.97679688 -2.57007813 1.95359375 -3.37890625 1.9296875 C-4.42949219 1.91164063 -5.48007813 1.89359375 -6.5625 1.875 C-7.59503906 1.85179688 -8.62757812 1.82859375 -9.69140625 1.8046875 C-13.39434326 2.02327882 -16.4618614 2.899418 -20 4 C-22.5 4.625 -25 5.25 -27.5 5.875 C-32.88196895 7.2569908 -37.3391693 8.96504048 -42 12 C-42.66 12 -43.32 12 -44 12 C-44.33 12.66 -44.66 13.32 -45 14 C-45 13.34 -45 12.68 -45 12 C-45.66 12 -46.32 12 -47 12 C-47 11.34 -47 10.68 -47 10 C-37.09011633 5.30245774 -27.89816977 1.71861 -17 0 C-16.14535156 -0.14179687 -15.29070312 -0.28359375 -14.41015625 -0.4296875 C-9.40295468 -1.13155165 -4.98591363 -0.81587678 0 0 Z " fill="#C3C3C0" transform="translate(117,88)"/>
<path d="M0 0 C2 2 2 2 2.1953125 4.6015625 C2.17210937 5.59929687 2.14890625 6.59703125 2.125 7.625 C2.10695313 8.62789063 2.08890625 9.63078125 2.0703125 10.6640625 C2.03550781 11.82035156 2.03550781 11.82035156 2 13 C-0.31 13.33 -2.62 13.66 -5 14 C-5 13.34 -5 12.68 -5 12 C-5.99 11.67 -6.98 11.34 -8 11 C-8.59732819 8.23735711 -9 5.83967231 -9 3 C-6.13822943 1.56911472 -4.06624227 2.40008303 -1 3 C-0.67 2.01 -0.34 1.02 0 0 Z " fill="#FB3231" transform="translate(455,268)"/>
<path d="M0 0 C0 0.66 0 1.32 0 2 C-0.79265259 2.39940796 -0.79265259 2.39940796 -1.60131836 2.80688477 C-14.68248144 9.25297433 -14.68248144 9.25297433 -26.40625 17.8203125 C-28 19 -28 19 -31 19 C-30.67 17.35 -30.34 15.7 -30 14 C-29.42507812 13.89816406 -28.85015625 13.79632813 -28.2578125 13.69140625 C-25.60796249 12.87994699 -24.02800894 11.66891213 -21.875 9.9375 C-18.21176471 7 -18.21176471 7 -16 7 C-16 6.34 -16 5.68 -16 5 C-15.34 5 -14.68 5 -14 5 C-13.67 4.34 -13.34 3.68 -13 3 C-11.68 3 -10.36 3 -9 3 C-8.175 2.505 -7.35 2.01 -6.5 1.5 C-4 0 -4 0 0 0 Z " fill="#B5B5B2" transform="translate(81,102)"/>
<path d="M0 0 C0.556875 0.37125 1.11375 0.7425 1.6875 1.125 C1.0275 1.125 0.3675 1.125 -0.3125 1.125 C-0.6425 1.785 -0.9725 2.445 -1.3125 3.125 C-2.3025 3.785 -3.2925 4.445 -4.3125 5.125 C-4.3125 6.115 -4.3125 7.105 -4.3125 8.125 C-5.42625 7.815625 -5.42625 7.815625 -6.5625 7.5 C-9.63580841 7.08091249 -10.74036866 7.50550989 -13.3125 9.125 C-12.6525 9.785 -11.9925 10.445 -11.3125 11.125 C-10.9825 11.785 -10.6525 12.445 -10.3125 13.125 C-12.2925 13.785 -14.2725 14.445 -16.3125 15.125 C-16.6425 13.805 -16.9725 12.485 -17.3125 11.125 C-18.6325 11.455 -19.9525 11.785 -21.3125 12.125 C-20.9825 11.135 -20.6525 10.145 -20.3125 9.125 C-19.6525 9.125 -18.9925 9.125 -18.3125 9.125 C-18.3125 8.465 -18.3125 7.805 -18.3125 7.125 C-17.04558493 6.45091692 -15.77379251 5.78599503 -14.5 5.125 C-13.79230469 4.75375 -13.08460937 4.3825 -12.35546875 4 C-10.3125 3.125 -10.3125 3.125 -7.3125 3.125 C-7.3125 2.465 -7.3125 1.805 -7.3125 1.125 C-2.88173077 -1.09038462 -2.88173077 -1.09038462 0 0 Z " fill="#B0AFAD" transform="translate(140.3125,78.875)"/>
<path d="M0 0 C2 1 2 1 2.87109375 3.015625 C3.79898221 5.16266301 3.79898221 5.16266301 5.84765625 5.609375 C6.57855469 5.65578125 7.30945313 5.7021875 8.0625 5.75 C9.25939453 5.83314453 9.25939453 5.83314453 10.48046875 5.91796875 C14.32420683 6.04311371 18.15511418 6.06948589 22 6 C22.99 6 23.98 6 25 6 C25 6.66 25 7.32 25 8 C19.65176789 11.56548807 13.09603027 10.03517495 7 9 C6.071875 8.773125 5.14375 8.54625 4.1875 8.3125 C3.465625 8.209375 2.74375 8.10625 2 8 C1.34 8.66 0.68 9.32 0 10 C-1.32 9.01 -2.64 8.02 -4 7 C-3.34 7 -2.68 7 -2 7 C-2.33 5.35 -2.66 3.7 -3 2 C-2.01 1.34 -1.02 0.68 0 0 Z " fill="#B3B3AF" transform="translate(66,169)"/>
<path d="M0 0 C0.66 0.33 1.32 0.66 2 1 C-0.99790183 4.3142272 -3.93477732 6.22399543 -7.9375 8.1875 C-9.46697266 8.95126953 -9.46697266 8.95126953 -11.02734375 9.73046875 C-13.72784344 10.88377019 -16.10888338 11.55807978 -19 12 C-19 12.66 -19 13.32 -19 14 C-20.78953185 14.83790789 -22.58169695 15.67019396 -24.375 16.5 C-25.37273437 16.9640625 -26.37046875 17.428125 -27.3984375 17.90625 C-30 19 -30 19 -32 19 C-30.58614812 15.44802531 -29.20188417 14.23761219 -25.78125 12.59765625 C-24.93046875 12.18193359 -24.0796875 11.76621094 -23.203125 11.33789062 C-21.86507812 10.70657227 -21.86507812 10.70657227 -20.5 10.0625 C-19.63890625 9.64548828 -18.7778125 9.22847656 -17.890625 8.79882812 C-16.15022806 7.9559862 -14.40671193 7.11955517 -12.66015625 6.28955078 C-9.06827108 4.54833038 -5.53939505 2.68931497 -2.01367188 0.81811523 C-1.0169043 0.41314819 -1.0169043 0.41314819 0 0 Z " fill="#CECECD" transform="translate(152,68)"/>
<path d="M0 0 C1.9453125 -0.29296875 1.9453125 -0.29296875 4.125 -0.1875 C5.40375 -0.125625 6.6825 -0.06375 8 0 C7.34 0.66 6.68 1.32 6 2 C4.68 2 3.36 2 2 2 C2 2.99 2 3.98 2 5 C1.29617187 5.20753906 0.59234375 5.41507813 -0.1328125 5.62890625 C-7.59169865 7.95615663 -14.2730342 10.98892305 -21.1640625 14.609375 C-24 16 -24 16 -26 16 C-25 13 -25 13 -22.41796875 11.4296875 C-21.35191406 10.91664062 -20.28585938 10.40359375 -19.1875 9.875 C-17.60001953 9.09769531 -17.60001953 9.09769531 -15.98046875 8.3046875 C-13.61376219 7.26867178 -11.51945518 6.50023081 -9 6 C-9 5.34 -9 4.68 -9 4 C-7.88625 3.896875 -6.7725 3.79375 -5.625 3.6875 C-4.42875 3.460625 -3.2325 3.23375 -2 3 C-1.34 2.01 -0.68 1.02 0 0 Z " fill="#BCBAB7" transform="translate(214,32)"/>
<path d="M0 0 C5.94 0 11.88 0 18 0 C18 1.65 18 3.3 18 5 C14.04 5 10.08 5 6 5 C5.67 5.66 5.34 6.32 5 7 C4.855625 6.195625 4.71125 5.39125 4.5625 4.5625 C4.25864751 2.07896294 4.25864751 2.07896294 3 1 C2.87625 1.639375 2.7525 2.27875 2.625 2.9375 C2.41875 3.618125 2.2125 4.29875 2 5 C1.01 5.495 1.01 5.495 0 6 C0 4.02 0 2.04 0 0 Z " fill="#FB3230" transform="translate(483,251)"/>
<path d="M0 0 C0.33 0 0.66 0 1 0 C1.33 2.64 1.66 5.28 2 8 C1.01 8.495 1.01 8.495 0 9 C0 9.99 0 10.98 0 12 C0.99 10.02 1.98 8.04 3 6 C3.66 6.33 4.32 6.66 5 7 C4.38490238 9.64850284 3.75850592 12.29339905 3.125 14.9375 C2.95097656 15.69224609 2.77695312 16.44699219 2.59765625 17.22460938 C2.12755935 19.16593545 1.5695703 21.08549544 1 23 C0.34 23.33 -0.32 23.66 -1 24 C-0.96744792 22.01432292 -0.93489583 20.02864583 -0.90234375 18.04296875 C-0.91736783 15.79694539 -0.91736783 15.79694539 -2 13 C-2.66 12.67 -3.32 12.34 -4 12 C-3.52494322 10.18641846 -3.04483958 8.37415821 -2.5625 6.5625 C-2.29566406 5.55316406 -2.02882813 4.54382813 -1.75390625 3.50390625 C-1 1 -1 1 0 0 Z " fill="#E63B39" transform="translate(436,259)"/>
<path d="M0 0 C0.66 0 1.32 0 2 0 C0.38405672 10.20982348 -6.10890838 18.60821579 -14 25 C-14.66 25 -15.32 25 -16 25 C-14.79713992 20.78998972 -12.98746987 19.14168402 -9.5859375 16.51171875 C-6.52511494 13.59413665 -4.85546519 9.75040836 -3 6 C-2.401875 4.824375 -1.80375 3.64875 -1.1875 2.4375 C-0.795625 1.633125 -0.40375 0.82875 0 0 Z " fill="#C2C2BF" transform="translate(133,145)"/>
<path d="M0 0 C3.875 2.625 3.875 2.625 5 6 C5.06740865 7.56118428 5.08514456 9.1250252 5.0625 10.6875 C5.05347656 11.49574219 5.04445313 12.30398438 5.03515625 13.13671875 C5.02355469 13.75160156 5.01195312 14.36648438 5 15 C3.02 15 1.04 15 -1 15 C-1.02715383 13.25008666 -1.04646551 11.50005055 -1.0625 9.75 C-1.07410156 8.77546875 -1.08570313 7.8009375 -1.09765625 6.796875 C-1.01195577 4.34241322 -0.70706066 2.33831086 0 0 Z " fill="#FC302E" transform="translate(348,266)"/>
<path d="M0 0 C1.95703125 2.6171875 1.95703125 2.6171875 3.8125 5.875 C4.43769531 6.94492188 5.06289062 8.01484375 5.70703125 9.1171875 C7 12 7 12 6 15 C2.66366632 12.00880429 0.75472293 9.12359889 -1 5 C-1 4.01 -1 3.02 -1 2 C-3.97 2.66 -6.94 3.32 -10 4 C-8 0 -8 0 -6.125 -0.8125 C-3.61613844 -1.03387014 -2.34114013 -0.97728484 0 0 Z " fill="#BEBEBC" transform="translate(158,84)"/>
<path d="M0 0 C0.33 0.99 0.66 1.98 1 3 C0.67 3.66 0.34 4.32 0 5 C-0.37483219 10.41301783 0.09226073 15.6670318 1 21 C0.01 21 -0.98 21 -2 21 C-3.80687038 15.69231826 -4.90257473 10.61485446 -4 5 C-2 1.9375 -2 1.9375 0 0 Z " fill="#BFBFBD" transform="translate(165,66)"/>
<path d="M0 0 C0.99 0.33 1.98 0.66 3 1 C3 1.66 3 2.32 3 3 C3.99 3 4.98 3 6 3 C6 5.31 6 7.62 6 10 C2.25 11.125 2.25 11.125 0 10 C-0.703125 8.22265625 -0.703125 8.22265625 -1.25 6.0625 C-1.44078125 5.35222656 -1.6315625 4.64195312 -1.828125 3.91015625 C-1.88484375 3.27980469 -1.9415625 2.64945312 -2 2 C-1.34 1.34 -0.68 0.68 0 0 Z " fill="#F8322F" transform="translate(586,254)"/>
<path d="M0 0 C2 0 2 0 3.5 1.375 C3.995 1.91125 4.49 2.4475 5 3 C5.66 3.66 6.32 4.32 7 5 C7 6.32 7 7.64 7 9 C7.99 9 8.98 9 10 9 C10 7.35 10 5.7 10 4 C14.875 8.75 14.875 8.75 16 11 C12.7 11 9.4 11 6 11 C4.02 7.37 2.04 3.74 0 0 Z " fill="#E13C40" transform="translate(580,272)"/>
<path d="M0 0 C0.99 0 1.98 0 3 0 C5.94723721 5.76633368 7.22695784 11.48306764 7 18 C6.34 18.66 5.68 19.32 5 20 C2.91840193 15.83680386 2.65916733 11.93894743 2.28515625 7.3828125 C1.96121994 4.67594746 1.21835102 2.43670203 0 0 Z " fill="#CAC9C6" transform="translate(132,107)"/>
<path d="M0 0 C0 0.66 0 1.32 0 2 C-6.6 2.33 -13.2 2.66 -20 3 C-19.67 2.01 -19.34 1.02 -19 0 C-12.76552084 -1.03907986 -6.13111842 -2.04370614 0 0 Z " fill="#BEBEBC" transform="translate(117,95)"/>
<path d="M0 0 C0 0.99 0 1.98 0 3 C-0.66 3 -1.32 3 -2 3 C-2 3.66 -2 4.32 -2 5 C-1.34 5 -0.68 5 0 5 C-0.33 7.97 -0.66 10.94 -1 14 C-3.475 13.01 -3.475 13.01 -6 12 C-5.91253716 10.56138706 -5.80434652 9.12402492 -5.6875 7.6875 C-5.62949219 6.88699219 -5.57148438 6.08648437 -5.51171875 5.26171875 C-4.78420948 2.04623884 -3.45396859 0 0 0 Z " fill="#FC312E" transform="translate(460,255)"/>
<path d="M0 0 C0.66 0 1.32 0 2 0 C1.6104727 6.10259432 -0.28708397 11.08614078 -4 16 C-6.16796875 17.26171875 -6.16796875 17.26171875 -8 18 C-7.34 16.02 -6.68 14.04 -6 12 C-5.34 12 -4.68 12 -4 12 C-3.896875 11.319375 -3.79375 10.63875 -3.6875 9.9375 C-2.85274981 6.37084011 -1.50527246 3.33777806 0 0 Z " fill="#C5C4C2" transform="translate(255,81)"/>
<path d="M0 0 C1.65 0 3.3 0 5 0 C4.690625 0.598125 4.38125 1.19625 4.0625 1.8125 C2.89790296 4.08956772 2.89790296 4.08956772 2 7 C2.99 8.485 2.99 8.485 4 10 C4.07905064 12.33199388 4.08798769 14.66832622 4 17 C3.01 17 2.02 17 1 17 C0.63455089 15.10630916 0.28310825 13.20991218 -0.0625 11.3125 C-0.25972656 10.25675781 -0.45695313 9.20101563 -0.66015625 8.11328125 C-0.99034946 5.08840784 -0.77474558 2.92019489 0 0 Z " fill="#EE3933" transform="translate(586,264)"/>
<path d="M0 0 C2.42702437 2.2676377 4.23601267 4.66740541 6.0625 7.4375 C6.56910156 8.19933594 7.07570313 8.96117187 7.59765625 9.74609375 C8.86719683 11.78655313 9.9677619 13.8318061 11 16 C7.74289315 15.75873283 6.79730672 14.79730672 4.4375 12.4375 C1.66655327 8.92250276 0.38554981 5.22957311 -1 1 C-0.67 0.67 -0.34 0.34 0 0 Z " fill="#C5C4C2" transform="translate(42,145)"/>
<path d="M0 0 C2.64 0 5.28 0 8 0 C8.87144869 1.5529276 9.72153657 3.11785436 10.5625 4.6875 C11.03816406 5.55761719 11.51382812 6.42773438 12.00390625 7.32421875 C13.14268368 10.38328753 12.92718689 11.91863039 12 15 C10.35 15.33 8.7 15.66 7 16 C7 14 7 14 8.5 12.375 C8.995 11.92125 9.49 11.4675 10 11 C9.690625 10.46375 9.38125 9.9275 9.0625 9.375 C7.82172561 6.6015043 7.4090325 3.99957163 7 1 C5.35 1 3.7 1 2 1 C1.67 2.32 1.34 3.64 1 5 C0.67 3.35 0.34 1.7 0 0 Z " fill="#E23E3D" transform="translate(336,250)"/>
<path d="M0 0 C3.14581423 -0.02888514 6.29159469 -0.04675923 9.4375 -0.0625 C10.33533203 -0.07087891 11.23316406 -0.07925781 12.15820312 -0.08789062 C13.01220703 -0.09111328 13.86621094 -0.09433594 14.74609375 -0.09765625 C15.93223267 -0.10551147 15.93223267 -0.10551147 17.14233398 -0.11352539 C19 0 19 0 20 1 C20 2.98 20 4.96 20 7 C16.04 7 12.08 7 8 7 C8 8.65 8 10.3 8 12 C7.67 12 7.34 12 7 12 C7 10.02 7 8.04 7 6 C10.63 6 14.26 6 18 6 C17.67 4.68 17.34 3.36 17 2 C11.39 1.67 5.78 1.34 0 1 C0 0.67 0 0.34 0 0 Z " fill="#E04545" transform="translate(383,250)"/>
<path d="M0 0 C0.33 0.99 0.66 1.98 1 3 C-0.32 3 -1.64 3 -3 3 C-3 3.66 -3 4.32 -3 5 C-4.78953185 5.83790789 -6.58169695 6.67019396 -8.375 7.5 C-9.87160156 8.19609375 -9.87160156 8.19609375 -11.3984375 8.90625 C-14 10 -14 10 -16 10 C-14.9383717 6.94781864 -14.04970979 6.03078618 -11.25 4.296875 C-10.1775 3.78640625 -9.105 3.2759375 -8 2.75 C-6.9275 2.22921875 -5.855 1.7084375 -4.75 1.171875 C-2 0 -2 0 0 0 Z " fill="#CBCBCB" transform="translate(136,77)"/>
<path d="M0 0 C0.99 0.33 1.98 0.66 3 1 C3.33 5.29 3.66 9.58 4 14 C5.65 14.33 7.3 14.66 9 15 C9 11.7 9 8.4 9 5 C9.33 5 9.66 5 10 5 C10 8.96 10 12.92 10 17 C7.36 17 4.72 17 2 17 C1.93941406 16.10796875 1.87882812 15.2159375 1.81640625 14.296875 C1.73261719 13.12640625 1.64882813 11.9559375 1.5625 10.75 C1.48128906 9.58984375 1.40007812 8.4296875 1.31640625 7.234375 C1.06752213 4.69022624 0.71885058 2.44046752 0 0 Z " fill="#E43D3D" transform="translate(344,266)"/>
<path d="M0 0 C1.32 0.33 2.64 0.66 4 1 C3.62488281 1.43570313 3.24976563 1.87140625 2.86328125 2.3203125 C-0.45859777 6.18607599 -3.74642927 10.07657648 -7 14 C-7.66 13.67 -8.32 13.34 -9 13 C-7.31607048 8.21409503 -7.31607048 8.21409503 -6 6 C-3.375 4.8125 -3.375 4.8125 -1 4 C-0.11306697 1.95894361 -0.11306697 1.95894361 0 0 Z " fill="#BEBEBC" transform="translate(44,123)"/>
<path d="M0 0 C-1 3 -1 3 -2.7421875 4.203125 C-3.44601563 4.54859375 -4.14984375 4.8940625 -4.875 5.25 C-5.57367188 5.60578125 -6.27234375 5.9615625 -6.9921875 6.328125 C-9 7 -9 7 -12 6 C-12 5.01 -12 4.02 -12 3 C-4.71428571 -0.42857143 -4.71428571 -0.42857143 0 0 Z " fill="#BABAB6" transform="translate(147,87)"/>
<path d="M0 0 C3.96 0 7.92 0 12 0 C12 1.98 12 3.96 12 6 C10.02 6 8.04 6 6 6 C6.33 4.68 6.66 3.36 7 2 C4.69 2 2.38 2 0 2 C0 1.34 0 0.68 0 0 Z " fill="#E23E3D" transform="translate(307,277)"/>
<path d="M0 0 C0.33 0 0.66 0 1 0 C1.66 2.31 2.32 4.62 3 7 C3.99 7 4.98 7 6 7 C5.34 8.98 4.68 10.96 4 13 C3.67 11.68 3.34 10.36 3 9 C2.34 9 1.68 9 1 9 C1 8.34 1 7.68 1 7 C0.34 7 -0.32 7 -1 7 C-1.144375 7.721875 -1.28875 8.44375 -1.4375 9.1875 C-1.95833333 11.79166667 -2.47916667 14.39583333 -3 17 C-3.66 16.67 -4.32 16.34 -5 16 C-3.41078475 10.63904723 -1.81027062 5.29156027 0 0 Z " fill="#DE3F3E" transform="translate(528,254)"/>
<path d="M0 0 C0.33 0 0.66 0 1 0 C1 2.31 1 4.62 1 7 C4.96 7 8.92 7 13 7 C13 8.98 13 10.96 13 13 C12.34 13 11.68 13 11 13 C11 11.68 11 10.36 11 9 C7.37 9 3.74 9 0 9 C0 6.03 0 3.06 0 0 Z " fill="#D84445" transform="translate(390,270)"/>
<path d="M0 0 C0.99 0.33 1.98 0.66 3 1 C4.1875 3.5625 4.1875 3.5625 5 6 C5.66 5.34 6.32 4.68 7 4 C8.17571451 7.67410785 8.07366746 11.16929183 8 15 C5 14 5 14 3.8671875 11.85546875 C3.53976563 10.97503906 3.21234375 10.09460937 2.875 9.1875 C2.54242188 8.31480469 2.20984375 7.44210938 1.8671875 6.54296875 C1.12664275 4.37137132 0.51054907 2.23495461 0 0 Z " fill="#C1C0BE" transform="translate(244,39)"/>
<path d="M0 0 C1.98 0 3.96 0 6 0 C7.43088528 2.86177057 6.59991697 4.93375773 6 8 C4.125 7.6875 4.125 7.6875 2 7 C0 4 0 4 0 0 Z " fill="#FA312D" transform="translate(423,261)"/>
<path d="M0 0 C3 1 3 1 5 3 C5.66 3.33 6.32 3.66 7 4 C7 4.66 7 5.32 7 6 C7.66 6.33 8.32 6.66 9 7 C4.25 8.125 4.25 8.125 2 7 C2 6.34 2 5.68 2 5 C1.01 4.67 0.02 4.34 -1 4 C-0.67 2.68 -0.34 1.36 0 0 Z M7 3 C9 4 9 4 9 4 Z " fill="#B4B4B2" transform="translate(53,163)"/>
<path d="M0 0 C0.66 0.66 1.32 1.32 2 2 C1.79296875 4.75 1.79296875 4.75 1.1875 8 C0.99542969 9.0725 0.80335938 10.145 0.60546875 11.25 C0 14 0 14 -1 16 C-1.66 16 -2.32 16 -3 16 C-3.04254356 14.00045254 -3.04080783 11.99958364 -3 10 C-2.67 9.67 -2.34 9.34 -2 9 C-1.60851239 7.48834346 -1.26027543 5.96530368 -0.9375 4.4375 C-0.76089844 3.61121094 -0.58429688 2.78492188 -0.40234375 1.93359375 C-0.26957031 1.29550781 -0.13679687 0.65742188 0 0 Z " fill="#C7C7C6" transform="translate(137,128)"/>
<path d="M0 0 C-2.79716804 3.29078593 -6.19528578 5.06305458 -10 7 C-10.66 6.67 -11.32 6.34 -12 6 C-12 5.01 -12 4.02 -12 3 C-8.09251769 -0.19703098 -4.92991345 -0.28999491 0 0 Z " fill="#C4C4C2" transform="translate(153,80)"/>
<path d="M0 0 C-0.33 0.99 -0.66 1.98 -1 3 C-5.43795241 4.4053516 -9.32130569 5.29241839 -14 5 C-13.67 4.01 -13.34 3.02 -13 2 C-12.2575 2.04125 -11.515 2.0825 -10.75 2.125 C-6.65215667 1.93873439 -4.26188818 0 0 0 Z " fill="#C8C8C4" transform="translate(229,31)"/>
<path d="M0 0 C1.55078125 1.11328125 1.55078125 1.11328125 3 3 C2.85546875 5.91796875 2.85546875 5.91796875 2.1875 9.1875 C1.86845703 10.81751953 1.86845703 10.81751953 1.54296875 12.48046875 C1.36378906 13.31191406 1.18460937 14.14335938 1 15 C0.34 15 -0.32 15 -1 15 C-1.09038099 9.84828377 -0.84681133 5.08086796 0 0 Z " fill="#C1C0BE" transform="translate(257,65)"/>
<path d="M0 0 C0.103125 0.556875 0.20625 1.11375 0.3125 1.6875 C1.12944635 4.43541044 2.52070457 6.55594668 4 9 C4 9.66 4 10.32 4 11 C0.21874975 9.73958325 -0.01322327 8.31129455 -2 5 C-2.99 4.67 -3.98 4.34 -5 4 C-4.67 3.01 -4.34 2.02 -4 1 C-2 0 -2 0 0 0 Z " fill="#B9B9B7" transform="translate(130,96)"/>
<path d="M0 0 C3 2 3 2 3.625 4.4375 C3.74875 5.283125 3.8725 6.12875 4 7 C4.33 7.99 4.66 8.98 5 10 C3.02 10.99 3.02 10.99 1 12 C-0.3271261 8.0186217 -0.06915913 4.14954773 0 0 Z " fill="#FB2F2F" transform="translate(342,252)"/>
<path d="M0 0 C0.66 0.33 1.32 0.66 2 1 C1.50168276 4.68754757 0.89932357 6.60490662 -2 9 C-4 8 -4 8 -5 5 C-3.35 3.35 -1.7 1.7 0 0 Z M-6 9 C-4 10 -4 10 -4 10 Z " fill="#BDBDB9" transform="translate(156,73)"/>
<path d="M0 0 C2.2109375 0 2.2109375 0 5.9609375 0.375 C5.6309375 1.365 5.3009375 2.355 4.9609375 3.375 C4.6309375 2.715 4.3009375 2.055 3.9609375 1.375 C2.02018889 1.65117533 2.02018889 1.65117533 -0.0390625 2.375 C-1.0290625 3.86 -1.0290625 3.86 -2.0390625 5.375 C-2.6990625 5.375 -3.3590625 5.375 -4.0390625 5.375 C-4.3278125 6.344375 -4.6165625 7.31375 -4.9140625 8.3125 C-6.0390625 11.375 -6.0390625 11.375 -8.0390625 12.375 C-4.75310063 0.87413345 -4.75310063 0.87413345 0 0 Z " fill="#E13D42" transform="translate(359.0390625,249.625)"/>
<path d="M0 0 C0 1.32 0 2.64 0 4 C-2.64 3.67 -5.28 3.34 -8 3 C-8 2.34 -8 1.68 -8 1 C-8.99 0.67 -9.98 0.34 -11 0 C-3.375 -1.125 -3.375 -1.125 0 0 Z " fill="#FB3131" transform="translate(401,265)"/>
<path d="M0 0 C3.63 0.66 7.26 1.32 11 2 C8.38372835 4.61627165 6.64734979 4.77669287 3 5 C1.125 3.6875 1.125 3.6875 0 2 C0 1.34 0 0.68 0 0 Z " fill="#C4C4C0" transform="translate(67,170)"/>
<path d="M0 0 C0.33 0.99 0.66 1.98 1 3 C-0.28716647 4.00578589 -1.57988658 5.00446798 -2.875 6 C-3.95394531 6.8353125 -3.95394531 6.8353125 -5.0546875 7.6875 C-7 9 -7 9 -9 9 C-9 8.01 -9 7.02 -9 6 C-7.03125 4.39453125 -7.03125 4.39453125 -4.5 2.8125 C-3.6646875 2.28269531 -2.829375 1.75289062 -1.96875 1.20703125 C-1.3190625 0.80871094 -0.669375 0.41039062 0 0 Z " fill="#C6C6C5" transform="translate(28,129)"/>
<path d="M0 0 C0.99 0 1.98 0 3 0 C3 0.99 3 1.98 3 3 C3.99 3.33 4.98 3.66 6 4 C6.73046875 5.84765625 6.73046875 5.84765625 7.1875 8.0625 C7.34605469 8.79597656 7.50460938 9.52945313 7.66796875 10.28515625 C7.77753906 10.85105469 7.88710938 11.41695312 8 12 C5.02859871 9.23352293 3.02818571 6.50322987 1 3 C0.34 2.34 -0.32 1.68 -1 1 C-0.67 0.67 -0.34 0.34 0 0 Z " fill="#B8B6B3" transform="translate(37,144)"/>
<path d="M0 0 C0.99 0.33 1.98 0.66 3 1 C-2.14285714 6.57142857 -2.14285714 6.57142857 -6 7 C-5.67 5.35 -5.34 3.7 -5 2 C-4.360625 1.855625 -3.72125 1.71125 -3.0625 1.5625 C-1.02454854 1.18992819 -1.02454854 1.18992819 0 0 Z " fill="#BCBBB9" transform="translate(56,114)"/>
<path d="M0 0 C-2.52480693 2.52480693 -4.13823034 2.55738633 -7.625 3.125 C-8.62789063 3.29257813 -9.63078125 3.46015625 -10.6640625 3.6328125 C-11.43492188 3.75398438 -12.20578125 3.87515625 -13 4 C-12.67 3.01 -12.34 2.02 -12 1 C-11.2575 0.855625 -10.515 0.71125 -9.75 0.5625 C-7.08713438 0.05802414 -7.08713438 0.05802414 -4.875 -0.625 C-3 -1 -3 -1 0 0 Z " fill="#BDBCBA" transform="translate(96,98)"/>
<path d="M0 0 C0.77321882 2.98241547 1.41196203 5.97580475 2 9 C1.01 9 0.02 9 -1 9 C-1 9.99 -1 10.98 -1 12 C-1.99 12 -2.98 12 -4 12 C-3.52309796 10.37433394 -3.04340334 8.74948689 -2.5625 7.125 C-2.29566406 6.22007812 -2.02882813 5.31515625 -1.75390625 4.3828125 C-1 2 -1 2 0 0 Z " fill="#E23A3A" transform="translate(522,271)"/>
<path d="M0 0 C2.31 0.33 4.62 0.66 7 1 C7 2.32 7 3.64 7 5 C4.36 4.34 1.72 3.68 -1 3 C-0.67 2.01 -0.34 1.02 0 0 Z " fill="#C0C1BF" transform="translate(68,176)"/>
<path d="M0 0 C0.99 0 1.98 0 3 0 C3.99 2.64 4.98 5.28 6 8 C5.34 8 4.68 8 4 8 C4 9.98 4 11.96 4 14 C3.67 14 3.34 14 3 14 C2.95101562 13.40832031 2.90203125 12.81664063 2.8515625 12.20703125 C2.43543133 7.80895528 1.95034405 4.03071103 0 0 Z " fill="#C2C2BF" transform="translate(132,107)"/>
<path d="M0 0 C2 2 2 2 2 5 C2.99 5.33 3.98 5.66 5 6 C5 7.65 5 9.3 5 11 C4.01 11.495 4.01 11.495 3 12 C2.49440092 10.56445975 1.9957251 9.1264798 1.5 7.6875 C1.2215625 6.88699219 0.943125 6.08648437 0.65625 5.26171875 C0 3 0 3 0 0 Z " fill="#ED3B3E" transform="translate(535,258)"/>
<path d="M0 0 C1.32 0 2.64 0 4 0 C4 0.99 4 1.98 4 3 C3.34 3 2.68 3 2 3 C2 3.66 2 4.32 2 5 C0.68 5.33 -0.64 5.66 -2 6 C-2 3 -2 3 0 0 Z " fill="#FB3230" transform="translate(359,251)"/>
<path d="M0 0 C0.66 0.99 1.32 1.98 2 3 C-0.97 4.65 -3.94 6.3 -7 8 C-7 7.01 -7 6.02 -7 5 C-5.46875 3.61328125 -5.46875 3.61328125 -3.5 2.3125 C-2.8503125 1.87550781 -2.200625 1.43851563 -1.53125 0.98828125 C-1.0259375 0.66214844 -0.520625 0.33601562 0 0 Z " fill="#B9BAB8" transform="translate(116,168)"/>
<path d="M0 0 C0.66 0 1.32 0 2 0 C1.39301257 4.12751449 -0.03810791 7.3321148 -2 11 C-2.66 10.34 -3.32 9.68 -4 9 C-2.68 6.03 -1.36 3.06 0 0 Z " fill="#CACAC8" transform="translate(133,145)"/>
<path d="M0 0 C0.66 0.33 1.32 0.66 2 1 C1.01 1 0.02 1 -1 1 C-0.67 0.67 -0.34 0.34 0 0 Z M-1 2 C-3.62198774 4.15377564 -5.64404172 5.40072174 -9 6 C-6.97675095 1.51994854 -5.79569304 0.56129209 -1 2 Z " fill="#BBBBB9" transform="translate(60,106)"/>
<path d="M0 0 C0.33 0.99 0.66 1.98 1 3 C-0.8125 5 -0.8125 5 -3 7 C-3.99 7 -4.98 7 -6 7 C-5.67 6.01 -5.34 5.02 -5 4 C-4.34 4 -3.68 4 -3 4 C-2.67 3.01 -2.34 2.02 -2 1 C-1.34 0.67 -0.68 0.34 0 0 Z " fill="#C1C1BE" transform="translate(245,100)"/>
<path d="M0 0 C0 0.66 0 1.32 0 2 C-2.97 3.32 -5.94 4.64 -9 6 C-6.4969893 0.99397859 -5.61835377 0 0 0 Z " fill="#BBBCB6" transform="translate(81,102)"/>
<path d="M0 0 C0.33 0 0.66 0 1 0 C1.36666667 5.5 1.36666667 5.5 -0.375 7.875 C-2 9 -2 9 -4 9 C-2.94124926 5.59687262 -1.99097846 2.98646769 0 0 Z " fill="#C4C5C3" transform="translate(128,138)"/>
<path d="M0 0 C0.33 0.99 0.66 1.98 1 3 C-0.32 3 -1.64 3 -3 3 C-3 3.66 -3 4.32 -3 5 C-4.32 5.33 -5.64 5.66 -7 6 C-6.75 4.125 -6.75 4.125 -6 2 C-3.85331506 0.61504198 -2.56128588 0 0 0 Z " fill="#C0C0BF" transform="translate(136,77)"/>
<path d="M0 0 C-0.99 1.32 -1.98 2.64 -3 4 C-4.32 3.67 -5.64 3.34 -7 3 C-7 2.34 -7 1.68 -7 1 C-3.375 -1.125 -3.375 -1.125 0 0 Z " fill="#B0B0AE" transform="translate(149,75)"/>
<path d="M0 0 C0.33 0.66 0.66 1.32 1 2 C2.32 1.67 3.64 1.34 5 1 C5.33 1.66 5.66 2.32 6 3 C4.68 3.99 3.36 4.98 2 6 C1.01 5.34 0.02 4.68 -1 4 C-0.67 2.68 -0.34 1.36 0 0 Z " fill="#C0C0BE" transform="translate(33,137)"/>
<path d="M0 0 C0.66 0.66 1.32 1.32 2 2 C1.01 2.33 0.02 2.66 -1 3 C-1.69937532 4.31647119 -2.36729133 5.65022151 -3 7 C-3.99 7.495 -3.99 7.495 -5 8 C-4.64950425 4.75791433 -4.43778819 3.38472296 -1.9375 1.1875 C-1.298125 0.795625 -0.65875 0.40375 0 0 Z " fill="#CBCBC9" transform="translate(171,49)"/>
<path d="M0 0 C1.99097846 2.98646769 2.94124926 5.59687262 4 9 C2.35 9 0.7 9 -1 9 C-1 8.34 -1 7.68 -1 7 C-0.34 7 0.32 7 1 7 C0.67 4.69 0.34 2.38 0 0 Z " fill="#DC3B38" transform="translate(547,274)"/>
<path d="M0 0 C0.598125 0.20625 1.19625 0.4125 1.8125 0.625 C0.1625 2.275 -1.4875 3.925 -3.1875 5.625 C-3.8475 5.295 -4.5075 4.965 -5.1875 4.625 C-5.1875 3.635 -5.1875 2.645 -5.1875 1.625 C-2.1875 -0.375 -2.1875 -0.375 0 0 Z " fill="#B2B2B0" transform="translate(140.1875,88.375)"/>
<path d="M0 0 C1.32 0 2.64 0 4 0 C3.34 1.32 2.68 2.64 2 4 C0.68 3.67 -0.64 3.34 -2 3 C-1.34 2.01 -0.68 1.02 0 0 Z " fill="#C1C1BF" transform="translate(233,108)"/>
<path d="M0 0 C0.99 0.33 1.98 0.66 3 1 C2.67 3.97 2.34 6.94 2 10 C1.67 10 1.34 10 1 10 C0.67 6.7 0.34 3.4 0 0 Z " fill="#D3D0CB" transform="translate(250,54)"/>
</svg>
