<svg id="Layer_1" viewBox="0 0 24 24" xmlns="http://www.w3.org/2000/svg" data-name="Layer 1"><path d="m18.162 4.167c-.101-.068-.209-.117-.313-.178.545-.909 1.188-1.987 2.062-2.735.132-.113.292-.166.451-.166.246 0 .49.128.622.362 1.027 1.825 2.69 4.405 2.971 6.856-.378-.4-.795-.766-1.259-1.079l-4.533-3.06zm-8.911 16.547c-.771-.447-1.251-1.277-1.251-2.167v-5.104c0-.833.412-1.607 1.102-2.073l4.532-3.058c.525-.355 1.207-.355 1.732 0l4.532 3.059c.518.349.884.876 1.032 1.484.195.804.997 1.297 1.812 1.103.805-.196 1.298-1.008 1.102-1.812-.325-1.335-1.131-2.494-2.269-3.261l-4.532-3.059c-1.545-1.042-3.543-1.042-5.088 0l-4.532 3.058c-1.518 1.024-2.424 2.729-2.424 4.56v5.104c0 1.957 1.053 3.782 2.749 4.763.703.411 1.633.177 2.049-.547.415-.717.171-1.635-.547-2.05zm-6.23-7.614c.051-1.104.332-2.167.83-3.122-.526-.546-.85-1.286-.85-2.098v-.05c.031-.875.881-1.962 1.866-2.962.499 1.157 1.319 1.693 2.063 1.937.13-.078 3.866-2.629 4.005-2.693-.347-.801-.734-1.475-1.067-1.887-.123-.152-.297-.225-.469-.225-.22 0-.437.12-.538.348-.254.575-.17 1.652-.708 1.652-1.137 0-.685-1.923-1.514-3.659-.132-.224-.367-.341-.604-.341-.168 0-.337.059-.474.18-2.049 1.829-5.561 4.532-5.561 7.699 0 2.233 1.217 4.179 3.021 5.221zm-.021 4.15s-.277-1.508-.488-1.937c-.101-.205-.318-.313-.538-.313-.172 0-.346.066-.469.202-1.073 1.194-2.076 3.122-1.125 5.177.882 1.908 2.731 3.317 4.93 3.569-1.45-1.398-2.31-3.342-2.31-5.4zm15.438-4.07c-.136-.121-.306-.18-.474-.18-.238 0-.472.118-.605.341-1.269 2.147-1.008 5.417-2.145 5.417-.539 0-.454-.931-.708-1.505-.101-.228-.318-.348-.538-.348-.172 0-.346.073-.469.225-.914.976-1.587 2.697-1.46 4.371.028.367.229 1.285.386 1.62.369.785 1.321 1.105 2.094.711.688-.351.99-1.172.695-1.885l-.059-.188c2.673.05 3.564-2.337 3.936-3.931 1.002 1.011 1.875 2.115 1.907 3.002v.051c0 .325-.002.817-.122 1.097-.288.677-.094 1.457.543 1.825.723.419 1.674.195 2.08-.535.282-.508.499-1.756.499-2.388 0-3.168-3.512-5.871-5.562-7.7z"/></svg>