<svg id="Layer_1" viewBox="0 0 24 24" xmlns="http://www.w3.org/2000/svg" data-name="Layer 1"><path d="m5.829 10.657 5.171 5.171c-.029.188.121 1.092-1 1.172-.552 0-1-.448-1-1v-1h-1v1c0 .552-.448 1-1 1s-1-.448-1-1v-2.875h-.002s-.371.315-.371.315c-.426.337-1.042.275-1.392-.141-.362-.431-.299-1.075.139-1.427l1.451-1.215s.003 0 .004 0zm18.171 1.343c0 6.617-5.383 12-12 12s-12-5.383-12-12 5.383-12 12-12 12 5.383 12 12zm-12-9c-1.941 0-3.735.624-5.207 1.672l1.369 1.369c.109-.025.221-.041.337-.041.828 0 1.5.672 1.5 1.5 0 .116-.016.229-.041.337l3.269 3.269c.337-.661.999-1.107 1.76-1.107h1.024c.883 0 1.662.579 1.916 1.425l.884 3.027s.669 1.451-.706 1.533l1.221 1.221c1.049-1.472 1.672-3.266 1.672-5.207 0-4.962-4.037-9-9-9zm0 18c1.941 0 3.735-.624 5.207-1.672l-12.535-12.535c-1.049 1.472-1.672 3.266-1.672 5.207 0 4.963 4.037 9 9 9zm3.5-12c.828 0 1.5-.672 1.5-1.5s-.672-1.5-1.5-1.5-1.5.672-1.5 1.5.672 1.5 1.5 1.5z"/></svg>