<svg id="Layer_1" viewBox="0 0 24 24" xmlns="http://www.w3.org/2000/svg" data-name="Layer 1"><path d="m12.482 12.547c-.053 1.679-.212 6.788-4.103 9.604-.266.192-.573.285-.878.285-.465 0-.923-.215-1.217-.621-.485-.671-.335-1.609.336-2.095 2.418-1.749 2.792-4.985 2.863-7.267.026-.829.722-1.489 1.546-1.453.828.026 1.478.718 1.453 1.546zm3.012 1.472c-.819-.128-1.586.428-1.716 1.247-.208 1.307-.571 2.605-1.027 3.663-.412.97-.934 1.85-1.554 2.614-.521.644-.422 1.588.221 2.11.278.225.612.334.943.334.437 0 .87-.19 1.166-.556.796-.981 1.464-2.102 1.981-3.323.549-1.273.986-2.826 1.231-4.373.13-.818-.428-1.586-1.247-1.716zm-7.627.171c.105-.822-.476-1.573-1.297-1.678-.827-.109-1.574.476-1.678 1.297-.174 1.36-.571 1.759-.899 1.956-.177.106-.412.181-.68.214-.822.104-1.404.854-1.301 1.676.096.758.742 1.312 1.486 1.312.861 0 1.457-.285 2.039-.631 1.95-1.17 2.236-3.411 2.33-4.147zm-4.867-1.69v-1.5c0-3.888 2.892-7.283 6.726-7.899.818-.131 1.375-.901 1.243-1.719-.131-.818-.903-1.377-1.719-1.243-5.359.861-9.25 5.429-9.25 10.861v1.5c0 .829.671 1.5 1.5 1.5s1.5-.671 1.5-1.5zm17.445 1.582c-.818-.101-1.571.482-1.673 1.305-.295 2.384-.893 4.565-1.778 6.485-.347.752-.018 1.643.734 1.99.203.094.417.138.627.138.567 0 1.11-.324 1.363-.873 1.015-2.201 1.698-4.681 2.031-7.372.102-.822-.482-1.571-1.305-1.673zm-2.445-6.582c.828 0 1.5-.672 1.5-1.5s-.672-1.5-1.5-1.5-1.5.672-1.5 1.5.672 1.5 1.5 1.5zm-1.5 4c0 .829.671 1.5 1.5 1.5s1.5-.671 1.5-1.5v-1c0-.829-.671-1.5-1.5-1.5s-1.5.671-1.5 1.5zm.773-11.457c-2.618.31-4.788 2.389-5.197 4.993-.266 1.697.186 3.287 1.097 4.518.581.784 1.827.38 1.827-.596v-2.84c0-1.451.978-2.784 2.402-3.06 1.915-.372 3.598 1.092 3.598 2.942v2.965c0 .946 1.217 1.395 1.788.641.76-1.004 1.212-2.252 1.212-3.606 0-3.548-3.095-6.386-6.727-5.957zm-9.486 6.243c-.718.521-1.319 1.17-1.786 1.927-.435.705-.216 1.629.489 2.064.246.152.518.224.786.224.503 0 .995-.253 1.278-.712.261-.422.596-.784.996-1.074.67-.487.819-1.425.333-2.095-.486-.669-1.425-.82-2.095-.333z"/></svg>