<svg id="Layer_1" viewBox="0 0 24 24" xmlns="http://www.w3.org/2000/svg" data-name="Layer 1"><path d="m8 2.5c0-1.381 1.119-2.5 2.5-2.5s2.5 1.119 2.5 2.5-1.119 2.5-2.5 2.5-2.5-1.119-2.5-2.5zm-6.5 9.5h3c.828 0 1.5-.672 1.5-1.5v-2c0-.828-.672-1.5-1.5-1.5h-3c-.828 0-1.5.672-1.5 1.5v2c0 .828.672 1.5 1.5 1.5zm0-7h3c.828 0 1.5-.672 1.5-1.5v-2c0-.828-.672-1.5-1.5-1.5h-3c-.828 0-1.5.672-1.5 1.5v2c0 .828.672 1.5 1.5 1.5zm22.5 16c0 1.657-1.343 3-3 3s-3-1.343-3-3h-5.5c-.828 0-1.5-.671-1.5-1.5v-3.779l-1.606-.829c-1.168-.604-1.894-1.796-1.894-3.11v-3.228c0-.33 0-1.334.775-2.013.94-.754 1.937-.571 2.725-.401l5.258 1.86h1.961c1.149 0 2.146.778 2.426 1.893l1.161 4.646c.129.512.194 1.043.194 1.577v2.068c1.163.413 2 1.512 2 2.816zm-5-3v-1.884c0-.287-.035-.572-.104-.847l-1.066-4.269h-1.829c-.171 0-.34-.029-.5-.086l-3.5-1.238v3.185l.647.334c.834.431 1.353 1.282 1.353 2.221v2.583h5zm-10.483-.487c.299.602.483 1.271.483 1.987 0 2.481-2.019 4.5-4.5 4.5-2.506.008-4.448-2.052-4.5-4.5v-3c0-1.378 1.121-2.5 2.5-2.5h1.904c1.201 0 2.304.604 2.949 1.615.222.386 1.016 1.498 1.163 1.898zm-2.517 1.987c0-.816-.668-1.501-1.5-1.5-.827 0-1.5.673-1.5 1.5s.673 1.5 1.5 1.5 1.5-.673 1.5-1.5z"/></svg>