<svg id="Layer_1" viewBox="0 0 24 24" xmlns="http://www.w3.org/2000/svg" data-name="Layer 1"><path d="m19 8.5c0 .829-.672 1.5-1.5 1.5s-1.5-.671-1.5-1.5c0-.276-.225-.5-.5-.5-.828 0-1.5-.671-1.5-1.5s.672-1.5 1.5-1.5c1.93 0 3.5 1.57 3.5 3.5zm-3.5-8.5c-.828 0-1.5.671-1.5 1.5s.672 1.5 1.5 1.5c3.032 0 5.5 2.467 5.5 5.5 0 .829.672 1.5 1.5 1.5s1.5-.671 1.5-1.5c0-4.687-3.813-8.5-8.5-8.5zm3.5 13.5v5.5c0 2.761-2.239 5-5 5h-6c-2.967 0-5-2.239-5-5v-13.5c0-3.038 2.462-5.5 5.5-5.5h2c.829 0 1.5.671 1.5 1.5s-.671 1.5-1.5 1.5h-2c-1.381 0-2.5 1.119-2.5 2.5v12.5h10v-4.5c0-.829.672-1.5 1.5-1.5s1.5.671 1.5 1.5zm-6.001 7.508c0-.552-.448-1-1-1h-2c-.552 0-1 .448-1 1s.448 1 1 1h2c.552 0 1-.448 1-1zm-1.147-12.747 2.476 1.671c.42.283.672.757.672 1.263v3.281c0 .842-.682 1.524-1.524 1.524h-4.952c-.842 0-1.524-.682-1.524-1.524v-3.281c0-.506.252-.98.672-1.263l2.476-1.671c.515-.348 1.19-.348 1.705 0zm-.352 3.739h-1c-.276 0-.5.224-.5.5v1c0 .276.224.5.5.5h1c.276 0 .5-.224.5-.5v-1c0-.276-.224-.5-.5-.5z"/></svg>