<svg id="Layer_1" viewBox="0 0 24 24" xmlns="http://www.w3.org/2000/svg" data-name="Layer 1"><path d="m15.205 6.606c1.843-.695 2.904-.668 3.46-.522.488.126.82.394 1.076.866.132.244.211.484.243.736.104.822.856 1.407 1.675 1.302.822-.104 1.404-.854 1.301-1.675-.078-.62-.273-1.223-.581-1.791-.648-1.198-1.672-2.008-2.96-2.343-2.383-.62-5.612.358-9.835 2.94.511-2.008 1.337-3.12 2.415-3.12.829 0 1.5-.672 1.5-1.5s-.671-1.5-1.5-1.5c-2.683 0-5.864 2.02-5.988 11.443-1.482-1.487-2.49-3.131-1.754-4.491.094-.174.201-.322.318-.443.577-.595.563-1.544-.031-2.121s-1.544-.562-2.121.031c-.308.317-.578.688-.804 1.104-1.335 2.47-1.16 6.53 7.175 11.872-1.843.695-2.904.668-3.46.522-.488-.126-.82-.394-1.076-.866-.132-.244-.211-.484-.243-.736-.103-.822-.854-1.402-1.675-1.302-.822.104-1.404.854-1.301 1.675.078.62.273 1.223.581 1.791.648 1.198 1.672 2.008 2.96 2.343.466.121.964.182 1.496.182 2.184 0 4.941-1.039 8.339-3.118-.511 2.006-1.337 3.116-2.414 3.116-.829 0-1.5.672-1.5 1.5s.671 1.5 1.5 1.5c2.683 0 5.864-2.02 5.988-11.443 1.482 1.487 2.49 3.131 1.754 4.491-.094.174-.201.322-.318.443-.577.595-.563 1.544.031 2.121.292.283.668.424 1.045.424.391 0 .782-.152 1.076-.455.308-.317.578-.688.804-1.104 1.336-2.47 1.161-6.53-7.174-11.871zm-3.205 9.894c-.552 0-1-.448-1-1s.448-1 1-1 1 .448 1 1-.448 1-1 1zm1.502-3.402c-.507.27-1.124.373-1.503.402-.491 0-.919-.362-.989-.862-.076-.547.305-1.052.852-1.128.244-.034.561-.108.653-.151.293-.171.485-.503.485-.859 0-.551-.449-1-1-1s-1 .449-1 1-.448 1-1 1-1-.448-1-1c0-1.654 1.346-3 3-3s3 1.346 3 3c0 1.067-.574 2.062-1.498 2.598z"/></svg>