<svg id="Layer_1" viewBox="0 0 24 24" xmlns="http://www.w3.org/2000/svg" data-name="Layer 1"><path d="m19.142 10.041-5.765-3.391c.959-.501 1.623-1.494 1.623-2.65 0-1.105-.605-2.118-1.581-2.644-.101-.055-.368-.198-.408-.234 0 0-.011-.034-.011-.122 0-.553-.447-1-1-1s-1 .447-1 1c0 1.327.887 1.804 1.472 2.117.326.176.528.514.528.883 0 .552-.448 1-1 1s-1-.448-1-1-.447-1-1-1-1 .447-1 1c0 1.155.664 2.148 1.623 2.65l-5.765 3.391c-2.73.32-4.858 2.645-4.858 5.459v3c0 3.032 2.468 5.5 5.5 5.5h13c3.032 0 5.5-2.468 5.5-5.5v-3c0-2.815-2.127-5.14-4.858-5.459zm-4.015-.041h-6.255l3.128-1.84 3.128 1.84zm5.872 8.5c0 1.379-1.121 2.5-2.5 2.5h-7.5v-4c0-1.103-.897-2-2-2h-1c-1.103 0-2 .897-2 2v4h-.5c-1.379 0-2.5-1.121-2.5-2.5v-3c0-1.379 1.121-2.5 2.5-2.5h13c1.379 0 2.5 1.121 2.5 2.5zm-3-2v1c0 .828-.672 1.5-1.5 1.5h-1c-.828 0-1.5-.672-1.5-1.5v-1c0-.828.672-1.5 1.5-1.5h1c.828 0 1.5.672 1.5 1.5z"/></svg>