<svg id="Layer_1" viewBox="0 0 24 24" xmlns="http://www.w3.org/2000/svg" data-name="Layer 1"><path d="m19.786 13.812c.448.424 1.049.688 1.714.688 1.381 0 2.5-1.119 2.5-2.5s-1.119-2.5-2.5-2.5c-.665 0-1.266.264-1.714.688-.226-.974-.624-1.882-1.169-2.683l1.616-1.616c.246.065.5.112.767.112 1.657 0 3-1.343 3-3s-1.343-3-3-3-3 1.343-3 3c0 .267.046.521.112.767l-1.616 1.616c-.802-.546-1.709-.943-2.683-1.169.424-.448.688-1.049.688-1.714 0-1.381-1.119-2.5-2.5-2.5s-2.5 1.119-2.5 2.5c0 .665.264 1.266.688 1.714-.974.226-1.882.624-2.683 1.169l-1.616-1.616c.065-.246.112-.5.112-.767 0-1.657-1.343-3-3-3s-3.002 1.342-3.002 2.999 1.343 3 3 3c.267 0 .521-.046.767-.112l1.616 1.616c-.546.802-.943 1.709-1.169 2.683-.448-.424-1.049-.688-1.714-.688-1.381 0-2.5 1.119-2.5 2.5s1.119 2.5 2.5 2.5c.665 0 1.266-.264 1.714-.688.226.974.624 1.882 1.169 2.683l-1.616 1.616c-.246-.065-.5-.112-.767-.112-1.657 0-3 1.343-3 3s1.343 3 3 3 3-1.343 3-3c0-.267-.046-.521-.112-.767l1.616-1.616c.802.546 1.709.943 2.683 1.169-.424.448-.688 1.049-.688 1.714 0 1.381 1.119 2.5 2.5 2.5s2.5-1.119 2.5-2.5c0-.665-.264-1.266-.688-1.714.974-.226 1.882-.624 2.683-1.169l1.616 1.616c-.065.246-.112.5-.112.767 0 1.657 1.343 3 3 3s3-1.343 3-3-1.343-3-3-3c-.267 0-.521.046-.767.112l-1.616-1.616c.546-.802.943-1.709 1.169-2.683zm-11.02.106c-.334.641-1.011 1.082-1.791 1.082-1.086 0-1.967-.881-1.967-1.967l-.008-2.066c0-1.086.881-1.967 1.967-1.967.779 0 1.457.44 1.791 1.082.218.418-.083.918-.557.918h-.016c-.22 0-.43-.117-.525-.315-.12-.249-.383-.428-.681-.433-.402.007-.725.333-.724.736 0 .095.008 1.886.008 2.024 0 .403.322.729.724.736.292-.005.549-.176.673-.417.105-.206.321-.331.552-.331.471 0 .772.5.555.918zm5.234-.885c0 1.086-.881 1.967-1.967 1.967h-1.242c-.425 0-.771-.345-.771-.77l-.006-4.453c0-.425.343-.771.768-.772l1.251-.005c1.086 0 1.967.881 1.967 1.967zm1.6 1.967c-.331 0-.6-.269-.6-.6v-4.683c0-.396.321-.716.716-.716.292 0 .555.177.664.448l.919 2.278v-2.126c0-.331.269-.6.6-.6s.6.269.6.6v4.686c0 .394-.32.714-.714.714-.293 0-.557-.179-.664-.452l-.922-2.332v2.184c0 .331-.269.6-.6.6zm-2.855-4.012v2.024c0 .403-.322.729-.724.736-.144-.002-.437-.003-.754-.003.003-.642.001-2.311 0-3.49.317 0 .61 0 .754-.003.402.007.725.333.724.736z"/></svg>