<svg id="Layer_1" viewBox="0 0 24 24" xmlns="http://www.w3.org/2000/svg" data-name="Layer 1"><path d="m1 2.5c0-1.381 1.119-2.5 2.5-2.5s2.5 1.119 2.5 2.5-1.119 2.5-2.5 2.5-2.5-1.119-2.5-2.5zm10.5 12.5c-.828 0-1.5.671-1.5 1.5v6c0 .829.672 1.5 1.5 1.5s1.5-.671 1.5-1.5v-6c0-.829-.672-1.5-1.5-1.5zm12.5-10v17.5c0 .829-.672 1.5-1.5 1.5s-1.5-.671-1.5-1.5v-.5h-2.144c-.855 0-1.658-.38-2.202-1.042-.549-.668-.768-1.539-.6-2.389.41-2.074 1.46-3.687 2.425-4.783-3.003-2.004-4.618-4.769-5.48-7.174v4.887c0 .829-.672 1.5-1.5 1.5h-3.999c-.518 0-.998-.267-1.272-.705l-1.228-1.964v5.025l1.782 1.065c.751.448 1.218 1.271 1.218 2.146v3.933c0 .829-.672 1.5-1.5 1.5s-1.5-.671-1.5-1.5v-3.649l-3.555-2.125c-.897-.55-1.445-1.53-1.445-2.566v-4.661c0-1.93 1.57-3.5 3.5-3.5 1.461 0 2.794.739 3.567 1.978l1.264 2.022h1.669v-4.998c0-2.757 2.243-5 5-5h4c2.757 0 5 2.243 5 5zm-3 6.808v-6.808c0-1.103-.897-2-2-2h-3.846c.368 2.298 1.624 6.502 5.846 8.808zm0 7.192v-3.508c-.692.711-1.612 1.905-1.97 3.508zm-19.5 0c-.828 0-1.5.671-1.5 1.5v2c0 .829.672 1.5 1.5 1.5s1.5-.671 1.5-1.5v-2c0-.829-.672-1.5-1.5-1.5z"/></svg>