<svg id="Layer_1" viewBox="0 0 24 24" xmlns="http://www.w3.org/2000/svg" data-name="Layer 1"><path d="m21 21.474v1.027c0 .828-.641 1.499-1.5 1.499-.828 0-1.5-.671-1.5-1.499v-1.027c0-1.111-.715-2.073-1.779-2.394l-6.221-1.873v4.569c0 1.228-.801 2.224-2.025 2.224-.776 0-1.189-.17-1.582-.483l-3.658-2.908c-.866-.722-.983-2.008-.261-2.874s2.008-.983 2.874-.261l1.64 1.222v-9.195c0-.957.882-1.705 1.883-1.449.682.174 1.129.838 1.129 1.542v4.48s7.087 2.134 7.087 2.134c2.341.705 3.914 2.821 3.914 5.267zm-3.5-17.474h-.5v1h.5c.276 0 .5-.224.5-.5s-.224-.5-.5-.5zm-5.5.5c0-.276-.224-.5-.5-.5s-.5.224-.5.5v1h1zm12-.5v3c0 2.209-1.791 4-4 4h-8.001v-1.42c0-.948-.385-1.822-.999-2.473v-.607h1v1c0 .276.224.5.5.5s.5-.224.5-.5v-2.957c0-.9-.771-1.661-1.711-1.527-.759.107-1.289.819-1.289 1.585v1.765c-.298-.148-.614-.265-.952-.32-.707-.115-1.416 0-2.048.296v-.342h.457c.807 0 1.502-.619 1.542-1.425.042-.861-.646-1.575-1.498-1.575h-.5c-.552 0-1 .448-1 1v3.06c-.637.652-1.013 1.516-1.013 2.44v1.501h-.987c-2.21-.001-4.001-1.791-4.001-4.001v-3c0-2.209 1.791-4 4-4h16c2.209 0 4 1.791 4 4zm-9-.5c0-.276-.224-.5-.5-.5s-.5.224-.5.5v4c0 .276.224.5.5.5s.5-.224.5-.5zm3.361 2.225c.445-.313.714-.86.621-1.463-.115-.745-.814-1.262-1.568-1.262h-.413c-.552 0-1 .448-1 1v3.5c0 .276.224.5.5.5s.5-.224.5-.5v-1.5h.398l.494 1.64c.064.214.261.36.484.36.34 0 .583-.329.483-.654l-.498-1.621zm-10.361-1.225c0-.275-.225-.5-.5-.5h-.5v1h.5c.275 0 .5-.225.5-.5z"/></svg>