<svg id="Layer_1" viewBox="0 0 24 24" xmlns="http://www.w3.org/2000/svg" data-name="Layer 1"><path d="m16.5 7h-13c-1.93 0-3.5 1.57-3.5 3.5v1c0 1.391.822 2.585 2 3.149v7.851c0 .828.671 1.5 1.5 1.5s1.5-.672 1.5-1.5v-1.5h5v1.5c0 .828.671 1.5 1.5 1.5s1.5-.672 1.5-1.5v-1.5h2v1.5c0 .828.672 1.5 1.5 1.5s1.5-.672 1.5-1.5v-7.851c1.178-.564 2-1.758 2-3.149v-1c0-1.93-1.57-3.5-3.5-3.5zm-13.5 3.5c0-.275.224-.5.5-.5h13c.275 0 .5.225.5.5v1c0 .275-.225.5-.5.5h-13c-.276 0-.5-.225-.5-.5zm2 4.5h2v3h-2zm5 3v-3h5v3zm14-13.5c0 1.278-.547 2.501-1.5 3.354-.616.551-1.564.5-2.118-.118-.552-.617-.5-1.565.118-2.117.322-.289.5-.687.5-1.119 0-.827-.673-1.5-1.5-1.5-.408 0-.721.178-.911.327-.573.45-1.388.424-1.93-.065-.133-.119-.354-.262-.659-.262-.262 0-.51.103-.698.288-.584.572-1.52.572-2.104 0-.377-.371-1.019-.371-1.397 0-.583.572-1.52.572-2.103 0-.189-.186-.437-.288-.699-.288-.474 0-.886.336-.98.799-.164.812-.953 1.337-1.769 1.171-.812-.165-1.336-.956-1.171-1.769.377-1.854 2.026-3.201 3.92-3.201.615 0 1.211.14 1.75.402 1.078-.525 2.422-.525 3.5 0 1.057-.515 2.37-.532 3.448-.018.565-.254 1.175-.385 1.802-.385 2.481 0 4.5 2.019 4.5 4.5z"/></svg>