<svg id="Layer_1" viewBox="0 0 24 24" xmlns="http://www.w3.org/2000/svg" data-name="Layer 1"><path d="m23.842 9.671-2.634 5.268.42.226c.994.535 1.556 1.656 1.33 2.763-.406 1.986-1.375 3.706-2.355 5.029-.432.583-1.193.812-1.886.594-.496-.156-.981-.328-1.454-.515.621-1.185 1.237-2.798 1.237-4.536-1.726 2.157-3.82 2.824-4.363 2.967-.694-.427-1.359-.893-1.992-1.4-.77-.617-.831-1.784-.135-2.484 1.002-1.009 1.962-2.161 2.749-3.366.747-1.144 2.222-1.555 3.424-.907l.382.206 2.593-5.186c.372-.741 1.273-1.04 2.013-.671.741.371 1.041 1.271.671 2.013zm-12.844 12.709c.049.827-.581 1.538-1.408 1.587-.356.021-.72.033-1.089.033-4.224 0-8.5-1.546-8.5-4.5v-15c-.001-2.954 4.275-4.5 8.499-4.5s8.5 1.546 8.5 4.5v5c0 .829-.671 1.5-1.5 1.5s-1.5-.671-1.5-1.5v-1.499c-1.554.659-3.53.999-5.5.999s-3.951-.341-5.505-1.002v1.459c.001.014.005.028.005.042.157.394 2.036 1.5 5.5 1.5.95 0 1.858-.087 2.701-.258.814-.165 1.604.358 1.769 1.17.166.812-.359 1.604-1.17 1.77-1.039.211-2.149.318-3.299.318-1.972 0-3.949-.341-5.503-1.001v1.479c0 .007.003.014.003.021.157.394 2.035 1.5 5.5 1.5.829 0 1.5.672 1.5 1.5s-.671 1.5-1.5 1.5c-1.971 0-3.947-.341-5.501-1v1.5c.158.394 2.036 1.5 5.501 1.5.309 0 .613-.01.911-.027.807-.062 1.537.581 1.587 1.407zm-7.983-17.862c.199.406 2.066 1.482 5.485 1.482 3.401 0 5.263-1.063 5.485-1.518-.199-.406-2.066-1.482-5.485-1.482-3.401 0-5.263 1.063-5.485 1.518z"/></svg>