<svg id="Layer_1" viewBox="0 0 24 24" xmlns="http://www.w3.org/2000/svg" data-name="Layer 1"><path d="m23.329 10.81c-1.18-.719-2.899-1.499-4.816-1.508 1.348-1.362 2.12-3.236 2.446-4.579.247-1.018-.664-1.929-1.682-1.682-1.343.326-3.217 1.097-4.579 2.446-.009-1.916-.789-3.636-1.508-4.816-.545-.895-1.834-.895-2.379 0-.719 1.18-1.499 2.899-1.508 4.816-1.362-1.348-3.236-2.12-4.579-2.446-1.018-.247-1.93.664-1.682 1.682.326 1.343 1.097 3.217 2.446 4.579-1.916.009-3.636.789-4.816 1.508-.895.545-.895 1.834 0 2.379 1.18.719 2.899 1.499 4.816 1.508-1.348 1.362-2.12 3.236-2.446 4.579-.247 1.018.664 1.93 1.682 1.682 1.343-.326 3.217-1.097 4.579-2.446.009 1.916.789 3.636 1.508 4.816.545.895 1.834.895 2.379 0 .719-1.18 1.499-2.899 1.508-4.816 1.362 1.348 3.236 2.12 4.579 2.446 1.018.247 1.93-.664 1.682-1.682-.326-1.343-1.097-3.217-2.446-4.579 1.916-.009 3.636-.79 4.816-1.508.895-.545.895-1.834 0-2.379zm-16.829 2.19c-.893 0-1.751-.428-2.5-1.001.748-.572 1.606-.999 2.5-.999s1.751.427 2.5 1.001c-.748.572-1.606.999-2.5.999zm5.501-9c.572.748.999 1.606.999 2.5s-.427 1.751-1.001 2.5c-.572-.748-.999-1.606-.999-2.5s.428-1.751 1.001-2.5zm-.002 16c-.572-.748-.999-1.606-.999-2.5s.428-1.751 1.001-2.5c.572.748.999 1.606.999 2.5s-.427 1.751-1.001 2.5zm0-6.5c-.828 0-1.5-.672-1.5-1.5s.672-1.5 1.5-1.5 1.5.672 1.5 1.5-.672 1.5-1.5 1.5zm5.5-.5c-.893 0-1.751-.428-2.5-1.001.748-.572 1.606-.999 2.5-.999s1.751.427 2.5 1.001c-.748.572-1.606.999-2.5.999z"/></svg>