<svg id="Layer_1" viewBox="0 0 24 24" xmlns="http://www.w3.org/2000/svg" data-name="Layer 1"><path d="m21.36 7.233c-1.094-4.191-4.945-7.233-9.36-7.233s-8.265 3.042-9.36 7.233c-1.549.555-2.64 2.029-2.64 3.767 0 2.079 1.594 3.792 3.623 3.982.651 1.753 1.866 3.274 3.377 4.349v3.169c0 .829.671 1.5 1.5 1.5s1.5-.671 1.5-1.5v-1.758c.652.168 1.323.257 2 .257s1.348-.09 2-.257v1.758c0 .829.672 1.5 1.5 1.5s1.5-.671 1.5-1.5v-3.169c1.511-1.075 2.726-2.596 3.377-4.349 2.029-.19 3.623-1.904 3.623-3.982 0-1.738-1.091-3.212-2.64-3.767zm-1.36 4.767h-.749c-.707 0-1.318.494-1.467 1.186-.638 2.974-3.499 4.814-5.784 4.814s-5.146-1.841-5.785-4.815c-.148-.691-.76-1.185-1.467-1.185h-.749c-.551 0-1-.449-1-1 0-.542.424-.982.965-1.001.012 0 .535.001.535.001 1.958 0 3.634-.947 4.313-2.189.4-.732.143-1.699-.627-2.017-.388-.16-.734-.409-1.039-.683 1.229-1.302 2.964-2.111 4.853-2.111s3.625.809 4.853 2.111c-.305.274-.651.523-1.039.683-.771.318-1.027 1.285-.627 2.017.679 1.242 2.355 2.189 4.313 2.189 0 0 .523-.002.535-.001.541.019.965.459.965 1.001 0 .551-.448 1-1 1zm-10.5 1c-.828 0-1.5-.672-1.5-1.5s.672-1.5 1.5-1.5 1.5.672 1.5 1.5-.672 1.5-1.5 1.5zm6.5-1.5c0 .828-.672 1.5-1.5 1.5s-1.5-.672-1.5-1.5.672-1.5 1.5-1.5 1.5.672 1.5 1.5zm-1.638 3.481c-.592.628-1.431 1.02-2.362 1.02s-1.77-.392-2.362-1.02c-.347-.368-.059-.98.447-.98h3.831c.506 0 .795.612.447.98z"/></svg>