<svg id="Layer_1" viewBox="0 0 24 24" xmlns="http://www.w3.org/2000/svg" data-name="Layer 1"><path d="m22.5 21h-1.5v-4.172c1.05-.255 2.006-.788 2.763-1.544.546-.546.076-1.498-.691-1.405-.563.068-1.022.121-1.593.121h-2.479v-4.172c1.05-.255 2.006-.788 2.763-1.544.546-.546.076-1.498-.691-1.405-.563.068-1.022.121-1.593.121h-3.479v-2.9c.319-.04.637-.082.926-.165.725-.209.777-1.247.075-1.524-.554-.219-1.454-.472-1.979-.759-.045-.024-2.976-1.634-3.017-1.656-.054.029-2.927 1.627-2.98 1.656-.526.287-1.473.606-2.026.825-.702.278-.65 1.315.075 1.524.29.083.604.135.926.171v2.829h-3.5c-.571 0-1.01-.052-1.572-.121-.767-.093-1.237.859-.691 1.405.757.757 1.713 1.289 2.763 1.544v4.172h-2.5c-.571 0-1.01-.052-1.572-.121-.767-.093-1.237.859-.691 1.405.757.757 1.713 1.289 2.763 1.544v4.172h-1.5c-.828 0-1.5.672-1.5 1.5s.672 1.5 1.5 1.5h21c.828 0 1.5-.672 1.5-1.5s-.672-1.5-1.5-1.5zm-9.5-4v4h-2v-4zm3 0h2v4h-2zm-5-13.123c.362-.113.71-.249 1.024-.415.3.159.635.277.976.383v3.156h-2zm-3 6.123h8v4h-8zm-2 7h2v4h-2z"/></svg>