<svg id="Layer_1" viewBox="0 0 24 24" xmlns="http://www.w3.org/2000/svg" data-name="Layer 1"><path d="m18 6c-.175 0-.346.007-.516.016-1.249-3.547-4.637-6.016-8.484-6.016-4.962 0-9 4.037-9 9 0 2.557 1.093 5.002 2.999 6.708v4.863c0 2.019 2.467 3.429 6 3.429 1.869 0 3.435-.398 4.5-1.069 1.065.671 2.631 1.069 4.5 1.069 3.533 0 6-1.41 6-3.429v-10.571c0-2.28-2.58-4-6-4zm3 9.223c-.239.243-1.24.777-3 .777s-2.761-.534-3-.777v-1.728c.873.322 1.891.505 3 .505s2.127-.183 3-.505zm-9-.236c-.086.281-1.127 1.013-3 1.013-1.842 0-2.881-.708-2.996-1 .115-.292 1.154-1 2.996-1 1.873 0 2.914.732 3 .98v.006zm9.002-5.004s0 0 0 0c-.081.28-1.123 1.016-3.002 1.016-1.842 0-2.881-.708-2.996-1 .115-.292 1.154-1 2.996-1 1.879 0 2.921.737 3.002.983zm-12.002-6.983c2.45 0 4.618 1.503 5.533 3.696-1.552.708-2.533 1.899-2.533 3.304v1.505c-.873-.322-1.891-.505-3-.505-2.023 0-3.746.604-4.821 1.567-.758-1.025-1.179-2.274-1.179-3.567 0-3.309 2.691-6 6-6zm-3 17.337v-1.842c.873.322 1.891.505 3 .505s2.127-.183 3-.505v1.842c-.317.234-1.321.663-3 .663s-2.683-.429-3-.663zm12 .663c-1.679 0-2.683-.429-3-.663v-1.781c.868.284 1.884.444 3 .444s2.132-.16 3-.444v1.781c-.317.234-1.321.663-3 .663zm-12-12c0-.553.448-1 1-1h1v-2c0-.553.448-1 1-1s1 .447 1 1v3c0 .553-.448 1-1 1h-2c-.552 0-1-.447-1-1z"/></svg>