<svg id="Layer_1" viewBox="0 0 24 24" xmlns="http://www.w3.org/2000/svg" data-name="Layer 1"><path d="m8.001 4.5v-3c0-.828.672-1.5 1.5-1.5s1.5.672 1.5 1.5v3c0 .828-.672 1.5-1.5 1.5s-1.5-.672-1.5-1.5zm-3.499 1.5c.828 0 1.5-.672 1.5-1.5v-3c0-.828-.672-1.5-1.5-1.5s-1.5.672-1.5 1.5v3c0 .828.672 1.5 1.5 1.5zm9.999 0c.828 0 1.5-.672 1.5-1.5v-3c0-.828-.672-1.5-1.5-1.5s-1.5.672-1.5 1.5v3c0 .828.672 1.5 1.5 1.5zm8.643 4.651c.815 1.087 1.063 2.461.683 3.769-.669 2.288-1.827 5.374-3.547 7.088-1.59 1.584-3.833 2.492-6.156 2.492h-4.244c-2.323 0-4.567-.908-6.156-2.493-1.72-1.713-2.878-4.799-3.546-7.086-.382-1.309-.134-2.683.682-3.77.809-1.079 2.047-1.698 3.396-1.698h12.306l4.815-5.446c.549-.622 1.496-.68 2.117-.131s.68 1.497.131 2.117l-3.123 3.533c1.05.186 1.988.751 2.644 1.626zm-2.4 1.8c-.14-.187-.454-.498-.996-.498h-15.495c-.542 0-.856.312-.996.498-.243.324-.317.735-.202 1.129.793 2.715 1.807 4.829 2.784 5.801 1.032 1.029 2.505 1.619 4.039 1.619h4.244c1.535 0 3.007-.59 4.039-1.618.976-.973 1.991-3.087 2.785-5.803.114-.393.04-.804-.203-1.128z"/></svg>