<svg id="Layer_1" viewBox="0 0 24 24" xmlns="http://www.w3.org/2000/svg" data-name="Layer 1"><path d="m10.262 16c-.165.64-.262 1.308-.262 2 0 .339.028.672.069 1h-8.569c-.828 0-1.5-.672-1.5-1.5s.672-1.5 1.5-1.5zm.325 5h-9.087c-.828 0-1.5.672-1.5 1.5s.672 1.5 1.5 1.5h11.221c-.926-.815-1.663-1.838-2.134-3zm13.413-3c0 3.314-2.686 6-6 6s-6-2.686-6-6 2.686-6 6-6 6 2.686 6 6zm-4.447-.505-2.792-.559c-.304-.061-.514-.36-.449-.678.055-.272.309-.458.587-.458h2.307c.203 0 .387.087.515.226.154.167.437.274.664.274.655 0 1.01-.763.592-1.266-.422-.509-1.059-.833-1.77-.833h-.405v-.4c0-.442-.358-.8-.8-.8s-.8.358-.8.8v.4h-.28c-1.091 0-2.046.786-2.199 1.866-.163 1.158.613 2.216 1.725 2.439l2.791.559c.304.062.514.359.451.677-.054.273-.308.46-.586.46h-2.334c-.203 0-.387-.087-.515-.226-.154-.167-.437-.274-.664-.274-.655 0-1.01.763-.592 1.266.422.509 1.059.833 1.77.833h.431v.4c0 .442.358.8.8.8s.8-.358.8-.8v-.4h.28c1.091 0 2.046-.785 2.199-1.865.164-1.158-.613-2.217-1.725-2.439zm4.447-11.995v4c0 .829-.672 1.5-1.5 1.5s-1.5-.671-1.5-1.5v-1.743l-2 .84v.903c0 .829-.672 1.5-1.5 1.5-.711 0-1.303-.496-1.458-1.16l-1.553.652c-.8.336-1.658.504-2.516.504-.863 0-1.726-.17-2.529-.509l-1.444-.611v2.623c0 .829-.671 1.5-1.5 1.5s-1.5-.671-1.5-1.5v-3.892l-4.084-1.726c-.555-.234-.916-.779-.916-1.381s.361-1.147.916-1.381l8.528-3.606c1.602-.678 3.441-.68 5.045-.006l8.59 3.609c.547.234.916.787.92 1.383zm-5.372 0-5.301-2.227c-.863-.362-1.853-.362-2.715.003l-5.26 2.224 5.26 2.224c.863.366 1.853.366 2.715.003z"/></svg>