<?xml version="1.0" encoding="UTF-8"?>
<svg xmlns="http://www.w3.org/2000/svg" id="Layer_1" data-name="Layer 1" viewBox="0 0 24 24">
  <path d="m22.937,17.935l-9.94,3.025c0,.013.004.026.004.04,0,1.657-1.343,3-3,3s-3-1.343-3-3c0-1.268.789-2.346,1.9-2.785L4.774,4.43c-.318-1.041-1.433-1.639-2.486-1.322l-.356.107c-.797.24-1.63-.212-1.868-1.005C-.175,1.417.275.581,1.068.342l.356-.107c2.626-.791,5.418.701,6.222,3.326l4.359,14.565,10.059-3.062c.788-.242,1.63.205,1.871.999.241.792-.205,1.63-.998,1.872ZM10.441,5.03c-.479-1.583.417-3.262,2-3.742L16.3.117c1.58-.478,3.26.416,3.742,1.999l2.27,7.479c.488,1.61-.424,3.317-2.034,3.807l-3.76,1.141c-.294.089-.592.131-.884.131-1.31,0-2.522-.85-2.922-2.165l-2.27-7.479Zm8.999,5.437l-.691-2.279-3.858,1.171.691,2.279,3.824-1.107.034-.064Zm-6.128-6.308l.707,2.329,3.858-1.171-.707-2.329-3.858,1.171Z"/>
</svg>
