<svg id="Layer_1" viewBox="0 0 24 24" xmlns="http://www.w3.org/2000/svg" data-name="Layer 1"><path d="m18.957 17.079c-.216-2.281-2.12-4.079-4.457-4.079h-1v-.5c0-.829-.671-1.5-1.5-1.5s-1.5.671-1.5 1.5v.5h-1c-2.337 0-4.241 1.797-4.457 4.079-.603.194-1.043.754-1.043 1.421s.439 1.227 1.043 1.421c.216 2.281 2.12 4.079 4.457 4.079h5c2.337 0 4.241-1.797 4.457-4.079.603-.194 1.043-.754 1.043-1.421s-.44-1.227-1.043-1.421zm-2.957 2.421c0 .827-.673 1.5-1.5 1.5h-5c-.827 0-1.5-.673-1.5-1.5v-2c0-.827.673-1.5 1.5-1.5h5c.827 0 1.5.673 1.5 1.5zm-4.5-1c0 .828-.672 1.5-1.5 1.5s-1.5-.672-1.5-1.5.672-1.5 1.5-1.5 1.5.672 1.5 1.5zm4 0c0 .828-.672 1.5-1.5 1.5s-1.5-.672-1.5-1.5.672-1.5 1.5-1.5 1.5.672 1.5 1.5zm8.5-15c0 .829-.672 1.5-1.5 1.5h-7.5v.5c0 .398-.158.779-.439 1.061l-1.061 1.061v.879c0 .829-.671 1.5-1.5 1.5s-1.5-.671-1.5-1.5v-.879l-1.061-1.061c-.281-.281-.439-.663-.439-1.061v-.5h-7.5c-.829 0-1.5-.671-1.5-1.5s.671-1.5 1.5-1.5h7.684c.414-1.161 1.514-2 2.816-2s2.402.839 2.816 2h7.684c.828 0 1.5.671 1.5 1.5z"/></svg>