<svg id="Layer_1" viewBox="0 0 24 24" xmlns="http://www.w3.org/2000/svg" data-name="Layer 1"><path d="m23.561 21.443-5.543-5.543c1.224-1.658 1.957-3.699 1.957-5.912 0-5.508-4.48-9.988-9.988-9.988s-9.987 4.48-9.987 9.987 4.48 9.987 9.987 9.987c2.214 0 4.255-.733 5.912-1.957l5.543 5.543c.585.585 1.533.585 2.118 0s.585-1.534 0-2.118zm-20.565-11.456c0-3.855 3.136-6.991 6.991-6.991s6.991 3.136 6.991 6.991c-.002 3.854-3.137 6.989-6.991 6.991-3.855 0-6.991-3.136-6.991-6.991zm8.504 1.029c-.275-.829-.484-2.105-.484-2.996 0-1.498.624-2.497 1.498-2.497.999 0 2.497.182 2.497 3.179 0 .698-.499 2.314-.499 2.314 0 .003-3.012 0-3.012 0zm.016.999h2.803c0 1.248-.152 2.996-1.445 2.996-.734 0-1.358-.629-1.358-1.498.01-.309 0-1.498 0-1.498zm-2.497-3.995c0 .892-.208 2.167-.484 2.996 0 0-3.011.003-3.012 0 0 0-.499-1.616-.499-2.314 0-2.996 1.498-3.179 2.497-3.179.875 0 1.498.999 1.498 2.497zm-.499 3.995s-.01 1.189 0 1.498c0 .87-.624 1.498-1.358 1.498-1.292 0-1.445-1.748-1.445-2.996z"/></svg>