<svg id="Layer_1" viewBox="0 0 24 24" xmlns="http://www.w3.org/2000/svg" data-name="Layer 1"><path d="m24 12.477c0 2.07-.888 4.151-2.436 5.71-.583.588-1.534.592-2.121.008-.588-.583-.592-1.533-.008-2.121.979-.987 1.564-2.332 1.564-3.597 0-2.236-1.589-4.176-3.777-4.613-1.087-.217-1.979-.91-2.447-1.901-1.02-2.151-3.3-3.307-5.677-2.872-2.075.38-3.767 2.104-4.114 4.193-.106.639-.1 1.274.02 1.889.219 1.129-.198 2.334-1.088 3.144-.582.53-.916 1.284-.916 2.069 0 .609.235 1.231.661 1.753.524.642.429 1.586-.212 2.111-.642.524-1.586.429-2.111-.212-.863-1.056-1.338-2.353-1.338-3.651 0-1.629.692-3.192 1.898-4.289.114-.104.181-.25.161-.353-.188-.966-.199-1.959-.034-2.952.558-3.366 3.184-6.04 6.533-6.653 3.667-.673 7.341 1.195 8.929 4.54.06.127.174.213.321.242 3.588.715 6.191 3.893 6.191 7.555zm-7 1.023v9c0 .829-.672 1.5-1.5 1.5s-1.5-.671-1.5-1.5v-.5h-5v.5c0 .829-.671 1.5-1.5 1.5s-1.5-.671-1.5-1.5v-9c0-.829.671-1.5 1.5-1.5s1.5.671 1.5 1.5v.5h5v-.5c0-.829.672-1.5 1.5-1.5s1.5.671 1.5 1.5zm-3 5.5v-2h-5v2z"/></svg>