<svg id="Layer_1" viewBox="0 0 24 24" xmlns="http://www.w3.org/2000/svg" data-name="Layer 1"><path d="m24 3.5c0 .828-.671 1.5-1.5 1.5h-1.35c-.345.723-.927 1.305-1.65 1.65v2.888c0 .828-.671 1.5-1.5 1.5s-1.5-.672-1.5-1.5v-2.888c-.723-.345-1.305-.927-1.65-1.65h-5.699c-.345.723-.927 1.305-1.65 1.65v2.888c0 .828-.671 1.5-1.5 1.5s-1.5-.672-1.5-1.5v-2.888c-.723-.345-1.305-.927-1.65-1.65h-1.351c-.829 0-1.5-.672-1.5-1.5s.671-1.5 1.5-1.5h1.35c.563-1.179 1.756-2 3.15-2s2.587.821 3.15 2h5.699c.563-1.179 1.756-2 3.15-2s2.587.821 3.15 2h1.35c.829 0 1.5.672 1.5 1.5zm-11 16.755c0 .766.395 1.478 1.044 1.884l2.956 1.86v-4.978l-4-2.307zm6 3.727 2.956-1.843c.65-.406 1.044-1.118 1.044-1.884v-3.525l-4 2.294zm.178-10.645c-.721-.45-1.635-.45-2.356 0l-2.742 1.714 3.92 2.24 3.92-2.24zm-18.178 6.918c0 .766.395 1.478 1.044 1.884l2.956 1.86v-4.978l-4-2.307zm6 3.727 2.956-1.843c.65-.406 1.044-1.118 1.044-1.884v-3.525l-4 2.294zm.178-10.645c-.721-.45-1.635-.45-2.356 0l-2.742 1.714 3.92 2.24 3.92-2.24z"/></svg>