<svg id="Layer_1" viewBox="0 0 24 24" xmlns="http://www.w3.org/2000/svg" data-name="Layer 1"><path d="m19.5 0c-2.519-.007-4.618 2.127-4.484 4.655-1.095.345-2.114.588-3.028.719-.068-1.319-1.152-2.373-2.487-2.373h-1c-1.379 0-2.5 1.122-2.5 2.5v3.024c-.98.345-1.904.855-2.725 1.531-2.081 1.717-3.275 4.249-3.275 6.945 0 1.386.309 2.715.917 3.951.91 1.853 2.846 3.049 4.93 3.049h6.306c2.086 0 4.022-1.198 4.934-3.053.849-1.729 1.113-3.666.766-5.599-.572-3.18-2.858-5.794-5.852-6.84v-.102c1.245-.144 2.633-.477 4.126-.96.826.944 2.024 1.554 3.374 1.554 2.481 0 4.5-2.019 4.5-4.5s-2.021-4.501-4.502-4.501zm-4.602 15.879c.234 1.299.06 2.594-.506 3.745-.41.835-1.289 1.375-2.24 1.375h-6.306c-.949 0-1.828-.539-2.238-1.373-.403-.821-.608-1.705-.608-2.627-.07-3.222 2.793-6.083 6.007-6 2.833-.043 5.41 2.07 5.891 4.879zm4.602-9.879c-.827 0-1.5-.673-1.5-1.5s.673-1.5 1.5-1.5 1.5.673 1.5 1.5-.673 1.5-1.5 1.5z"/></svg>