<svg id="Layer_1" viewBox="0 0 24 24" xmlns="http://www.w3.org/2000/svg" data-name="Layer 1"><path d="m20.103 16.857c-.935 1.342-2.469 2.143-4.103 2.143 0 2.757-2.243 5-5 5h-6c-2.757 0-5-2.243-5-5v-9c0-2.757 2.243-5 5-5 0-2.472 1.843-4.6 4.287-4.949.824-.118 1.58.453 1.698 1.272.117.82-.453 1.58-1.272 1.697-.977.14-1.713.991-1.713 1.979v.092c.581.207 1 .756 1 1.408 0 .829-.672 1.5-1.5 1.5h-2.5c-1.103 0-2 .897-2 2v9c0 1.103.897 2 2 2h6c1.103 0 2-.897 2-2v-2.5c0-.829.672-1.5 1.5-1.5.652 0 1.201.419 1.408 1 .684.026 1.342-.293 1.733-.857.473-.68 1.409-.847 2.088-.373.68.474.847 1.408.373 2.088zm3.897-10.357c0 3.59-2.91 6.5-6.5 6.5s-6.5-2.91-6.5-6.5 2.91-6.5 6.5-6.5 6.5 2.91 6.5 6.5zm-3.988 1.5c-.301 0-.603.115-.774.284-.449.441-1.06.716-1.738.716s-1.274-.283-1.723-.721l.607-.607c.248-.248.072-.672-.278-.672h-2.526c-.32 0-.579.259-.579.579v2.526c0 .351.424.526.672.278l.695-.695c.806.804 1.905 1.311 3.133 1.311 1.252 0 2.379-.517 3.191-1.347.602-.616.183-1.653-.679-1.653zm1.988-5.105c0-.351-.424-.526-.672-.278l-.695.695c-.806-.804-1.905-1.311-3.133-1.311-1.252 0-2.379.517-3.191 1.347-.602.616-.183 1.653.679 1.653.336 0 .603-.115.774-.284.449-.441 1.06-.716 1.738-.716s1.275.283 1.723.721l-.607.607c-.248.248-.072.672.278.672h2.526c.32 0 .579-.259.579-.579v-2.527zm-15.376 9.105h2.622c.384 0 .712.18.878.482.266.483.875.66 1.357.395.484-.266.661-.874.395-1.358-.515-.937-1.522-1.518-2.63-1.518h-.246c0-.552-.447-1-1-1s-1 .448-1 1h-.376c-1.447 0-2.624 1.177-2.624 2.624 0 1.288.923 2.377 2.193 2.588l3.285.548c.302.05.521.309.521.616 0 .344-.28.624-.624.624h-2.654c-.345 0-.675-.195-.861-.51-.284-.476-.896-.632-1.37-.35-.476.282-.632.896-.351 1.371.545.919 1.534 1.49 2.582 1.49h.278c0 .552.447 1 1 1s1-.448 1-1h.376c1.447 0 2.624-1.177 2.624-2.624 0-1.288-.923-2.377-2.193-2.588l-3.285-.548c-.302-.05-.521-.309-.521-.616 0-.344.28-.624.624-.624z"/></svg>