<?xml version="1.0" encoding="UTF-8"?>
<svg xmlns="http://www.w3.org/2000/svg" id="Layer_1" data-name="Layer 1" viewBox="0 0 24 24">
  <path d="m6.5,12c.828,0,1.5.672,1.5,1.5s-.672,1.5-1.5,1.5-1.5-.672-1.5-1.5.672-1.5,1.5-1.5Zm7.5-3.5c0-.829-.672-1.5-1.5-1.5H3.051c.232-1.14,1.242-2,2.449-2h13.126c1.142,0,2.138.771,2.422,1.874.206.802,1.027,1.283,1.826,1.079.803-.207,1.285-1.024,1.078-1.827-.625-2.429-2.815-4.126-5.326-4.126H5.5C2.468,2,0,4.467,0,7.5v7c0,3.032,2.468,5.5,5.5,5.5h4c.828,0,1.5-.672,1.5-1.5s-.672-1.5-1.5-1.5h-4c-1.379,0-2.5-1.121-2.5-2.5v-4.5h9.5c.828,0,1.5-.671,1.5-1.5Zm10,9.5v3c0,1.657-1.343,3-3,3h-5c-1.657,0-3-1.343-3-3v-3c0-.885.39-1.672,1-2.221v-2.279c0-2.481,2.019-4.5,4.5-4.5s4.5,2.019,4.5,4.5v2.279c.61.549,1,1.336,1,2.221Zm-7-4.5v1.5h3v-1.5c0-.827-.673-1.5-1.5-1.5s-1.5.673-1.5,1.5Zm3,6c0-.828-.672-1.5-1.5-1.5s-1.5.672-1.5,1.5.672,1.5,1.5,1.5,1.5-.672,1.5-1.5Z"/>
</svg>
