<svg id="Layer_1" viewBox="0 0 24 24" xmlns="http://www.w3.org/2000/svg" data-name="Layer 1"><path d="m18 0c-3.314 0-6 2.686-6 6s2.686 6 6 6 6-2.686 6-6-2.686-6-6-6zm2.999 8.749c0 .44-.362.751-.752.751-.135 0-.274-.037-.402-.119l-1.694-1.381h-1.65c-.828 0-1.5-.672-1.5-1.5v-2.001c0-.829.672-1.5 1.5-1.5h3c.825.001 1.5.676 1.5 1.501v4.248zm-6.5 8.751v1h-1v-1c0-.276.225-.5.5-.5s.5.224.5.5zm6.86-4.247c-1.023.475-2.158.747-3.36.747-1.404 0-2.723-.364-3.87-1h-10.129c-2.209 0-4 1.791-4 4v3c0 2.209 1.791 4 4 4h16c2.209 0 4-1.791 4-4v-3c0-1.729-1.104-3.189-2.64-3.747zm-15.36 6.747c.178 0 .344-.096.434-.25.137-.239.442-.322.683-.183.239.138.321.444.182.683-.267.463-.765.75-1.299.75-.827 0-1.5-.673-1.5-1.5v-2c0-.827.673-1.5 1.5-1.5.534 0 1.032.287 1.299.75.139.238.057.545-.182.683-.241.139-.546.056-.683-.183-.089-.154-.255-.25-.434-.25-.276 0-.5.225-.5.5v2c0 .275.224.5.5.5zm5.5.5c0 .276-.224.5-.5.5s-.5-.224-.5-.5v-1.5h-1v1.5c0 .276-.224.5-.5.5s-.5-.224-.5-.5v-4c0-.276.224-.5.5-.5s.5.224.5.5v1.5h1v-1.5c0-.276.224-.5.5-.5s.5.224.5.5zm4 0c0 .276-.224.5-.5.5s-.5-.224-.5-.5v-1h-1v1c0 .276-.224.5-.5.5s-.5-.224-.5-.5v-3c0-.827.673-1.5 1.5-1.5s1.5.673 1.5 1.5zm3.5-3.5h-.5v3.5c0 .276-.224.5-.5.5s-.5-.224-.5-.5v-3.5h-.5c-.276 0-.5-.224-.5-.5s.224-.5.5-.5h2c.276 0 .5.224.5.5s-.224.5-.5.5z"/></svg>