<svg id="Layer_1" viewBox="0 0 24 24" xmlns="http://www.w3.org/2000/svg" data-name="Layer 1"><path d="m12.252 11.778 1.406 2.683c.359.747.044 1.643-.703 2.001-.747.359-1.643.044-2.001-.703l-1.406-2.683c-.359-.747-.044-1.643.703-2.001.747-.359 1.643-.044 2.001.703zm2.722 2.051c.359.747 1.255 1.061 2.001.703.747-.359 1.061-1.255.703-2.001l-1.805-3.561c-.359-.747-1.254-1.062-2.001-.703-.747.358-1.062 1.255-.703 2.001zm8.407.012-2.471-5.042 2.109-4.682c.341-.755.004-1.644-.751-1.984-.756-.34-1.644-.004-1.983.751l-1.089 2.418-1.194-2.436c-.364-.744-1.264-1.052-2.007-.687-.744.364-1.052 1.263-.687 2.007l5.374 10.963c.769 1.6.092 3.526-1.508 4.294l-2.299 1.104c-1.102.53-2.344.598-3.5.193-1.154-.405-2.081-1.236-2.638-2.393l-1.92-3.615c-.388-.731-1.296-1.01-2.028-.621-.731.389-1.01 1.296-.621 2.028l1.893 3.561c.876 1.825 2.411 3.2 4.321 3.87.822.289 1.67.43 2.517.43 1.12 0 2.235-.249 3.275-.749l2.299-1.104c3.091-1.484 4.397-5.207 2.908-8.308zm-17.381-3.05c-.736 0-1.472-.251-2.072-.753-2.606-2.182-3.928-4.215-3.928-6.042 0-2.204 1.682-3.996 3.75-3.996.831 0 1.599.253 2.221.682.623-.432 1.407-.682 2.279-.682 2.068 0 3.75 1.792 3.75 3.996 0 1.828-1.322 3.86-3.928 6.042-.601.502-1.336.753-2.072.753zm.147-3.054c2.106-1.763 2.853-3.117 2.853-3.741 0-.54-.343-.996-.75-.996-.031 0-.75.006-.75.5 0 .829-.671 1.5-1.5 1.5s-1.5-.671-1.5-1.5c0-.236-.308-.5-.75-.5-.407 0-.75.456-.75.996 0 .624.747 1.979 2.854 3.741.087.073.206.073.293 0z"/></svg>