<svg id="Layer_1" viewBox="0 0 24 24" xmlns="http://www.w3.org/2000/svg" data-name="Layer 1"><path d="m3.049 10.153c-.072.699-.047 1.402.072 2.091.141.816-.406 1.593-1.222 1.734-.798.142-1.596-.401-1.734-1.223-.165-.958-.2-1.937-.1-2.908.084-.824.826-1.432 1.645-1.339.824.084 1.424.821 1.339 1.645zm16.833-5.716c-2.119-2.83-5.41-4.444-8.882-4.437-.603.001-1.211.051-1.819.152-.817.135-1.371.909-1.236 1.727s.909 1.371 1.724 1.236c3.006-.499 5.999.699 7.846 3.165.965 1.194 2.653 4.251 3.268 5.721h-.39c-.756 0-1.394.562-1.488 1.312l-.316 2.501c-.157 1.246-1.224 2.187-2.48 2.187h-.609c-.829 0-1.5.672-1.5 1.5v1c0 .275-.224.5-.5.5h-1c-.829 0-1.5.672-1.5 1.5s.671 1.5 1.5 1.5h1c1.784 0 3.26-1.341 3.474-3.068 2.376-.378 4.283-2.291 4.593-4.743l.151-1.193c1.484-.087 2.283-1.303 2.283-2.45 0-1.661-3.135-6.896-4.118-8.109zm-15.768-3.732c-.942-.941-2.468-.94-3.409.002-.942.943-.94 2.471.003 3.413l5.126 5.126h.001c.546-1.447 1.741-2.561 3.232-3.011 0 0-4.921-5.498-4.953-5.53zm10.81 11.266c-.662-1.741-1.985-3.971-4.424-3.971-1.71 0-3.086 1.431-2.996 3.161.085 1.622 1.541 2.839 3.165 2.839h2.835c1.05 0 1.793-1.047 1.42-2.029zm-10.246 5.655 1.142 5.435c.107.5-.296.963-.804.937-.368 0-.685-.257-.761-.617l-.165-.782h-2.379l-.175.79c-.079.356-.394.61-.759.61-.494 0-.863-.456-.76-.939l1.165-5.479c.168-.864.87-1.582 1.742-1.581.894.006 1.563.69 1.753 1.627zm-.924 3.373-.641-3.044c-.047-.231-.105-.355-.185-.355s-.159.204-.189.354l-.673 3.045zm4.446-5c-.442 0-.8.358-.8.8v6.4c0 .442.358.8.8.8s.8-.358.8-.8v-6.4c0-.442-.358-.8-.8-.8z"/></svg>