<svg id="Layer_1" viewBox="0 0 24 24" xmlns="http://www.w3.org/2000/svg" data-name="Layer 1"><path d="m24 22.5c0 .829-.671 1.5-1.5 1.5s-1.5-.671-1.5-1.5v-3.164c-2.198-.788-4.506-1.172-7.001-1.166v4.255c0 .869-.704 1.574-1.573 1.574-.368 0-.725-.129-1.008-.365l-4.645-3.872c-.82-.684-1.076-1.896-.477-2.78.688-1.017 2.082-1.196 3.001-.43l1.703 1.222.002-6.777c0-.827.67-1.497 1.498-1.497s1.5.673 1.498 1.502v4.17c.676 0 1.343.027 2.002.079v-5.751c0-.829.671-1.5 1.5-1.5s1.5.671 1.5 1.5v6.175c.677.14 1.344.309 2 .508v-4.183c0-.829.671-1.5 1.5-1.5s1.5.671 1.5 1.5zm-4.593-16.632c-.515.25-.552.973-.045 1.239.487.255 1.32.697 2.078 1.454.672.672 1.822.573 2.353-.296.39-.637.188-1.445-.362-1.95-1.338-1.23-3-.944-4.024-.447zm.438-2.403c.527-.177 1.526-.465 2.655-.465.95 0 1.694-.883 1.455-1.873-.175-.726-.889-1.154-1.635-1.123-1.913.08-2.948 1.585-3.291 2.697-.152.493.327.928.816.765zm-13.621 11.03c.862-.418 1.85-.519 2.778-.28v-3.212c0-.108.023-.21.033-.316-1.202 1.069-2.154 2.368-2.811 3.807zm-1.563 1.377c-.523.771-.78 1.682-.695 2.622.038.421.157.819.317 1.198-2.6-2.015-4.283-5.157-4.283-8.692 0-6.065 4.934-11 11-11 2.353 0 4.531.748 6.32 2.012-.21.677-.312 1.355-.32 1.959l-.03 2.07c-1.171.181-2.138.95-2.619 1.994-.17-.072-.322-.193-.497-.257-.528-1.728-1.378-3.35-2.529-4.773-.659-.048-1.333.025-1.962.153 1.18 1.257 2.052 2.766 2.57 4.406-1.153.19-2.112.94-2.592 1.966-.094-.54-.221-1.071-.417-1.578-2.312 1.809-3.986 4.273-4.827 7.091.17.289.362.564.565.829zm2.698-10.475c-.297-.336-.617-.652-.967-.94-1.835 1.297-3.106 3.341-3.356 5.689 1.12-1.831 2.578-3.439 4.323-4.749z"/></svg>