<svg id="Layer_1" viewBox="0 0 24 24" xmlns="http://www.w3.org/2000/svg" data-name="Layer 1"><path d="m21 7.607v-2.658c1.692-.245 3-1.691 3-3.449 0-.829-.672-1.5-1.5-1.5s-1.5.671-1.5 1.5c0 .276-.225.5-.5.5h-17.5v-.5c0-.829-.672-1.5-1.5-1.5s-1.5.671-1.5 1.5v21c0 .829.672 1.5 1.5 1.5s1.5-.671 1.5-1.5v-17.5h5v2.607c-1.778.912-3 2.761-3 4.893v6c0 3.033 2.468 5.5 5.5 5.5h8c3.032 0 5.5-2.467 5.5-5.5v-6c0-2.132-1.222-3.98-3-4.893zm-3-2.607v2h-7v-2zm3 13.5c0 1.378-1.121 2.5-2.5 2.5h-8c-1.379 0-2.5-1.122-2.5-2.5v-6c0-1.378 1.121-2.5 2.5-2.5h8c1.379 0 2.5 1.122 2.5 2.5zm-1-.5c0 .552-.448 1-1 1h-9c-.552 0-1-.448-1-1 0-1 1.12-1 1.12-1 .382-1.68 1.7-2.997 3.38-3.38v-.62c0-.552.448-1 1-1s1 .448 1 1v.62c1.68.382 2.997 1.7 3.38 3.38 0 0 1.12 0 1.12 1z"/></svg>