<svg id="Layer_1" viewBox="0 0 24 24" xmlns="http://www.w3.org/2000/svg" data-name="Layer 1"><path d="m24 21v1.154c0 1.02-.827 1.846-1.846 1.846h-20.308c-1.02 0-1.846-.827-1.846-1.846v-1.154c0-1.105.895-2 2-2v-7.5c0-3.033 2.467-5.5 5.5-5.5h1c.829 0 1.5.671 1.5 1.5s-.671 1.5-1.5 1.5h-1c-1.378 0-2.5 1.122-2.5 2.5v7.5h3.308l.923 1h5.538l.923-1h3.308v-1.5c0-.829.672-1.5 1.5-1.5s1.5.671 1.5 1.5v1.5c1.105 0 2 .895 2 2zm-6-7c3.309 0 6-2.691 6-6 0-.223-.013-.443-.036-.66-.088-.824-.826-1.416-1.651-1.332-.823.088-1.42.828-1.331 1.651.012.112.019.226.019.34 0 1.654-1.346 3-3 3s-3-1.346-3-3c0-1.302.839-2.402 2-2.816v1.27c0 .452.534.693.873.394l2.71-2.389c.556-.48.556-1.32 0-1.8l-2.71-2.389c-.339-.299-.873-.058-.873.394v1.426c-2.833.478-5 2.942-5 5.91 0 3.309 2.691 6 6 6z"/></svg>