<svg id="Layer_1" viewBox="0 0 24 24" xmlns="http://www.w3.org/2000/svg" data-name="Layer 1"><path d="m12 10c2.762 0 5-2.238 5-5s-2.238-5-5-5-5 2.238-5 5 2.238 5 5 5zm-2.84-5.436c.395-.411 1.052-.408 1.445.005l.901.949 2.108-2.174c.391-.404 1.039-.405 1.432-.003.379.388.38 1.006.003 1.395l-2.138 2.206-.004.004c-.744.744-2.058.746-2.823-.019l-.93-.981c-.368-.388-.365-.996.005-1.381zm12.84 11.77-.003.925c-.002 2.273-1.452 4.282-3.608 5.001l-4.126 1.375c-.73.244-1.498.365-2.266.365s-1.535-.122-2.265-.365l-4.122-1.374c-2.161-.72-3.61-2.733-3.608-5.009v-.917l3.053 1.381c.162.784.722 1.439 1.504 1.7l3.939 1.313.002-1.969c.573-.236 1.094-.594 1.502-1.066.409.473.927.83 1.498 1.069l-.002 1.964 3.943-1.313c.79-.263 1.356-.93 1.511-1.725l3.049-1.355zm2-4.335c0 .81-.526 1.579-1.365 1.859l-6.972 3.124c-.208.07-.421.103-.632.103-.687 0-1.346-.356-1.715-.971l-1.326-2.448-1.306 2.448c-.369.615-1.027.971-1.715.971-.21 0-.424-.034-.632-.103l-6.972-3.124c-.839-.279-1.365-1.048-1.365-1.858 0-.373.083-.726.285-1.062l1.023-2.237c.453-.752 1.138-1.335 1.953-1.662l1.863-.747c.606 3.249 3.452 5.709 6.876 5.709s6.269-2.46 6.876-5.707l1.862.746c.816.326 1.503.91 1.956 1.663l1.022 2.236h-.002c.202.336.285.665.285 1.061z"/></svg>