<svg id="Layer_1" viewBox="0 0 24 24" xmlns="http://www.w3.org/2000/svg" data-name="Layer 1"><path d="m23.561 14.439c.586.586.586 1.535 0 2.121s-1.535.586-2.121 0l-.732-.732-3.998 3.998c.487.656.903 1.367 1.195 2.148.291.775-.103 1.641-.878 1.931-.755.289-1.641-.094-1.931-.878-.903-2.408-3.353-4.026-6.096-4.026s-5.192 1.618-6.096 4.026c-.291.775-1.154 1.17-1.931.878-.775-.29-1.169-1.155-.878-1.931 1.339-3.573 4.917-5.973 8.904-5.973 1.307 0 2.558.28 3.713.752l4.459-4.459-.732-.732c-.586-.586-.586-1.535 0-2.121s1.535-.586 2.121 0l1.439 1.439 1.439-1.439c.586-.586 1.535-.586 2.121 0s.586 1.535 0 2.121l-1.439 1.439 1.439 1.439zm-22.561-7.939c0-.828.672-1.5 1.5-1.5h.59c.479-2.833 2.943-5 5.91-5 2.912 0 5.413 2.205 5.906 5h.594c.828 0 1.5.672 1.5 1.5s-.672 1.5-1.5 1.5h-.5v.984c0 3.252-2.748 6-6 6-3.309 0-6-2.691-6-6v-.984h-.5c-.828 0-1.5-.672-1.5-1.5zm11 2.484v-.984h-6v.984c0 1.654 1.346 3 3 3 1.626 0 3-1.374 3-3zm-5.816-3.984h5.625c-.424-1.15-1.533-2-2.809-2-1.302 0-2.402.838-2.816 2z"/></svg>