<svg id="Layer_1" viewBox="0 0 24 24" xmlns="http://www.w3.org/2000/svg" data-name="Layer 1"><path d="m23.833 11.187c-.307.595-.667 1.127-1.072 1.592l.496.762c.452.694.255 1.624-.439 2.076-.685.448-1.621.261-2.076-.439l-.418-.641c-.268.109-.543.199-.825.269v.695c0 .829-.671 1.5-1.5 1.5s-1.5-.671-1.5-1.5v-.695c-.282-.07-.557-.16-.825-.269l-.418.642c-.455.7-1.391.887-2.076.439-.694-.452-.891-1.381-.439-2.076l.496-.762c-.405-.465-.765-.996-1.072-1.591-.379-.736-.09-1.641.646-2.021.738-.38 1.641-.089 2.021.646.514.998 1.481 2.187 3.167 2.187s2.653-1.189 3.167-2.187c.379-.736 1.285-1.026 2.021-.646.736.379 1.026 1.284.646 2.021zm-12.646-2.021c-.736-.38-1.641-.089-2.021.646-.514.998-1.48 2.187-3.167 2.187s-2.652-1.189-3.167-2.187c-.379-.736-1.283-1.026-2.021-.646-.736.379-1.026 1.284-.646 2.021.307.595.668 1.126 1.072 1.591l-.496.762c-.452.694-.255 1.624.439 2.076.684.448 1.621.261 2.076-.439l.418-.642c.268.109.543.199.825.269v.695c0 .829.671 1.5 1.5 1.5s1.5-.671 1.5-1.5v-.695c.282-.07.557-.16.825-.269l.418.641c.455.7 1.391.887 2.076.439.694-.452.891-1.381.439-2.076l-.496-.762c.405-.465.765-.997 1.072-1.592.379-.737.09-1.641-.646-2.021z"/></svg>