<svg id="Layer_1" viewBox="0 0 24 24" xmlns="http://www.w3.org/2000/svg" data-name="Layer 1"><path d="m13 6.5c0-3.59-2.91-6.5-6.5-6.5s-6.5 2.91-6.5 6.5v4c0 1.381 1.119 2.5 2.5 2.5h4c3.59 0 6.5-2.91 6.5-6.5zm-8.5-.5c-.552 0-1-.448-1-1 0-.889.391-1.726 1.071-2.298s1.578-.811 2.464-.655c1.21.212 2.205 1.206 2.418 2.417.223 1.273-.382 2.545-1.506 3.165-.396.217-.715.552-.718.556-.197.208-.462.313-.729.313-.246 0-.491-.09-.684-.271-.401-.377-.424-1.006-.048-1.409.053-.058.542-.572 1.213-.941.29-.16.595-.535.502-1.067-.069-.391-.403-.724-.794-.793-.305-.055-.602.023-.832.217-.228.191-.358.47-.358.767 0 .552-.448 1-1 1zm1 4c0-.552.448-1 1-1s1 .448 1 1-.448 1-1 1-1-.448-1-1zm8.525 5.521v-.915c0-1.102.438-2.158 1.216-2.937l5.024-5.024c.913-.913 2.428-.857 3.267.169.729.892.573 2.22-.241 3.035l-4.935 4.935c-.779.779-1.835 1.216-2.937 1.216h-.915c-.265 0-.479-.215-.479-.479zm9.97 6.602c0 1.031-.838 1.871-1.867 1.871-.184 0-.366-.027-.542-.081-.048-.015-.096-.032-.142-.052l-4.443-1.863h-5.5c-3.033 0-5.5-2.468-5.5-5.5v.002c0-.828.671-1.5 1.5-1.5s1.5.672 1.5 1.5v-.002c0 1.379 1.122 2.502 2.5 2.502h5.802c.199 0 .396.038.58.115l3.117 1.306v-5.452l3-3s-.006 10.148-.005 10.154zm-9.019-15.622c0-.828.671-1.5 1.499-1.501h2c.193-.001.38.035.57.054-.071.062-.152.11-.218.177l-2.718 2.718c-.649-.164-1.132-.748-1.133-1.448z"/></svg>