<svg id="Layer_1" viewBox="0 0 24 24" xmlns="http://www.w3.org/2000/svg" data-name="Layer 1"><path d="m24 19.378v1.622c0 1.657-1.343 3-3 3h-1.04zm-19.5-7.378c.64 0 1.28-.244 1.768-.732.976-.976.976-2.559 0-3.536l-1-.978c-.427-.417-1.108-.417-1.535 0l-1 .978c-.976.976-.976 2.559 0 3.536.488.488 1.128.732 1.768.732zm2.937-7.329.583-.466c.972-.777 2.192-1.205 3.436-1.205h2.545v1.264c-2.398 1.145-4 3.608-4 6.319 0 .829.672 1.5 1.5 1.5s1.5-.671 1.5-1.5c0-1.529.892-2.917 2.23-3.583h3.491c.882.427 1.608 1.154 1.983 2.068.313.774 1.208 1.132 1.956.82.767-.314 1.134-1.19.819-1.957-.669-1.636-1.912-2.924-3.479-3.665v-.267c0-2.206-1.794-4-4-4h-4.545c-1.922 0-3.808.661-5.309 1.862l-.583.466c-.647.518-.752 1.461-.235 2.108.519.646 1.462.753 2.108.234zm15.296 7.342c-1.519-1.443-4.112-1.315-5.488.256l-2.446 2.688c-.647-.589-1.499-.958-2.441-.958h-7.857c-2.481 0-4.5 2.019-4.5 4.5v4c0 .828.672 1.5 1.5 1.5s1.5-.672 1.5-1.5v-4c0-.827.673-1.5 1.5-1.5h7.857c.354 0 .643.288.643.643 0 .317-.236.591-.551.635l-5.161.737c-.82.117-1.391.877-1.273 1.697.117.819.879 1.384 1.697 1.273l5.161-.737c1.612-.231 2.856-1.524 3.08-3.101l3.511-3.858c.316-.357.891-.388 1.248-.059.356.324.385.881.07 1.234l-5.44 6.03c-.556.615-.507 1.563.108 2.118.613.554 1.562.509 2.118-.108l5.446-6.037c1.41-1.58 1.283-4.027-.281-5.455z"/></svg>