<svg id="Layer_1" viewBox="0 0 24 24" xmlns="http://www.w3.org/2000/svg" data-name="Layer 1"><path d="m13.961 6.026c-.281.869-.997 1.974-2.818 1.974h-1.367c-.532 0-.9-.52-.736-1.026.281-.869.997-1.974 2.818-1.974h1.367c.532 0 .9.52.736 1.026zm10.095 12.713c.024.814-.401 1.571-1.111 1.975-.706.399-1.569.377-2.252-.059-.534-.341-1.141-.916-1.787-1.582-.043.766-.103 1.477-.183 2.026-.119.833-.692 1.519-1.495 1.785-.867.293-1.844.022-2.421-.691l-1.657-2.174c-1.225 1.424-3.347 3.269-6.485 3.937-.782.169-1.604-.113-2.13-.741-.954-1.111-.453-2.427.277-3.547.529-.921 1.188-2.066 1.188-3.168 0-1.598-.74-2.859-1.203-3.494-2.26-.048-2.837.447-2.797.994.038.529-.462.788-1 .207-2.155-2.325-.53-5.412 3.019-6.073.193-4.517 3.918-8.134 8.481-8.134 2.355-.058 4.133 1.168 6 1.5.398 0 1.036-.077 1.218-.147 1.423-.744 2.327-.142 2.648.153.681.625.821 1.632.377 2.695-.471 1.127-.743 2.029-.743 3.299 0 .229.21.905.395 1.5.567 1.828 1.518 4.887 1.661 9.739zm-3.108-1.871c-.277-3.306-.948-5.467-1.418-6.978-.307-.991-.529-1.706-.529-2.391 0-1.168.172-2.131.459-3.057-.484.054-.877.057-.959.057-2.022-.031-3.906-1.528-6-1.5-2.869 0-5.229 2.21-5.476 5.016l2.476 1.639c.555.463.632 1.287.172 1.844l-1.524 1.318c.464.985.852 2.23.852 3.682 0 1.521-.587 2.847-1.164 3.912 2.653-1.262 3.941-3.591 3.957-3.619.242-.448.696-.746 1.204-.785.499-.037 1.002.177 1.312.583l1.612 2.115c.054-1.04.079-2.212.079-3.206 0-.581.335-1.109.86-1.356.524-.249 1.146-.17 1.594.199.49.404 2.239 2.263 2.493 2.525z"/></svg>