<svg id="Layer_1" viewBox="0 0 24 24" xmlns="http://www.w3.org/2000/svg" data-name="Layer 1"><path d="m15.175 6.22-3.174 1.814-3.176-1.815 2.186-1.238c.611-.346 1.358-.346 1.969 0l2.195 1.24zm-7.175 4.278c0 .718.384 1.38 1.008 1.736l1.992 1.139v-3.693l-3-1.715zm5 2.892 1.971-1.094c.635-.353 1.029-1.022 1.029-1.749v-2.58l-3 1.715zm8.021-4.253c0 2.624-1.114 5.123-3.058 6.857-.889.687-.979 2.346-.942 3.938 0 2.243-1.804 4.068-4.021 4.068h-1.956c-2.218 0-4.022-1.825-4.022-4.068.017-1.774-.163-3.219-1.143-4.122-2.14-2.029-3.154-4.894-2.782-7.863.513-4.102 3.827-7.419 7.88-7.886 2.574-.297 5.052.489 6.981 2.209 1.947 1.736 3.063 4.239 3.063 6.867zm-6.994 9.863h-4.019c.012.31.015.623.014.932 0 .589.459 1.068 1.022 1.068h1.956c.563 0 1.021-.479 1.021-1.068 0 0 .004-.796.006-.932zm3.994-9.864c0-1.774-.751-3.461-2.06-4.628-1.105-.985-2.482-1.508-3.937-1.508-.233 0-.469.013-.705.041-2.696.311-4.903 2.53-5.247 5.278-.252 2.012.43 3.948 1.87 5.313.754.715 1.229 1.52 1.54 2.368h4.995c.284-.805.737-1.574 1.488-2.245 1.307-1.166 2.056-2.849 2.056-4.619z"/></svg>