<svg id="Layer_1" viewBox="0 0 24 24" xmlns="http://www.w3.org/2000/svg" data-name="Layer 1"><path d="m22.981 22.376c.068.826-.546 1.551-1.371 1.619-.814.07-1.553-.543-1.619-1.371-.081-.979-.732-1.824-1.66-2.152l-4.331-1.529v2.833c0 1.228-.996 2.224-2.224 2.224-.503 0-.99-.17-1.384-.483l-3.658-2.908c-.866-.722-.983-2.008-.261-2.874s2.008-.983 2.874-.261l1.64 1.334v-7.271c0-.958.883-1.705 1.884-1.449.682.175 1.129.839 1.129 1.543v4.134l5.33 1.881c2.04.721 3.473 2.578 3.651 4.732zm-4.481-22.376h-13c-3.033 0-5.5 2.468-5.5 5.5v7c0 1.999 1.086 3.843 2.835 4.812.711.398 1.635.147 2.039-.584.401-.725.14-1.638-.585-2.039-.795-.441-1.29-1.279-1.29-2.188v-7.001c0-1.379 1.122-2.5 2.5-2.5h13c1.379 0 2.5 1.121 2.5 2.5v7c0 .575-.189 1.115-.548 1.561-.519.646-.415 1.59.23 2.109.646.517 1.59.414 2.109-.23.779-.971 1.208-2.191 1.208-3.439v-7.001c0-3.032-2.468-5.5-5.5-5.5zm-1 5h-1c-.828 0-1.5.672-1.5 1.5s.672 1.5 1.5 1.5h1c.828 0 1.5-.672 1.5-1.5s-.672-1.5-1.5-1.5zm-11 8h1c.829 0 1.5-.672 1.5-1.5s-.671-1.5-1.5-1.5h-1c-.829 0-1.5.672-1.5 1.5s.671 1.5 1.5 1.5zm0-5c.828 0 1.5-.672 1.5-1.5s-.672-1.5-1.5-1.5-1.5.672-1.5 1.5.672 1.5 1.5 1.5zm6.5-1.5c0-.828-.672-1.5-1.5-1.5s-1.5.672-1.5 1.5.672 1.5 1.5 1.5 1.5-.672 1.5-1.5zm3 5c0 .828.672 1.5 1.5 1.5s1.5-.672 1.5-1.5-.672-1.5-1.5-1.5-1.5.672-1.5 1.5z"/></svg>