<svg id="Layer_1" viewBox="0 0 24 24" xmlns="http://www.w3.org/2000/svg" data-name="Layer 1"><path d="m10 11h4v.5c0 .828-.672 1.5-1.5 1.5h-1c-.828 0-1.5-.672-1.5-1.5zm.922-10.887c-1.956.408-3.507 2.033-3.846 4.001-.343 1.997.506 3.815 1.944 4.886h1.979v-2.277c-.432-.251-.763-.656-.913-1.141-.089-.29.138-.582.442-.582h2.943c.303 0 .531.292.442.582-.15.485-.481.89-.913 1.141v2.277h1.98c1.222-.91 2.02-2.358 2.02-4 0-3.113-2.846-5.562-6.078-4.887zm12.993 18.808c-.63-1.139-1.918-1.921-3.415-1.921s-2.784.782-3.415 1.921c-.273.494.146 1.079.753 1.079h5.323c.608 0 1.027-.585.753-1.079zm-20.415-1.921c-1.497 0-2.784.782-3.415 1.921-.273.494.146 1.079.753 1.079h5.323c.608 0 1.027-.585.753-1.079-.63-1.139-1.918-1.921-3.415-1.921zm8.5 4c-1.497 0-2.784.782-3.415 1.921-.273.494.146 1.079.753 1.079h5.323c.608 0 1.027-.585.753-1.079-.63-1.139-1.918-1.921-3.415-1.921zm8.5-5c1.105 0 2-.895 2-2s-.895-2-2-2-2 .895-2 2 .895 2 2 2zm-17 0c1.105 0 2-.895 2-2s-.895-2-2-2-2 .895-2 2 .895 2 2 2zm8.5 0c-1.105 0-2 .895-2 2s.895 2 2 2 2-.895 2-2-.895-2-2-2zm8-11.833c.157 0 .317-.024.475-.077l1-.334c.786-.263 1.21-1.112.948-1.898-.263-.785-1.109-1.209-1.898-.947l-1 .334c-.786.263-1.21 1.112-.948 1.898.21.628.795 1.024 1.423 1.024zm-.475 4.589 1 .334c.765.261 1.637-.154 1.898-.947.262-.786-.162-1.636-.948-1.898l-1-.334c-.789-.266-1.636.162-1.898.947-.262.786.162 1.636.948 1.898zm-17-5 1 .334c.765.261 1.637-.154 1.898-.947.262-.786-.162-1.636-.948-1.898l-1-.334c-.79-.264-1.635.161-1.898.947-.262.786.162 1.636.948 1.898zm.475 5.411c.157 0 .317-.024.475-.077l1-.334c.786-.263 1.21-1.112.948-1.898-.263-.785-1.109-1.211-1.898-.947l-1 .334c-.786.263-1.21 1.112-.948 1.898.21.628.795 1.024 1.423 1.024z"/></svg>