<svg id="Layer_1" viewBox="0 0 24 24" xmlns="http://www.w3.org/2000/svg" data-name="Layer 1"><path d="m5.5 13c-3.038 0-5.5 2.462-5.5 5.5s2.462 5.5 5.5 5.5 5.5-2.462 5.5-5.5-2.462-5.5-5.5-5.5zm1.7 3.6h-.95v4.601c0 .442-.358.8-.8.8s-.8-.358-.8-.8v-4.601h-.851c-.442 0-.8-.358-.8-.8s.358-.8.8-.8h3.4c.442 0 .8.358.8.8s-.358.8-.8.8zm11.3-3.6c-3.038 0-5.5 2.462-5.5 5.5s2.462 5.5 5.5 5.5 5.5-2.462 5.5-5.5-2.462-5.5-5.5-5.5zm1.2 4.9c.442 0 .8.358.8.8s-.358.8-.8.8h-1.601v1.7c0 .442-.358.8-.8.8s-.8-.358-.8-.8v-5.4c0-.442.358-.8.8-.8h2.4c.442 0 .8.358.8.8s-.358.8-.8.8h-1.601v1.301h1.601zm-12.7-12.9c0-1.481.651-2.877 1.786-3.83 1.134-.953 2.634-1.349 4.108-1.092 2.018.354 3.674 2.011 4.028 4.028.372 2.122-.637 4.241-2.511 5.274-.276.156-.863.443-.994.597-.201.638-.783 1.038-1.416 1.038-.151 0-.306-.023-.458-.071-.79-.249-1.222-1.104-.973-1.895.44-1.341 1.483-1.791 2.394-2.296.763-.42 1.157-1.256 1.003-2.128-.138-.785-.807-1.454-1.592-1.592-.609-.109-1.199.047-1.66.434-.455.382-.715.94-.715 1.533 0 .829-.671 1.5-1.5 1.5s-1.5-.671-1.5-1.5zm5 10c-.828 0-1.5-.672-1.5-1.5s.672-1.5 1.5-1.5 1.5.672 1.5 1.5-.672 1.5-1.5 1.5z"/></svg>