<svg id="Layer_1" viewBox="0 0 24 24" xmlns="http://www.w3.org/2000/svg" data-name="Layer 1"><path d="m12 0c-6.617 0-12 5.383-12 12v6.109c0 2.078 1.192 4.01 3.037 4.921 1.303.644 2.637.97 3.963.97 1.419 0 2.777-.606 3.725-1.664.254-.304.491-.61.684-.957.105-.23.338-.379.591-.379s.486.149.591.379c.193.346.43.653.684.957.947 1.058 2.305 1.664 3.725 1.664 1.327 0 2.66-.326 3.963-.97 1.845-.911 3.037-2.843 3.037-4.921v-6.109c0-6.617-5.383-12-12-12zm-3.51 20.334c-.379.423-.922.666-1.49.666-.862 0-1.741-.291-2.635-.66-.71-.351-1.205-1.043-1.333-1.829.705-.54 2.236-1.472 3.796-1.505 1.098 0 2.048.76 2.158 1.761.064.581-.112 1.138-.497 1.567zm11.145.006c-.894.369-1.772.66-2.635.66-.568 0-1.111-.243-1.49-.666-.384-.429-.561-.986-.497-1.567.11-1.001 1.06-1.761 2.158-1.761 1.56.033 3.092.965 3.796 1.505-.128.786-.623 1.479-1.333 1.829zm1.365-5.325c-.956-.48-2.128-.897-3.428-.994-1.852-.136-3.562.72-4.588 2.087-.161.137-.298.308-.392.513-.105.23-.338.379-.591.379s-.486-.149-.591-.379c-.094-.205-.231-.376-.392-.513-1.026-1.367-2.736-2.223-4.588-2.087-1.3.097-2.473.514-3.428.994v-3.015c-.002-4.962 4.036-9 8.998-9s9 4.038 9 9z"/></svg>