<svg id="Layer_1" viewBox="0 0 24 24" xmlns="http://www.w3.org/2000/svg" data-name="Layer 1"><path d="m12.5 1.5v2c0 .829-.671 1.5-1.5 1.5-3.86 0-7 3.14-7 7s3.14 7 7 7c.829 0 1.5.671 1.5 1.5v2c0 .829-.671 1.5-1.5 1.5s-1.5-.671-1.5-1.5v-.625c-2.527-.383-4.746-1.705-6.282-3.609l-.538.313c-.704.413-1.632.181-2.051-.542-.417-.716-.174-1.634.542-2.051l.537-.313c-.452-1.139-.708-2.376-.708-3.673s.256-2.535.708-3.673l-.537-.313c-.716-.417-.958-1.335-.542-2.051s1.334-.959 2.051-.542l.538.313c1.536-1.904 3.756-3.227 6.282-3.609v-.625c0-.829.671-1.5 1.5-1.5s1.5.671 1.5 1.5zm-1.5 9.5c.829 0 1.5-.671 1.5-1.5s-.671-1.5-1.5-1.5c-2.206 0-4 1.794-4 4s1.794 4 4 4c.829 0 1.5-.671 1.5-1.5s-.671-1.5-1.5-1.5c-.551 0-1-.449-1-1s.449-1 1-1zm4.5 0h3c1.93 0 3.5-1.57 3.5-3.5v-2.011c.604-.456 1-1.173 1-1.989 0-1.381-1.119-2.5-2.5-2.5s-2.5 1.119-2.5 2.5c0 .815.396 1.532 1 1.989v2.011c0 .276-.225.5-.5.5h-3c-.828 0-1.5.671-1.5 1.5s.672 1.5 1.5 1.5zm6.5 7.511v-2.011c0-1.93-1.57-3.5-3.5-3.5h-3c-.828 0-1.5.671-1.5 1.5s.672 1.5 1.5 1.5h3c.275 0 .5.224.5.5v2.011c-.604.456-1 1.173-1 1.989 0 1.381 1.119 2.5 2.5 2.5s2.5-1.119 2.5-2.5c0-.815-.396-1.532-1-1.989z"/></svg>