<svg id="Layer_1" viewBox="0 0 24 24" xmlns="http://www.w3.org/2000/svg" data-name="Layer 1"><path d="m18 12c-3.314 0-6 2.686-6 6s2.686 6 6 6 6-2.686 6-6-2.686-6-6-6zm2.707 7.293c.391.391.391 1.023 0 1.414s-1.023.391-1.414 0l-1.293-1.293-1.293 1.293c-.391.391-1.023.391-1.414 0s-.391-1.023 0-1.414l1.293-1.293-1.293-1.293c-.391-.391-.391-1.023 0-1.414s1.023-.391 1.414 0l1.293 1.293 1.293-1.293c.391-.391 1.023-.391 1.414 0s.391 1.023 0 1.414l-1.293 1.293zm-9.707-7.917c0-.307-.219-.565-.522-.616l-3.285-.547c-1.271-.212-2.193-1.301-2.193-2.589 0-1.447 1.177-2.624 2.624-2.624h.376c0-.553.448-1 1-1s1 .447 1 1h.247c1.106 0 2.114.582 2.629 1.518.267.484.09 1.092-.394 1.358-.482.267-1.092.091-1.358-.394-.167-.302-.494-.482-.877-.482h-2.623c-.344 0-.624.28-.624.624 0 .307.219.565.522.616l3.285.547c1.271.212 2.193 1.301 2.193 2.589 0 1.447-1.177 2.624-2.624 2.624h-.376c0 .553-.448 1-1 1s-1-.447-1-1h-.278c-1.048 0-2.038-.571-2.582-1.49-.282-.476-.125-1.089.351-1.37s1.089-.125 1.37.351c.186.314.516.51.861.51h2.654c.344 0 .624-.28.624-.624zm-.7 11.861c-.411.719-1.326.969-2.047.559l-2.8-1.6-3.281 1.642c-.212.105-.442.158-.672.158-.999 0-1.517-.694-1.5-1.5v-17.496c0-2.754 2.241-4.997 4.995-5h8.158c1.297 0 2.515.505 3.43 1.422.914.916 1.418 2.134 1.417 3.43v3.648c0 .829-.673 1.5-1.501 1.5s-1.499-.672-1.499-1.5v-3.649c0-.495-.192-.96-.541-1.31-.348-.349-.812-.541-1.306-.541h-8.157c-1.099 0-1.996.898-1.996 2v15.068l1.829-.915c.451-.224.981-.208 1.416.039l3.497 1.998c.719.411.969 1.328.558 2.047z"/></svg>