<svg id="Layer_1" viewBox="0 0 24 24" xmlns="http://www.w3.org/2000/svg" data-name="Layer 1"><path d="m19 11c1.381 0 2.5 1.119 2.5 2.5s-1.119 2.5-2.5 2.5-2.5-1.119-2.5-2.5 1.119-2.5 2.5-2.5zm0 6c-1.899 0-3.534 1.076-4.38 2.639-.784-.407-1.676-.639-2.62-.639s-1.836.233-2.62.639c-.846-1.563-2.482-2.639-4.38-2.639-2.757 0-5 2.243-5 5v.5c0 .828.671 1.5 1.5 1.5s1.5-.672 1.5-1.5v-.5c0-1.103.897-2 2-2s2 .897 2 2v.5c0 .783.658 1.482 1.447 1.495.566.028 1.11-.303 1.38-.796.383-.729 1.235-1.198 2.172-1.198s1.79.47 2.172 1.197c.264.482.78.803 1.335.802.806.005 1.494-.697 1.494-1.499v-.5c0-1.103.897-2 2-2s2 .897 2 2v.5c0 .828.672 1.5 1.5 1.5s1.5-.672 1.5-1.5v-.5c0-2.757-2.243-5-5-5zm-14-1c1.381 0 2.5-1.119 2.5-2.5s-1.119-2.5-2.5-2.5-2.5 1.119-2.5 2.5 1.119 2.5 2.5 2.5zm4.5-.5c0 1.381 1.119 2.5 2.5 2.5s2.5-1.119 2.5-2.5-1.119-2.5-2.5-2.5-2.5 1.119-2.5 2.5zm-2.144-8.533.228-.133c-.11-.539-.11-1.13 0-1.668l-.228-.133c-.716-.417-.958-1.335-.542-2.051s1.334-.959 2.051-.542l.242.141c.41-.347.877-.621 1.392-.805v-.276c0-.829.671-1.5 1.5-1.5s1.5.671 1.5 1.5v.276c.516.184.983.458 1.393.805l.243-.141c.714-.416 1.634-.174 2.051.542.416.716.174 1.634-.543 2.051l-.228.133c.11.539.11 1.13 0 1.668l.228.133c.717.417.959 1.334.543 2.051-.419.722-1.348.956-2.051.542l-.243-.141c-.41.347-.877.621-1.393.805v.276c0 .829-.671 1.5-1.5 1.5s-1.5-.671-1.5-1.5v-.276c-.516-.184-.982-.458-1.392-.805l-.242.141c-.704.413-1.632.181-2.051-.542-.417-.716-.174-1.634.542-2.051zm4.644-2.467c-.827 0-1.5.673-1.5 1.5s.673 1.5 1.5 1.5 1.5-.673 1.5-1.5-.673-1.5-1.5-1.5z"/></svg>