<svg id="Layer_1" viewBox="0 0 24 24" xmlns="http://www.w3.org/2000/svg" data-name="Layer 1"><path d="m14.016 9.085v-.579c0-1.376 1.12-2.496 2.496-2.496h.558c-.554-1.445-1.058-2.926-1.058-3.545.001-1.379 1.118-2.446 2.497-2.446s2.496 1.067 2.496 2.446c0 .619-.503 2.1-1.058 3.545h.558c1.376 0 2.496 1.12 2.496 2.496v.591c.58.206.998.755.998 1.406 0 .827-.67 1.498-1.498 1.498h-8.026c-.827 0-1.498-.67-1.498-1.498 0-.665.437-1.223 1.037-1.418zm9.945 10.403v.499c0 2.202-1.792 3.994-3.994 3.994h-10.982c-2.202 0-3.994-1.792-3.994-3.994v-11.981h-1.498c-1.925 0-3.493-1.567-3.493-3.494v-.499c-.008-2.225 1.997-3.994 3.994-3.994h8.486c.827 0 1.498.67 1.498 1.498s-.67 1.498-1.498 1.498h-4.635c.083.321.142.652.142.998v15.974c0 .55.448.998.998.998s.998-.448.998-.998v-.499c0-1.927 1.568-3.494 3.494-3.494h3.494v-.499c0-.827.67-1.498 1.498-1.498s1.498.67 1.498 1.498v.499h.499c1.927 0 3.494 1.568 3.494 3.494zm-18.969-15.475c0-.55-.448-.998-.998-.998s-.998.448-.998.998v.499c0 .275.224.499.499.499h1.498v-.998zm15.974 15.475c0-.275-.224-.499-.499-.499h-6.989c-.275 0-.499.224-.499.499v.499c0 .345-.044.679-.126.998h7.115c.55 0 .998-.448.998-.998z"/></svg>