<svg id="Layer_1" viewBox="0 0 24 24" xmlns="http://www.w3.org/2000/svg" data-name="Layer 1"><path d="m8 12c3.309 0 6-2.691 6-6s-2.691-6-6-6-6 2.691-6 6 2.691 6 6 6zm0-9c1.654 0 3 1.346 3 3s-1.346 3-3 3-3-1.346-3-3 1.346-3 3-3zm13 7h-6c-1.657 0-3 1.343-3 3v8c0 1.657 1.343 3 3 3h6c1.657 0 3-1.343 3-3v-8c0-1.657-1.343-3-3-3zm-5.5 11c-.828 0-1.5-.672-1.5-1.5s.672-1.5 1.5-1.5 1.5.672 1.5 1.5-.672 1.5-1.5 1.5zm5 0c-.828 0-1.5-.672-1.5-1.5s.672-1.5 1.5-1.5 1.5.672 1.5 1.5-.672 1.5-1.5 1.5zm0-5h-5c-.828 0-1.5-.672-1.5-1.5s.672-1.5 1.5-1.5h5c.828 0 1.5.672 1.5 1.5s-.672 1.5-1.5 1.5zm-10.509 6.695c.183.666-.405 1.305-1.201 1.305h-1.532c-.796 0-1.383-.639-1.201-1.305l1.093-3.99-.912-1.368c-1.887.716-3.238 2.529-3.238 4.663v.5c0 .828-.672 1.5-1.5 1.5s-1.5-.672-1.5-1.5v-.5c0-4.411 3.589-8 8-8 .169 0 .333.023.5 0 .84-.005 1.486.699 1.5 1.5v1c.021.278-.002.565-.181.823l-.922 1.382 1.093 3.99z"/></svg>