<svg id="Layer_1" viewBox="0 0 24 24" xmlns="http://www.w3.org/2000/svg" data-name="Layer 1"><path d="m22.5 18c.828 0 1.5-.672 1.5-1.5s-.672-1.5-1.5-1.5h-1.5v-9.5c0-3.033-2.468-5.5-5.5-5.5h-7c-3.032 0-5.5 2.467-5.5 5.5v9.5h-1.5c-.828 0-1.5.672-1.5 1.5s.672 1.5 1.5 1.5h6.5v1.5c0 .275-.225.5-.5.5h-2.011c-.456-.604-1.173-1-1.989-1-1.381 0-2.5 1.119-2.5 2.5s1.119 2.5 2.5 2.5c.815 0 1.532-.396 1.989-1h2.011c1.93 0 3.5-1.57 3.5-3.5v-1.5h2v1.5c0 1.93 1.57 3.5 3.5 3.5h2.011c.456.604 1.173 1 1.989 1 1.381 0 2.5-1.119 2.5-2.5s-1.119-2.5-2.5-2.5c-.815 0-1.532.396-1.989 1h-2.011c-.275 0-.5-.225-.5-.5v-1.5zm-16.5-12.5c0-1.378 1.121-2.5 2.5-2.5h7c1.379 0 2.5 1.122 2.5 2.5v9.5h-12zm3.5 7.5c-.828 0-1.5-.672-1.5-1.5s.672-1.5 1.5-1.5 1.5.672 1.5 1.5-.672 1.5-1.5 1.5zm3.5-1.5c0-.828.672-1.5 1.5-1.5s1.5.672 1.5 1.5-.672 1.5-1.5 1.5-1.5-.672-1.5-1.5zm-5-5c0-.828.672-1.5 1.5-1.5s1.5.672 1.5 1.5-.672 1.5-1.5 1.5-1.5-.672-1.5-1.5zm5 0c0-.828.672-1.5 1.5-1.5s1.5.672 1.5 1.5-.672 1.5-1.5 1.5-1.5-.672-1.5-1.5z"/></svg>