<svg id="Layer_1" viewBox="0 0 24 24" xmlns="http://www.w3.org/2000/svg" data-name="Layer 1"><path d="m18.901 5.407c-.522-3.064-3.19-5.407-6.401-5.407h-1c-3.211 0-5.878 2.343-6.401 5.407-3.195 2.251-5.099 5.852-5.099 9.79v7.303c0 .828.672 1.5 1.5 1.5s1.5-.672 1.5-1.5v-7.303c0-2.098.728-4.065 2-5.64v5.942c0 3.584 2.916 6.5 6.5 6.5h1c3.584 0 6.5-2.916 6.5-6.5v-5.942c1.272 1.575 2 3.541 2 5.64v7.303c0 .828.672 1.5 1.5 1.5s1.5-.672 1.5-1.5v-7.303c0-3.938-1.904-7.539-5.099-9.79zm-2.901 10.093c0 1.93-1.57 3.5-3.5 3.5h-1c-1.93 0-3.5-1.57-3.5-3.5v-9c0-1.93 1.57-3.5 3.5-3.5h1c1.93 0 3.5 1.57 3.5 3.5zm-1-1c0 .256-.156.486-.393.58l-1.09.436-.436 1.09c-.095.237-.325.393-.58.393s-.486-.156-.58-.393l-.439-1.097-1.099-.463c-.236-.099-.387-.332-.382-.587s.165-.482.404-.573l1.082-.41.433-1.084c.095-.237.325-.393.58-.393s.486.156.58.393l.436 1.09 1.09.436c.237.095.393.325.393.58zm-4.315-7.192-.879-.37c-.188-.079-.31-.265-.306-.47.004-.204.132-.386.323-.458l.866-.328.347-.867c.076-.19.26-.314.464-.314s.388.125.464.314l.349.872.872.349c.19.076.314.26.314.464s-.125.388-.314.464l-.872.349-.349.872c-.076.19-.26.314-.464.314s-.388-.125-.464-.314z"/></svg>