<svg id="Layer_1" viewBox="0 0 24 24" xmlns="http://www.w3.org/2000/svg" data-name="Layer 1"><path d="m8.6 9.6v1.801h1.601c.442 0 .8.358.8.8s-.358.8-.8.8h-1.601v2.2c0 .442-.358.8-.8.8s-.8-.358-.8-.8v-6.2c0-.552.448-1 1-1h2.2c.442 0 .8.358.8.8s-.358.8-.8.8h-1.601zm7.333 2.944c.024-.014.753 2.423.753 2.423.156.514-.228 1.033-.765 1.033h-.064c-.356 0-.669-.235-.768-.576l-.705-2.424h-.784v2.2c0 .442-.358.8-.8.8-.442 0-.8-.358-.8-.8v-6.2c0-.552.448-1 1-1h1.367c1.284 0 2.456.908 2.613 2.182.121.976-.324 1.854-1.047 2.362zm-.533-2.044c0-.496-.404-.9-.9-.9h-.9v1.8h.9c.496 0 .9-.404.9-.9zm8.6-2v7c0 3.032-2.467 5.5-5.5 5.5h-13c-3.033 0-5.5-2.468-5.5-5.5v-7c0-3.032 2.467-5.5 5.5-5.5h13c3.033 0 5.5 2.468 5.5 5.5zm-3 0c0-1.379-1.122-2.5-2.5-2.5h-13c-1.378 0-2.5 1.121-2.5 2.5v7c0 1.379 1.122 2.5 2.5 2.5h13c1.378 0 2.5-1.121 2.5-2.5z"/></svg>