<svg id="Layer_1" viewBox="0 0 24 24" xmlns="http://www.w3.org/2000/svg" data-name="Layer 1"><path d="m22.5 13h-.5v-2h.5c.829 0 1.5-.672 1.5-1.5s-.671-1.5-1.5-1.5h-.5v-.5c0-3.032-2.467-5.5-5.5-5.5h-.5v-.5c0-.828-.671-1.5-1.5-1.5s-1.5.672-1.5 1.5v.5h-2v-.5c0-.828-.671-1.5-1.5-1.5s-1.5.672-1.5 1.5v.5h-.5c-3.033 0-5.5 2.468-5.5 5.5v.5h-.5c-.829 0-1.5.672-1.5 1.5s.671 1.5 1.5 1.5h.5v2h-.5c-.829 0-1.5.672-1.5 1.5s.671 1.5 1.5 1.5h.5v.5c0 3.032 2.467 5.5 5.5 5.5h.5v.5c0 .828.671 1.5 1.5 1.5s1.5-.672 1.5-1.5v-.5h2v.5c0 .828.671 1.5 1.5 1.5s1.5-.672 1.5-1.5v-.5h.5c3.033 0 5.5-2.468 5.5-5.5v-.5h.5c.829 0 1.5-.672 1.5-1.5s-.671-1.5-1.5-1.5zm-3.5 3.5c0 1.379-1.122 2.5-2.5 2.5h-.5v-.5c0-.828-.671-1.5-1.5-1.5s-1.5.672-1.5 1.5v.5h-2v-.5c0-.828-.671-1.5-1.5-1.5s-1.5.672-1.5 1.5v.5h-.5c-1.378 0-2.5-1.121-2.5-2.5v-.5h.5c.829 0 1.5-.672 1.5-1.5s-.671-1.5-1.5-1.5h-.5v-2h.5c.829 0 1.5-.672 1.5-1.5s-.671-1.5-1.5-1.5h-.5v-.5c0-1.379 1.122-2.5 2.5-2.5h.5v.5c0 .828.671 1.5 1.5 1.5s1.5-.672 1.5-1.5v-.5h2v.5c0 .828.671 1.5 1.5 1.5s1.5-.672 1.5-1.5v-.5h.5c1.378 0 2.5 1.121 2.5 2.5v.5h-.5c-.829 0-1.5.672-1.5 1.5s.671 1.5 1.5 1.5h.5v2h-.5c-.829 0-1.5.672-1.5 1.5s.671 1.5 1.5 1.5h.5z"/></svg>