<svg id="Layer_1" viewBox="0 0 24 24" xmlns="http://www.w3.org/2000/svg" data-name="Layer 1"><path d="m13.5 16.5v-.589c.414-.159.789-.387 1.128-.662l.518.299c.236.137.495.201.749.201.518 0 1.022-.269 1.3-.75.415-.717.169-1.635-.548-2.049l-.513-.297c.034-.215.066-.43.066-.655s-.032-.44-.066-.655l.513-.296c.717-.414.963-1.332.549-2.049-.414-.718-1.33-.963-2.049-.549l-.519.299c-.339-.275-.714-.502-1.128-.662v-.589c0-.829-.671-1.5-1.5-1.5s-1.5.671-1.5 1.5v.589c-.414.159-.789.387-1.128.662l-.519-.299c-.718-.415-1.635-.167-2.049.549-.415.717-.168 1.635.549 2.049l.513.296c-.034.215-.066.431-.066.655s.032.44.066.655l-.513.297c-.717.414-.963 1.332-.548 2.049.278.481.782.75 1.3.75.254 0 .513-.064.749-.201l.518-.299c.339.275.714.502 1.128.662v.589c0 .828.671 1.5 1.5 1.5s1.5-.672 1.5-1.5zm-1.5-3.3c-.662 0-1.2-.539-1.2-1.2s.539-1.2 1.2-1.2 1.2.539 1.2 1.2-.539 1.2-1.2 1.2zm-9.972 4.8c-.524 0-1.034-.275-1.309-.765-.47-.836-.719-1.774-.719-2.713 0-1.692.724-3.347 1.938-4.425.057-.051.106-.209.09-.414-.09-1.132.046-2.256.405-3.34 1.228-3.709 4.725-6.317 8.504-6.343h.064c3.438 0 6.519 1.91 8.054 4.998.153.307.421.486.619.583 2.669 1.304 4.327 3.955 4.327 6.919 0 1.919-.801 3.775-2.196 5.091-.603.569-1.553.541-2.121-.062s-.541-1.552.062-2.12c.809-.764 1.255-1.797 1.255-2.909 0-1.809-1.013-3.427-2.643-4.223-.883-.431-1.571-1.103-1.989-1.943-1.03-2.073-3.084-3.312-5.411-3.333-2.513.018-4.848 1.78-5.678 4.286-.235.711-.321 1.418-.262 2.158.092 1.145-.304 2.2-1.087 2.896-.565.502-.931 1.36-.931 2.183 0 .425.115.854.334 1.242.406.722.15 1.637-.572 2.043-.232.131-.485.192-.734.192zm8.972 1.5c0 1.93-1.57 3.5-3.5 3.5h-2.011c-.456.604-1.173 1-1.989 1-1.381 0-2.5-1.119-2.5-2.5s1.119-2.5 2.5-2.5c.815 0 1.532.396 1.989 1h2.011c.276 0 .5-.225.5-.5 0-.828.671-1.5 1.5-1.5s1.5.672 1.5 1.5zm12 2c0 1.381-1.119 2.5-2.5 2.5-.815 0-1.532-.396-1.989-1h-2.011c-1.93 0-3.5-1.57-3.5-3.5 0-.828.671-1.5 1.5-1.5s1.5.672 1.5 1.5c0 .275.224.5.5.5h2.011c.456-.604 1.173-1 1.989-1 1.381 0 2.5 1.119 2.5 2.5z"/></svg>