<svg id="Layer_1" viewBox="0 0 24 24" xmlns="http://www.w3.org/2000/svg" data-name="Layer 1"><path d="m24 14.5c0-.67-.441-1.23-1.047-1.423-.425-5.086-4.322-9.188-9.31-9.94.224-.323.357-.714.357-1.136 0-1.105-.895-2.001-2-2.001s-2 .895-2 2c0 .423.133.813.357 1.136-4.988.753-8.885 4.855-9.31 9.941-.605.193-1.047.753-1.047 1.423 0 .829.671 1.5 1.5 1.5h2.49c-.825.972-1.445 2.135-1.771 3.438l-.674 2.698c-.201.804.288 1.618 1.091 1.819.783.203 1.621-.282 1.819-1.091l.674-2.698c.614-2.453 2.808-4.166 5.336-4.166h1.836c.385 0 .698.313.698.698 0 .332-.236.619-.561.685l-3.233.646c-.812.162-1.339.953-1.177 1.765s.95 1.342 1.765 1.177l3.233-.646c.762-.152 1.421-.544 1.931-1.076.032-.024 3.369-2.988 3.369-2.988.396-.359 1.053-.328 1.413.068.367.383.336 1.06-.059 1.404l-4.084 3.649c-.618.552-.671 1.5-.119 2.118.554.619 1.503.669 2.118.119l4.093-3.658c1.148-1.042 1.532-2.601 1.154-4.004.663-.155 1.157-.747 1.157-1.457zm-19.931-1.5c.495-3.94 3.859-7 7.931-7s7.436 3.06 7.931 7z"/></svg>