<svg id="Layer_1" viewBox="0 0 24 24" xmlns="http://www.w3.org/2000/svg" data-name="Layer 1"><path d="m14.788 7.991.36 1.009h-8.296l.36-1.009c.426-1.194 1.557-1.991 2.825-1.991h1.926c1.268 0 2.399.797 2.825 1.991zm-8.788 4.509c0 .652.419 1.202 1 1.408v.842c0 .69.56 1.25 1.25 1.25s1.25-.56 1.25-1.25v-.75h3v.75c0 .69.56 1.25 1.25 1.25s1.25-.56 1.25-1.25v-.842c.581-.207 1-.756 1-1.408 0-.579-.072-.937-.201-1.5h-9.598c-.129.563-.201.921-.201 1.5zm16.75-12.5c-.69 0-1.25.56-1.25 1.25v.75h-2v-.75c0-.69-.56-1.25-1.25-1.25s-1.25.56-1.25 1.25v2.25c0 1.394.821 2.587 2 3.15v4.357c.011 2.164-.822 4.199-2.303 5.688l-3.797 3.525c-1.021 1.005-2.748 1.034-3.832-.029l-3.723-3.455c-3.124-3.138-3.124-8.245 0-11.383 1.511-1.518 3.519-2.354 5.654-2.354.711 0 1.42.095 2.104.282.802.216 1.624-.253 1.843-1.052.218-.799-.253-1.624-1.052-1.842-.943-.257-1.917-.388-2.896-.388-2.939 0-5.703 1.15-7.781 3.238-4.284 4.305-4.284 11.31.043 15.656l3.734 3.466c1.076 1.057 2.498 1.64 4.004 1.64s2.928-.583 3.973-1.61l3.809-3.537c2.09-2.101 3.232-4.892 3.219-7.853v-4.349c1.179-.563 2-1.756 2-3.15v-2.25c0-.69-.56-1.25-1.25-1.25z"/></svg>