<svg id="Layer_1" viewBox="0 0 24 24" xmlns="http://www.w3.org/2000/svg" data-name="Layer 1"><path d="m23 19.511v-1.011c0-1.93-1.57-3.5-3.5-3.5h-1.5v-1.428c0-1.077-.69-2.033-1.713-2.372l-2.987-.99c-.844-.28-1.757-.28-2.601 0l-2.988.99c-1.022.339-1.712 1.294-1.712 2.371v1.43h-1.5c-1.93 0-3.5 1.57-3.5 3.5v1.011c-.604.456-1 1.173-1 1.989 0 1.381 1.119 2.5 2.5 2.5s2.5-1.119 2.5-2.5c0-.815-.396-1.532-1-1.989v-1.011c0-.275.225-.5.5-.5h1.55c.357 3.114 2.754 4.681 4.603 5.66.422.223.884.34 1.347.34.5 0 .891-.096 1.304-.297 1.901-.928 4.296-2.538 4.647-5.703h1.548c.275 0 .5.225.5.5v1.011c-.604.456-1 1.173-1 1.989 0 1.381 1.119 2.5 2.5 2.5s2.5-1.119 2.5-2.5c0-.815-.396-1.532-1-1.989zm-7.722-1.077c-.153 1.08-1.108 1.865-2.199 1.865h-.28v.4c0 .442-.358.8-.8.8s-.8-.358-.8-.8v-.4h-.431c-.711 0-1.348-.325-1.77-.833-.418-.504-.063-1.266.592-1.266.227 0 .51.107.664.274.128.139.312.226.515.226h2.334c.278 0 .532-.187.586-.46.063-.318-.146-.615-.451-.677l-2.791-.559c-1.112-.223-1.888-1.281-1.725-2.439.152-1.08 1.108-1.866 2.199-1.866h.28v-.4c0-.442.358-.8.8-.8s.8.358.8.8v.4h.405c.711 0 1.348.324 1.77.833.418.504.063 1.266-.592 1.266-.227 0-.51-.107-.664-.274-.128-.139-.312-.226-.515-.226h-2.307c-.278 0-.532.186-.587.458-.064.318.146.617.449.678l2.792.559c1.112.222 1.889 1.282 1.725 2.439zm-15.157-9.284c1.295-4.381 5.482-7.547 10.445-8.066.181-.624.751-1.084 1.434-1.084s1.253.459 1.434 1.084c4.963.519 9.15 3.685 10.445 8.067.438 1.482-.372 3.084-1.845 3.646-.773.298-1.641-.093-1.936-.867-.295-.773.093-1.641.867-1.936.024-.01.036-.026.038-.03-.756-2.526-2.902-4.509-5.639-5.418.416.734.815 1.564 1.117 2.491.257.787-.173 1.634-.961 1.891-.766.256-1.636-.166-1.891-.961-.414-1.267-1.071-2.354-1.632-3.128-.559.773-1.216 1.858-1.63 3.128-.256.789-1.104 1.222-1.891.961-.788-.257-1.218-1.104-.961-1.891.302-.926.7-1.756 1.116-2.489-2.736.911-4.882 2.902-5.636 5.454.774.295 1.181 1.158.886 1.933-.295.783-1.166 1.157-1.918.863-1.47-.564-2.28-2.165-1.842-3.648z"/></svg>