<svg id="Layer_1" viewBox="0 0 24 24" xmlns="http://www.w3.org/2000/svg" data-name="Layer 1"><path d="m8 11c1.39 0 2.566.878 2.966 2.089.149.451-.218.911-.709.911h-4.514c-.491 0-.858-.46-.709-.911.4-1.212 1.577-2.089 2.966-2.089zm2-3c0-1.105-.895-2-2-2s-2 .895-2 2 .895 2 2 2 2-.895 2-2zm14-5v2.999c0 1.657-1.344 3-3 3h-2.872l-2.454 1.69c-.186.119-.387.173-.583.173-.566 0-1.089-.45-1.089-1.088l-.002-6.772c0-1.65 1.349-3 2.999-3.001h3.999c1.657-.002 3.002 1.341 3.002 2.999zm-3 0h-4v3h4zm-5 11.5v4.5c0 2.761-2.239 5-5 5h-6c-2.761 0-5-2.239-5-5v-13.5c0-3.032 2.467-5.5 5.5-5.5h5c.829 0 1.5.672 1.5 1.5s-.671 1.5-1.5 1.5h-5c-1.378 0-2.5 1.121-2.5 2.5v12.5h10v-3.5c0-.828.671-1.5 1.5-1.5s1.5.672 1.5 1.5zm-6 6.5c0-.552-.448-1-1-1h-2c-.552 0-1 .448-1 1s.448 1 1 1h2c.552 0 1-.448 1-1z"/></svg>