<svg id="Layer_1" viewBox="0 0 24 24" xmlns="http://www.w3.org/2000/svg" data-name="Layer 1"><path d="m15.6 17.6v1.65h1.101c.442 0 .8.358.8.8s-.358.8-.8.8h-1.101v1.551h1.101c.442 0 .8.358.8.8s-.358.8-.8.8h-1.9c-.442 0-.8-.358-.8-.8v-6.4c0-.442.358-.8.8-.8h1.9c.442 0 .8.358.8.8s-.358.8-.8.8h-1.101zm7.578 2.206c.595.523.938 1.326.786 2.212-.2 1.169-1.288 1.982-2.474 1.982h-1.49c-.552 0-1-.448-1-1v-6.038c0-.552.448-1 1-1h1.104c1.347 0 2.596 1.1 2.569 2.447-.011.526-.197 1.006-.495 1.397zm-2.578-.645h.674c.442 0 .8-.358.8-.8s-.358-.8-.8-.8h-.674v1.599zm1.801 2.44c0-.442-.358-.8-.8-.8h-1.001v1.599h1.001c.442 0 .8-.358.8-.8zm-10.2-4.001c.442 0 .8-.358.8-.8s-.358-.8-.8-.8h-2.4c-.442 0-.8.358-.8.8v6.4c0 .442.358.8.8.8s.8-.358.8-.8v-2.2h1.601c.442 0 .8-.358.8-.8s-.358-.8-.8-.8h-1.601v-1.801h1.601zm6.299-15.6h-.5v-.5c0-.829-.672-1.5-1.5-1.5s-1.5.671-1.5 1.5v.5h-6v-.5c0-.829-.671-1.5-1.5-1.5s-1.5.671-1.5 1.5v.5h-.5c-3.033 0-5.5 2.467-5.5 5.5v11c0 3.033 2.467 5.5 5.5 5.5.829 0 1.5-.671 1.5-1.5s-.671-1.5-1.5-1.5c-1.378 0-2.5-1.122-2.5-2.5v-9.5h18v3.5c0 .829.672 1.5 1.5 1.5s1.5-.671 1.5-1.5v-5c0-3.033-2.468-5.5-5.5-5.5z"/></svg>