<svg id="Layer_1" viewBox="0 0 24 24" xmlns="http://www.w3.org/2000/svg" data-name="Layer 1"><path d="m24 8.5v10c0 1.93-1.57 3.5-3.5 3.5h-4c-.829 0-1.5-.672-1.5-1.5s.671-1.5 1.5-1.5h4c.276 0 .5-.225.5-.5v-10c0-.275-.224-.5-.5-.5h-15c-.884 0-1.736-.224-2.5-.616v1.116c0 .828-.671 1.5-1.5 1.5s-1.5-.672-1.5-1.5v-3c0-3.032 2.467-5.5 5.5-5.5h17c.829 0 1.5.672 1.5 1.5s-.671 1.5-1.5 1.5h-17c-.809 0-1.523.393-1.98.991.47.62 1.193 1.009 1.98 1.009h15c1.93 0 3.5 1.57 3.5 3.5zm-5 5c0-.828-.672-1.5-1.5-1.5s-1.5.672-1.5 1.5.672 1.5 1.5 1.5 1.5-.672 1.5-1.5zm-6 4c0 3.59-2.91 6.5-6.5 6.5s-6.5-2.91-6.5-6.5 2.91-6.5 6.5-6.5 6.5 2.91 6.5 6.5zm-3.988 1.5c-.301 0-.603.115-.774.284-.449.441-1.06.716-1.738.716s-1.274-.283-1.723-.721l.607-.607c.248-.248.072-.672-.278-.672h-2.527c-.32 0-.579.259-.579.579v2.526c0 .351.424.526.672.278l.695-.695c.806.804 1.905 1.311 3.133 1.311 1.252 0 2.379-.517 3.191-1.347.602-.616.183-1.653-.679-1.653zm1.988-5.105c0-.351-.424-.526-.672-.278l-.695.695c-.806-.804-1.905-1.311-3.133-1.311-1.252 0-2.379.517-3.191 1.347-.602.616-.183 1.653.679 1.653.336 0 .603-.115.774-.284.449-.441 1.06-.716 1.738-.716s1.275.283 1.723.721l-.607.607c-.248.248-.072.672.278.672h2.526c.32 0 .579-.259.579-.579v-2.526z"/></svg>