<svg id="Layer_1" viewBox="0 0 24 24" xmlns="http://www.w3.org/2000/svg" data-name="Layer 1"><path d="m20 10.441v-5.087c0-1.715-.953-3.258-2.487-4.025l-2.342-1.171c-.466-.232-1.018-.208-1.46.066-.441.273-.711.756-.711 1.276v2.5c0 .551-.448 1-1 1s-1-.449-1-1v-2.5c0-.52-.27-1.002-.711-1.276-.443-.273-.995-.298-1.46-.066l-2.342 1.171c-1.534.767-2.487 2.31-2.487 4.025v5.087c-.648.85-1 1.884-1 2.973v1.586c0 4.963 4.037 9 9 9s9-4.037 9-9v-1.586c0-1.088-.352-2.123-1-2.973zm-6.5-2.739c1.486-.601 2.531-2.079 2.5-3.775.588.238 1.007.781 1 1.427v4.75l-3.5 1.884v-4.285zm-6.5-2.349c-.007-.646.412-1.189 1-1.427-.031 1.696 1.014 3.174 2.5 3.775v4.286l-3.5-1.884v-4.749zm11 9.646c0 3.309-2.691 6-6 6s-6-2.691-6-6v-1.586c0-.142.019-.28.049-.415l3.447 1.856c.786.434 2.005.646 2.505.646s1.719-.212 2.504-.646l3.448-1.856c.03.135.049.273.049.415v1.586z"/></svg>