<svg id="Layer_1" viewBox="0 0 24 24" xmlns="http://www.w3.org/2000/svg" data-name="Layer 1"><path d="m24 9.5v6.398c0 1.537-.985 2.876-2.452 3.333-.766.238-2.548 1.034-2.548 3.269 0 .828-.671 1.5-1.5 1.5s-1.5-.672-1.5-1.5c0-2.404-2.073-3.5-4-3.5h-1.5c-.829 0-1.5-.672-1.5-1.5s.671-1.5 1.5-1.5h1.5c2.286 0 4.247.92 5.507 2.399.789-.915 1.85-1.629 3.149-2.033.206-.063.343-.252.343-.468v-1.898h-10.499c-.829 0-1.5-.672-1.5-1.5v-3c0-.828.671-1.5 1.5-1.5s1.5.672 1.5 1.5v1.5h3v-1.5c0-.828.671-1.5 1.5-1.5s1.5.672 1.5 1.5v1.5h3v-1.5c0-.828.671-1.5 1.5-1.5s1.5.672 1.5 1.5zm-15.5 11.5h-1.5v-15h15.5c.829 0 1.5-.672 1.5-1.5s-.671-1.5-1.5-1.5h-15.5v-1.5c0-.828-.671-1.5-1.5-1.5s-1.5.672-1.5 1.5v1.5h-2.5c-.829 0-1.5.672-1.5 1.5s.671 1.5 1.5 1.5h2.5v15h-1.5c-.829 0-1.5.672-1.5 1.5s.671 1.5 1.5 1.5h6c.829 0 1.5-.672 1.5-1.5s-.671-1.5-1.5-1.5z"/></svg>