<?xml version="1.0" encoding="UTF-8"?>
<svg xmlns="http://www.w3.org/2000/svg" id="Layer_1" data-name="Layer 1" viewBox="0 0 24 24">
  <path d="M22.87,1h-4.37c-.889,0-1.334,1.075-.706,1.703l1.191,1.191-1.807,1.807c-.793-.445-1.706-.701-2.678-.701-3.032,0-5.5,2.468-5.5,5.5,0,2.512,1.695,4.631,4,5.287v3.213h-.5c-.828,0-1.5,.672-1.5,1.5s.672,1.5,1.5,1.5h.5v.5c0,.828,.672,1.5,1.5,1.5s1.5-.672,1.5-1.5v-.5h.5c.828,0,1.5-.672,1.5-1.5s-.672-1.5-1.5-1.5h-.5v-3.213c2.305-.655,4-2.775,4-5.287,0-.972-.256-1.885-.701-2.678l1.807-1.807,1.191,1.191c.629,.629,1.703,.183,1.703-.706V2.13c0-.624-.506-1.13-1.13-1.13ZM14.5,13c-1.379,0-2.5-1.121-2.5-2.5s1.121-2.5,2.5-2.5,2.5,1.121,2.5,2.5-1.121,2.5-2.5,2.5Zm-6.033,1.47c.293,.774-.098,1.641-.873,1.934l-2.632,.995c-1.71,.682-3.559-1.148-2.862-2.863-.038,.04,1.012-2.009,1.031-2.047l-1.812-.748c-1.688-.668-1.746-3.173-.117-3.918l1.84-.85-1.909-2.854C-.081,2.267,2.082-.017,3.959,1.041l3.283,1.717,.801-1.506c.809-1.645,3.36-1.646,4.17,0l.557,1.042c.391,.731,.114,1.64-.616,2.03-.729,.389-1.629,.117-2.024-.605l-.938,1.764c-.387,.727-1.288,1.007-2.02,.624l-1.694-.886,1.034,1.545c.515,.733,.203,1.84-.618,2.196l-1.627,.75,1.512,.624c.793,.307,1.167,1.318,.765,2.067l-.753,1.476,.744-.281c.772-.291,1.64,.097,1.934,.873Z"/>
</svg>
