<svg id="Layer_1" viewBox="0 0 24 24" xmlns="http://www.w3.org/2000/svg" data-name="Layer 1"><path d="m12 22.5c0 .828-.671 1.5-1.5 1.5h-5c-3.033 0-5.5-2.468-5.5-5.5v-11c0-2.979 2.379-5.411 5.337-5.498.562-1.183 1.769-2.002 3.163-2.002h3c1.395 0 2.601.819 3.163 2.002 2.958.087 5.337 2.52 5.337 5.498 0 .828-.671 1.5-1.5 1.5s-1.5-.672-1.5-1.5c0-1.379-1.122-2.5-2.5-2.5h-1c-.829 0-1.5-.672-1.5-1.5 0-.275-.224-.5-.5-.5h-3c-.276 0-.5.225-.5.5 0 .828-.671 1.5-1.5 1.5h-1c-1.378 0-2.5 1.121-2.5 2.5v11c0 1.379 1.122 2.5 2.5 2.5h5c.829 0 1.5.672 1.5 1.5zm11.999-7.354v2.484c0 3.965-3.638 5.738-4.753 6.188-.234.101-.492.19-.746.183-.297.007-.592-.106-.852-.249-1.089-.545-4.649-2.599-4.649-6.121v-2.484c0-1.511.964-2.847 2.398-3.322l1.894-.628c.778-.26 1.637-.259 2.417 0l1.892.627c1.434.474 2.398 1.81 2.398 3.322zm-3 0c0-.216-.137-.406-.341-.475l-1.896-.628c-.173-.059-.353-.057-.524 0l-1.896.629c-.205.068-.343.259-.343.475v2.484c0 1.521 1.689 2.699 2.565 3.207.896-.445 2.435-1.464 2.435-3.207v-2.484zm-5.999-5.646c0-.828-.671-1.5-1.5-1.5h-7c-.829 0-1.5.672-1.5 1.5s.671 1.5 1.5 1.5h7c.829 0 1.5-.672 1.5-1.5zm-8.5 3.5c-.829 0-1.5.672-1.5 1.5s.671 1.5 1.5 1.5h3c.829 0 1.5-.672 1.5-1.5s-.671-1.5-1.5-1.5z"/></svg>