<svg id="Layer_1" viewBox="0 0 24 24" xmlns="http://www.w3.org/2000/svg" data-name="Layer 1"><path d="m13 17.5v1h-1v-1c0-.275.225-.5.5-.5s.5.225.5.5zm4 0c0-.275-.225-.5-.5-.5h-.5v1h.5c.275 0 .5-.225.5-.5zm-5-11.5c0-3.314 2.686-6 6-6s6 2.686 6 6-2.686 6-6 6-6-2.686-6-6zm1.5 0c0 .966.784 1.75 1.75 1.75.256 0 .497-.058.715-.156l2.041 1.223c.036.935.8 1.683 1.743 1.683.966 0 1.75-.784 1.75-1.75s-.784-1.75-1.75-1.75c-.236 0-.46.048-.665.133l-1.915-1.147 1.851-1.149c.223.103.468.164.729.164.966 0 1.75-.784 1.75-1.75s-.784-1.75-1.75-1.75c-.917 0-1.661.708-1.736 1.607l-2.072 1.287c-.212-.092-.446-.143-.692-.143-.966 0-1.75.784-1.75 1.75zm10.5 11v3c0 2.209-1.791 4-4 4h-16c-2.209 0-4-1.791-4-4v-3c0-2.209 1.791-4 4-4h10.13c1.147.636 2.466 1 3.87 1 1.202 0 2.337-.272 3.36-.747 1.537.558 2.64 2.017 2.64 3.747zm-19.188 1.041c-.547-.202-1.043-.42-1.056-.42-.118-.08-.114-.201-.108-.25.009-.065.057-.226.3-.299.287-.085.562-.017.762.07s.432.032.573-.134c.204-.24.137-.611-.143-.757-.361-.189-.891-.353-1.492-.172-.557.168-.95.607-1.028 1.145-.072.506.147.994.645 1.31 0 0 .562.251 1.186.481.132.049.557.229.506.516-.038.212-.3.432-.672.432-.259 0-.511-.07-.721-.194-.193-.114-.439-.078-.605.072-.256.233-.216.649.083.825.366.216.796.334 1.243.334.848 0 1.559-.542 1.693-1.287.1-.564-.154-1.297-1.168-1.672zm5.188-1.541c0-.276-.224-.5-.5-.5s-.5.224-.5.5v1.5h-1v-1.5c0-.276-.224-.5-.5-.5s-.5.224-.5.5v4c0 .276.224.5.5.5s.5-.224.5-.5v-1.5h1v1.5c0 .276.224.5.5.5s.5-.224.5-.5zm4 1c0-.827-.673-1.5-1.5-1.5s-1.5.673-1.5 1.5v3c0 .276.224.5.5.5s.5-.224.5-.5v-1h1v1c0 .276.224.5.5.5s.5-.224.5-.5zm3.536 1.08c.285-.273.464-.655.464-1.08 0-.827-.673-1.5-1.5-1.5h-.5c-.552 0-1 .448-1 1v3.5c0 .276.224.5.5.5s.5-.224.5-.5v-1.5c.083-.002.535.007.607-.011l.408 1.632c.066.27.345.431.606.364.269-.067.431-.339.364-.606l-.45-1.799zm2.464-.58v-1h1c.276 0 .5-.224.5-.5s-.224-.5-.5-.5h-1c-.552 0-1 .448-1 1v3c0 .552.448 1 1 1h1c.276 0 .5-.224.5-.5s-.224-.5-.5-.5h-1v-1h1c.276 0 .5-.224.5-.5s-.224-.5-.5-.5z"/></svg>