<svg id="Layer_1" viewBox="0 0 24 24" xmlns="http://www.w3.org/2000/svg" data-name="Layer 1"><path d="m12.854 21.854c.356.748.04 1.643-.708 1.999-.731.354-1.642.047-2-.708-.622-1.304-2.053-2.146-3.646-2.146s-3.024.842-3.646 2.146c-.356.747-1.251 1.066-2 .708-.748-.356-1.065-1.251-.708-1.999 1.116-2.342 3.61-3.854 6.354-3.854s5.238 1.513 6.354 3.854zm-6.354-5.854c2.209 0 4-1.791 4-4s-1.791-4-4-4-4 1.791-4 4 1.791 4 4 4zm17.5-9.5c0 3.59-2.91 6.5-6.5 6.5s-6.5-2.91-6.5-6.5 2.91-6.5 6.5-6.5 6.5 2.91 6.5 6.5zm-2.752-1.154-3.063-3.063c-.378-.378-.991-.378-1.369 0l-3.063 3.063c-.61.61-.178 1.653.685 1.653h1.563v2.501c0 .828.671 1.5 1.5 1.5s1.5-.672 1.5-1.5v-2.501h1.563c.863 0 1.295-1.043.685-1.653z"/></svg>