<svg id="Layer_1" viewBox="0 0 24 24" xmlns="http://www.w3.org/2000/svg" data-name="Layer 1"><path d="m18.5 0h-13c-3.032 0-5.5 2.467-5.5 5.5v8.008c0 3.032 2.468 5.5 5.5 5.5h5v1.992h-3c-.828 0-1.5.672-1.5 1.5s.672 1.5 1.5 1.5h9c.828 0 1.5-.672 1.5-1.5s-.672-1.5-1.5-1.5h-3v-1.992h5c3.032 0 5.5-2.468 5.5-5.5v-8.008c0-3.033-2.468-5.5-5.5-5.5zm-13 3h13c1.379 0 2.5 1.122 2.5 2.5v7.5h-18v-7.5c0-1.378 1.121-2.5 2.5-2.5zm1.716 9c.345 0 .641-.246.704-.585l.166-.889h2.006l.157.883c.061.342.358.591.705.591h.01c.453 0 .793-.416.701-.86l-1.221-5.947c-.12-.668-.589-1.192-1.346-1.192-.757 0-1.281.586-1.385 1.166l-1.2 5.976c-.089.443.25.857.702.857zm1.862-6.295.638 3.295h-1.262zm4.722 6.295h1.5c1.27 0 2.3-1.03 2.3-2.3v-3.4c0-1.27-1.03-2.3-2.3-2.3h-1.5c-.442 0-.8.358-.8.8v6.4c0 .442.358.8.8.8zm.8-6.402h.7c.386 0 .7.314.7.7v3.402c0 .386-.314.7-.7.7h-.7z"/></svg>