<svg id="Layer_1" viewBox="0 0 24 24" xmlns="http://www.w3.org/2000/svg" data-name="Layer 1"><path d="m16.5 2.5c0-1.381 1.119-2.5 2.5-2.5s2.5 1.119 2.5 2.5-1.119 2.5-2.5 2.5-2.5-1.119-2.5-2.5zm7.5 15.5h-3v6h-4v-6h-3v6h-4v-6h-3v6h-4v-6h-3v-8.5c0-1.93 1.57-3.5 3.5-3.5h3c.744 0 1.432.238 2 .635.568-.398 1.256-.635 2-.635h3c.744 0 1.432.238 2 .635.568-.398 1.256-.635 2-.635h3c1.93 0 3.5 1.57 3.5 3.5zm-17-8.5c0-.275-.224-.5-.5-.5h-3c-.276 0-.5.225-.5.5v5.5h4zm7 0c0-.275-.224-.5-.5-.5h-3c-.276 0-.5.225-.5.5v5.5h4zm7 0c0-.275-.224-.5-.5-.5h-3c-.276 0-.5.225-.5.5v5.5h4zm-9-4.5c1.381 0 2.5-1.119 2.5-2.5s-1.119-2.5-2.5-2.5-2.5 1.119-2.5 2.5 1.119 2.5 2.5 2.5zm-7 0c1.381 0 2.5-1.119 2.5-2.5s-1.119-2.5-2.5-2.5-2.5 1.119-2.5 2.5 1.119 2.5 2.5 2.5z"/></svg>