<?xml version="1.0" encoding="UTF-8"?>
<svg xmlns="http://www.w3.org/2000/svg" id="Layer_1" data-name="Layer 1" viewBox="0 0 24 24">
  <path d="M21,19.2v3.3c0,.828-.672,1.5-1.5,1.5s-1.5-.672-1.5-1.5v-3.3c0-.164-.08-.317-.214-.41,0,0-4.386-3.058-4.429-3.096-.69-.531-1.162-1.278-1.318-2.141-.167-.92,.035-1.85,.568-2.618l2.73-3.937h-2.101s-2.051,2.654-2.051,2.654c-.506,.656-1.449,.775-2.104,.27-.656-.507-.776-1.449-.27-2.104l2.2-2.847c.467-.607,1.207-.971,1.978-.971h3.017c.895-.031,1.875,.251,2.676,.806,1.585,1.101,1.98,3.286,.883,4.871l-3.136,4.52,3.065,2.128c.941,.653,1.504,1.728,1.504,2.875ZM21.5,0c-1.381,0-2.5,1.119-2.5,2.5s1.119,2.5,2.5,2.5,2.5-1.119,2.5-2.5-1.119-2.5-2.5-2.5ZM7,13H2.156c-.477,.012-.748,.55-.475,.941l1.159,1.654-2.374,.563c-.426,.121-.606,.626-.352,.988l.795,1.135c.189,.27,.53,.39,.847,.297l3.884-1.156c.388-.128,.544-.594,.309-.929l-1.179-1.591,2.365-.856c.576-.156,.454-1.039-.135-1.045Zm.135-3.045l-2.365-.856,1.179-1.591c.235-.335,.079-.801-.309-.929l-3.884-1.156c-.317-.093-.658,.026-.847,.297L.115,6.854c-.254,.363-.074,.868,.352,.988l2.374,.563-1.159,1.654c-.274,.391-.002,.929,.475,.941H7c.59-.006,.711-.889,.135-1.045Zm3.865,6.135v2.428l-2.221,3.109c-.481,.675-.325,1.611,.349,2.093,.667,.478,1.608,.33,2.093-.349l2.314-3.241c.304-.427,.465-.929,.465-1.451v-.077c-.714-.499-1.404-.98-1.652-1.153-.538-.373-.981-.84-1.348-1.359Z"/>
</svg>
