<svg id="Layer_1" viewBox="0 0 24 24" xmlns="http://www.w3.org/2000/svg" data-name="Layer 1"><path d="m18.5 9h-2.005l-.226-1.206c1.586-.532 2.731-2.032 2.731-3.794 0-2.206-1.794-4-4-4h-6c-2.206 0-4 1.794-4 4 0 1.762 1.146 3.262 2.731 3.794l-.226 1.206h-2.005c-3.033 0-5.5 2.467-5.5 5.5v4c0 3.033 2.467 5.5 5.5 5.5h13c3.032 0 5.5-2.467 5.5-5.5v-4c0-3.033-2.468-5.5-5.5-5.5zm-8.026-3.308c-.365-.44-.902-.692-1.474-.692-.551 0-1-.449-1-1s.449-1 1-1h6c.552 0 1 .449 1 1s-.448 1-1 1c-.571 0-1.108.252-1.474.692-.365.44-.514 1.014-.409 1.576l.325 1.732h-2.885l.325-1.732c.105-.562-.043-1.136-.408-1.576zm3.531 6.308 1.688 9h-7.385l1.687-9zm-11.005 6.5v-4c0-1.378 1.122-2.5 2.5-2.5h1.442l-1.683 8.976c-1.264-.123-2.26-1.18-2.26-2.476zm18 0c0 1.296-.995 2.353-2.259 2.476l-1.683-8.976h1.443c1.379 0 2.5 1.122 2.5 2.5v4z"/></svg>