<svg id="Layer_1" viewBox="0 0 24 24" xmlns="http://www.w3.org/2000/svg" data-name="Layer 1"><path d="m8.5 11c-3.465 0-5.343-1.106-5.5-1.5v-1.499c1.554.659 3.53.999 5.5.999s3.946-.341 5.5-.999v.499c0 .828.672 1.5 1.5 1.5s1.5-.672 1.5-1.5v-4c0-2.954-4.276-4.5-8.5-4.5s-8.5 1.546-8.5 4.5v15c-.025 2.414 3.1 4.246 7.501 4.47.786 0 1.447-.612 1.496-1.408.051-.827-.579-1.538-1.405-1.589-2.94-.181-4.46-1.146-4.592-1.473v-1.486c1.205.516 2.775.869 4.501.956.786 0 1.447-.612 1.496-1.408.051-.827-.579-1.538-1.405-1.589-2.94-.181-4.46-1.146-4.592-1.473v-1.499c1.554.659 3.53.999 5.5.999.829 0 1.5-.672 1.5-1.5s-.671-1.5-1.5-1.5zm0-8c3.348 0 5.215 1.033 5.484 1.5-.27.467-2.136 1.5-5.484 1.5-3.445 0-5.318-1.093-5.5-1.446v-.016c.182-.445 2.055-1.538 5.5-1.538zm15.061 20.561c-.586.586-1.535.586-2.121 0l-6.598-6.598c-1.306 1.661-1.987 3.356-2.626 4.75-.391.557-1.211.247-1.212-.433-.002-1.554-.217-3.872 1.725-6.432l-.288-.288c-.586-.586-.586-1.535 0-2.121s1.535-.586 2.121 0l.288.288c2.56-1.941 4.878-1.725 6.432-1.725.68 0 .99.822.433 1.212-1.394.639-3.089 1.32-4.75 2.627l6.598 6.598c.586.586.586 1.535 0 2.121z"/></svg>