<svg id="Layer_1" viewBox="0 0 24 24" xmlns="http://www.w3.org/2000/svg" data-name="Layer 1"><path d="m9.5 2.5c0-1.381 1.119-2.5 2.5-2.5s2.5 1.119 2.5 2.5-1.119 2.5-2.5 2.5-2.5-1.119-2.5-2.5zm-5.25 12.1c-.358 0-.65.292-.65.65v3.5c0 .358.292.65.65.65s.65-.292.65-.65v-3.5c0-.358-.292-.65-.65-.65zm19.75-1.1v6.5c0 2.209-1.791 4-4 4h-16c-2.209 0-4-1.791-4-4v-6.5c0-1.933 1.567-3.5 3.5-3.5h.029l3.608-3.833c.542-.575 1.433-.641 2.054-.152.682.538.756 1.544.161 2.177l-1.702 1.808h8.701l-1.734-1.842c-.578-.614-.506-1.591.156-2.114l.024-.019c.627-.495 1.529-.429 2.077.153l3.597 3.822h.029c1.933 0 3.5 1.567 3.5 3.5zm-17.5 1.75c0-1.241-1.009-2.25-2.25-2.25s-2.25 1.009-2.25 2.25v3.5c0 1.241 1.009 2.25 2.25 2.25s2.25-1.009 2.25-2.25zm5.999.308c.028-1.406-1.209-2.558-2.615-2.558h-1.584c-.442 0-.8.358-.8.8v6.4c0 .442.358.8.8.8.442 0 .8-.358.8-.8v-2.2h.784c.938-.018 1.546-.452 1.604-.491.629-.442.995-1.13 1.011-1.951zm2.101.642v-1.6h.6c.442 0 .8-.358.8-.8s-.358-.8-.8-.8h-1.2c-.552 0-1 .448-1 1v6c0 .552.448 1 1 1h1.2c.442 0 .8-.358.8-.8 0-.442-.358-.8-.8-.8h-.6v-1.6h.6c.442 0 .8-.358.8-.8s-.358-.8-.8-.8zm7.4-2.4c0-.442-.358-.8-.8-.8s-.8.358-.8.8v3.263l-1.546-3.482c-.155-.348-.499-.574-.88-.576-.537-.003-.974.432-.974.969v6.226c0 .442.358.8.8.8s.8-.358.8-.8v-3.254l1.544 3.479c.155.35.502.576.885.576h.002c.535 0 .969-.434.969-.969v-6.231zm-12 .8h-.9v1.8h.9c.496 0 .9-.404.9-.9s-.404-.9-.9-.9z"/></svg>