<?xml version="1.0" encoding="UTF-8"?>
<svg xmlns="http://www.w3.org/2000/svg" id="Layer_1" data-name="Layer 1" viewBox="0 0 24 24">
  <path d="M20.5,7h-1.25c-.744,0-1.432,.238-2,.635-.568-.398-1.256-.635-2-.635h-1.25c-.744,0-1.432,.238-2,.635-.568-.398-1.256-.635-2-.635h-1.25c-.744,0-1.432,.238-2,.635-.568-.398-1.256-.635-2-.635h-1.25c-1.93,0-3.5,1.57-3.5,3.5v2c0,1.93,1.57,3.5,3.5,3.5h1.25c.744,0,1.432-.238,2-.635,.568,.398,1.256,.635,2,.635h1.25c.744,0,1.432-.238,2-.635,.568,.398,1.256,.635,2,.635h1.25c.744,0,1.432-.238,2-.635,.568,.398,1.256,.635,2,.635h1.25c1.93,0,3.5-1.57,3.5-3.5v-2c0-1.93-1.57-3.5-3.5-3.5ZM4.75,13h-1.25c-.275,0-.5-.224-.5-.5v-2c0-.276,.225-.5,.5-.5h1.25c.275,0,.5,.224,.5,.5v2c0,.276-.225,.5-.5,.5Zm5.25,0h-1.25c-.275,0-.5-.224-.5-.5v-2c0-.276,.225-.5,.5-.5h1.25c.275,0,.5,.224,.5,.5v2c0,.276-.225,.5-.5,.5Zm5.25,0h-1.25c-.275,0-.5-.224-.5-.5v-2c0-.276,.225-.5,.5-.5h1.25c.275,0,.5,.224,.5,.5v2c0,.276-.225,.5-.5,.5Zm5.75-.5c0,.276-.225,.5-.5,.5h-1.25c-.275,0-.5-.224-.5-.5v-2c0-.276,.225-.5,.5-.5h1.25c.275,0,.5,.224,.5,.5v2Z"/>
</svg>
