<svg id="Layer_1" viewBox="0 0 24 24" xmlns="http://www.w3.org/2000/svg" data-name="Layer 1"><path d="m17.5 12.5c0 1.381-1.119 2.5-2.5 2.5s-2.5-1.119-2.5-2.5c0-.333.068-.649.186-.939l-1.234.463c.03.154.048.313.048.476 0 1.381-1.119 2.5-2.5 2.5s-2.5-1.119-2.5-2.5 1.119-2.5 2.5-2.5c.121 0 .237.019.354.036l-.188-1.036h-.666c-.552 0-1-.447-1-1s.448-1 1-1h.666c.967 0 1.795.69 1.968 1.643l.065.357h2.15l-.182-1h-.666c-.552 0-1-.447-1-1s.448-1 1-1h.665c.731 0 1.382.396 1.731 1h.604c.553 0 1 .447 1 1s-.447 1-1 1h-.12l.195 1.073c1.102.26 1.925 1.245 1.925 2.427zm2.28 6.354-3.808 3.536c-1.045 1.027-2.467 1.61-3.973 1.61s-2.928-.583-4.004-1.641l-3.734-3.465c-4.327-4.346-4.327-11.351-.042-15.657 2.077-2.088 4.841-3.237 7.781-3.237s5.703 1.15 7.78 3.238c4.284 4.305 4.284 11.31 0 15.615zm-2.127-13.499c-1.51-1.519-3.518-2.354-5.653-2.354s-4.144.836-5.654 2.354c-3.124 3.139-3.124 8.245 0 11.383l3.723 3.454c1.085 1.067 2.811 1.035 3.833.03l3.796-3.525c3.081-3.097 3.081-8.203-.043-11.341z"/></svg>