<svg id="Layer_1" viewBox="0 0 24 24" xmlns="http://www.w3.org/2000/svg" data-name="Layer 1"><path d="m22 16.5v2c0 3.032-2.467 5.5-5.5 5.5h-9c-3.033 0-5.5-2.468-5.5-5.5 0-.828.671-1.5 1.5-1.5s1.5.672 1.5 1.5c0 1.379 1.122 2.5 2.5 2.5h9c1.378 0 2.5-1.121 2.5-2.5v-2c0-.828.671-1.5 1.5-1.5s1.5.672 1.5 1.5zm-6.379-13.5h3.379v.5c0 .828.671 1.5 1.5 1.5s1.5-.672 1.5-1.5v-.5h.5c.829 0 1.5-.672 1.5-1.5s-.671-1.5-1.5-1.5h-21c-.829 0-1.5.672-1.5 1.5s.671 1.5 1.5 1.5h.5v10.5c0 .828.671 1.5 1.5 1.5s1.5-.672 1.5-1.5v-4.5c0-.552.449-1 1-1s1 .448 1 1v2.5c0 .828.671 1.5 1.5 1.5s1.5-.672 1.5-1.5v-2c0-.635.402-1.203 1-1.415.781-.276 1.19-1.133.914-1.914s-1.134-1.19-1.914-.914c-.502.178-.951.446-1.348.772-.708-.632-1.631-1.029-2.652-1.029-.347 0-.678.058-1 .142v-2.142h6.379l10.061 10.061c.293.293.677.439 1.061.439s.768-.146 1.061-.439c.586-.586.586-1.535 0-2.121z"/></svg>