<svg id="Layer_1" viewBox="0 0 24 24" xmlns="http://www.w3.org/2000/svg" data-name="Layer 1"><path d="m21.183 6.943-.987-.592c-.497-.713-.887-1.382-1.265-2.029-1.352-2.319-2.519-4.321-6.931-4.321s-5.579 2.001-6.931 4.32c-.321.55-.65 1.115-1.047 1.71-.23.395-.831.677-1.205.912-.507.304-.817.852-.817 1.444 0 1.114 1.064 1.926 2.136 1.622.68-.193 1.297-.357 1.891-.493.138 1.559.875 2.945 1.978 3.933 0 .017-.005.034-.005.051v2.5h-3.5c-.829 0-1.5.672-1.5 1.5s.671 1.5 1.5 1.5h2.984l.8 2h-3.784c-.829 0-1.5.672-1.5 1.5s.671 1.5 1.5 1.5h15c.829 0 1.5-.672 1.5-1.5s-.671-1.5-1.5-1.5h-3.785l.8-2h2.984c.829 0 1.5-.672 1.5-1.5s-.671-1.5-1.5-1.5h-3.5v-2.5c0-.018-.005-.034-.005-.051 1.067-.955 1.792-2.282 1.963-3.778.635.148 1.273.311 1.958.479 1.059.26 2.084-.545 2.084-1.636v-.127c0-.591-.31-1.139-.817-1.444zm-7.683-3.943c.828 0 1.5.672 1.5 1.5s-.672 1.5-1.5 1.5-1.5-.672-1.5-1.5.672-1.5 1.5-1.5zm-1.5 15c.709 0 1.274-.061 1.745-.15l-1.08 2.699c-.219.547-1.11.546-1.329 0l-1.08-2.7c.471.089 1.036.15 1.745.15zm0-6.016c-1.628 0-2.95-1.305-2.992-2.923.875-.066 1.832-.088 2.992-.061 1.143-.01 2.105.047 2.984.145-.085 1.578-1.384 2.839-2.984 2.839z"/></svg>