<svg id="Layer_1" viewBox="0 0 24 24" xmlns="http://www.w3.org/2000/svg" data-name="Layer 1"><path d="m17 3.5c0-1.93 1.57-3.5 3.5-3.5s3.5 1.57 3.5 3.5-1.57 3.5-3.5 3.5-3.5-1.57-3.5-3.5zm6 7v8c0 3.032-2.467 5.5-5.5 5.5h-12c-3.033 0-5.5-2.468-5.5-5.5v-12c0-3.033 2.467-5.5 5.5-5.5h8c.829 0 1.5.671 1.5 1.5s-.671 1.5-1.5 1.5h-5.5v7h7v-2c0-.829.671-1.5 1.5-1.5s1.5.671 1.5 1.5v2h2v-.5c0-.829.671-1.5 1.5-1.5s1.5.671 1.5 1.5zm-5 3.5v2h2v-2zm-10 0v7h7v-7zm-5 2h2v-2h-2zm2-5v-2h-2v2zm-1.949-5h1.949v-1.949c-.978.199-1.75.971-1.949 1.949zm1.949 14.949v-1.949h-1.949c.199.978.971 1.75 1.949 1.949zm14.949-1.949h-1.949v1.949c.978-.199 1.75-.971 1.949-1.949z"/></svg>