<svg id="Layer_1" viewBox="0 0 24 24" xmlns="http://www.w3.org/2000/svg" data-name="Layer 1"><path d="m11.468 10.193c.169.811-.351 1.605-1.162 1.775-.791.172-1.609-.345-1.775-1.162-.01-.046-.02-.09-.032-.133-.012.043-.022.087-.032.133-.17.811-.964 1.33-1.775 1.162-.811-.169-1.331-.964-1.162-1.775.321-1.538 1.387-3.193 2.968-3.193s2.647 1.655 2.968 3.193zm4.032-3.193c-1.58 0-2.646 1.655-2.968 3.193-.169.811.35 1.605 1.161 1.775.803.167 1.606-.349 1.775-1.161.01-.046.021-.09.032-.134.012.043.022.088.032.134.166.817.985 1.333 1.775 1.161.811-.17 1.33-.965 1.16-1.775-.321-1.538-1.388-3.193-2.968-3.193zm.286 8.237c-.671-1.178-2.232-2.235-3.814-2.237-1.582.002-3.143 1.059-3.814 2.237-.448.786.111 1.763 1.015 1.763h5.599c.904 0 1.462-.977 1.015-1.763zm-10.786-.737c0-1.403-1.184-3.372-1.922-4.235-.303-.355-.849-.353-1.151.004-.738.874-1.927 2.861-1.927 4.231 0 1.381 1.119 2.5 2.5 2.5s2.5-1.119 2.5-2.5zm.927 2.769c-.738.874-1.927 2.861-1.927 4.231 0 1.381 1.119 2.5 2.5 2.5s2.5-1.119 2.5-2.5c0-1.403-1.184-3.372-1.922-4.235-.303-.355-.849-.353-1.151.004zm16.151-7.004c-.303-.355-.849-.353-1.151.004-.738.874-1.927 2.861-1.927 4.231 0 1.381 1.119 2.5 2.5 2.5s2.5-1.119 2.5-2.5c0-1.403-1.184-3.372-1.922-4.235zm-5.447 7.259c-1.236.88-2.691 1.386-4.209 1.465-.827.043-1.463.749-1.42 1.576.041.829.757 1.465 1.576 1.42 2.088-.108 4.09-.806 5.791-2.016.676-.48.833-1.417.354-2.092-.481-.676-1.418-.833-2.092-.354zm-13.711-9.704c.729.394 1.639.121 2.032-.609 1.4-2.598 4.101-4.211 7.048-4.211 3.05 0 5.793 1.696 7.16 4.425.372.749 1.287 1.037 2.013.67.74-.371 1.04-1.272.669-2.013-1.878-3.752-5.649-6.083-9.842-6.083-4.053.001-7.766 2.219-9.689 5.79-.393.729-.121 1.639.609 2.032z"/></svg>