<svg id="Layer_1" viewBox="0 0 24 24" xmlns="http://www.w3.org/2000/svg" data-name="Layer 1"><path d="m19 10c2.761 0 5-2.239 5-5s-2.239-5-5-5-5 2.239-5 5 2.239 5 5 5zm-1-7c0-.552.448-1 1-1 .552 0 1 .448 1 1v1.586l1 1c.391.39.391 1.024 0 1.414s-1.024.39-1.414 0l-1.293-1.293c-.188-.188-.293-.442-.293-.707zm-5.5 6c.828 0 1.5.672 1.5 1.5s-.672 1.5-1.5 1.5-1.5-.672-1.5-1.5.672-1.5 1.5-1.5zm-5 0c.828 0 1.5.672 1.5 1.5s-.672 1.5-1.5 1.5-1.5-.672-1.5-1.5.672-1.5 1.5-1.5zm16.5 3.5v2c0 3.033-2.467 5.5-5.5 5.5h-1.172l-3.708 3.066c-.448.398-1.024.6-1.607.6-.594 0-1.195-.21-1.674-.635l-3.598-3.031h-1.241c-3.033 0-5.5-2.467-5.5-5.5v-9c0-3.033 2.467-5.5 5.5-5.5h6c.829 0 1.5.671 1.5 1.5s-.671 1.5-1.5 1.5h-6c-1.378 0-2.5 1.122-2.5 2.5v9c0 1.378 1.122 2.5 2.5 2.5h1.789c.354 0 .696.125.966.353l3.749 3.158 3.83-3.167c.269-.222.606-.344.956-.344h1.711c1.378 0 2.5-1.122 2.5-2.5v-2c0-.829.671-1.5 1.5-1.5s1.5.671 1.5 1.5z"/></svg>