<svg id="Layer_1" viewBox="0 0 24 24" xmlns="http://www.w3.org/2000/svg" data-name="Layer 1"><path d="m12 15c3.309 0 6-2.691 6-6v-5.5c0-1.93-1.57-3.5-3.5-3.5h-5c-1.93 0-3.5 1.57-3.5 3.5v5.5c0 3.309 2.691 6 6 6zm0-3c-1.309 0-2.413-.848-2.822-2.02 1.493-.081 3.065-.897 4.082-1.98h1.74v1c0 1.654-1.346 3-3 3zm-2-9h1v-1c0-.552.448-1 1-1s1 .448 1 1v1h1c.552 0 1 .448 1 1s-.448 1-1 1h-1v1c0 .552-.448 1-1 1s-1-.448-1-1v-1h-1c-.552 0-1-.448-1-1s.448-1 1-1zm11 19.5c0 .828-.671 1.5-1.5 1.5s-1.5-.672-1.5-1.5c0-1.399-.499-2.548-1.526-3.51l-3.397 3.554c-.568.61-1.615.6-2.171-.018l-3.273-3.491c-1.1.973-1.633 2.122-1.633 3.465 0 .828-.671 1.5-1.5 1.5s-1.5-.672-1.5-1.5c0-2.188.869-4.109 2.582-5.709.585-.546 1.349-.83 2.157-.787.807.038 1.576.406 2.111 1.01l2.168 2.312 2.283-2.356c.493-.557 1.264-.924 2.071-.96.813-.032 1.57.245 2.154.791 1.642 1.539 2.474 3.456 2.474 5.699z"/></svg>