<svg id="Layer_1" viewBox="0 0 24 24" xmlns="http://www.w3.org/2000/svg" data-name="Layer 1"><path d="m13 9c-1.105 0-2-.895-2-2v-4h-5.5c-1.379 0-2.5 1.122-2.5 2.5v13c0 1.378 1.121 2.5 2.5 2.5h5c.828 0 1.5.671 1.5 1.5s-.672 1.5-1.5 1.5h-5c-3.032 0-5.5-2.467-5.5-5.5v-13c0-3.033 2.468-5.5 5.5-5.5h6.343c1.47 0 2.851.572 3.89 1.611l2.656 2.657c.816.815 1.348 1.848 1.536 2.986.153.877-.53 1.729-1.425 1.738v.007c-.009 0-5.5 0-5.5 0zm-2.5 1c-.828 0-1.5.671-1.5 1.5v6c0 .829.672 1.5 1.5 1.5s1.5-.671 1.5-1.5v-6c0-.829-.672-1.5-1.5-1.5zm-6 5.5v2c0 .829.672 1.5 1.5 1.5s1.5-.671 1.5-1.5v-2c0-.829-.672-1.5-1.5-1.5s-1.5.671-1.5 1.5zm19.5 5.769c0 1.32-1.313 2.731-5 2.731s-5-1.411-5-2.731v-8.269c0-1.178 2.056-2 5-2s5 .822 5 2zm-3-2.459c-.565.121-1.229.19-2 .19-.785 0-1.442-.071-2-.188v1.917c.301.114.912.271 2 .271s1.699-.157 2-.271zm0-3.954c-.601.093-1.273.144-2 .144s-1.399-.051-2-.144v1.901c.413.127 1.057.243 2 .243.937 0 1.583-.125 2-.262z"/></svg>