<svg id="Layer_1" viewBox="0 0 24 24" xmlns="http://www.w3.org/2000/svg" data-name="Layer 1"><path d="m18 14.5c0 .828-.672 1.5-1.5 1.5-.237 0-.459-.06-.658-.158.098.199.158.421.158.658 0 .828-.672 1.5-1.5 1.5s-1.5-.672-1.5-1.5c0-.565.317-1.052.779-1.307l-1.216-1.216c-1.154-.077-4.28-.391-5.464-1.575-1.464-1.464-1.464-3.839 0-5.303s3.839-1.464 5.303 0c1.184 1.184 1.498 4.31 1.575 5.464l1.216 1.216c.256-.462.742-.779 1.307-.779.828 0 1.5.672 1.5 1.5zm4.878-9.554-1.062 12.037c-.252 2.86-2.607 5.017-5.479 5.017h-8.674c-2.871 0-5.227-2.157-5.479-5.017l-1.062-12.037c-.644-.168-1.122-.749-1.122-1.446 0-.829.671-1.5 1.5-1.5h21c.829 0 1.5.671 1.5 1.5 0 .697-.478 1.278-1.122 1.446zm-4.051 11.774 1.034-11.72h-15.723l1.034 11.72c.115 1.3 1.185 2.28 2.49 2.28h8.675c1.305 0 2.375-.98 2.49-2.28z"/></svg>