<svg id="Layer_1" viewBox="0 0 24 24" xmlns="http://www.w3.org/2000/svg" data-name="Layer 1"><path d="m14.5 13.5c-.828 0-1.5.672-1.5 1.5v3h-10v-12.5c0-1.379 1.121-2.5 2.5-2.5h4c.828 0 1.5-.672 1.5-1.5s-.672-1.5-1.5-1.5h-4c-3.032 0-5.5 2.468-5.5 5.5v13.5c0 2.761 2.239 5 5 5h6c2.787.009 5-2.179 5-5v-4c0-.828-.672-1.5-1.5-1.5zm-5.501 8.508h-2c-.552 0-1-.448-1-1s.448-1 1-1h2c.552 0 1 .448 1 1s-.448 1-1 1zm9.001-22.008c-3.314 0-6 2.686-6 6s2.686 6 6 6 6-2.686 6-6-2.686-6-6-6zm2.707 7.293c.391.391.391 1.023 0 1.414s-1.023.391-1.414 0l-1.293-1.293-1.293 1.293c-.391.391-1.023.391-1.414 0s-.391-1.023 0-1.414l1.293-1.293-1.293-1.293c-.391-.391-.391-1.023 0-1.414s1.023-.391 1.414 0l1.293 1.293 1.293-1.293c.391-.391 1.023-.391 1.414 0s.391 1.023 0 1.414l-1.293 1.293zm-9.707 2.707c.552 0 1 .448 1 1s-.448 1-1 1h-1l-1.911 2.421c-.195.357-.569.579-.975.579-.426.066-.808-.317-.644-.74l.879-2.26h-1.001c-.442 0-.862-.195-1.147-.533l-1.096-1.3c-.297-.52.078-1.167.677-1.167.207 0 .405.082.551.228l1.11.772h.923l-.891-2.258c-.163-.411.2-.802.622-.742.407 0 .781.222.975.579l1.929 2.421h1z"/></svg>