<svg id="Layer_1" viewBox="0 0 24 24" xmlns="http://www.w3.org/2000/svg" data-name="Layer 1"><path d="m9.5 3.5c0-1.381 1.119-2.5 2.5-2.5s2.5 1.119 2.5 2.5-1.119 2.5-2.5 2.5-2.5-1.119-2.5-2.5zm-7.5 1.5c-1.105 0-2 .895-2 2s.895 2 2 2 2-.895 2-2-.895-2-2-2zm21.842 4.829-4.5-9c-.37-.741-1.271-1.039-2.013-.671-.741.371-1.041 1.271-.671 2.013l3.415 6.829h-2.713c-.06 0-.119-.011-.174-.031l-4.699-1.751c-.757-.313-1.62-.301-2.367.031-.754.331-1.303.985-1.607 1.737l-4.617 13.012c-.277.781.131 1.639.912 1.916.76.274 1.639-.124 1.915-.912l2.116-5.964 3.16 2.237v3.225c0 .828.671 1.5 1.5 1.5s1.5-.672 1.5-1.5v-3.482c0-.81-.395-1.572-1.055-2.041l-2.12-1.499 1.663-4.686 2.651.989c.394.146.804.22 1.221.22h5.14c.52 0 1.003-.27 1.276-.711.272-.442.298-.995.065-1.46z"/></svg>