<svg id="Layer_1" viewBox="0 0 24 24" xmlns="http://www.w3.org/2000/svg" data-name="Layer 1"><path d="m24 13c0 2.539 0 5.165-1.036 9.825-.176.814-1.001 1.32-1.789 1.139-.809-.18-1.318-.98-1.139-1.789.964-4.34.964-6.688.964-9.175 0-4.737-3.229-8.595-7.706-9.683 2.282 1.856 3.706 4.773 3.706 8.183 0 1.152-.292 2.289-.819 3.329.529 1.246.819 2.647.819 4.171 0 2.218-.554 3.903-.577 3.975-.26.793-1.133 1.209-1.897.948-.786-.262-1.21-1.111-.948-1.897.003-.008.423-1.317.423-3.025 0-3.737-2.232-6.311-5.806-6.88 1.773 1.183 2.806 3.241 2.806 5.88 0 3.309-2.691 6-6 6-2.385 0-4.14-1.124-4.332-1.252-.689-.46-.875-1.391-.416-2.08.458-.687 1.382-.873 2.072-.422.034.022 1.198.754 2.676.754 1.654 0 3-1.346 3-3 0-1.397-.374-2.324-.934-2.933-.409.563-1.068.933-1.816.933-.877 0-1.631-.51-2.002-1.244-.302.151-.638.244-.998.244-1.252.007-2.231-1.037-2.25-2.25 0-2.347 3.377-3.75 6.643-3.75 2.985 0 5.524.99 7.344 2.687.105-2.959-1.324-5.487-3.513-6.683-.128 1.12-1.07 1.996-2.224 1.996-.877 0-1.631-.51-2.002-1.244-.302.151-.638.244-.998.244-1.137 0-2.07-.851-2.219-1.947-.103-.544.068-1.11.362-1.569.973-1.509 3.711-2.485 7.32-2.485 7.45 0 13.286 5.71 13.286 13z"/></svg>