<svg id="Layer_1" viewBox="0 0 24 24" xmlns="http://www.w3.org/2000/svg" data-name="Layer 1"><path d="m17.5 0c-3.59 0-6.5 2.91-6.5 6.5s2.91 6.5 6.5 6.5 6.5-2.91 6.5-6.5-2.91-6.5-6.5-6.5zm3.748 7.654-3.063 3.063c-.378.378-.991.378-1.369 0l-3.063-3.063c-.61-.61-.178-1.653.685-1.653h1.563v-2.501c0-.828.671-1.5 1.5-1.5s1.5.672 1.5 1.5v2.501h1.563c.863 0 1.295 1.043.685 1.653zm-8.394 14.201c.356.748.04 1.643-.708 1.999-.731.354-1.642.047-2-.708-.622-1.304-2.053-2.146-3.646-2.146s-3.024.842-3.646 2.146c-.356.747-1.25 1.066-2 .708-.748-.356-1.065-1.251-.708-1.999 1.116-2.342 3.61-3.854 6.354-3.854s5.238 1.513 6.354 3.854zm-10.354-9.855c0-2.209 1.791-4 4-4s4 1.791 4 4-1.791 4-4 4-4-1.791-4-4z"/></svg>