<svg id="Layer_1" viewBox="0 0 24 24" xmlns="http://www.w3.org/2000/svg" data-name="Layer 1"><path d="m23 10.5v8c0 3.032-2.468 5.5-5.5 5.5h-12c-3.032 0-5.5-2.468-5.5-5.5v-9c0-2.922 2.293-5.313 5.173-5.483l1.614-2.092c.45-.583 1.144-.924 1.88-.924h4.728c.717 0 1.396.324 1.847.883-.157.511-.243 1.054-.243 1.617 0 .634.107 1.243.305 1.81.288.827-.302 1.69-1.177 1.69h-8.627c-1.379 0-2.5 1.122-2.5 2.5v9c0 1.379 1.121 2.5 2.5 2.5h12c1.379 0 2.5-1.121 2.5-2.5v-8.001c0-.829.672-1.5 1.5-1.5s1.5.671 1.5 1.5zm-2.5-3.5c1.93 0 3.5-1.57 3.5-3.5s-1.57-3.5-3.5-3.5-3.5 1.57-3.5 3.5 1.57 3.5 3.5 3.5zm-4 7c0 2.757-2.243 5-5 5s-5-2.243-5-5 2.243-5 5-5 5 2.243 5 5zm-3 0c0-1.103-.897-2-2-2s-2 .897-2 2 .897 2 2 2 2-.897 2-2z"/></svg>