<svg id="Layer_1" viewBox="0 0 24 24" xmlns="http://www.w3.org/2000/svg" data-name="Layer 1"><path d="m22.795 9.008c-.482 0-.918.287-1.108.731l-.544 1.27h-2.705c.886-1.414.711-3.248-.47-4.451-.111-.114-3.862-3.425-3.97-3.526-.676-.668-1.557-1.002-2.444-1.013-.302-.307-.637-.59-1-.842-2.219-1.535-5.223-1.571-7.472-.09-2.04 1.343-3.188 3.583-3.076 5.921 0 3.431.392 5.946 2.344 7.88.07.07 4.116 3.682 4.188 3.749.946.966 2.267 1.46 3.598 1.358 1.344-.103 2.57-.794 3.375-1.914l2.849-4.073h4.782l.544 1.269c.19.443.626.73 1.108.73.666 0 1.205-.54 1.205-1.205v-4.589c0-.666-.54-1.205-1.205-1.205zm-18.063-5.417c1.101-.725 2.587-.769 3.751-.158-.493.388-4.141 3.239-5.466 4.3-.006-.258-.013-.513-.013-.797-.063-1.34.582-2.591 1.728-3.346zm6.333 12.754c-.28.389-.691.622-1.157.658-.455.035-.897-.131-1.299-.535l-4.133-3.697c-.333-.34-.501-.792-.473-1.275.028-.478.245-.903.61-1.197 1.404-1.129 5.875-4.621 6.568-5.173.254-.208.591-.121.792.12l3.878 3.44c.185.213.2.538.021.787l-4.807 6.874zm11.377 2.032c.388.417 1.557 1.978 1.557 3.123 0 .668-.26 1.295-.732 1.768s-1.1.732-1.768.732-1.295-.26-1.768-.732-.732-1.1-.732-1.768c0-1.123 1.165-2.696 1.523-3.087.554-.545 1.4-.546 1.92-.036z"/></svg>