<svg id="Layer_1" viewBox="0 0 24 24" xmlns="http://www.w3.org/2000/svg" data-name="Layer 1"><path d="m23.298 5.748c-.081-.139-.182-.261-.298-.365v-1.882c0-.829-.672-1.5-1.5-1.5s-1.5.671-1.5 1.5v.876c-.588.134-1.196.211-1.819.229-2.051.055-4.139-.606-6.073-1.925-1.296-.884-3.776-2.402-5.839-2.646-.857-.101-1.746.226-2.372.876-.722.752-.984 1.836-.686 2.829.301 1.002.82 2.113 1.488 3.216-.985.014-1.877.119-2.598.318-.841.232-1.542.876-1.876 1.723-.376.953-.218 2.049.412 2.858.858 1.103 2.444 2.24 4.179 3.211-1.45.441-2.655.979-3.495 1.58-.827.592-1.321 1.549-1.321 2.561 0 1.104.591 2.14 1.543 2.705 2.106 1.249 6.107 2.088 9.957 2.088 6.043 0 12.5-3.809 12.5-14.5 0-2.418-.585-3.55-.702-3.752zm-12.88-.589c1.653 1.127 3.428 1.873 5.22 2.222-2.455 1.11-4.908.423-5.05.382-.649-.184-1.315-.336-1.982-.458-1.109-1.368-2.047-2.98-2.468-4.255 1.039.2 2.612.973 4.28 2.109zm-7.374 4.97c1.326-.309 4.059-.235 6.701.512.163.049 3.054.891 6.253-.197-2.176 3.137-5.5 3.547-5.648 3.563-.192.019-.383.04-.572.062-2.732-1.076-5.823-2.872-6.734-3.94zm8.456 10.871c-3.252 0-6.796-.702-8.427-1.668-.047-.028-.073-.072-.073-.125 0-.063.042-.103.066-.121 1.173-.839 3.657-1.582 6.506-1.967.052.005.942-.113 1.077-.127.238-.024 5.855-.647 8.729-6.399.451-1.048 1.077-1.762 1.564-2.202.034.305.058.673.058 1.108 0 10.379-6.644 11.5-9.5 11.5z"/></svg>