<svg id="Layer_1" viewBox="0 0 24 24" xmlns="http://www.w3.org/2000/svg" data-name="Layer 1"><path d="m11 2.5c0-1.381 1.119-2.5 2.5-2.5s2.5 1.119 2.5 2.5-1.119 2.5-2.5 2.5-2.5-1.119-2.5-2.5zm-3.608 14.528s-.353.972-1.084.972h-1.808c-.828 0-1.5.672-1.5 1.5s.672 1.5 1.5 1.5h2.491c1.215 0 2.311-.733 2.774-1.857l.127-.307-1.215-.692c-.499-.314-.918-.698-1.285-1.116zm8.091-.763-.622-.354c-.924.055-1.88.089-2.861.089-1.003 0-1.99-.036-2.952-.094.186.182.387.354.617.5l3.829 2.179c.312.178.505.51.505.869v3.046c0 .828.672 1.5 1.5 1.5s1.5-.672 1.5-1.5v-3.627c0-1.079-.579-2.074-1.517-2.608zm8.579-5.246c-.175-.811-.979-1.324-1.782-1.15-1.981.428-4.883.918-8.19 1.075l.813-1.944h3.853c1.112 0 2.075-.716 2.395-1.782l1.286-4.287c.238-.793-.212-1.63-1.006-1.868-.788-.238-1.629.211-1.867 1.005l-1.18 3.931h-11.268l-1.18-3.931c-.238-.793-1.072-1.248-1.868-1.005-.793.238-1.244 1.074-1.005 1.868l1.286 4.287c.32 1.066 1.282 1.782 2.395 1.782h2.76l-.77 1.878c-2.689-.189-5.113-.569-6.863-.905-.816-.157-1.6.376-1.756 1.19s.376 1.6 1.19 1.756c2.566.493 6.505 1.081 10.696 1.081 4.433 0 8.381-.652 10.913-1.198.81-.175 1.324-.973 1.149-1.783z"/></svg>