<svg id="Layer_1" viewBox="0 0 24 24" xmlns="http://www.w3.org/2000/svg" data-name="Layer 1"><path d="m18.5 0h-13c-3.033 0-5.5 2.467-5.5 5.5v14c0 .828.671 1.5 1.5 1.5s1.5-.672 1.5-1.5v-12.5h18v6.5c0 .828.671 1.5 1.5 1.5s1.5-.672 1.5-1.5v-8c0-3.033-2.468-5.5-5.5-5.5zm-14 5c-.828 0-1.5-.672-1.5-1.5s.672-1.5 1.5-1.5 1.5.672 1.5 1.5-.672 1.5-1.5 1.5zm5 0c-.828 0-1.5-.672-1.5-1.5s.672-1.5 1.5-1.5 1.5.672 1.5 1.5-.672 1.5-1.5 1.5zm9.811 9.253c-.586-1.004-2.036-1.004-2.622 0l-4.48 7.464c-.59 1.012.14 2.283 1.311 2.283h8.96c1.171 0 1.901-1.271 1.311-2.283zm-1.311 8.747c-.552 0-1-.448-1-1s.448-1 1-1 1 .448 1 1-.448 1-1 1zm1-4c0 .552-.448 1-1 1s-1-.448-1-1v-1.5c0-.552.448-1 1-1s1 .448 1 1zm-5.5-5.584v-1.816c0-1.67-1.129-3.19-2.765-3.525-2.25-.46-4.235 1.255-4.235 3.425v1.916c-.893.52-1.5 1.476-1.5 2.584v2c0 1.657 1.343 3 3 3h2.336c.046-.097.09-.195.145-.29l3.907-6.509c-.241-.316-.542-.583-.888-.785zm-4.5-1.916c0-.551.449-1 1-1s1 .449 1 1v1.5h-2zm1 7c-.828 0-1.5-.672-1.5-1.5s.672-1.5 1.5-1.5 1.5.672 1.5 1.5-.672 1.5-1.5 1.5z"/></svg>