<?xml version="1.0" encoding="UTF-8"?>
<svg xmlns="http://www.w3.org/2000/svg" id="Layer_1" data-name="Layer 1" viewBox="0 0 24 24">
  <path d="M24,12.545c0,1.147-.798,2.363-2.283,2.45l-.151,1.193c-.31,2.452-2.217,4.365-4.593,4.743-.213,1.728-1.69,3.068-3.474,3.068H6.5c-1.93,0-3.5-1.57-3.5-3.5v-1.124c0-.705-.332-1.279-.609-1.637C.981,15.926,.165,13.801,.029,11.592c-.051-.827,.578-1.538,1.405-1.589,.832-.05,1.539,.578,1.589,1.405,.099,1.603,.699,3.155,1.736,4.489,.812,1.045,1.241,2.247,1.241,3.479v1.124c0,.275,.224,.5,.5,.5h7c.276,0,.5-.225,.5-.5v-1c0-.828,.671-1.5,1.5-1.5h.61c1.256,0,2.323-.94,2.48-2.187l.316-2.501c.095-.75,.732-1.312,1.488-1.312h.39c-.615-1.47-2.303-4.527-3.268-5.721-1.485-1.981-3.691-3.157-6.086-3.27-.828-.039-1.467-.741-1.428-1.569C10.041,.613,10.737-.006,11.57,.012c3.293,.155,6.322,1.768,8.312,4.424,.983,1.213,4.118,6.448,4.118,8.109ZM1.5,3c.828,0,1.5-.672,1.5-1.5S2.328,0,1.5,0,0,.672,0,1.5s.672,1.5,1.5,1.5Zm5,2c.828,0,1.5-.672,1.5-1.5s-.672-1.5-1.5-1.5-1.5,.672-1.5,1.5,.672,1.5,1.5,1.5ZM1,6.5c0,.828,.672,1.5,1.5,1.5s1.5-.672,1.5-1.5-.672-1.5-1.5-1.5-1.5,.672-1.5,1.5Zm6.25,6.5c.266,0,.514-.061,.75-.146v4.646c0,.828,.671,1.5,1.5,1.5s1.5-.672,1.5-1.5v-6c0-.006-.002-.012-.002-.018,.184-.14,.355-.297,.494-.482,0,0,2.254,0,2.508,0,1.105,0,2-.895,2-2,0-.908-.608-1.665-1.437-1.91-.45-.658-1.206-1.09-2.063-1.09-.25,0-.487,.048-.714,.116-.327-.659-1-1.116-1.786-1.116-1.105,0-2,.895-2,2,0,.031,.008,.059,.009,.089-.586,.204-1.009,.755-1.009,1.411v.025c-1.123,.126-2,1.068-2,2.225,0,1.243,1.007,2.25,2.25,2.25Z"/>
</svg>
