<svg id="Layer_1" viewBox="0 0 24 24" xmlns="http://www.w3.org/2000/svg" data-name="Layer 1"><path d="m22.5 8c-.828 0-1.5.672-1.5 1.5v3c0 1.341-1.063 2.43-2.39 2.489-.241-.918-.542-2.378-.542-3.989 0-1.804.417-3.151.664-3.792.502-1.293.24-2.724-.663-3.642-.282-.287-.61-.518-.978-.688-.298-.137-.583-.377-.783-.66-.983-1.39-2.594-2.219-4.309-2.219s-3.325.829-4.309 2.219c-.2.283-.485.523-.786.661-.364.169-.692.399-.972.685-.906.92-1.168 2.351-.667 3.641.248.644.665 1.991.665 3.795 0 1.611-.301 3.071-.542 3.989-1.327-.059-2.39-1.148-2.39-2.489v-3c0-.828-.672-1.5-1.5-1.5s-1.5.672-1.5 1.5v3c0 3.032 2.468 5.5 5.5 5.5h5v3h-3c-.828 0-1.5.672-1.5 1.5s.672 1.5 1.5 1.5h9c.828 0 1.5-.672 1.5-1.5s-.672-1.5-1.5-1.5h-3v-3h5c3.032 0 5.5-2.468 5.5-5.5v-3c0-.828-.672-1.5-1.5-1.5zm-6.565-1.875c-.396 1.023-.866 2.7-.866 4.875 0 .834.066 1.629.164 2.354-.913-.193-2.029-.354-3.232-.354s-2.319.162-3.232.354c.098-.725.164-1.521.164-2.354 0-2.175-.471-3.852-.867-4.878-.087-.272-.067-.436.096-.517.774-.356 1.478-.943 1.98-1.654.422-.596 1.116-.951 1.859-.951s1.437.355 1.859.951c.503.711 1.206 1.298 1.978 1.653.168.08.186.241.098.521z"/></svg>