<svg id="Layer_1" viewBox="0 0 24 24" xmlns="http://www.w3.org/2000/svg" data-name="Layer 1"><path d="m22.5 19h-.5v-14h.5c.828 0 1.5-.671 1.5-1.5s-.672-1.5-1.5-1.5h-6.551c-.232-1.14-1.242-2-2.449-2h-3c-1.208 0-2.217.86-2.449 2h-6.551c-.828 0-1.5.671-1.5 1.5s.672 1.5 1.5 1.5h.5v14h-.5c-.828 0-1.5.671-1.5 1.5s.672 1.5 1.5 1.5h6.551c.232 1.14 1.242 2 2.449 2h3c1.208 0 2.217-.86 2.449-2h6.551c.828 0 1.5-.671 1.5-1.5s-.672-1.5-1.5-1.5zm-12.178 0 8.678-2.297v2.297zm-5.322-3.591 14-3.706v1.896l-14 3.706zm14-8.706v1.896l-14 3.706v-1.896zm-5.292-1.703-8.708 2.305v-2.305z"/></svg>