<svg id="Layer_1" viewBox="0 0 24 24" xmlns="http://www.w3.org/2000/svg" data-name="Layer 1"><path d="m18.4 11.8v6.4c0 .442-.358.8-.8.8s-.8-.358-.8-.8v-6.4c0-.442.358-.8.8-.8s.8.358.8.8zm-10.357-.8c1.401 0 2.582 1.147 2.556 2.548-.026 1.358-1.135 2.452-2.5 2.452h-.5v2.2c0 .442-.358.8-.8.8s-.8-.358-.8-.8v-6.4c0-.442.358-.8.8-.8zm.056 1.6h-.5v1.8h.5c.496 0 .9-.404.9-.9s-.404-.9-.9-.9zm2.572 5.543 1.2-5.976c.103-.58.628-1.167 1.385-1.167s1.226.524 1.346 1.192l1.221 5.947c.091.444-.248.86-.701.86h-.01c-.347 0-.644-.249-.705-.591l-.157-.883h-2.006l-.166.889c-.063.339-.359.585-.704.585-.452 0-.791-.414-.702-.857zm1.94-2.142h1.261l-.638-3.295-.624 3.295zm11.388-2.701v3.4c0 1.27-1.03 2.3-2.3 2.3h-1.5c-.442 0-.8-.358-.8-.8v-6.4c0-.442.358-.8.8-.8h1.5c1.27 0 2.3 1.03 2.3 2.3zm-1.6 0c0-.386-.314-.7-.7-.7s-.7 0-.7 0v4.802s.314 0 .7 0 .7-.314.7-.7v-3.4zm-2.4-5.8v-2.002c.001-3.031-2.466-5.497-5.499-5.498h-9c-3.033 0-5.5 2.465-5.5 5.497v13.006c0 3.032 2.467 5.497 5.5 5.497h10c.829 0 1.5-.672 1.5-1.5s-.672-1.5-1.5-1.5l-10 .003c-1.378 0-2.5-1.121-2.5-2.5v-13.006c0-1.379 1.122-2.5 2.5-2.5h9c1.378.002 2.5 1.123 2.5 2.501v2.002c0 .828.671 1.5 1.5 1.5s1.5-.672 1.5-1.5zm-5-1c0-.828-.671-1.5-1.5-1.5h-6.999c-.829 0-1.5.672-1.5 1.5s.671 1.5 1.5 1.5h7c.829 0 1.5-.672 1.5-1.5z"/></svg>