<svg id="Layer_1" viewBox="0 0 24 24" xmlns="http://www.w3.org/2000/svg" data-name="Layer 1"><path d="m24 12.546c0 1.146-.799 2.362-2.283 2.449l-.15 1.193c-.311 2.452-2.218 4.365-4.593 4.743-.214 1.728-1.689 3.068-3.474 3.068h-6c-1.93 0-3.5-1.57-3.5-3.5v-2.379l-2.561-2.561c-.281-.281-.439-.663-.439-1.061v-1.011c-.604-.456-1-1.173-1-1.989 0-1.381 1.119-2.5 2.5-2.5s2.5 1.119 2.5 2.5c0 .815-.396 1.532-1 1.989v.39l2.561 2.561c.281.281.439.663.439 1.061v3c0 .275.225.5.5.5h1.5v-10.999h-.5c-1.379 0-2.5-1.121-2.5-2.5v-2.5h-1.511c-.456.604-1.173 1-1.989 1-1.381 0-2.5-1.119-2.5-2.5s1.119-2.5 2.5-2.5c.815 0 1.532.396 1.989 1h2.011c1.379 0 2.5 1.121 2.5 2.5v2.5h.5c1.379 0 2.5 1.121 2.5 2.5v11.5h1.5c.275 0 .5-.225.5-.5v-1c0-.828.672-1.5 1.5-1.5h.609c1.257 0 2.323-.94 2.48-2.188l.315-2.5c.095-.75.732-1.312 1.488-1.312h.39c-.217-.518-.57-1.238-.976-2h-3.308c-.828 0-1.5-.672-1.5-1.5s.672-1.5 1.5-1.5h1.535c-.186-.275-.364-.528-.52-.721-1.485-1.981-3.691-3.157-6.086-3.271-.828-.039-1.467-.741-1.428-1.568s.75-1.463 1.571-1.427c3.293.155 6.323 1.768 8.312 4.424.982 1.214 4.117 6.448 4.117 8.109z"/></svg>