<svg id="Layer_1" viewBox="0 0 24 24" xmlns="http://www.w3.org/2000/svg" data-name="Layer 1"><path d="m21.999 5.5v17c0 .829-.671 1.5-1.5 1.5s-1.5-.671-1.5-1.5v-17c0-.171-.018-.338-.051-.5h-13.897c-.033.163-.051.33-.051.5v17c0 .828-.67 1.5-1.499 1.5s-1.5-.671-1.5-1.5v-17c-.001-1.469.571-2.851 1.609-3.89 1.039-1.039 2.42-1.611 3.89-1.611h8.998c3.033 0 5.5 2.467 5.5 5.5zm-7.499 3c0-1.381-1.119-2.5-2.5-2.5s-2.5 1.119-2.5 2.5 1.119 2.5 2.5 2.5 2.5-1.119 2.5-2.5zm1.5 7v2c0 1.391-.822 2.585-2 3.149v1.851c0 .829-.671 1.5-1.5 1.5h-1c-.829 0-1.5-.671-1.5-1.5v-1.851c-1.178-.564-2-1.758-2-3.149v-2c0-1.93 1.57-3.5 3.5-3.5h1c1.93 0 3.5 1.57 3.5 3.5zm-5 2c0 .276.224.5.5.5h1c.276 0 .5-.224.5-.5v-2c0-.276-.224-.5-.5-.5h-1c-.276 0-.5.224-.5.5z"/></svg>