<svg id="Layer_1" viewBox="0 0 24 24" xmlns="http://www.w3.org/2000/svg" data-name="Layer 1"><path d="m9.5 13c-.828 0-1.5-.672-1.5-1.5s.672-1.5 1.5-1.5 1.5.672 1.5 1.5-.672 1.5-1.5 1.5zm5-3c-.828 0-1.5.672-1.5 1.5s.672 1.5 1.5 1.5 1.5-.672 1.5-1.5-.672-1.5-1.5-1.5zm2.5 10.33v2.17c0 .829-.672 1.5-1.5 1.5s-1.5-.671-1.5-1.5v-1.606c-.643.063-1.304.106-2 .106s-1.357-.043-2-.106v1.606c0 .829-.672 1.5-1.5 1.5s-1.5-.671-1.5-1.5v-2.17c-4.458-1.337-7-4.618-7-9.33 0-7.222 6.037-11 12-11s12 3.778 12 11c0 4.712-2.541 7.993-7 9.33zm4-9.33c0-.535-.413-.971-.944-1h-1.806c-1.105 0-2.152-.382-2.991-1.073-1.078.183-2.285.051-3.26-.496-.963.531-2.168.68-3.259.497-.839.69-1.886 1.072-2.99 1.072h-1.838c-.488.018-.912.458-.912 1 0 .551.448 1 1 1h.749c.707 0 1.318.494 1.467 1.186.638 2.974 3.499 4.814 5.784 4.814s5.146-1.841 5.784-4.814c.148-.692.76-1.186 1.467-1.186h.749c.552 0 1-.449 1-1zm-16.918-3.999h1.668c.533 0 1.033-.251 1.372-.686.435-.557 1.2-.737 1.839-.428.096.046.312.122.758.114.481 0 .911-.175 1.24-.493.582-.56 1.5-.56 2.082 0 .349.337.828.492 1.287.494.416 0 .621-.07.711-.114.639-.311 1.404-.13 1.839.428.339.436.839.686 1.372.686h1.668c-1.606-2.635-4.772-4-7.918-4s-6.313 1.366-7.918 4.001zm9.833 6.999h-3.831c-.506 0-.795.612-.447.98.592.628 1.431 1.02 2.362 1.02s1.77-.392 2.362-1.02c.347-.368.059-.98-.447-.98z"/></svg>