<svg id="Layer_1" viewBox="0 0 24 24" xmlns="http://www.w3.org/2000/svg" data-name="Layer 1"><path d="m20 5.213v-2.305c.581-.207 1-.756 1-1.408 0-.828-.672-1.5-1.5-1.5h-1c-.828 0-1.5.672-1.5 1.5 0 .652.419 1.201 1 1.408v2.092h-5v-2.092c.581-.207 1-.756 1-1.408 0-.828-.672-1.5-1.5-1.5h-1c-.828 0-1.5.672-1.5 1.5 0 .652.419 1.201 1 1.408v2.092h-5v-2.092c.581-.207 1-.756 1-1.408 0-.828-.672-1.5-1.5-1.5h-1c-.828 0-1.5.672-1.5 1.5 0 .652.419 1.201 1 1.408v2.305c-2.305.656-4 2.775-4 5.287v5c0 3.032 2.468 5.5 5.5 5.5h5v1.5c0 .828.672 1.5 1.5 1.5s1.5-.672 1.5-1.5v-1.5h5c3.032 0 5.5-2.468 5.5-5.5v-5c0-2.512-1.695-4.631-4-5.287zm1 10.287c0 1.379-1.121 2.5-2.5 2.5h-13c-1.379 0-2.5-1.121-2.5-2.5v-5c0-1.379 1.121-2.5 2.5-2.5h13c1.379 0 2.5 1.121 2.5 2.5z"/></svg>