<svg id="Layer_1" viewBox="0 0 24 24" xmlns="http://www.w3.org/2000/svg" data-name="Layer 1"><path d="m24 5.735v5.38c0 2.673-1.604 5.042-4.085 6.035l-.915.366v.484c0 1.675-1.036 3.107-2.5 3.703v.797c0 .829-.672 1.5-1.5 1.5s-1.5-.671-1.5-1.5v-.797c-1.464-.595-2.5-2.028-2.5-3.703v-1.615c0-2.673 1.604-5.042 4.085-6.035l.915-.366v-1.215c-.981.12-2.334.23-4 .23s-3.018-.11-4-.23v1.73c0 .829-.672 1.5-1.5 1.5s-1.5-.671-1.5-1.5v-3.437c0-.454.225-.926.578-1.211.354-.284.854-.401 1.297-.305.216.049 2.063.453 5.125.453s4.909-.403 5.11-.449c.449-.103.954.013 1.312.301.354.285.578.757.578 1.211v3.599c0 .824-.495 1.554-1.261 1.858l-1.54.616c-1.336.535-2.199 1.811-2.199 3.25v1.615c0 .551.448 1 1 1s1-.449 1-1v-1.162c0-.824.495-1.554 1.261-1.858l1.54-.616c1.336-.535 2.199-1.811 2.199-3.25v-5.379c0-.86-.394-1.649-1.079-2.164-.701-.526-1.596-.687-2.448-.439-1.985.577-3.826.869-5.473.869s-3.487-.292-5.472-.869c-.854-.248-1.747-.086-2.449.439-.686.515-1.079 1.304-1.079 2.164v5.765c0 .829-.672 1.5-1.5 1.5s-1.5-.671-1.5-1.5v-5.765c0-1.813.83-3.476 2.278-4.563 1.465-1.1 3.317-1.435 5.087-.922 1.712.498 3.271.75 4.635.75s2.923-.252 4.636-.75c1.768-.513 3.621-.178 5.086.921 1.448 1.087 2.278 2.75 2.278 4.563zm-18 8.366v2.587c.5.688 1 1.562 1 2.312 0 1.105-.895 2-2 2s-2-.895-2-2c0-.75.5-1.625 1-2.312v-2.587c-2.282.463-4 2.48-4 4.899 0 2.761 2.239 5 5 5s5-2.239 5-5c0-2.419-1.718-4.436-4-4.899z"/></svg>