<svg id="Layer_1" viewBox="0 0 24 24" xmlns="http://www.w3.org/2000/svg" data-name="Layer 1"><path d="m22.5 7h-2.5v-2h2.5c.828 0 1.5-.672 1.5-1.5s-.672-1.5-1.5-1.5h-2.5v-.5c0-.828-.672-1.5-1.5-1.5-.652 0-1.201.419-1.408 1h-2.092c-2.231 0-4.103 1.479-4.745 3.5h-3.755c-3.584 0-6.5 2.916-6.5 6.5v11.5c0 .828.672 1.5 1.5 1.5s1.5-.672 1.5-1.5v-11.5c0-1.93 1.57-3.5 3.5-3.5h3.755c.642 2.021 2.514 3.5 4.745 3.5h2.092c.207.581.756 1 1.408 1 .828 0 1.5-.672 1.5-1.5v-.5h2.5c.828 0 1.5-.672 1.5-1.5s-.672-1.5-1.5-1.5zm-9.5-1c0-1.103.897-2 2-2h2v4h-2c-1.103 0-2-.897-2-2zm8 8c-1.654 0-3 1.346-3 3v4c0 1.654 1.346 3 3 3s3-1.346 3-3v-4c0-1.654-1.346-3-3-3zm1 7c0 .552-.448 1-1 1s-1-.448-1-1v-4c0-.552.448-1 1-1s1 .448 1 1zm-9-4v4c0 .552.448 1 1 1s1-.448 1-1 .447-1 1-1 1 .447 1 1c0 1.654-1.346 3-3 3s-3-1.346-3-3v-4c0-1.654 1.346-3 3-3s3 1.346 3 3c0 .553-.447 1-1 1s-1-.447-1-1-.448-1-1-1-1 .448-1 1zm-6-.5v1.5h1c.553 0 1 .447 1 1s-.447 1-1 1h-1v1.5c0 .275.225.5.5.5h1.5c.553 0 1 .447 1 1s-.447 1-1 1h-1.5c-1.379 0-2.5-1.121-2.5-2.5v-5c0-1.379 1.121-2.5 2.5-2.5h1.5c.553 0 1 .447 1 1s-.447 1-1 1h-1.5c-.275 0-.5.225-.5.5z"/></svg>