<svg id="Layer_1" viewBox="0 0 24 24" xmlns="http://www.w3.org/2000/svg" data-name="Layer 1"><path d="m20.027 23.904c-.776.29-1.641-.102-1.931-.878-.903-2.406-3.351-4.023-6.092-4.023s-5.197 1.617-6.099 4.023c-.29.784-1.176 1.167-1.931.878-.776-.291-1.169-1.155-.878-1.931 1.339-3.571 4.916-5.971 8.901-5.971s7.569 2.399 8.908 5.971c.291.775-.102 1.64-.877 1.931zm-15.022-16.809c-.068-3.89 3.108-7.097 6.995-7.093 3.86 0 7 3.14 7 7-.014 1.904-.772 3.665-2.035 4.928.058-.706.038-1.635-.041-2.297-.556.427-1.214.835-1.932 1.093.025.515-.012 1.107-.062 1.529-.119 1.002-.977 1.746-1.986 1.746h-1.886c-1.009 0-1.868-.744-1.986-1.746-.05-.422-.087-1.015-.062-1.529-.719-.258-1.376-.665-1.932-1.093-.079.662-.1 1.592-.041 2.297-1.237-1.244-2.001-2.957-2.03-4.834zm3.055-.685-.028.057c.694.722 1.746 1.535 2.468 1.535h3.001c.722 0 1.773-.812 2.468-1.535l-.028-.056c-.289-1.924-1.937-3.408-3.94-3.408s-3.651 1.485-3.94 3.408z"/></svg>