<svg id="Layer_1" viewBox="0 0 24 24" xmlns="http://www.w3.org/2000/svg" data-name="Layer 1"><path d="m22.5 18h-5.756l-2.069-1.402 5.567-3.772c.772-.523 1.233-1.394 1.233-2.326s-.461-1.803-1.233-2.326l-5.567-3.772 2.069-1.402h5.756c.828 0 1.5-.672 1.5-1.5s-.672-1.5-1.5-1.5h-21c-.828 0-1.5.672-1.5 1.5s.672 1.5 1.5 1.5h5.756l2.069 1.402-5.567 3.772c-.772.523-1.233 1.394-1.233 2.326s.461 1.803 1.233 2.326l5.567 3.772-2.069 1.402h-5.756c-.828 0-1.5.672-1.5 1.5s.672 1.5 1.5 1.5h.5c0 1.657 1.343 3 3 3s3-1.343 3-3h8c0 1.657 1.343 3 3 3s3-1.343 3-3h.5c.828 0 1.5-.672 1.5-1.5s-.672-1.5-1.5-1.5zm-16.826-7.5 6.326-4.286 6.326 4.286-6.326 4.286z"/></svg>