<svg id="Layer_1" viewBox="0 0 24 24" xmlns="http://www.w3.org/2000/svg" data-name="Layer 1"><path d="m15.707 8.425c.437-.919 1.007-2.238 1.471-3.724l3.64-3.64c.586-.586 1.535-.586 2.121 0s.586 1.535 0 2.121l-4.54 4.54c-1.11.25-2.056.513-2.693.704zm8.286 1.929c.08.824-.523 1.558-1.348 1.638-2.392.234-4.947 1.024-5.825 1.313-2.69 2.942-4.078 5.016-7.784 8.705-1.469 1.587-2.828 1.996-4.271 1.989-1.113 0-2.201-.451-2.994-1.242l-.522-.522c-.831-.832-1.283-1.976-1.241-3.14.05-1.358.383-2.564 1.85-4.03 2.546-2.576 6.419-5.552 8.942-7.987.375-.667 1.817-3.348 2.22-5.818.133-.818.897-1.373 1.722-1.24.817.133 1.372.904 1.239 1.721-.471 2.895-2.024 5.842-2.532 6.749-.114.841-.424 2.906-.963 5.223.872-1.044 1.64-1.959 2.454-2.773.157-.157.347-.277.557-.352.144-.051 3.55-1.257 6.858-1.58.821-.087 1.558.522 1.639 1.347zm-17.208 9.681c1.298-1.364 2.286-4.701 3.003-8.025-.265.228-.534.458-.807.69-1.74 1.486-3.539 3.022-5.003 4.486-.87.871-.948 1.343-.973 2.018-.012.334.121.666.365.91l.521.521c.236.236.573.384.892.363.608-.009 1.05-.019 2.002-.964z"/></svg>