<svg id="Layer_1" viewBox="0 0 24 24" xmlns="http://www.w3.org/2000/svg" data-name="Layer 1"><path d="m22.301 12.465-3-1.8c-1.11-.665-2.489-.666-3.602 0l-3 1.799c-1.048.628-1.699 1.779-1.699 3.001v3.066c0 1.223.651 2.372 1.698 3.001l3.001 1.801c1.112.667 2.49.666 3.603 0l2.999-1.801c1.048-.628 1.699-1.778 1.699-3.001v-3.066c0-1.223-.651-2.373-1.699-3.001zm-5.059.772c.159-.094.357-.096.516 0l2.313 1.388-2.571 1.543-2.571-1.543zm-2.999 5.724c-.151-.091-.242-.251-.242-.429v-2.132l2.5 1.5v2.415l-2.257-1.355zm6.514 0-2.257 1.355v-2.416l2.5-1.5v2.132c0 .178-.091.338-.243.429zm-11.962-15.19c-5.231 5.956-5.795 8.786-5.795 9.727.004 3.462 2.458 6.538 5.835 7.312.808.185 1.312.989 1.127 1.797-.159.695-.777 1.165-1.461 1.165-4.882-.839-8.499-5.353-8.501-10.272 0-2.828 2.2-6.767 6.541-11.709.93-1.058 2.217-1.69 3.624-1.781 1.422-.081 2.771.38 3.821 1.305 1.353 1.357 2.584 3.001 3.558 4.308.484.671.333 1.609-.339 2.094-.671.483-1.608.334-2.095-.339-.852-1.159-1.916-2.543-3.108-3.812-.45-.396-1.046-.598-1.653-.56-.599.038-1.153.311-1.554.766z"/></svg>