<svg id="Layer_1" viewBox="0 0 24 24" xmlns="http://www.w3.org/2000/svg" data-name="Layer 1"><path d="m23.452 16.483c.747.644.364 1.87-.617 1.974l-2.565.272 1.568 3.092c.375.739.08 1.642-.659 2.017-.723.371-1.64.087-2.017-.659l-1.549-3.054-1.726 1.578c-.723.661-1.887.148-1.887-.832v-9.458c0-1.207 1.417-1.856 2.332-1.068zm-17.452-9.983v6c0 .829.671 1.5 1.5 1.5s1.5-.671 1.5-1.5v-6c0-.829-.671-1.5-1.5-1.5s-1.5.671-1.5 1.5zm12.5-6.5h-13c-3.033 0-5.5 2.467-5.5 5.5v8c0 3.033 2.467 5.5 5.5 5.5h5c.829 0 1.5-.671 1.5-1.5s-.671-1.5-1.5-1.5h-5c-1.378 0-2.5-1.122-2.5-2.5v-8c0-1.378 1.122-2.5 2.5-2.5h13c1.378 0 2.5 1.122 2.5 2.5v5c0 .829.671 1.5 1.5 1.5s1.5-.671 1.5-1.5v-5c0-3.033-2.467-5.5-5.5-5.5z"/></svg>