<svg id="Layer_1" viewBox="0 0 24 24" xmlns="http://www.w3.org/2000/svg" data-name="Layer 1"><path d="m24 15.641c.004-.572-.042-1.356-.099-2.037-.067-.802-.703-1.438-1.505-1.505-.681-.057-1.465-.102-2.037-.099-.411 1.713-1.525 3.199-1.525 3.199l-1.072-2.788c-.434.053-.807.12-1.155.201-.887.206-1.459 1.067-1.323 1.968.159 1.091.34 2.468.273 3.61l-2.057 1.892v-8.477c.216-.256.441-.502.67-.736.823-.841 1.97-1.747 2.891-2.43.92-.682 1.186-1.959.572-2.924-.21-.33-.45-.67-.741-1.042l-3.241 1.44s.312-2.182 1.406-3.966c-.399-.404-.95-.902-1.481-1.361-.906-.781-2.244-.781-3.15 0-.531.458-1.082.957-1.481 1.361 1.093 1.783 1.406 3.966 1.406 3.966l-3.241-1.44c-.291.373-.531.712-.741 1.042-.615.966-.348 2.243.572 2.924.921.683 2.068 1.589 2.891 2.43.229.234.454.481.67.736v8.477l-2.057-1.893c-.067-1.143.114-2.519.273-3.611.136-.901-.435-1.761-1.323-1.968-.348-.081-.721-.147-1.155-.201l-1.072 2.788s-1.114-1.486-1.525-3.199c-.572-.004-1.354.042-2.035.099-.804.067-1.44.704-1.508 1.508-.058.681-.103 1.464-.1 2.036 1.713.411 3.199 1.525 3.199 1.525l-2.788 1.072c.053.434.12.807.201 1.155.206.887 1.067 1.459 1.968 1.323 1.193-.176 2.654-.359 3.896-.26l2.574 2.368c.831.782 1.797 1.176 2.951 1.176 1.256 0 2.12-.395 2.951-1.177l2.573-2.367c1.243-.099 2.703.084 3.897.26.901.136 1.761-.435 1.968-1.323.081-.348.147-.721.201-1.155l-2.788-1.072s1.486-1.114 3.199-1.525z"/></svg>