<svg id="Layer_1" viewBox="0 0 24 24" xmlns="http://www.w3.org/2000/svg" data-name="Layer 1"><path d="m11.343 3.967.063.009c.149.165.318.314.504.443.51.356 1.111.541 1.719.541.299 0 .601-.045.893-.136l1.074-.335 1.377 1.131v.846c0 .592.175 1.171.504 1.664l.273.409-.157.356c-.152.345-.237.712-.253 1.082-.309.193-.584.443-.809.743l-.377.503c-.206.275-.255.281-.418.303-1.17.155-2.141.982-2.479 2.113-.339 1.131.017 2.355.909 3.128l1.263 1.094.471.461-.249.315c-.354.447-.572.983-.632 1.545l-1.122.226c-.229-.038-.493-.083-.724-.079-.529 0-1.049.145-1.506.406l-1.216-.506c-.365-.152-.757-.23-1.152-.23h-.583l.183-.527c.278-.802.204-1.684-.204-2.428s-1.112-1.28-1.938-1.476l-.238-.056c-.137-.242-.285-.507-.423-.755.392-.851.366-1.843-.083-2.678l-.016-.03.118-1.167c.863-.446 1.472-1.293 1.598-2.287l.329-2.595c.656-.009 1.292-.233 1.81-.638l.802-.629c.275-.215.507-.475.69-.765m-1.306-3.967c-.522 0-.964.385-1.034.902l-.201 1.469-.802.629h-.288c-1.293 0-2.411.965-2.599 2.245l-.377 2.972-.675.158c-.434.101-.756.468-.801.912l-.308 3.058c-.021.207.021.416.119.599l.301.558c-.446.759-.463 1.688-.034 2.467.213.388.471.85.687 1.227.341.595.92 1.027 1.59 1.186l.449.107-.419 1.206c-.169.486-.181 1.003-.037 1.494.303 1.041 1.273 1.812 2.359 1.812h1.331l2.195.913c.19.091.424.091.631.087.273 0 .534-.107.729-.297.087-.085.186-.21.297-.375.28.033.781.173 1.057.078l2.014-.406.766-.027c.572 0 1.008-.504 1.014-1.076v-1.397l.327-.412c.885-1.116.926-2.681-.092-3.676l-.775-.758-1.331-1.154c1.049-.139 1.783-.623 2.424-1.477l.376-.501h.802c.342 0 .662-.167.857-.448.195-.28.24-.638.122-.959l-.374-1.007.591-1.338c.144-.327.112-.704-.086-1.001l-.868-1.302v-1.771c0-.315-.143-.614-.389-.812l-2.907-2.389c-.188-.152-.419-.231-.654-.231-.104 0-.209.016-.311.048l-2.083.65c-.027-.554-.566-.96-1.128-.96h-.714l-1.075-.811c-.175-.123-.46-.189-.674-.189z"/></svg>