<svg id="Layer_1" viewBox="0 0 24 24" xmlns="http://www.w3.org/2000/svg" data-name="Layer 1"><path d="m12.4 10.3v3.4c0 .386-.314.7-.7.7s-.7-.314-.7-.7v-3.4c0-.386.314-.7.7-.7s.7.314.7.7zm-5.9-.7h-.9v1.8h.9c.496 0 .9-.404.9-.9s-.404-.9-.9-.9zm11 0h-.9v1.8h.9c.496 0 .9-.404.9-.9s-.404-.9-.9-.9zm6.341 5.585c.468.878-.146 1.924-1.189 2.021l-3.179.298.263 2.222c.111.935-.969 1.585-1.83 1.101l-3.238-1.821-1.64 2.46c-.475.713-1.582.713-2.057 0l-1.64-2.46-3.238 1.821c-.861.484-1.94-.165-1.83-1.101l.263-2.222-3.179-.298c-1.042-.098-1.657-1.143-1.189-2.021l1.699-3.185-1.698-3.185c-.468-.878.146-1.924 1.189-2.021l3.179-.298-.263-2.222c-.111-.935.969-1.585 1.83-1.101l3.238 1.821 1.64-2.46c.475-.713 1.582-.713 2.057 0l1.64 2.46 3.238-1.821c.861-.484 1.94.165 1.83 1.101l-.263 2.222 3.179.298c1.042.098 1.657 1.143 1.189 2.021l-1.699 3.185 1.699 3.185zm-14.841-4.685c0-1.381-1.119-2.5-2.5-2.5h-1.7c-.442 0-.8.358-.8.8v6.4c0 .442.358.8.8.8.442 0 .8-.358.8-.8v-2.2h.922c1.375 0 2.492-1.125 2.478-2.5zm5-.2c0-1.269-1.031-2.3-2.3-2.3s-2.3 1.031-2.3 2.3v3.4c0 1.269 1.031 2.3 2.3 2.3s2.3-1.031 2.3-2.3zm6 .2c0-1.381-1.119-2.5-2.5-2.5h-1.7c-.442 0-.8.358-.8.8v6.4c0 .442.358.8.8.8.442 0 .8-.358.8-.8v-2.2h.922c1.375 0 2.492-1.125 2.478-2.5z"/></svg>