<svg id="Layer_1" viewBox="0 0 24 24" xmlns="http://www.w3.org/2000/svg" data-name="Layer 1"><path d="m23.561 21.438-5.518-5.513c1.224-1.659 1.957-3.702 1.957-5.917 0-5.511-4.483-9.996-9.995-9.999 0 0-.001 0-.002 0h-.003s0 0 0 0c-5.513.002-9.997 4.488-9.997 10s4.483 9.997 9.995 10h.002.003s0 0 0 0c2.216 0 4.258-.735 5.917-1.96l5.518 5.513c.586.585 1.536.585 2.122 0 .585-.587.585-1.536 0-2.122zm-13.559-4.43c-3.859 0-6.999-3.141-6.999-7s3.14-6.998 6.998-6.999c3.859 0 6.999 3.141 6.999 7s-3.14 6.999-6.998 7zm2.498-10.009v-.5c0-.828-.672-1.5-1.5-1.5h-2c-.828 0-1.5.672-1.5 1.5v.5c-1.381 0-2.5 1.119-2.5 2.5v2c0 1.381 1.119 2.5 2.5 2.5h5c1.381 0 2.5-1.119 2.5-2.5v-2c0-1.381-1.119-2.5-2.5-2.5zm-2 4h-1c-.552 0-1-.448-1-1s.448-1 1-1h1c.552 0 1 .448 1 1s-.448 1-1 1z"/></svg>