<svg id="Layer_1" viewBox="0 0 24 24" xmlns="http://www.w3.org/2000/svg" data-name="Layer 1"><path d="m7 7.028c0-1.72 1.068-2.528 1.868-2.528.473 0 .879.095 1.209.216.148-1.038.518-2.308 1.399-3.274.874-.957 2.059-1.441 3.523-1.441.552 0 1 .448 1 1s-.448 1-1 1c-.889 0-1.557.257-2.042.786-.474.516-.714 1.214-.841 1.863.286-.086.616-.148.994-.148.8 0 1.889.808 1.889 2.528 0 2.194-1.791 3.972-4 3.972s-4-1.778-4-3.972zm17 12.472c0 2.481-2.019 4.5-4.5 4.5h-15.289c-1.425 0-2.729-.773-3.321-1.971-.45-.911-.89-1.935-.89-3.529 0-2.078 0-5.555 3.361-9.476.539-.63 1.486-.702 2.115-.163s.702 1.486.163 2.115c-.602.702-1.061 1.377-1.42 2.024h15.254l-2.41-1.927c-.647-.517-.752-1.461-.234-2.108.518-.646 1.461-.751 2.108-.234l2.623 2.097c1.551 1.241 2.44 3.091 2.44 5.077v3.596zm-3-2c0-.827-.673-1.5-1.5-1.5h-8.777c.172.295.277.634.277 1 0 1.105-.895 2-2 2s-2-.895-2-2c0-.366.106-.705.277-1h-3.066c-.317 0-.558.151-.631.301-.35.708-.58 1.243-.58 2.199s.229 1.491.58 2.2c.074.149.314.3.631.3h11.066c-.172-.295-.277-.634-.277-1 0-1.105.895-2 2-2s2 .895 2 2c0 .366-.106.705-.277 1h.777c.827 0 1.5-.673 1.5-1.5z"/></svg>