<svg id="Layer_1" viewBox="0 0 24 24" xmlns="http://www.w3.org/2000/svg" data-name="Layer 1"><path d="m23.905 13.636c0 1.066-.717 2.194-2.052 2.346l-.053.507c-.271 2.147-1.824 3.84-3.817 4.351-.172 1.771-1.668 3.159-3.483 3.159h-6c-1.93 0-3.5-1.57-3.5-3.5v-1.012c0-.359-.146-.719-.409-1.015-1.083-1.208-1.784-2.364-2.145-3.531-.244-.792.2-1.631.991-1.875.797-.246 1.631.201 1.876.992.227.734.735 1.547 1.513 2.415.758.847 1.174 1.917 1.174 3.015v1.012c0 .276.225.5.5.5h6c.275 0 .5-.224.5-.5v-1c0-.829.672-1.5 1.5-1.5h.218c1.065 0 1.969-.797 2.103-1.854l.188-1.802c.08-.764.724-1.344 1.492-1.344h.158c-.573-1.397-1.955-4.068-2.778-5.086-.796-1.06-1.811-1.858-2.968-2.351-.762-.324-1.117-1.205-.792-1.967.323-.762 1.202-1.118 1.968-.792 1.642.699 3.08 1.829 4.158 3.267 1.067 1.318 3.659 6.115 3.659 7.566zm-18.905-5.136c0-.138-.019-.271-.041-.402l1.596-1.306 1.812 1.482c.867.554 1.567.723 2.633.726.553 0 1-.448 1-1s-.447-1-1-1c-.619 0-.9-.045-1.439-.333l-1.426-1.167 1.426-1.167c.539-.289.82-.333 1.439-.333.553 0 1-.448 1-1s-.447-1-1-1c-1.066.003-1.767.173-2.633.726l-1.812 1.482-1.596-1.306c.021-.132.041-.265.041-.402 0-1.381-1.119-2.5-2.5-2.5s-2.5 1.119-2.5 2.5 1.119 2.5 2.5 2.5c.505 0 .972-.152 1.365-.409l1.111.909-1.111.909c-.393-.257-.861-.409-1.365-.409-1.381 0-2.5 1.119-2.5 2.5s1.119 2.5 2.5 2.5 2.5-1.119 2.5-2.5z"/></svg>