<svg id="Layer_1" viewBox="0 0 24 24" xmlns="http://www.w3.org/2000/svg" data-name="Layer 1"><path d="m18.5 2h-.5v-.5c0-.829-.672-1.5-1.5-1.5s-1.5.671-1.5 1.5v.5h-6v-.5c0-.829-.672-1.5-1.5-1.5s-1.5.671-1.5 1.5v.5h-.5c-3.032 0-5.5 2.467-5.5 5.5v11c0 3.033 2.468 5.5 5.5 5.5h13c3.032 0 5.5-2.467 5.5-5.5v-11c0-3.033-2.468-5.5-5.5-5.5zm-15.5 16.5v-9.5h7.5v12h-5c-1.379 0-2.5-1.122-2.5-2.5zm15.5 2.5h-5v-12h7.5v9.5c0 1.378-1.121 2.5-2.5 2.5zm-1.25-10c-1.241 0-2.25 1.009-2.25 2.25v3.5c0 1.241 1.009 2.25 2.25 2.25s2.25-1.009 2.25-2.25v-3.5c0-1.241-1.009-2.25-2.25-2.25zm.65 5.75c0 .358-.292.65-.65.65s-.65-.292-.65-.65v-3.5c0-.358.292-.65.65-.65s.65.292.65.65zm-8.9-1v1c0 1.309-1.122 2.36-2.456 2.241-1.169-.104-2.044-1.123-2.044-2.296 0-.384.311-.695.695-.695h.155c.414 0 .75.336.75.75 0 .387.339.695.736.644.328-.042.564-.337.564-.667v-.977c0-.358-.292-.65-.65-.65-.118 0-.76.002-1.447.004-.443.001-.803-.357-.803-.8v-2.504c0-.442.358-.8.8-.8h2.9c.442 0 .8.358.8.8s-.358.8-.8.8h-2.1v.9h.65c1.243 0 2.25 1.007 2.25 2.25z"/></svg>