<?xml version="1.0" encoding="UTF-8"?>
<svg xmlns="http://www.w3.org/2000/svg" id="Layer_1" data-name="Layer 1" viewBox="0 0 24 24">
  <path d="M19,5.5c0-1.381,1.119-2.5,2.5-2.5s2.5,1.119,2.5,2.5-1.119,2.5-2.5,2.5-2.5-1.119-2.5-2.5Zm4.287,7.466c-.294-1.178-.981-2.24-1.938-2.992l-5.158-4.053c-.12-.094-.191-.241-.191-.393V1.5c0-.828-.672-1.5-1.5-1.5h-2c-.373,0-.732,.139-1.009,.39L1.801,9.199c-1.145,1.04-1.801,2.523-1.801,4.07v9.23c0,.828,.672,1.5,1.5,1.5s1.5-.672,1.5-1.5V13.27c0-.703,.298-1.377,.818-1.85L13,3.072v2.456c0,1.081,.487,2.084,1.338,2.752l2.28,1.791-2.902,3.523-1.57-1.57c-.661-.661-1.54-1.025-2.475-1.025h-3.172c-.828,0-1.5,.672-1.5,1.5s.672,1.5,1.5,1.5h3.172c.132,0,.26,.054,.354,.146l1.936,1.854h-1.953c-1.048,0-2.031,.463-2.676,1.244l-1.968,2.274c-.542,.627-.474,1.574,.153,2.116,.623,.54,1.572,.475,2.116-.153l1.989-2.301c.095-.115,.235-.181,.385-.181h3.947c1.114-.012,2.312-.585,3.207-1.644l3.146-3.862c.024-.016,.671,2.617,.691,2.69v3.315c0,.828,.672,1.5,1.5,1.5s1.5-.672,1.5-1.5v-3.5c0-.123-.015-.245-.045-.364l-.668-2.67Z"/>
</svg>
