<svg id="Layer_1" viewBox="0 0 24 24" xmlns="http://www.w3.org/2000/svg" data-name="Layer 1"><path d="m4.456 14.344c.639.528.728 1.473.2 2.112-.531.641-1.477.726-2.112.2-1.569-1.297-2.544-3.465-2.544-5.656 0-3.86 2.967-7 6.613-7h.865c-.043-.879-.15-1.47-.335-1.859-.354-.749-.033-1.643.716-1.997s1.643-.035 1.997.715c.312.661.496 1.437.582 2.487.158-.727.468-1.588 1.09-2.21.72-.72 1.733-1.007 2.472-1.104.567-.074 1.042.401.968.968-.096.739-.383 1.752-1.103 2.472-.301.301-.658.525-1.027.701 2.763.645 4.875 3.093 5.136 6.202.069.826-.544 1.551-1.369 1.62-.834.073-1.551-.543-1.621-1.369-.17-2.033-1.751-3.625-3.598-3.625h-4.773c-1.992 0-3.613 1.794-3.613 4 0 1.3.571 2.613 1.456 3.344zm19.544 4.156c0-.652-.419-1.201-1-1.408v-.592c0-.829-.672-1.5-1.5-1.5-.176 0-.343.036-.5.092v-.592c0-.829-.672-1.5-1.5-1.5s-1.5.671-1.5 1.5v2.5h-6v-2.5c0-.829-.672-1.5-1.5-1.5s-1.5.671-1.5 1.5v.592c-.157-.056-.324-.092-.5-.092-.828 0-1.5.671-1.5 1.5v.592c-.581.207-1 .756-1 1.408s.419 1.201 1 1.408v.592c0 .829.672 1.5 1.5 1.5.176 0 .343-.036.5-.092v.592c0 .829.672 1.5 1.5 1.5s1.5-.671 1.5-1.5v-2.5h6v2.5c0 .829.672 1.5 1.5 1.5s1.5-.671 1.5-1.5v-.592c.157.056.324.092.5.092.828 0 1.5-.671 1.5-1.5v-.592c.581-.207 1-.756 1-1.408z"/></svg>