<svg id="Layer_1" viewBox="0 0 24 24" xmlns="http://www.w3.org/2000/svg" data-name="Layer 1"><path d="m7.026 18c-.635.838-1.026 1.87-1.026 3s.391 2.162 1.026 3h-2.026c-2.967 0-5-2.239-5-5v-13.5c0-3.032 2.468-5.5 5.5-5.5h5c.828 0 1.5.672 1.5 1.5s-.672 1.5-1.5 1.5h-5c-1.379 0-2.5 1.121-2.5 2.5v12.5zm14.974.184v-.184c0-3.309-2.691-6-6-6s-6 2.691-6 6v.184c-1.163.413-2 1.512-2 2.816 0 1.657 1.343 3 3 3h.5c.828 0 1.5-.672 1.5-1.5v-4.5c0-1.654 1.346-3 3-3s3 1.346 3 3v4.5c0 .828.672 1.5 1.5 1.5h.5c1.657 0 3-1.343 3-3 0-1.304-.837-2.403-2-2.816zm-6.5-10.184c.275 0 .5.225.5.5 0 .828.672 1.5 1.5 1.5s1.5-.672 1.5-1.5c0-1.93-1.57-3.5-3.5-3.5-.828 0-1.5.672-1.5 1.5s.672 1.5 1.5 1.5zm0-5c3.032 0 5.5 2.468 5.5 5.5 0 .828.672 1.5 1.5 1.5s1.5-.672 1.5-1.5c0-4.687-3.813-8.5-8.5-8.5-.828 0-1.5.672-1.5 1.5s.672 1.5 1.5 1.5z"/></svg>