<svg id="Layer_1" viewBox="0 0 24 24" xmlns="http://www.w3.org/2000/svg" data-name="Layer 1"><path d="m24 10.5v8c0 3.032-2.468 5.5-5.5 5.5h-13c-3.032 0-5.5-2.468-5.5-5.5v-8c0-3.032 2.468-5.5 5.5-5.5h4c.828 0 1.5.672 1.5 1.5s-.672 1.5-1.5 1.5h-3.5v13h12.5c1.379 0 2.5-1.121 2.5-2.5v-8c0-.212-.026-.423-.079-.627-.206-.802.277-1.62 1.08-1.826.803-.208 1.62.277 1.826 1.08.114.447.173.909.173 1.373zm-15-.5c-.553 0-1 .447-1 1v1.5c0 .553.447 1 1 1s1-.447 1-1v-.5h.5c.553 0 1-.447 1-1s-.447-1-1-1zm0 5.5c-.553 0-1 .447-1 1v1.5c0 .553.447 1 1 1h1.5c.553 0 1-.447 1-1s-.447-1-1-1h-.5v-.5c0-.553-.447-1-1-1zm8 1v.5h-.5c-.553 0-1 .447-1 1s.447 1 1 1h1.5c.553 0 1-.447 1-1v-1.5c0-.553-.447-1-1-1s-1 .447-1 1zm-3.5-5.5h.955c1.149 0 2.252-.457 3.064-1.269l5.715-5.715c.85-.85 1.013-2.236.252-3.167-.875-1.07-2.456-1.129-3.409-.176l-5.808 5.808c-.813.813-1.269 1.915-1.269 3.064v.955c0 .276.224.5.5.5z"/></svg>