<svg id="Layer_1" viewBox="0 0 24 24" xmlns="http://www.w3.org/2000/svg" data-name="Layer 1"><path d="m22.499 9c-.828 0-1.498.671-1.499 1.5v4.921l-3.117-1.306c-.184-.077-.381-.115-.58-.115h-5.802c-1.378 0-2.501-1.123-2.501-2.501v-6.001c0-.667.26-1.295.732-1.767s1.1-.732 1.768-.732h2c.829 0 1.5-.671 1.5-1.5s-.671-1.499-1.5-1.499h-2c-1.469 0-2.851.571-3.889 1.609-.919.919-1.447 2.111-1.562 3.389h-.547c-1.465 0-2.845.574-3.886 1.615-1.042 1.042-1.615 2.423-1.614 3.887l.005 11.622c0 1.032.837 1.872 1.867 1.872.233 0 .467-.042.684-.133l4.443-1.863h5.5c2.73 0 4.996-2.002 5.422-4.613l3.522 1.477c.216.09.45.132.684.133 1.028 0 1.866-.839 1.868-1.871l.003-6.623c0-.828-.671-1.5-1.5-1.5zm-9.998 10h-5.802c-.199 0-.396.038-.58.115l-3.119 1.306v-9.921c0-.664.263-1.291.737-1.765.474-.475 1.101-.736 1.765-.736h.499v3.5c0 3.033 2.468 5.5 5.5 5.5h3.449c-.232 1.14-1.242 2.002-2.449 2.002zm4.499-15.5c0-1.93 1.57-3.5 3.5-3.5s3.5 1.57 3.5 3.5-1.57 3.5-3.5 3.5-3.5-1.57-3.5-3.5z"/></svg>