<?xml version="1.0" encoding="UTF-8"?>
<svg xmlns="http://www.w3.org/2000/svg" id="Layer_1" data-name="Layer 1" viewBox="0 0 24 24">
  <path d="M24,7.487c-.006-1.472-.585-2.852-1.63-3.886l-2.028-2.011c-2.151-2.126-5.636-2.112-7.767,.03L1.6,12.613c-2.132,2.057-2.115,5.745,.03,7.786l2.028,2.011c2.15,2.126,5.635,2.114,7.767-.031l10.976-10.992c1.038-1.043,1.605-2.428,1.6-3.9Zm-12,6.013c.828,0,1.5,.672,1.5,1.5s-.672,1.5-1.5,1.5-1.5-.672-1.5-1.5,.672-1.5,1.5-1.5Zm-3,0c-.828,0-1.5-.672-1.5-1.5s.672-1.5,1.5-1.5,1.5,.672,1.5,1.5-.672,1.5-1.5,1.5Zm6,0c-.828,0-1.5-.672-1.5-1.5s.672-1.5,1.5-1.5,1.5,.672,1.5,1.5-.672,1.5-1.5,1.5Zm-3-3c-.828,0-1.5-.672-1.5-1.5s.672-1.5,1.5-1.5,1.5,.672,1.5,1.5-.672,1.5-1.5,1.5Zm-6.23,9.778l-2.026-2.01s0,0,0,0c-.977-.925-.984-2.605-.018-3.537l1.461-1.464,5.583,5.523-1.47,1.472c-.969,.977-2.553,.983-3.529,.017Zm14.506-11.009l-1.512,1.514-5.584-5.523,1.52-1.523c.969-.975,2.553-.983,3.53-.017l2.027,2.011c.977,.925,.983,2.605,.018,3.538ZM.882,10.502C-.482,8.384-.254,5.522,1.59,3.658L3.602,1.63C4.635,.586,6.016,.006,7.487,0h.023c1.073,0,2.096,.311,2.976,.881L.882,10.502Zm22.236,2.997c1.363,2.117,1.135,4.979-.708,6.843l-2.011,2.028c-1.036,1.045-2.417,1.624-3.888,1.63h-.022c-1.073,0-2.096-.311-2.977-.882l9.606-9.62Z"/>
</svg>
