<svg id="Layer_1" viewBox="0 0 24 24" xmlns="http://www.w3.org/2000/svg" data-name="Layer 1"><path d="m13.463 8.999c-.275-.478-.888-.644-1.366-.364l-.161.093c-.275-.235-.589-.42-.936-.543v-.184c0-.553-.447-1-1-1s-1 .447-1 1v.184c-.347.124-.661.309-.936.543l-.161-.093c-.481-.279-1.091-.113-1.366.364-.277.479-.113 1.09.364 1.366l.154.089c-.072.353-.072.739 0 1.092l-.154.089c-.478.276-.642.888-.364 1.366.185.32.521.499.866.499.17 0 .342-.043.5-.135l.161-.093c.275.235.589.419.936.543v.184c0 .553.447 1 1 1s1-.447 1-1v-.184c.347-.124.661-.309.936-.543l.161.093c.158.092.33.135.5.135.346 0 .682-.179.866-.499.277-.479.113-1.09-.364-1.366l-.154-.089c.072-.353.072-.739 0-1.092l.154-.089c.478-.276.642-.888.364-1.366zm-3.463 3.001c-.552 0-1-.448-1-1s.448-1 1-1 1 .448 1 1-.448 1-1 1zm12 4v-7.5c0-3.032-2.468-5.5-5.5-5.5h-9c-3.032 0-5.5 2.468-5.5 5.5v7.5c-1.105 0-2 .895-2 2v1.154c0 1.02.827 1.846 1.846 1.846h20.308c1.02 0 1.846-.827 1.846-1.846v-1.154c0-1.105-.895-2-2-2zm-7.231 1h-5.538l-.923-1h-3.308v-7.5c0-1.379 1.121-2.5 2.5-2.5h9c1.379 0 2.5 1.121 2.5 2.5v7.5h-3.308zm3.231-8c0 .553-.447 1-1 1h-1c-.553 0-1-.447-1-1s.447-1 1-1h1c.553 0 1 .447 1 1zm0 4c0 .553-.447 1-1 1h-1c-.553 0-1-.447-1-1s.447-1 1-1h1c.553 0 1 .447 1 1z"/></svg>