<svg id="Layer_1" viewBox="0 0 24 24" xmlns="http://www.w3.org/2000/svg" data-name="Layer 1"><path d="m18 12c-3.314 0-6 2.686-6 6s2.686 6 6 6 6-2.686 6-6-2.686-6-6-6zm2.5 8.5c-.39.39-1.023.39-1.414 0l-1.793-1.793c-.188-.188-.293-.442-.293-.707v-3c0-.552.448-1 1-1 .552 0 1 .448 1 1v2.586l1.5 1.5c.391.39.391 1.023 0 1.414zm-9.5 2c0 .829-.671 1.5-1.5 1.5h-4.181c-1.575 0-3.059-.691-4.072-1.897s-1.438-2.787-1.166-4.337l2.338-13.364c.446-2.551 2.649-4.402 5.238-4.402h8.672c2.587 0 4.79 1.849 5.238 4.397l.9 4.295c.17.811-.35 1.606-1.161 1.776-.812.167-1.605-.35-1.776-1.161l-.91-4.343c-.205-1.158-1.165-1.964-2.292-1.964h-8.671c-1.128 0-2.089.807-2.283 1.918l-2.338 13.364c-.118.676.067 1.365.509 1.891.441.525 1.088.827 1.775.827h4.181c.829 0 1.5.671 1.5 1.5zm1-18.5c.829 0 1.5.671 1.5 1.5v1c0 .829-.671 1.5-1.5 1.5s-1.5-.671-1.5-1.5v-1c0-.829.671-1.5 1.5-1.5zm-1.5 7.5c0-.828.672-1.5 1.5-1.5s1.5.672 1.5 1.5-.672 1.5-1.5 1.5-1.5-.672-1.5-1.5z"/></svg>