<svg id="Layer_1" viewBox="0 0 24 24" xmlns="http://www.w3.org/2000/svg" data-name="Layer 1"><path d="m11.57 20.99c-4.119-.193-7.465-3.124-8.34-6.99h3.42c.134.979.352 1.969.678 2.966.255.795 1.125 1.217 1.892.96.787-.257 1.217-1.104.96-1.892-.224-.686-.392-1.365-.506-2.034h.326c.828 0 1.5-.671 1.5-1.5s-.672-1.5-1.5-1.5h-.454c.249-2.842 1.497-5.346 2.454-6.894.712 1.149 1.583 2.82 2.085 4.768.203.809 1.046 1.286 1.827 1.078.802-.207 1.284-1.025 1.077-1.827-.453-1.758-1.148-3.306-1.823-4.543 2.991 1.136 5.27 3.828 5.741 7.13.114.824.894 1.392 1.697 1.272.82-.117 1.391-.877 1.273-1.697-.837-5.864-5.943-10.287-11.877-10.287-6.603.014-12.004 5.374-12 12 .003 6.355 5.043 11.756 11.501 11.988.796 0 1.46-.626 1.497-1.43.039-.828-.601-1.53-1.428-1.569zm-2.74-17.402c-1.023 1.875-2.084 4.469-2.289 7.412h-3.482c.379-3.408 2.669-6.239 5.771-7.412zm14.731 17.852-2.145-2.145c.361-.691.584-1.463.584-2.295 0-2.757-2.243-5-5-5s-5 2.243-5 5 2.243 5 5 5c.831 0 1.604-.223 2.295-.584l2.145 2.145c.293.293.677.439 1.061.439s.768-.146 1.061-.439c.586-.585.586-1.536 0-2.121zm-6.561-2.439c-1.103 0-2-.897-2-2s.897-2 2-2 2 .897 2 2-.897 2-2 2z"/></svg>