<svg id="Layer_1" viewBox="0 0 24 24" xmlns="http://www.w3.org/2000/svg" data-name="Layer 1"><path d="m24 22.5c0 .829-.671 1.5-1.5 1.5h-21c-.829 0-1.5-.671-1.5-1.5s.671-1.5 1.5-1.5h14.46l-4.144-5.406-1.407 1.945c-.447.617-1.367.614-1.81-.006l-1.151-1.611c-.22-.308-.678-.31-.901-.004l-.486.668c-.417.573-1.283.536-1.649-.071l-.801-1.329-.91 1.214c-.497.664-1.438.797-2.1.3-.396-.296-.603-.741-.601-1.2.002-.311.099-.632.3-.9l5.7-7.6v-5.5c0-.829.671-1.5 1.5-1.5h.5c.472 0 1.286.178 1.824.515l1.608 1.005c.724.452.724 1.507 0 1.959l-2.433 1.52v1.991l5.404 7.049 2.105-2.81c.593-.784 1.49-1.23 2.465-1.23s1.873.446 2.461 1.224l2.244 2.848c.217.275.322.603.322.928 0 .443-.196.882-.572 1.178-.233.184-.503.284-.778.312l-.935 1.139c-.369.449-1.057.445-1.42-.009l-1.296-1.62-1.558 2.003 2.298 2.997h2.76c.829 0 1.5.671 1.5 1.5z"/></svg>