<svg id="Layer_1" viewBox="0 0 24 24" xmlns="http://www.w3.org/2000/svg" data-name="Layer 1"><path d="m23.98 3.71c-.25 2.69-1.34 11.75-4.96 15.37-1.88 1.88-4.39 2.92-7.05 2.92-2.16 0-4.2-.69-5.9-1.95l-3.51 3.51c-.59.59-1.54.59-2.12 0s-.59-1.54 0-2.12l3.51-3.51c-.42-.57-.78-1.17-1.07-1.82-.34-.75 0-1.64.75-1.98s1.64 0 1.98.75c.15.33.33.63.52.93.59-.43 1.4-.4 1.93.13s.56 1.35.12 1.94c1.12.73 2.42 1.12 3.79 1.12 1.86 0 3.61-.73 4.93-2.04 2.02-2.02 3.3-7.16 3.88-11.62l-1.72 1.72c-.59.59-1.54.59-2.12 0s-.59-1.54 0-2.12l1.71-1.71c-.8.11-1.61.24-2.38.38-.82.15-1.6-.39-1.75-1.21s.39-1.6 1.21-1.75c2.17-.37 3.58-.58 4.94-.65.83 0 1.7.37 2.33.99.72.72 1.08 1.71.98 2.72zm-22.98.29c0-.55.45-1 1-1h1.38c.16-.25.37-.46.62-.62v-1.38c0-.55.45-1 1-1s1 .45 1 1v1.14c.15.05.29.12.42.2.73-.27 1.53-.39 2.37-.32 1.56.11 3.06.81 4.22 1.97s1.86 2.66 1.97 4.22c.11 1.64-.43 3.15-1.53 4.25-1 1-2.35 1.55-3.82 1.55-1.72 0-3.38-.72-4.65-1.99-1.16-1.16-1.86-2.66-1.97-4.22-.06-.83.06-1.63.33-2.36-.08-.13-.15-.28-.2-.43h-1.14c-.55 0-1-.45-1-1zm10.14 6.49-5.07-3.67c-.21.99.14 2.19 1.04 3.08 1.22 1.22 2.96 1.45 4.03.59zm-3.33-5.43 3.68 5.08c.85-1.07.62-2.82-.59-4.03-.73-.73-1.66-1.11-2.52-1.11-.2 0-.39.03-.57.07z"/></svg>