<svg id="Layer_1" viewBox="0 0 24 24" xmlns="http://www.w3.org/2000/svg" data-name="Layer 1"><path d="m13 2c0-1.105.895-2 2-2s2 .895 2 2-.895 2-2 2-2-.895-2-2zm-6.267 15.26c.678.48 1.491.74 2.322.74h.878c.552 0 1.062-.297 1.333-.778l2.017-3.445c.103-.171.156-.359.185-.549l1.883 1.043 1.233 3.227c-.763-.516-1.541-1.026-2.323-1.516l-1.221 2.019h4.628c1.124 0 1.898-1.127 1.496-2.176l-.947-2.466c-.289-.752-.829-1.38-1.528-1.779l-2.678-1.525.708-1.42 4.07 2.188c.716.389 1.637.126 2.032-.611.392-.73.119-1.639-.611-2.032l-6.695-3.598c-.76-.38-1.61-.581-2.46-.581h-2.488c-1.224 0-2.338.623-2.98 1.666l-.953 1.548c-.434.705-.214 1.629.491 2.063.706.434 1.63.215 2.063-.491l.953-1.548c.092-.149.251-.238.426-.238h1.624l-.802 1.58c-.507.992-.539 2.218.014 3.198l.823 1.255-.255.422c-3.541-1.924-6.834-3.232-7.771-1.917-.88 1.235 1.374 3.487 4.532 5.721zm17.064 4.083c-.417-.716-1.333-.958-2.051-.543-.537.311-1.262.236-1.805-.149-1.161-.825-2.721-.825-3.883 0-.624.443-1.493.443-2.117 0-1.161-.825-2.721-.825-3.883 0-.624.443-1.493.443-2.117 0-1.161-.825-2.721-.825-3.883 0-.543.386-1.269.46-1.805.149-.717-.417-1.634-.173-2.051.543-.417.716-.173 1.634.543 2.051 1.529.889 3.571.755 5.051-.298.129-.092.277-.092.406 0 1.64 1.166 3.954 1.166 5.594 0 .129-.092.277-.092.406 0 1.64 1.166 3.954 1.166 5.594 0 .129-.092.277-.092.406 0 .82.583 1.813.904 2.797.904.792 0 1.572-.209 2.254-.606.716-.417.959-1.334.543-2.051z"/></svg>