<svg id="Layer_1" viewBox="0 0 24 24" xmlns="http://www.w3.org/2000/svg" data-name="Layer 1"><path d="m23.797 21.344c.416.716.173 1.634-.543 2.05-.683.396-1.462.606-2.254.606-.982 0-1.976-.321-2.796-.903-.131-.093-.278-.092-.407 0-1.637 1.164-3.95 1.167-5.593 0-.131-.093-.278-.092-.407 0-1.64 1.166-3.954 1.166-5.593 0-.129-.092-.278-.092-.407 0-1.479 1.052-3.518 1.187-5.049.298-.716-.416-.96-1.333-.544-2.05.416-.716 1.334-.961 2.05-.544.539.313 1.263.237 1.805-.149 1.162-.826 2.723-.825 3.883 0 .623.443 1.492.443 2.117 0 1.163-.826 2.723-.825 3.884 0 .624.442 1.494.443 2.116 0 1.162-.826 2.722-.826 3.884 0 .539.383 1.272.458 1.804.149.717-.416 1.635-.174 2.051.543zm.203-15.844v11c0 .829-.672 1.5-1.5 1.5s-1.5-.671-1.5-1.5v-4.586l-6-6-.456.456c-.782-.23-1.607-.359-2.462-.366l1.504-1.504-1.5-1.5h-.172l-1.5 1.5 1.504 1.504c-.855.008-1.68.136-2.462.366l-.456-.456-6 6v4.586c0 .829-.671 1.5-1.5 1.5s-1.5-.671-1.5-1.5v-11c0-3.033 2.468-5.5 5.5-5.5h13c3.032 0 5.5 2.467 5.5 5.5zm-19.414 2-1.586-1.586v3.171l1.586-1.586zm1.5-4.5h-.586c-.711 0-1.35.302-1.806.78l2.306 2.306 1.586-1.586zm11.914 3.086 2.306-2.306c-.456-.478-1.095-.78-1.806-.78h-.586l-1.5 1.5zm3 2.999v-3.171l-1.586 1.586 1.586 1.586zm-5.601 7.663c-.908 0-1.815-.144-2.694-.42-.329-.104-.74-.015-1 .209-.408.365-.315 1.105.087 1.511 1.116-.043 2.243.25 3.209.903.984-.668 2.138-.959 3.279-.9.02-.029.036-.052.036-.052.462-.968.716-2.053.682-3.202-.108-3.712-3.276-6.794-6.99-6.798-3.863-.004-7.007 3.138-7.007 7 0 1.096.259 2.126.711 3.054.838-.045 1.682.1 2.464.448.757-1.58 1.718-3.034 2.393-3.631.345-.285.418-.729.305-1.14-.139-.762-1.095-1.077-1.653-.54-.834.802-1.548 1.717-2.128 2.714-.054-.294-.091-.595-.091-.905 0-2.593 1.992-4.707 4.522-4.952.704 1.088 1.171 2.321 1.364 3.617.059.409.338.765.743.849.685.18 1.321-.462 1.188-1.158-.198-1.032-.523-2.035-.96-2.989 1.838.74 3.143 2.534 3.143 4.634 0 .578-.118 1.124-.299 1.64-.432.066-.866.108-1.303.108z"/></svg>