<svg id="Layer_1" viewBox="0 0 24 24" xmlns="http://www.w3.org/2000/svg" data-name="Layer 1"><path d="m12 13c-3.038 0-5.5 2.462-5.5 5.5s2.462 5.5 5.5 5.5 5.5-2.462 5.5-5.5-2.462-5.5-5.5-5.5zm2.5 8c-.391.39-1.024.39-1.414 0l-1.793-1.793c-.188-.188-.293-.442-.293-.707v-2.5c0-.552.448-1 1-1 .552 0 1 .448 1 1v2.086l1.5 1.5c.391.39.391 1.024 0 1.414zm-9.5-5.5c0 .828-.672 1.5-1.5 1.5h-2c-.828 0-1.5-.672-1.5-1.5s.672-1.5 1.5-1.5h2c.828 0 1.5.672 1.5 1.5zm18.839-4.342c-1.739-5.545-7.051-11.158-13.839-11.158h-8.5c-.828 0-1.5.671-1.5 1.5s.672 1.5 1.5 1.5h1.48v3h-1.48c-.828 0-1.5.671-1.5 1.5s.672 1.5 1.5 1.5h18.051c.617.992 1.104 2.03 1.425 3.055.271.863-.285 1.641-.955 1.867-.785.265-1.207 1.115-.941 1.9.211.626.795 1.021 1.421 1.021.159 0 .32-.025.479-.079 2.302-.775 3.584-3.291 2.859-5.606zm-11.839-7.931c1.908.43 3.635 1.446 5.077 2.773h-5.077zm-6.02-.227h3.02v3h-3.02z"/></svg>