<svg id="Layer_1" viewBox="0 0 24 24" xmlns="http://www.w3.org/2000/svg" data-name="Layer 1"><path d="m16 21c0 1.654-1.346 3-3 3s-3-1.346-3-3 1.346-3 3-3 3 1.346 3 3zm-7.887-1h-5.113c-1.657 0-3 1.343-3 3 0 .552.448 1 1 1h8.023c-.633-.838-1.023-1.869-1.023-3 0-.345.041-.678.113-1zm15.887-18.5c0 .828-.672 1.5-1.5 1.5h-.421c-.386 0-.738.222-.903.571l-6.138 12.872c-.86-.395-1.921-.552-2.881-.358l-1.626-.809c-2.17-.978-3.18-3.849-2.091-5.988l1.786-3.729c1.067-2.234 3.758-3.184 5.993-2.121l1.386.66.862-1.815c.663-1.395 2.069-2.283 3.613-2.283h.419c.828 0 1.5.672 1.5 1.5zm-7.682 5.307-1.388-.661c-.748-.355-1.643-.037-1.998.707l-1.786 3.73c-.363.721-.027 1.67.709 2.001l1.384.703 3.079-6.481z"/></svg>