<svg id="Layer_1" viewBox="0 0 24 24" xmlns="http://www.w3.org/2000/svg" data-name="Layer 1"><path d="m18.5 11h-13c-3.033 0-5.5 2.468-5.5 5.5v2c0 3.032 2.467 5.5 5.5 5.5h13c3.032 0 5.5-2.468 5.5-5.5v-2c0-3.032-2.468-5.5-5.5-5.5zm2.5 7.5c0 1.379-1.121 2.5-2.5 2.5h-13c-1.378 0-2.5-1.121-2.5-2.5v-2c0-1.379 1.122-2.5 2.5-2.5h13c1.379 0 2.5 1.121 2.5 2.5zm-12.543-1.543-.543.543.543.543c.391.391.391 1.023 0 1.414s-1.023.391-1.414 0l-.543-.543-.543.543c-.391.391-1.023.391-1.414 0s-.391-1.023 0-1.414l.543-.543-.543-.543c-.391-.391-.391-1.023 0-1.414s1.023-.391 1.414 0l.543.543.543-.543c.391-.391 1.023-.391 1.414 0s.391 1.023 0 1.414zm5.5 0-.543.543.543.543c.391.391.391 1.023 0 1.414s-1.023.391-1.414 0l-.543-.543-.543.543c-.391.391-1.023.391-1.414 0s-.391-1.023 0-1.414l.543-.543-.543-.543c-.391-.391-.391-1.023 0-1.414s1.023-.391 1.414 0l.543.543.543-.543c.391-.391 1.023-.391 1.414 0s.391 1.023 0 1.414zm5.5 0-.543.543.543.543c.391.391.391 1.023 0 1.414s-1.023.391-1.414 0l-.543-.543-.543.543c-.391.391-1.023.391-1.414 0s-.391-1.023 0-1.414l.543-.543-.543-.543c-.391-.391-.391-1.023 0-1.414s1.023-.391 1.414 0l.543.543.543-.543c.391-.391 1.023-.391 1.414 0s.391 1.023 0 1.414zm-14.528-11.907c-.586-.585-.586-1.535 0-2.121 1.889-1.889 4.4-2.929 7.071-2.929s5.183 1.04 7.071 2.929c.586.586.586 1.536 0 2.121-.586.586-1.535.586-2.121 0-1.322-1.322-3.08-2.05-4.95-2.05s-3.627.728-4.95 2.05c-.585.586-1.535.586-2.121 0zm7.071-.05c1.336 0 2.592.52 3.535 1.464.586.586.586 1.536 0 2.122-.586.585-1.535.585-2.121 0-.756-.755-2.073-.755-2.829 0-.586.585-1.536.585-2.122 0-.585-.586-.585-1.536 0-2.122.945-.944 2.2-1.464 3.536-1.464z"/></svg>