<svg id="Layer_1" viewBox="0 0 24 24" xmlns="http://www.w3.org/2000/svg" data-name="Layer 1"><path d="m16.402 4.54c-.564-.609-.53-1.562.076-2.129l1.901-1.776c.879-.82 2.364-.819 3.241 0l1.902 1.777c.606.567.641 1.52.076 2.129-.295.319-.696.48-1.099.48-.366 0-.732-.133-1.021-.403l-1.478-1.381-1.478 1.381c-.606.568-1.556.532-2.12-.076zm5.076 2.862-1.478 1.376-1.478-1.376c-.606-.564-1.556-.529-2.12.076-.564.606-.53 1.556.076 2.12l1.902 1.77c.438.408 1.014.632 1.62.632s1.182-.225 1.621-.633l1.901-1.769c.606-.564.641-1.514.076-2.12-.564-.605-1.512-.641-2.12-.076zm-6.478 4.598v4.5c0 4.136-3.364 7.5-7.5 7.5s-7.5-3.364-7.5-7.5v-4.5c0-3.309 2.691-6 6-6v-4.5c0-.829.671-1.5 1.5-1.5s1.5.671 1.5 1.5v4.5c3.309 0 6 2.691 6 6zm-6-3v3h3c0-1.654-1.346-3-3-3zm-6 3h3v-3c-1.654 0-3 1.346-3 3zm9 4.5v-1.5h-9v1.5c0 2.481 2.019 4.5 4.5 4.5s4.5-2.019 4.5-4.5z"/></svg>