<svg id="Layer_1" viewBox="0 0 24 24" xmlns="http://www.w3.org/2000/svg" data-name="Layer 1"><path d="m21 0h-7c-1.657 0-3 1.343-3 3v3h13v-3c0-1.657-1.343-3-3-3zm-6.5 4.5c-.828 0-1.5-.672-1.5-1.5s.672-1.5 1.5-1.5 1.5.672 1.5 1.5-.672 1.5-1.5 1.5zm6.5-.5h-2c-.552 0-1-.448-1-1s.448-1 1-1h2c.552 0 1 .448 1 1s-.448 1-1 1zm-10 6c0 1.657 1.343 3 3 3h7c1.657 0 3-1.343 3-3v-3h-13zm8-1h2c.552 0 1 .448 1 1s-.448 1-1 1h-2c-.552 0-1-.448-1-1s.448-1 1-1zm-4.5-.5c.828 0 1.5.672 1.5 1.5s-.672 1.5-1.5 1.5-1.5-.672-1.5-1.5.672-1.5 1.5-1.5zm-9.5 2.5c-2.944 0-5 .822-5 2v8.269c0 1.32 1.313 2.731 5 2.731s5-1.411 5-2.731v-8.269c0-1.178-2.056-2-5-2zm2 3.856v1.882c-.417.137-1.063.262-2 .262-.943 0-1.587-.116-2-.243v-1.901c.601.093 1.273.144 2 .144s1.399-.051 2-.144zm-2 6.144c-1.088 0-1.699-.157-2-.271v-1.917c.558.116 1.215.188 2 .188.771 0 1.435-.07 2-.19v1.919c-.301.114-.912.271-2 .271zm16-4.5c0 2.481-2.019 4.5-4.5 4.5h-.5v1.223c0 .776-.939 1.165-1.488.616l-2.757-2.757c-.34-.34-.34-.892 0-1.232l2.757-2.757c.549-.549 1.488-.16 1.488.616v1.291h.5c.827 0 1.5-.673 1.5-1.5s.672-1.5 1.5-1.5 1.5.671 1.5 1.5zm-19.84-10.012c-.549-.549-.16-1.488.616-1.488h1.223v-.5c.001-2.481 2.02-4.5 4.501-4.5.828 0 1.5.671 1.5 1.5s-.672 1.5-1.5 1.5-1.5.673-1.5 1.5v.5h1.291c.776 0 1.165.939.616 1.488l-2.757 2.757c-.34.34-.892.34-1.232 0z"/></svg>