<svg id="Layer_1" viewBox="0 0 24 24" xmlns="http://www.w3.org/2000/svg" data-name="Layer 1"><path d="m22.838 7.014c-.144-.073-2.748-1.649-2.844-1.625-.06-2.981-2.499-5.389-5.494-5.389h-5c-2.996 0-5.435 2.408-5.494 5.39-.066-.037-2.78 1.6-2.9 1.661-.725.473-1.147 1.315-1.103 2.197.044.891.54 1.673 1.329 2.105l2.667 1.634v6.013c.055 2.727 2.212 5.009 5 5h6c2.593 0 4.749-1.973 5-4.5-.007-.058.004-6.279 0-6.511l2.671-1.636c.789-.432 1.284-1.214 1.329-2.104.044-.883-.377-1.725-1.162-2.234zm-13.338-4.014h5c1.378 0 2.5 1.122 2.5 2.5v5.808l-4.025 2.465c-.616.3-1.331.3-1.945 0l-4.029-2.467v-5.806c0-1.378 1.122-2.5 2.5-2.5zm3.5 19h-2c-.552 0-1-.448-1-1s.448-1 1-1h2c.552 0 1 .448 1 1s-.448 1-1 1zm4-4h-10v-3.176c.122.07 2.484 1.531 2.612 1.595 1.478.772 3.301.772 4.779 0 .144-.073 2.478-1.518 2.609-1.593zm-8-8.849v-1.701c0-.527.276-1.015.728-1.286l1.5-.9c.475-.285 1.068-.285 1.543 0l1.5.9c.452.271.728.759.728 1.286v1.701c0 .527-.276 1.015-.728 1.286l-1.5.9c-.475.285-1.068.285-1.543 0l-1.5-.9c-.452-.271-.728-.759-.728-1.286z"/></svg>