<svg id="Layer_1" viewBox="0 0 24 24" xmlns="http://www.w3.org/2000/svg" data-name="Layer 1"><path d="m22.5 3h-.776c-.621-1.742-2.271-3-4.224-3h-4.112c-3.058 0-5.893 1.653-7.398 4.314l-5.301 9.355c-.701 1.234-.872 2.666-.481 4.031.222.774.623 1.457 1.143 2.038l-1.153 2.018c-.411.719-.161 1.636.558 2.047.707.406 1.633.167 2.046-.559l1.099-1.922c.447.121.902.184 1.353.184 1.797 0 3.536-.932 4.52-2.604l1.095-1.902h6.632c1.953 0 3.602-1.258 4.224-3h.776c.829 0 1.5-.672 1.5-1.5v-8c0-.829-.671-1.5-1.5-1.5zm-5 11h-7.5c-.537 0-1.032.287-1.3.752l-1.52 2.642c-.616 1.046-1.933 1.413-3.001.834-.533-.289-.919-.77-1.086-1.353-.167-.584-.094-1.196.207-1.726l5.301-9.357c.974-1.722 2.809-2.792 4.787-2.792h4.112c.827 0 1.5.673 1.5 1.5v8c0 .827-.673 1.5-1.5 1.5zm-.751-5.891c.386.717.322 1.603-.169 2.252l-1.615 2.063c-.513.656-1.459.764-2.106.256-.652-.511-.767-1.454-.256-2.106l.451-.576c-.756-.019-1.443-.439-1.802-1.109-.386-.717-.322-1.603.169-2.252l1.627-2.078c.511-.653 1.455-.767 2.106-.256.652.511.767 1.454.256 2.106l-.462.59c.756.019 1.443.44 1.802 1.109z"/></svg>