<svg id="Layer_1" viewBox="0 0 24 24" xmlns="http://www.w3.org/2000/svg" data-name="Layer 1"><path d="m16.222 13.111c-.079-.042-2.705-1.546-2.722-1.503v-1.108c0-2.481-2.019-4.5-4.5-4.5h-4.5c-.827 0-1.5-.673-1.5-1.5s.673-1.5 1.5-1.5h4c.829 0 1.5-.671 1.5-1.5s-.671-1.5-1.5-1.5h-4c-2.481 0-4.5 2.019-4.5 4.5s2.019 4.5 4.5 4.5h4.5c.827 0 1.5.673 1.5 1.5v1.105c-.074.035-2.723 1.506-2.723 1.506-1.096.619-1.776 1.786-1.776 3.046v2.905c0 1.254.676 2.418 1.763 3.038l2.517 1.438c.528.302 1.13.462 1.737.461.591 0 1.177-.151 1.697-.439l2.485-1.38c1.111-.616 1.801-1.789 1.801-3.061v-2.962c0-1.261-.682-2.428-1.778-3.047zm-5.222 7.385-1.749-1c-.154-.088-.25-.255-.25-.434v-2.136l2 1.143v2.427zm1.002-4.157-1.91-1.091 1.658-.939c.153-.086.342-.085.493 0l1.666.942-1.906 1.089zm2.999 2.781c0 .182-.099.35-.257.438l-1.743.968v-2.454l2-1.143v2.192zm8.414-7.706c-.781.781-2.048.781-2.829 0l-7.408-7.414c-.749-.75-1.17-1.767-1.17-2.827v-.673c0-.276.224-.5.5-.5h.671c1.061 0 2.079.422 2.83 1.173l7.407 7.414c.781.781.78 2.047 0 2.828z"/></svg>