<svg id="Layer_1" viewBox="0 0 24 24" xmlns="http://www.w3.org/2000/svg" data-name="Layer 1"><path d="m18.5 0h-13c-3.033 0-5.5 2.467-5.5 5.5v1c0 .813.397 1.53 1 1.987v10.013c0 3.033 2.467 5.5 5.5 5.5h1c.829 0 1.5-.671 1.5-1.5s-.671-1.5-1.5-1.5h-1c-1.378 0-2.5-1.122-2.5-2.5v-9.5h16v9.5c0 1.378-1.122 2.5-2.5 2.5h-1c-.829 0-1.5.671-1.5 1.5s.671 1.5 1.5 1.5h1c3.033 0 5.5-2.467 5.5-5.5v-10.013c.603-.457 1-1.174 1-1.987v-1c0-3.033-2.467-5.5-5.5-5.5zm-15.5 5.5c0-1.378 1.122-2.5 2.5-2.5h13c1.378 0 2.5 1.122 2.5 2.5v.5h-18zm8.999 16.5 2.064-6h-4.129l2.064 6-5.577-5.935c-.534-.623-.564-1.532-.071-2.188l1.561-2.077c.378-.504.972-.8 1.603-.8h1.608l-1.128 3h4.008l-1.128-3h1.61c.631 0 1.224.296 1.603.8l1.561 2.077c.493.656.464 1.566-.071 2.188l-5.579 5.935z"/></svg>