<?xml version="1.0" encoding="UTF-8"?>
<svg xmlns="http://www.w3.org/2000/svg" id="Layer_1" data-name="Layer 1" viewBox="0 0 24 24">
  <path d="M16,11.5c0-1.381,1.119-2.5,2.5-2.5s2.5,1.119,2.5,2.5-1.119,2.5-2.5,2.5-2.5-1.119-2.5-2.5ZM12,3h1c.552,0,1-.447,1-1s-.448-1-1-1h-1c-.552,0-1,.447-1,1s.448,1,1,1Zm-1.526,2.851l1,.619c.462,.288,1.084,.149,1.376-.324,.291-.47,.146-1.086-.324-1.377l-1-.619c-.47-.291-1.086-.146-1.376,.324-.291,.47-.146,1.086,.324,1.377Zm-3.974-.851c1.381,0,2.5-1.119,2.5-2.5S7.881,0,6.5,0s-2.5,1.119-2.5,2.5,1.119,2.5,2.5,2.5Zm2.5,11.238v6.262c0,.828-.671,1.5-1.5,1.5s-1.5-.672-1.5-1.5v-5.5h-1v5.5c0,.828-.671,1.5-1.5,1.5s-1.5-.672-1.5-1.5v-6.262c-1.205-.808-2-2.182-2-3.738v-2c0-2.481,2.019-4.5,4.5-4.5h2c2.481,0,4.5,2.019,4.5,4.5v2c0,1.557-.795,2.93-2,3.738Zm-6-3.738c0,.827,.673,1.5,1.5,1.5h2c.827,0,1.5-.673,1.5-1.5v-2c0-.827-.673-1.5-1.5-1.5h-2c-.827,0-1.5,.673-1.5,1.5v2Zm19.31,1.635c-1.306-.45-2.727,.251-3.175,1.556l-1.365,3.991-3.403-2.406c-.38-.27-.863-.347-1.307-.209-.444,.137-.8,.472-.963,.907l-1.5,4c-.291,.775,.102,1.64,.877,1.931,.777,.294,1.641-.101,1.931-.878l.817-2.179,3.714,2.626c.504,.349,1.086,.528,1.678,.528,1.263,.001,2.41-.806,2.82-2.046l1.431-4.646c.447-1.303-.25-2.728-1.555-3.176Z"/>
</svg>
