<svg id="Layer_1" viewBox="0 0 24 24" xmlns="http://www.w3.org/2000/svg" data-name="Layer 1"><path d="m20.69 14.137c-.592-.256-1.283-.103-1.712.381l-.333.373-.385-.165c-.564-.242-1.217-.117-1.651.315-.059.008-1.291 1.395-1.368 1.289-.455-.137-1.011-.322-1.626-.527-1.428-.476-3.062-1.02-4.616-1.385v-1.918c0-1.93-1.57-3.5-3.5-3.5h-1c-1.93 0-3.5 1.57-3.5 3.5v.5c0 4.893 1.839 7.744 1.917 7.862.137.208.376.407.595.525 1.693.912 4.844 2.61 8.987 2.612h.01c1.988 0 3.957-.342 6.545-1.134.261-.073 2.575-.778 3.536-3.017.508-1.183.543-2.447.099-3.561-.39-.979-1.138-1.783-1.999-2.152zm-13.69 3.863c0 .552-.449 1-1 1s-1-.448-1-1 .449-1 1-1 1 .448 1 1zm-3-5.5c0-.276.224-.5.5-.5h1c.276 0 .5.224.5.5v1.5c-.675.035-1.351.189-1.92.513-.046-.476-.08-.973-.08-1.513zm15.833 6.166c-.406.945-1.59 1.312-1.623 1.321-2.321.71-4.027 1.013-5.702 1.013h-.008c-1.25 0-2.389-.197-3.418-.483.594-.732.996-1.718.895-2.728.938.278 1.872.588 2.689.86.647.216 1.231.41 1.709.554 1.094.329 2.274.033 3.081-.771l.551-.55.446.191c.52.224 1.115.135 1.542-.218.009.225-.03.496-.165.811zm4.167-15.166c0 .829-.671 1.5-1.5 1.5h-7.5v.5c0 .398-.158.779-.439 1.061l-1.061 1.061v.879c0 .829-.671 1.5-1.5 1.5s-1.5-.671-1.5-1.5v-.879l-1.061-1.061c-.281-.281-.439-.663-.439-1.061v-.5h-7.5c-.829 0-1.5-.671-1.5-1.5s.671-1.5 1.5-1.5h7.684c.414-1.161 1.514-2 2.816-2s2.402.839 2.816 2h7.684c.829 0 1.5.671 1.5 1.5z"/></svg>