<svg id="Layer_1" viewBox="0 0 24 24" xmlns="http://www.w3.org/2000/svg" data-name="Layer 1"><path d="m21.732 9.884c-.94-1.778-2.797-2.884-4.844-2.884h-1.614l1.325-3.091c.236-.553.777-.909 1.379-.909h2.521c.828 0 1.5-.672 1.5-1.5s-.671-1.5-1.499-1.5h-2.521c-1.803 0-3.427 1.07-4.137 2.728l-1.831 4.272h-4.9c-2.047 0-3.903 1.105-4.844 2.884-.829 1.568-1.268 3.337-1.268 5.116 0 2.613.937 5.146 2.639 7.136 1.015 1.185 2.521 1.864 4.133 1.864h8.457c1.612 0 3.118-.68 4.133-1.864 1.701-1.989 2.639-4.522 2.639-7.136 0-1.779-.438-3.548-1.268-5.116zm-3.65 10.301c-.443.519-1.119.815-1.854.815h-.246c.976-1.823 1.018-3.279 1.018-3.5 0-.82-.659-1.478-1.479-1.489-.843-.035-1.498.649-1.521 1.469-.002.074-.086 1.706-1.668 3.521h-4.561c-.734 0-1.41-.297-1.854-.815-1.236-1.445-1.918-3.286-1.918-5.185 0-1.263.295-2.468.862-3.587.662-.486 1.536-.524 2.21-.04.552.393 1.237.627 1.928.627s1.376-.234 1.928-.627c.649-.461 1.496-.461 2.144 0 .552.393 1.237.627 1.928.627s1.376-.234 1.928-.627c.674-.484 1.548-.447 2.21.04.568 1.119.862 2.323.862 3.587 0 1.898-.682 3.739-1.918 5.185z"/></svg>