<svg id="Layer_1" viewBox="0 0 24 24" xmlns="http://www.w3.org/2000/svg" data-name="Layer 1"><path d="m12 8v-2c0-3.309-2.691-6-6-6s-6 2.691-6 6v2c0 1.771.776 3.36 2 4.46v7.54c0 2.206 1.794 4 4 4s4-1.794 4-4v-7.54c1.224-1.099 2-2.688 2-4.46zm-6 3c-1.483 0-2.71-1.084-2.949-2.5h5.899c-.24 1.416-1.466 2.5-2.949 2.5zm0-8c1.483 0 2.71 1.084 2.949 2.5h-5.898c.24-1.416 1.466-2.5 2.949-2.5zm1 17c0 .552-.449 1-1 1s-1-.448-1-1v-6.09c.326.055.659.09 1 .09s.674-.035 1-.09zm13.999-9h-6c-1.65.002-2.999 1.352-2.999 3.002l.002 8.772c0 .638.524 1.088 1.089 1.088.196 0 .397-.054.583-.173l2.454-1.69h4.872c1.657 0 3-1.343 3-3v-4.999c0-1.657-1.344-3-3.001-3zm-2.999 10c-.552 0-1-.448-1-1s.448-1 1-1 1 .448 1 1-.448 1-1 1zm1.502-3.402c-.507.27-1.124.373-1.503.402-.491 0-.919-.362-.989-.862-.076-.547.305-1.052.852-1.128.244-.034.561-.108.653-.151.293-.171.485-.503.485-.859 0-.551-.449-1-1-1s-1 .449-1 1-.448 1-1 1-1-.448-1-1c0-1.654 1.346-3 3-3s3 1.346 3 3c0 1.067-.574 2.062-1.498 2.598z"/></svg>