<svg id="Layer_1" viewBox="0 0 24 24" xmlns="http://www.w3.org/2000/svg" data-name="Layer 1"><path d="m10 22.5c0 .828-.671 1.5-1.5 1.5h-3c-3.033 0-5.5-2.468-5.5-5.5v-13c0-3.032 2.467-5.5 5.5-5.5h7c3.032 0 5.5 2.468 5.5 5.5v10c0 .828-.672 1.5-1.5 1.5s-1.5-.672-1.5-1.5v-10c0-1.379-1.121-2.5-2.5-2.5h-7c-1.378 0-2.5 1.121-2.5 2.5v13c0 1.379 1.122 2.5 2.5 2.5h3c.829 0 1.5.672 1.5 1.5zm-3.5-17.5c-.828 0-1.5.672-1.5 1.5s.672 1.5 1.5 1.5 1.5-.672 1.5-1.5-.672-1.5-1.5-1.5zm3.5 1.5c0 .828.672 1.5 1.5 1.5s1.5-.672 1.5-1.5-.672-1.5-1.5-1.5-1.5.672-1.5 1.5zm-3.5 3.5c-.828 0-1.5.672-1.5 1.5s.672 1.5 1.5 1.5 1.5-.672 1.5-1.5-.672-1.5-1.5-1.5zm6.5 1.5c0-.828-.672-1.5-1.5-1.5s-1.5.672-1.5 1.5.672 1.5 1.5 1.5 1.5-.672 1.5-1.5zm-6.5 3.5c-.828 0-1.5.672-1.5 1.5s.672 1.5 1.5 1.5 1.5-.672 1.5-1.5-.672-1.5-1.5-1.5zm17.068.447c-.58-.59-1.53-.598-2.121-.016l-5.45 5.369-2.453-2.378c-.593-.575-1.543-.562-2.121.033-.577.595-.562 1.545.033 2.121l2.776 2.69c.488.488 1.13.732 1.771.732s1.274-.242 1.757-.725l5.793-5.707c.59-.581.598-1.531.016-2.121z"/></svg>