<svg id="Layer_1" viewBox="0 0 24 24" xmlns="http://www.w3.org/2000/svg" data-name="Layer 1"><path d="m13.5 9.896c0 2.802-1.786 5.281-4.444 6.167-.334.093-1.214.463-1.556.438-.628 0-1.214-.397-1.423-1.026-.262-.786.162-1.635.948-1.897l1.081-.36c1.432-.478 2.394-1.812 2.394-3.321v-8.397c0-.829.672-1.5 1.5-1.5s1.5.671 1.5 1.5zm-3.658 8.144c-.813-.191-1.614.313-1.803 1.119-.132.566-.563 1.011-1.146 1.166-.316.069-2.277.696-2.562.675-.723-.04-1.292-.482-1.331-1.335 0-1.137.13-2.277.386-3.388l1.564-6.779c.308-1.334 1.408-2.343 2.736-2.51.822-.103 1.405-.853 1.302-1.675s-.855-1.399-1.675-1.302c-2.571.322-4.696 2.256-5.287 4.811l-1.564 6.781c-.307 1.332-.462 2.698-.462 4.062-.054 2.332 2.013 4.374 4.329 4.335.925.028 2.477-.573 3.356-.782 1.635-.436 2.89-1.729 3.275-3.377.188-.807-.312-1.613-1.119-1.802zm6.472-11.051c1.165.146 2.16.934 2.597 2.056.299.78 1.189 1.153 1.941.854.772-.3 1.154-1.17.854-1.942-.836-2.149-2.759-3.661-5.019-3.944-.818-.098-1.572.479-1.675 1.302-.104.822.479 1.572 1.302 1.675zm7.687 11.012c0 3.314-2.686 6-6 6s-6-2.686-6-6 2.686-6 6-6 6 2.686 6 6zm-6 2.5c0-.828-.672-1.5-1.5-1.5s-1.5.672-1.5 1.5.672 1.5 1.5 1.5 1.5-.672 1.5-1.5zm1-4.5c0-1.105-.895-2-2-2s-2 .895-2 2 .895 2 2 2 2-.895 2-2zm3.5 2.5c0-.828-.672-1.5-1.5-1.5s-1.5.672-1.5 1.5.672 1.5 1.5 1.5 1.5-.672 1.5-1.5z"/></svg>