<svg id="Layer_1" viewBox="0 0 24 24" xmlns="http://www.w3.org/2000/svg" data-name="Layer 1"><path d="m11 22.5c0 .828-.671 1.5-1.5 1.5h-4c-3.033 0-5.5-2.468-5.5-5.5v-13c0-3.033 2.467-5.5 5.5-5.5h9c3.033 0 5.5 2.467 5.5 5.5v3c0 .829-.671 1.5-1.5 1.5s-1.5-.671-1.5-1.5v-3c0-1.378-1.122-2.5-2.5-2.5h-9c-1.378 0-2.5 1.122-2.5 2.5v13c0 1.379 1.122 2.5 2.5 2.5h4c.829 0 1.5.672 1.5 1.5zm-1-8.5c-2.761 0-5-2.239-5-5s2.239-5 5-5 5 2.239 5 5-2.239 5-5 5zm-1.5-6.5c0 .828.672 1.5 1.5 1.5s1.5-.672 1.5-1.5-.672-1.5-1.5-1.5-1.5.672-1.5 1.5zm4.094 2.979s-.594-.479-2.594-.479-2.594.48-2.594.48c.518.903 1.48 1.52 2.594 1.52s2.076-.617 2.594-1.521zm-6.094 5.521c-.828 0-1.5.672-1.5 1.5s.672 1.5 1.5 1.5h3.569c-.041-.328-.069-.661-.069-1 0-.692.097-1.36.262-2zm17.5 2c0 3.314-2.686 6-6 6s-6-2.686-6-6 2.686-6 6-6 6 2.686 6 6zm-2.288-1.702c-.383-.399-1.017-.41-1.414-.029l-2.713 2.624c-.143.141-.379.144-.522.002l-1.354-1.331c-.396-.388-1.028-.381-1.414.014-.387.395-.381 1.027.014 1.414l1.354 1.332c.46.449 1.062.674 1.663.674s1.201-.225 1.653-.671l2.703-2.614c.398-.383.411-1.016.029-1.414z"/></svg>