<svg id="Layer_1" viewBox="0 0 24 24" xmlns="http://www.w3.org/2000/svg" data-name="Layer 1"><path d="m14.5 7h1.5c0-2.206-1.794-4-4-4s-4 1.794-4 4h1.5c.829 0 1.5.671 1.5 1.5s-.671 1.5-1.5 1.5h-1.5v1c0 1.661.999 3.124 2.545 3.728.772.302 1.153 1.171.852 1.943-.301.779-1.191 1.15-1.943.852-2.706-1.057-4.455-3.616-4.455-6.522v-4.001c.001-3.86 3.141-7 7.001-7s7 3.14 7 7v3.5c0 .829-.672 1.5-1.5 1.5s-1.5-.671-1.5-1.5v-.5h-1.5c-.828 0-1.5-.671-1.5-1.5s.672-1.5 1.5-1.5zm-3 13c-4.687 0-8.5-3.813-8.5-8.5 0-.829-.671-1.5-1.5-1.5s-1.5.671-1.5 1.5c0 6.341 5.159 11.5 11.5 11.5.829 0 1.5-.672 1.5-1.5s-.671-1.5-1.5-1.5zm12.444-2.743c-.132-.362-.476-.602-.861-.602h-2.751l-.974-2.732c-.133-.359-.476-.597-.859-.597s-.726.238-.859.597l-.974 2.732h-2.751c-.384 0-.728.24-.86.601-.133.361-.026.766.267 1.015l2.179 1.773-.862 2.765c-.116.371.013.776.325 1.009.311.234.737.244 1.059.028l2.482-1.661 2.524 1.644c.326.212.751.195 1.06-.042.309-.238.433-.645.311-1.014l-.897-2.732 2.169-1.767c.294-.248.403-.654.271-1.016z"/></svg>