<svg id="Layer_1" viewBox="0 0 24 24" xmlns="http://www.w3.org/2000/svg" data-name="Layer 1"><path d="m10 5c-.552 0-1-.448-1-1v-1h-3c-.552 0-1 .449-1 1v6c0 .551.448 1 1 1h.5c.828 0 1.5.671 1.5 1.5s-.672 1.5-1.5 1.5h-.5c-2.206 0-4-1.794-4-4v-6c0-2.206 1.794-4 4-4h3.108c.916 0 1.782.351 2.438.989l1.392 1.351c.675.656 1.062 1.571 1.062 2.511v1.649c0 .829-.672 1.5-1.5 1.5s-1.5-.671-1.5-1.5v-1.5zm10.938 7.34c.675.654 1.062 1.569 1.062 2.511v5.149c0 2.206-1.794 4-4 4h-4c-2.206 0-4-1.794-4-4v-6c0-2.206 1.794-4 4-4h3.108c.916 0 1.782.351 2.438.989zm-1.938 7.66v-5h-1c-.552 0-1-.448-1-1v-1h-3c-.552 0-1 .448-1 1v6c0 .552.448 1 1 1h4c.552 0 1-.448 1-1zm1-16.949v-1.274c0-.776-.939-1.165-1.488-.616l-2.757 2.757c-.34.34-.34.892 0 1.233l2.757 2.757c.549.549 1.488.16 1.488-.616v-1.198c.581.207 1 .757 1 1.408 0 .829.672 1.5 1.5 1.5s1.5-.671 1.5-1.5c0-2.31-1.756-4.197-4-4.449zm-14.512 13.042c-.549-.549-1.488-.16-1.488.616v1.198c-.581-.207-1-.757-1-1.408 0-.828-.672-1.5-1.5-1.5s-1.5.672-1.5 1.5c0 2.31 1.756 4.197 4 4.449v1.274c0 .776.939 1.165 1.488.616l2.757-2.757c.34-.34.34-.892 0-1.232l-2.757-2.757z"/></svg>