<svg id="Layer_1" viewBox="0 0 24 24" xmlns="http://www.w3.org/2000/svg" data-name="Layer 1"><path d="m11.292 3.709-3.469-3.468c.359-.153.753-.239 1.167-.241h6.019c.414.001.807.086 1.165.239l-3.469 3.469c-.378.377-1.036.377-1.414 0zm-2.292 5.291h6c1.654 0 2.994-1.338 2.999-2.99v-3.02c-.002-.504-.138-.971-.359-1.387l-3.52 3.52c-.585.585-1.353.877-2.121.877s-1.536-.292-2.121-.877l-3.519-3.519c-.222.419-.359.889-.359 1.396v3c0 1.657 1.343 3 3 3zm12.5-5.027c-.829 0-1.5.672-1.5 1.5v1.027c0 1.003-.453 1.779-.765 2.132l-5.9 7.273c-.217.267-.335.601-.335.945v3l-2-1.2v-1.851c0-.346-.12-.681-.338-.949l-5.941-7.271c-.268-.301-.72-1.077-.72-2.08v-1.027c0-.828-.671-1.5-1.5-1.5s-1.5.672-1.5 1.5v1.027c0 1.778.764 3.271 1.438 4.026l5.562 6.808v2.166c0 .527.276 1.015.728 1.286l5 3c.238.143.505.214.772.214.255 0 .51-.065.739-.195.47-.266.761-.765.761-1.305v-5.118l5.521-6.808c.715-.804 1.479-2.296 1.479-4.074v-1.027c0-.828-.671-1.5-1.5-1.5z"/></svg>