<svg id="Layer_1" viewBox="0 0 24 24" xmlns="http://www.w3.org/2000/svg" data-name="Layer 1"><path d="m24 6c0-3.314-2.686-6-6-6s-6 2.686-6 6 2.686 6 6 6 6-2.686 6-6zm-8.628.888 1.853-1.821c.43-.422 1.119-.422 1.549 0l1.853 1.821c.415.407.126 1.112-.455 1.112h-1.173v1.5c0 .552-.448 1-1 1s-1-.448-1-1v-1.5h-1.173c-.581 0-.87-.705-.455-1.112zm5.628-3.888c0 .552-.448 1-1 1h-4c-.552 0-1-.448-1-1s.448-1 1-1h4c.552 0 1 .448 1 1zm1 14.5v2c0 .275-.225.5-.5.5h-.5v-3h.5c.275 0 .5.225.5.5zm-14.5 0c0 .276-.225.5-.5.5h-.5v-1h.5c.275 0 .5.224.5.5zm10.5 0v1h-1v-1c0-.276.224-.5.5-.5s.5.224.5.5zm3.36-4.247c-1.023.475-2.158.747-3.36.747-1.404 0-2.723-.364-3.87-1h-10.13c-2.209 0-4 1.791-4 4v3c0 2.209 1.791 4 4 4h16c2.209 0 4-1.791 4-4v-3c0-1.729-1.104-3.189-2.64-3.747zm-16.86 6.247c0 .827-.673 1.5-1.5 1.5s-1.5-.673-1.5-1.5v-3c0-.276.224-.5.5-.5s.5.224.5.5v3c0 .276.224.5.5.5s.5-.224.5-.5v-3c0-.276.224-.5.5-.5s.5.224.5.5zm2.5-.5h-.5v1.5c0 .276-.224.5-.5.5s-.5-.224-.5-.5v-4c0-.276.224-.5.5-.5h1c.827 0 1.5.673 1.5 1.5s-.673 1.5-1.5 1.5zm3.75 2h-1c-.276 0-.5-.224-.5-.5v-4c0-.276.224-.5.5-.5s.5.224.5.5v3.5h.5c.276 0 .5.224.5.5s-.224.5-.5.5zm4.25-1.5c0 .828-.672 1.5-1.5 1.5s-1.5-.672-1.5-1.5v-2c0-.828.672-1.5 1.5-1.5s1.5.672 1.5 1.5zm4 1c0 .276-.224.5-.5.5s-.5-.224-.5-.5v-1h-1v1c0 .276-.224.5-.5.5s-.5-.224-.5-.5v-3c0-.827.673-1.5 1.5-1.5s1.5.673 1.5 1.5zm4-1c0 .827-.673 1.5-1.5 1.5h-1c-.276 0-.5-.224-.5-.5v-4c0-.276.224-.5.5-.5h1c.827 0 1.5.673 1.5 1.5zm-9-2v2c0 .276-.224.5-.5.5s-.5-.224-.5-.5v-2c0-.276.224-.5.5-.5s.5.224.5.5z"/></svg>