<svg id="Layer_1" viewBox="0 0 24 24" xmlns="http://www.w3.org/2000/svg" data-name="Layer 1"><path d="m18.5 0h-13c-3.033 0-5.5 2.467-5.5 5.5v6c0 .829.672 1.5 1.5 1.5s1.5-.671 1.5-1.5v-4.5h18v4.5c0 .829.672 1.5 1.5 1.5s1.5-.671 1.5-1.5v-6c0-3.033-2.468-5.5-5.5-5.5zm-14 5c-.828 0-1.5-.672-1.5-1.5s.672-1.5 1.5-1.5 1.5.672 1.5 1.5-.672 1.5-1.5 1.5zm5 0c-.828 0-1.5-.672-1.5-1.5s.672-1.5 1.5-1.5 1.5.672 1.5 1.5-.672 1.5-1.5 1.5zm.799 10.733c-.414-.719-1.333-.964-2.049-.549l-.303.175c-.289-.226-.602-.422-.947-.562v-.297c0-.828-.672-1.5-1.5-1.5s-1.5.672-1.5 1.5v.297c-.345.14-.658.336-.948.562l-.274-.158c-.718-.415-1.636-.17-2.049.549-.414.718-.168 1.635.549 2.049l.276.16c-.025.179-.055.356-.055.542s.03.363.055.542l-.305.176c-.718.414-.963 1.331-.549 2.049.277.481.782.75 1.3.75.255 0 .513-.064.749-.201l.303-.175c.289.226.602.422.947.562v.297c0 .828.672 1.5 1.5 1.5s1.5-.672 1.5-1.5v-.297c.345-.14.658-.336.947-.562l.303.175c.236.137.494.201.749.201.518 0 1.022-.269 1.3-.75.414-.718.169-1.635-.549-2.049l-.305-.176c.025-.179.055-.356.055-.542s-.03-.363-.055-.542l.305-.176c.718-.414.963-1.331.549-2.049zm-4.799 4.267c-.828 0-1.5-.672-1.5-1.5s.672-1.5 1.5-1.5 1.5.672 1.5 1.5-.672 1.5-1.5 1.5zm18.061 1.439c.586.586.586 1.535 0 2.121s-1.535.586-2.121 0l-2.402-2.402s-1.144 2.288-1.144 2.288c-.17.339-.517.553-.895.553h-.019c-.386-.007-.733-.235-.892-.586l-3.944-8.675c-.286-.817-.103-1.607.442-2.151.544-.545 1.334-.725 2.062-.479.031.01 8.765 3.98 8.765 3.98.351.16.579.506.586.892s-.208.741-.551.913l-2.288 1.144s2.401 2.401 2.401 2.401z"/></svg>