<svg id="Layer_1" viewBox="0 0 24 24" xmlns="http://www.w3.org/2000/svg" data-name="Layer 1"><path d="m13 9.5c0 .829-.671 1.5-1.5 1.5-.741.017-1.488-.142-2.151-.476l-3.049-1.524h-.8c-1.378 0-2.5 1.122-2.5 2.5v7c0 1.378 1.122 2.5 2.5 2.5h4c.829 0 1.5.671 1.5 1.5s-.671 1.5-1.5 1.5h-4c-3.033 0-5.5-2.467-5.5-5.5v-7c0-2.512 1.695-4.632 4-5.287v-1.713c0-2.481 2.019-4.5 4.5-4.5h4.305c.929 0 1.804.36 2.463 1.014l1.695 1.68c.659.653 1.037 1.559 1.037 2.486v.82c0 .829-.671 1.5-1.5 1.5s-1.5-.671-1.5-1.5c-.011-.14.031-.883-.036-1h-.964c-.552 0-1-.448-1-1v-.959c-.061-.026-.127-.041-.195-.041h-4.305c-.827 0-1.5.673-1.5 1.5v1.541c.112.027.221.066.325.118l3.367 1.683c.248.129.532.17.809.159.829 0 1.5.671 1.5 1.5zm11 8.5v3c0 1.657-1.343 3-3 3h-5c-1.657 0-3-1.343-3-3v-3c0-.885.39-1.672 1-2.221v-2.279c0-2.481 2.019-4.5 4.5-4.5s4.5 2.019 4.5 4.5v2.279c.61.549 1 1.336 1 2.221zm-7-4.5v1.5h3v-1.5c0-.827-.673-1.5-1.5-1.5s-1.5.673-1.5 1.5zm3 6c0-.828-.672-1.5-1.5-1.5s-1.5.672-1.5 1.5.672 1.5 1.5 1.5 1.5-.672 1.5-1.5z"/></svg>