<svg id="Layer_1" viewBox="0 0 24 24" xmlns="http://www.w3.org/2000/svg" data-name="Layer 1"><path d="m12 5v.641c1.564.405 2.743 1.724 2.95 3.359.569-.026 1.052.428 1.05 1 0 .552-.448 1-1 1h-8c-.552 0-1-.448-1-1-.002-.572.481-1.026 1.05-1 .206-1.635 1.386-2.954 2.95-3.359v-.641c0-.552.448-1 1-1s1 .448 1 1zm8 17c-.552 0-1 .448-1 1s.448 1 1 1 1-.448 1-1-.448-1-1-1zm3-3c-.552 0-1 .448-1 1s.448 1 1 1 1-.448 1-1-.448-1-1-1zm-3 0c-.552 0-1 .448-1 1s.448 1 1 1 1-.448 1-1-.448-1-1-1zm-2-4v1c0 1.103-.897 2-2 2h-1c-1.103 0-2-.897-2-2v-1c0-1.103.897-2 2-2h1c1.103 0 2 .897 2 2zm-1.999 1v-1h-1.001v1zm1.999 5v1c0 1.103-.897 2-2 2h-1c-1.103 0-2-.897-2-2v-1c0-1.103.897-2 2-2h1c1.103 0 2 .897 2 2zm-1.999 1v-1h-1.001v1zm7.999-7v1c0 1.103-.897 2-2 2h-1c-1.103 0-2-.897-2-2v-1c0-1.103.897-2 2-2h1c1.103 0 2 .897 2 2zm-1.999 1v-1h-1.001v1zm-3.001-6.5c0 .829.672 1.5 1.5 1.5s1.5-.671 1.5-1.5v-4c0-3.038-2.462-5.5-5.5-5.5h-11c-3.038 0-5.5 2.462-5.5 5.5v14c0 2.485 2.015 4.5 4.5 4.5h5c.828 0 1.5-.671 1.5-1.5s-.672-1.5-1.5-1.5h-5c-.827 0-1.5-.673-1.5-1.5s.673-1.5 1.5-1.5h5c.828 0 1.5-.671 1.5-1.5s-.672-1.5-1.5-1.5h-5c-.529 0-1.029.108-1.5.276v-9.776c0-1.381 1.119-2.5 2.5-2.5h11c1.381 0 2.5 1.119 2.5 2.5z"/></svg>