<svg id="Layer_1" viewBox="0 0 24 24" xmlns="http://www.w3.org/2000/svg" data-name="Layer 1"><path d="m24 13.5c0 3.033-2.467 5.5-5.5 5.5h-5v2h2.5c.829 0 1.5.671 1.5 1.5s-.671 1.5-1.5 1.5h-8c-.829 0-1.5-.671-1.5-1.5s.671-1.5 1.5-1.5h2.5v-2h-5c-3.033 0-5.5-2.467-5.5-5.5v-6c0-3.033 2.467-5.5 5.5-5.5h5c.829 0 1.5.671 1.5 1.5s-.671 1.5-1.5 1.5h-5c-1.378 0-2.5 1.122-2.5 2.5v6c0 1.378 1.122 2.5 2.5 2.5h13c1.378 0 2.5-1.122 2.5-2.5 0-.829.671-1.5 1.5-1.5s1.5.671 1.5 1.5zm-8.54-3.977c-1.943-1.958-1.943-5.144 0-7.102l1.693-1.669c1.019-1.004 2.675-1.003 3.693 0l1.681 1.657c1.956 1.97 1.956 5.156.012 7.114-.945.952-2.201 1.476-3.539 1.476s-2.595-.524-3.54-1.477zm2.129-2.114c.755.76 2.066.76 2.82 0t0 0c.787-.792.787-2.08 0-2.872l-1.41-1.39-1.422 1.401c-.774.781-.774 2.069.012 2.862z"/></svg>