<svg id="Layer_1" viewBox="0 0 24 24" xmlns="http://www.w3.org/2000/svg" data-name="Layer 1"><path d="m21.585 15.519c-.747-1.386-1.262-2.948-1.76-4.458-.843-2.555-1.638-4.967-3.487-6.676-1.754-1.621-4.037-2.471-6.469-2.41-1.952.055-3.785.714-5.295 1.866-.616-.904-1.176-1.872-1.619-2.915-.245-.577-.955-.904-1.455-.904-.196 0-.359.015-.552.093-.784.316-1.155 1.194-.83 1.96.628 1.481 1.441 2.829 2.334 4.051-.986 1.534-1.49 3.345-1.406 5.169.107 2.339 1.136 4.468 2.9 5.995 3.798 3.29 8.161 3.711 11.539 3.711.949 0 2.125-.12 3.495-.357 1.145-.198 2.135-.925 2.647-1.945s.497-2.178-.041-3.178zm-2.715 1.858c-.039.078-.159.266-.425.312-1.195.207-2.191.312-2.961.312-3.011 0-6.494-.351-9.502-2.957-1.135-.983-1.8-2.363-1.869-3.884-.04-.862.123-1.718.453-2.509 3.061 3.219 6.236 5.035 6.44 5.15.723.409 1.671.172 2.096-.554.422-.718.168-1.635-.567-2.047-.047-.026-3.217-1.834-6.088-4.986 1.043-.8 2.335-1.244 3.684-1.242 1.531 0 2.98.562 4.095 1.593 1.278 1.181 1.957 3.238 2.675 5.417.539 1.631 1.094 3.318 1.965 4.934.101.187.057.354.003.461zm-2.423-16.82c.519-.644 1.467-.745 2.112-.223.285.229.562.471.829.726.69.653 1.321 1.408 1.873 2.241.459.69.27 1.621-.421 2.079-.681.454-1.621.275-2.082-.421-.434-.653-.904-1.217-1.438-1.723-.211-.2-.428-.389-.65-.569-.645-.521-.745-1.465-.223-2.109zm6.5 10.668c-.153.05-.31.073-.462.073-.635 0-1.223-.404-1.428-1.039-.136-.416-.275-.846-.421-1.27-.271-.783.147-1.637.931-1.907.778-.272 1.639.146 1.908.929.153.443.299.89.439 1.325.256.788-.177 1.634-.966 1.889zm-15.684 11.918c-.357.756-1.269 1.064-2.001.712-1.573-.746-3.041-1.719-4.361-2.891-.157-.14-.311-.284-.461-.43-.594-.578-.606-1.528-.027-2.121.578-.594 1.528-.605 2.124-.027.117.114.238.227.361.336 1.108.984 2.337 1.799 3.654 2.423.749.355 1.068 1.25.713 1.998z"/></svg>