<svg id="Layer_1" viewBox="0 0 24 24" xmlns="http://www.w3.org/2000/svg" data-name="Layer 1"><path d="m17.5 7h-2c-3.584 0-6.5 2.916-6.5 6.5v3c0 4.136 3.364 7.5 7.5 7.5s7.5-3.364 7.5-7.5v-3c0-3.584-2.916-6.5-6.5-6.5zm3.449 6h-2.949v-2.949c1.527.221 2.728 1.423 2.949 2.949zm-5.949-2.949v2.949h-2.949c.221-1.527 1.423-2.728 2.949-2.949zm1.5 10.949c-2.481 0-4.5-2.019-4.5-4.5v-.5h9v.5c0 2.481-2.019 4.5-4.5 4.5zm-13-4c-.829 0-1.5-.671-1.5-1.5s.671-1.5 1.5-1.5h2c.829 0 1.5.671 1.5 1.5s-.671 1.5-1.5 1.5zm3.817 2.317c.415.717.168 1.635-.549 2.049l-1.5.866c-.705.411-1.632.175-2.049-.549-.415-.717-.168-1.635.549-2.049l1.5-.866c.718-.415 1.635-.169 2.049.549zm7.683-15.817v-2c0-.829.672-1.5 1.5-1.5s1.5.671 1.5 1.5v2c0 .829-.672 1.5-1.5 1.5s-1.5-.671-1.5-1.5zm4.768-.231.865-1.5c.415-.719 1.334-.964 2.049-.55.718.414.964 1.331.551 2.049l-.865 1.5c-.417.724-1.345.961-2.049.55-.718-.414-.964-1.331-.551-2.049zm-10.975-.235c-.422-.509-1.059-.833-1.77-.833h-.2v-.4c0-.442-.358-.8-.8-.8s-.8.358-.8.8v.4h-.28c-1.091 0-2.046.786-2.199 1.866-.163 1.158.613 2.216 1.725 2.439l2.791.559c.304.062.514.359.451.677-.054.273-.308.46-.586.46h-2.103c-.203 0-.387-.087-.515-.226-.154-.167-.437-.274-.664-.274-.654 0-1.01.763-.592 1.266.422.509 1.059.833 1.77.833h.2v.408c0 .436.353.792.789.792h.02c.437 0 .79-.356.79-.792v-.408h.28c.294 0 .576-.061.837-.165-.36.701-.627 1.455-.781 2.252-.375.073-.762.114-1.158.114-3.312-.002-5.998-2.688-5.998-6.002s2.686-6 6-6c3.236 0 5.866 2.563 5.988 5.768-1.016.463-1.922 1.119-2.677 1.923.031-1.059-.702-1.99-1.736-2.197l-2.792-.559c-.304-.061-.514-.36-.449-.678.055-.272.309-.458.587-.458h2.102c.203 0 .387.087.515.226.154.167.437.274.664.274.654 0 1.01-.763.592-1.266z"/></svg>