<svg id="Layer_1" viewBox="0 0 24 24" xmlns="http://www.w3.org/2000/svg" data-name="Layer 1"><path d="m19 17.5c0 .828-.671 1.5-1.5 1.5h-1c-.829 0-1.5-.672-1.5-1.5s.671-1.5 1.5-1.5h1c.829 0 1.5.672 1.5 1.5zm-2.5-3.5h1c.829 0 1.5-.672 1.5-1.5s-.671-1.5-1.5-1.5h-1c-.829 0-1.5.672-1.5 1.5s.671 1.5 1.5 1.5zm-10 5h5c.829 0 1.5-.672 1.5-1.5s-.671-1.5-1.5-1.5h-5c-.829 0-1.5.672-1.5 1.5s.671 1.5 1.5 1.5zm16-7c-.829 0-1.5.672-1.5 1.5v5c0 1.379-1.122 2.5-2.5 2.5h-13c-1.378 0-2.5-1.121-2.5-2.5v-7c0-1.379 1.122-2.5 2.5-2.5h8c.829 0 1.5-.672 1.5-1.5 0-.652-.419-1.201-1-1.408v-4.592c0-.828-.671-1.5-1.5-1.5s-1.5.672-1.5 1.5v4.5h-5.5c-3.033 0-5.5 2.468-5.5 5.5v7c0 3.032 2.467 5.5 5.5 5.5h13c3.033 0 5.5-2.468 5.5-5.5v-5c0-.828-.671-1.5-1.5-1.5zm-5.289-4.191c.329.448.956.54 1.398.216l.409-.3v2.002c0 .494.299.948.761 1.155.425.198 1.005.154 1.335-.148l2.356-1.757c.431-.383.521-.788.521-1.061 0-.612-.437-.999-.58-1.126.046.001-2.02-1.276-2.055-1.3.095-.073 2.012-1.352 2.091-1.432.365-.321.55-.691.551-1.101 0-.41-.184-.783-.549-1.108-.085-.087-2.236-1.507-2.339-1.586-.375-.288-.888-.347-1.332-.146-.462.207-.761.661-.761 1.155v2.003l-.41-.3c-.446-.328-1.072-.229-1.397.216-.326.446-.229 1.071.217 1.397l1.245.911-1.245.912c-.445.326-.542.952-.216 1.397zm-5.711 3.191c-.828 0-1.5.672-1.5 1.5s.672 1.5 1.5 1.5 1.5-.672 1.5-1.5-.672-1.5-1.5-1.5zm-5 0c-.828 0-1.5.672-1.5 1.5s.672 1.5 1.5 1.5 1.5-.672 1.5-1.5-.672-1.5-1.5-1.5z"/></svg>