<svg id="Layer_1" viewBox="0 0 24 24" xmlns="http://www.w3.org/2000/svg" data-name="Layer 1"><path d="m22.199 9.599c-.497-.661-1.438-.794-2.101-.297-.662.498-.795 1.438-.298 2.1.582.774.958 1.659 1.114 2.599h-1.972c-.07-1.033-.208-1.984-.428-2.864-.2-.803-1.015-1.296-1.818-1.091-.804.201-1.293 1.015-1.092 1.819.163.65.268 1.362.33 2.136h-1.911c.112-2.447.629-3.751 1.176-5.115.106-.264.211-.526.313-.795.187-.49.103-1.042-.22-1.456s-.842-.63-1.358-.567c-4.811.54-8.383 4.962-7.893 9.774.426 4.569 4.279 8.159 8.957 8.159 4.977.022 9.02-4.12 9-9 0-1.966-.623-3.834-1.801-5.401zm-8.1 7.401h1.801c-.164 1.516-.512 2.539-.9 3.516-.388-.977-.737-1.998-.901-3.516zm-2.494-6.946c-.291 1.038-.517 2.294-.584 3.946h-1.928c.274-1.624 1.194-3.041 2.512-3.946zm-2.253 6.946h1.735c.107 1.184.304 2.143.542 2.962-1.045-.712-1.847-1.75-2.278-2.962zm9.013 2.96c.238-.818.433-1.779.541-2.96h1.743c-.431 1.213-1.237 2.248-2.284 2.96zm-13.855.868c.347.62.214 1.398-.334 1.85-.721.595-1.825.416-2.279-.4-1.231-2.214-1.898-4.723-1.898-7.278.001-6.816 3.793-11.261 11.377-12.875.321-.068.624.178.624.507 0 .217-.135.413-.34.486-5.773 2.051-8.66 6.409-8.66 11.882 0 2.078.52 4.059 1.511 5.828zm9.594-17.661c-.297-.52.078-1.167.677-1.167.207 0 .405.082.551.228l1.11.772h2.241l-.891-2.258c-.141-.356.122-.742.505-.742h.298c.407 0 .781.222.975.579l1.929 2.421h1.5c.552 0 1 .448 1 1s-.448 1-1 1h-1.5l-1.911 2.421c-.195.357-.569.579-.975.579h-.32c-.382 0-.644-.384-.506-.74l.879-2.26h-2.32c-.442 0-.862-.195-1.147-.533l-1.096-1.3z"/></svg>