<svg id="Layer_1" viewBox="0 0 24 24" xmlns="http://www.w3.org/2000/svg" data-name="Layer 1"><path d="m5 17.5c0-.828.672-1.5 1.5-1.5s1.5.672 1.5 1.5-.672 1.5-1.5 1.5-1.5-.672-1.5-1.5zm19-12v13c0 3.032-2.468 5.5-5.5 5.5h-13c-3.032 0-5.5-2.468-5.5-5.5v-13c0-3.032 2.468-5.5 5.5-5.5h13c3 0 5.5 2.5 5.5 5.5zm-7 2.025c2.011-1.142 3.236-2.266 3.835-2.896-.355-.949-1.263-1.629-2.335-1.629h-1.5zm-7 2.621c1.495-.338 2.831-.748 4-1.206v-5.94h-4zm-7 .824c1.421-.034 2.766-.124 4-.284v-7.686h-1.5c-1.379 0-2.5 1.121-2.5 2.5zm18-2.492c-4.727 3.663-11.563 5.417-18 5.506v4.516c0 1.379 1.121 2.5 2.5 2.5h13c1.379 0 2.5-1.121 2.5-2.5zm-3.5 10.522c.828 0 1.5-.672 1.5-1.5s-.672-1.5-1.5-1.5-1.5.672-1.5 1.5.672 1.5 1.5 1.5zm-5.5 0c.828 0 1.5-.672 1.5-1.5s-.672-1.5-1.5-1.5-1.5.672-1.5 1.5.672 1.5 1.5 1.5z"/></svg>