<svg id="Layer_1" viewBox="0 0 24 24" xmlns="http://www.w3.org/2000/svg" data-name="Layer 1"><path d="m7.002 9.269.998.758v-8.527c0-.829.671-1.5 1.5-1.5.828 0 1.5.672 1.5 1.5v11.503c0 .716-.192 1.384-.525 1.962-.424.737-1.412.919-2.084.397l-3.391-2.631c-.956-.553-1.283-1.776-.73-2.733.553-.956 1.776-1.283 2.733-.73zm15.499 8.731c.828 0 1.5-.672 1.5-1.5v-1c0-.828-.672-1.5-1.5-1.5-.829 0-1.5.671-1.5 1.5v1c0 .828.672 1.5 1.5 1.5zm-4-1c.828 0 1.5-.672 1.5-1.5v-1c0-.828-.672-1.5-1.5-1.5-.829 0-1.5.671-1.5 1.5v1c0 .828.672 1.5 1.5 1.5zm-17.001-8c.828 0 1.5-.672 1.5-1.5v-1c0-.829-.671-1.5-1.499-1.5s-1.501.672-1.5 1.5v1c0 .828.672 1.5 1.5 1.5zm19.5 10.649v.351c0 .552-.448 1-1 1h-4v-11.5c0-.828-.672-1.5-1.5-1.5-.829 0-1.5.671-1.5 1.5v10.5h-2c-1.105 0-2 .895-2 2s.895 2 2 2h9c2.209 0 4-1.791 4-4v-.351c-.456.219-.961.351-1.5.351s-1.044-.133-1.5-.351zm-15.5-11.649c.828 0 1.5-.672 1.5-1.5v-1c0-.829-.671-1.5-1.5-1.5-.828 0-1.5.672-1.5 1.5v1c0 .828.671 1.5 1.5 1.5zm-2.232 5.67c-.163-.178-.268-.41-.268-.67v-2.351c-.456.219-.961.351-1.5.351s-1.044-.133-1.5-.351v2.351c0 2.209 1.791 4 4 4h3c.169 0 .331-.029.494-.05-.518-.401-4.213-3.262-4.23-3.279.001 0 .002-.001.003-.002z"/></svg>