<svg id="Layer_1" viewBox="0 0 24 24" xmlns="http://www.w3.org/2000/svg" data-name="Layer 1"><path d="m22.351 15.983-6.368 6.366c-1.063 1.064-2.478 1.65-3.983 1.65s-2.919-.586-3.983-1.65l-6.367-6.366c-2.196-2.196-2.196-5.771 0-7.966l6.367-6.367c1.984-1.985 5.162-2.2 7.392-.502.659.502.787 1.443.285 2.102-.503.659-1.444.785-2.102.285-1.041-.792-2.525-.691-3.453.236l-6.368 6.367c-1.026 1.027-1.026 2.697 0 3.724l6.367 6.366c.995.994 2.729.994 3.723 0l6.368-6.366c1.026-1.027 1.026-2.697 0-3.724-.586-.585-.586-1.536 0-2.121.586-.586 1.535-.586 2.121 0 2.196 2.196 2.196 5.77 0 7.966zm-6.851-10.015c-.004.205.117.391.306.47l.879.37.351.877c.076.19.26.314.464.314s.388-.125.464-.314l.349-.872.872-.349c.19-.076.314-.26.314-.464s-.125-.388-.314-.464l-.872-.349-.349-.872c-.076-.19-.26-.314-.464-.314s-.388.125-.464.314l-.347.867-.866.328c-.191.072-.319.254-.323.458zm-4.5 4.195c-1.441.434-2.5 1.757-2.5 3.337 0 1.93 1.57 3.5 3.5 3.5s3.5-1.57 3.5-3.5c0-1.58-1.059-2.903-2.5-3.337v-.445c0-.552-.448-.718-1-.718s-1 .166-1 .718zm.999-2.163c.345 0 .681-.179.867-.5.29-.5.449-.5.634-.5.552 0 1-.448 1-1s-.448-1-1-1c-1.499 0-2.151 1.128-2.366 1.5-.276.478-.113 1.089.365 1.366.158.091.33.134.5.134z"/></svg>