<?xml version="1.0" encoding="UTF-8"?>
<svg xmlns="http://www.w3.org/2000/svg" id="Layer_1" data-name="Layer 1" viewBox="0 0 24 24">
  <path d="M24,12.477c0,2.174-.925,4.224-2.539,5.648-.622,.548-1.57,.489-2.117-.132-.548-.622-.489-1.569,.132-2.117,.969-.855,1.524-2.085,1.524-3.376,0-2.259-1.588-4.199-3.777-4.636-1.085-.216-1.977-.908-2.447-1.899-1.021-2.154-3.303-3.31-5.678-2.874-2.075,.38-3.767,2.104-4.114,4.193-.106,.639-.1,1.274,.02,1.889,.219,1.129-.198,2.334-1.088,3.144-.557,.506-.916,1.363-.916,2.183,0,.89,.479,1.72,1.251,2.167,.717,.415,.962,1.332,.547,2.049-.278,.48-.782,.75-1.3,.75-.255,0-.513-.065-.75-.202-1.696-.98-2.749-2.806-2.749-4.763,0-1.676,.709-3.322,1.898-4.402,.114-.104,.181-.25,.161-.353-.188-.966-.199-1.959-.034-2.952C2.583,3.427,5.209,.753,8.558,.14c3.671-.673,7.343,1.195,8.929,4.54,.06,.126,.174,.212,.322,.242,3.587,.716,6.191,3.893,6.191,7.555Zm-7-.477v9.269c0,1.32-1.313,2.731-5,2.731s-5-1.411-5-2.731V12c0-1.178,2.056-2,5-2s5,.822,5,2Zm-5,2c-.727,0-1.399-.051-2-.144v1.873c.3,.115,.91,.271,2,.271s1.697-.172,2-.296v-1.848c-.601,.093-1.273,.144-2,.144Zm2,6.729v-1.924c-.581,.119-1.236,.195-2,.195-.776,0-1.424-.074-2-.185v1.914c.301,.114,.912,.271,2,.271s1.699-.157,2-.271Z"/>
</svg>
