<svg id="Layer_1" viewBox="0 0 24 24" xmlns="http://www.w3.org/2000/svg" data-name="Layer 1"><path d="m11.293 6.461h-1.064l.535-1.404.53 1.404zm-5.293 1.539v-4c0-2.209 1.791-4 4-4h4c2.209 0 4 1.791 4 4v4c0 2.209-1.791 4-4 4h-4c-2.209 0-4-1.791-4-4zm8.263.382c0 .341.277.618.618.618.341 0 .618-.277.618-.618v-4.764c0-.341-.277-.618-.618-.618-.341 0-.618.277-.618.618v4.763zm-5.416.616c.253 0 .48-.157.569-.393l.351-.931h1.983l.352.934c.089.236.315.393.568.393.424 0 .717-.424.568-.821l-1.772-4.695c-.11-.291-.389-.484-.7-.484s-.589.192-.699.482l-1.787 4.691c-.152.398.142.825.568.825zm-3.847 10.002h-3c-1.105 0-2 .895-2 2v1c0 1.105.895 2 2 2h3c1.105 0 2-.895 2-2v-1c0-1.105-.895-2-2-2zm8.5 0h-3c-1.105 0-2 .895-2 2v1c0 1.105.895 2 2 2h3c1.105 0 2-.895 2-2v-1c0-1.105-.895-2-2-2zm8.5 0h-3c-1.105 0-2 .895-2 2v1c0 1.105.895 2 2 2h3c1.105 0 2-.895 2-2v-1c0-1.105-.895-2-2-2zm-19-1.085c.78.274 1.638-.133 1.914-.915.211-.598.78-1 1.415-1h4.171v.5c0 .829.671 1.5 1.5 1.5s1.5-.671 1.5-1.5v-.5h4.171c.635 0 1.204.402 1.415 1 .275.789 1.154 1.19 1.914.915.781-.276 1.191-1.133.915-1.914-.634-1.795-2.339-3-4.244-3h-11.342c-1.904 0-3.609 1.206-4.244 3-.276.781.134 1.638.915 1.914z"/></svg>