<svg id="Layer_1" viewBox="0 0 24 24" xmlns="http://www.w3.org/2000/svg" data-name="Layer 1"><path d="m20.971 22.401c.061.862-.635 1.603-1.498 1.599-.783 0-1.443-.608-1.495-1.401-.208-3.14-2.833-5.599-5.978-5.599s-5.771 2.459-5.978 5.599c-.055.826-.769 1.456-1.596 1.397-.827-.055-1.452-.769-1.397-1.596.311-4.71 4.252-8.401 8.971-8.401s8.66 3.69 8.971 8.401zm-15.488-12.786c.417-.29.81-.597 1.137-.976-.393-.798-.62-1.691-.62-2.639 0-3.309 2.691-6 6-6s6 2.691 6 6c0 .948-.227 1.841-.62 2.639.327.379.72.686 1.137.976.594.413.659 1.265.088 1.71-.476.371-1.103.675-1.883.675-.983 0-1.742-.215-2.327-.502-.734.321-1.544.502-2.395.502s-1.661-.181-2.395-.502c-.585.287-1.344.502-2.327.502-.78 0-1.407-.304-1.883-.675-.571-.445-.506-1.297.088-1.71zm9.517-3.615c0-1.002-.499-1.886-1.256-2.431-.872 1.452-2.447 2.431-4.265 2.431-.162 0-.315-.033-.474-.048 0 .016-.005.031-.005.048 0 1.654 1.346 3 3 3s3-1.346 3-3z"/></svg>