<?xml version="1.0" encoding="UTF-8"?>
<svg xmlns="http://www.w3.org/2000/svg" id="Layer_1" data-name="Layer 1" viewBox="0 0 24 24">
  <path d="M12,12c3.309,0,6-2.691,6-6S15.309,0,12,0,6,2.691,6,6s2.691,6,6,6Zm0-9c1.654,0,3,1.346,3,3s-1.346,3-3,3-3-1.346-3-3,1.346-3,3-3Zm5,17c0,1.105-.895,2-2,2s-2-.895-2-2,.895-2,2-2,2,.895,2,2Zm-6,1.197l4.204,2.803h-5.408l-1.128-.752c-.417-.278-.668-.746-.668-1.248v-2.5c0-.828,.672-1.5,1.5-1.5s1.5,.672,1.5,1.5v1.697Zm10.967,2.327l-.473,.476h-4.232l2.581-2.594c.152-.152,.201-.382,.115-.545-1.574-2.999-4.623-4.861-7.958-4.861s-6.384,1.862-7.958,4.861c-.086,.163-.037,.393,.115,.545l2.581,2.594H2.506l-.473-.476c-1.071-1.071-1.339-2.741-.647-4.058,2.094-3.989,6.161-6.467,10.614-6.467s8.521,2.478,10.614,6.467c.691,1.316,.424,2.986-.647,4.058Z"/>
</svg>
