<svg id="Layer_1" viewBox="0 0 24 24" xmlns="http://www.w3.org/2000/svg" data-name="Layer 1"><path d="m11.224 11.079c-2.05.739-4.609 1.896-6.841 3.921-1.883 0-3.383 1-4.383 2.415v1.586h2l.488.488-1.478 1.479 2.023 2.023 1.479-1.478.488.488v2h1.586c1.414-1 2.386-2.5 2.386-4.35 2.002-2.214 3.205-4.811 3.949-6.874.105-.291.105-.609 0-.899-.248-.689-1.008-1.046-1.697-.798zm-4.724 7.921c-.828 0-1.5-.671-1.5-1.5s.672-1.5 1.5-1.5 1.5.672 1.5 1.5-.672 1.5-1.5 1.5zm9.502-3s0 0-.002 0c-.739 0-1.451-.109-2.131-.297.334-.72.65-1.464.934-2.25.067-.185.115-.375.148-.568.339.073.689.115 1.049.115 2.757 0 5-2.243 5-5 0-1.355-.546-2.582-1.425-3.484-.522.884-1.474 1.484-2.575 1.484-1.519 0-2.761-1.133-2.959-2.598-1.785.764-3.04 2.536-3.041 4.597v.002c0 .362.043.713.116 1.053-.192.033-.383.077-.57.145-.794.286-1.536.599-2.25.928-.187-.678-.296-1.389-.296-2.125s0 0 0 0c0-4.413 3.589-8.002 8-8.002s8 3.589 8 8-3.588 7.999-7.998 8zm.498-5c-.828 0-1.5-.672-1.5-1.5s.672-1.5 1.5-1.5 1.5.672 1.5 1.5-.672 1.5-1.5 1.5z"/></svg>