<?xml version="1.0" encoding="UTF-8"?>
<svg xmlns="http://www.w3.org/2000/svg" id="Layer_1" data-name="Layer 1" viewBox="0 0 24 24">
  <path d="M17.897,9.533l-.898-1.026s0-.005,0-.007v-1c0-1.378-1.122-2.5-2.5-2.5h-.867c.23-1.341,.367-2.571,.367-3,0-1.105-.895-2-2-2s-2,.895-2,2c0,.429,.136,1.659,.367,3h-.867c-1.378,0-2.5,1.122-2.5,2.5v1s0,.005,0,.007l-.898,1.026c-1.357,1.543-2.09,3.562-2.103,5.598v3.37c0,3.033,2.467,5.5,5.5,5.5h5c3.033,0,5.5-2.467,5.5-5.5v-3.37c0-2.06-.747-4.047-2.103-5.598Zm-.897,8.967c0,1.378-1.122,2.5-2.5,2.5h-5c-1.378,0-2.5-1.122-2.5-2.5v-2.5h6.5c.829,0,1.5-.671,1.5-1.5s-.671-1.5-1.5-1.5H7.446c.227-.537,.525-1.046,.915-1.492l1.32-1.508h4.639l1.32,1.508c.877,1.003,1.361,2.29,1.361,3.622v3.37Z"/>
</svg>
