<svg id="Layer_1" viewBox="0 0 24 24" xmlns="http://www.w3.org/2000/svg" data-name="Layer 1"><path d="m16 9c0-1.94-1.92-3.6-3.286-4.793-.418-.365-1.068-.217-1.286.293-.589 1.384-.566 3.167-1.241 3.167-.189 0-.388-.304-.548-.628-.174-.354-.664-.397-.899-.079-.419.566-.742 1.24-.742 2.04 0 2.209 1.791 4 4 4s4-1.791 4-4zm-4.884.867.884-.884.884.884c.488.489.488 1.279 0 1.767-.244.244-.564.366-.883.366-.32 0-.64-.122-.884-.366-.488-.489-.488-1.28 0-1.767zm7.884-9.867h-14c-2.757 0-5 2.243-5 5v5c0 2.757 2.243 5 5 5h1.5c.829 0 1.5-.671 1.5-1.5s-.671-1.5-1.5-1.5h-1.5c-1.103 0-2-.897-2-2v-1h3c0-1.256.481-2.269.976-3 .426-.619.729-.919 1.024-1.226v-1.774h8v1.653c.38.41.736.86 1.047 1.347.557.873.953 1.865.953 3h3v1c0 1.103-.897 2-2 2h-1.5c-.829 0-1.5.671-1.5 1.5s.671 1.5 1.5 1.5h1.5c2.757 0 5-2.243 5-5v-5c0-2.757-2.243-5-5-5zm-14 6h-2v-1c0-1.103.897-2 2-2zm14 0v-3c1.103 0 2 .897 2 2v1zm5 14.5c0 .829-.671 1.5-1.5 1.5h-7.351c-.564 1.178-1.758 2-3.149 2s-2.585-.822-3.149-2h-7.351c-.829 0-1.5-.671-1.5-1.5s.671-1.5 1.5-1.5h7.351c.346-.722.927-1.303 1.649-1.649v-1.851c0-.829.671-1.5 1.5-1.5s1.5.671 1.5 1.5v1.851c.722.346 1.303.927 1.649 1.649h7.351c.829 0 1.5.671 1.5 1.5z"/></svg>