<svg id="Layer_1" viewBox="0 0 24 24" xmlns="http://www.w3.org/2000/svg" data-name="Layer 1"><path d="m22.5 0c-.829 0-1.5.671-1.5 1.5v.5h-18v-.5c0-.829-.671-1.5-1.5-1.5s-1.5.671-1.5 1.5v17c0 .829.671 1.5 1.5 1.5s1.5-.671 1.5-1.5v-4.5h7.5c.829 0 1.5-.671 1.5-1.5 0-.644-.408-1.189-.978-1.401l6.099-6.099h2.758l-.439.439c-.586.585-.586 1.536 0 2.121.293.293.677.439 1.061.439.17 0 .338-.04.5-.097v2.597c0 .829.671 1.5 1.5 1.5s1.5-.671 1.5-1.5v-8.999c0-.829-.671-1.5-1.5-1.5zm-16.621 5-2.879 2.879v-2.879zm1 6h-2.758l6-6h2.758zm15.87 10.025-3.668-10.545c-.307-.886-1.144-1.48-2.081-1.48s-1.774.595-2.081 1.479l-3.668 10.546c-.71.119-1.251.732-1.251 1.475 0 .829.671 1.5 1.5 1.5h11c.829 0 1.5-.671 1.5-1.5 0-.743-.542-1.356-1.251-1.475zm-7.617-2.025h3.737l.696 2h-5.128l.696-2zm2.693-3h-1.65l.825-2.371z"/></svg>