<svg id="Layer_1" viewBox="0 0 24 24" xmlns="http://www.w3.org/2000/svg" data-name="Layer 1"><path d="m24 19.501v2.999c0 .828-.672 1.5-1.5 1.5s-1.5-.672-1.5-1.5v-2.999c.024-.919-.899-1.674-1.795-1.471l-4.247.854c-.845.17-1.458.919-1.458 1.78v1.836c0 .828-.671 1.5-1.5 1.5s-1.5-.672-1.5-1.5v-1.836c0-.861-.613-1.61-1.458-1.78l-4.246-.854c-.899-.201-1.818.55-1.795 1.471v2.999c0 .828-.671 1.5-1.5 1.5s-1.5-.672-1.5-1.5v-2.999c-.07-2.758 2.696-5.024 5.386-4.412l4.247.854c.919.185 1.725.637 2.367 1.253.642-.616 1.448-1.068 2.366-1.253l4.247-.854c2.687-.612 5.458 1.654 5.387 4.412zm-20-13.001c0-.828.671-1.5 1.5-1.5h.5c0-2.593 1.973-4.724 4.5-4.975v2.475c0 .828.672 1.5 1.5 1.5s1.5-.672 1.5-1.5v-2.475c2.527.251 4.5 2.383 4.5 4.975h.5c.828 0 1.5.672 1.5 1.5s-.672 1.5-1.5 1.5h-.5v1c0 3.309-2.691 6-6 6s-6-2.691-6-6v-1h-.5c-.829 0-1.5-.672-1.5-1.5zm11 1.5h-6v1c0 1.654 1.346 3 3 3s3-1.346 3-3z"/></svg>