<svg id="Layer_1" viewBox="0 0 24 24" xmlns="http://www.w3.org/2000/svg" data-name="Layer 1"><path d="m8.942 10.057c.344.23.558.678.558 1.169v.774c0 1.103.897 2 2 2h1c1.103 0 2-.897 2-2v-.774c0-.491.214-.939.557-1.169 1.53-1.021 2.443-2.724 2.443-4.557 0-1.686-.757-3.256-2.078-4.306-1.321-1.051-3.037-1.432-4.713-1.045-2.005.462-3.6 2.058-4.062 4.065-.522 2.269.378 4.562 2.294 5.843zm.629-5.17c.244-1.1 1.313-1.915 2.432-1.887 1.339-.03 2.526 1.159 2.497 2.5 0 .828-.414 1.599-1.108 2.062-.593.396-1.067.938-1.392 1.568-.325-.63-.798-1.172-1.392-1.568-.693-.463-1.329-1.409-1.037-2.675zm14.401 12.374c-.037-.293-.192-.548-.369-.778-.006-.007-.603-.68-.603-1.483s.592-1.472.592-1.472c.411-.436.522-1.073.285-1.623-.237-.549-.778-.905-1.377-.905h-4.5c-.829 0-1.5.671-1.5 1.5s.671 1.5 1.5 1.5h2.107c-.067.312-.107.647-.107 1s.041.688.107 1h-16.107c-.551 0-1-.449-1-1s.449-1 1-1h2c.829 0 1.5-.671 1.5-1.5s-.671-1.5-1.5-1.5h-2c-2.206 0-4 1.794-4 4 0 .951.347 1.813.903 2.5-.556.687-.903 1.549-.903 2.5 0 2.206 1.794 4 4 4h18.5c.592 0 1.123-.355 1.364-.896s.135-1.18-.261-1.621c-.006-.007-.603-.68-.603-1.483 0-.787.572-1.448.602-1.482.313-.342.44-.807.37-1.256zm-3.865 3.739h-16.107c-.551 0-1-.449-1-1s.449-1 1-1h16.107c-.067.312-.107.647-.107 1s.041.688.107 1z"/></svg>