<svg id="Layer_1" viewBox="0 0 24 24" xmlns="http://www.w3.org/2000/svg" data-name="Layer 1"><path d="m19.78 3.238c-2.077-2.088-4.841-3.238-7.78-3.238s-5.704 1.15-7.781 3.238c-4.285 4.305-4.285 11.31.043 15.656l3.734 3.466c1.076 1.057 2.498 1.64 4.003 1.64s2.927-.582 3.973-1.61l3.808-3.537c4.285-4.305 4.285-11.31 0-15.615zm-2.083 13.458-3.796 3.524c-1.023 1.006-2.748 1.035-3.833-.029l-3.723-3.455c-3.123-3.138-3.123-8.245 0-11.383 1.51-1.518 3.519-2.354 5.654-2.354s4.143.836 5.654 2.354c3.123 3.138 3.123 8.245.042 11.342zm-.197-4.196c0 1.381-1.119 2.5-2.5 2.5s-2.5-1.119-2.5-2.5c0-.657.259-1.25.673-1.696l-.256-.588-1.754 1.052c.208.365.337.781.337 1.232 0 1.381-1.119 2.5-2.5 2.5s-2.5-1.119-2.5-2.5 1.119-2.5 2.5-2.5c.012 0 .024.003.036.004l-.602-1.004h-.434c-.552 0-1-.448-1-1s.448-1 1-1h.434c.698 0 1.355.372 1.715.97l.695 1.158 1.271-.763c-.234-.44-.221-1.044.078-1.547.304-.512.841-.818 1.436-.818h1.372c.552 0 1 .448 1 1s-.448 1-1 1h-.869l.871 2c1.38.001 2.498 1.12 2.498 2.5z"/></svg>