<svg id="Layer_1" viewBox="0 0 24 24" xmlns="http://www.w3.org/2000/svg" data-name="Layer 1"><path d="m6.494 14.5c.828 0 1.5.672 1.5 1.5s-.672 1.5-1.5 1.5-1.5-.672-1.5-1.5.672-1.5 1.5-1.5zm16 0c-.828 0-1.5.672-1.5 1.5v1c0 1.379-1.121 2.5-2.5 2.5h-13c-1.378 0-2.5-1.121-2.5-2.5v-4.5h10.5c.828 0 1.5-.672 1.5-1.5s-.672-1.5-1.5-1.5h-10.45c.232-1.14 1.242-2 2.449-2h8.001c.828 0 1.5-.672 1.5-1.5s-.672-1.5-1.5-1.5h-8c-3.033 0-5.5 2.468-5.5 5.5v7c0 3.032 2.467 5.5 5.5 5.5h13c3.032 0 5.5-2.468 5.5-5.5v-1c0-.828-.672-1.5-1.5-1.5zm-5.487-3.5v-7c0-.827.673-1.5 1.5-1.5h.5c0-.553.447-1 1-1s1 .447 1 1v.051c1.416.24 2.5 1.466 2.5 2.949 0 .642-.202 1.236-.547 1.725.641.551 1.047 1.366 1.047 2.275 0 1.654-1.346 3-3 3 0 .553-.447 1-1 1s-1-.447-1-1h-.5c-.827 0-1.5-.673-1.5-1.5zm2-4.5h1.5c.552 0 1-.448 1-1s-.448-1-1-1h-1.5zm0 4h2c.552 0 1-.448 1-1s-.448-1-1-1h-2z"/></svg>