<svg id="Layer_1" viewBox="0 0 24 24" xmlns="http://www.w3.org/2000/svg" data-name="Layer 1"><path d="m22.06 14.239c-.377.275-1.096.648-1.989 1.035 1.046-2.252 1.704-4.647 1.921-7.097.079-.891-.432-1.704-1.269-2.025-.842-.323-1.769-.057-2.309.662-.849 1.129-1.655 2.027-2.408 2.773-.525-3.098-1.191-6.117-1.828-8.008-.316-.937-1.191-1.566-2.178-1.566s-1.862.63-2.178 1.567c-.715 2.121-1.367 5.248-1.844 8.092-.767-.79-1.562-1.709-2.425-2.857 0-.001-.002-.003-.003-.005-.541-.715-1.466-.98-2.306-.658-.838.321-1.347 1.135-1.268 2.026.227 2.563.922 5.049 1.978 7.353-.729-.394-1.427-.865-2.014-1.292-.997-.726-2.317.313-1.839 1.449 2.034 4.723 8.067 8.325 12.305 8.325 4.492 0 9.562-3.975 11.493-8.325.478-1.136-.842-2.175-1.839-1.449zm-3.755-2.71c-.374 1.243-.897 2.448-1.531 3.607-.065-.634-.143-1.295-.231-1.974.538-.459 1.13-.993 1.762-1.633zm-4.615 2.983c-1.045-.851-2.034-1.613-3.052-2.44.384-2.613.872-5.172 1.363-7.178.678 2.771 1.323 6.482 1.69 9.618zm-3.756.837c1.164.924 2.217 1.745 3.549 2.903.629.518.7 1.636.112 2.249-.502.619-1.641.699-2.228.131-2.718-2.366-4.699-5.542-5.715-9.052 1.488 1.559 2.859 2.644 4.282 3.77z"/></svg>