<svg id="Layer_1" viewBox="0 0 24 24" xmlns="http://www.w3.org/2000/svg" data-name="Layer 1"><path d="m12 0c-3.309 0-6 2.691-6 6s2.691 6 6 6 6-2.691 6-6-2.691-6-6-6zm0 9c-1.654 0-3-1.346-3-3s1.346-3 3-3 3 1.346 3 3-1.346 3-3 3zm4 7.2c0 1.548-1.807 3.552-2.992 4.458-.597.456-1.42.456-2.017 0-1.185-.906-2.992-2.909-2.992-4.458 0-1.215.895-2.2 2-2.2s2 .985 2 2.2c0-1.215.895-2.2 2-2.2s2 .985 2 2.2zm5 5.8v.5c0 .828-.671 1.5-1.5 1.5s-1.5-.672-1.5-1.5v-.5c0-1.138-.319-2.243-.923-3.198-.442-.7-.233-1.627.467-2.069s1.626-.233 2.069.466c.907 1.436 1.387 3.096 1.387 4.802zm-14.077-3.198c-.604.955-.923 2.061-.923 3.198v.5c0 .828-.671 1.5-1.5 1.5s-1.5-.672-1.5-1.5v-.5c0-1.706.479-3.366 1.387-4.802.443-.699 1.371-.908 2.069-.466.7.442.909 1.369.467 2.069z"/></svg>