<svg id="Layer_1" viewBox="0 0 24 24" xmlns="http://www.w3.org/2000/svg" data-name="Layer 1"><path d="m21.259 11.213c.142-.603.241-1.238.241-1.88 0-.43-.087-.838-.242-1.212l2.317-2.622c.589-.594.561-1.559-.059-2.119-.601-.542-1.526-.494-2.068.107l-2.319 2.791c-.271-.067-.557-.127-.848-.108-.095-.472-.319-.896-.629-1.241l2.069-2.487c.541-.601.493-1.527-.107-2.068-.621-.56-1.583-.487-2.113.16l-2.958 3.759c-.576-.782-1.495-1.296-2.541-1.296-1.057 0-1.987.523-2.562 1.32-.344-.164-.63-.169-1.037-.169-1.278 0-2.438.815-2.68 2.022-1.764-.047-3.221 1.4-3.219 3.161 0 .642.099 1.277.241 1.88-.802.249-1.505.712-1.999 1.389-.745 1.024-.942 2.33-.54 3.583.685 2.135 1.923 4.057 3.58 5.56 1.605 1.456 3.77 2.258 6.097 2.258h4.238c2.327 0 4.491-.802 6.096-2.258 1.658-1.503 2.896-3.425 3.58-5.56.403-1.253.206-2.559-.539-3.581-.494-.677-1.197-1.14-1.999-1.389zm-14.344-2.499c.257-.677 1.066-.961 1.668-.559.621.415 1.411 1.061 2.052 1.973.606-1.255 1.88-2.128 3.367-2.128 1.814 0 3.326 1.288 3.674 3h-11.151c0-.953.176-1.724.389-2.286zm14.026 6.552c-.516 1.609-1.489 3.12-2.739 4.253-1.037.941-2.524 1.48-4.081 1.48h-4.238c-1.557 0-3.044-.539-4.082-1.48-1.249-1.133-2.222-2.644-2.739-4.253-.105-.331-.066-.658.107-.897.177-.241.47-.369.847-.369h15.972c.377 0 .67.128.847.369.174.239.213.566.106.897z"/></svg>