<svg id="Layer_1" viewBox="0 0 24 24" xmlns="http://www.w3.org/2000/svg" data-name="Layer 1"><path d="m3.064 18.333 2.133 1.706-.635 2.798c-.155.68-.759 1.163-1.457 1.163-.955 0-1.664-.883-1.459-1.815l.942-4.283c.15.151.309.296.477.431zm19.436-8.333c.828 0 1.5-.672 1.5-1.5s-.672-1.5-1.5-1.5-1.5.672-1.5 1.5.672 1.5 1.5 1.5zm-4 0c-.828 0-1.5.672-1.5 1.5s.672 1.5 1.5 1.5 1.5-.672 1.5-1.5-.672-1.5-1.5-1.5zm-4 0h-2.088c-.145 0-.283-.063-.377-.172l-2.08-2.394c-.254-.321-.591-.583-.955-.81v-1.624h-2c-.552 0-1-.448-1-1s.448-1 1-1h2c0-1.71-1.431-3.086-3.161-2.996-1.622.085-2.839 1.541-2.839 3.166v2.83c-1.657 0-3 1.343-3 3v2c0 1.657 1.343 3 3 3h.025c.117 1.204.707 2.306 1.664 3.071l3.311 2.65v2.778c0 .828.671 1.5 1.5 1.5s1.5-.672 1.5-1.5v-3.02c0-.764-.342-1.476-.938-1.951l-1.062-.85v-5.771l.769.886c.666.766 1.629 1.206 2.643 1.206h2.088c.828 0 1.5-.671 1.5-1.5s-.672-1.5-1.5-1.5zm8 3c-.828 0-1.5.672-1.5 1.5s.672 1.5 1.5 1.5 1.5-.672 1.5-1.5-.672-1.5-1.5-1.5z"/></svg>