<svg id="Layer_1" viewBox="0 0 24 24" xmlns="http://www.w3.org/2000/svg" data-name="Layer 1"><path d="m18.5 3h-13c-3.032 0-5.5 2.467-5.5 5.5v7c0 3.033 2.468 5.5 5.5 5.5h13c3.032 0 5.5-2.467 5.5-5.5v-7c0-3.033-2.468-5.5-5.5-5.5zm2.5 12.5c0 1.378-1.121 2.5-2.5 2.5h-13c-1.379 0-2.5-1.122-2.5-2.5v-7c0-1.378 1.121-2.5 2.5-2.5h13c1.379 0 2.5 1.122 2.5 2.5zm-9.9-6.7v4.9c0 1.298-1.079 2.347-2.388 2.298-1.245-.046-2.212-1.109-2.212-2.354v-4.844c0-.442.358-.8.8-.8s.8.358.8.8v4.9c0 .416.366.75.793.694.353-.046.607-.364.607-.719v-4.875c0-.442.358-.8.8-.8s.8.358.8.8zm5.995.281-1.095 2.919 1.095 2.919c.196.523-.19 1.081-.749 1.081h-.043c-.329 0-.625-.202-.745-.509l-.974-2.491h-.484v2.2c0 .442-.358.8-.8.8-.442 0-.8-.358-.8-.8v-6.4c0-.442.358-.8.8-.8.442 0 .8.358.8.8v2.2h.484l.974-2.491c.12-.307.416-.509.745-.509h.043c.558 0 .945.558.749 1.081z"/></svg>