<svg id="Layer_1" viewBox="0 0 24 24" xmlns="http://www.w3.org/2000/svg" data-name="Layer 1"><path d="m12.974 21.972c-.191 1.175-1.215 2.028-2.436 2.028-.664 0-1.3-.195-1.839-.552-.388-.257-.448-.802-.119-1.131.236-.235.603-.283.888-.111.316.191.688.297 1.069.297.604 0 1.031-.404 1.096-.795.089-.55-.602-.873-.816-.959-.915-.371-1.751-.78-1.753-.78-.692-.484-1.027-1.231-.921-2.049.111-.845.674-1.534 1.471-1.796.839-.277 1.603-.076 2.152.203.405.205.518.733.238 1.095l-.011.014c-.195.253-.539.347-.831.216-.308-.138-.72-.237-1.156-.096-.412.136-.517.447-.516.577.005.442.335.57.433.615.282.128.806.368 1.366.595 1.461.591 1.828 1.745 1.685 2.627zm11.026-3.472v.022c0 1.368-1.109 2.478-2.478 2.478h-.922v2.2c0 .442-.358.8-.8.8-.442 0-.8-.358-.8-.8v-6.4c0-.442.358-.8.8-.8h1.7c1.381 0 2.5 1.119 2.5 2.5zm-1.6 0c0-.496-.404-.9-.9-.9h-.9v1.8h.9c.496 0 .9-.404.9-.9zm-5.7-.9c.442 0 .8-.358.8-.8s-.358-.8-.8-.8h-1.9c-.442 0-.8.358-.8.8v6.4c0 .442.358.8.8.8h1.9c.442 0 .8-.358.8-.8s-.358-.8-.8-.8h-1.101v-1.551h1.101c.442 0 .8-.358.8-.8s-.358-.8-.8-.8h-1.101v-1.65h1.101zm1.8-15.6h-.5v-.5c0-.829-.672-1.5-1.5-1.5s-1.5.671-1.5 1.5v.5h-6v-.5c0-.829-.672-1.5-1.5-1.5s-1.5.671-1.5 1.5v.5h-.5c-3.032 0-5.5 2.467-5.5 5.5v11c0 3.032 2.468 5.5 5.5 5.5.828 0 1.5-.672 1.5-1.5s-.672-1.5-1.5-1.5c-1.379 0-2.5-1.121-2.5-2.5v-9.5h18v3.5c0 .828.672 1.5 1.5 1.5s1.5-.672 1.5-1.5v-5c0-3.033-2.468-5.5-5.5-5.5z"/></svg>