<svg id="Layer_1" viewBox="0 0 24 24" xmlns="http://www.w3.org/2000/svg" data-name="Layer 1"><path d="m6.5 16c.828 0 1.5.672 1.5 1.5s-.672 1.5-1.5 1.5-1.5-.672-1.5-1.5.672-1.5 1.5-1.5zm17.327-5.873c-.206-.802-1.023-1.286-1.826-1.08-.872.22-1.294 1.114-1.064 1.953h-1.437c-.829 0-1.5.671-1.5 1.5s.671 1.5 1.5 1.5h1.5v4.5c0 1.378-1.122 2.5-2.5 2.5h-13c-1.378 0-2.5-1.122-2.5-2.5v-4.5h6.5c.829 0 1.5-.671 1.5-1.5s-.671-1.5-1.5-1.5h-6.449c.232-1.14 1.242-2 2.449-2h4c.829 0 1.5-.671 1.5-1.5s-.671-1.5-1.5-1.5h-4c-3.033 0-5.5 2.467-5.5 5.5v7c0 3.033 2.467 5.5 5.5 5.5h13c3.033 0 5.5-2.467 5.5-5.5v-7c0-.464-.058-.926-.173-1.373zm-10.301.873h.955c1.149 0 2.252-.457 3.064-1.269l5.715-5.715c.85-.85 1.013-2.236.252-3.167-.875-1.07-2.456-1.129-3.409-.176l-5.808 5.808c-.813.813-1.269 1.915-1.269 3.064v.955c0 .276.224.5.5.5z"/></svg>