<svg id="Layer_1" viewBox="0 0 24 24" xmlns="http://www.w3.org/2000/svg" data-name="Layer 1"><path d="m15 20.5c0 .829-.672 1.5-1.5 1.5h-8c-3.032 0-5.5-2.467-5.5-5.5v-8c0-.829.672-1.5 1.5-1.5s1.5.671 1.5 1.5v8c0 1.378 1.121 2.5 2.5 2.5h8c.828 0 1.5.671 1.5 1.5zm9-3.75c0 1.402-.562 2.69-1.489 3.64l1.049 1.049c.586.585.586 1.536 0 2.121-.586.586-1.535.586-2.121 0l-6.574-6.574c-1.039-.071-1.865-.93-1.865-1.986v-6c0-1.103.897-2 2-2h1c2.206 0 4 1.794 4 4v2c0 1.327-.656 2.497-1.654 3.225l2.05 2.05c.375-.406.604-.942.604-1.525v-9.25c0-1.378-1.122-2.5-2.5-2.5h-11.379l2.439 2.439c.343.339.376.791.525 1.217l1.619 7.122c.123.539-.214 1.074-.753 1.197-.524.123-1.076-.211-1.196-.753l-.278-1.222h-2.956l-.278 1.222c-.122.538-.662.876-1.196.753-.539-.123-.876-.658-.753-1.197l1.62-7.122c.037-.163.096-.313.163-.457l-5.638-5.638c-.585-.586-.585-1.536 0-2.122.586-.585 1.536-.585 2.122 0l1.561 1.561h14.379c3.033 0 5.5 2.467 5.5 5.5v9.25zm-14.977-3.75-.887-3.9c-.038-.163-.227-.163-.271 0l-.888 3.9h2.045zm5.977 2h1c1.103 0 2-.897 2-2v-2c0-1.103-.897-2-2-2h-1z"/></svg>