<svg id="Layer_1" viewBox="0 0 24 24" xmlns="http://www.w3.org/2000/svg" data-name="Layer 1"><path d="m24 7.5v1c0 .829-.672 1.5-1.5 1.5s-1.5-.671-1.5-1.5v-1c0-1.378-1.121-2.5-2.5-2.5h-.579c.055.328.092.661.092.999.105 1.608-1.163 3.007-2.785 3.001h-2.912l1.432-2.667c.46-.69.273-1.62-.416-2.081-.689-.46-1.621-.274-2.08.416l-2.536 4.323c-1.497-.045-2.703-1.269-2.703-2.777 0-.415.047-.819.122-1.214h-1.135c-1.903 0-2 2.083-2 2.5v11c0 1.379 1.121 2.5 2.5 2.5h3c.828 0 1.5.672 1.5 1.5s-.672 1.5-1.5 1.5h-3c-3.032 0-5.5-2.468-5.5-5.5v-11c0-3.187 2.103-5.5 5-5.5h2.6c.834-.947 1.936-1.635 3.213-1.885 1.788-.35 3.621.104 5.011 1.249.237.195.45.411.651.635h2.025c3.032 0 5.5 2.467 5.5 5.5zm0 10c0 3.59-2.91 6.5-6.5 6.5s-6.5-2.91-6.5-6.5 2.91-6.5 6.5-6.5 6.5 2.91 6.5 6.5zm-2.752-1.154-3.063-3.063c-.378-.378-.991-.378-1.369 0l-3.063 3.063c-.61.61-.178 1.653.685 1.653h1.563v2.501c0 .828.671 1.5 1.5 1.5s1.5-.672 1.5-1.5v-2.501h1.563c.863 0 1.295-1.043.685-1.653z"/></svg>