<svg id="Layer_1" viewBox="0 0 24 24" xmlns="http://www.w3.org/2000/svg" data-name="Layer 1"><path d="m22.42 16.358c-.255-.138-.42-.458-.42-.817v-6.562c.957-.106 1.741-.794 1.948-1.757.226-1.047-.298-2.086-1.274-2.527-.038-.017-11.679-4.132-11.679-4.132-3.087-1.052-5.739-.633-7.913 1.27l-2.014 1.864c-.958.839-1.287 2.15-.84 3.342.448 1.191 1.56 1.961 2.833 1.961h.938v12h-2.499c-.828.001-1.5.672-1.5 1.501s.672 1.5 1.5 1.5h13c.828 0 1.5-.671 1.5-1.5s-.672-1.5-1.5-1.5h-2.5v-12h8v6.54c0 1.102.564 2.089 1.473 2.578.325.175.527.513.527.882 0 .551-.448 1-1 1s-1-.449-1-1-.447-1-1-1-1 .448-1 1c0 1.654 1.346 3 3 3s3-1.346 3-3c0-1.105-.605-2.118-1.58-2.643zm-13.42 4.643h-2v-12h2zm-5.939-15 2.027-1.938c.813-.712 1.725-1.064 2.784-1.064.652 0 1.361.133 2.139.398l7.368 2.603h-14.318z"/></svg>