<svg id="Layer_1" viewBox="0 0 24 24" xmlns="http://www.w3.org/2000/svg" data-name="Layer 1"><path d="m12 0c-6.617 0-12 5.383-12 12s5.383 12 12 12 12-5.383 12-12-5.383-12-12-12zm1.534 3.141c-3.713.691-6.534 3.949-6.534 7.859 0 3.309 2.691 6 6 6 2.757 0 5-2.243 5-5 .01-2.229-2-4-4-4-1.079 0-2.006.886-2 2 0 1.105.895 2 2 2 .346 0 .666-.096.949-.25.022.082.051.161.051.25 0 1.103-.897 2-2 2-1.654 0-3-1.346-3-3 0-2.757 2.243-5 5-5 3.102 0 5.661 2.365 5.969 5.387.014.203.031.406.031.613 0 1.542-.391 2.995-1.077 4.265-.911.352-1.975.822-2.388 1.235-.345.345-.871 1.066-1.352 1.764-.38.551-1.094.765-1.707.497-.868-.379-1.882-.762-2.441-.762-.457 0-1.219.256-1.956.557-.693.283-1.492-.024-1.797-.708-.31-.697-.712-1.414-1.197-1.899s-1.202-.887-1.899-1.197c-.684-.304-.991-1.104-.708-1.797.301-.737.557-1.5.557-1.956 0-.558-.383-1.573-.762-2.441-.268-.613-.054-1.327.497-1.707.698-.481 1.42-1.008 1.764-1.352.423-.423.905-1.526 1.259-2.451 1.257-.668 2.687-1.049 4.207-1.049.524 0 1.035.054 1.534.141z"/></svg>