<svg id="Layer_1" viewBox="0 0 24 24" xmlns="http://www.w3.org/2000/svg" data-name="Layer 1"><path d="m22.5 2c-.828 0-1.5.672-1.5 1.5v.871l-6.48 4.629h-5.02c-.829 0-1.5.672-1.5 1.5 0 .156.03.303.074.444l-3.152-3.853c.046-.19.078-.386.078-.591 0-1.381-1.119-2.5-2.5-2.5s-2.5 1.119-2.5 2.5c-.005 1.405 1.188 2.574 2.599 2.49l1.664 2.034c-2.369.126-4.263 2.076-4.263 4.476v5c0 .828.671 1.5 1.5 1.5s1.5-.672 1.5-1.5v-1.5h18v1.5c0 .828.672 1.5 1.5 1.5s1.5-.672 1.5-1.5v-17c0-.828-.672-1.5-1.5-1.5zm-1.5 9h-4.119l4.119-2.942zm-18 5v-.5c0-.827.673-1.5 1.5-1.5h16.5v2z"/></svg>