<svg id="Layer_1" viewBox="0 0 24 24" xmlns="http://www.w3.org/2000/svg" data-name="Layer 1"><path d="m24 20.837c0 1.747-1.343 3.163-3 3.163h-2.276v-1h.268c1.088 0 2.015-.848 2.051-1.936.032-.979-.654-1.839-1.608-2.03l-2.572-.515c-.28-.056-.473-.332-.414-.624.051-.251.285-.422.541-.422h1.936c.187 0 .357.08.474.209.157.174.379.268.611.252.603 0 .93-.703.545-1.167-.389-.469-.975-.767-1.631-.767h-.201v-.28c0-.398-.322-.72-.72-.72s-.72.322-.72.72v.28h-.268c-1.089 0-2.015.848-2.05 1.936-.032.979.654 1.838 1.608 2.029l2.571.515c.28.057.473.33.415.623-.05.251-.284.424-.54.424h-1.937c-.187 0-.357-.081-.474-.209-.157-.174-.379-.267-.611-.252-.603 0-.93.703-.545 1.166.389.469.975.768 1.631.768h.201v1h-2.285c-1.657 0-3-1.416-3-3.163 0-2.847 1.993-5.594 4.355-6.513-.27-.292-.528-.614-.732-.956-.359-.603.116-1.368.818-1.368h3.118c.702 0 1.178.765.818 1.368-.204.342-.462.665-.732.956 2.362.919 4.355 3.666 4.355 6.513zm-11.083-7.927 2.666-2.666c.196-.196.243-.243.917-.243h4c.828 0 1.5-.671 1.5-1.5v-6.501c0-1.172-1.012-2.111-2.208-1.989-1.041.106-1.792 1.061-1.792 2.107v4.883h-1.5c-1.214 0-2.1.184-3.038 1.122l-2.462 2.462-2.383-2.382c-1.262-1.263-3.137-1.528-4.617-.721v-5.365c0-1.046-.751-2.001-1.792-2.106-1.196-.122-2.208.817-2.208 1.989v11.515c0 2.004.78 3.888 2.197 5.303l.742.743c.585.586 1.535.586 2.121 0 .586-.585.586-1.535 0-2.122l-.742-.743c-.884-.879-1.349-2.068-1.318-3.313l2.199 2.182c.588.583 1.538.58 2.121-.008.584-.588.58-1.538-.008-2.122l-2.192-2.175c-.206-.389-.173-.79.239-1.115.312-.224.813-.146 1.137.178l2.876 2.875c.362.363.668.737.908 1.111.446.698 1.375.899 2.072.454.627-.402.85-1.191.564-1.854zm-4.417 8.09h-4c-.828 0-1.5.671-1.5 1.5s.672 1.5 1.5 1.5h4c.828 0 1.5-.671 1.5-1.5s-.672-1.5-1.5-1.5z"/></svg>