<svg id="Layer_1" viewBox="0 0 24 24" xmlns="http://www.w3.org/2000/svg" data-name="Layer 1"><path d="m5.5 0c-3.038 0-5.5 2.462-5.5 5.5v11c0 3.038 2.462 5.5 5.5 5.5h2c.828 0 1.5-.671 1.5-1.5s-.672-1.5-1.5-1.5h-2c-1.381 0-2.5-1.119-2.5-2.5v-7.5h18v7.5c0 1.381-1.119 2.5-2.5 2.5h-2c-.828 0-1.5.671-1.5 1.5s.672 1.5 1.5 1.5h2c3.038 0 5.5-2.462 5.5-5.5v-11c0-3.038-2.462-5.5-5.5-5.5zm3.121 6 3-3h3.758l-3 3zm-5.621-.5c0-1.378 1.121-2.5 2.5-2.5h1.879l-3 3h-1.379zm13.621.5 2.815-2.815c.916.371 1.564 1.267 1.564 2.315v.5zm-2.692 11.505c-.159.118-.429.679-.429.995 0 .829-.672 1.5-1.5 1.5s-1.5-.671-1.5-1.5c0-1.244.741-2.939 1.981-3.623.29-.16.595-.536.501-1.071-.067-.382-.406-.722-.788-.789-.421-.075-.703.104-.837.216-.227.191-.357.47-.357.767 0 .829-.672 1.5-1.5 1.5s-1.5-.671-1.5-1.5c0-1.185.521-2.301 1.429-3.064.906-.762 2.1-1.083 3.284-.874 1.614.283 2.94 1.609 3.225 3.225.298 1.697-.51 3.392-2.009 4.218zm-.429 4.995c0 .828-.672 1.5-1.5 1.5s-1.5-.672-1.5-1.5.672-1.5 1.5-1.5 1.5.672 1.5 1.5z"/></svg>