<svg id="Layer_1" viewBox="0 0 24 24" xmlns="http://www.w3.org/2000/svg" data-name="Layer 1"><path d="m9.5 21h-6c-.276 0-.5-.225-.5-.5v-7.5h1.343c1.469 0 2.85-.572 3.889-1.611l2.708-2.708c.585-.585 1.536-.585 2.121 0l1.379 1.379c.586.586 1.535.586 2.121 0 .568-.568.574-1.472.04-2.061h1.899c1.142 0 2.138.771 2.422 1.874.206.802 1.026 1.282 1.826 1.079.803-.207 1.285-1.024 1.078-1.827-.625-2.429-2.815-4.126-5.326-4.126h-5.5l2.857-.952c1.478-.493 1.472-2.585-.009-3.069-.527-.13-2.706-.981-3.212-.978-.904 0-1.636.732-1.636 1.636v3.364h-5.5c-3.033 0-5.5 2.467-5.5 5.5v10c0 1.93 1.57 3.5 3.5 3.5h6c.829 0 1.5-.672 1.5-1.5s-.671-1.5-1.5-1.5zm-4-13h1.879l-1.268 1.268c-.465.465-1.109.732-1.768.732h-1.293c.232-1.14 1.242-2 2.449-2zm1 8c.829 0 1.5.672 1.5 1.5s-.671 1.5-1.5 1.5h-1c-.829 0-1.5-.672-1.5-1.5s.671-1.5 1.5-1.5zm5.5-6c.828 0 1.5.672 1.5 1.5s-.672 1.5-1.5 1.5-1.5-.672-1.5-1.5.672-1.5 1.5-1.5zm6 2c-3.314 0-6 2.686-6 6s2.686 6 6 6 6-2.686 6-6-2.686-6-6-6zm2.707 7.293c.391.391.391 1.023 0 1.414s-1.023.391-1.414 0l-1.293-1.293-1.293 1.293c-.391.391-1.023.391-1.414 0s-.391-1.023 0-1.414l1.293-1.293-1.293-1.293c-.391-.391-.391-1.023 0-1.414s1.023-.391 1.414 0l1.293 1.293 1.293-1.293c.391-.391 1.023-.391 1.414 0s.391 1.023 0 1.414l-1.293 1.293z"/></svg>