<svg id="Layer_1" viewBox="0 0 24 24" xmlns="http://www.w3.org/2000/svg" data-name="Layer 1"><path d="m11.5 22.5c0 .829-.672 1.5-1.5 1.5h-1.347c-2.553 0-4.752-1.734-5.349-4.216l-2.115-8.817c-.679-.143-1.189-.745-1.189-1.467s.514-1.329 1.197-1.469c.687-3.428 3.137-6.218 6.356-7.406.364-.383.876-.625 1.447-.625h4c.582 0 1.101.253 1.466.649 2.461.915 4.529 2.76 5.648 5.233.342.755.007 1.644-.748 1.985-.2.091-.41.134-.617.134-.571 0-1.117-.328-1.367-.882-.583-1.289-1.535-2.337-2.693-3.056-.354.562-.976.938-1.689.938h-4c-.714 0-1.336-.377-1.69-.939-1.433.894-2.518 2.288-3.012 3.939h9.702c.828 0 1.5.671 1.5 1.5s-.672 1.5-1.5 1.5h-9.717l.48 2h4.737c.828 0 1.5.671 1.5 1.5s-.672 1.5-1.5 1.5h-4.017l.74 3.083c.271 1.128 1.271 1.917 2.431 1.917h1.347c.828 0 1.5.671 1.5 1.5zm12.5-4.5c0 3.207-2.502 5.805-5.664 5.99-2.642.155-4.939-1.57-5.956-4.014-.95-2.283.052-4.425 1.125-5.752.28-.346.827-.283 1.007.123.254.575.17 1.505.708 1.505 1.137 0 .876-3.27 2.145-5.416.225-.381.748-.455 1.078-.161 2.05 1.829 5.556 4.558 5.556 7.724zm-4.65.453-.894-.894c-.249-.249-.652-.249-.901 0l-.894.894c-.763.763-.899 2.015-.197 2.835.813.948 2.271.948 3.083 0 .703-.819.566-2.072-.197-2.835z"/></svg>