<svg id="Layer_1" viewBox="0 0 24 24" xmlns="http://www.w3.org/2000/svg" data-name="Layer 1"><path d="m6 0h-2c-2.206 0-4 1.794-4 4v16c0 2.206 1.794 4 4 4h2c2.206 0 4-1.794 4-4v-16c0-2.206-1.794-4-4-4zm0 21h-2c-.552 0-1-.449-1-1v-16c0-.551.448-1 1-1h2c.552 0 1 .449 1 1v1h-.5c-.828 0-1.5.671-1.5 1.5s.672 1.5 1.5 1.5h.5v2.5h-.5c-.828 0-1.5.671-1.5 1.5s.672 1.5 1.5 1.5h.5v2.5h-.5c-.828 0-1.5.671-1.5 1.5s.672 1.5 1.5 1.5h.5v1c0 .551-.448 1-1 1zm16.222-13.889-2.504-1.415c-1.064-.602-2.386-.6-3.446.002l-2.496 1.414c-1.095.62-1.775 1.787-1.775 3.045v2.905c0 1.253.676 2.417 1.764 3.039l2.514 1.437c.52.298 1.111.458 1.711.462h.025c.594 0 1.182-.152 1.699-.44l2.486-1.379c1.11-.617 1.801-1.79 1.801-3.061v-2.962c0-1.259-.682-2.427-1.778-3.047zm-4.472 1.197c.075-.043.16-.064.245-.064s.17.021.246.064l1.665.941-1.906 1.089-1.909-1.091 1.658-.939zm-2.498 5.188c-.155-.089-.252-.255-.252-.434v-2.136l2 1.143v2.427l-1.748-.999zm5.491.061-1.743.967v-2.454l2-1.143v2.192c0 .182-.099.35-.257.438z"/></svg>