<svg id="Layer_1" viewBox="0 0 24 24" xmlns="http://www.w3.org/2000/svg" data-name="Layer 1"><path d="m.2 15.35c.42-.72 1.34-.96 2.05-.55.54.31 1.26.24 1.81-.15 1.16-.83 2.72-.83 3.88 0 .62.44 1.49.44 2.12 0 1.16-.83 2.72-.83 3.88 0 .62.44 1.49.44 2.12 0 1.16-.83 2.72-.83 3.88 0 .54.38 1.27.46 1.8.15.72-.42 1.63-.17 2.05.54.42.72.17 1.63-.54 2.05-.68.4-1.46.61-2.25.61-.98 0-1.98-.32-2.8-.9-.13-.09-.28-.09-.41 0-1.64 1.17-3.96 1.17-5.59 0-.13-.09-.28-.09-.41 0-1.64 1.17-3.96 1.17-5.59 0-.13-.09-.28-.09-.41 0-1.48 1.05-3.52 1.19-5.05.3-.72-.42-.96-1.33-.55-2.05zm21.55 5.45c-.53.31-1.27.23-1.8-.15-1.16-.83-2.72-.83-3.88 0-.62.44-1.5.44-2.12 0-1.16-.83-2.72-.83-3.88 0-.62.44-1.5.44-2.12 0-1.16-.83-2.72-.83-3.88 0-.54.38-1.27.46-1.81.15-.71-.41-1.63-.17-2.05.55s-.17 1.63.55 2.05c1.53.89 3.57.75 5.05-.3.13-.09.28-.09.41 0 1.64 1.17 3.95 1.17 5.59 0 .13-.09.28-.09.41 0 1.64 1.17 3.95 1.17 5.59 0 .13-.09.28-.09.41 0 .82.58 1.81.9 2.8.9.79 0 1.57-.21 2.25-.61.72-.42.96-1.33.54-2.05s-1.33-.96-2.05-.54zm-20.35-14.8h.6v4.5c0 .83.67 1.5 1.5 1.5s1.5-.67 1.5-1.5v-4.5h.6c.88 0 1.31-1.06.68-1.68l-2.08-2.03c-.39-.39-1.02-.39-1.41 0l-2.07 2.03c-.63.61-.19 1.68.68 1.68zm16.32 3.68 2.08 2.03c.39.39 1.02.39 1.41 0l2.08-2.03c.63-.61.19-1.68-.68-1.68h-.6v-4.5c0-.83-.67-1.5-1.5-1.5s-1.5.67-1.5 1.5v4.5h-.6c-.88 0-1.31 1.06-.68 1.68zm-2.72 3.27c.32-.22.65-.38 1-.52v-3.43h-2c-.55 0-1-.45-1-1s.45-1 1-1h2v-2h-2c-.55 0-1-.45-1-1s.45-1 1-1h2v-.5c0-1.38-1.12-2.5-2.5-2.5h-3c-1.38 0-2.5 1.12-2.5 2.5v9.93c.35.14.68.3 1 .52 1.81-1.23 4.19-1.23 6 0z"/></svg>