<svg id="Layer_1" viewBox="0 0 24 24" xmlns="http://www.w3.org/2000/svg" data-name="Layer 1"><path d="m11 10c.552 0 1 .448 1 1s-.448 1-1 1h-1l-1.911 2.421c-.195.357-.569.579-.975.579-.426.066-.808-.317-.644-.74l.879-2.26h-1.001c-.442 0-.862-.195-1.147-.533l-1.096-1.3c-.297-.52.078-1.167.677-1.167.207 0 .405.082.551.228l1.11.772h.923l-.891-2.258c-.163-.411.2-.802.622-.742.407 0 .781.222.975.579l1.929 2.421h1zm5 5v4c0 2.744-2.213 5.009-5 5h-6c-2.787.009-5-2.274-5-5v-13.5c0-3.032 2.467-5.5 5.5-5.5h4c.829 0 1.5.672 1.5 1.5s-.671 1.5-1.5 1.5h-4c-1.378 0-2.5 1.121-2.5 2.5v12.5h10v-3c0-.828.672-1.5 1.5-1.5s1.5.672 1.5 1.5zm-6.001 6.008c0-.552-.448-1-1-1h-2c-.552 0-1 .448-1 1s.448 1 1 1h2c.552 0 1-.448 1-1zm14.001-15.008c0 3.314-2.686 6-6 6s-6-2.686-6-6 2.686-6 6-6 6 2.686 6 6zm-2.288-1.702c-.383-.399-1.017-.41-1.414-.029l-2.713 2.624c-.143.141-.379.144-.522.002l-1.354-1.331c-.396-.388-1.028-.381-1.414.014-.387.395-.381 1.027.014 1.414l1.354 1.332c.46.449 1.062.674 1.663.674s1.201-.225 1.653-.671l2.703-2.614c.398-.383.411-1.016.029-1.414z"/></svg>