<svg id="Layer_1" viewBox="0 0 24 24" xmlns="http://www.w3.org/2000/svg" data-name="Layer 1"><path d="m24 5.501v7.999c0 .829-.672 1.5-1.5 1.5s-1.5-.671-1.5-1.5v-7.999c0-.744-.327-1.443-.897-1.919s-1.318-.673-2.05-.54l-3.282.687c-.753.138-1.271.758-1.271 1.483v9.288c0 .829-.671 1.5-1.5 1.5s-1.5-.671-1.5-1.5v-9.288c0-.725-.518-1.346-1.232-1.476l-3.36-.702c-.69-.125-1.439.072-2.01.548-.571.477-.898 1.176-.898 1.919v11.792c0 1.209.863 2.243 2.053 2.46l5.806 1.146c.813.161 1.342.95 1.181 1.762-.157.818-.97 1.344-1.762 1.181l-5.784-1.143c-2.595-.472-4.494-2.748-4.494-5.407v-11.791c0-1.636.72-3.175 1.976-4.223s2.899-1.482 4.507-1.188l3.36.702c.827.15 1.564.536 2.16 1.073.602-.539 1.348-.927 2.191-1.081l3.283-.687c1.653-.301 3.293.134 4.548 1.181 1.256 1.048 1.976 2.587 1.976 4.223zm-16.732 4.908-.5-.091c-.921-.167-1.768.54-1.768 1.476 0 .725.518 1.346 1.232 1.476l.5.091c.921.167 1.768-.54 1.768-1.476 0-.725-.518-1.346-1.232-1.476zm10-1.849.5-.091c.713-.13 1.232-.751 1.232-1.476 0-.936-.847-1.643-1.768-1.476l-.5.091c-.713.13-1.232.751-1.232 1.476 0 .936.847 1.643 1.768 1.476zm-10.5 6.458c-.921-.167-1.768.54-1.768 1.476 0 .725.518 1.346 1.232 1.476l.5.091c.921.167 1.768-.54 1.768-1.476 0-.725-.518-1.346-1.232-1.476zm.5-9.409-.5-.091c-.921-.167-1.768.54-1.768 1.476 0 .725.518 1.346 1.232 1.476l.5.091c.921.167 1.768-.54 1.768-1.476 0-.725-.518-1.346-1.232-1.476zm14.217 11.385-2.486-.994v-3.5c0-.828-.672-1.5-1.5-1.5s-1.5.672-1.5 1.5v6.471l-.51-.525c-.704-.705-1.839-.876-2.647-.294-1.03.742-1.116 2.188-.257 3.047l2.328 2.242c.373.359.87.559 1.387.559h5.699c1.105 0 2-.895 2-2v-1.292c0-1.636-.996-3.106-2.514-3.714z"/></svg>