<svg id="Layer_1" viewBox="0 0 24 24" xmlns="http://www.w3.org/2000/svg" data-name="Layer 1"><path d="m2.595 14.867c-1.207-1.701-2.002-3.399-2.364-5.044-.178-.809.333-1.609 1.143-1.788.811-.179 1.608.334 1.787 1.142.275 1.252.909 2.583 1.882 3.956.479.676.319 1.611-.356 2.091-.263.187-.566.276-.866.276-.47 0-.933-.22-1.225-.633zm10.905-7.367c0-1.995 1.612-3.5 3.75-3.5 1.734 0 3.231 1.174 3.643 2.856.195.804 1.006 1.299 1.812 1.101.805-.196 1.298-1.008 1.102-1.813-.739-3.029-3.436-5.144-6.557-5.144-2.166 0-4.063.935-5.291 2.418-.308-.364-.657-.699-1.045-.996-.656-.505-1.598-.382-2.104.274-.505.657-.382 1.599.275 2.104.886.681 1.414 1.69 1.414 2.7 0 .829.672 1.5 1.5 1.5s1.5-.671 1.5-1.5zm2.556 8.913c-.698.664-1.46 1.323-2.265 1.96-.427.337-.934.548-1.464.609-.823.096-1.413.841-1.317 1.663.092.827.855 1.415 1.663 1.317 1.085-.126 2.114-.554 2.978-1.236.877-.692 1.709-1.413 2.474-2.14.6-.571.624-1.521.053-2.121s-1.52-.625-2.121-.053zm-8.556 2.587h-.5v-.5c0-.828-.672-1.5-1.5-1.5s-1.5.672-1.5 1.5v.5h-.5c-.828 0-1.5.672-1.5 1.5s.672 1.5 1.5 1.5h.5v.5c0 .828.672 1.5 1.5 1.5s1.5-.672 1.5-1.5v-.5h.5c.828 0 1.5-.672 1.5-1.5s-.672-1.5-1.5-1.5zm15-8h-.5v-.5c0-.829-.672-1.5-1.5-1.5s-1.5.671-1.5 1.5v.5h-.5c-.828 0-1.5.671-1.5 1.5s.672 1.5 1.5 1.5h.5v.5c0 .828.672 1.5 1.5 1.5s1.5-.672 1.5-1.5v-.5h.5c.828 0 1.5-.672 1.5-1.5s-.672-1.5-1.5-1.5zm-21-6h.5v.5c0 .829.672 1.5 1.5 1.5s1.5-.671 1.5-1.5v-.5h.5c.828 0 1.5-.671 1.5-1.5s-.672-1.5-1.5-1.5h-.5v-.5c0-.829-.672-1.5-1.5-1.5s-1.5.671-1.5 1.5v.5h-.5c-.828 0-1.5.671-1.5 1.5s.672 1.5 1.5 1.5z"/></svg>