<svg id="Layer_1" viewBox="0 0 24 24" xmlns="http://www.w3.org/2000/svg" data-name="Layer 1"><path d="m23.998 4.016c0-1.069-.416-2.074-1.172-2.829-1.489-1.553-4.17-1.553-5.659 0l-6.16 6.16v-5.846c0-.829-.672-1.501-1.501-1.501s-1.501.672-1.501 1.501v7.674l-.161-.073c-2.492-1.132-5.468-.593-7.403 1.343-.586.586-.586 1.536 0 2.122s1.536.586 2.122 0c.826-.825 1.998-1.178 3.12-1l-4.273 4.272c-1.864 1.864-1.864 4.898 0 6.763 1.865 1.864 4.898 1.864 6.763 0l4.9-4.9.386.378c.592.579 1.543.57 2.122-.023s.569-1.543-.023-2.122l-.921-.9 8.188-8.188c.756-.756 1.172-1.761 1.172-2.83zm-17.947 16.463c-.696.696-1.825.695-2.519 0s-.694-1.824 0-2.519l4.847-4.847 2.547 2.49-4.875 4.875zm14.652-15.755-8.178 8.178-1.415-1.415 8.18-8.179c.377-.377 1.035-.379 1.414 0 .389.372.387 1.042 0 1.415z"/></svg>