<svg id="Layer_1" viewBox="0 0 24 24" xmlns="http://www.w3.org/2000/svg" data-name="Layer 1"><path d="m1.5 2.5c0-1.381 1.119-2.5 2.5-2.5s2.5 1.119 2.5 2.5-1.119 2.5-2.5 2.5-2.5-1.119-2.5-2.5zm10.5 2.5c1.381 0 2.5-1.119 2.5-2.5s-1.119-2.5-2.5-2.5-2.5 1.119-2.5 2.5 1.119 2.5 2.5 2.5zm8 0c1.381 0 2.5-1.119 2.5-2.5s-1.119-2.5-2.5-2.5-2.5 1.119-2.5 2.5 1.119 2.5 2.5 2.5zm4 8.5v6c0 2.481-2.019 4.5-4.5 4.5h-15c-2.481 0-4.5-2.019-4.5-4.5v-6c0-.829.672-1.5 1.5-1.5h21c.828 0 1.5.671 1.5 1.5zm-14 1.5v6h4v-6zm-5.5 6h2.5v-6h-4v4.5c0 .827.673 1.5 1.5 1.5zm16.5-6h-4v6h2.5c.827 0 1.5-.673 1.5-1.5zm-19.887-5h5.774c.734 0 1.301-.687 1.054-1.348-.579-1.546-2.125-2.652-3.941-2.652s-3.362 1.106-3.941 2.652c-.247.661.32 1.348 1.054 1.348zm8 0h5.774c.734 0 1.301-.687 1.054-1.348-.579-1.546-2.125-2.652-3.941-2.652s-3.362 1.106-3.941 2.652c-.247.661.32 1.348 1.054 1.348zm8 0h5.774c.734 0 1.301-.687 1.054-1.348-.579-1.546-2.125-2.652-3.941-2.652s-3.362 1.106-3.941 2.652c-.247.661.32 1.348 1.054 1.348z"/></svg>