<svg id="Layer_1" viewBox="0 0 24 24" xmlns="http://www.w3.org/2000/svg" data-name="Layer 1"><path d="m20.692 5.109c-2.731 4.647-9.966 13.024-18.969 14.375-.802.125-1.587-.437-1.706-1.261-.123-.819.441-1.583 1.261-1.706 7.741-1.161 14.21-8.675 16.643-12.624l-1.618-.71c-.665-.292-.646-1.242.031-1.506l4.038-1.576c.599-.234 1.273.062 1.507.661l1.575 4.038c.264.677-.422 1.335-1.087 1.043l-1.675-.735zm1.808 3.891c-.828 0-1.5.671-1.5 1.5v12c0 .828.672 1.5 1.5 1.5s1.5-.672 1.5-1.5v-12c0-.829-.672-1.5-1.5-1.5zm-5 4c-.828 0-1.5.672-1.5 1.5v8c0 .828.672 1.5 1.5 1.5s1.5-.672 1.5-1.5v-8c0-.828-.672-1.5-1.5-1.5zm-5 4c-.828 0-1.5.672-1.5 1.5v4c0 .828.672 1.5 1.5 1.5s1.5-.672 1.5-1.5v-4c0-.828-.672-1.5-1.5-1.5zm-5 3c-.828 0-1.5.672-1.5 1.5v1c0 .828.672 1.5 1.5 1.5s1.5-.672 1.5-1.5v-1c0-.828-.672-1.5-1.5-1.5zm-6.036-10.465c-1.949-1.949-1.949-5.121 0-7.071l1.732-1.693c.992-.974 2.611-.974 3.607 0l1.72 1.682c1.962 1.961 1.962 5.133.012 7.083-.945.945-2.2 1.464-3.535 1.464s-2.592-.521-3.536-1.465zm1.536-3.535c0 .534.208 1.037.586 1.415.756.755 2.072.755 2.828 0 .378-.378.586-.88.586-1.414s-.208-1.037-.586-1.415l-1.414-1.382-1.426 1.394c-.366.366-.574.869-.574 1.403zm-.5 18c.828 0 1.5-.672 1.5-1.5s-.672-1.5-1.5-1.5-1.5.672-1.5 1.5.672 1.5 1.5 1.5z"/></svg>