<svg id="Layer_1" viewBox="0 0 24 24" xmlns="http://www.w3.org/2000/svg" data-name="Layer 1"><path d="m23.971 15.98c-.191 1.175-1.215 2.028-2.436 2.028-.664 0-1.3-.195-1.839-.552-.388-.257-.448-.802-.119-1.131.236-.235.603-.283.888-.111.316.191.688.297 1.069.297.604 0 1.031-.404 1.096-.795.089-.55-.602-.873-.816-.959-.915-.371-1.751-.78-1.753-.78-.692-.484-1.027-1.231-.921-2.049.111-.845.674-1.534 1.471-1.796.839-.277 1.603-.076 2.152.203.405.205.518.733.238 1.095l-.011.014c-.195.253-.539.347-.831.216-.308-.138-.72-.237-1.156-.096-.412.136-.517.447-.516.577.005.442.335.57.433.615.282.128.806.368 1.366.595 1.461.591 1.828 1.745 1.685 2.627zm-15.971-5.98v4c0 2.209-1.791 4-4 4h-1.75c-.69 0-1.25-.56-1.25-1.25s.56-1.25 1.25-1.25h1.75c.828 0 1.5-.672 1.5-1.5v-.297c-.464.188-.969.297-1.5.297-2.209 0-4-1.791-4-4s1.791-4 4-4 4 1.791 4 4zm-2.5 0c0-.827-.673-1.5-1.5-1.5s-1.5.673-1.5 1.5.673 1.5 1.5 1.5 1.5-.673 1.5-1.5zm14.113-1.679.229-1.376c.083-.495-.299-.946-.801-.946h-.229c-.448 0-.812.364-.812.812v1.376c0 .448.364.812.812.812.397 0 .736-.287.801-.679zm-2.613 1.695v3.983c0 2.206-1.794 4-4 4s-4-1.794-4-4v-3.983c0-2.206 1.794-4 4-4s4 1.794 4 4zm-2.5 0c0-.827-.673-1.5-1.5-1.5s-1.5.673-1.5 1.5v3.983c0 .827.673 1.5 1.5 1.5s1.5-.673 1.5-1.5z"/></svg>