<svg id="Layer_1" viewBox="0 0 24 24" xmlns="http://www.w3.org/2000/svg" data-name="Layer 1"><path d="m24 9.5c0-1.526-.983-2.811-2.345-3.289-.723-1.873-2.53-3.211-4.655-3.211l-.359.06c-.762-1.83-2.626-3.06-4.641-3.06s-3.879 1.229-4.611 3h-.389c-2.125 0-3.932 1.338-4.655 3.211-1.362.479-2.345 1.763-2.345 3.289 0 1.141.558 2.139 1.405 2.776-.252.524-.405 1.104-.405 1.724 0 3 2.278 4.054 4 4.5v2.5c.022 2.468 1.027 3 3.5 3 .627 0 1.219-.04 1.76-.131.536.078 1.103.131 1.74.131s1.204-.054 1.739-.132c.542.092 1.134.132 1.761.132 2.473 0 3.478-.532 3.5-3v-2.5c1.722-.446 4-1.5 4-4.5 0-.62-.153-1.2-.405-1.724.847-.637 1.405-1.635 1.405-2.776zm-17-3.5h.389c1.215 0 2.29-.702 2.74-1.788.297-.714 1.066-1.212 1.871-1.212s1.574.498 1.87 1.21c.451 1.088 1.526 1.79 2.741 1.79h.389c1.103 0 2 .897 2 2 0 .616-.294 1.191-.808 1.578-.571.431-.76 1.204-.449 1.849.171.354.257.715.257 1.073 0 1.131-.771 2.12-1.876 2.406-.662.172-1.124.769-1.124 1.452v3.129c-.005.533-.016 1.169-1.5 1.411v-9.398c0-.828-.672-1.5-1.5-1.5s-1.5.672-1.5 1.5v9.398c-1.484-.242-1.495-.875-1.5-1.398v-3.142c0-.684-.462-1.28-1.124-1.452-1.104-.286-1.876-1.275-1.876-2.406 0-.358.086-.719.257-1.073.311-.645.122-1.418-.449-1.849-.514-.387-.808-.962-.808-1.578 0-1.103.897-2 2-2z"/></svg>