<svg id="Layer_1" viewBox="0 0 24 24" xmlns="http://www.w3.org/2000/svg" data-name="Layer 1"><path d="m11.5 9.5c0 .828-.672 1.5-1.5 1.5s-1.5-.672-1.5-1.5.672-1.5 1.5-1.5 1.5.672 1.5 1.5zm2.5-1.5c-.828 0-1.5.672-1.5 1.5s.672 1.5 1.5 1.5 1.5-.672 1.5-1.5-.672-1.5-1.5-1.5zm9.976 12.236c0 2.264-1.851 3.764-3.976 3.764-2.206 0-4-1.794-4-4v-2.75c0-.689-.561-1.25-1.25-1.25s-1.25.561-1.25 1.25v5.25c0 .829-.672 1.5-1.5 1.5s-1.5-.671-1.5-1.5v-5.25c0-.689-.561-1.25-1.25-1.25s-1.25.561-1.25 1.25v2.75c0 2.206-1.794 4-4 4-2.125 0-3.976-2-3.976-3.764 0-.709.104-1.362.379-1.978.63-1.284 2.597-.757 2.597.673v1.069c0 .551.448 1 1 1s1-.449 1-1v-12c0-3.776 2.993-8 7-8s7 4.224 7 8v12c0 .551.448 1 1 1s1-.449 1-1v-1.052c0-1.513 2.06-1.923 2.668-.537.228.582.361 1.169.308 1.825zm-7.976-7.027v-5.209c0-2.25-1.846-5-4-5s-4 2.75-4 5v5.209c.398-.124.812-.209 1.25-.209 1.054 0 2.007.4 2.75 1.037.743-.637 1.696-1.037 2.75-1.037.438 0 .852.086 1.25.209z"/></svg>