<svg id="Layer_1" viewBox="0 0 24 24" xmlns="http://www.w3.org/2000/svg" data-name="Layer 1"><path d="m15.061 14.939c.586.586.586 1.535 0 2.121-.293.293-.677.439-1.061.439s-.768-.146-1.061-.439l-2-2c-.281-.281-.439-.663-.439-1.061v-3.5c0-.829.672-1.5 1.5-1.5s1.5.671 1.5 1.5v2.879zm6.939-.939c0 5.514-4.486 10-10 10s-10-4.486-10-10c0-3.262 1.577-6.155 4.001-7.982v-4.995c0-.395.222-.742.58-.908.329-.149.718-.128.972.054.042.03 1.738 2.29 1.738 2.29l1.631-1.964c.607-.607 1.539-.621 2.105-.06l1.712 2.021 1.468-2.061c.29-.355.729-.479 1.13-.336.404.146.664.515.664.942v5.019c2.423 1.827 3.999 4.719 3.999 7.98zm-3 0c0-3.86-3.141-7-7-7s-7 3.14-7 7 3.141 7 7 7 7-3.141 7-7z"/></svg>