<svg id="Layer_1" viewBox="0 0 24 24" xmlns="http://www.w3.org/2000/svg" data-name="Layer 1"><path d="m17 8.314v2.43c0 .693-.562 1.255-1.255 1.255h-2.43c-.724 0-1.087-.876-.575-1.388l.31-.31c-.311-.192-.672-.303-1.049-.303-1.103 0-2 .897-2 2s.897 2 2 2c.3 0 .589-.064.858-.192.749-.355 1.642-.036 1.998.713.355.748.036 1.643-.713 1.998-.674.319-1.395.481-2.143.481-2.757 0-5-2.243-5-5s2.243-5 5-5c1.183 0 2.308.428 3.192 1.16l.421-.421c.512-.512 1.388-.149 1.388.575zm5.43 9.62c-.412.726-1.339.967-2.045.562l-.544-.309c-1.538 1.945-3.781 3.3-6.341 3.688v.625c0 .828-.671 1.5-1.5 1.5s-1.5-.672-1.5-1.5v-.625c-2.56-.388-4.803-1.743-6.341-3.688l-.544.309c-.707.405-1.634.165-2.045-.562-.41-.721-.158-1.636.562-2.046l.542-.309c-.429-1.113-.674-2.317-.674-3.58s.245-2.467.674-3.58l-.542-.309c-.72-.41-.972-1.325-.562-2.046.41-.719 1.327-.969 2.045-.562l.544.309c1.538-1.945 3.781-3.3 6.341-3.688v-.625c0-.827.671-1.498 1.5-1.498s1.5.671 1.5 1.5v.625c2.56.388 4.803 1.743 6.341 3.688l.544-.309c.72-.407 1.637-.157 2.045.562.41.721.158 1.636-.562 2.046l-.542.309c.429 1.113.674 2.317.674 3.58s-.245 2.467-.674 3.58l.542.309c.72.41.972 1.325.562 2.046zm-3.43-5.935c0-3.859-3.14-7-7-7s-7 3.141-7 7 3.14 7 7 7 7-3.141 7-7z"/></svg>