<svg id="Layer_1" viewBox="0 0 24 24" xmlns="http://www.w3.org/2000/svg" data-name="Layer 1"><path d="m21.834 13.558-8.989-9.887.075-1.635c.036-.757-.375-1.471-1.047-1.819-.675-.348-1.498-.272-2.099.198-.845.672-1.471 1.55-2.81 1.551-1.339-.001-1.965-.879-2.811-1.552-.598-.469-1.421-.545-2.096-.198-.672.348-1.083 1.062-1.047 1.817l.777 16.936c.112 2.808 2.425 5.062 5.169 5.029 2.692.055 5.106-2.237 5.182-4.935l.103-2.236 3.311 3.011c1.757 1.597 4.453 1.537 6.136-.147 1.681-1.681 1.745-4.376.146-6.135zm-13.538 6.982c-.512.396-1.153.537-1.807.406-.936-.194-1.652-1.085-1.7-2.117l-.671-14.626c.727.425 1.657.766 2.848.766 1.176 0 2.096-.333 2.819-.751.002.049-.648 14.706-.648 14.706-.03.636-.336 1.225-.84 1.616zm11.267-2.972c-.544.547-1.419.566-1.989.047l-5.154-4.685.23-5.008 6.961 7.656c.518.57.498 1.445-.047 1.989zm-11.096-9.092c0 .83-.673 1.502-1.502 1.502s-1.502-.673-1.502-1.502.673-1.502 1.502-1.502 1.502.673 1.502 1.502z"/></svg>