<?xml version="1.0" encoding="UTF-8"?>
<svg xmlns="http://www.w3.org/2000/svg" id="Layer_1" data-name="Layer 1" viewBox="0 0 24 24">
  <path d="M3,2.5c0-1.381,1.119-2.5,2.5-2.5s2.5,1.119,2.5,2.5-1.119,2.5-2.5,2.5-2.5-1.119-2.5-2.5ZM24,22.5c0,.828-.671,1.5-1.5,1.5H1.5c-.829,0-1.5-.672-1.5-1.5s.671-1.5,1.5-1.5h.5v-4.762c-1.205-.808-2-2.182-2-3.738v-2c0-2.481,2.019-4.5,4.5-4.5h2c2.481,0,4.5,2.019,4.5,4.5v2c0,1.557-.795,2.93-2,3.738v4.762h13.5c.829,0,1.5,.672,1.5,1.5ZM3,12.5c0,.827,.673,1.5,1.5,1.5h2c.827,0,1.5-.673,1.5-1.5v-2c0-.827-.673-1.5-1.5-1.5h-2c-.827,0-1.5,.673-1.5,1.5v2Zm2,8.5h1v-4h-1v4ZM15.529,7h1.471v10.5c0,.828,.671,1.5,1.5,1.5s1.5-.672,1.5-1.5V7h1.588c.842,0,1.283-1.001,.715-1.622l-2.887-3.155c-.457-.51-1.256-.51-1.714,0l-2.887,3.155c-.569,.621-.128,1.622,.715,1.622Z"/>
</svg>
