<svg id="Layer_1" viewBox="0 0 24 24" xmlns="http://www.w3.org/2000/svg" data-name="Layer 1"><path d="m22.5 19h-7.35c-.345-.723-.927-1.305-1.65-1.65v-1.35h3.5c3.309 0 6-2.691 6-6 0-3.139-2.423-5.722-5.496-5.979-.985-2.391-3.336-4.021-6.004-4.021-2.947 0-5.446 1.955-6.225 4.706-2.475.651-4.275 2.892-4.275 5.544 0 3.171 2.58 5.75 5.75 5.75h3.75v1.35c-.723.345-1.305.927-1.65 1.65h-7.35c-.829 0-1.5.672-1.5 1.5s.671 1.5 1.5 1.5h7.35c.563 1.179 1.756 2 3.15 2s2.587-.821 3.15-2h7.35c.828 0 1.5-.672 1.5-1.5s-.672-1.5-1.5-1.5zm-7-11.034c0-.533.432-.966.966-.966.385 0 .733.229.886.582l1.048 2.418v-2.2c0-.442.358-.8.8-.8s.8.358.8.8v5.234c0 .533-.432.966-.966.966-.385 0-.733-.229-.886-.582l-1.048-2.418v2.2c0 .442-.358.8-.8.8s-.8-.358-.8-.8zm-7.706 4.611c-.169.835-.781 1.423-1.578 1.423s-1.418-.61-1.569-1.384l-1.017-4.649c-.109-.497.27-.968.779-.968.374 0 .698.26.779.626 0 0 1.026 4.666 1.028 4.674.003-.013 1.004-4.671 1.004-4.671.079-.367.404-.63.78-.63h.012c.508 0 .887.469.779.966l-.997 4.611zm2.206.623v-5.4c0-.442.358-.8.8-.8h1.2c1.381 0 2.5 1.119 2.5 2.5v.026c0 1.396-1.15 2.517-2.545 2.483l-.355-.009v1.2c0 .442-.358.8-.8.8-.442 0-.8-.358-.8-.8zm2-2.8h-.4v-1.8h.4c.496 0 .9.404.9.9s-.404.9-.9.9z"/></svg>