<svg id="Layer_1" viewBox="0 0 24 24" xmlns="http://www.w3.org/2000/svg" data-name="Layer 1"><path d="m24 19.5c0 .828-.672 1.5-1.5 1.5h-1.654l-1.911 2.421c-.195.357-.569.579-.975.579h-.025c-.69 0-1.165-.694-.915-1.337l.647-1.663h-1.83c-.732 0-1.405-.4-1.756-1.042l-.977-1.791c-.297-.52.078-1.167.677-1.167.207 0 .405.082.551.228l1.11.772h2.241l-.654-1.659c-.254-.644.221-1.341.913-1.341.407 0 .781.222.975.579l1.929 2.421h1.654c.828 0 1.5.672 1.5 1.5zm-5.5-17.5h-.5v-.5c0-.828-.672-1.5-1.5-1.5s-1.5.672-1.5 1.5v.5h-6v-.5c0-.828-.671-1.5-1.5-1.5s-1.5.672-1.5 1.5v.5h-.5c-3.033 0-5.5 2.468-5.5 5.5v11c0 3.032 2.467 5.5 5.5 5.5h6c.829 0 1.5-.672 1.5-1.5s-.671-1.5-1.5-1.5h-6c-1.378 0-2.5-1.121-2.5-2.5v-9.5h18v5.5c0 .828.672 1.5 1.5 1.5s1.5-.672 1.5-1.5v-7c0-3.032-2.468-5.5-5.5-5.5z"/></svg>