<svg id="Layer_1" viewBox="0 0 24 24" xmlns="http://www.w3.org/2000/svg" data-name="Layer 1"><path d="m21 23c0 .552-.448 1-1 1s-1-.448-1-1 .448-1 1-1 1 .448 1 1zm2-4c-.552 0-1 .448-1 1s.448 1 1 1 1-.448 1-1-.448-1-1-1zm-3 0c-.552 0-1 .448-1 1s.448 1 1 1 1-.448 1-1-.448-1-1-1zm-2-4v1c0 1.103-.897 2-2 2h-1c-1.103 0-2-.897-2-2v-1c0-1.103.897-2 2-2h1c1.103 0 2 .897 2 2zm-1.999 1v-1h-1.001v1zm1.999 5v1c0 1.103-.897 2-2 2h-1c-1.103 0-2-.897-2-2v-1c0-1.103.897-2 2-2h1c1.103 0 2 .897 2 2zm-1.999 1v-1h-1.001v1zm7.999-7v1c0 1.103-.897 2-2 2h-1c-1.103 0-2-.897-2-2v-1c0-1.103.897-2 2-2h1c1.103 0 2 .897 2 2zm-1.999 1v-1h-1.001v1zm1.999-10.5v1c0 .95-.383 1.81-1 2.442v.558c0 .829-.671 1.5-1.5 1.5-.652 0-1.202-.419-1.408-1h-16.092v8.5c0 1.378 1.122 2.5 2.5 2.5h3c.829 0 1.5.671 1.5 1.5s-.671 1.5-1.5 1.5h-3c-3.033 0-5.5-2.467-5.5-5.5v-9.558c-.617-.631-1-1.492-1-2.442v-1c0-3.033 2.467-5.5 5.5-5.5h13c3.033 0 5.5 2.467 5.5 5.5zm-21 1c0 .276.224.5.5.5h17c.276 0 .5-.224.5-.5v-1c0-1.378-1.122-2.5-2.5-2.5h-13c-1.378 0-2.5 1.122-2.5 2.5z"/></svg>