<svg id="Layer_1" viewBox="0 0 24 24" xmlns="http://www.w3.org/2000/svg" data-name="Layer 1"><path d="m22.5 5h-2.551c-.232-1.14-1.242-2-2.449-2h-1.12l-1.155-1.05c-1.384-1.258-3.176-1.95-5.045-1.95h-4.68c-3.033 0-5.5 2.468-5.5 5.5v2c0 2.089 1.171 3.909 2.891 4.84l-.788 6.7c-1.191.191-2.103 1.215-2.103 2.46 0 1.381 1.119 2.5 2.5 2.5h8c1.381 0 2.5-1.119 2.5-2.5s-1.119-2.5-2.5-2.5h-.372l.709-6.03c1.629-.142 3.168-.81 4.388-1.92l1.155-1.05h1.12c1.208 0 2.217-.86 2.449-2h2.551c.828 0 1.5-.672 1.5-1.5s-.672-1.5-1.5-1.5zm-17.372 14 .706-6h1.979l-.706 6zm5.052-9h-4.68c-1.378 0-2.5-1.121-2.5-2.5v-2c0-1.379 1.122-2.5 2.5-2.5h4.68c1.122 0 2.197.416 3.028 1.171l.792.72v3.219l-.792.72c-.831.755-1.906 1.171-3.028 1.171zm1.82-3.5c0 .828-.671 1.5-1.5 1.5h-4c-.829 0-1.5-.672-1.5-1.5s.671-1.5 1.5-1.5h4c.829 0 1.5.672 1.5 1.5z"/></svg>