<svg id="Layer_1" viewBox="0 0 24 24" xmlns="http://www.w3.org/2000/svg" data-name="Layer 1"><path d="m23.354 10.728-2.427-5.462c-.882-1.983-2.854-3.266-5.026-3.266h-2.161c-1.01-1.221-2.535-2-4.239-2h-4c-3.034 0-5.501 2.468-5.501 5.5v13.5c0 2.761 2.239 5 5 5h5c2.419 0 4.436-1.718 4.899-4h2.101v.5c0 1.381 1.119 2.5 2.5 2.5s2.5-1.119 2.5-2.5v-1.262c1.205-.808 2-2.182 2-3.738v-1.727c0-1.059-.218-2.084-.646-3.046zm-8.354 2.272h5.919c.044.254.081.511.081.773v1.727c0 .827-.673 1.5-1.5 1.5h-4.5zm.9-8c.987 0 1.884.582 2.284 1.484l1.562 3.516h-4.747v-4.5c0-.169-.01-.335-.025-.5zm-7.9 17-1.001.008c-.552 0-1-.448-1-1s.448-1 1-1l1.001-.008c.552 0 1 .448 1 1s-.448 1-1 1zm-5-4v-12.5c0-1.379 1.122-2.5 2.5-2.5h4c1.378 0 2.5 1.121 2.5 2.5v12.5zm7.778-5.065c-.153 1.08-1.108 1.865-2.199 1.865h-.28v.4c0 .442-.358.8-.8.8s-.8-.358-.8-.8v-.4h-.2c-.711 0-1.348-.325-1.77-.833-.418-.504-.063-1.266.592-1.266.252-.017.493.084.664.274.128.139.312.226.515.226h2.103c.278 0 .532-.187.586-.46.063-.318-.146-.615-.451-.677l-2.791-.559c-1.112-.223-1.888-1.281-1.725-2.439.152-1.08 1.108-1.866 2.199-1.866h.28v-.4c0-.442.358-.8.8-.8s.8.358.8.8v.4h.2c.711 0 1.348.324 1.77.833.418.504.063 1.266-.592 1.266-.252.017-.493-.084-.664-.274-.128-.139-.312-.226-.515-.226h-2.102c-.278 0-.532.186-.587.458-.064.318.146.617.449.678l2.792.559c1.112.222 1.889 1.282 1.725 2.439z"/></svg>