<svg id="Layer_1" viewBox="0 0 24 24" xmlns="http://www.w3.org/2000/svg" data-name="Layer 1"><path d="m8.003 2.498c0-1.38 1.119-2.498 2.498-2.498s2.498 1.119 2.498 2.498-1.119 2.498-2.498 2.498-2.498-1.119-2.498-2.498zm9.493 10.494c1.932 0 3.498-1.566 3.498-3.498s-1.566-3.498-3.498-3.498-3.498 1.566-3.498 3.498 1.566 3.498 3.498 3.498zm6.293 8.332c-.418-.722-1.337-.965-2.05-.546-.528.311-1.262.236-1.802-.15-1.161-.833-2.721-.832-3.88 0-.627.448-1.492.447-2.117 0-1.161-.831-2.719-.831-3.88 0-.624.447-1.492.447-2.116 0-1.16-.831-2.719-.831-3.88 0-.544.389-1.268.463-1.803.15-.716-.419-1.632-.174-2.049.547-.416.721-.173 1.646.543 2.066 1.528.896 3.569.761 5.047-.3.129-.092.277-.092.406 0 1.639 1.174 3.951 1.174 5.59 0 .129-.092.277-.093.406 0 1.641 1.173 3.947 1.174 5.59 0 .127-.092.275-.092.406 0 .82.587 1.812.91 2.794.91.792 0 1.572-.211 2.253-.611.715-.42.957-1.345.542-2.066zm-17.442-9.907.627.439-2.697 3.85c-.475.678-.31 1.613.367 2.088.671.471 1.61.315 2.088-.367l2.697-3.849 6.015 4.217c.671.471 1.61.316 2.088-.367.475-.678.31-1.613-.367-2.088l-9.098-6.377c-.667-.467-1.065-1.232-1.065-2.046v-5.418c0-.828-.671-1.499-1.499-1.499s-1.499.671-1.499 1.499v5.417c0 1.79.875 3.473 2.342 4.501z"/></svg>