<svg id="Layer_1" viewBox="0 0 24 24" xmlns="http://www.w3.org/2000/svg" data-name="Layer 1"><path d="m14 6.5c0-3.584-2.916-6.5-6.5-6.5s-6.5 2.916-6.5 6.5c0 2.502 1.423 4.674 3.5 5.76l1.637 1.567-1.206 1.206c-.463.463-.463 1.214 0 1.678l1.206 1.206-1.637 1.637s-.5.484-.5.882c0 .564.203 1.002.565 1.363l1.681 1.681c.693.693 1.816.693 2.508 0l1.562-1.562c.438-.438.683-1.031.683-1.65v-8.3c1.801-1.157 3-3.173 3-5.468zm-6.5-3.5c1.93 0 3.5 1.57 3.5 3.5s-1.57 3.5-3.5 3.5-3.5-1.57-3.5-3.5 1.57-3.5 3.5-3.5zm-1.5 2.5c0-.828.672-1.5 1.5-1.5s1.5.672 1.5 1.5-.672 1.5-1.5 1.5-1.5-.672-1.5-1.5zm9 4c0-.828.671-1.5 1.5-1.5h2c.276 0 .5-.225.5-.5v-2.011c-.604-.456-1-1.173-1-1.989 0-1.381 1.119-2.5 2.5-2.5s2.5 1.119 2.5 2.5c0 .815-.396 1.532-1 1.989v2.011c0 1.93-1.57 3.5-3.5 3.5h-2c-.829 0-1.5-.672-1.5-1.5zm8 11c0 1.381-1.119 2.5-2.5 2.5s-2.5-1.119-2.5-2.5c0-.815.396-1.532 1-1.989v-2.011c0-.275-.224-.5-.5-.5h-4c-.829 0-1.5-.672-1.5-1.5s.671-1.5 1.5-1.5h4c1.93 0 3.5 1.57 3.5 3.5v2.011c.604.456 1 1.173 1 1.989z"/></svg>