<svg id="Layer_1" viewBox="0 0 24 24" xmlns="http://www.w3.org/2000/svg" data-name="Layer 1"><path d="m21 7.025v-3.025l2.626-1.302c.498-.332.498-1.064 0-1.396l-1.73-.858c-.589-.292-1.238-.444-1.896-.444-.552 0-1 .447-1 1v6h-6v-3l2.626-1.302c.498-.332.498-1.064 0-1.396l-1.73-.858c-.589-.292-1.238-.444-1.896-.444-.552 0-1 .447-1 1v6h-6v-3l2.626-1.302c.498-.332.498-1.064 0-1.396l-1.73-.858c-.589-.292-1.238-.444-1.896-.444-.552 0-1 .447-1 1v6.025c-1.673.129-3 1.517-3 3.223 0 .31.044.617.132.916l2.368 8.052v.284c0 2.481 2.019 4.5 4.5 4.5h10c2.481 0 4.5-2.019 4.5-4.5v-.284l2.369-8.054c.087-.297.131-.604.131-.914 0-1.706-1.327-3.094-3-3.223zm-10.954 5.975-.333-3h4.574l-.333 3h-3.907zm7.259-3h3.447c.137 0 .248.111.238.318l-.789 2.682h-3.229zm-14.057 0h3.447l.333 3h-3.222l-.806-2.752c0-.137.111-.248.248-.248zm15.252 9v.5c0 .827-.673 1.5-1.5 1.5h-3v-1c0-1.105-.895-2-2-2s-2 .895-2 2v1h-3c-.827 0-1.5-.673-1.5-1.5v-.5c0-.144-.021-.286-.061-.423l-.755-2.577h14.635l-.758 2.577c-.041.137-.061.279-.061.423z"/></svg>