<svg id="Layer_1" viewBox="0 0 24 24" xmlns="http://www.w3.org/2000/svg" data-name="Layer 1"><path d="m24 10.5c.04 6.894-5.193 12.617-12.513 13.5-.805 0-1.59-.282-2.223-.81-.804-.671-1.265-1.655-1.265-2.7v-1.62c-4.525-.723-7.999-4.643-7.999-9.37 0-5.238 4.262-9.5 9.5-9.5 3.051 0 5.937 1.484 7.719 3.971.482.673.328 1.61-.345 2.093-.674.481-1.611.328-2.093-.345-1.22-1.702-3.195-2.719-5.281-2.719-3.584 0-6.5 2.916-6.5 6.5s2.916 6.5 6.5 6.5c1.799 0 3.473-.721 4.713-2.031.569-.602 1.518-.628 2.121-.058.602.57.627 1.519.058 2.121-1.462 1.544-3.34 2.516-5.392 2.84v1.619c.049.371.217.518.569.502 4.399-.799 7.595-3.416 8.845-7.001-1.889-.047-3.414-1.591-3.414-3.491 0-1.93 1.57-3.5 3.5-3.5 1.95-.008 3.458 1.602 3.5 3.5zm-14.206-5.645c1.366 1.219 3.706 3.02 3.706 5.13 0 2.138-1.67 3.885-3.777 4.009-1.76.103-3.291-1.046-3.969-2.675-.633-1.521.035-2.949.75-3.833.187-.23.551-.188.671.082.169.383.113 1.003.472 1.003.758 0 .584-2.179 1.429-3.609.15-.254.498-.303.718-.107zm.043 4.815c-.187-.187-.489-.187-.676 0l-.67.67c-.573.573-.675 1.511-.148 2.127.305.356.731.533 1.157.533s.851-.178 1.156-.533c.527-.614.425-1.554-.148-2.127l-.67-.67z"/></svg>