<?xml version="1.0" encoding="UTF-8"?>
<svg xmlns="http://www.w3.org/2000/svg" id="Layer_1" data-name="Layer 1" viewBox="0 0 24 24">
  <path d="M23,7.132c0,1.043-.382,2.047-1.074,2.826l-5.926,7.417v5.125c0,.54-.291,1.039-.761,1.306-.229,.13-.484,.194-.739,.194-.268,0-.534-.071-.771-.214l-5-3c-.452-.271-.728-.759-.728-1.286v-2.165L2.034,10.032c-.632-.71-1.034-1.812-1.034-2.9,0-1.949,1.319-3.645,3.207-4.124,.811-.201,1.62,.283,1.823,1.085,.204,.803-.283,1.619-1.085,1.823-.556,.141-.944,.641-.944,1.215,0,.341,.136,.751,.316,.954l6.345,7.765c.219,.269,.338,.604,.338,.949v1.851l2,1.2v-3.001c0-.341,.116-.671,.328-.937l6.305-7.889c.255-.29,.367-.585,.367-.893,0-.555-.371-1.05-.903-1.204-.795-.231-1.253-1.062-1.022-1.858,.23-.796,1.063-1.252,1.858-1.023,1.806,.523,3.067,2.204,3.067,4.085Zm-14,4.868h5.5c.828,0,1.5-.671,1.5-1.5s-.672-1.5-1.5-1.5h-2.5v-1h.5c.828,0,1.5-.671,1.5-1.5s-.672-1.5-1.5-1.5h-.5v-1.51c0-.276,.224-.5,.5-.5,.214,0,.365,.13,.435,.252,.41,.72,1.328,.971,2.046,.56,.72-.41,.971-1.327,.56-2.046C14.919,.667,13.754-.01,12.5-.01c-1.93,0-3.5,1.57-3.5,3.5v1.602c-.581,.207-1,.756-1,1.408s.419,1.202,1,1.408v1.092c-.829,0-1.5,.671-1.5,1.5s.671,1.5,1.5,1.5Z"/>
</svg>
