<svg id="Layer_1" viewBox="0 0 24 24" xmlns="http://www.w3.org/2000/svg" data-name="Layer 1"><path d="m22.066 9.919-4.008-1.328c-.362-.121-.752-.121-1.114 0l-4.011 1.328c-1.156.385-1.932 1.462-1.932 2.678v3.876c0 4.162 4.207 6.589 5.493 7.232 0 0 .62.295 1.008.295.592 0 .88-.217.88-.217 1.318-.531 5.618-2.621 5.618-7.311v-3.876h.001c0-1.216-.778-2.293-1.934-2.677zm-1.375 8.734c-.812.83-1.939 1.347-3.191 1.347-1.228 0-2.327-.507-3.133-1.311l-.695.695c-.248.248-.672.072-.672-.278v-2.526c0-.32.259-.579.579-.579h2.526c.351 0 .526.424.278.672l-.607.607c.449.438 1.048.721 1.723.721s1.289-.275 1.738-.716c.171-.168.473-.284.774-.284.862 0 1.281 1.037.679 1.653zm1.309-4.232c0 .32-.259.579-.579.579h-2.526c-.351 0-.526-.424-.278-.672l.607-.607c-.449-.438-1.048-.721-1.723-.721s-1.289.275-1.738.716c-.171.168-.438.284-.774.284-.862 0-1.281-1.037-.679-1.653.812-.83 1.939-1.347 3.191-1.347 1.228 0 2.327.506 3.133 1.311l.695-.695c.248-.248.672-.072.672.278v2.526zm-12.589 6.552c-.297.018-.602.027-.911.027-3.465 0-5.343-1.106-5.5-1.5v-1.484c1.213.518 2.739.857 4.496.957.818.048 1.538-.584 1.582-1.414.047-.827-.586-1.535-1.413-1.582-2.986-.168-4.531-1.145-4.665-1.477v-1.484c1.211.518 2.736.857 4.492.956.818.051 1.538-.585 1.582-1.413.047-.827-.586-1.535-1.413-1.582-2.983-.168-4.526-1.145-4.661-1.477v-1.499c1.554.659 3.53.999 5.5.999 4.224 0 8.5-1.546 8.5-4.5s-4.276-4.5-8.5-4.5-8.5 1.546-8.5 4.5v15c0 2.954 4.276 4.5 8.5 4.5.37 0 .733-.012 1.089-.033.827-.049 1.458-.76 1.408-1.587-.05-.826-.773-1.47-1.587-1.407zm-.911-17.973c3.42 0 5.287 1.076 5.486 1.482-.224.456-2.086 1.518-5.486 1.518-3.419 0-5.286-1.075-5.485-1.482.223-.456 2.085-1.518 5.485-1.518z"/></svg>