<svg id="Layer_1" viewBox="0 0 24 24" xmlns="http://www.w3.org/2000/svg" data-name="Layer 1"><path d="m23.884 17.421c-1.426-6.15-4.469-11.728-8.801-16.131-.817-.832-1.913-1.29-3.084-1.29s-2.266.458-3.084 1.29c-4.331 4.403-7.374 9.981-8.799 16.131-.527 2.275.797 4.585 3.015 5.259 2.884.876 5.868 1.32 8.87 1.32s5.986-.444 8.87-1.32c2.218-.674 3.542-2.983 3.015-5.259zm-3.886 2.388c-5.205 1.582-10.793 1.582-15.998 0-.7-.213-1.133-.979-.964-1.71 1.302-5.612 4.074-10.696 8.019-14.705.25-.254.585-.394.945-.394s.695.14.945.394c3.944 4.009 6.717 9.094 8.017 14.705.169.73-.264 1.497-.964 1.71zm-3.999-6.309c0 2.209-1.791 4-4 4s-4-1.791-4-4 1.791-4 4-4 4 1.791 4 4z"/></svg>