<svg id="Layer_1" viewBox="0 0 24 24" xmlns="http://www.w3.org/2000/svg" data-name="Layer 1"><path d="m15.013 15.5v-1c0-1.381-1.119-2.5-2.5-2.5h-1.5v-1.5c0-1.381-1.119-2.5-2.5-2.5h-1c-1.381 0-2.5 1.119-2.5 2.5v5c0 1.381 1.119 2.5 2.5 2.5h5c1.381 0 2.5-1.119 2.5-2.5zm-6 .5h-2v-2h2zm0-4h-2v-2h2zm4 4h-2v-2h2zm-2 6.5c0 .828-.672 1.5-1.5 1.5h-4c-3.032 0-5.5-2.468-5.5-5.5v-13c0-3.032 2.468-5.5 5.5-5.5h6.343c1.47 0 2.851.572 3.89 1.611l2.656 2.656c1.039 1.039 1.611 2.42 1.611 3.89v2.343c0 .828-.672 1.5-1.5 1.5s-1.5-.672-1.5-1.5v-1.5h-4c-1.105 0-2-.895-2-2v-4h-5.5c-1.379 0-2.5 1.121-2.5 2.5v13c0 1.379 1.121 2.5 2.5 2.5h4c.828 0 1.5.672 1.5 1.5zm12.234-5.484-5.715 5.715c-.813.813-1.915 1.269-3.064 1.269h-.955c-.276 0-.5-.224-.5-.5v-.955c0-1.149.457-2.252 1.269-3.064l5.808-5.808c.953-.953 2.534-.894 3.409.176.761.93.598 2.317-.252 3.167z"/></svg>