<svg id="Layer_1" viewBox="0 0 24 24" xmlns="http://www.w3.org/2000/svg" data-name="Layer 1"><path d="m21 22.5c0 .828-.671 1.5-1.5 1.5h-15c-.829 0-1.5-.672-1.5-1.5s.671-1.5 1.5-1.5h15c.829 0 1.5.672 1.5 1.5zm.513-22.5c-1.378 0-2.5 1.121-2.5 2.5v3.634c-1.248-.266-2.621.058-3.551.988l-3.482 3.482c-.155-.177-.313-.354-.486-.526l-2.876-2.877c-.988-.988-2.351-1.362-3.605-1.099v-3.602c0-1.379-1.122-2.5-2.5-2.5s-2.5 1.121-2.5 2.5v11.015c0 1.839.673 3.608 1.894 4.981.552.622 1.501.674 2.118.125.619-.551.675-1.498.125-2.117-.733-.825-1.136-1.886-1.136-2.989v-1.12l2.443 2.426c.587.583 1.538.581 2.121-.008.583-.588.58-1.537-.008-2.121l-2.45-2.432c-.206-.39-.172-.789.24-1.115.316-.223.815-.146 1.137.178l2.876 2.877c1.095 1.095 1.627 2.237 1.627 3.491v1.81c0 .828.671 1.5 1.5 1.5s1.5-.672 1.5-1.5v-1.81c0-.843-.149-1.654-.429-2.436l4.012-4.012c.313-.314.859-.314 1.173 0 .271.271.318.694.123 1.017l-2.424 2.405c-.588.583-.592 1.533-.008 2.121s1.534.592 2.122.008l2.443-2.424v1.145c0 1.103-.403 2.163-1.134 2.986-.55.62-.493 1.568.126 2.118.617.548 1.566.495 2.118-.126 1.219-1.374 1.89-3.142 1.89-4.979v-11.014c0-1.379-1.122-2.5-2.5-2.5z"/></svg>