<svg id="Layer_1" viewBox="0 0 24 24" xmlns="http://www.w3.org/2000/svg" data-name="Layer 1"><path d="m22 10h-20c-1.105 0-2-.895-2-2v-2h9c0 1.105.895 2 2 2h2c1.105 0 2-.895 2-2h9v2c0 1.105-.895 2-2 2zm2-8c0-1.105-.895-2-2-2h-7c0 1.105-.895 2-2 2h-2c-1.105 0-2-.895-2-2h-7c-1.105 0-2 .895-2 2v2h24s0-2 0-2zm-7.877 11.006-.005-.006h-3.772c-1.296 0-2.346 1.05-2.346 2.346 0 1.167.858 2.157 2.014 2.322l3.964.551c1.073.149 2.034-.677 2.048-1.76 1.745.779 2.974 2.51 2.974 4.541v1.5c0 .828.672 1.5 1.5 1.5.828 0 1.5-.672 1.5-1.5v-1.5c0-4.377-3.516-7.927-7.877-7.994zm-6.535 5.672c-.649-.536-1.138-1.253-1.39-2.067-.265-.855-.799-1.6-1.533-2.111l-3.094-2.153c-1.105-.678-2.55-.33-3.227.775-.671 1.097-.334 2.529.755 3.212l7.532 5.1c2.017 1.365 4.329 2.212 6.734 2.477.873.096 1.634-.607 1.634-1.485 0-.771-.591-1.404-1.359-1.472-2.178-.195-4.301-.959-6.052-2.275z"/></svg>