<svg id="Layer_1" viewBox="0 0 24 24" xmlns="http://www.w3.org/2000/svg" data-name="Layer 1"><path d="m18 0c-3.309 0-6 2.691-6 6v2c0 1.771.776 3.36 2 4.46v7.54c0 2.206 1.794 4 4 4s4-1.794 4-4v-7.54c1.224-1.099 2-2.688 2-4.46v-2c0-3.309-2.691-6-6-6zm0 11c-1.483 0-2.71-1.084-2.949-2.5h5.899c-.24 1.416-1.466 2.5-2.949 2.5zm0-8c1.483 0 2.71 1.084 2.949 2.5h-5.899c.24-1.416 1.466-2.5 2.949-2.5zm1 17c0 .552-.448 1-1 1s-1-.448-1-1v-6.09c.326.055.659.09 1 .09s.674-.035 1-.09zm-6.5 2.5c0 .828-.672 1.5-1.5 1.5h-6.5c-2.481 0-4.5-2.019-4.5-4.5v-9c0-2.31 1.756-4.197 4-4.449v-.551c0-.829.672-1.5 1.5-1.5s1.5.671 1.5 1.5v.5h1.5c.828 0 1.5.671 1.5 1.5v.5c0 .856.137 1.679.388 2.451.249.766-.317 1.549-1.122 1.549h-6.266v7.5c0 .827.673 1.5 1.5 1.5h6.5c.828 0 1.5.672 1.5 1.5z"/></svg>