<svg id="Layer_1" viewBox="0 0 24 24" xmlns="http://www.w3.org/2000/svg" data-name="Layer 1"><path d="m24 5.5v1c0 .829-.671 1.5-1.5 1.5s-1.5-.671-1.5-1.5v-1c0-1.378-1.122-2.5-2.5-2.5h-13c-1.378 0-2.5 1.122-2.5 2.5v7c0 1.378 1.122 2.5 2.5 2.5h4c.829 0 1.5.671 1.5 1.5s-.671 1.5-1.5 1.5h-4c-3.033 0-5.5-2.467-5.5-5.5v-7c0-3.033 2.467-5.5 5.5-5.5h13c3.033 0 5.5 2.467 5.5 5.5zm-4 0c0-.828-.672-1.5-1.5-1.5s-1.5.672-1.5 1.5.672 1.5 1.5 1.5 1.5-.672 1.5-1.5zm-14.5-1.5c-.828 0-1.5.672-1.5 1.5s.672 1.5 1.5 1.5 1.5-.672 1.5-1.5-.672-1.5-1.5-1.5zm0 7c-.828 0-1.5.672-1.5 1.5s.672 1.5 1.5 1.5 1.5-.672 1.5-1.5-.672-1.5-1.5-1.5zm8.876-2.523c.298-.246.38-.69.181-1.022-.522-.87-1.467-1.455-2.557-1.455-1.657 0-3 1.343-3 3-.007 1.446 1.055 2.691 2.421 2.945.397.074.805-.169.935-.551.394-1.152 1.099-2.159 2.02-2.917zm9.624 9.523v3c0 1.657-1.343 3-3 3h-5c-1.657 0-3-1.343-3-3v-3c0-.885.39-1.672 1-2.221v-2.279c0-2.481 2.019-4.5 4.5-4.5s4.5 2.019 4.5 4.5v2.279c.61.549 1 1.336 1 2.221zm-7-4.5v1.5h3v-1.5c0-.827-.673-1.5-1.5-1.5s-1.5.673-1.5 1.5zm3 6c0-.828-.672-1.5-1.5-1.5s-1.5.672-1.5 1.5.672 1.5 1.5 1.5 1.5-.672 1.5-1.5z"/></svg>