<svg id="Layer_1" viewBox="0 0 24 24" xmlns="http://www.w3.org/2000/svg" data-name="Layer 1"><path d="m17 3.5c0-1.93 1.57-3.5 3.5-3.5s3.5 1.57 3.5 3.5-1.57 3.5-3.5 3.5-3.5-1.57-3.5-3.5zm7 6v7c0 2.481-2.019 4.5-4.5 4.5h-.776c-.621 1.742-2.271 3-4.224 3h-5c-1.953 0-3.602-1.258-4.224-3h-.776c-2.481 0-4.5-2.019-4.5-4.5v-6c0-2.481 2.019-4.5 4.5-4.5h.5v-1.5c0-2.481 2.019-4.5 4.5-4.5h4.5c.829 0 1.5.671 1.5 1.5s-.671 1.5-1.5 1.5h-4.5c-.827 0-1.5.673-1.5 1.5v1.5h7c.829 0 1.5.671 1.5 1.5s-.671 1.5-1.5 1.5h-10.5c-.827 0-1.5.673-1.5 1.5v6c0 .827.673 1.5 1.5 1.5h.5v-.5c0-2.481 2.019-4.5 4.5-4.5h5c2.481 0 4.5 2.019 4.5 4.5v.5h.5c.827 0 1.5-.673 1.5-1.5v-7c0-.829.671-1.5 1.5-1.5s1.5.671 1.5 1.5zm-8 10v-2c0-.827-.673-1.5-1.5-1.5h-5c-.827 0-1.5.673-1.5 1.5v2c0 .827.673 1.5 1.5 1.5h5c.827 0 1.5-.673 1.5-1.5z"/></svg>