<svg id="Layer_1" viewBox="0 0 24 24" xmlns="http://www.w3.org/2000/svg" data-name="Layer 1"><path d="m23 7.5c0 1.03-.382 2-1.074 2.743l-5.926 6.348v5.909c.017.806-.699 1.5-1.5 1.5-.232 0-.466-.054-.68-.163l-5-2.543c-.504-.256-.82-.772-.82-1.337v-3.366l-5.925-6.347c-.693-.745-1.075-1.714-1.075-2.729 0-1.266.598-2.462 1.6-3.214.662-.497 1.604-.363 2.1.299.498.662.364 1.603-.299 2.1-.254.191-.4.483-.4.8 0 .269.096.512.27.698l6.327 6.778c.259.277.403.644.403 1.023v3.037l2 1.018v-4.055c0-.38.145-.746.403-1.023l6.328-6.779c.173-.186.269-.428.269-.683 0-.332-.146-.624-.4-.815-.663-.498-.797-1.438-.299-2.1.496-.662 1.439-.795 2.1-.299 1.002.752 1.6 1.948 1.6 3.2zm-7.08-5.448-2.742-1.714c-.361-.225-.677-.338-1.178-.338-.409 0-.817.113-1.178.338l-2.742 1.714 3.92 2.24zm-2.92 8.86 2.956-1.843c.65-.406 1.044-1.118 1.044-1.884v-3.454l-4 2.294zm-4.956-1.843 2.956 1.86v-4.907l-4-2.307v3.47c0 .766.395 1.478 1.044 1.884z"/></svg>