<svg id="Layer_1" viewBox="0 0 24 24" xmlns="http://www.w3.org/2000/svg" data-name="Layer 1"><path d="m19.44 17.118c-.926 2.048-2.973 4.045-6.083 5.936-1.01.613-2.168.941-3.351.946-1.195-.005-2.354-.333-3.364-.947-3.029-1.841-6.64-4.794-6.642-8.406v-8.7c0-2.65 1.898-4.926 4.514-5.412 1.697-.316 3.363-.493 4.953-.529.818-.028 1.514.638 1.533 1.466s-.638 1.515-1.466 1.533c-1.428.032-2.932.192-4.47.479-1.195.223-2.063 1.258-2.063 2.463v8.699c0 1.705 1.896 3.835 5.201 5.843.545.332 1.169.508 1.806.511.624-.003 1.248-.179 1.792-.51 2.512-1.526 4.255-3.163 4.908-4.608.341-.754 1.229-1.087 1.984-.749.755.342 1.09 1.23.749 1.985zm-13.618-8.118h2.355c.583 0 .989-.526.755-.994-.427-.856-1.124-1.505-1.933-1.506-.811 0-1.507.65-1.933 1.507-.232.468.173.993.756.993zm-.726 4.027c.921 1.52 2.571 2.973 4.904 2.973s3.983-1.453 4.904-2.973c.321-.53-.211-1.175-.804-.996-1.263.38-2.959.971-4.1.97-1.141 0-2.837-.59-4.1-.97-.593-.178-1.125.467-.804.996zm12.904-5.527c.828 0 1.5-.672 1.5-1.5s-.672-1.5-1.5-1.5-1.5.672-1.5 1.5.672 1.5 1.5 1.5zm-1.5 4c0 .829.671 1.5 1.5 1.5s1.5-.671 1.5-1.5v-1c0-.829-.671-1.5-1.5-1.5s-1.5.671-1.5 1.5zm.773-11.457c-2.618.31-4.788 2.389-5.197 4.993-.266 1.697.186 3.287 1.097 4.518.581.784 1.827.38 1.827-.596v-2.84c0-1.451.978-2.784 2.402-3.06 1.915-.372 3.598 1.092 3.598 2.942v2.965c0 .946 1.217 1.395 1.788.641.76-1.004 1.212-2.252 1.212-3.606 0-3.548-3.095-6.386-6.727-5.957z"/></svg>