<svg id="Layer_1" viewBox="0 0 24 24" xmlns="http://www.w3.org/2000/svg" data-name="Layer 1"><path d="m7.465 4.697 1.292-2.038c.658-1.054 1.822-1.669 3.095-1.66 1.166 0 2.264.601 2.915 1.607l2.996 4.487c.292-.186.579-.37.837-.534.593-.378 1.352.126 1.233.819-.269 1.563-.616 3.581-.633 3.639-.124.459-.597.731-1.056.607l-3.486-.94c-.68-.183-.82-1.087-.226-1.466.247-.158.524-.334.802-.512l-2.973-4.452c-.111-.17-.265-.241-.441-.255-.237 0-.421.094-.523.258l-1.298 2.046c-.443.7-1.37.907-2.07.463-.699-.443-.906-1.37-.463-2.07zm15.929 10.817-1.446-2.063c-.473-.68-1.407-.846-2.088-.374-.68.474-.847 1.408-.374 2.088l1.423 2.042c.101.151.111.342.027.499-.1.185-.287.296-.512.296h-5.425v-.834c0-.738-.876-1.125-1.422-.628l-2.557 2.332c-.348.317-.372.855-.056 1.203.038.044 1.467 1.345 2.614 2.388.545.496 1.42.109 1.42-.629v-.833h5.435c1.317 0 2.53-.718 3.154-1.876.273-.509.412-1.066.412-1.624 0-.577-.2-1.379-.606-1.986zm-15.894 2.486h-.003l-3.943.007c-.207 0-.399-.114-.504-.301-.083-.148-.077-.322.019-.472l2.684-4.233c.234.161.472.325.682.47.58.4 1.358-.081 1.262-.779l-.491-3.577c-.065-.471-.499-.801-.97-.737-.06.007-2.055.473-3.599.833-.685.16-.854 1.056-.275 1.455.283.195.595.41.918.632l-2.742 4.324c-.366.573-.541 1.225-.538 1.878.002.575.14 1.151.433 1.67.631 1.133 1.827 1.836 3.132 1.836l3.938-.007c.828-.001 1.498-.674 1.497-1.502 0-.828-.673-1.498-1.5-1.498zm3.928-1.197 3.46-4.43c.247-.376-.025-.875-.474-.873h-2.196s.758-1.775.758-1.775c.148-.343-.103-.725-.476-.725h-1.628c-.369 0-.699.227-.832.571l-1.391 3.691c-.11.37.168.74.554.738h1.9l-.55 2.339c-.109.326.135.663.478.661.156 0 .302-.073.397-.197z"/></svg>