<svg id="Layer_1" viewBox="0 0 24 24" xmlns="http://www.w3.org/2000/svg" data-name="Layer 1"><path d="m2.5 8h.85c.826 2.327 3.043 4 5.65 4s4.824-1.673 5.65-4h.85c.828 0 1.5-.672 1.5-1.5v-1c0-.828-.672-1.5-1.5-1.5h-.85c-.826-2.327-3.043-4-5.65-4s-4.824 1.673-5.65 4h-.85c-.828 0-1.5.672-1.5 1.5v1c0 .828.672 1.5 1.5 1.5zm6.5 1c-1.665.002-3.038-1.379-2.995-3.048.158.015.311.048.474.048 1.818 0 3.394-.979 4.265-2.431.757.545 1.256 1.429 1.256 2.431 0 1.654-1.346 3-3 3zm14.477 4.861-1.485-1.273c.075-1.407-1.089-2.592-2.491-2.588-1.381 0-2.5 1.119-2.5 2.5s1.119 2.5 2.5 2.5c.208 0 .408-.033.601-.081l.899.77v2.811c0 1.379-1.121 2.5-2.5 2.5h-.503c.002-.352-.058-.704-.179-1.043-1.238-3.451-4.947-5.957-8.818-5.957-3.925 0-7.55 2.447-8.816 5.952-.336.931-.2 1.968.367 2.774.56.798 1.475 1.273 2.45 1.273h15.5c3.032 0 5.5-2.468 5.5-5.5v-3.5c0-.438-.191-.854-.523-1.139zm-20.472 7.111c.832-2.302 3.353-3.972 5.995-3.972s5.164 1.667 5.998 3.993z"/></svg>