<svg id="Layer_1" viewBox="0 0 24 24" xmlns="http://www.w3.org/2000/svg" data-name="Layer 1"><path d="m11 2.5c0-1.381 1.119-2.5 2.5-2.5s2.5 1.119 2.5 2.5-1.119 2.5-2.5 2.5-2.5-1.119-2.5-2.5zm10.5-2.5h-1c-1.381 0-2.5 1.119-2.5 2.5v7.5h-.639c-.433 0-.844-.187-1.129-.512l-2.006-2.292c-.665-.76-1.625-1.195-2.634-1.195h-3.746c-1.841 0-3.478 1.102-4.169 2.808l-.458 1.128c-.312.768.058 1.642.825 1.954.772.314 1.643-.058 1.954-.826l.458-1.128c.23-.568.776-.936 1.39-.936h.657l-1.265 3.084c-.646 1.574-.07 3.377 1.427 4.322l4.082 2.323c.155.089.252.255.252.435v3.337c0 .829.672 1.5 1.5 1.5s1.5-.671 1.5-1.5v-3.337c0-1.256-.678-2.421-1.769-3.042l-2.67-1.518 1.668-3.991.745.852c.854.977 2.089 1.537 3.387 1.537h2.639c.552 0 1 .448 1 1s-.448 1-1 1h-2v6.5c0 1.381 1.119 2.5 2.5 2.5h1c1.381 0 2.5-1.119 2.5-2.5v-19.003c0-1.381-1.119-2.5-2.5-2.5zm-20 5h.5v.951c0 .69.73 1.036 1.157.548l2.144-2.451c.265-.303.265-.793 0-1.096l-2.144-2.45c-.427-.488-1.157-.142-1.157.548v.951h-.5c-.828 0-1.5.671-1.5 1.5s.672 1.5 1.5 1.5zm6.5 14.985c0 2.138-1.67 3.885-3.777 4.009-1.76.103-3.291-1.046-3.969-2.675-.633-1.521.035-2.949.75-3.833.187-.23.551-.188.671.082.169.383.113 1.003.472 1.003.758 0 .584-2.179 1.429-3.609.15-.254.498-.303.718-.107 1.366 1.219 3.706 3.02 3.706 5.13zm-2.992.355-.67-.67c-.187-.187-.489-.187-.676 0l-.67.67c-.573.573-.675 1.511-.148 2.127.305.356.731.533 1.157.533s.851-.178 1.156-.533c.527-.614.425-1.554-.148-2.127z"/></svg>