<?xml version="1.0" encoding="UTF-8"?>
<svg xmlns="http://www.w3.org/2000/svg" id="Layer_1" data-name="Layer 1" viewBox="0 0 24 24">
  <path d="M9,6c0,1.105-.895,2-2,2s-2-.895-2-2,.895-2,2-2,2,.895,2,2Zm15-.5v11c0,3.033-2.468,5.5-5.5,5.5h-.5c-.828,0-1.5-.671-1.5-1.5s.672-1.5,1.5-1.5h.5c.068,0,.133-.015,.2-.02l-2.121-1.856c-.092-.08-.208-.124-.33-.124h-3.403l2.04,4.926c.317,.765-.047,1.643-.812,1.959-.747,.315-1.643-.038-1.96-.812l-.445-1.074H5.5c-3.032,0-5.5-2.467-5.5-5.5V5.5C0,2.467,2.468,0,5.5,0h13c3.032,0,5.5,2.467,5.5,5.5Zm-5.446,9.366l2.399,2.1c.029-.151,.047-.306,.047-.466V5.5c0-1.378-1.121-2.5-2.5-2.5H5.5c-1.379,0-2.5,1.122-2.5,2.5v11c0,1.378,1.121,2.5,2.5,2.5h4.927l-2.265-5.469-1.32,2.64c-.372,.748-1.288,1.038-2.013,.67-.741-.37-1.041-1.271-.671-2.012l1.505-3.009c.446-.892,1.126-1.646,1.966-2.18l4.427-2.817,2.384-2.383c.586-.586,1.535-.586,2.121,0,.586,.585,.586,1.536,0,2.121l-2.5,2.5c-.077,.078-.163,.146-.255,.205l-1.952,1.242,1.447,3.492h2.948c.849,0,1.667,.308,2.306,.866Z"/>
</svg>
