<svg id="Layer_1" viewBox="0 0 24 24" xmlns="http://www.w3.org/2000/svg" data-name="Layer 1"><path d="m24 13.5v5c0 3.032-2.467 5.5-5.5 5.5h-13c-3.033 0-5.5-2.468-5.5-5.5v-10c0-3.032 2.467-5.5 5.5-5.5h4c.829 0 1.5.672 1.5 1.5s-.671 1.5-1.5 1.5h-4c-.956 0-1.779.546-2.199 1.337l6.931 6.931c.975.975 2.562.975 3.536 0l.775-.775c.586-.586 1.535-.586 2.121 0s.586 1.535 0 2.121l-.775.775c-1.072 1.072-2.48 1.608-3.889 1.608s-2.817-.536-3.889-1.608l-5.111-5.11v7.222c0 1.379 1.122 2.5 2.5 2.5h13c1.378 0 2.5-1.121 2.5-2.5v-5c0-.828.671-1.5 1.5-1.5s1.5.672 1.5 1.5zm0-10.5v4c0 1.657-1.343 3-3 3h-3.872l-2.454 1.69c-.186.119-.387.173-.583.173-.566 0-1.089-.45-1.089-1.088l-.002-7.772c0-1.651 1.349-3.001 2.999-3.002h5c1.657-.002 3.001 1.341 3.001 2.999zm-2.479 1.181c-.073-.201-.264-.334-.478-.334h-1.527l-.54-1.516c-.074-.199-.264-.331-.477-.331s-.403.132-.477.331l-.54 1.516h-1.527c-.213 0-.404.133-.477.333-.074.2-.014.425.148.563l1.209.984-.479 1.534c-.065.206.007.43.18.56s.409.136.588.016l1.378-.922 1.401.912c.181.117.417.108.588-.023.171-.132.24-.358.172-.563l-.498-1.516 1.203-.98c.163-.138.224-.363.15-.564z"/></svg>