<svg id="Layer_1" viewBox="0 0 24 24" xmlns="http://www.w3.org/2000/svg" data-name="Layer 1"><path d="m23 15.768v-2.268c0-2.481-2.019-4.5-4.5-4.5s-4.5 2.019-4.5 4.5v2.268c-.612.549-1 1.344-1 2.232v3c0 1.657 1.343 3 3 3h5c1.657 0 3-1.343 3-3v-3c0-.887-.388-1.682-1-2.232zm-4.5-3.768c.827 0 1.5.673 1.5 1.5v1.5h-3v-1.5c0-.827.673-1.5 1.5-1.5zm0 9c-.828 0-1.5-.672-1.5-1.5s.672-1.5 1.5-1.5 1.5.672 1.5 1.5-.672 1.5-1.5 1.5zm-7.553 1.761c-.183.667-.787 1.105-1.446 1.105-1.151-.12-2.19-.81-2.96-1.657-4.34-4.941-6.541-8.881-6.541-11.707.007-5.782 4.716-10.493 10.498-10.502 3.524.006 6.795 1.767 8.751 4.712.459.69.271 1.621-.419 2.079-.689.459-1.622.271-2.079-.419-1.4-2.107-3.738-3.368-6.253-3.372-4.128.007-7.493 3.373-7.498 7.504 0 .938.564 3.771 5.795 9.725.295.336.675.575 1.1.69.8.218 1.271 1.043 1.053 1.842zm-1.947-12.261c0 .827.673 1.5 1.5 1.5s1.5.672 1.5 1.5-.672 1.5-1.5 1.5c-2.481 0-4.5-2.019-4.5-4.5s2.019-4.5 4.5-4.5c1.109 0 2.175.407 3 1.146.617.553.67 1.501.118 2.118-.553.616-1.501.671-2.118.118-.275-.246-.63-.382-1-.382-.827 0-1.5.673-1.5 1.5z"/></svg>