<svg id="Layer_1" viewBox="0 0 24 24" xmlns="http://www.w3.org/2000/svg" data-name="Layer 1"><path d="m17.992 8.431c-.015.889.687 1.625 1.609 1.565.879-.055 1.505-.86 1.387-1.725-.02-1.958-1.087-3.769-2.795-4.734l-5.001-2.825c-1.668-.943-3.744-.944-5.416.002l-4.986 2.824c-1.721.974-2.79 2.808-2.79 4.786v5.804c0 1.969 1.062 3.798 2.771 4.775l5.025 2.872c.706.408 1.633.167 2.047-.558.411-.719.161-1.635-.559-2.046l-5.025-2.872c-.776-.444-1.259-1.276-1.259-2.171v-5.698l5.993 3.425v.645c0 .829.672 1.5 1.5 1.5s1.5-.671 1.5-1.5v-.64l5.999-3.428zm-8.737-5.106c.76-.431 1.702-.431 2.462 0l4.61 2.604-5.829 3.331-5.834-3.335 4.592-2.6zm8.745 8.675c-3.314 0-6 2.686-6 6s2.686 6 6 6 6-2.686 6-6-2.686-6-6-6zm2.5 7h-1.5v1.5c0 .553-.447 1-1 1s-1-.447-1-1v-1.5h-1.5c-.553 0-1-.447-1-1s.447-1 1-1h1.5v-1.5c0-.553.447-1 1-1s1 .447 1 1v1.5h1.5c.553 0 1 .447 1 1s-.447 1-1 1z"/></svg>