<svg id="Layer_1" viewBox="0 0 24 24" xmlns="http://www.w3.org/2000/svg" data-name="Layer 1"><path d="m3 19.5c0 .827.673 1.5 1.5 1.5h5c.828 0 1.5.671 1.5 1.5s-.672 1.5-1.5 1.5h-5c-2.481 0-4.5-2.019-4.5-4.5s2.019-4.5 4.5-4.5h2.5v-3.5c0-.829.672-1.5 1.5-1.5s1.5.671 1.5 1.5v3.592c.581.207 1 .756 1 1.408 0 .829-.672 1.5-1.5 1.5h-5c-.827 0-1.5.673-1.5 1.5zm-.475-14.142c3.35-3.137 8.6-3.137 11.949 0 .604.565 1.553.536 2.12-.07.566-.605.535-1.554-.069-2.121-4.5-4.212-11.55-4.212-16.05 0-.604.566-.636 1.516-.069 2.121.565.604 1.516.635 2.12.07zm10.476 1.362c-2.566-2.3-6.436-2.3-9.002 0-.617.553-.669 1.501-.116 2.118.554.616 1.501.669 2.118.116 1.426-1.277 3.572-1.277 4.998 0 .614.551 1.565.502 2.118-.116.553-.617.501-1.565-.116-2.118zm10.999 11.28v3c0 1.657-1.343 3-3 3h-5c-1.657 0-3-1.343-3-3v-3c0-.885.39-1.672 1-2.221v-2.279c0-2.481 2.019-4.5 4.5-4.5s4.5 2.019 4.5 4.5v2.279c.61.549 1 1.336 1 2.221zm-7-4.5v1.5h3v-1.5c0-.827-.673-1.5-1.5-1.5s-1.5.673-1.5 1.5zm3 6c0-.828-.672-1.5-1.5-1.5s-1.5.672-1.5 1.5.672 1.5 1.5 1.5 1.5-.672 1.5-1.5z"/></svg>