<svg id="Layer_1" viewBox="0 0 24 24" xmlns="http://www.w3.org/2000/svg" data-name="Layer 1"><path d="m23.561 21.439-5.256-5.256c1.346-1.704 2.157-3.849 2.157-6.184 0-5.513-4.486-9.999-10-9.999s-10 4.486-10 10 4.486 10 10 10c2.098 0 4.046-.653 5.656-1.762l5.322 5.322c.586.586 1.535.586 2.121 0s.586-1.535 0-2.121zm-9.062-10.531v2.011c0 .597-.484 1.081-1.081 1.081-.477 0-.886-.317-1.031-.772-.219-.686-.782-1.228-1.887-1.228h-1.447l.884 2.135c.386.879-.258 1.865-1.218 1.865-.529 0-1.008-.314-1.219-.798l-1.654-3.97c-.229-.549-.346-1.137-.346-1.732 0-1.381 1.119-2.5 2.5-2.5h2.5c1.105 0 1.667-.543 1.887-1.228.146-.455.554-.772 1.031-.772.597 0 1.082.484 1.082 1.082v2.01c.581.207 1 .757 1 1.408s-.42 1.201-1.001 1.408z"/></svg>