<svg id="Layer_1" viewBox="0 0 24 24" xmlns="http://www.w3.org/2000/svg" data-name="Layer 1"><path d="m11.702 9.88c.351.551.396 1.233.119 1.825-.018.037-2.019 3.547-2.019 3.547-.413.727-1.34.967-2.046.56-.72-.41-.971-1.327-.56-2.046l1.007-1.766h-1.263c-.663 0-1.268-.337-1.616-.901s-.381-1.255-.084-1.849l2.001-3.497c.413-.72 1.331-.965 2.048-.555.719.412.967 1.329.556 2.047l-1.006 1.754h1.259c.653 0 1.253.329 1.604.88zm12.298-1.88v2.5c0 .815-.396 1.532-1 1.989v6.011c0 3.033-2.468 5.5-5.5 5.5h-12.5c-2.761 0-5-2.239-5-5v-13.5c0-3.033 2.468-5.5 5.5-5.5h6c3.032 0 5.5 2.467 5.5 5.5v13.5c.026.725-.125 1.366-.414 2h.914c1.379 0 2.5-1.122 2.5-2.5v-6.011c-.604-.456-1-1.173-1-1.989v-2.5c0-.552.448-1 1-1v-.5c0-.829.672-1.5 1.5-1.5s1.5.671 1.5 1.5v.5c.552 0 1 .448 1 1zm-10 10v-12.5c0-1.378-1.121-2.5-2.5-2.5h-6c-1.379 0-2.5 1.122-2.5 2.5v12.5zm-5 4c.552 0 1-.448 1-1s-.448-1-1-1h-1c-.552 0-1 .448-1 1s.448 1 1 1z"/></svg>