<svg id="Layer_1" viewBox="0 0 24 24" xmlns="http://www.w3.org/2000/svg" data-name="Layer 1"><path d="m21 9c0-4.96-4.04-9-9-9s-9 4.04-9 9v13.5c0 .83.67 1.5 1.5 1.5s1.5-.67 1.5-1.5v-4c0-.55.45-1 1-1s1 .45 1 1v2c0 .83.67 1.5 1.5 1.5s1.5-.67 1.5-1.5v-1c0-.55.45-1 1-1s1 .45 1 1v2c0 .83.67 1.5 1.5 1.5s1.5-.67 1.5-1.5v-3.5c0-.55.45-1 1-1s1 .45 1 1v2.5c0 .83.67 1.5 1.5 1.5s1.5-.67 1.5-1.5zm-4.2 3.6c-1.15 1.53-2.9 2.4-4.8 2.4-3.31 0-6-2.69-6-6 0-.75.14-1.46.39-2.12l.54.54c.37.37.86.58 1.38.58h1.19l.5.5v1.21l1 1.29v1.95c0 .58.47 1.05 1.05 1.05.41 0 .78-.24.95-.61l1.48-3.21c.22-.47.06-1.03-.38-1.31l-1.43-.93c-.43-.28-.94-.43-1.46-.43h-.99l-.47-.44c-.33-.31-.34-.82-.02-1.14l.49-.49.99.5c.26.13.57.08.78-.13.22-.22.26-.56.1-.82l-.8-1.34s.16-.25.41-.63c.1 0 .2-.02.31-.02 2.13 0 4 1.12 5.06 2.8l-.2.13c-.52.34-.77.98-.61 1.58l.26 1.05c.12.5.5.89.99 1.04l.44.14c-.13 1.04-.5 2.02-1.14 2.86z"/></svg>