<svg id="Layer_1" viewBox="0 0 24 24" xmlns="http://www.w3.org/2000/svg" data-name="Layer 1"><path d="m17.5 0c-3.59 0-6.5 2.91-6.5 6.5s2.91 6.5 6.5 6.5 6.5-2.91 6.5-6.5-2.91-6.5-6.5-6.5zm4.217 7.185-3.063 3.063c-.61.61-1.653.178-1.653-.685v-1.563h-2.501c-.828 0-1.5-.671-1.5-1.5s.672-1.5 1.5-1.5h2.501v-1.563c0-.863 1.043-1.295 1.653-.685l3.063 3.063c.378.378.378.991 0 1.369zm-8.864 14.67c.357.748.04 1.643-.708 1.999-.73.354-1.642.047-1.999-.708-.622-1.304-2.053-2.146-3.646-2.146s-3.024.842-3.646 2.146c-.356.747-1.253 1.064-1.999.708-.748-.356-1.065-1.251-.708-1.999 1.116-2.342 3.61-3.854 6.354-3.854s5.237 1.513 6.354 3.854zm-10.353-9.855c0-2.209 1.791-4 4-4s4 1.791 4 4-1.791 4-4 4-4-1.791-4-4z"/></svg>