<svg id="Layer_1" viewBox="0 0 24 24" xmlns="http://www.w3.org/2000/svg" data-name="Layer 1"><path d="m23.383 18.37c-.325-.53-.826-.926-1.413-1.129l-3.535-1.224-.925-1.848c4.167-2.353 6.239-6.145 6.486-11.806.032-.712-.277-1.406-.827-1.855-.554-.453-1.27-.613-1.96-.439-.095.02-8.926 2.937-9.03 2.967-1.746.461-3.039 1.917-3.302 3.724-.239 1.646-.769 2.701-1.115 3.242h-4.762c-.716 0-2.12.385-2.842 1.829-.232.465-.207 1.017.065 1.46.273.441.757.711 1.276.711h1.906c1.188 1.261 3.952 3.942 6.623 4.755l-.372 1.173-.106.106c-1.156.175-2.551 1.025-2.551 2.966 0 .553.447 1 1 1s1-.447 1-1c0-.806.55-.988 1-1 .708-.134 1.398-.516 1.867-1.083l1.533-1.917h2.887l2.646 3.083c.581.677 1.46 1.04 2.345.926.89-.115 1.929-.484 2.441-1.509.59-1.18.135-2.361-.337-3.13zm-14.883-5.37c.397 0 .779-.158 1.061-.439.181-.18 1.777-1.864 2.286-5.372.09-.618.529-1.112 1.119-1.259.111-.024 7.846-2.582 7.96-2.615-.086.897-.245 1.703-.449 2.461l-6.152 1.354c-.497.138-.397.87.119.87h5.163c-.405.746-.902 1.412-1.501 2h-4.618c-.523 0-.678.713-.201.929l2.487.749c-.288.154-.569.311-.883.451-.767.322-1.119 1.306-.732 2.042l.915 1.829h-3.573c-1.197 0-3.211-1.475-4.845-3h1.845z"/></svg>