<svg id="Layer_1" viewBox="0 0 24 24" xmlns="http://www.w3.org/2000/svg" data-name="Layer 1"><path d="m24 5.5v10c0 .828-.671 1.5-1.5 1.5s-1.5-.672-1.5-1.5v-10c0-1.379-1.122-2.5-2.5-2.5h-13c-1.207 0-2.217.86-2.449 2h.449c.829 0 1.5.672 1.5 1.5s-.671 1.5-1.5 1.5h-.5v4h.5c.829 0 1.5.672 1.5 1.5s-.671 1.5-1.5 1.5h-.449c.232 1.14 1.242 2 2.449 2 .829 0 1.5.672 1.5 1.5s-.671 1.5-1.5 1.5c-.169 0-.335-.01-.5-.025v.525c0 .828-.671 1.5-1.5 1.5s-1.5-.672-1.5-1.5v-1.761c-1.221-1.01-2-2.535-2-4.239v-9c0-3.032 2.467-5.5 5.5-5.5h13c3.033 0 5.5 2.468 5.5 5.5zm-10.501 9.495c-.614.318-1.356.29-1.95-.064-1.437-.857-3.495-2.462-3.549-4.958v-2.538c0-.862.552-1.627 1.371-1.898l2.478-.822c.423-.14.88-.14 1.302 0l2.478.822c.818.271 1.371 1.036 1.371 1.898v2.538c-.056 2.798-2.063 4.277-3.501 5.022zm.501-6.495c0-.828-.672-1.5-1.5-1.5s-1.5.672-1.5 1.5c0 .443.195.836.5 1.111v1.389c0 .552.448 1 1 1s1-.448 1-1v-1.389c.305-.275.5-.668.5-1.111zm7.5 10.5c-.815 0-1.532.396-1.989 1h-1.011c-.276 0-.5-.225-.5-.5v-2c0-.828-.671-1.5-1.5-1.5s-1.5.672-1.5 1.5v2c0 1.93 1.57 3.5 3.5 3.5h1.011c.456.604 1.173 1 1.989 1 1.381 0 2.5-1.119 2.5-2.5s-1.119-2.5-2.5-2.5zm-9.5.511v-1.011c0-.828-.671-1.5-1.5-1.5s-1.5.672-1.5 1.5v1.011c-.604.456-1 1.173-1 1.989 0 1.381 1.119 2.5 2.5 2.5s2.5-1.119 2.5-2.5c0-.815-.396-1.532-1-1.989z"/></svg>