<svg id="Layer_1" viewBox="0 0 24 24" xmlns="http://www.w3.org/2000/svg" data-name="Layer 1"><path d="m7 18.5v2c0 .276-.224.5-.5.5s-.5-.224-.5-.5v-2c0-.276.224-.5.5-.5s.5.224.5.5zm5-12.5c0-3.314 2.686-6 6-6s6 2.686 6 6-2.686 6-6 6-6-2.686-6-6zm3 2.5c0 .276.224.5.5.5h.635c.53 0 1.039-.211 1.414-.586l3.544-3.544c.542-.542.542-1.421 0-1.964-.542-.542-1.421-.542-1.964 0l-3.544 3.544c-.375.375-.586.884-.586 1.414v.635zm9 5.5v5.5c0 2.485-2.015 4.5-4.5 4.5h-15c-2.485 0-4.5-2.015-4.5-4.5v-6c0-2.485 2.015-4.5 4.5-4.5h6.087c1.187 2.931 4.057 5 7.413 5 2.123 0 4.047-.833 5.479-2.182.323.662.521 1.396.521 2.182zm-22.75.5c0 .827.673 1.5 1.5 1.5.534 0 1.032-.287 1.299-.75.139-.238.057-.545-.182-.683-.241-.14-.546-.057-.683.183-.089.154-.255.25-.434.25-.276 0-.5-.225-.5-.5v-2c0-.275.224-.5.5-.5.178 0 .344.096.434.25.137.238.442.321.683.183.239-.138.321-.444.182-.683-.267-.463-.765-.75-1.299-.75-.827 0-1.5.673-1.5 1.5zm3 3c0-.276-.224-.5-.5-.5h-2c-.276 0-.5.224-.5.5s.224.5.5.5h.5v3.5c0 .276.224.5.5.5s.5-.224.5-.5v-3.5h.5c.276 0 .5-.224.5-.5zm3.75 1c0-.828-.672-1.5-1.5-1.5s-1.5.672-1.5 1.5v2c0 .828.672 1.5 1.5 1.5s1.5-.672 1.5-1.5zm0-7c0-.276-.224-.5-.5-.5s-.5.224-.5.5v3c0 .276-.224.5-.5.5s-.5-.224-.5-.5v-3c0-.276-.224-.5-.5-.5s-.5.224-.5.5v3c0 .827.673 1.5 1.5 1.5s1.5-.673 1.5-1.5zm.871.724c-.072.506.147.994.645 1.31 0 0 .562.251 1.186.481.132.049.557.229.506.516-.038.212-.3.432-.672.432-.259 0-.511-.07-.721-.194-.193-.114-.439-.078-.605.072-.256.233-.216.649.083.825.366.216.796.334 1.243.334.848 0 1.559-.542 1.693-1.287.1-.564-.154-1.297-1.168-1.672-.547-.202-1.043-.42-1.056-.42-.118-.08-.114-.201-.108-.25.009-.065.057-.226.3-.299.287-.085.562-.017.762.07s.432.032.573-.134c.204-.24.137-.611-.143-.757-.361-.189-.891-.353-1.492-.172-.557.168-.95.607-1.028 1.145zm5.129 6.276c0-.827-.673-1.5-1.5-1.5-.386 0-.734.15-1 .39-.266-.24-.614-.39-1-.39-.231 0-.448.057-.643.151-.091-.093-.216-.151-.357-.151-.276 0-.5.224-.5.5v4c0 .276.224.5.5.5s.5-.224.5-.5v-3c0-.275.225-.5.5-.5s.5.225.5.5v3c0 .276.224.5.5.5s.5-.224.5-.5v-3c0-.275.225-.5.5-.5s.5.225.5.5v3c0 .276.224.5.5.5s.5-.224.5-.5zm2-1c0-.276-.224-.5-.5-.5s-.5.224-.5.5v4c0 .276.224.5.5.5s.5-.224.5-.5zm3.75 4c0-.276-.224-.5-.5-.5h-1.191l1.638-3.276c.078-.155.069-.339-.022-.486s-.252-.237-.425-.237h-2c-.276 0-.5.224-.5.5s.224.5.5.5h1.191l-1.638 3.276c-.078.155-.069.339.022.486s.252.237.425.237h2c.276 0 .5-.224.5-.5zm1.75-2.5v-1h.75c.276 0 .5-.224.5-.5s-.224-.5-.5-.5h-.75c-.552 0-1 .448-1 1v3c0 .552.448 1 1 1h.75c.276 0 .5-.224.5-.5s-.224-.5-.5-.5h-.75v-1h.75c.276 0 .5-.224.5-.5s-.224-.5-.5-.5z"/></svg>