<svg id="Layer_1" viewBox="0 0 24 24" xmlns="http://www.w3.org/2000/svg" data-name="Layer 1"><path d="m23.252 19.367c-.682.396-1.461.604-2.252.604-.145 0-.29-.021-.435-.035l-1.16 3.086c-.223.607-.905.977-1.405.977-.175 0-.353-.03-.523-.095-.776-.289-1.171-1.153-.882-1.929l1.062-2.824c-1.632 1.072-3.859 1.05-5.453-.083-.131-.093-.279-.093-.406 0-1.598 1.134-3.824 1.155-5.454.084l1.083 2.824c.289.776-.105 1.64-.882 1.929-.177.067-.362.095-.544.095-.688 0-1.164-.377-1.385-.977l-1.184-3.095c-.932.084-1.878-.093-2.684-.561-.716-.416-.96-1.333-.544-2.05.416-.716 1.334-.961 2.05-.544.537.31 1.262.236 1.805-.149 1.162-.826 2.721-.825 3.883 0 .623.443 1.493.444 2.118 0 1.16-.825 2.721-.826 3.883 0 .621.442 1.492.443 2.117 0 1.16-.825 2.721-.826 3.883 0 .54.385 1.267.46 1.806.148.716-.414 1.634-.171 2.05.545.415.717.171 1.635-.546 2.05zm-19.353-5.493c.741.329 1.643-.007 1.975-.774l2.41-5.516.901 1.638c.288.522.854.83 1.453.771.594-.055 1.1-.458 1.286-1.024l1.795-5.446 4.418 9.604c.345.752 1.235 1.08 1.989.736.753-.346 1.082-1.237.735-1.99l-4.702-10.228c-.485-1.056-1.495-1.7-2.618-1.641-1.118.06-2.085.823-2.465 1.953l-.98 2.977c-.537-.51-1.261-.791-1.989-.741-1.021.059-1.923.708-2.354 1.694l-2.627 6.013c-.332.759.015 1.644.774 1.975z"/></svg>