<svg id="Layer_1" viewBox="0 0 24 24" xmlns="http://www.w3.org/2000/svg" data-name="Layer 1"><path d="m12 3c-.552 0-1 .448-1 1v3.072c0 .538-.288 1.034-.755 1.302l-6.958 3.982c-.423.218-.245.705.069.599s5.641-2.013 5.641-2.013c.943-.351 2.016.408 2.003 1.413v1.771c-.636 1.148-1 2.468-1 3.873 0 1.009.187 1.974.529 2.863.35.911-.011 1.938-.87 2.401l-1.147.619c-1.219.45-2.512-.452-2.512-1.751 0-.805.404-1.556 1.075-2.001l.925-.674v-4.975l-3.77 1.342c-1.99.745-4.288-.886-4.23-3.013 0-1.281.699-2.459 1.824-3.072l6.176-3.536v-2.202c0-2.209 1.791-4 4-4s4 1.791 4 4v2.203l1.674.959c.649.372.997 1.159.734 1.86-.335.892-1.367 1.237-2.154.784l-2.5-1.432c-.467-.267-.755-.764-.755-1.302v-3.072c0-.552-.448-1-1-1zm6 9c-3.314 0-6 2.686-6 6s2.686 6 6 6 6-2.686 6-6-2.686-6-6-6zm3.683 5.712-2.703 2.614c-.452.446-1.052.671-1.653.671s-1.203-.225-1.663-.674l-1.354-1.332c-.395-.387-.4-1.02-.014-1.414.386-.395 1.019-.401 1.414-.014l1.354 1.331c.144.142.38.139.522-.002l2.713-2.624c.397-.381 1.031-.37 1.414.029.382.398.369 1.031-.029 1.414z"/></svg>