<svg id="Layer_1" viewBox="0 0 24 24" xmlns="http://www.w3.org/2000/svg" data-name="Layer 1"><path d="m16 2c-1.486 0-2.865.466-4 1.258-1.135-.792-2.514-1.258-4-1.258-4.411 0-8 3.589-8 8 0 6.617 5.383 12 12 12s12-5.383 12-12c0-4.411-3.589-8-8-8zm-4 17c-4.963 0-9-4.037-9-9 0-2.757 2.243-5 5-5 .703 0 1.364.183 1.938.502-.597 1.029-.938 2.225-.938 3.498 0 1.267.346 2.468.95 3.508-.477.271-1.014.446-1.585.498-.825.074-1.434.804-1.359 1.629s.791 1.428 1.629 1.359c1.244-.112 2.395-.559 3.365-1.245.971.687 2.121 1.133 3.365 1.245.831.068 1.555-.534 1.629-1.359s-.534-1.555-1.359-1.629c-.571-.052-1.108-.227-1.585-.498.604-1.04.95-2.241.95-3.508 0-1.273-.342-2.469-.938-3.498.574-.319 1.235-.502 1.938-.502 2.757 0 5 2.243 5 5 0 4.963-4.037 9-9 9z"/></svg>