<?xml version="1.0" encoding="UTF-8"?>
<svg xmlns="http://www.w3.org/2000/svg" id="Layer_1" data-name="Layer 1" viewBox="0 0 24 24">
  <path d="M17,17c-2.207,0-3.958-.889-5-1.594-1.042,.705-2.793,1.594-5,1.594-2.621,0-5.672-1.951-6.771-3.703-.638-.949,.127-2.333,1.271-2.297,1.662,0,2.82-.903,4.286-2.047,1.323-1.017,2.379-1.983,4.214-1.953,.782,0,1.5,.192,2,.373,.5-.18,1.218-.373,2-.373,1.533,0,2.377,.552,3.489,1.393h0c.246,.187,.486,.375,.725,.56,1.466,1.144,2.624,2.047,4.286,2.047,1.143-.036,1.909,1.348,1.271,2.297-1.099,1.751-4.149,3.703-6.771,3.703Zm-4.996-4.996c.383,0,.766,.145,1.057,.436,.009,.009,1.631,1.561,3.939,1.561,.719,0,1.563-.303,2.318-.718-1.096-.517-2.031-1.247-2.95-1.964-.711-.564-1.791-1.461-2.368-1.318-.542,0-1.127,.238-1.308,.331-.436,.222-.962,.224-1.395-.005-.171-.087-.756-.326-1.298-.326-.576-.143-1.658,.756-2.368,1.318-.919,.717-1.854,1.447-2.95,1.964,.755,.415,1.6,.718,2.318,.718,2.309,0,3.931-1.552,3.946-1.567,.293-.286,.676-.429,1.058-.429Z"/>
</svg>
