<svg id="Layer_1" viewBox="0 0 24 24" xmlns="http://www.w3.org/2000/svg" data-name="Layer 1"><path d="m11 16.8v4.931c0 1.348-1.164 2.427-2.539 2.288-1.142-.116-1.971-1.123-2.046-2.26.038-.406.369-.728.785-.728.442 0 .8.358.8.8v-.1c0 .386.314.7.7.7s.7-.314.7-.7v-4.931c0-.442.358-.8.8-.8s.8.358.8.8zm12.2-.8c-.442 0-.8.358-.8.8v3.263l-1.546-3.482c-.155-.348-.499-.574-.88-.576-.537-.003-.974.432-.974.969v6.226c0 .442.358.8.8.8s.8-.358.8-.8v-3.254l1.544 3.478c.156.35.503.576.886.576.536 0 .97-.434.97-.97v-6.23c0-.442-.358-.8-.8-.8zm-6.462 1.626 1.142 5.435c.107.5-.296.964-.804.937-.368 0-.685-.257-.761-.617l-.165-.782h-2.379l-.175.79c-.079.356-.394.61-.759.61-.494 0-.863-.456-.76-.939l1.165-5.479c.168-.864.87-1.583 1.742-1.581.894.006 1.563.69 1.753 1.627zm-.924 3.373-.641-3.044c-.047-.231-.144-.334-.168-.349l-.017-.006c-.071.042-.146.146-.176.296l-.686 3.104h1.688zm2.686-18.999h-.5v-.5c0-.829-.671-1.5-1.5-1.5s-1.5.671-1.5 1.5v.5h-6v-.5c0-.829-.671-1.5-1.5-1.5s-1.5.671-1.5 1.5v.5h-.5c-3.033 0-5.5 2.467-5.5 5.5v11c0 1.998 1.086 3.842 2.835 4.812.711.398 1.635.147 2.04-.584.401-.725.14-1.638-.584-2.04-.796-.441-1.29-1.279-1.29-2.188v-9.5h17.999v3.5c0 .829.671 1.5 1.5 1.5s1.5-.671 1.5-1.5v-5c0-3.033-2.467-5.5-5.5-5.5z"/></svg>