<svg id="Layer_1" viewBox="0 0 24 24" xmlns="http://www.w3.org/2000/svg" data-name="Layer 1"><path d="m11.118 5c.289 0 .559.144.72.383s.193.543.085.811c-.372.979-1.317 2.024-2.394 2.828-.315.251-.764.252-1.08.002-1.08-.799-2.025-1.844-2.399-2.83-.108-.268-.076-.572.085-.811.162-.239.431-.383.72-.383h2.132s2.131 0 2.131 0zm-2.618 16h-4.132c-.802-.054-1.427-.551-1.354-1.529.337-2.244 1.747-4.362 4.189-6.294.359-.285.569-.718.569-1.177s-.21-.892-.569-1.177c-2.442-1.932-3.852-4.05-4.189-6.294-.073-.978.485-1.528 1.354-1.528h9.263c.869 0 1.426.548 1.354 1.525-.073.487-.199.977-.376 1.453-.288.776.109 1.64.886 1.927.776.293 1.64-.108 1.928-.886.248-.669.426-1.359.529-2.051.185-1.236-.18-2.493-1.002-3.447-.834-.968-2.043-1.522-3.319-1.522h-9.263c-1.275 0-2.485.556-3.319 1.524-.822.955-1.187 2.212-1.001 3.451.382 2.543 1.704 4.9 3.936 7.025-2.232 2.125-3.554 4.482-3.936 7.025-.186 1.238.179 2.496 1.001 3.45.833.969 2.043 1.523 3.318 1.523h4.132c.828 0 1.5-.67 1.5-1.499s-.671-1.5-1.5-1.5zm15.5-4c0 3.866-3.134 7-7 7s-7-3.134-7-7 3.134-7 7-7 7 3.134 7 7zm-3 1.897c.01-1.297-.916-2.397-2.193-2.61l-3.261-.544c-.289-.048-.523-.281-.544-.574-.026-.365.263-.67.622-.67h2.376c.367 0 .689.199.862.494.182.31.509.506.869.506.763 0 1.253-.825.874-1.487-.518-.903-1.491-1.513-2.605-1.513 0-.552-.448-1-1-1s-1 .448-1 1h-.315c-1.451 0-2.673 1.152-2.685 2.603-.01 1.297.915 2.397 2.192 2.61l3.286.548c.315.052.54.331.52.655-.02.334-.315.585-.649.585h-2.35c-.367 0-.688-.199-.862-.494-.182-.31-.509-.506-.869-.506-.763 0-1.253.825-.874 1.487.518.903 1.491 1.513 2.605 1.513 0 .552.448 1 1 1s1-.448 1-1h.315c1.451 0 2.673-1.152 2.685-2.603z"/></svg>