<svg id="Layer_1" viewBox="0 0 24 24" xmlns="http://www.w3.org/2000/svg" data-name="Layer 1"><path d="m24 21v1.154c0 1.02-.827 1.846-1.846 1.846h-20.308c-1.02 0-1.846-.827-1.846-1.846v-1.154c0-1.105.895-2 2-2v-7.5c0-1.578.679-3.081 1.862-4.125.621-.549 1.569-.488 2.117.133.548.622.488 1.569-.133 2.117-.538.475-.847 1.158-.847 1.875v7.5h3.308l.923 1h5.538l.923-1h3.308v-7.5c0-.717-.309-1.4-.847-1.875-.621-.548-.681-1.496-.133-2.117s1.495-.682 2.117-.133c1.184 1.044 1.862 2.547 1.862 4.125v7.5c1.105 0 2 .895 2 2zm-16.635-7.635c-.233-.233-.368-.552-.355-.882.069-1.736.511-3.041 1.725-4.255.146-3.01 1.138-5.494 2.065-7.466.312-.663 1.102-.948 1.764-.636.28.132.505.356.636.636.933 1.985 1.918 4.529 2.068 7.51 1.192 1.192 1.649 2.476 1.721 4.207.014.33-.122.653-.355.886-.431.431-1.117.472-1.597.096l-.917-.719h-.621v.758c0 .828-.672 1.499-1.5 1.499s-1.499-.671-1.5-1.499v-.758h-.622l-.915.718c-.481.377-1.167.336-1.599-.096zm3.135-4.865c0 .828.672 1.5 1.5 1.5s1.5-.672 1.5-1.5-.671-1.5-1.5-1.5-1.5.672-1.5 1.5z"/></svg>