<svg id="Layer_1" viewBox="0 0 24 24" xmlns="http://www.w3.org/2000/svg" data-name="Layer 1"><path d="m19.5 6h-.554c.149-.706-.011-1.431-.451-2.013-.476-.627-1.199-.987-1.987-.987h-2.008c-.828 0-1.5.671-1.5 1.5s.672 1.5 1.5 1.5h1.303c-.044.122-.091.246-.137.371-.201.54-.406 1.09-.534 1.629h-2.632c-.828 0-1.5.671-1.5 1.5s.672 1.5 1.5 1.5h2.602c.146 1.001.435 2.112.784 2.934.111.265.142.549.089.847-.124.695-.814 1.219-1.606 1.219h-7.737c-.792 0-1.482-.524-1.606-1.22-.048-.27-.027-.529.06-.772.281-.78-.124-1.639-.903-1.919-.779-.282-1.639.124-1.919.903-.264.732-.33 1.532-.19 2.313.38 2.141 2.298 3.695 4.56 3.695h2.368v2h-2.5c-.828 0-1.5.671-1.5 1.5s.672 1.5 1.5 1.5h7.998c.828 0 1.5-.671 1.5-1.5s-.672-1.5-1.5-1.5h-2.5v-2h2.368c2.262 0 4.18-1.554 4.56-3.694.078-.436.092-.875.043-1.306h.529c2.439 0 4.5-1.995 4.5-4.357 0-2.213-1.767-3.643-4.5-3.643zm0 5h-1.357c-.089-.463-.143-.907-.143-1.24v-.76h1.5c.561 0 1.5.083 1.5.643 0 .71-.715 1.357-1.5 1.357zm-18.048-2.153c.13-.61.412-1.448 1.025-2.095-.891-.024-1.683-.417-2.206-.757-.362-.235-.362-.756 0-.991.523-.339 1.315-.733 2.206-.757-.613-.647-.895-1.485-1.025-2.095-.09-.422.279-.79.701-.701.61.13 1.448.412 2.095 1.025.024-.891.417-1.683.757-2.206.235-.362.756-.362.991 0 .339.523.733 1.315.757 2.206.647-.613 1.485-.895 2.095-1.025.422-.09.79.279.701.701-.13.61-.412 1.448-1.025 2.095.891.024 1.683.417 2.206.757.362.235.362.756 0 .991-.523.339-1.315.733-2.206.757.613.647.895 1.485 1.025 2.095.09.422-.279.79-.701.701-.61-.13-1.448-.412-2.095-1.025-.024.891-.417 1.683-.757 2.206-.235.362-.756.362-.991 0-.339-.523-.733-1.315-.757-2.206-.647.613-1.485.895-2.095 1.025-.422.09-.79-.279-.701-.701z"/></svg>