<svg id="Layer_1" viewBox="0 0 24 24" xmlns="http://www.w3.org/2000/svg" data-name="Layer 1"><path d="m13 9.5v-5c0-1.93 1.57-3.5 3.5-3.5h2.011c.456-.604 1.173-1 1.989-1 1.381 0 2.5 1.119 2.5 2.5s-1.119 2.5-2.5 2.5c-.815 0-1.532-.396-1.989-1h-2.011c-.276 0-.5.225-.5.5v5c0 .828-.671 1.5-1.5 1.5s-1.5-.672-1.5-1.5zm-9.5-4.5c.815 0 1.532-.396 1.989-1h2.011c.276 0 .5.225.5.5v5c0 .828.671 1.5 1.5 1.5s1.5-.672 1.5-1.5v-5c0-1.93-1.57-3.5-3.5-3.5h-2.011c-.456-.604-1.173-1-1.989-1-1.381 0-2.5 1.119-2.5 2.5s1.119 2.5 2.5 2.5zm19 2c-.829 0-1.5.672-1.5 1.5v5c0 1.379-1.122 2.5-2.5 2.5h-13c-1.378 0-2.5-1.121-2.5-2.5v-5c0-.828-.671-1.5-1.5-1.5s-1.5.672-1.5 1.5v5c0 3.032 2.467 5.5 5.5 5.5h5v2h-3c-.829 0-1.5.672-1.5 1.5s.671 1.5 1.5 1.5h9c.829 0 1.5-.672 1.5-1.5s-.671-1.5-1.5-1.5h-3v-2h5c3.033 0 5.5-2.468 5.5-5.5v-5c0-.828-.671-1.5-1.5-1.5z"/></svg>