<svg id="Layer_1" viewBox="0 0 24 24" xmlns="http://www.w3.org/2000/svg" data-name="Layer 1"><path d="m9.5 14h1.579c-.523.904-.875 1.917-1.01 3h-.569c-.828 0-1.5-.672-1.5-1.5s.672-1.5 1.5-1.5zm12.985 7.985c-1.065 1.198-2.532 1.91-4.132 2.004-1.6.095-3.141-.44-4.339-1.504-1.198-1.065-1.91-2.532-2.004-4.132-.095-1.6.44-3.141 1.504-4.339 1.065-1.198 2.532-1.91 4.132-2.004 1.6-.095 3.141.44 4.339 1.504 1.198 1.065 1.91 2.532 2.004 4.132.095 1.6-.44 3.141-1.504 4.339zm-6.485-5.986c0 1.105.895 2 2 2s2-.895 2-2-.895-2-2-2-2 .895-2 2zm4.771 4.866c-.447-1.093-1.519-1.865-2.773-1.865s-2.322.768-2.77 1.858c.776.758 1.843 1.211 3.009 1.142.994-.059 1.871-.49 2.535-1.135zm-9.771 1.635c0 .829-.672 1.5-1.5 1.5h-4c-3.032 0-5.5-2.467-5.5-5.5v-5c0-2.132 1.222-3.98 3-4.893v-1.607c0-3.86 3.141-7 7-7s7 3.14 7 7v1.092c.581.207 1 .756 1 1.408 0 .829-.672 1.5-1.5 1.5h-11c-1.379 0-2.5 1.122-2.5 2.5v5c0 1.378 1.121 2.5 2.5 2.5h4c.828 0 1.5.671 1.5 1.5zm-5-15.5v1h8v-1c0-2.206-1.794-4-4-4s-4 1.794-4 4z"/></svg>