<svg id="Layer_1" viewBox="0 0 24 24" xmlns="http://www.w3.org/2000/svg" data-name="Layer 1"><path d="m3.5 20c-1.381 0-2.5-1.119-2.5-2.5s1.119-2.5 2.5-2.5 2.5 1.119 2.5 2.5-1.119 2.5-2.5 2.5zm17-15c1.381 0 2.5-1.119 2.5-2.5s-1.119-2.5-2.5-2.5-2.5 1.119-2.5 2.5 1.119 2.5 2.5 2.5zm-2.518 4h5.051c.859 0 1.237-.845.755-1.468-.715-.924-1.918-1.532-3.29-1.532s-2.576.608-3.29 1.532c-.482.623-.085 1.468.774 1.468zm-14.484 12c-1.372 0-2.575.608-3.29 1.532-.482.623-.085 1.468.774 1.468h5.051c.859 0 1.237-.845.755-1.468-.715-.924-1.918-1.532-3.29-1.532zm20.502-1.5v.5c0 2.206-1.794 4-4 4h-9.5c-.646 0-1.218-.413-1.423-1.025-.204-.612.006-1.287.522-1.674.255-.191.401-.483.401-.801v-1c0-1.93 1.57-3.5 3.5-3.5h3.5v-2.926l-1.302-.808-2.011 1.248c-.484.301-1.097.301-1.583 0l-2.1-1.305-2.755 1.591c-.464.268-1.036.268-1.5 0s-.75-.763-.75-1.299v-4.5h-1.5c-1.929-.001-3.499-1.571-3.499-3.501v-.5c-.008-2.228 2-4 4-4h10.5c.829 0 1.5.671 1.5 1.5s-.671 1.5-1.5 1.5h-6.642c.084.322.142.653.142 1v5.902l1.283-.741c.479-.276 1.071-.267 1.542.025l2.072 1.287 2.011-1.248c.484-.301 1.098-.301 1.582 0l2.801 1.739c.441.274.709.756.709 1.274v3.761h.5c1.93 0 3.5 1.57 3.5 3.5zm-19-15.5c0-.551-.449-1-1-1s-1 .449-1 1v.5c0 .276.224.5.5.5h1.5zm16 15.5c0-.276-.224-.5-.5-.5h-7c-.276 0-.5.224-.5.5v1c0 .168-.011.335-.032.5h7.032c.551 0 1-.449 1-1z"/></svg>