<svg id="Layer_1" viewBox="0 0 24 24" xmlns="http://www.w3.org/2000/svg" data-name="Layer 1"><path d="m14 9.096v-7.192c0-1.454 1.566-2.37 2.833-1.657l6.198 3.596c1.292.727 1.292 2.587 0 3.314l-6.198 3.596c-1.267.713-2.833-.203-2.833-1.657zm-4 3.903h-3c-1.105 0-2 .895-2 2v2c0 1.105.895 2 2 2h3c.868 0 1.599-.556 1.876-1.329l1.499 1.124c.67.502 1.625.025 1.625-.812v-3.939c0-.836-.956-1.314-1.625-.812l-1.492 1.119c-.27-.784-1.007-1.351-1.883-1.351zm12.5-2.999c-.828 0-1.5.671-1.5 1.5v7c0 1.378-1.121 2.5-2.5 2.5h-13c-1.378 0-2.5-1.122-2.5-2.5v-9.5h7.5c.829 0 1.5-.671 1.5-1.5v-3c0-.568-.321-1.087-.829-1.342l-1.579-.79c-.483-.241-1.024-.369-1.564-.369h-2.528c-3.033.001-5.5 2.468-5.5 5.501v11c0 3.033 2.467 5.5 5.5 5.5h13c3.032 0 5.5-2.467 5.5-5.5v-7c0-.829-.672-1.5-1.5-1.5z"/></svg>