<svg id="Layer_1" viewBox="0 0 24 24" xmlns="http://www.w3.org/2000/svg" data-name="Layer 1"><path d="m20.5 11h-6c-1.93 0-3.5 1.57-3.5 3.5v2c0 1.93 1.57 3.5 3.5 3.5h1.5v1h-.5c-.828 0-1.5.672-1.5 1.5s.672 1.5 1.5 1.5h4c.828 0 1.5-.672 1.5-1.5s-.672-1.5-1.5-1.5h-.5v-1h1.5c1.93 0 3.5-1.57 3.5-3.5v-2c0-1.93-1.57-3.5-3.5-3.5zm.5 5.5c0 .275-.225.5-.5.5h-6c-.275 0-.5-.225-.5-.5v-2c0-.275.225-.5.5-.5h6c.275 0 .5.225.5.5zm-12.5-6.5h-.5v-1h1.5c1.93 0 3.5-1.57 3.5-3.5v-2c0-1.93-1.57-3.5-3.5-3.5h-6c-1.93 0-3.5 1.57-3.5 3.5v2c0 1.93 1.57 3.5 3.5 3.5h1.5v1h-.5c-.828 0-1.5.672-1.5 1.5s.672 1.5 1.5 1.5h4c.828 0 1.5-.672 1.5-1.5s-.672-1.5-1.5-1.5zm-5.5-4.5v-2c0-.275.225-.5.5-.5h6c.275 0 .5.225.5.5v2c0 .275-.225.5-.5.5h-6c-.275 0-.5-.225-.5-.5zm21 1.034v1c0 .828-.672 1.5-1.5 1.5s-1.5-.672-1.5-1.5v-1c0-.827-.673-1.5-1.5-1.5h-.5v1.124c0 .749-.905 1.123-1.434.594l-2.658-2.658c-.328-.328-.328-.86 0-1.188l2.658-2.658c.529-.529 1.434-.154 1.434.594v1.192h.5c2.481 0 4.5 2.019 4.5 4.5zm-14.908 13.372c.328.328.328.86 0 1.188l-2.658 2.658c-.529.529-1.434.154-1.434-.594v-1.124h-.5c-2.481 0-4.5-2.019-4.5-4.5v-1c0-.828.672-1.5 1.5-1.5s1.5.672 1.5 1.5v1c0 .827.673 1.5 1.5 1.5h.5v-1.192c0-.749.905-1.123 1.434-.594z"/></svg>