<svg id="Layer_1" viewBox="0 0 24 24" xmlns="http://www.w3.org/2000/svg" data-name="Layer 1"><path d="m23 21.085v-5.335c0-4.273-3.477-7.75-7.75-7.75h-6.25v-5.092c.581-.207 1-.756 1-1.408 0-.828-.672-1.5-1.5-1.5h-7c-.828 0-1.5.672-1.5 1.5 0 .652.419 1.201 1 1.408v5.342c0 4.273 3.477 7.75 7.75 7.75h6.25v5.085c-.583.206-1 .762-1 1.415 0 .828.672 1.5 1.5 1.5h7c.828 0 1.5-.672 1.5-1.5 0-.653-.417-1.209-1-1.415zm-19-12.835v-5.25h2v5.25c0 1.517 1.233 2.75 2.75 2.75h1.75v2h-1.75c-2.619 0-4.75-2.131-4.75-4.75zm16 12.75h-2v-5.25c0-1.517-1.233-2.75-2.75-2.75h-1.75v-2h1.75c2.619 0 4.75 2.131 4.75 4.75z"/></svg>