<?xml version="1.0" encoding="UTF-8"?>
<svg xmlns="http://www.w3.org/2000/svg" id="Layer_1" data-name="Layer 1" viewBox="0 0 24 24">
  <path d="M3,2.5c0-1.381,1.119-2.5,2.5-2.5s2.5,1.119,2.5,2.5-1.119,2.5-2.5,2.5-2.5-1.119-2.5-2.5ZM7.5,11c-.828,0-1.5,.672-1.5,1.5v2.5h-1.5c-.827,0-1.5-.673-1.5-1.5v-3c0-.827,.673-1.5,1.5-1.5H13.5c.828,0,1.5-.672,1.5-1.5s-.672-1.5-1.5-1.5H4.5C2.019,6,0,8.019,0,10.5v3c0,1.557,.795,2.93,2,3.738v5.262c0,.828,.672,1.5,1.5,1.5s1.5-.672,1.5-1.5v-4.5h1v4.5c0,.828,.672,1.5,1.5,1.5s1.5-.672,1.5-1.5V12.5c0-.828-.672-1.5-1.5-1.5ZM19.5,0H11.5c-.828,0-1.5,.672-1.5,1.5s.672,1.5,1.5,1.5h8c.827,0,1.5,.673,1.5,1.5v7c0,.827-.673,1.5-1.5,1.5h-7c-.828,0-1.5,.672-1.5,1.5s.672,1.5,1.5,1.5h7c2.481,0,4.5-2.019,4.5-4.5V4.5c0-2.481-2.019-4.5-4.5-4.5Z"/>
</svg>
