<svg id="Layer_1" viewBox="0 0 24 24" xmlns="http://www.w3.org/2000/svg" data-name="Layer 1"><path d="m10.25 15c.601 0 1.189-.104 1.75-.311.562.206 1.15.311 1.75.311 2.993 0 5.25-2.464 5.25-5.73 0-2.514-1.591-4.492-3.862-5.076.613-.176 1.267-.462 1.769-.937.716-.677.986-1.61 1.084-2.309.075-.53-.358-1.001-.89-.942-.748.083-1.79.33-2.537 1.037-.808.765-1.097 1.913-1.2 2.667-.145-.949-.407-1.889-.812-2.811-.333-.758-1.217-1.104-1.977-.77-.758.333-1.103 1.218-.77 1.977.275.626.458 1.26.57 1.896-3.034-.067-5.383 2.218-5.377 5.27 0 3.267 2.257 5.73 5.25 5.73zm0-8h3.5c1.12 0 2.25.702 2.25 2.27 0 1.607-.925 2.73-2.25 2.73-.261 0-.516-.048-.759-.143-.319-.125-.655-.187-.991-.187s-.672.062-.993.187c-.241.095-.496.143-.757.143-1.325 0-2.25-1.123-2.25-2.73 0-1.567 1.13-2.27 2.25-2.27zm13.75 2v8.293c0 2.66-1.899 4.936-4.516 5.411l-5.763 1.139c-.579.108-1.286.157-1.722.157s-1.133-.046-1.698-.153l-5.809-1.146c-2.594-.472-4.493-2.747-4.493-5.407v-8.294c0-1.169.46-2.358 1.331-3.441.521-.645 1.465-.747 2.109-.229.646.52.748 1.464.229 2.109-.306.379-.669.958-.669 1.561v8.293c0 1.209.863 2.243 2.053 2.46l5.447 1.075v-2.328c0-.828.672-1.5 1.5-1.5s1.5.672 1.5 1.5v2.329l5.425-1.072c1.212-.221 2.075-1.255 2.075-2.464v-8.293c0-.603-.363-1.182-.669-1.561-.52-.646-.417-1.59.229-2.109.645-.52 1.589-.417 2.109.229.871 1.083 1.331 2.272 1.331 3.441z"/></svg>