<svg id="Layer_1" viewBox="0 0 24 24" xmlns="http://www.w3.org/2000/svg" data-name="Layer 1"><path d="m17.269 16.077c-1.678 4.027-5.705 6.009-7.358 6.674-.275.113-.485.249-.908.249s-.705-.167-1.007-.327c-1.875-.937-7.995-4.451-7.995-10.304v-4.142c0-2.087 1.331-3.931 3.312-4.588l4.716-1.563c.786-.261 1.635.166 1.896.952.261.787-.166 1.635-.952 1.896l-4.716 1.563c-.751.249-1.256.948-1.256 1.74v4.142c0 3.909 4.34 6.577 6.067 7.483 1.256-.545 4.254-2.103 5.432-4.929.319-.764 1.196-1.126 1.962-.808.765.319 1.126 1.197.808 1.962zm6.731-10.077c0 3.314-2.686 6-6 6s-6-2.686-6-6 2.686-6 6-6 6 2.686 6 6zm-2.288-1.702c-.383-.399-1.017-.41-1.414-.029l-2.713 2.624c-.143.141-.379.144-.522.002l-1.354-1.331c-.396-.388-1.028-.381-1.414.014-.387.395-.381 1.027.014 1.414l1.354 1.332c.46.449 1.062.674 1.663.674s1.201-.225 1.653-.671l2.703-2.614c.398-.383.411-1.016.029-1.414zm-14.548 5.089c.126.18.268.348.414.509-1.163.642-2.077 1.976-2.077 3.363 0 .962.784 1.742 1.75 1.742h3.5c.966 0 1.75-.78 1.75-1.742 0-1.387-.914-2.72-2.077-3.363.146-.161.288-.329.414-.509.408-.584.007-1.387-.706-1.387h-2.261c-.713 0-1.114.802-.706 1.387z"/></svg>