<svg id="Layer_1" viewBox="0 0 24 24" xmlns="http://www.w3.org/2000/svg" data-name="Layer 1"><path d="m18.952 17.688 3.049-1.355-.003.925c-.002 2.273-1.452 4.282-3.608 5.001l-4.126 1.375c-.73.244-1.498.365-2.266.365s-1.535-.122-2.265-.365l-4.122-1.374c-2.161-.72-3.61-2.733-3.608-5.009v-.917l3.053 1.381c.162.784.722 1.439 1.504 1.7l3.939 1.313.002-1.969c.573-.236 1.094-.594 1.502-1.066.409.473.927.83 1.498 1.069l-.002 1.964 3.943-1.313c.79-.263 1.356-.93 1.511-1.725zm-10.27-8.966c-1.268-1.123-1.964-2.871-1.574-4.774.389-1.898 1.915-3.438 3.811-3.835 3.233-.677 6.081 1.772 6.081 4.887 0 1.511-.677 2.854-1.738 3.767-.361.311-.915.249-1.22-.117l-.242-.29c-.19-.228-.471-.36-.768-.36h-2.14c-.297 0-.578.132-.768.36l-.211.253c-.308.37-.87.429-1.23.109zm1.818-3.722c0 .828.672 1.5 1.5 1.5.849.004 1.557-.726 1.492-1.578l1.215-1.215c.39-.391.39-1.024 0-1.414-.391-.391-1.024-.391-1.414 0l-1.215 1.215c-.852-.065-1.582.643-1.578 1.492zm11.5 11.333h.001s-.001 0-.001 0zm1.714-5.395h.002l-1.022-2.236c-.453-.753-1.14-1.337-1.956-1.663l-1.862-.746c-.607 3.248-3.452 5.707-6.876 5.707s-6.27-2.461-6.876-5.709l-1.863.747c-.815.327-1.5.91-1.953 1.662l-1.023 2.238c-.202.336-.285.689-.285 1.062 0 .81.526 1.579 1.365 1.858l6.972 3.124c.208.069.422.103.632.103.688 0 1.346-.356 1.715-.971l1.306-2.448 1.326 2.448c.369.615 1.028.971 1.715.971.211 0 .424-.033.632-.103l6.972-3.124c.84-.28 1.365-1.049 1.365-1.859 0-.396-.084-.725-.285-1.061z"/></svg>