<svg id="Layer_1" viewBox="0 0 24 24" xmlns="http://www.w3.org/2000/svg" data-name="Layer 1"><path d="m14 17.5c0 .829-.672 1.5-1.5 1.5h-.5v3.5c0 .829-.671 1.5-1.5 1.5h-4.5c-.829 0-1.5-.671-1.5-1.5s.671-1.5 1.5-1.5h3v-2h-3.5c-3.033 0-5.5-2.467-5.5-5.5v-6c0-3.033 2.467-5.5 5.5-5.5h5c.829 0 1.5.671 1.5 1.5s-.671 1.5-1.5 1.5h-5c-1.378 0-2.5 1.122-2.5 2.5v6c0 1.378 1.122 2.5 2.5 2.5h7c.828 0 1.5.671 1.5 1.5zm-3.5-8.5c0-1.105-.895-2-2-2s-2 .895-2 2 .895 2 2 2 2-.895 2-2zm-4.925 5h5.849c.569 0 .793-.77.315-1.087-.854-.566-1.988-.913-3.239-.913s-2.385.346-3.239.913c-.479.317-.254 1.087.315 1.087zm18.425-11v2.999c0 1.657-1.343 3-3 3h-2.872l-2.454 1.69c-.186.119-.387.173-.583.173-.566 0-1.089-.45-1.089-1.088l-.002-6.772c0-1.65 1.35-3 3-3.001h3.999c1.657-.002 3.001 1.341 3.001 2.999zm-3 0h-4s0 2.999 0 2.999h3.999v-2.999zm1 11c0-1.657-1.343-3-3-3s-3 1.343-3 3 1.343 3 3 3 3-1.343 3-3zm-3 5c-2.39 0-4.397 1.593-4.967 3.749-.167.633.329 1.251.999 1.251h7.936c.67 0 1.167-.619.999-1.251-.57-2.156-2.578-3.749-4.967-3.749z"/></svg>