<svg id="Layer_1" viewBox="0 0 24 24" xmlns="http://www.w3.org/2000/svg" data-name="Layer 1"><path d="m10.5 1.5c0-.828.672-1.5 1.5-1.5s1.5.672 1.5 1.5-.672 1.5-1.5 1.5-1.5-.672-1.5-1.5zm-1.875 6.281.875-.7v2.919c0 .552.448 1 1 1s1-.448 1-1v-1h1v1c0 .552.448 1 1 1s1-.448 1-1v-2.919l.875.7c.429.344 1.059.277 1.406-.156.345-.431.274-1.061-.156-1.405l-1.329-1.063c-.935-.76-2.12-1.058-3.296-1.156-1.176.098-2.361.396-3.296 1.156l-1.329 1.063c-.431.345-.501.974-.156 1.405.347.431.974.501 1.406.156zm12.875-3.781c-1.379 0-2.5 1.122-2.5 2.5v3.605c-1.239-.278-2.589.055-3.551 1.017l-3.482 3.482c-.155-.177-.313-.354-.486-.526l-2.877-2.876c-.987-.987-2.349-1.362-3.604-1.099v-3.603c0-1.378-1.121-2.5-2.5-2.5s-2.5 1.122-2.5 2.5v11.015c0 2.003.78 3.887 2.197 5.304l.742.742c.586.586 1.535.586 2.121 0s.586-1.535 0-2.121l-.742-.742c-.851-.851-1.318-1.98-1.318-3.183v-1.12l2.443 2.426c.587.583 1.538.581 2.121-.008.584-.588.58-1.537-.008-2.121l-2.449-2.432c-.206-.389-.173-.79.239-1.114.312-.223.812-.146 1.137.178l2.877 2.876c1.095 1.095 1.627 2.237 1.627 3.491v2.81c0 .828.672 1.5 1.5 1.5s1.5-.672 1.5-1.5v-2.81c0-.843-.148-1.655-.429-2.436l4.012-4.012c.324-.322.849-.323 1.175 0 .271.27.317.693.122 1.016l-2.424 2.405c-.588.583-.592 1.533-.008 2.121s1.533.592 2.121.008l2.443-2.424v1.145c0 1.202-.468 2.332-1.318 3.183l-.742.742c-.586.586-.586 1.535 0 2.121s1.535.586 2.121 0l.742-.742c1.417-1.417 2.197-3.301 2.197-5.304v-11.014c0-1.378-1.121-2.5-2.5-2.5z"/></svg>