<svg id="Layer_1" viewBox="0 0 24 24" xmlns="http://www.w3.org/2000/svg" data-name="Layer 1"><path d="m1 6.5v-1c0-.828.672-1.5 1.5-1.5h.509c.993-2.373 3.34-4 5.991-4s4.994 1.624 5.987 4h.513c.828 0 1.5.672 1.5 1.5v1c0 .697-.477 1.277-1.121 1.446.142.772.292 1.593.418 2.287.147.815-.394 1.596-1.209 1.743-.81.145-1.596-.394-1.742-1.209-.346-1.908-.879-4.773-.906-4.923-.185-.977-.774-1.787-1.568-2.291-1.176 1.487-2.976 2.39-4.871 2.444v.003c0 1.654 1.346 3 3 3 .116 0 .231-.006.345-.02.807-.099 1.566.495 1.662 1.318.095.823-.495 1.567-1.318 1.663-.225.026-.455.039-.688.039h-2.697c-.882 0-1.736.259-2.471.749-.501.333-1.154.336-1.656.005-.503-.331-.76-.93-.651-1.522.055-.303.335-1.837.6-3.284-.645-.168-1.124-.749-1.124-1.447zm23 8.5v3.5c0 3.032-2.468 5.5-5.5 5.5h-15.5c-.975 0-1.89-.476-2.449-1.272-.566-.808-.703-1.845-.366-2.775 1.266-3.505 4.891-5.952 8.815-5.952 3.871 0 7.58 2.506 8.818 5.957.121.339.181.691.179 1.042h.503c1.379 0 2.5-1.12 2.5-2.499v-2.811l-.899-.77c-.193.048-.393.081-.601.081-1.381 0-2.5-1.119-2.5-2.5s1.119-2.5 2.5-2.5c1.402-.004 2.567 1.181 2.491 2.588l1.485 1.273c.332.285.523.701.523 1.139zm-9.002 5.993c-.834-2.326-3.353-3.993-5.998-3.993s-5.163 1.67-5.994 3.972z"/></svg>