<?xml version="1.0" encoding="UTF-8"?>
<svg xmlns="http://www.w3.org/2000/svg" id="Layer_1" data-name="Layer 1" viewBox="0 0 24 24">
  <path d="M23.253,23.395c-.682,.396-1.461,.605-2.253,.605-.982,0-1.976-.321-2.796-.903-.131-.093-.279-.093-.406,0-1.645,1.167-3.953,1.166-5.594,0-.131-.093-.279-.093-.406,0-1.645,1.167-3.953,1.166-5.594,0-.131-.093-.279-.093-.406,0-1.484,1.055-3.523,1.187-5.051,.299-.717-.417-.96-1.334-.544-2.051s1.337-.958,2.05-.544c.537,.313,1.262,.238,1.807-.149,1.16-.825,2.721-.826,3.883,0,.623,.442,1.49,.443,2.117,0,1.16-.825,2.721-.826,3.883,0,.623,.442,1.49,.443,2.117,0,1.16-.825,2.721-.826,3.883,0,.542,.385,1.268,.461,1.805,.148,.714-.414,1.634-.172,2.05,.544s.173,1.634-.544,2.051ZM2.727,18.836c-.317-.877-.691-2.04-.691-2.836,0-1.5,1.135-2,1.964-2h.748l1.403-7.716c.34-1.874,1.952-3.235,3.849-3.276v-1.008c0-1.105,.895-2,2-2s2,.895,2,2v1.008c1.896,.041,3.508,1.403,3.849,3.277l1.403,7.715h.748c.828,0,1.964,.5,1.964,2,0,.796-.374,1.959-.691,2.836-.096,.036-.193,.06-.287,.105-1.809-1.218-4.182-1.214-5.986,.01-.905-.613-1.953-.92-3-.92-1.047,0-2.095,.302-3,.915-1.805-1.224-4.178-1.223-5.986-.005-.093-.045-.191-.069-.287-.105Zm5.339-6.316l2.52-2.52-1.744-1.744-.776,4.264Zm2.021-6.52c-.19,0-.361,.065-.514,.159l2.427,2.427,2.427-2.427c-.153-.093-.324-.159-.514-.159h-3.826Zm5.071,2.256l-1.744,1.744,2.52,2.52-.776-4.264Zm-3.158,3.158l-2.586,2.586h5.172l-2.586-2.586Z"/>
</svg>
