<svg id="Layer_1" viewBox="0 0 24 24" xmlns="http://www.w3.org/2000/svg" data-name="Layer 1"><path d="m10.853 10.147c0 .634 1.147 1.912 1.147 1.912s-1.702-.233-2.227.122-.662 1.068-.307 1.593 1.069.662 1.593.307c.525-.355.94-2.022.94-2.022s.416 1.667.94 2.022c.622.439 1.569.107 1.734-.645 1.524.605 3.896 1.565 6.442 1.203 1.042.971 1.264 2.044 1.277 2.737.009.476-.24.919-.66 1.144-.764.408-2.226.833-4.125-.293-1.228-.727-2.758-2.173-4.102-3.583.528 1.875.993 3.928.993 5.355 0 2.183-1.085 3.35-1.825 3.807-.416.257-.934.257-1.35 0-.74-.458-1.825-1.625-1.825-3.807 0-1.428.464-3.48.993-5.355-1.344 1.41-2.873 2.856-4.102 3.583-1.901 1.126-3.363.701-4.127.292-.421-.225-.669-.669-.66-1.147.016-.87.361-2.335 2.239-3.447 1.27-.752 3.369-1.418 5.306-1.926-1.938-.508-4.036-1.173-5.306-1.926-1.878-1.112-2.222-2.577-2.239-3.447-.009-.488.255-.935.688-1.161.624-.327 1.694-.653 3.075-.174.993 2.081 2.471 3.616 3.926 4.771-1.01-1.648-2.523-4.136-3.282-8.905-.086-.545.285-1.058.831-1.145.548-.086 1.058.286 1.145.831.462 2.909 1.207 4.844 1.942 6.293-.255-1.156-.43-2.263-.43-3.135 0-2.181 1.083-3.348 1.823-3.806.409-.253.923-.262 1.333-.01.55.338 1.3 1.127 1.649 2.352-1.435 2.206-1.911 4.935-2.144 6.477-.682-.105-1.313.445-1.307 1.135zm13.075.48c-.205-.513-.788-.76-1.301-.556-2.397.963-4.171 1.246-5.675 1.323 1.235-.392 2.39-.838 3.205-1.321 1.878-1.112 2.222-2.577 2.239-3.447.009-.477-.239-.922-.66-1.147-.764-.409-2.226-.834-4.127.292-.232.137-.477.307-.727.49l2.9-3.639c.317-.399.284-.973-.078-1.333-.361-.36-.937-.389-1.333-.068-3.443 2.785-4.82 5.332-5.826 7.192l-.385.598c.539.098.988.562.987 1.135 0 .634-1.147 1.912-1.147 1.912s1.702-.233 2.227.122c.413.28.575.779.456 1.236l.019-.009s0 .004 0 .006c.38.005.754.012 1.149.012 1.865 0 4.186-.157 7.521-1.497.512-.206.761-.789.555-1.301z"/></svg>