<svg id="Layer_1" viewBox="0 0 24 24" xmlns="http://www.w3.org/2000/svg" data-name="Layer 1"><path d="m22.5 21h-8.5v-2.5c0-.828-.672-1.5-1.5-1.5s-1.5.672-1.5 1.5v2.5h-2v-3.61c1.785-1.003 3-3.075 3-4.89 0 0 .004-1.007 0-1 0-.276-.224-.5-.5-.5s-.451.176-.632.509c-.529.883-1.381 1.491-2.977 1.491h-4.391c-1.381 0-2.5 1.119-2.5 2.5v5.592c-.581.207-1 .756-1 1.408 0 .828.672 1.5 1.5 1.5h21c.828 0 1.5-.672 1.5-1.5s-.672-1.5-1.5-1.5zm-16.5-3v3h-2v-3zm18-13.977v4.243l-1.062 1.062c-.896.896-2.165 1.315-3.419 1.128l-2.431-.363-1.202.974c-.876.704-2.137.642-2.935-.157l-.308-.307c-.76-.76-.86-1.947-.24-2.824l1-1.328-.364-2.475c-.184-1.251.235-2.516 1.129-3.41l.564-.564h4.243l-2.686 2.686c-.224.224-.328.54-.282.853l.375 2.549 1.019 1.018 2.559.382c.313.047.631-.058.855-.282l3.184-3.183z"/></svg>