<svg id="Layer_1" viewBox="0 0 24 24" xmlns="http://www.w3.org/2000/svg" data-name="Layer 1"><path d="m23.935 16.391c.251.797-.344 1.609-1.18 1.609-.55 0-1.034-.364-1.188-.892l-1.193-4.11-.875.002v3.75c0 .69-.56 1.25-1.25 1.25s-1.25-.56-1.25-1.25v-9.5c0-.69.56-1.25 1.25-1.25s1.25.56 1.25 1.25v3.35h1.018l1.053-3.702c.151-.532.637-.898 1.19-.898h.001c.834 0 1.429.808 1.181 1.604l-1.379 4.435 1.371 4.352zm-17.128-10.391c-.452 0-.866.256-1.067.661l-1.74 3.313-1.717-3.309c-.201-.407-.615-.665-1.069-.665h-.021c-.881 0-1.457.923-1.071 1.714l2.628 4.945v4.091c0 .69.56 1.25 1.25 1.25s1.25-.56 1.25-1.25v-4.155l2.626-4.876c.39-.792-.186-1.718-1.069-1.718zm8.693 3.5c0-1.995-1.67-3.601-3.688-3.495-1.401.068-2.521 1.016-3.027 2.257-.338.83.298 1.739 1.194 1.739.517 0 .931-.366 1.082-.86.119-.388.396-.669.939-.64.644 0 1 .356 1 1 0 3-4.5 4.288-4.5 7v.25c0 .69.56 1.25 1.25 1.25h4.5c.69 0 1.25-.56 1.25-1.25s-.56-1.25-1.25-1.25h-2.506c1.036-.947 3.756-2.914 3.756-6z"/></svg>