<svg id="Layer_1" viewBox="0 0 24 24" xmlns="http://www.w3.org/2000/svg" data-name="Layer 1"><path d="m18.383 2.036-5.911-1.96c-.154-.051-.314-.076-.472-.076-.159 0-.318.025-.472.076l-5.912 1.96c-2.163.717-3.616 2.731-3.616 5.01v5.106c0 6.518 6.852 10.45 8.951 11.5.314.163.69.348 1.051.348.315 0 .67-.152.954-.267 2.122-.853 9.044-4.21 9.044-11.581v-5.106c0-2.28-1.453-4.293-3.617-5.01zm.617 10.116c0 5.259-5.031 7.896-6.932 8.702-1.927-.998-7.068-4.098-7.068-8.702v-5.106c0-.983.627-1.853 1.561-2.162l5.439-1.804 5.439 1.804c.934.31 1.561 1.178 1.561 2.162zm-6-.665 4-2.294v3.454c0 .766-.395 1.478-1.044 1.884l-2.956 1.843zm-6-2.31 4 2.307v4.908l-2.956-1.86c-.65-.406-1.044-1.118-1.044-1.884v-3.47zm8.92-1.663-3.92 2.24-3.92-2.24 2.742-1.714c.721-.45 1.635-.45 2.356 0z"/></svg>