<svg id="Layer_1" viewBox="0 0 24 24" xmlns="http://www.w3.org/2000/svg" data-name="Layer 1"><path d="m16 10c0 .829-.672 1.5-1.5 1.5h-1v1c0 .828-.671 1.5-1.5 1.5s-1.5-.672-1.5-1.5v-1h-1c-.829 0-1.5-.671-1.5-1.5s.671-1.5 1.5-1.5h1v-1c0-.829.671-1.5 1.5-1.5s1.5.671 1.5 1.5v1h1c.828 0 1.5.671 1.5 1.5zm6.5.443c0 2.829-2.201 6.77-6.542 11.714-.999 1.139-2.454 1.791-3.965 1.787-1.52-.001-2.957-.653-3.952-1.79-4.341-4.942-6.541-8.881-6.541-11.707.007-5.783 4.716-10.494 10.498-10.502h.005c5.782.009 10.491 4.718 10.498 10.499zm-3 .002c-.005-4.128-3.369-7.493-7.5-7.5-4.131.007-7.495 3.374-7.5 7.504 0 .938.565 3.77 5.795 9.725.4.456.955.728 1.562.767.698.047 1.385-.239 1.848-.762 5.231-5.959 5.796-8.792 5.796-9.733z"/></svg>