<svg id="Layer_1" viewBox="0 0 24 24" xmlns="http://www.w3.org/2000/svg" data-name="Layer 1"><path d="m12 7c.829 0 1.5.671 1.5 1.5v3c0 .829-.671 1.5-1.5 1.5s-1.5-.671-1.5-1.5v-3c0-.829.671-1.5 1.5-1.5zm4 1.5v2c0 .829.671 1.5 1.5 1.5s1.5-.671 1.5-1.5v-2c0-.829-.671-1.5-1.5-1.5s-1.5.671-1.5 1.5zm-10.5-3.5h13c1.93 0 3.5-1.57 3.5-3.5 0-.829-.671-1.5-1.5-1.5s-1.5.671-1.5 1.5c0 .276-.224.5-.5.5h-13c-.276 0-.5-.224-.5-.5 0-.829-.671-1.5-1.5-1.5s-1.5.671-1.5 1.5c0 1.93 1.57 3.5 3.5 3.5zm-.5 3.5v.613c1.133.217 2.169.76 3 1.578v-2.192c0-.828-.672-1.5-1.5-1.5s-1.5.672-1.5 1.5zm14.5 5.5h-7.858c-.942 0-1.794.369-2.441.958l-2.447-2.688c-1.372-1.573-3.977-1.698-5.487-.257-1.566 1.427-1.692 3.874-.276 5.461l5.44 6.031c.556.616 1.505.662 2.119.109.615-.555.664-1.503.109-2.119l-5.435-6.024c-.321-.359-.292-.916.064-1.24.338-.328.936-.299 1.248.059l3.511 3.858c.225 1.577 1.468 2.87 3.081 3.1l5.161.737c.817.118 1.58-.452 1.697-1.273.117-.82-.453-1.58-1.273-1.697l-5.16-.737c-.314-.045-.552-.318-.552-.636 0-.354.288-.642.642-.642h7.858c.827 0 1.5.673 1.5 1.5v4c0 .829.671 1.5 1.5 1.5s1.5-.671 1.5-1.5v-4c0-2.481-2.019-4.5-4.5-4.5z"/></svg>