<svg id="Layer_1" viewBox="0 0 24 24" xmlns="http://www.w3.org/2000/svg" data-name="Layer 1"><path d="m8 8.744 3 1.715v3.693l-1.992-1.139c-.623-.356-1.008-1.019-1.008-1.736zm4.981-2.985c-.611-.345-1.359-.345-1.969 0l-2.186 1.238 3.176 1.815 3.174-1.814-2.195-1.24zm11.012 13.359c.073.665-.409 1.266-1.076 1.339l-2.221.246-.245 2.207c-.047.468-.364.867-.806 1.021-.444.159-.941.044-1.263-.285l-4.308-4.298c-.591.446-1.362.622-2.084.631-.717-.009-1.481-.183-2.07-.622l-4.299 4.289c-.323.33-.82.444-1.263.285-.442-.153-.76-.552-.806-1.021l-.245-2.207-2.221-.246c-.667-.073-1.149-.674-1.076-1.339.03-.273.153-.529.346-.723l3.476-3.468c-.084-.505-.071-1.009.041-1.506.008-.035-.021-.095-.082-.134-.55-.354-.994-.832-1.321-1.421-.315-.57-.48-1.221-.477-1.885-.003-.649.162-1.3.477-1.868.328-.59.772-1.068 1.321-1.422.061-.039.09-.099.083-.133-.148-.652-.126-1.318.063-1.979.364-1.265 1.377-2.276 2.646-2.638.652-.188 1.338-.209 1.98-.064.035.006.096-.02.135-.082.354-.547.833-.99 1.423-1.317 1.153-.639 2.587-.639 3.741 0 .589.326 1.067.769 1.422 1.316.041.062.099.092.135.083.654-.147 1.32-.125 1.982.064 1.267.362 2.281 1.373 2.645 2.638.19.664.211 1.33.063 1.979-.007.033.022.094.083.133.549.353.993.831 1.32 1.42.315.569.481 1.22.478 1.884.003.649-.162 1.301-.478 1.869-.327.589-.771 1.067-1.321 1.421-.061.039-.09.1-.082.134.112.489.127.988.046 1.488l3.494 3.486c.193.194.316.45.346.723zm-5.005-9.154c0-.168-.034-.312-.101-.434-.085-.154-.194-.274-.324-.358-1.113-.719-1.668-2.053-1.381-3.319.035-.154.028-.32-.022-.493-.078-.271-.314-.507-.587-.586-.173-.049-.338-.057-.491-.022-1.263.292-2.6-.266-3.319-1.381-.083-.129-.204-.238-.357-.323-.248-.139-.582-.137-.831 0-.154.085-.274.194-.357.323-.72 1.114-2.054 1.666-3.32 1.381-.153-.036-.318-.027-.489.021-.275.079-.511.315-.589.588-.049.172-.057.338-.022.492.288 1.265-.267 2.599-1.381 3.318-.246.161-.433.458-.425.777-.008.335.17.622.425.792 1.114.718 1.669 2.052 1.38 3.32-.034.152-.027.318.022.49.079.274.314.51.588.588.399.122.766-.081 1.161-.053 1.046 0 2.057.538 2.649 1.456.084.13.204.239.357.324.249.139.584.138.832 0 .152-.084.272-.193.356-.323.718-1.113 2.051-1.667 3.319-1.381.155.036.319.028.492-.022.273-.078.509-.314.587-.587.049-.172.057-.337.022-.49-.288-1.268.267-2.602 1.38-3.32.246-.161.434-.459.425-.777zm-5.987 4.205 1.971-1.094c.635-.353 1.029-1.022 1.029-1.749v-2.58l-3 1.715z"/></svg>