<svg id="Layer_1" viewBox="0 0 24 24" xmlns="http://www.w3.org/2000/svg" data-name="Layer 1"><path d="m19.5 4h-11.5v-1c0-1.654-1.346-3-3-3h-1c-2.206 0-4 1.794-4 4v16c0 2.206 1.794 4 4 4h5.5c.829 0 1.5-.671 1.5-1.5s-.671-1.5-1.5-1.5h-5.5c-.551 0-1-.449-1-1s.449-1 1-1h1c1.654 0 3-1.346 3-3v-9h11.5c.827 0 1.5.673 1.5 1.5v1.5c0 .829.671 1.5 1.5 1.5s1.5-.671 1.5-1.5v-1.5c0-2.481-2.019-4.5-4.5-4.5zm-14.5 12h-1c-.345 0-.68.044-1 .126v-12.126c0-.551.449-1 1-1h1zm18.041-.121-3-2.348c-.905-.708-2.176-.708-3.081 0l-3 2.348c-.605.474-.959 1.2-.959 1.969v3.652c0 1.381 1.119 2.5 2.5 2.5h6c1.381 0 2.5-1.119 2.5-2.5v-3.652c0-.769-.354-1.495-.959-1.969zm-3.041 4.121c0 .552-.448 1-1 1h-1c-.552 0-1-.448-1-1v-1c0-.552.448-1 1-1h1c.552 0 1 .448 1 1zm-7.5-5.5c-.829 0-1.5-.671-1.5-1.5v-2.5c0-.829.671-1.5 1.5-1.5h4c.829 0 1.5.671 1.5 1.5s-.671 1.5-1.5 1.5h-2.5v1c0 .829-.671 1.5-1.5 1.5z"/></svg>