<svg id="Layer_1" viewBox="0 0 24 24" xmlns="http://www.w3.org/2000/svg" data-name="Layer 1"><path d="m5 11c-2.944 0-5 .822-5 2v8.27c0 1.32 1.313 2.73 5 2.73s5-1.41 5-2.73v-8.27c0-1.178-2.056-2-5-2zm2 3.856v1.882c-.417.137-1.063.262-2 .262-.943 0-1.587-.116-2-.243v-1.901c.601.093 1.273.144 2 .144s1.399-.051 2-.144zm-2 6.144c-1.088 0-1.699-.156-2-.271v-1.917c.558.116 1.215.187 2 .187.771 0 1.435-.07 2-.19v1.92c-.301.114-.912.271-2 .271zm19-8c0-1.178-2.056-2-5-2s-5 .822-5 2v8.27c0 1.32 1.313 2.73 5 2.73s5-1.41 5-2.73zm-3 1.856v1.882c-.417.137-1.063.262-2 .262-.943 0-1.587-.116-2-.243v-1.901c.601.093 1.273.144 2 .144s1.399-.051 2-.144zm-2 6.144c-1.088 0-1.699-.156-2-.271v-1.917c.558.116 1.215.187 2 .187.771 0 1.435-.07 2-.19v1.92c-.301.114-.912.271-2 .271zm-17-13.5v-4c0-.828.672-1.5 1.5-1.5h1.879c.398 0 .779.158 1.061.439l1.121 1.121c.281.281.439.663.439 1.061v2.879c0 .828-.672 1.5-1.5 1.5h-3c-.828 0-1.5-.672-1.5-1.5zm10-4.5c-.418 0-.84.035-1.254.104-.812.13-1.59-.415-1.726-1.233-.136-.817.416-1.59 1.233-1.726.576-.096 1.163-.145 1.746-.145 2.958 0 5.708 1.225 7.664 3.316l1.108-1.108c.443-.443 1.199-.132 1.203.494l.025 3.846c.005.804-.648 1.457-1.452 1.452l-3.846-.025c-.626-.004-.936-.761-.494-1.203l1.327-1.327c-1.4-1.537-3.39-2.444-5.535-2.444z"/></svg>