<?xml version="1.0" encoding="UTF-8"?>
<svg xmlns="http://www.w3.org/2000/svg" id="Layer_1" data-name="Layer 1" viewBox="0 0 24 24">
  <path d="M18.5,3c0-1.105,.895-2,2-2s2,.895,2,2-.895,2-2,2-2-.895-2-2ZM0,6.5V3.5C0,2.12,1.119,1,2.5,1h3c1.381,0,2.5,1.119,2.5,2.5v3c0,1.381-1.119,2.5-2.5,2.5H2.5c-1.381,0-2.5-1.119-2.5-2.5ZM2.5,4c0,.552,.448,1,1,1h1c.552,0,1-.448,1-1s-.448-1-1-1h-1c-.552,0-1,.448-1,1Zm8.302,5.94c.468,.408,1.198,.076,1.198-.545v-.395h2c.553,0,1-.448,1-1s-.447-1-1-1h-2v-.403c0-.619-.728-.952-1.196-.547l-1.528,1.321c-.369,.331-.369,.908,0,1.239l1.525,1.33Zm.198-5.94h2v.403c0,.619,.728,.952,1.196,.547l1.528-1.321c.369-.331,.369-.908,0-1.239l-1.525-1.33c-.468-.408-1.198-.076-1.198,.545v.395h-2c-.552,0-1,.448-1,1s.448,1,1,1Zm8.936,7.004c-1.036,.048-1.991,.498-2.69,1.265l-2.446,2.688c-.647-.589-1.499-.958-2.441-.958H4.5c-2.481,0-4.5,2.019-4.5,4.5v4c0,.829,.671,1.5,1.5,1.5s1.5-.671,1.5-1.5v-4c0-.827,.673-1.5,1.5-1.5h7.858c.354,0,.642,.288,.642,.642,0,.317-.237,.591-.551,.636l-5.161,.737c-.82,.117-1.39,.877-1.273,1.697,.117,.82,.879,1.389,1.697,1.273l5.161-.737c1.612-.231,2.856-1.524,3.08-3.101l3.511-3.858c.312-.359,.901-.382,1.248-.059,.356,.325,.385,.881,.065,1.239l-5.396,6.031c-.552,.617-.499,1.565,.118,2.118,.286,.256,.644,.382,.999,.382,.412,0,.822-.168,1.119-.5l5.396-6.032c1.41-1.581,1.283-4.027-.282-5.455-.768-.699-1.764-1.058-2.797-1.008Zm-1.863-2.004h4.855c.833,0,1.361-.812,.904-1.422-.711-.95-1.934-1.578-3.332-1.578s-2.62,.628-3.332,1.578c-.456,.609,.071,1.422,.904,1.422Z"/>
</svg>
