<svg id="Layer_1" viewBox="0 0 24 24" xmlns="http://www.w3.org/2000/svg" data-name="Layer 1"><path d="m8.5 11c-1.105 0-2-.895-2-2s.895-2 2-2 2 .895 2 2-.895 2-2 2zm11.499-6.978c1.105 0 2-.895 2-2s-.895-2-2-2-2 .895-2 2 .895 2 2 2zm-10.999 12.978c1.105 0 2-.895 2-2s-.895-2-2-2-2 .895-2 2 .895 2 2 2zm15 1v3c0 1.657-1.343 3-3 3h-5c-1.657 0-3-1.343-3-3v-3c0-.885.39-1.672 1-2.221v-2.279c0-2.481 2.019-4.5 4.5-4.5s4.5 2.019 4.5 4.5v2.279c.61.549 1 1.336 1 2.221zm-7-4.5v1.5h3v-1.5c0-.827-.673-1.5-1.5-1.5s-1.5.673-1.5 1.5zm3 6c0-.828-.672-1.5-1.5-1.5s-1.5.672-1.5 1.5.672 1.5 1.5 1.5 1.5-.672 1.5-1.5zm-4.258-11.77c.679-.474.846-1.409.372-2.088-.723-1.037-1.211-2.189-1.449-3.428-.386-1.998-1.992-2.214-2.664-2.214-6.618 0-12.001 5.383-12.001 12 0 5.55 3.76 10.343 9.144 11.657.784.197 1.62-.29 1.813-1.102.197-.805-.296-1.616-1.101-1.812-4.037-.985-6.856-4.581-6.856-8.743 0-4.868 3.885-8.846 8.764-8.993.333 1.567.968 3.03 1.89 4.352.474.68 1.408.848 2.088.372z"/></svg>