<svg id="Layer_1" viewBox="0 0 24 24" xmlns="http://www.w3.org/2000/svg" data-name="Layer 1"><path d="m21.75 1.902-2.25-1.299c-1.389-.802-3.113-.802-4.5 0l-3 1.732-3-1.732c-1.389-.802-3.111-.802-4.5 0l-2.25 1.299c-1.388.802-2.25 2.295-2.25 3.897v3.008c0 1.602.862 3.095 2.25 3.896l3 1.732v3.766c0 1.602.862 3.095 2.25 3.896l2.249 1.299c.694.401 1.473.602 2.251.602s1.557-.2 2.25-.602l2.251-1.299c1.387-.802 2.249-2.295 2.249-3.896v-3.766l3-1.732c1.388-.801 2.25-2.294 2.25-3.896v-3.008c0-1.602-.862-3.095-2.25-3.896zm-18.75 6.905v-3.008c0-.534.287-1.032.75-1.299l2.25-1.299c.231-.133.49-.2.75-.2s.519.067.75.2l3 1.732v4.739l-3.75 2.165-3-1.732c-.463-.267-.75-.765-.75-1.299zm12.75 9.395c0 .533-.287 1.031-.75 1.299l-2.251 1.299c-.46.267-1.035.269-1.499 0l-2.249-1.299c-.464-.268-.751-.766-.751-1.299v-3.766l3.75-2.165 3.75 2.165zm5.25-9.395c0 .534-.287 1.032-.75 1.299l-3 1.732-3.75-2.165v-4.74l3-1.732c.463-.267 1.037-.267 1.5 0l2.25 1.299c.463.267.75.765.75 1.299z"/></svg>