<svg id="Layer_1" viewBox="0 0 24 24" xmlns="http://www.w3.org/2000/svg" data-name="Layer 1"><path d="m21.14 3.855s-.692-.857-1.713-.857c-.939 0-1.594.172-2.023.577-.968.914.115 1.136.596 1.136 0 0-.135.729.538.979s1.457.449 1.457.449c.275.825-.329 3.49.506 5.402-.165-.186-.665-.679-1.501-.922v-1.026c0-1.509-.967-2.848-2.399-3.322l-3.113-1.032c-.966-.32-2.009-.32-2.975 0l-3.114 1.032c-1.432.475-2.399 1.814-2.398 3.322v1.026c-.836.243-1.336.736-1.501.922.835-1.912.231-4.577.506-5.402 0 0 .784-.199 1.457-.449s.538-.979.538-.979c.481 0 1.564-.222.596-1.136-.43-.405-1.084-.577-2.023-.577-1.021 0-1.713.857-1.713.857-2.707 3.198-2.868 5.76-2.861 7.504.002.558.229 1.087.63 1.475.791.765 2.334 1.912 4.63 2.123.578 2.123 2.161 3.964 4.762 5.478.647.377 1.367.566 2.087.566.635 0 1.27-.146 1.856-.443 3.101-1.566 4.369-3.698 4.819-5.607 2.271-.221 3.801-1.358 4.586-2.118.401-.388.627-.917.629-1.475.007-1.744-.154-4.306-2.86-7.503zm-8.528 14.025c-.341.172-.746.158-1.081-.037-2.306-1.343-3.494-2.905-3.532-4.61v-3.64c0-.216.138-.406.343-.475l3.115-1.032c.349-.116.735-.118 1.085 0l3.114 1.032c.205.068.343.259.343.475v3.609c-.04 2.017-1.148 3.547-3.388 4.678zm2.388-4.881c0 .552-.448 1-1 1h-1v1c0 .552-.448 1-1 1s-1-.448-1-1v-1h-1c-.552 0-1-.448-1-1s.448-1 1-1h1v-1c0-.552.448-1 1-1s1 .448 1 1v1h1c.552 0 1 .448 1 1z"/></svg>