<svg id="Layer_1" viewBox="0 0 24 24" xmlns="http://www.w3.org/2000/svg" data-name="Layer 1"><path d="m8.846 12.827.922.902c.976.976.976 2.559 0 3.536-.488.488-1.128.732-1.768.732s-1.28-.244-1.768-.732c-.976-.976-.976-2.559 0-3.536l.922-.902c.47-.46 1.222-.46 1.692 0zm10.154-2.827c0 1.105.895 2 2 2s2-.895 2-2-.895-2-2-2-2 .895-2 2zm-8-7v2.441c3.005 1.501 5 4.626 5 8.059v5c0 3.032-2.468 5.5-5.5 5.5h-5c-3.032 0-5.5-2.468-5.5-5.5v-5c0-3.433 1.995-6.558 5-8.059v-1.941c0-1.93 1.57-3.5 3.5-3.5h5.027c1.683 0 3.313.494 4.715 1.428l1.163.876c.66.5.791 1.44.291 2.101-.499.661-1.439.792-2.102.292l-1.09-.824c-.834-.553-1.889-.872-2.978-.872h-2.527zm-1.64 5h-2.72c-2.168.936-3.64 3.098-3.64 5.5v5c0 1.379 1.121 2.5 2.5 2.5h5c1.379 0 2.5-1.121 2.5-2.5v-5c0-2.402-1.472-4.564-3.64-5.5zm11.968 9.148c.11-.265.172-.555.172-.859 0-1.243-1.007-2.25-2.25-2.25-.463 0-.892.14-1.25.38v4.12c0 1.17-.277 2.273-.756 3.261.507 1.308 1.79 2.201 3.277 2.201 1.933 0 3.479-1.529 3.479-3.462 0-1.646-1.141-3.017-2.672-3.391z"/></svg>