<svg id="Layer_1" viewBox="0 0 24 24" xmlns="http://www.w3.org/2000/svg" data-name="Layer 1"><path d="m24 20v2c0 1.105-.895 2-2 2h-2c-1.105 0-2-.895-2-2v-2c0-.552.448-1 1-1v-2c0-.552.448-1 1-1h2c.552 0 1 .448 1 1v2c.552 0 1 .448 1 1zm-16.5-15.5c.829 0 1.5-.671 1.5-1.5v-1.5c0-.829-.671-1.5-1.5-1.5s-1.5.671-1.5 1.5v1.5c0 .829.671 1.5 1.5 1.5zm9.5 7.5v4.5c0 4.136-3.364 7.5-7.5 7.5s-7.5-3.364-7.5-7.5v-4.5c0-3.309 2.691-6 6-6h3c3.309 0 6 2.691 6 6zm-6-3v3h3c0-1.654-1.346-3-3-3zm-6 3h3v-3c-1.654 0-3 1.346-3 3zm9 4.5v-1.5h-9v1.5c0 2.481 2.019 4.5 4.5 4.5s4.5-2.019 4.5-4.5zm-10.256-11.198c.719-.411.969-1.327.558-2.046l-.857-1.5c-.41-.718-1.326-.97-2.046-.558-.719.411-.969 1.327-.558 2.046l.857 1.5c.413.726 1.34.966 2.046.558z"/></svg>