<svg id="Layer_1" viewBox="0 0 24 24" xmlns="http://www.w3.org/2000/svg" data-name="Layer 1"><path d="m12 12c3.309 0 6-2.691 6-6s-2.691-6-6-6-6 2.691-6 6 2.691 6 6 6zm0-3c-1.654 0-3-1.346-3-3 0-.016.005-.031.005-.048.158.015.311.048.474.048 1.818 0 3.394-.979 4.265-2.431.757.545 1.256 1.429 1.256 2.431 0 1.654-1.346 3-3 3zm8.971 13.401c.061.862-.635 1.603-1.498 1.599-.783 0-1.443-.608-1.495-1.401-.166-2.508-1.876-4.577-4.16-5.311l-.944 1.417 1.093 3.99c.183.666-.405 1.305-1.201 1.305h-1.532c-.796 0-1.383-.639-1.201-1.305l1.093-3.99-.944-1.417c-2.284.733-3.994 2.803-4.16 5.311-.055.826-.768 1.456-1.596 1.397-.827-.055-1.452-.769-1.397-1.596.311-4.71 4.252-8.401 8.971-8.401s8.66 3.69 8.971 8.401z"/></svg>