<svg id="Layer_1" viewBox="0 0 24 24" xmlns="http://www.w3.org/2000/svg" data-name="Layer 1"><path d="m22.37 18.037c-.278.479-.781.745-1.297.745-.257 0-.517-.065-.754-.204l-1.746-1.017c-.344-.2-.594-.528-.695-.914-.102-.385-.046-.794.154-1.138.643-1.101.968-2.281.968-3.51 0-3.86-3.141-7-7-7s-7 3.14-7 7c0 1.223.332 2.438.96 3.514.201.344.256.753.155 1.138-.102.386-.352.714-.696.914l-1.739 1.013c-.715.419-1.634.175-2.051-.541s-.174-1.635.542-2.051l.539-.313c-.466-1.171-.709-2.418-.709-3.673 0-1.298.256-2.535.708-3.673l-.537-.313c-.716-.417-.958-1.335-.542-2.051.416-.715 1.335-.959 2.051-.542l.538.313c1.536-1.904 3.756-3.227 6.282-3.609v-.625c0-.829.671-1.5 1.5-1.5s1.5.671 1.5 1.5v.625c2.526.383 4.746 1.705 6.282 3.609l.537-.313c.715-.416 1.634-.175 2.052.542.416.716.174 1.634-.542 2.051l-.537.313c.452 1.139.708 2.376.708 3.673 0 1.249-.245 2.495-.715 3.669l.544.317c.716.416.958 1.335.541 2.051zm-7.111-.765c1.192 1.192 1.649 2.476 1.721 4.207.014.33-.122.653-.355.886-.431.431-1.117.472-1.596.096l-.917-.719h-.612v.757c0 .828-.671 1.5-1.5 1.5-.002 0-.003 0-.004 0s-.003 0-.004 0c-.828 0-1.499-.671-1.5-1.499v-.758h-.622l-.915.718c-.481.377-1.167.336-1.599-.096-.233-.233-.368-.552-.355-.882.069-1.736.511-3.041 1.725-4.255.146-3.01 1.138-5.494 2.065-7.466.312-.663 1.102-.948 1.764-.636.28.132.505.356.636.636.933 1.985 1.918 4.529 2.068 7.51zm-3.268 1.728c.828 0 1.5-.672 1.5-1.5s-.671-1.5-1.5-1.5-1.5.672-1.5 1.5.672 1.5 1.5 1.5z"/></svg>