<svg id="Layer_1" viewBox="0 0 24 24" xmlns="http://www.w3.org/2000/svg" data-name="Layer 1"><path d="m2.5 24c-.67 0-1.3-.26-1.77-.73s-.73-1.1-.73-1.77c0-1.12 1.17-2.7 1.52-3.09.55-.54 1.4-.55 1.92-.04.39.42 1.56 1.98 1.56 3.12 0 .67-.26 1.3-.73 1.77s-1.1.73-1.77.73zm12 0c-.67 0-1.3-.26-1.77-.73s-.73-1.1-.73-1.77c0-1.12 1.17-2.7 1.52-3.09.55-.54 1.4-.55 1.92-.04.39.42 1.56 1.98 1.56 3.12 0 .67-.26 1.3-.73 1.77s-1.1.73-1.77.73zm6 0c-.68 0-1.28-.46-1.45-1.12l-2.69-10.3-.87 2.42c-.21.6-.78 1-1.41 1s-1.2-.4-1.41-1l-.7-1.95-2 9.74c-.14.69-.75 1.19-1.45 1.2-.71 0-1.32-.48-1.48-1.17l-2.18-9.53-.5 1.64c-.21.67-.85 1.1-1.56 1.05-.7-.06-1.27-.6-1.36-1.3l-1.39-10.71c-.18-.92.09-1.95.74-2.73.66-.79 1.62-1.24 2.64-1.24h17.15c1.01 0 1.97.45 2.62 1.22.64.76.92 1.76.76 2.74l-1.97 18.7c-.08.76-.73 1.35-1.49 1.34zm-15.42-18s.04 0 .05 0c.68.03 1.26.5 1.41 1.17l1.88 8.25 1.68-8.22c.14-.66.69-1.15 1.36-1.2.66-.05 1.29.36 1.52.99l1.09 3.04 1.09-3.04c.22-.62.79-1.03 1.48-.99.66.03 1.22.48 1.39 1.12l1.84 7.04 1.11-10.56c.06-.34-.05-.56-.4-.6h-17.15c-.32.05-.43.18-.42.5l.51 3.95.12-.39c.19-.63.78-1.06 1.43-1.06z"/></svg>