<?xml version="1.0" encoding="UTF-8"?>
<svg xmlns="http://www.w3.org/2000/svg" id="Layer_1" data-name="Layer 1" viewBox="0 0 24 24">
  <path d="M22.5,16.5h-.776c-.186-.522-.464-.994-.818-1.408l.39-.677c.413-.718,.167-1.635-.552-2.048-.716-.413-1.635-.167-2.048,.551l-.382,.664c-.265-.049-.535-.082-.814-.082s-.549,.034-.814,.082l-.382-.664c-.413-.718-1.332-.964-2.048-.551-.719,.413-.965,1.33-.552,2.048l.39,.677c-.353,.413-.632,.886-.818,1.408h-.776c-.828,0-1.5,.672-1.5,1.5s.672,1.5,1.5,1.5h.776c.186,.522,.464,.994,.818,1.408l-.39,.677c-.413,.718-.167,1.635,.552,2.048,.235,.136,.493,.2,.747,.2,.519,0,1.023-.27,1.301-.752l.382-.663c.265,.049,.535,.082,.814,.082s.549-.034,.814-.082l.382,.663c.277,.482,.782,.752,1.301,.752,.254,0,.512-.064,.747-.2,.719-.413,.965-1.33,.552-2.048l-.39-.677c.353-.413,.632-.886,.818-1.408h.776c.828,0,1.5-.672,1.5-1.5s-.672-1.5-1.5-1.5Zm-6.5,1.5c0-.827,.673-1.5,1.5-1.5s1.5,.673,1.5,1.5-.673,1.5-1.5,1.5-1.5-.673-1.5-1.5Zm-3.5-10.5h.776c.186,.522,.464,.994,.818,1.407l-.39,.677c-.413,.718-.167,1.635,.551,2.048,.236,.136,.493,.201,.748,.201,.519,0,1.023-.27,1.301-.752l.382-.663c.265,.049,.535,.082,.814,.082s.549-.034,.814-.082l.382,.663c.277,.482,.782,.752,1.301,.752,.255,0,.512-.065,.748-.201,.718-.414,.964-1.331,.551-2.048l-.39-.677c.353-.413,.631-.885,.818-1.407h.776c.828,0,1.5-.671,1.5-1.5s-.672-1.5-1.5-1.5h-.776c-.186-.522-.464-.994-.818-1.407l.39-.677c.413-.718,.167-1.635-.551-2.048-.718-.413-1.636-.168-2.049,.551l-.382,.663c-.265-.049-.535-.082-.814-.082s-.549,.034-.814,.082l-.382-.663c-.414-.719-1.332-.964-2.049-.551-.718,.414-.964,1.331-.551,2.048l.39,.677c-.353,.413-.631,.885-.818,1.407h-.776c-.828,0-1.5,.671-1.5,1.5s.672,1.5,1.5,1.5Zm6.5-1.5c0,.827-.673,1.5-1.5,1.5s-1.5-.673-1.5-1.5,.673-1.5,1.5-1.5,1.5,.673,1.5,1.5Zm-13,0C2.686,6,0,8.686,0,12s2.686,6,6,6,6-2.686,6-6-2.686-6-6-6Zm3.301,7.935c-.153,1.08-1.108,1.865-2.199,1.865h-.28v.408c0,.437-.353,.792-.79,.792h-.02c-.436,0-.789-.356-.789-.792v-.408h-.2c-.711,0-1.348-.325-1.77-.833-.418-.504-.063-1.266,.592-1.266,.227,0,.51,.107,.664,.274,.128,.139,.312,.226,.515,.226h2.103c.278,0,.532-.187,.586-.46,.063-.318-.146-.615-.451-.677l-2.791-.559c-1.112-.223-1.888-1.281-1.725-2.439,.152-1.08,1.108-1.866,2.199-1.866h.28v-.4c0-.442,.358-.8,.8-.8s.8,.358,.8,.8v.4h.2c.711,0,1.348,.324,1.77,.833,.418,.504,.063,1.266-.592,1.266-.227,0-.51-.107-.664-.274-.128-.139-.312-.226-.515-.226h-2.102c-.278,0-.532,.186-.587,.458-.064,.318,.146,.617,.449,.678l2.792,.559c1.112,.222,1.889,1.282,1.725,2.439Z"/>
</svg>
