<svg id="Layer_1" viewBox="0 0 24 24" xmlns="http://www.w3.org/2000/svg" data-name="Layer 1"><path d="m16.5 10h-6v-4c.792 0 1.569.208 2.249.601.718.417 1.635.169 2.05-.546.415-.718.17-1.635-.547-2.05-1.135-.657-2.433-1.005-3.751-1.005v-1.5c0-.828-.671-1.5-1.5-1.5s-1.5.672-1.5 1.5v1.5c-4.137 0-7.501 3.364-7.501 7.5v4.5c0 4.963 4.038 9 9 9s9-4.037 9-9v-3.5c0-.828-.671-1.5-1.5-1.5zm-9-4v4h-4.472c.25-2.247 2.16-4 4.472-4zm7.5 9c0 3.309-2.691 6-6 6s-6-2.691-6-6v-2h12zm8.974-7.084c0 .272-.091.678-.523 1.061l-2.354 1.757c-.331.302-.91.346-1.335.148-.462-.207-.761-.661-.761-1.155v-2.002l-.409.3c-.442.325-1.069.232-1.398-.216-.326-.445-.229-1.071.216-1.397l1.245-.912-1.245-.911c-.446-.326-.543-.951-.217-1.397.326-.445.953-.544 1.397-.216l.41.3v-2.003c0-.494.299-.948.761-1.155.444-.201.957-.143 1.332.146.103.079 2.254 1.499 2.339 1.586.366.325.55.698.549 1.108s-.188.78-.553 1.101c-.078.08-1.996 1.359-2.09 1.432.036.025 2.1 1.3 2.055 1.3.144.127.58.514.58 1.126z"/></svg>