<svg id="Layer_1" viewBox="0 0 24 24" xmlns="http://www.w3.org/2000/svg" data-name="Layer 1"><path d="m19 13c1.379 0 2.5 1.121 2.5 2.5s-1.121 2.5-2.5 2.5-2.5-1.121-2.5-2.5 1.121-2.5 2.5-2.5zm4.969 9.75c-.561-2.173-2.649-3.75-4.969-3.75s-4.408 1.577-4.969 3.75c-.077.299-.011.618.179.862.189.244.48.387.79.387h8c.31 0 .601-.143.79-.387.189-.245.256-.563.179-.862zm-13.469-1.75h-5c-1.378 0-2.5-1.121-2.5-2.5v-13c0-1.379 1.122-2.5 2.5-2.5h7c1.379 0 2.5 1.121 2.5 2.5v4c0 .828.672 1.5 1.5 1.5s1.5-.672 1.5-1.5v-4c0-3.032-2.468-5.5-5.5-5.5h-7c-3.033 0-5.5 2.468-5.5 5.5v13c0 3.032 2.467 5.5 5.5 5.5h5c.829 0 1.5-.672 1.5-1.5s-.671-1.5-1.5-1.5zm-4-16c-.828 0-1.5.672-1.5 1.5s.672 1.5 1.5 1.5 1.5-.672 1.5-1.5-.672-1.5-1.5-1.5zm5 0c-.828 0-1.5.672-1.5 1.5s.672 1.5 1.5 1.5 1.5-.672 1.5-1.5-.672-1.5-1.5-1.5zm-5 5c-.828 0-1.5.672-1.5 1.5s.672 1.5 1.5 1.5 1.5-.672 1.5-1.5-.672-1.5-1.5-1.5zm5 0c-.828 0-1.5.672-1.5 1.5s.672 1.5 1.5 1.5 1.5-.672 1.5-1.5-.672-1.5-1.5-1.5zm-5 5c-.828 0-1.5.672-1.5 1.5s.672 1.5 1.5 1.5 1.5-.672 1.5-1.5-.672-1.5-1.5-1.5zm5 0c-.828 0-1.5.672-1.5 1.5s.672 1.5 1.5 1.5 1.5-.672 1.5-1.5-.672-1.5-1.5-1.5z"/></svg>