<svg id="Layer_1" viewBox="0 0 24 24" xmlns="http://www.w3.org/2000/svg" data-name="Layer 1"><path d="m23.98 11.54c-.24-6.37-5.48-11.54-11.98-11.54s-11.98 5.46-12 12c0 2.96 1.08 5.68 2.87 7.77.46.54 1.36.16 1.29-.54-.06-.59-.11-1.22-.13-1.88-.03-.73-.18-1.44-.43-2.13.75.53 1.58 1.01 2.41 1.34.02 1.8.23 3.43.43 4.55.29 1.67 1.74 2.89 3.45 2.89h4.25c1.71 0 3.16-1.23 3.45-2.92.19-1.11.4-2.73.42-4.52.83-.33 1.66-.81 2.41-1.34-.25.69-.4 1.4-.43 2.13-.03.66-.07 1.29-.13 1.88-.07.71.82 1.09 1.29.54 1.87-2.19 2.84-4.77 2.84-8.24zm-4.72-4.84-1.06.61c-.71.41-1.06 1.24-.86 2.03l.41 1.63c.66-.48 1.43-1.13 2.23-1.96l.35-.41c.29.72.5 1.49.59 2.28-1.86 1.8-3.91 3.11-4.95 3.11h-7.94c-1.04 0-3.1-1.31-4.95-3.11.1-.8.3-1.57.59-2.29l.41.43c.59.62 1.4.96 2.25.96h1.67l1 1v1h6.2l-2.27-1.42c-.61-.38-1.31-.58-2.02-.58h-1.4l-.9-.9c-.33-.33-.33-.86 0-1.19l.42-.42c.29-.29.73-.36 1.09-.18l.78.39c.36.18.8.11 1.09-.18.31-.31.36-.78.14-1.15l-.82-1.36c-.19-.31-.18-.69.01-1 .17-.26.4-.61.65-1.01h.03c2.98 0 5.62 1.46 7.26 3.7zm-5.14 14.3h-4.25c-.24 0-.45-.17-.49-.4-.16-.91-.33-2.18-.38-3.6h5.98c-.05 1.41-.21 2.67-.37 3.57-.04.25-.25.43-.5.43z"/></svg>