<svg id="Layer_1" viewBox="0 0 24 24" xmlns="http://www.w3.org/2000/svg" data-name="Layer 1"><path d="m6.476 6.253 1.818-3.166c.833-1.343 2.174-2.087 3.706-2.087s2.836.725 3.656 2.041l1.644 2.853c.414.718.167 1.635-.551 2.048-.719.413-1.636.166-2.048-.552l-1.617-2.808c-.244-.389-.586-.582-1.083-.582s-.87.205-1.131.626l-1.791 3.121c-.415.725-1.342.962-2.048.554-.718-.412-.966-1.329-.554-2.048zm16.896 10.185-2.123-3.687c-.414-.717-1.331-.964-2.048-.551-.718.413-.965 1.33-.551 2.049l2.148 3.729c.261.42.273.909.034 1.339-.241.435-.665.684-1.161.684h-15.342c-.511 0-.913-.235-1.16-.681-.24-.433-.229-.921.059-1.386l2.117-3.687c.413-.719.165-1.636-.554-2.048-.718-.41-1.635-.164-2.048.554l-2.09 3.642c-.84 1.352-.88 2.989-.107 4.382.774 1.393 2.188 2.224 3.782 2.224h15.342c1.594 0 3.007-.832 3.783-2.226.771-1.39.731-3.026-.082-4.337zm-6.594-6.438c-.39 0-.724.28-.793.664l-.984 5.482-1.007-5.488c-.07-.38-.402-.657-.788-.657-.5 0-.878.454-.788.946l1.037 5.637c.103.58.61 1.416 1.546 1.416s1.435-.794 1.555-1.462l1.015-5.588c.09-.495-.29-.95-.793-.95zm-9.278 0c-.442 0-.8.358-.8.8v4.766c0 1.203.864 2.301 2.06 2.422 1.376.14 2.539-.94 2.539-2.288v-4.9c0-.442-.358-.8-.8-.8s-.8.358-.8.8v4.9c0 .386-.314.7-.7.7s-.7-.314-.7-.7v-4.9c0-.442-.358-.8-.8-.8z"/></svg>