<svg id="Layer_1" viewBox="0 0 24 24" xmlns="http://www.w3.org/2000/svg" data-name="Layer 1"><path d="m9 12c3.309 0 6-2.691 6-6s-2.691-6-6-6-6 2.691-6 6 2.691 6 6 6zm0-9c1.654 0 3 1.346 3 3s-1.346 3-3 3-3-1.346-3-3 1.346-3 3-3zm.28 14.5-1.141 2.158c-.304.456-.974.456-1.278 0l-.983-1.756c-1.611.991-2.734 2.704-2.865 4.696-.051.828-.778 1.455-1.595 1.398-.826-.054-1.453-.769-1.398-1.595.294-4.483 3.898-8.087 8.381-8.381.847-.064 1.604.625 1.592 1.48h.006c.021.691-.715 2.025-.72 2zm6.72-7.5c0-1.105.895-2 2-2s2 .895 2 2-.895 2-2 2-2-.895-2-2zm5.826 8.826c-.243.243-.493.458-.745.66-.004.003-.009.007-.013.01-1.144.913-2.373 1.411-3.571 1.486-.855.124-1.662.113-2.452.078-.336-.014-.77-.029-.981-.002l-2.503 2.503c-.586.586-1.535.586-2.121 0-.586-.585-.586-1.536 0-2.121l2.507-2.507c.031-.214.018-.666.007-1.017-.019-.607-.043-1.365.054-2.199.032-1.532.756-3.131 2.167-4.542.006-.006.011-.01.017-.016.31 1.017 1.005 1.854 1.926 2.35-.69.775-.994 1.597-1.108 2.414.028.465.217.942.672 1.397.492.492 1.01.674 1.51.676.844-.138 1.698-.477 2.509-1.287.001-.001.003-.003.005-.005.647-.647 1.943-2.234.897-3.689.814-.703 1.34-1.718 1.383-2.866.156.126.308.262.455.41 2.288 2.289 2.041 5.61-.614 8.267z"/></svg>