<svg id="Layer_1" viewBox="0 0 24 24" xmlns="http://www.w3.org/2000/svg" data-name="Layer 1"><path d="m13.5 18.745v1.626c.048 1.941-1.685 3.629-3.613 3.629-.31 0-.611-.038-.914-.117-5.742-1.492-9.567-7.186-8.897-13.243.608-5.513 5.051-9.956 10.564-10.564.448-.05.907-.076 1.36-.076.829 0 1.5.671 1.5 1.5s-.671 1.5-1.5 1.5c-.339 0-.682.019-1.029.057-4.13.456-7.458 3.784-7.914 7.912-.498 4.512 2.432 8.908 6.67 10.01.25.064.438-.041.526-.11.092-.071.246-.23.246-.498v-1.626c-2.021-.642-3.5-2.514-3.5-4.745v-1.092c-.581-.207-1-.756-1-1.408 0-.829.671-1.5 1.5-1.5h.5v-2.5c0-.829.671-1.5 1.5-1.5s1.5.671 1.5 1.5v2.5h1.5c.828 0 1.5.671 1.5 1.5s-.672 1.5-1.5 1.5h-2.5v1c0 1.103.897 2 2 2s2-.897 2-2v-.5c0-.829.672-1.5 1.5-1.5s1.5.671 1.5 1.5v.5c0 2.231-1.479 4.103-3.5 4.745zm9.094-6.218c-.809-.156-1.601.374-1.757 1.189-.475 2.461-1.978 4.63-4.124 5.952-.705.435-.925 1.359-.49 2.064.437.712 1.37.92 2.064.491 2.859-1.762 4.862-4.655 5.495-7.939.157-.813-.375-1.6-1.188-1.757zm-7.134-3.004c-1.942-1.957-1.942-5.143 0-7.101l1.692-1.668c1.018-1.004 2.676-1.004 3.693 0l1.681 1.656c1.955 1.97 1.955 5.156.012 7.114-.945.953-2.202 1.477-3.539 1.477s-2.596-.525-3.54-1.477zm2.13-2.114c.754.762 2.064.761 2.82 0 .786-.792.786-2.081 0-2.873l-1.41-1.39-1.422 1.402c-.774.781-.774 2.069.012 2.861z"/></svg>