<svg id="Layer_1" viewBox="0 0 24 24" xmlns="http://www.w3.org/2000/svg" data-name="Layer 1"><path d="m11 9.5v3c0 .397-.158.779-.439 1.061l-2 2c-.586.586-1.535.586-2.121 0s-.586-1.535 0-2.121l1.561-1.561v-2.379c0-.828.672-1.5 1.5-1.5s1.5.672 1.5 1.5zm1.749 8.631c-.982.568-2.106.869-3.249.869-3.584 0-6.5-2.916-6.5-6.5s2.916-6.5 6.5-6.5c.828 0 1.5-.672 1.5-1.5s-.672-1.5-1.5-1.5c-5.238 0-9.5 4.262-9.5 9.5s4.262 9.5 9.5 9.5c1.67 0 3.312-.439 4.751-1.271.717-.415.962-1.333.548-2.05-.415-.717-1.333-.962-2.05-.548zm9.751-18.131c-.828 0-1.5.672-1.5 1.5v5c0 .814-.396 1.531-1 1.988v-6.988c0-.828-.672-1.5-1.5-1.5s-1.5.672-1.5 1.5v6.988c-.604-.457-1-1.174-1-1.988v-5c0-.828-.672-1.5-1.5-1.5s-1.5.672-1.5 1.5v5c0 2.512 1.695 4.631 4 5.287v10.713c0 .828.672 1.5 1.5 1.5s1.5-.672 1.5-1.5v-10.713c2.305-.655 4-2.775 4-5.287v-5c0-.828-.672-1.5-1.5-1.5z"/></svg>