<svg id="Layer_1" viewBox="0 0 24 24" xmlns="http://www.w3.org/2000/svg" data-name="Layer 1"><path d="m18.5 0h-13c-3.033 0-5.5 2.467-5.5 5.5v13c0 3.033 2.467 5.5 5.5 5.5h4c.829 0 1.5-.671 1.5-1.5 0-.652-.419-1.202-1-1.408v-4.184c.581-.207 1-.756 1-1.408s-.419-1.202-1-1.408v-4.092h2.5c.829 0 1.5-.671 1.5-1.5s-.671-1.5-1.5-1.5h-2.5v-4h4v2.5c0 .829.671 1.5 1.5 1.5s1.5-.671 1.5-1.5v-2.5h1.5c1.378 0 2.5 1.122 2.5 2.5v1c0 .829.671 1.5 1.5 1.5s1.5-.671 1.5-1.5v-1c0-3.033-2.467-5.5-5.5-5.5zm-15.5 18.5v-1.5h4v4h-1.5c-1.378 0-2.5-1.122-2.5-2.5zm4-4.5h-4v-4h4zm0-7h-4v-1.5c0-1.378 1.122-2.5 2.5-2.5h1.5zm16 8.779v-2.279c0-2.481-2.019-4.5-4.5-4.5s-4.5 2.019-4.5 4.5v2.279c-.61.549-1 1.336-1 2.221v3c0 1.657 1.343 3 3 3h5c1.657 0 3-1.343 3-3v-3c0-.885-.39-1.672-1-2.221zm-4.5-3.779c.827 0 1.5.673 1.5 1.5v1.5h-3v-1.5c0-.827.673-1.5 1.5-1.5zm0 9c-.828 0-1.5-.672-1.5-1.5s.672-1.5 1.5-1.5 1.5.672 1.5 1.5-.672 1.5-1.5 1.5z"/></svg>