<svg id="Layer_1" viewBox="0 0 24 24" xmlns="http://www.w3.org/2000/svg" data-name="Layer 1"><path d="m22.985 1.014c-.673-.673-1.582-1.038-2.519-1.013-.863.017-1.808.101-2.871.26-1.201.231-2.427.889-3.35 1.486-.303-.285-.67-.5-1.082-.625-.812-.248-1.676-.108-2.372.38-.519.364-1.092.934-1.648 1.627-.809-.289-1.707-.085-2.34.534-1.161 1.16-1.927 2.453-2.292 3.858-.203.03-.402.088-.595.173-.645.287-1.118.845-1.294 1.53-1.003 3.881-.56 8.481-.312 10.344l-1.871 1.871c-.586.586-.586 1.535 0 2.121s1.535.586 2.121 0l1.871-1.871c.981.13 2.715.312 4.705.312 1.8 0 3.806-.149 5.639-.623.686-.178 1.243-.65 1.529-1.296.084-.19.142-.388.172-.587 1.354-.35 2.598-1.08 3.782-2.228.675-.597.916-1.572.608-2.419.705-.574 1.285-1.173 1.658-1.725.472-.699.592-1.561.327-2.364-.127-.386-.332-.73-.608-1.019.603-.923 1.267-2.16 1.506-3.401.146-.993.23-1.937.249-2.805v-.002c.019-.952-.341-1.847-1.015-2.52zm-2.191 4.823c-.242 1.257-1.477 2.911-1.932 3.442-.331.387-.444.915-.3 1.403.161.573.658.959 1.228 1.076-.413.459-1.144 1.085-2.067 1.644-.48.292-.758.827-.719 1.388.025.369.186.709.44.961-.702.523-1.657.987-2.941.987-.566 0-1.085.319-1.34.825-.178.353-.206.755-.093 1.12-2.003.37-4.184.357-5.885.254l9.375-9.376c.586-.585.586-1.536 0-2.121-.586-.586-1.535-.586-2.121 0l-9.374 9.374c-.104-1.705-.116-3.881.252-5.882.366.114.766.086 1.118-.091.507-.254.828-.773.828-1.341 0-1.287.464-2.242.987-2.944.252.254.592.415.961.44.554.031 1.095-.238 1.387-.719.496-.818 1.114-1.606 1.609-2.066.103.562.486 1.046 1.039 1.216.491.156 1.028.049 1.423-.281.544-.458 2.231-1.697 3.431-1.929.875-.13 1.691-.203 2.43-.218.304.045.441.142.472.472-.016.743-.089 1.56-.206 2.365z"/></svg>