<svg id="Layer_1" viewBox="0 0 24 24" xmlns="http://www.w3.org/2000/svg" data-name="Layer 1"><path d="m24 21v1.154c0 1.02-.827 1.846-1.846 1.846h-20.308c-1.02 0-1.846-.827-1.846-1.846v-1.154c0-1.105.895-2 2-2v-7.5c0-3.032 2.467-5.5 5.5-5.5h4c.829 0 1.5.672 1.5 1.5s-.671 1.5-1.5 1.5h-4c-1.378 0-2.5 1.121-2.5 2.5v7.5h3.308l.923 1h5.538l.923-1h3.308v-7.5c0-.828.671-1.5 1.5-1.5s1.5.672 1.5 1.5v7.5c1.105 0 2 .895 2 2zm-2.379-16.5 1.939-1.939c.586-.586.586-1.535 0-2.121s-1.535-.586-2.121 0l-1.939 1.939-1.939-1.939c-.586-.586-1.535-.586-2.121 0s-.586 1.535 0 2.121l1.939 1.939-1.939 1.939c-.586.586-.586 1.535 0 2.121s1.535.586 2.121 0l1.939-1.939 1.939 1.939c.586.586 1.535.586 2.121 0s.586-1.535 0-2.121zm-12.621 6.5c-1.105 0-2 .895-2 2v2c0 1.105.895 2 2 2h3c.868 0 1.599-.556 1.876-1.329l1.499 1.124c.67.502 1.625.025 1.625-.812v-3.939c0-.836-.956-1.314-1.625-.812l-1.492 1.119c-.27-.784-1.007-1.351-1.883-1.351z"/></svg>