<svg id="Layer_1" viewBox="0 0 24 24" xmlns="http://www.w3.org/2000/svg" data-name="Layer 1"><path d="m10.5 12h-3c-.828 0-1.5-.671-1.5-1.5s.672-1.5 1.5-1.5h1.5v-2.5c0-.829.672-1.5 1.5-1.5s1.5.671 1.5 1.5v4c0 .829-.672 1.5-1.5 1.5zm11.808 12h-9.616c-1.257 0-2.041-1.364-1.407-2.45l4.808-8.242c.629-1.078 2.186-1.078 2.814 0l4.808 8.242c.633 1.086-.15 2.45-1.407 2.45zm-3.808-2c0-.552-.448-1-1-1s-1 .448-1 1 .448 1 1 1 1-.448 1-1zm0-5.002c0-.552-.448-1-1-1s-1 .448-1 1v2.002c0 .552.448 1 1 1s1-.448 1-1zm-9.668.816c-3.434-.779-5.832-3.787-5.832-7.314 0-4.136 3.364-7.5 7.5-7.5 3.829 0 7.034 2.865 7.454 6.665.091.824.847 1.414 1.656 1.326.823-.091 1.417-.833 1.326-1.656-.588-5.322-5.076-9.335-10.436-9.335-5.79 0-10.5 4.71-10.5 10.5 0 4.938 3.358 9.148 8.168 10.24.787.184 1.615-.317 1.795-1.131.184-.808-.323-1.611-1.131-1.795z"/></svg>