<svg id="Layer_1" viewBox="0 0 24 24" xmlns="http://www.w3.org/2000/svg" data-name="Layer 1"><path d="m21 23c0 .552-.448 1-1 1s-1-.448-1-1 .448-1 1-1 1 .448 1 1zm2-4c-.552 0-1 .448-1 1s.448 1 1 1 1-.448 1-1-.448-1-1-1zm-3 0c-.552 0-1 .448-1 1s.448 1 1 1 1-.448 1-1-.448-1-1-1zm-2-4v1c0 1.103-.897 2-2 2h-1c-1.103 0-2-.897-2-2v-1c0-1.103.897-2 2-2h1c1.103 0 2 .897 2 2zm-1.999 1v-1h-1.001v1zm1.999 5v1c0 1.103-.897 2-2 2h-1c-1.103 0-2-.897-2-2v-1c0-1.103.897-2 2-2h1c1.103 0 2 .897 2 2zm-1.999 1v-1h-1.001v1zm7.999-7v1c0 1.103-.897 2-2 2h-1c-1.103 0-2-.897-2-2v-1c0-1.103.897-2 2-2h1c1.103 0 2 .897 2 2zm-1.999 1v-1h-1.001v1zm-11.5-3c-.828 0-1.5.672-1.5 1.5s.672 1.5 1.5 1.5 1.5-.672 1.5-1.5-.672-1.5-1.5-1.5zm3.125-2.403c-1.812-1.454-4.44-1.454-6.252 0-.431.346-.5.975-.154 1.406.345.431.976.5 1.406.154 1.086-.871 2.662-.871 3.748 0 .427.344 1.059.279 1.406-.154.346-.431.277-1.06-.154-1.406zm1.207-.943c.41.368 1.043.335 1.412-.077s.334-1.043-.077-1.412c-3.232-2.896-8.104-2.895-11.335 0-.411.369-.446 1-.077 1.412.368.411 1 .446 1.412.077 2.471-2.213 6.197-2.212 8.666 0zm4.777 1.336c.824-.091 1.417-.832 1.326-1.655-.588-5.322-5.075-9.335-10.436-9.335-5.79 0-10.5 4.71-10.5 10.5 0 5.36 4.013 9.848 9.335 10.437.809.093 1.568-.499 1.656-1.326.091-.823-.502-1.564-1.326-1.656-3.8-.42-6.665-3.625-6.665-7.454 0-4.136 3.364-7.5 7.5-7.5 3.83 0 7.034 2.865 7.454 6.665.091.824.837 1.422 1.655 1.326z"/></svg>