<svg id="Layer_1" viewBox="0 0 24 24" xmlns="http://www.w3.org/2000/svg" data-name="Layer 1"><path d="m22 19v-7.5c0-3.004-2.421-5.449-5.414-5.496-.428-.988-1.173-1.833-2.175-2.385-.57-.315-.911-.82-.911-1.351v-.768c0-.829-.671-1.5-1.5-1.5s-1.5.671-1.5 1.5v.768c0 1.495.771 2.857 2.074 3.732h-2.574l-1.789-1.789c-.447-.447-1.211-.13-1.211.502v1.313c-2.799.254-5 2.611-5 5.475v7.5c-1.105 0-2 .895-2 2v1.154c0 1.02.827 1.846 1.846 1.846h20.308c1.02 0 1.846-.827 1.846-1.846v-1.154c0-1.105-.895-2-2-2zm-7.231 1h-5.538l-.923-1h-3.308v-7.5c0-1.378 1.122-2.5 2.5-2.5h6.243c-.266.467-.724.823-1.253.943-.288.077-.696.054-.99.057-.829 0-1.5.671-1.5 1.5s.671 1.5 1.5 1.5c3 0 4.944-1.468 5.386-3.961 1.195.187 2.114 1.215 2.114 2.461v7.5h-3.308z"/></svg>