<svg id="Layer_1" viewBox="0 0 24 24" xmlns="http://www.w3.org/2000/svg" data-name="Layer 1"><path d="m23.994 10.005c0 2.37-1.049 4.602-2.877 6.124-.709.591-1.117 1.524-1.117 2.562 0 1.825-1.484 3.31-3.309 3.31h-1.191c-.829 0-1.5-.672-1.5-1.5v-10.001c0-.829.671-1.5 1.5-1.5h2.074c.627 0 1.103.633.863 1.212-.281.679-.795 1.234-1.437 1.58v4.208h.563c.375-.842.927-1.588 1.634-2.176 1.142-.951 1.797-2.343 1.797-3.819 0-1.406-.568-2.708-1.599-3.667-1.03-.958-2.378-1.429-3.786-1.324-.827.051-1.545-.561-1.605-1.387s.561-1.545 1.387-1.605c2.249-.165 4.4.588 6.047 2.119 1.625 1.51 2.556 3.647 2.556 5.864zm-11.994-6.005v14.75c0 2.895-2.355 5.25-5.25 5.25-2.629 0-4.789-1.9-5.178-4.435-.959-.933-1.516-2.22-1.516-3.565 0-.85.215-1.672.618-2.401-.438-.784-.667-1.652-.667-2.554 0-1.119.369-2.634 2-3.857v-.188c0-1.425.76-2.658 2.009-3.364.184-2.036 1.9-3.636 3.983-3.636 2.206 0 4 1.794 4 4zm-3 0c0-.551-.449-1-1-1s-1 .449-1 1v.639c0 .677-.454 1.271-1.107 1.448-.404.109-.885.357-.885.913v1c0 .542-.292 1.042-.765 1.308-1.095.615-1.235 1.252-1.235 1.738.002.601.239 1.065.469 1.368.303.271.512.681.527 1.087.015.407-.106.828-.388 1.122-.361.376-.56.865-.56 1.378 0 .64.305 1.226.837 1.607.426.306.656.807.623 1.317.089 1.172 1.05 2.075 2.234 2.075 1.241 0 2.25-1.01 2.25-2.25z"/></svg>