<svg id="Layer_1" viewBox="0 0 24 24" xmlns="http://www.w3.org/2000/svg" data-name="Layer 1"><path d="m21.887 17.367c-.427.581-.867 1.063-.887 2.009v1.124c0 1.93-1.57 3.5-3.5 3.5h-7c-1.784 0-3.26-1.341-3.474-3.068-2.376-.378-4.283-2.291-4.593-4.743l-.15-1.194c-1.484-.087-2.283-1.303-2.283-2.45 0-1.661 3.135-6.896 4.152-8.153 1.943-2.596 4.971-4.207 8.271-4.377.81-.056 1.533.593 1.575 1.421s-.594 1.533-1.421 1.575c-2.408.124-4.616 1.299-6.058 3.224-.995 1.23-2.688 4.294-3.303 5.765h.39c.756 0 1.394.562 1.488 1.312l.315 2.501c.157 1.247 1.224 2.187 2.48 2.187h.609c.829 0 1.5.671 1.5 1.5v1c0 .276.224.5.5.5h7c.276 0 .5-.224.5-.5v-1.124c-.017-1.34.55-2.659 1.446-3.753.482-.673 1.418-.83 2.093-.349.674.481.83 1.418.349 2.093zm-10.703-11.743c-.334.258-.607.576-.806.932-.361.647.128 1.443.869 1.443.317.028.711-.158.861-.442.256-.394.531-.639 1.179-.522.334.087.618.39.689.736.109.524-.178.937-.511 1.112-.121.064-.854.477-1.048.616-.79.567-.38 1.817.593 1.817.476.008.949-.464 1.388-.664 1.197-.631 1.814-1.953 1.537-3.289-.228-1.093-1.067-1.981-2.14-2.263-.915-.241-1.868-.05-2.61.522zm.816 7.375c0 .552.448 1 1 1s1-.448 1-1-.448-1-1-1-1 .448-1 1zm4.908-8.867c.559.559 1.302.867 2.092.867s1.533-.308 2.092-.867l2.354-2.354c.391-.391.391-1.023 0-1.414s-1.023-.391-1.414 0l-2.354 2.354c-.361.362-.993.362-1.355 0l-1.149-1.149c-.391-.391-1.023-.391-1.414 0s-.391 1.023 0 1.414zm5.506 5.867 1.293-1.293c.391-.391.391-1.023 0-1.414s-1.023-.391-1.414 0l-1.293 1.293-1.293-1.293c-.391-.391-1.023-.391-1.414 0s-.391 1.023 0 1.414l1.293 1.293-1.293 1.293c-.391.391-.391 1.023 0 1.414s1.023.391 1.414 0l1.293-1.293 1.293 1.293c.391.391 1.023.391 1.414 0s.391-1.023 0-1.414z"/></svg>