<svg id="Layer_1" viewBox="0 0 24 24" xmlns="http://www.w3.org/2000/svg" data-name="Layer 1"><path d="m5.5 9c.422 0 .802-.175 1.074-.456.96 2.038 3.028 3.456 5.426 3.456s4.466-1.417 5.426-3.456c.273.28.652.456 1.074.456.828 0 1.5-.672 1.5-1.5v-3c0-.828-.672-1.5-1.5-1.5-.422 0-.802.175-1.074.456-.96-2.038-3.028-3.456-5.426-3.456s-4.466 1.417-5.426 3.456c-.273-.28-.652-.456-1.074-.456-.828 0-1.5.672-1.5 1.5v3c0 .828.672 1.5 1.5 1.5zm6.5 0c-1.654 0-3-1.346-3-3 0-.352.072-.686.184-1h.816c1.105 0 2-.895 2-2 0 1.105.895 2 2 2h.816c.112.314.184.648.184 1 0 1.654-1.346 3-3 3zm8.972 13.401c.055.826-.571 1.541-1.398 1.596-.817.056-1.543-.57-1.596-1.398-.207-3.14-2.833-5.599-5.978-5.599s-5.771 2.459-5.978 5.599c-.055.827-.767 1.446-1.596 1.398-.827-.055-1.452-.77-1.397-1.596.311-4.711 4.252-8.401 8.971-8.401s8.66 3.69 8.972 8.401z"/></svg>