<svg id="Layer_1" viewBox="0 0 24 24" xmlns="http://www.w3.org/2000/svg" data-name="Layer 1"><path d="m23.561 9.439c-.586-.586-1.535-.586-2.121 0l-.255.255-.316-.316c-2.805-2.804-7.164-3.12-10.326-.958l-7.982-7.981c-.586-.585-1.536-.585-2.122 0-.585.586-.585 1.536 0 2.122l7.982 7.982c-2.163 3.161-1.847 7.521.959 10.326l.315.315-.256.256c-.586.585-.586 1.536 0 2.121.293.293.677.439 1.061.439s.768-.146 1.061-.439l12-12c.586-.585.586-1.536 0-2.121zm-12.06 9.308c-1.998-1.998-1.998-5.249 0-7.247 1.998-1.997 5.248-1.998 7.246 0l.315.315-7.246 7.246-.315-.315z"/></svg>