<svg id="Layer_1" viewBox="0 0 24 24" xmlns="http://www.w3.org/2000/svg" data-name="Layer 1"><path d="m24 13.5v8c0 1.381-1.119 2.5-2.5 2.5s-2.5-1.119-2.5-2.5c0-1.209.859-2.218 2-2.45v-2.05h-18v2.05c1.141.232 2 1.24 2 2.45 0 1.381-1.119 2.5-2.5 2.5s-2.5-1.119-2.5-2.5v-18c0-.829.672-1.5 1.5-1.5s1.5.671 1.5 1.5v5.107c.751-.385 1.599-.607 2.5-.607.828 0 1.5.671 1.5 1.5s-.672 1.5-1.5 1.5c-1.379 0-2.5 1.122-2.5 2.5v.5h18v-.5c0-1.378-1.121-2.5-2.5-2.5-.828 0-1.5-.671-1.5-1.5s.672-1.5 1.5-1.5c3.032 0 5.5 2.467 5.5 5.5zm-17-8.5c0-2.761 2.239-5 5-5s5 2.239 5 5-2.239 5-5 5-5-2.239-5-5zm2 0c0 .552.448 1 1 1h1v1c0 .552.448 1 1 1s1-.448 1-1v-1h1c.552 0 1-.448 1-1s-.448-1-1-1h-1v-1c0-.552-.448-1-1-1s-1 .448-1 1v1h-1c-.552 0-1 .448-1 1z"/></svg>