<svg id="Layer_1" viewBox="0 0 24 24" xmlns="http://www.w3.org/2000/svg" data-name="Layer 1"><path d="m16.5 9h-9c0-1.657 1.343-3 3-3h3c1.657 0 3 1.343 3 3zm-9 4c0 .772.442 1.434 1.082 1.767l-.435.71c-.289.472-.141 1.087.33 1.375.464.286 1.085.145 1.375-.33l.932-1.522h2.431l.932 1.522c.29.475.911.616 1.375.33.471-.288.619-.903.33-1.375l-.435-.71c.64-.333 1.082-.995 1.082-1.767v-2h-8.999zm12.28 5.854-3.808 3.536c-1.045 1.027-2.467 1.61-3.973 1.61s-2.928-.583-4.004-1.641l-3.734-3.465c-4.326-4.346-4.326-11.351-.042-15.657 2.078-2.088 4.842-3.237 7.781-3.237s5.703 1.15 7.78 3.238c4.284 4.305 4.284 11.31 0 15.615zm-2.127-13.499c-1.51-1.519-3.518-2.354-5.653-2.354s-4.144.836-5.654 2.354c-3.124 3.138-3.124 8.244 0 11.382l3.723 3.454c1.084 1.066 2.811 1.036 3.832.03l3.796-3.525c3.081-3.097 3.081-8.203-.043-11.341z"/></svg>