<svg id="Layer_1" viewBox="0 0 24 24" xmlns="http://www.w3.org/2000/svg" data-name="Layer 1"><path d="m10.005 15h1.995v4h-10.154c-1.02 0-1.846-.827-1.846-1.846v-1.154c0-1.105.895-2 2-2v-8.5c0-3.032 2.467-5.5 5.5-5.5h9c3.033 0 5.5 2.468 5.5 5.5 0 .828-.671 1.5-1.5 1.5s-1.5-.672-1.5-1.5c0-1.379-1.122-2.5-2.5-2.5h-9c-1.378 0-2.5 1.121-2.5 2.5v8.5h3.072c.322 0 .63.135.848.371l.238.257c.218.237.526.371.848.371zm13.995-2.5v8c0 1.933-1.567 3.5-3.5 3.5h-3c-1.933 0-3.5-1.567-3.5-3.5v-8c0-1.933 1.567-3.5 3.5-3.5h3c1.933 0 3.5 1.567 3.5 3.5zm-3 4.5c0-.552-.448-1-1-1h-2c-.552 0-1 .448-1 1s.448 1 1 1h2c.552 0 1-.448 1-1zm0-4c0-.552-.448-1-1-1h-2c-.552 0-1 .448-1 1s.448 1 1 1h2c.552 0 1-.448 1-1zm-12.5-8c-.829 0-1.5.672-1.5 1.5s.671 1.5 1.5 1.5h7c.829 0 1.5-.672 1.5-1.5s-.671-1.5-1.5-1.5zm2 4h-2c-.829 0-1.5.672-1.5 1.5s.671 1.5 1.5 1.5h2c.829 0 1.5-.672 1.5-1.5s-.671-1.5-1.5-1.5z"/></svg>