<svg id="Layer_1" viewBox="0 0 24 24" xmlns="http://www.w3.org/2000/svg" data-name="Layer 1"><path d="m10.531 18.951c1.161.75 2.122 1.03 2.909 1.03 1.4 0 2.254-.886 2.711-1.593.874-1.354 1.414-5.317 1.659-7.56l5.92-8.469c.475-.679.309-1.614-.37-2.089-.68-.474-1.613-.309-2.089.37l-5.832 8.343c-2.035 1.033-5.89 3.122-6.809 4.544-.678 1.049-.766 2.16-.253 3.214.384.791 1.109 1.534 2.154 2.209zm1.994-1.199 2.931-4.42c-.282 1.801-.632 3.423-.986 3.97-.239.369-.664.984-1.946.45zm-2.216-3.138c.362-.56 1.867-1.546 3.566-2.515l-3.036 4.578c-.305-.275-.537-.548-.664-.81-.144-.296-.24-.676.134-1.254zm13.517.853c-.4 1.369-1.032 3.1-1.878 5.144-.852 2.06-2.845 3.39-5.079 3.39h-9.738c-2.233 0-4.226-1.33-5.079-3.389-.846-2.045-1.477-3.775-1.877-5.144-.383-1.311-.134-2.685.682-3.772.808-1.077 2.044-1.695 3.391-1.695h1.253c.828 0 1.5.672 1.5 1.5s-.672 1.5-1.5 1.5h-1.253c-.54 0-.853.311-.992.495-.243.325-.316.737-.201 1.132.363 1.247.976 2.92 1.768 4.837.387.933 1.292 1.536 2.307 1.536h9.739c1.016 0 1.921-.604 2.307-1.537.793-1.916 1.405-3.589 1.769-4.837.177-.607-.114-1.143-.48-1.402-.676-.479-.836-1.415-.356-2.091.478-.678 1.417-.835 2.091-.356 1.483 1.052 2.137 2.937 1.626 4.69z"/></svg>