<svg id="Layer_1" viewBox="0 0 24 24" xmlns="http://www.w3.org/2000/svg" data-name="Layer 1"><path d="m15 5.5c0-.828.672-1.5 1.5-1.5s1.5.672 1.5 1.5-.672 1.5-1.5 1.5-1.5-.672-1.5-1.5zm1.5 2.5c-.998 0-1.856.521-2.276 1.281-.182.329.097.719.502.719h3.548c.405 0 .685-.39.502-.719-.42-.759-1.278-1.281-2.276-1.281zm7.371 6.934-1.545 5.146c-.703 2.345-2.819 3.92-5.268 3.92h-11.558c-3.033 0-5.5-2.468-5.5-5.5v-13c0-.828.671-1.5 1.5-1.5s1.5.672 1.5 1.5v13c0 .221.029.435.083.639l1.783-5.119c.037-.106.09-.203.134-.306v-10.214c0-.828.671-1.5 1.5-1.5s1.5.672 1.5 1.5v7.654c.36-.093.732-.154 1.115-.154h.885v-6.5c0-2.481 2.019-4.5 4.5-4.5h4c2.481 0 4.5 2.019 4.5 4.5v7.312c.14.129.278.263.395.42.419.564.605.769.605 1.91 0 .264-.051.53-.129.792zm-10.871-3.934h7v-6.5c0-.827-.673-1.5-1.5-1.5h-4c-.827 0-1.5.673-1.5 1.5zm7.997 3.072-11.882-.072c-.638 0-1.207.404-1.417 1.006l-2.088 5.994h11.447c1.113 0 2.075-.716 2.394-1.781l1.545-5.146z"/></svg>