<svg id="Layer_1" viewBox="0 0 24 24" xmlns="http://www.w3.org/2000/svg" data-name="Layer 1"><path d="m15 20h-6c-2.209 0-4-1.791-4-4v-1h3.022c.913 1.208 2.347 2 3.978 2s3.065-.792 3.978-2h3.022v1c0 2.209-1.791 4-4 4zm-13.5-12c.829 0 1.5-.672 1.5-1.5v-1c0-1.379 1.122-2.5 2.5-2.5h1c.829 0 1.5-.672 1.5-1.5s-.671-1.5-1.5-1.5h-1c-3.033 0-5.5 2.468-5.5 5.5v1c0 .828.671 1.5 1.5 1.5zm17-8h-1c-.829 0-1.5.672-1.5 1.5s.671 1.5 1.5 1.5h1c1.378 0 2.5 1.121 2.5 2.5v1c0 .828.671 1.5 1.5 1.5s1.5-.672 1.5-1.5v-1c0-3.032-2.467-5.5-5.5-5.5zm4 16c-.829 0-1.5.672-1.5 1.5v1c0 1.379-1.122 2.5-2.5 2.5h-1c-.829 0-1.5.672-1.5 1.5s.671 1.5 1.5 1.5h1c3.033 0 5.5-2.468 5.5-5.5v-1c0-.828-.671-1.5-1.5-1.5zm-16 5h-1c-1.378 0-2.5-1.121-2.5-2.5v-1c0-.828-.671-1.5-1.5-1.5s-1.5.672-1.5 1.5v1c0 3.032 2.467 5.5 5.5 5.5h1c.829 0 1.5-.672 1.5-1.5s-.671-1.5-1.5-1.5zm17.5-9.5c0 .828-.671 1.5-1.5 1.5h-8.778c-.347.595-.984 1-1.722 1s-1.376-.405-1.722-1h-8.778c-.829 0-1.5-.672-1.5-1.5s.671-1.5 1.5-1.5h3.5v-2c0-2.209 1.791-4 4-4h6c2.209 0 4 1.791 4 4v2h3.5c.829 0 1.5.672 1.5 1.5zm-16.569-1.5h9.139c-.773-1.763-2.521-3-4.569-3s-3.797 1.237-4.569 3z"/></svg>