<svg id="Layer_1" viewBox="0 0 24 24" xmlns="http://www.w3.org/2000/svg" data-name="Layer 1"><path d="m16.521 16c-.844.002-1.527-.701-1.5-1.544.047-1.598-.401-2.982-1.323-4.12-.971-.934-3.277-1.547-4.375-1.919-.384-.13-.429-.661-.075-.858.733-.409 2.261-.871 3.208-.899-1.955-2.66-1.488-5.193-.98-6.366.172-.397.834-.414.885.016.14 1.191.959 3.01 2.14 4.191.301-1.078 1.014-2.62 1.735-3.361.265-.273.731-.121.765.258.069.765.216 2.473.5 3.603.211-.423.512-1.122.789-1.366.378-.333.711 0 .711.5v2.866l.531.516c.536.649.615 1.52.288 2.238l1.851 2.308c.519.646.415 1.59-.231 2.108-.642.516-1.588.418-2.108-.231l-1.577-1.966c.184.766.294 1.616.266 2.572-.024.813-.691 1.456-1.499 1.456zm7.436 2.701c-.417-1.829-2.289-3.007-4.182-2.631s-3.151 2.178-2.673 3.992c.633 2.4 2.74 2.652 4.308 3.799.393.287.987.099 1.076-.38.26-1.406-1.89-2.714-1.367-3.76.17-.34.589-.481.936-.315.466.223.815.516 1.065.786.362.391.741.143.802-.188.091-.497.104-1.003.035-1.303zm-11.904-6.405c-.113-.821-.869-1.397-1.69-1.283-.821.113-1.395.869-1.283 1.69.192 1.404.687 2.472 1.211 3.603.73 1.576 1.485 3.207 1.668 6.283.047.829.769 1.459 1.587 1.408.827-.049 1.458-.76 1.408-1.587-.217-3.644-1.173-5.707-1.941-7.365-.463-1-.83-1.791-.96-2.749zm-5.027-9.719c-.062.021-.653.229-1.364.803l-2.904-1.406c-.45-.165-.868.309-.649.735l1.742 3.032c-.124.265-.236.555-.339.863l-2.916-.604c-.515-.015-.791.601-.437.976l2.841 3.007v.017.547l-2.66.482c-.374.102-.462.594-.147.82l2.756 1.844c-.017.427-.04.848-.072 1.261l-2.538.46c-.374.102-.462.594-.147.819l2.277 1.523c-.354 1.505-.941 2.766-1.93 3.591-.636.53-.722 1.476-.192 2.113.533.639 1.48.72 2.113.192 3.54-2.95 3.54-8.391 3.54-13.652 0-3.698 1.874-4.534 2.006-4.588.766-.274 1.176-1.111.917-1.886-.262-.786-1.111-1.21-1.897-.949z"/></svg>