<svg id="Layer_1" viewBox="0 0 24 24" xmlns="http://www.w3.org/2000/svg" data-name="Layer 1"><path d="m5.095 14.104c-.235-.5-.02-1.095.48-1.331.946-.444 1.425-1.377 1.425-2.773 0-.552.448-1 1-1s1 .448 1 1c0 2.175-.915 3.803-2.575 4.583-.488.232-1.095.025-1.331-.48zm.905-4.104c0-1.103.897-2 2-2 .229 0 .453.039.666.114.522.185 1.092-.088 1.277-.609.184-.521-.088-1.092-.609-1.277-.429-.151-.877-.229-1.334-.229-2.206 0-4 1.794-4 4 0 .552.448 1 1 1s1-.448 1-1zm2.885 6.461c.248 0 .497-.092.69-.276.542-.516.997-1.078 1.353-1.669.285-.473.132-1.088-.34-1.373-.473-.286-1.087-.133-1.373.34-.264.439-.607.861-1.02 1.254-.661.586-.176 1.755.69 1.724zm3.087-5.392c.031-.613.063-1.157-.027-1.736-.092-.544-.608-.913-1.152-.82-.544.092-.912.607-.82 1.152.056.412.026.825.005 1.264-.039.551.376 1.029.928 1.067.544.04 1.03-.375 1.067-.928zm4.009 8.117c.032 2.651-2.325 4.819-4.981 4.814h-6c-2.788.009-4.945-2.273-5-5v-13.5c0-3.033 2.467-5.5 5.5-5.5h5c.829 0 1.5.671 1.5 1.5s-.671 1.5-1.5 1.5h-5c-1.378 0-2.5 1.122-2.5 2.5v12.5h10v-3.5c0-.829.671-1.5 1.5-1.5s1.5.671 1.5 1.5c-.019.221.036 4.467-.019 4.686zm-5.981 1.814c0-.552-.448-1-1-1h-2c-.552 0-1 .448-1 1s.448 1 1 1h2c.552 0 1-.448 1-1zm14-18v2.999c0 1.657-1.343 3-3 3h-2.872l-2.454 1.69c-.186.119-.387.173-.583.173-.566 0-1.089-.45-1.089-1.088l-.002-6.772c0-1.65 1.35-3 3-3.001h3.999c1.657-.002 3.001 1.341 3.001 2.999zm-1.708-.193c-.383-.399-1.017-.41-1.414-.029l-2.059 1.97c-.143.141-.379.144-.522.002l-1.096-1.074c-.396-.388-1.028-.381-1.414.014-.387.395-.381 1.027.014 1.414l1.097 1.075c.46.449 1.062.674 1.663.674s1.201-.225 1.653-.671l2.049-1.961c.398-.383.411-1.016.029-1.414z"/></svg>