<svg id="Layer_1" viewBox="0 0 24 24" xmlns="http://www.w3.org/2000/svg" data-name="Layer 1"><path d="m9 22.5c0 .828-.672 1.5-1.5 1.5h-2c-3.032 0-5.5-2.468-5.5-5.5v-13c0-3.032 2.468-5.5 5.5-5.5h7c3.032 0 5.5 2.468 5.5 5.5v1c0 .828-.672 1.5-1.5 1.5s-1.5-.672-1.5-1.5v-1c0-1.379-1.121-2.5-2.5-2.5h-7c-1.379 0-2.5 1.121-2.5 2.5v13c0 1.379 1.121 2.5 2.5 2.5h2c.828 0 1.5.672 1.5 1.5zm-2.5-17.5c-.828 0-1.5.672-1.5 1.5s.672 1.5 1.5 1.5 1.5-.672 1.5-1.5-.672-1.5-1.5-1.5zm3.5 1.5c0 .828.672 1.5 1.5 1.5s1.5-.672 1.5-1.5-.672-1.5-1.5-1.5-1.5.672-1.5 1.5zm-3.5 3.5c-.828 0-1.5.672-1.5 1.5s.672 1.5 1.5 1.5 1.5-.672 1.5-1.5-.672-1.5-1.5-1.5zm0 5c-.828 0-1.5.672-1.5 1.5s.672 1.5 1.5 1.5 1.5-.672 1.5-1.5-.672-1.5-1.5-1.5zm15.5 6.816c0 1.364-.822 2.19-2 2.184-1.103 0-2-.897-2-2h-2c0 1.103-.897 2-2 2-1.178.005-2-.795-2-2.184-1.161-.414-2-1.514-2-2.816 0-.903.155-1.792.462-2.642l1.22-3.385c.641-1.778 2.343-2.974 4.233-2.974h2.17c1.891 0 3.593 1.195 4.233 2.974l1.22 3.385c.307.85.462 1.738.462 2.642 0 1.302-.839 2.402-2 2.816zm-7.496-7.825-.724 2.009h6.44l-.724-2.009c-.214-.593-.78-.991-1.411-.991h-2.17c-.631 0-1.197.398-1.411.991z"/></svg>