<svg id="Layer_1" viewBox="0 0 24 24" xmlns="http://www.w3.org/2000/svg" data-name="Layer 1"><path d="m15.5 14c.828 0 1.5.672 1.5 1.5s-.672 1.5-1.5 1.5-1.5-.672-1.5-1.5.672-1.5 1.5-1.5zm-10.5-7.5c0 .828.672 1.5 1.5 1.5s1.5-.672 1.5-1.5-.672-1.5-1.5-1.5-1.5.672-1.5 1.5zm13 6c0 .828.672 1.5 1.5 1.5s1.5-.672 1.5-1.5-.672-1.5-1.5-1.5-1.5.672-1.5 1.5zm-14.5 5.5c-.828 0-1.5.672-1.5 1.5s.672 1.5 1.5 1.5 1.5-.672 1.5-1.5-.672-1.5-1.5-1.5zm4 3c-.828 0-1.5.672-1.5 1.5s.672 1.5 1.5 1.5 1.5-.672 1.5-1.5-.672-1.5-1.5-1.5zm-5.992-15c.353 0 .707-.124.992-.376 1.502-1.328 3.081-2.624 4.5-2.624 1.673 0 3.438 1.158 5.097 2.409.656.495 1.599.371 2.101-.294.499-.661.367-1.602-.294-2.101-2.076-1.566-4.348-3.014-6.904-3.014-2.467 0-4.554 1.667-6.486 3.375-.621.548-.68 1.497-.131 2.117.297.335.71.507 1.125.507zm20.992 15h-4c-2.262 0-4.673-1.905-7.004-3.748-2.646-2.091-5.383-4.252-8.496-4.252-.616 0-1.253.087-1.89.259-.8.216-1.273 1.039-1.058 1.839.216.799 1.035 1.271 1.839 1.058.383-.104.756-.156 1.109-.156 2.071 0 4.289 1.752 6.636 3.606 2.734 2.16 5.561 4.394 8.864 4.394h4c.828 0 1.5-.671 1.5-1.5s-.672-1.5-1.5-1.5zm-12.865-9.941c-.677.478-.838 1.414-.36 2.091.481.682 1.422.834 2.091.36.851-.601 1.689-1.263 2.5-1.904 2.347-1.854 4.563-3.606 6.635-3.606.492 0 .995.085 1.538.261.787.254 1.634-.177 1.889-.965.256-.788-.177-1.634-.965-1.89-.833-.27-1.662-.407-2.462-.407-3.113 0-5.85 2.162-8.495 4.252-.779.616-1.585 1.252-2.37 1.807z"/></svg>