<svg id="Layer_1" viewBox="0 0 24 24" xmlns="http://www.w3.org/2000/svg" data-name="Layer 1"><path d="m12.8 11c.442 0 .8.358.8.8v6.4c0 .442-.358.8-.8.8-.442 0-.8-.358-.8-.8v-6.4c0-.442.358-.8.8-.8zm10.4 3.4h-1.601v-1.801h1.601c.442 0 .8-.358.8-.8s-.358-.8-.8-.8h-2.4c-.442 0-.8.358-.8.8v6.4c0 .442.358.8.8.8s.8-.358.8-.8v-2.2h1.601c.442 0 .8-.358.8-.8s-.358-.8-.8-.8zm-5-1.801c.442 0 .8-.358.8-.8s-.358-.8-.8-.8h-2.4c-.442 0-.8.358-.8.8v6.4c0 .442.358.8.8.8s.8-.358.8-.8v-2.2h1.601c.442 0 .8-.358.8-.8s-.358-.8-.8-.8h-1.601v-1.801h1.601zm-9.75 6.4c.442 0 .8-.358.8-.8v-5.6h.951c.442 0 .8-.358.8-.8s-.358-.8-.8-.8h-3.401c-.442 0-.8.358-.8.8s.358.8.8.8h.851v5.6c0 .442.358.8.8.8zm9.939-14.731-2.657-2.656c-1.039-1.039-2.42-1.611-3.889-1.611h-6.343c-3.033-.001-5.5 2.467-5.5 5.499v13c0 3.032 2.467 5.5 5.5 5.5h11c.829 0 1.5-.672 1.5-1.5s-.671-1.5-1.5-1.5h-11c-1.378 0-2.5-1.121-2.5-2.5v-13c0-1.379 1.122-2.5 2.5-2.5h5.5v4c0 1.105.895 2 2 2h5.5v-.009c.896-.006 1.579-.862 1.425-1.738-.189-1.137-.721-2.169-1.536-2.985z"/></svg>