<svg id="Layer_1" viewBox="0 0 24 24" xmlns="http://www.w3.org/2000/svg" data-name="Layer 1"><path d="m19.984 4.147c0 1.46-.571 2.841-1.61 3.88l-3.77 3.769c-1.332 1.333-3.468 1.585-4.998.505-.855-.608-1.416-1.511-1.576-2.539-.083-.535-.049-1.068.085-1.574-.859.575-1.583 1.333-2.116 2.221v-5.752c0-1.469.572-2.85 1.611-3.889l.329-.329c.586-.586 1.535-.586 2.121 0 .586.585.586 1.536 0 2.121l-.328.329c-.466.465-.732 1.109-.732 1.768v1.945l3.191-3.166c.589-.583 1.538-.58 2.121.008.584.588.58 1.538-.008 2.122l-3.2 3.175c-.206.39-.173.79.24 1.115.313.224.814.143 1.138-.18l3.771-3.77c.472-.472.731-1.1.731-1.768l.016-2.647c.005-.829.652-1.484 1.509-1.491.828.005 1.496.681 1.491 1.509zm-3.484 16.853h-9c-.829 0-1.5.672-1.5 1.5s.671 1.5 1.5 1.5h9c.828 0 1.5-.672 1.5-1.5s-.672-1.5-1.5-1.5zm-4.5-2c2.761 0 5-2.239 5-5 0-.531-.105-1.033-.258-1.513l-.723.723c-1.119 1.121-2.672 1.765-4.257 1.765-1.207 0-2.353-.36-3.314-1.044-.492-.35-.896-.781-1.251-1.245-.115.422-.197.857-.197 1.315 0 2.761 2.239 5 5 5zm9.251-3.264c-.716-.415-1.634-.17-2.05.548-.414.717-.169 1.635.548 2.05.771.446 1.251 1.276 1.251 2.166v2c0 .828.672 1.5 1.5 1.5s1.5-.672 1.5-1.5v-2c0-1.957-1.054-3.782-2.749-4.764zm-18.502 0c-1.696.981-2.749 2.806-2.749 4.764v2c0 .828.671 1.5 1.5 1.5s1.5-.672 1.5-1.5v-2c0-.89.479-1.72 1.251-2.166.717-.415.962-1.332.547-2.05-.414-.718-1.332-.963-2.049-.548z"/></svg>