<svg id="Layer_1" viewBox="0 0 24 24" xmlns="http://www.w3.org/2000/svg" data-name="Layer 1"><path d="m16 1.5c0-.829.672-1.5 1.5-1.5.848-.017 1.719.124 2.291.475l2.587 1.428c.828.497.828 1.698 0 2.195l-3.378 1.902v3.5c0 .829-.672 1.5-1.5 1.5s-1.5-.671-1.5-1.5zm4.5 11.5h-3c-1.93 0-3.5 1.57-3.5 3.5v1.536c-.163-.023-.33-.036-.5-.036h-1.5v-2.285c0-1.068-.679-2.019-1.691-2.366l-2.297-.767.955-3.582h2.033c.296 0 .585-.088.832-.252l1.5-1c.688-.459.875-1.391.416-2.08-.46-.69-1.391-.876-2.081-.416l-1.122.748h-3.737c-1.404 0-2.638.997-2.91 2.277l-.802 2.847c-.258.997.028 2.012.667 2.737l-.802 2.139h-1.461c-.829 0-1.5.671-1.5 1.5s.671 1.5 1.5 1.5h1.807c1.037 0 1.978-.652 2.34-1.622l.815-2.173 2.537.868v2.281c-1.034.495-1.796 1.472-1.964 2.647h-5.535c-.829-.001-1.5.67-1.5 1.499s.671 1.5 1.5 1.5h7c.829 0 1.5-.671 1.5-1.5v-1c0-.276.224-.5.5-.5h3c.275 0 .5.224.5.5v1c0 .829.672 1.5 1.5 1.5s1.5-.671 1.5-1.5v-6c0-.276.225-.5.5-.5h3c.275 0 .5.224.5.5v6c0 .829.672 1.5 1.5 1.5s1.5-.671 1.5-1.5v-6c0-1.93-1.57-3.5-3.5-3.5zm-11.828-8c1.381 0 2.5-1.119 2.5-2.5s-1.119-2.5-2.5-2.5-2.5 1.119-2.5 2.5 1.119 2.5 2.5 2.5z"/></svg>