<?xml version="1.0" encoding="UTF-8"?>
<svg xmlns="http://www.w3.org/2000/svg" id="Layer_1" data-name="Layer 1" viewBox="0 0 24 24">
  <path d="M18,12c3.314,0,6-2.686,6-6S21.314,0,18,0s-6,2.686-6,6,2.686,6,6,6Zm-2-7.812c0-.714,.767-1.165,1.391-.818l3.262,1.812c.642,.357,.642,1.28,0,1.637l-3.262,1.812c-.624,.347-1.391-.105-1.391-.818v-3.625Zm7.826,10.686c-.625,2.43-2.815,4.126-5.326,4.126h-5v2h3c.828,0,1.5,.672,1.5,1.5s-.672,1.5-1.5,1.5H7.5c-.828,0-1.5-.672-1.5-1.5s.672-1.5,1.5-1.5h3v-2H5.5c-3.032,0-5.5-2.468-5.5-5.5V7.5C0,4.467,2.468,2,5.5,2h3c.828,0,1.5,.671,1.5,1.5s-.672,1.5-1.5,1.5h-3c-1.379,0-2.5,1.122-2.5,2.5v6c0,1.379,1.121,2.5,2.5,2.5h13c1.142,0,2.138-.771,2.422-1.874,.206-.803,1.026-1.291,1.826-1.078,.803,.206,1.285,1.024,1.078,1.826Zm-13.326-5.874c0,1.105-.895,2-2,2s-2-.895-2-2,.895-2,2-2,2,.895,2,2Zm-2,3c1.251,0,2.385,.346,3.239,.913,.479,.317,.254,1.087-.315,1.087H5.575c-.569,0-.793-.77-.315-1.087,.854-.566,1.988-.913,3.239-.913Z"/>
</svg>
