<svg id="Layer_1" viewBox="0 0 24 24" xmlns="http://www.w3.org/2000/svg" data-name="Layer 1"><path d="m23.531 14.91c.59.575.605 1.519.036 2.112l-3.812 3.844-6.356-6.356 8.04-8.04c.586-.586 1.535-.586 2.121 0s.586 1.535 0 2.121l-5.491 5.491c-.488.488-.67 1.256-.327 1.855.466.814 1.474.99 2.166.514l1.511-1.522c.58-.586 1.524-.593 2.112-.019zm-21.001-8.44c-.586-.586-1.535-.586-2.121 0s-.586 1.535 0 2.121l5.544 5.544c.582.558.582 1.564 0 2.122-.52.518-1.33.577-1.898.188l-1.489-1.501c-.58-.585-1.523-.594-2.113-.019s-.605 1.519-.035 2.112l4.999 5.046c1.113 1.113 2.434 1.775 3.932 1.916h1.324c1.088 0 1.633-1.315.864-2.085l-.145-.145c-.48-.48-1.126-.719-1.801-.792-.782-.085-1.456-.419-2.048-1.01l-.706-.714c.448-.214.867-.506 1.237-.876.374-.374.651-.804.865-1.257l6.439 6.439c.281.281.663.439 1.061.439 1.336 0 2.005-1.616 1.061-2.56zm3.955 1.356 4.266-7.109c.558-.956 1.94-.956 2.497 0l4.267 7.109c.562.964-.133 2.174-1.249 2.174h-8.533c-1.116 0-1.811-1.21-1.249-2.174zm4.515-2.826c0 .552.448 1 1 1s1-.448 1-1v-1.5c0-.552-.448-1-1-1s-1 .448-1 1zm0 3c0 .552.448 1 1 1s1-.448 1-1-.448-1-1-1-1 .448-1 1z"/></svg>