<svg id="Layer_1" viewBox="0 0 24 24" xmlns="http://www.w3.org/2000/svg" data-name="Layer 1"><path d="m18 12c3.31 0 6-2.69 6-6s-2.69-6-6-6-6 2.69-6 6 2.69 6 6 6zm-1-9c0-.55.45-1 1-1s1 .45 1 1v2c0 .55-.45 1-1 1s-1-.45-1-1zm1 4c.83 0 1.5.67 1.5 1.5s-.67 1.5-1.5 1.5-1.5-.67-1.5-1.5.67-1.5 1.5-1.5zm5.57 7.99c-.77 2.21-2.45 4.04-4.49 4.89-.75.31-1.64-.04-1.96-.81-.32-.76.04-1.64.81-1.96 1.25-.52 2.32-1.71 2.81-3.11.27-.78 1.12-1.2 1.91-.92.78.27 1.2 1.13.92 1.91zm-7.65 1.99-2 6c-.26.79-1.13 1.21-1.9.95-.79-.26-1.21-1.11-.95-1.9l2-6c.26-.79 1.11-1.21 1.9-.95s1.21 1.11.95 1.9zm-4.93-15.59c.07.83-.54 1.55-1.36 1.63-.17.02-.35.04-.53.07-2.08.38-3.77 2.1-4.12 4.19-.11.64-.1 1.27.02 1.89.22 1.13-.2 2.33-1.09 3.14-.59.54-.91 1.27-.91 2.07 0 .9.52 1.82 1.33 2.37.69.46.87 1.39.41 2.08-.29.43-.76.67-1.25.67-.29 0-.58-.08-.83-.25-1.64-1.1-2.67-2.96-2.67-4.86 0-1.63.69-3.19 1.9-4.29.12-.11.18-.25.16-.35-.19-.97-.2-1.96-.03-2.95.56-3.37 3.19-6.05 6.54-6.66.27-.05.54-.09.81-.11.84-.07 1.55.54 1.63 1.36zm-1.07 15.59-2 6c-.26.79-1.13 1.21-1.9.95-.79-.26-1.21-1.11-.95-1.9l2-6c.26-.79 1.11-1.21 1.9-.95s1.21 1.11.95 1.9z"/></svg>