<svg id="Layer_1" viewBox="0 0 24 24" xmlns="http://www.w3.org/2000/svg" data-name="Layer 1"><path d="m13.062 18h-3.062c-1.105 0-2-.895-2-2v-3.062zm10.938-6c0 6.627-5.373 12-12 12-6.617 0-12-5.383-12-12 .01-6.626 5.375-11.99 12-12 6.617 0 12 5.383 12 12zm-12-9c-1.941 0-3.735.624-5.206 1.672l3.328 3.328h1.879v-1c0-1 1-1 1-1v-.5c0-.276.224-.5.5-.5h1c.276 0 .5.224.5.5v.5s1 0 1 1v6.879l3.328 3.328c1.049-1.472 1.672-3.266 1.672-5.206 0-4.962-4.038-9-9-9zm0 18c1.941 0 3.735-.624 5.206-1.672l-12.534-12.534c-1.049 1.472-1.672 3.266-1.672 5.206 0 4.962 4.038 9 9 9z"/></svg>