<svg id="Layer_1" viewBox="0 0 24 24" xmlns="http://www.w3.org/2000/svg" data-name="Layer 1"><path d="m3.393 5.47c-.251.629-.393 1.313-.393 2.03 0 3.033 2.467 5.5 5.5 5.5s5.5-2.467 5.5-5.5c0-.608-.103-1.191-.286-1.738l.686-1.584c.393-1.146-.418-2.351-1.628-2.418l-2.773-.266c-.004-.826-.435-1.494-1.499-1.494-.729 0-1.335.52-1.471 1.208l-1.996-.192c-1.647-.091-2.892 1.468-2.439 3.054l.799 1.399zm5.107 4.53c-1.378 0-2.5-1.122-2.5-2.5 0-.565.195-1.081.513-1.5h3.974c.317.419.513.935.513 1.5 0 1.378-1.122 2.5-2.5 2.5zm9.5 2c-3.314 0-6 2.686-6 6-.033 3.306 2.749 5.985 5.941 6 .589.003 1.059-.5 1.059-1.089v-2.369c0-.808.621-1.503 1.427-1.541.663-.031 1.237.368 1.466.942.135.341.461.57.828.556.337 0 .646-.2.776-.511.282-.672.455-1.401.493-2.166-.094-3.231-2.737-5.823-5.991-5.823zm-2 9.5c-.828 0-1.5-.672-1.5-1.5s.672-1.5 1.5-1.5 1.5.672 1.5 1.5-.672 1.5-1.5 1.5zm0-4c-.828 0-1.5-.672-1.5-1.5s.672-1.5 1.5-1.5 1.5.672 1.5 1.5-.672 1.5-1.5 1.5zm4 0c-.828 0-1.5-.672-1.5-1.5s.672-1.5 1.5-1.5 1.5.672 1.5 1.5-.672 1.5-1.5 1.5zm-10-1c0 .828-.671 1.5-1.5 1.5h-1c-2.481 0-4.5 2.019-4.5 4.5 0 .828-.671 1.5-1.5 1.5s-1.5-.672-1.5-1.5c0-4.136 3.364-7.5 7.5-7.5h1c.829 0 1.5.672 1.5 1.5z"/></svg>