<svg id="Layer_1" viewBox="0 0 24 24" xmlns="http://www.w3.org/2000/svg" data-name="Layer 1"><path d="m8.212 19.757c-.49.674-1.433.814-2.095.33-.754-.55-1.407-1.206-1.971-1.927l-.55.311c-.708.403-1.634.161-2.044-.567-.408-.722-.154-1.637.567-2.044l.542-.307c-.429-1.123-.662-2.325-.662-3.553 0-1.274.249-2.49.685-3.612l-.54-.309c-.719-.412-.968-1.329-.556-2.048s1.33-.967 2.047-.556l.542.311c1.538-1.931 3.772-3.275 6.321-3.661v-.625c0-.828.671-1.5 1.5-1.5s1.5.672 1.5 1.5v.615c2.526.376 4.765 1.691 6.316 3.641l.527-.304c.719-.415 1.635-.168 2.049.549.415.718.168 1.635-.549 2.049l-.531.307c.09.231.174.464.248.704.244.792-.201 1.631-.993 1.874-.791.242-1.631-.201-1.874-.993-.908-2.955-3.598-4.94-6.693-4.94-3.86 0-7 3.141-7 7 0 2.23 1.078 4.347 2.883 5.661.67.488.817 1.426.33 2.096zm2.145-6.615c-.234-.335-.357-.729-.357-1.142 0-1.103.897-2 2-2 .654 0 1.268.32 1.642.857.474.681 1.408.849 2.088.373.679-.474.846-1.408.373-2.088-.935-1.342-2.469-2.143-4.103-2.143-2.757 0-5 2.243-5 5 0 1.029.311 2.018.897 2.858.478.684 1.417.842 2.089.371.679-.474.845-1.409.371-2.088zm12.643 4.562c-.112-.364-.369-1.872-2-2.463v-.741c0-.828-.672-1.5-1.5-1.5s-1.5.672-1.5 1.5v.5h-2v-.5c0-.828-.672-1.5-1.5-1.5s-1.5.672-1.5 1.5v.741c-1.631.591-1.888 2.1-2 2.463-.747 2.423-1 4.455-1 5.058 0 .682.555 1.238 1.238 1.238.951 0 2.532-1.442 3.456-2.793.52-.76 1.385-1.207 2.306-1.207s1.786.447 2.306 1.207c.925 1.351 2.505 2.793 3.456 2.793.682 0 1.238-.555 1.238-1.238 0-.603-.254-2.634-1-5.058z"/></svg>