<svg id="Layer_1" viewBox="0 0 24 24" xmlns="http://www.w3.org/2000/svg" data-name="Layer 1"><path d="m12 10c1.105 0 2 .895 2 2s-.895 2-2 2-2-.895-2-2 .895-2 2-2zm.693 5.287c-.383-.383-1.003-.383-1.385 0l-3.168 3.168c-.57.57-.166 1.545.64 1.545h1.72v2.5c0 .828.672 1.5 1.5 1.5s1.5-.672 1.5-1.5v-2.5h1.72c.806 0 1.21-.975.64-1.545l-3.168-3.168zm-1.385-6.574c.383.382 1.003.382 1.385 0l3.168-3.168c.57-.57.166-1.545-.64-1.545h-1.72v-2.5c0-.829-.672-1.5-1.5-1.5s-1.5.671-1.5 1.5v2.5h-1.72c-.806 0-1.21.975-.64 1.545l3.168 3.168zm11.193 1.787h-2.5v-1.72c0-.806-.975-1.21-1.545-.64l-3.168 3.168c-.383.383-.383 1.003 0 1.385l3.168 3.168c.57.57 1.545.166 1.545-.64v-1.72h2.5c.828 0 1.5-.671 1.5-1.5s-.672-1.5-1.5-1.5zm-13.787.807-3.168-3.168c-.57-.57-1.545-.166-1.545.64v1.72h-2.501c-.828 0-1.5.671-1.5 1.5s.672 1.5 1.5 1.5h2.5v1.72c0 .806.975 1.21 1.545.64l3.168-3.168c.383-.383.383-1.003 0-1.385z"/></svg>