<svg id="Layer_1" viewBox="0 0 24 24" xmlns="http://www.w3.org/2000/svg" data-name="Layer 1"><path d="m18.5 0h-13c-3.032 0-5.5 2.467-5.5 5.5v8c0 3.032 2.468 5.5 5.5 5.5h5v2h-3c-.828 0-1.5.672-1.5 1.5s.672 1.5 1.5 1.5h9c.828 0 1.5-.672 1.5-1.5s-.672-1.5-1.5-1.5h-3v-2h5c3.032 0 5.5-2.468 5.5-5.5v-8c0-3.033-2.468-5.5-5.5-5.5zm2.5 13.5c0 1.379-1.121 2.5-2.5 2.5h-13c-1.379 0-2.5-1.121-2.5-2.5v-8c0-1.378 1.121-2.5 2.5-2.5h13c1.379 0 2.5 1.122 2.5 2.5zm-3.5-4c0 3.032-2.468 5.5-5.5 5.5-1.248 0-2.469-.429-3.439-1.208-.646-.52-.749-1.463-.23-2.109s1.461-.749 2.109-.23c.445.358.985.548 1.561.548 1.379 0 2.5-1.121 2.5-2.5s-1.121-2.5-2.5-2.5c-.318 0-.619.08-.907.194l.115.115c.624.624.182 1.692-.701 1.692h-2.727c-.707 0-1.28-.573-1.28-1.28v-2.727c0-.883 1.068-1.325 1.692-.701l.692.692c.905-.624 1.986-.984 3.117-.984 3.032 0 5.5 2.467 5.5 5.5z"/></svg>