<svg id="Layer_1" viewBox="0 0 24 24" xmlns="http://www.w3.org/2000/svg" data-name="Layer 1"><path d="m11 7v10c0 1-.647 1-1 1-1.657 0-3-1.343-3-3 0-.278.05-.541.12-.796-.676-.501-1.12-1.298-1.12-2.204 0-1.114.665-2.068 1.617-2.5-.069-.24-.117-.488-.117-.75 0-1.519 1.231-2.75 2.75-2.75.263 0 .75 0 .75 1zm5.383 2.5c.068-.24.117-.488.117-.75 0-1.519-1.231-2.75-2.75-2.75-.263 0-.75 0-.75 1v10c0 1 .647 1 1 1 1.657 0 3-1.343 3-3 0-.277-.05-.541-.12-.796.676-.501 1.12-1.298 1.12-2.204 0-1.114-.665-2.067-1.617-2.5zm5.617 4v2.5h.5c.829 0 1.5.672 1.5 1.5s-.671 1.5-1.5 1.5h-1.107c-.527 1.027-1.366 1.866-2.393 2.393v1.107c0 .828-.671 1.5-1.5 1.5s-1.5-.672-1.5-1.5v-.5h-2.5v.5c0 .828-.671 1.5-1.5 1.5s-1.5-.672-1.5-1.5v-.5h-2.5v.5c0 .828-.671 1.5-1.5 1.5s-1.5-.672-1.5-1.5v-1.107c-1.027-.527-1.866-1.366-2.393-2.393h-1.107c-.829 0-1.5-.672-1.5-1.5s.671-1.5 1.5-1.5h.5v-2.5h-.5c-.829 0-1.5-.672-1.5-1.5s.671-1.5 1.5-1.5h.5v-2.5h-.5c-.829 0-1.5-.672-1.5-1.5s.671-1.5 1.5-1.5h1.107c.527-1.027 1.366-1.866 2.393-2.393v-1.107c0-.828.671-1.5 1.5-1.5s1.5.672 1.5 1.5v.5h2.5v-.5c0-.828.671-1.5 1.5-1.5s1.5.672 1.5 1.5v.5h2.5v-.5c0-.828.671-1.5 1.5-1.5s1.5.672 1.5 1.5v1.107c1.027.527 1.866 1.366 2.393 2.393h1.107c.829 0 1.5.672 1.5 1.5s-.671 1.5-1.5 1.5h-.5v2.5h.5c.829 0 1.5.672 1.5 1.5s-.671 1.5-1.5 1.5zm-3-6c0-1.379-1.122-2.5-2.5-2.5h-9c-1.378 0-2.5 1.121-2.5 2.5v9c0 1.379 1.122 2.5 2.5 2.5h9c1.378 0 2.5-1.121 2.5-2.5z"/></svg>