<?xml version="1.0" encoding="UTF-8"?>
<svg xmlns="http://www.w3.org/2000/svg" id="Layer_1" data-name="Layer 1" viewBox="0 0 24 24">
  <path d="M9,12c3.309,0,6-2.691,6-6S12.309,0,9,0,3,2.691,3,6s2.691,6,6,6Zm0-9c1.654,0,3,1.346,3,3s-1.346,3-3,3-3-1.346-3-3,1.346-3,3-3Zm2.97,12.949c-.165,.812-.96,1.337-1.769,1.171-.393-.08-.796-.12-1.201-.12-3.15,0-5.78,2.459-5.987,5.599-.052,.829-.778,1.454-1.595,1.398-.827-.055-1.453-.769-1.398-1.596,.31-4.711,4.254-8.401,8.98-8.401,.605,0,1.21,.061,1.799,.181,.812,.165,1.336,.957,1.171,1.769Zm12.003-2.854c-.39,1.534-1.609,4.448-4.115,6.472-1.132,.914-2.295,1.47-3.357,1.807,0,0,1-3.375,4.066-6.941-3.103,1.718-5.314,4.825-6.277,7.412-.18,.459-.327,.936-.456,1.408-.122,.445-.535,.747-.997,.747-.684,0-1.192-.651-1.005-1.309,.141-.496,.305-1,.5-1.495,.166-1.36,.992-4.675,3.755-6.906,2.459-1.986,5.498-2.29,7.017-2.289,.579,0,1.012,.534,.869,1.095Z"/>
</svg>
