<svg id="Layer_1" viewBox="0 0 24 24" xmlns="http://www.w3.org/2000/svg" data-name="Layer 1"><path d="m22.934 15.762c-.754-2.249-1.737-3.014-2.934-3.431v-.831c0-.828-.671-1.5-1.5-1.5s-1.5.672-1.5 1.5v.5h-3v-.5c0-.828-.671-1.5-1.5-1.5s-1.5.672-1.5 1.5v.834c-1.187.433-2.391 1.39-2.934 3.427-.777 2.522-1.066 4.712-1.066 5.5 0 1.51 1.229 2.738 2.738 2.738 1.843 0 3.817-2.166 4.693-3.445.477-.695 1.662-.695 2.137 0 .876 1.279 2.85 3.445 4.693 3.445 1.51 0 2.738-1.229 2.738-2.738 0-.788-.29-2.978-1.066-5.5zm-3.89 3.098c-.797-1.164-2.122-1.859-3.543-1.859s-2.746.695-3.544 1.859c-.627.917-1.455 1.673-1.928 1.988.063-.749.399-2.598.957-4.387.205-.77.513-1.461 2.015-1.461h5c1.615.011 1.829.759 2.066 1.645.566 1.839.822 3.404.903 4.182-.512-.331-1.314-1.072-1.926-1.967zm-14.169 3.868c-.404.731-1.328.982-2.039.584-1.749-.969-2.835-2.812-2.835-4.812v-13c-.001-3.032 2.466-5.5 5.499-5.5h9c3.033 0 5.5 2.468 5.5 5.5v1c0 .828-.671 1.5-1.5 1.5s-1.5-.672-1.5-1.5v-1c0-1.379-1.122-2.5-2.5-2.5h-9c-1.378 0-2.5 1.121-2.5 2.5v13c0 .909.494 1.747 1.29 2.188.725.401.986 1.314.585 2.039zm8.625-17.728c.829 0 1.5.672 1.5 1.5s-.671 1.5-1.5 1.5h-7c-.829 0-1.5-.672-1.5-1.5s.671-1.5 1.5-1.5zm-6.5 8h-.5c-.829 0-1.5-.672-1.5-1.5s.671-1.5 1.5-1.5h.5c.829 0 1.5.672 1.5 1.5s-.671 1.5-1.5 1.5z"/></svg>