<svg id="Layer_1" viewBox="0 0 24 24" xmlns="http://www.w3.org/2000/svg" data-name="Layer 1"><path d="m19 5.5v1c0 .829-.672 1.5-1.5 1.5s-1.5-.671-1.5-1.5v-1c0-.829.672-1.5 1.5-1.5s1.5.671 1.5 1.5zm-1.5 4.5c-.828 0-1.5.671-1.5 1.5v1c0 .829.672 1.5 1.5 1.5s1.5-.671 1.5-1.5v-1c0-.829-.672-1.5-1.5-1.5zm0 6c-.828 0-1.5.671-1.5 1.5v1c0 .829.672 1.5 1.5 1.5s1.5-.671 1.5-1.5v-1c0-.829-.672-1.5-1.5-1.5zm6.5-10.5v13c0 3.033-2.468 5.5-5.5 5.5h-2c-3.032 0-5.5-2.467-5.5-5.5v-13c0-3.033 2.468-5.5 5.5-5.5h2c3.032 0 5.5 2.467 5.5 5.5zm-3 0c0-1.378-1.121-2.5-2.5-2.5h-2c-1.379 0-2.5 1.122-2.5 2.5v13c0 1.378 1.121 2.5 2.5 2.5h2c1.379 0 2.5-1.122 2.5-2.5zm-10.897-3.906c-.699 1.137-1.103 2.473-1.103 3.906v1c0 .829-.672 1.5-1.5 1.5h-4.5v2.937c0 .206.119.39.29.449 1.301.45 2.4 1.262 3.212 2.295.324-.41.692-.784 1.098-1.112.56-.453 1.4-.045 1.4.676v1.648c0 .304-.116.589-.289.84-.447.645-.711 1.425-.711 2.267v4.5c0 .829-.672 1.5-1.5 1.5s-1.5-.671-1.5-1.5v-4.5c0-1.703-1.081-3.222-2.69-3.779-1.382-.478-2.31-1.797-2.31-3.284v-6.437c0-2.481 2.019-4.5 4.5-4.5h4.707c.82 0 1.325.896.896 1.594zm-4.103 3.406v-2h-1.5c-.827 0-1.5.673-1.5 1.5v.5z"/></svg>