<svg id="Layer_1" viewBox="0 0 24 24" xmlns="http://www.w3.org/2000/svg" data-name="Layer 1"><path d="m8.5 13c-1.105 0-2-.895-2-2s.895-2 2-2 2 .895 2 2-.895 2-2 2zm15.5 2.5c0 1.557-.795 2.93-2 3.738v3.976c0 .699-.845 1.049-1.34.555l-1.16-1.161-1.16 1.161c-.494.494-1.34.144-1.34-.555v-3.976c-1.205-.808-2-2.182-2-3.738 0-2.481 2.019-4.5 4.5-4.5s4.5 2.019 4.5 4.5zm-6 0c0 .827.673 1.5 1.5 1.5s1.5-.673 1.5-1.5-.673-1.5-1.5-1.5-1.5.673-1.5 1.5zm6-10v3c0 .829-.671 1.5-1.5 1.5s-1.5-.671-1.5-1.5v-1.5h-18v9.5c0 1.378 1.122 2.5 2.5 2.5h8c.829 0 1.5.671 1.5 1.5s-.671 1.5-1.5 1.5h-8c-3.033 0-5.5-2.467-5.5-5.5v-11c0-3.038 2.462-5.5 5.5-5.5h13c3.038 0 5.5 2.462 5.5 5.5zm-18-2c0-.828-.672-1.5-1.5-1.5s-1.5.672-1.5 1.5.672 1.5 1.5 1.5 1.5-.672 1.5-1.5zm5 0c0-.828-.672-1.5-1.5-1.5s-1.5.672-1.5 1.5.672 1.5 1.5 1.5 1.5-.672 1.5-1.5zm-5.841 12.118c-.432.597.069 1.382.875 1.382h4.933c.805 0 1.306-.785.875-1.382-.703-.972-1.932-1.618-3.341-1.618s-2.638.646-3.341 1.618z"/></svg>