<svg id="Layer_1" viewBox="0 0 24 24" xmlns="http://www.w3.org/2000/svg" data-name="Layer 1"><path d="m24 15.5v3c0 3.033-2.468 5.5-5.5 5.5h-13c-3.032 0-5.5-2.467-5.5-5.5v-10c0-3.033 2.468-5.5 5.5-5.5h3c.828 0 1.5.671 1.5 1.5s-.672 1.5-1.5 1.5h-3c-.956 0-1.779.546-2.199 1.336l6.932 6.932c.945.944 2.59.944 3.535 0 .586-.586 1.535-.585 2.121 0 .586.586.586 1.536 0 2.122-1.038 1.039-2.419 1.611-3.889 1.611s-2.851-.572-3.889-1.611l-5.111-5.111v7.222c0 1.378 1.121 2.5 2.5 2.5h13c1.379 0 2.5-1.122 2.5-2.5v-3c0-.829.672-1.5 1.5-1.5s1.5.671 1.5 1.5zm-9.27-8.173-.941 3.016c-.127.405.015.846.354 1.101.34.255.804.267 1.156.031l2.708-1.812 2.754 1.793c.355.231.819.213 1.156-.046s.473-.703.339-1.106l-.979-2.98 2.366-1.927c.321-.271.439-.713.295-1.108s-.52-.657-.939-.657h-3.001l-1.062-2.98c-.146-.391-.52-.651-.937-.651s-.792.26-.937.651l-1.062 2.98h-3.001c-.419 0-.794.262-.938.655-.145.394-.028.835.292 1.107l2.377 1.934z"/></svg>