<svg id="Layer_1" viewBox="0 0 24 24" xmlns="http://www.w3.org/2000/svg" data-name="Layer 1"><path d="m19.781 3.238c-2.078-2.089-4.841-3.238-7.781-3.238s-5.704 1.149-7.781 3.237c-4.285 4.306-4.285 11.311.043 15.658l3.734 3.465c1.076 1.058 2.498 1.641 4.004 1.641s2.928-.582 3.973-1.61l3.808-3.536c4.285-4.306 4.285-11.311 0-15.615zm-2.084 13.457-3.796 3.524c-1.023 1.006-2.748 1.037-3.833-.029l-3.723-3.454c-3.123-3.138-3.123-8.244 0-11.383 1.51-1.518 3.519-2.354 5.654-2.354s4.144.836 5.654 2.354c3.123 3.138 3.123 8.244.042 11.341zm-3.942-4.375 2.744-2.705v1.907c-.067 3.282-2.815 4.748-4.182 5.345-.201.088-.426.079-.62-.023-1.351-.715-4.135-2.415-4.198-5.321v-2.796c0-.97.621-1.83 1.542-2.136l2.131-.707c.537-.178 1.117-.178 1.654 0l2.131.706c.42.139.773.398 1.038.726l-3.641 3.578c-.145.142-.377.142-.522 0l-1.131-1.108c-.394-.388-1.027-.38-1.414.014-.386.395-.38 1.028.015 1.414l1.132 1.109c.459.449 1.061.673 1.662.673s1.205-.226 1.661-.676z"/></svg>