<svg id="Layer_1" viewBox="0 0 24 24" xmlns="http://www.w3.org/2000/svg" data-name="Layer 1"><path d="m18.5 0h-13c-3.032 0-5.5 2.468-5.5 5.5v8c0 3.032 2.468 5.5 5.5 5.5h5v2h-3c-.828 0-1.5.672-1.5 1.5s.672 1.5 1.5 1.5h9c.828 0 1.5-.672 1.5-1.5s-.672-1.5-1.5-1.5h-3v-2h5c3.032 0 5.5-2.468 5.5-5.5v-8c0-3.032-2.468-5.5-5.5-5.5zm2.5 13.5c0 1.379-1.121 2.5-2.5 2.5h-13c-1.379 0-2.5-1.121-2.5-2.5v-8c0-1.379 1.121-2.5 2.5-2.5h13c1.379 0 2.5 1.121 2.5 2.5zm-2-7c0 .828-.672 1.5-1.5 1.5h-4c-.828 0-1.5-.672-1.5-1.5s.672-1.5 1.5-1.5h4c.828 0 1.5.672 1.5 1.5zm-14 0c0-.828.672-1.5 1.5-1.5h.592c.207-.581.756-1 1.408-1 .828 0 1.5.672 1.5 1.5v2c0 .828-.672 1.5-1.5 1.5-.652 0-1.201-.419-1.408-1h-.592c-.828 0-1.5-.672-1.5-1.5zm14 6c0 .828-.672 1.5-1.5 1.5h-.592c-.207.581-.756 1-1.408 1-.828 0-1.5-.672-1.5-1.5v-2c0-.828.672-1.5 1.5-1.5.652 0 1.201.419 1.408 1h.592c.828 0 1.5.672 1.5 1.5zm-7 0c0 .828-.672 1.5-1.5 1.5h-4c-.828 0-1.5-.672-1.5-1.5s.672-1.5 1.5-1.5h4c.828 0 1.5.672 1.5 1.5z"/></svg>