<svg id="Layer_1" viewBox="0 0 24 24" xmlns="http://www.w3.org/2000/svg" data-name="Layer 1"><path d="m12.5 13.453c.893.52 1.5 1.476 1.5 2.584 0 1.657-1.343 3-3 3s-3-1.343-3-3c0-1.108.607-2.064 1.5-2.584v-3.953c0-.828.671-1.5 1.5-1.5s1.5.672 1.5 1.5zm4.5-3.453c0-.828-.671-1.5-1.5-1.5s-1.5.672-1.5 1.5v1.33c0 .407.166.798.459 1.08.994.957 1.541 2.231 1.541 3.59 0 2.757-2.243 5-5 5s-5-2.243-5-5c0-1.358.547-2.633 1.541-3.59.293-.282.459-.673.459-1.08v-5.293c0-1.654 1.346-3 3-3 .829 0 1.5-.672 1.5-1.5s-.671-1.5-1.5-1.5c-3.309 0-6 2.692-6 6v4.691c-1.294 1.463-2 3.312-2 5.271 0 4.411 3.589 8 8 8s8-3.589 8-8c0-1.96-.706-3.809-2-5.271v-.729zm.5-10c-1.93 0-3.5 1.57-3.5 3.5s1.57 3.5 3.5 3.5 3.5-1.57 3.5-3.5-1.57-3.5-3.5-3.5z"/></svg>