<svg id="Layer_1" viewBox="0 0 24 24" xmlns="http://www.w3.org/2000/svg" data-name="Layer 1"><path d="m23 17.704c.746 2.424 1 4.455 1 5.058 0 .683-.556 1.238-1.238 1.238-.951 0-2.531-1.442-3.456-2.793-.52-.76-1.385-1.207-2.306-1.207s-1.786.447-2.306 1.207c-.924 1.351-2.505 2.793-3.456 2.793-.683 0-1.238-.556-1.238-1.238 0-.603.253-2.635 1-5.058.112-.363.369-1.872 2-2.463v-.741c0-.828.672-1.5 1.5-1.5s1.5.672 1.5 1.5v.5h2v-.5c0-.828.672-1.5 1.5-1.5s1.5.672 1.5 1.5v.741c1.631.591 1.888 2.099 2 2.463zm-13.052-2.448c.215.8-.26 1.623-1.06 1.837-.778.216-1.625-.253-1.837-1.06-.183-.681-.321-1.36-.413-2.034h-3.403c.526 2.333 1.951 4.375 4.052 5.668.705.435.925 1.359.49 2.064-.438.712-1.369.92-2.064.491-3.577-2.203-5.713-6.025-5.713-10.222-.004-6.626 5.397-11.985 12-12 6.603.014 12.004 5.374 12 12 0 .829-.672 1.5-1.5 1.5s-1.5-.671-1.5-1.5c0-3.845-2.428-7.125-5.828-8.412.811 1.488 1.65 3.428 2.065 5.635.152.814-.384 1.598-1.198 1.751-.794.156-1.601-.378-1.751-1.197-.437-2.33-1.468-4.349-2.287-5.672-.958 1.548-2.205 4.053-2.455 6.895h.954c.828 0 1.5.671 1.5 1.5s-.672 1.5-1.5 1.5h-.807c.07.417.142.834.255 1.256zm-6.889-4.256h3.481c.205-2.943 1.266-5.538 2.289-7.412-3.102 1.173-5.392 4.005-5.771 7.412z"/></svg>