<svg id="Layer_1" viewBox="0 0 24 24" xmlns="http://www.w3.org/2000/svg" data-name="Layer 1"><path d="m19.56 4.936-.181-.543c-.478-1.432-1.812-2.393-3.32-2.393h-5.059v-.5c0-.828-.672-1.5-1.5-1.5s-1.5.672-1.5 1.5v.5h-.059c-1.509 0-2.843.961-3.321 2.395l-.18.541c-.344 1.017-.475 2.095-.437 3.168l.743 10.775c.197 2.871 2.607 5.121 5.486 5.121h3.533c2.879 0 5.289-2.25 5.486-5.121l.743-10.775c.039-1.073-.092-2.151-.437-3.168zm-5.793 16.064h-3.533c-1.196 0-2.203-.857-2.439-2h.706c.828 0 1.5-.672 1.5-1.5s-.672-1.5-1.5-1.5h-.945l-.138-2h1.083c.828 0 1.5-.672 1.5-1.5s-.672-1.5-1.5-1.5h-1.29l-.207-3h9.973l-.716 10.672c-.091 1.306-1.186 2.328-2.494 2.328z"/></svg>