<svg id="Layer_1" viewBox="0 0 24 24" xmlns="http://www.w3.org/2000/svg" data-name="Layer 1"><path d="m9 2.5v-1c0-.829.672-1.5 1.5-1.5s1.5.671 1.5 1.5v1c0 .829-.672 1.5-1.5 1.5s-1.5-.671-1.5-1.5zm6.5 1.5c.828 0 1.5-.671 1.5-1.5v-1c0-.829-.672-1.5-1.5-1.5s-1.5.671-1.5 1.5v1c0 .829.672 1.5 1.5 1.5zm-10 0c.828 0 1.5-.671 1.5-1.5v-1c0-.829-.672-1.5-1.5-1.5s-1.5.671-1.5 1.5v1c0 .829.672 1.5 1.5 1.5zm18.5 8c0 2.206-1.794 4-4 4h-3.039c-.719 1.115-1.76 2.004-3.002 2.514l-1.581-1.463c-.089-.084-.534-.493-1.227-.892.015-.057.023-.104.036-.159h.667c1.76 0 3.145-1.692 3.145-3.5v-3c0-.276-.225-.5-.5-.5h-7.999c-.322-.003-.538.293-.5.601l-1.949 2.021c-.084.088-.652.762-1.051 1.455v-3.577c0-1.93 1.57-3.5 3.5-3.5h8c1.391 0 2.585.822 3.149 2h2.351c2.206 0 4 1.794 4 4zm-3 0c0-.551-.448-1-1-1h-2v1.5c0 .17-.025.333-.038.5h2.038c.552 0 1-.449 1-1zm-1.5 9h-8.299c.156.661.184 1.171.187 1.281l.043 1.719h8.069c.828 0 1.5-.672 1.5-1.5s-.672-1.5-1.5-1.5zm-10.977-3.752c.613-.647.895-1.485 1.025-2.095.09-.422-.279-.79-.701-.701-.61.13-1.448.412-2.095 1.025-.024-.891-.417-1.683-.757-2.206-.235-.362-.756-.362-.991 0-.339.523-.733 1.315-.757 2.206-.647-.613-1.485-.895-2.095-1.025-.422-.09-.79.279-.701.701.13.61.412 1.448 1.025 2.095-.891.024-1.683.417-2.206.757-.362.235-.362.756 0 .991.523.339 1.315.733 2.206.757-.613.647-.895 1.485-1.025 2.095-.09.422.279.79.701.701.61-.13 1.448-.412 2.095-1.025.024.891.417 1.683.757 2.206.235.362.756.362.991 0 .339-.523.733-1.315.757-2.206.647.613 1.485.895 2.095 1.025.422.09.79-.279.701-.701-.13-.61-.412-1.448-1.025-2.095.891-.024 1.683-.417 2.206-.757.362-.235.362-.756 0-.991-.523-.339-1.315-.733-2.206-.757z"/></svg>