<svg id="Layer_1" viewBox="0 0 24 24" xmlns="http://www.w3.org/2000/svg" data-name="Layer 1"><path d="m18.5 2h-.5v-.5c0-.829-.672-1.5-1.5-1.5s-1.5.671-1.5 1.5v.5h-6v-.5c0-.829-.672-1.5-1.5-1.5s-1.5.671-1.5 1.5v.5h-.5c-3.032 0-5.5 2.467-5.5 5.5v11.5c0 2.761 2.239 5 5 5h14c2.761 0 5-2.239 5-5v-11.5c0-3.033-2.468-5.5-5.5-5.5zm-4.293 9.793c.391.391.391 1.023 0 1.414s-1.023.391-1.414 0l-.793-.793-.793.793c-.391.391-1.023.391-1.414 0s-.391-1.023 0-1.414l.793-.793-.793-.793c-.391-.391-.391-1.023 0-1.414s1.023-.391 1.414 0l.793.793.793-.793c.391-.391 1.023-.391 1.414 0s.391 1.023 0 1.414l-.793.793zm-12.046 8.632-.457-.42c-.413-.38-.433-1.025-.044-1.429.377-.392.997-.41 1.397-.042l.524.483 1.315-1.372c.391-.408 1.041-.411 1.436-.007.377.386.38 1.001.007 1.39l-1.352 1.412-.004.004c-.744.744-2.058.746-2.823-.019zm20.179-1.397-1.352 1.412-.004.004c-.744.744-2.058.746-2.823-.019l-.457-.42c-.413-.38-.433-1.025-.044-1.429.377-.392.997-.41 1.397-.042l.524.483 1.315-1.372c.391-.408 1.041-.411 1.436-.007.377.386.38 1.001.007 1.39zm-6.341-4.028v6h-7.999v-6h-5v-7h5v7h8v-7h5v7h-5z"/></svg>