<svg id="Layer_1" viewBox="0 0 24 24" xmlns="http://www.w3.org/2000/svg" data-name="Layer 1"><path d="m24 15.578c0 2.049-1.236 3.806-3 4.578v2.344c0 .828-.672 1.5-1.5 1.5h-1c-.828 0-1.5-.672-1.5-1.5v-2.344c-1.764-.772-3-2.529-3-4.578 0-1.491.654-2.827 1.69-3.742.506-.447 1.31-.061 1.31.614v1.55c0 1.214 1.086 2.178 2.338 1.972.983-.162 1.662-1.088 1.662-2.084v-1.438c0-.675.804-1.06 1.31-.614 1.036.915 1.69 2.251 1.69 3.742zm-13.249-.432c-.57-.097-1.159-.146-1.751-.146-4.677 0-8.372 2.997-8.985 7.288-.117.82.453 1.58 1.273 1.697.803.12 1.583-.449 1.697-1.273.396-2.774 2.87-4.712 6.015-4.712.424 0 .844.035 1.249.104.814.142 1.591-.409 1.73-1.227.139-.816-.41-1.591-1.227-1.73zm4.249-7.146c0 3.309-2.691 6-6 6s-6-2.691-6-6h-.5c-.829 0-1.5-.671-1.5-1.5s.671-1.5 1.5-1.5h.5c0-2.593 1.973-4.724 4.5-4.975v2.475c0 .828.672 1.5 1.5 1.5s1.5-.672 1.5-1.5v-2.475c2.527.251 4.5 2.383 4.5 4.975h.5c.829 0 1.5.671 1.5 1.5s-.671 1.5-1.5 1.5zm-3 0h-6c0 1.654 1.346 3 3 3s3-1.346 3-3z"/></svg>