<svg id="Layer_1" viewBox="0 0 24 24" xmlns="http://www.w3.org/2000/svg" data-name="Layer 1"><path d="m9 22.5c0 .829-.671 1.5-1.5 1.5h-2c-3.033 0-5.5-2.467-5.5-5.5v-13c0-3.033 2.467-5.5 5.5-5.5h6.343c1.469 0 2.85.572 3.889 1.611l2.657 2.657c.815.815 1.347 1.848 1.536 2.985.154.877-.529 1.731-1.425 1.739v.008h-5.5c-1.105 0-2-.895-2-2v-4h-5.5c-1.378 0-2.5 1.122-2.5 2.5v13c0 1.378 1.122 2.5 2.5 2.5h2c.829 0 1.5.671 1.5 1.5zm-2.5-12.5c-.829 0-1.5.671-1.5 1.5s.671 1.5 1.5 1.5h7c.829 0 1.5-.671 1.5-1.5s-.671-1.5-1.5-1.5zm2 5h-2c-.829 0-1.5.671-1.5 1.5s.671 1.5 1.5 1.5h2c.829 0 1.5-.671 1.5-1.5s-.671-1.5-1.5-1.5zm7.738 6.631c-.798.567-1.879.477-2.572-.217-.378-.378-.586-.88-.586-1.414s.208-1.036.586-1.414l1.414-1.415c.6-.598 1.514-.754 2.276-.391.497.237 1.095.028 1.333-.471.238-.498.027-1.095-.471-1.333-1.527-.73-3.356-.415-4.553.782l-1.414 1.415c-.756.755-1.172 1.76-1.172 2.828s.416 2.073 1.172 2.828c.777.778 1.799 1.172 2.828 1.172.807 0 1.618-.24 2.318-.74.45-.32.555-.945.234-1.395s-.945-.555-1.395-.234zm6.59-9.439c-1.387-1.388-3.551-1.568-5.147-.432-.45.321-.554.945-.234 1.395.321.45.944.555 1.395.234.796-.568 1.877-.477 2.572.217.378.378.586.88.586 1.415s-.208 1.036-.586 1.414l-1.414 1.415c-.599.599-1.513.756-2.276.391-.498-.237-1.095-.028-1.333.471-.238.498-.027 1.095.471 1.333.549.262 1.136.39 1.72.39 1.04 0 2.066-.405 2.833-1.171l1.414-1.415c.756-.755 1.172-1.76 1.172-2.828s-.416-2.073-1.172-2.829z"/></svg>