<svg id="Layer_1" viewBox="0 0 24 24" xmlns="http://www.w3.org/2000/svg" data-name="Layer 1"><path d="m12.097 12.821c.36.487-.022 1.179-.628 1.179h-5.938c-.605 0-.987-.692-.628-1.179.816-1.103 2.118-1.821 3.597-1.821s2.781.718 3.597 1.821zm5.403-2.821h-2c-.828 0-1.5.671-1.5 1.5s.672 1.5 1.5 1.5h2c.828 0 1.5-.671 1.5-1.5s-.672-1.5-1.5-1.5zm-9 0c1.381 0 2.5-1.119 2.5-2.5s-1.119-2.5-2.5-2.5-2.5 1.119-2.5 2.5 1.119 2.5 2.5 2.5zm15.5-4.5v8c0 3.033-2.468 5.5-5.5 5.5h-5v2h3c.828 0 1.5.671 1.5 1.5s-.672 1.5-1.5 1.5h-9c-.828 0-1.5-.671-1.5-1.5s.672-1.5 1.5-1.5h3v-2h-5c-3.032 0-5.5-2.467-5.5-5.5v-8c0-3.033 2.468-5.5 5.5-5.5h13c3.032 0 5.5 2.467 5.5 5.5zm-3 0c0-1.378-1.121-2.5-2.5-2.5h-13c-1.379 0-2.5 1.122-2.5 2.5v8c0 1.378 1.121 2.5 2.5 2.5h13c1.379 0 2.5-1.122 2.5-2.5zm-3.5-.5h-2c-.828 0-1.5.671-1.5 1.5s.672 1.5 1.5 1.5h2c.828 0 1.5-.671 1.5-1.5s-.672-1.5-1.5-1.5z"/></svg>