<svg id="Layer_1" viewBox="0 0 24 24" xmlns="http://www.w3.org/2000/svg" data-name="Layer 1"><path d="m10.522 19.401c.586.586.586 1.535 0 2.121s-1.535.586-2.121 0l-1.901-1.901-1.939 1.939c-.586.586-1.536.586-2.121 0-.586-.586-.586-1.535 0-2.121l1.94-1.939-1.94-1.94c-.586-.586-.586-1.535 0-2.121s1.535-.586 2.121 0l.96.96 6.967-6.965c2.216-2.234 4.908-4.183 7.875-5.349.972-.382 1.935.583 1.551 1.554-1.172 2.963-3.119 5.658-5.351 7.87l-6.967 6.965.927.927zm-7.022-8.401c.829 0 1.5-.672 1.5-1.5v-2.454c0-.983.627-1.853 1.561-2.162l5.439-1.804 1.528.507c.784.26 1.635-.166 1.896-.952s-.165-1.635-.952-1.896l-2-.663c-.307-.102-.638-.102-.944 0l-5.911 1.96c-2.163.718-3.617 2.731-3.617 5.01v2.454c0 .828.671 1.5 1.5 1.5zm17-.346c-.828 0-1.5.672-1.5 1.5v.651c0 4.615-3.862 7.212-6.165 8.35-.743.367-1.047 1.267-.68 2.009.368.75 1.283 1.044 2.009.681 2.927-1.445 7.836-4.802 7.836-11.039v-.651c0-.828-.672-1.5-1.5-1.5z"/></svg>