<svg id="Layer_1" viewBox="0 0 24 24" xmlns="http://www.w3.org/2000/svg" data-name="Layer 1"><path d="m6 22.5c0 .829-.671 1.5-1.5 1.5h-3c-.829 0-1.5-.671-1.5-1.5s.671-1.5 1.5-1.5h3c.829 0 1.5.671 1.5 1.5zm6.5-1.5h-3c-.829 0-1.5.671-1.5 1.5s.671 1.5 1.5 1.5h3c.828 0 1.5-.671 1.5-1.5s-.672-1.5-1.5-1.5zm-8.5-3.5c0 .829.671 1.5 1.5 1.5h3c.829 0 1.5-.671 1.5-1.5s-.671-1.5-1.5-1.5h-3c-.829 0-1.5.671-1.5 1.5zm20 0c0-.829-.672-1.5-1.5-1.5-.973 0-3.186-1.36-4.123-4h1.92c.481.063.608.226.699.645.52.74 1.297 1.247 2.184 1.426.211.044.415.108.612.187l.137-.824c.121-.723.08-1.48-.209-2.154-.591-1.383-1.887-2.232-3.304-2.278-.016 0-.094-.002-.119-.002h-7.696c-1.091 0-2.121.478-2.826 1.31-.705.833-1.006 1.927-.827 3.001l.072.435c.132.822.927 1.373 1.725 1.234.817-.136 1.37-.908 1.234-1.725l-.072-.437c-.046-.279.078-.477.157-.569s.253-.249.537-.249h2.655c.756 3.075 2.798 5.287 4.817 6.326l-.376 2.255c-.04.242-.248.418-.493.418h-1.703c-.828 0-1.5.671-1.5 1.5s.672 1.5 1.5 1.5h1.703c1.717 0 3.169-1.23 3.452-2.925l.362-2.172c.572-.211.983-.757.983-1.403zm-21.382-2.502c.828-.034 1.471-.732 1.437-1.56-.024-.595-.043-1.247-.055-1.914.075-4.519.418-6.392.734-7.793.045-.202.215-.351.431-.38 1.132-.15 2.651-.309 5.342-.351 2.691.042 4.21.201 5.341.351.217.029.388.186.437.4.091.405.227 1.049.349 1.95.111.821.87 1.397 1.688 1.285.821-.111 1.396-.867 1.285-1.688-.104-.774-.23-1.475-.395-2.205-.321-1.431-1.514-2.522-2.968-2.716-1.222-.161-2.856-.333-5.716-.377-.025 0-.051 0-.077 0-2.839.045-4.465.215-5.682.377-1.453.193-2.643 1.276-2.962 2.694-.349 1.547-.727 3.6-.807 8.453.013.744.032 1.419.058 2.037.032.828.739 1.473 1.56 1.437z"/></svg>