<svg id="Layer_1" viewBox="0 0 24 24" xmlns="http://www.w3.org/2000/svg" data-name="Layer 1"><path d="m5.73 18.104c-.477.684-1.417.842-2.089.372-2.28-1.591-3.642-4.198-3.642-6.976v-6c.001-3.032 2.469-5.5 5.501-5.5h6c3.032 0 5.5 2.468 5.5 5.5v2c0 .828-.672 1.5-1.5 1.5s-1.5-.672-1.5-1.5v-2c0-1.379-1.121-2.5-2.5-2.5h-6c-1.379 0-2.5 1.121-2.5 2.5v6c0 1.797.882 3.485 2.358 4.515.679.474.846 1.409.372 2.089zm.77-13.104c-.828 0-1.5.672-1.5 1.5v2c0 .828.672 1.5 1.5 1.5h4c.828 0 1.5-.672 1.5-1.5v-2c0-.828-.672-1.5-1.5-1.5zm16 5h-2.343c-1.47 0-2.851.572-3.89 1.611l-3.422 3.422c-.75-.104-1.537.123-2.113.699l-3.892 3.892c-.942.942-1.109 2.487-.242 3.498.502.585 1.202.878 1.902.878.64 0 1.279-.244 1.768-.732l4-4c.576-.576.803-1.363.699-2.113l3.422-3.422c.473-.473 1.101-.732 1.769-.732h2.343c.828 0 1.5-.672 1.5-1.5s-.672-1.5-1.5-1.5z"/></svg>