<svg id="Layer_1" viewBox="0 0 24 24" xmlns="http://www.w3.org/2000/svg" data-name="Layer 1"><path d="m19.668 17.252c-1.355.903-2.487 1.476-3.282 1.823-.077-.18-.154-.351-.225-.505-.376-.812-.073-1.75.705-2.184 2.315-1.292 7.134-3.98 7.134-8.886 0-.829-.671-1.5-1.5-1.5s-1.5.671-1.5 1.5c0 1.142-.464 2.131-1.207 3.015-.574-.475-1.284-1.18-1.936-2.143 1.223-1.191 3.144-3.584 3.144-6.872-.001-.829-.672-1.5-1.501-1.5s-1.5.671-1.5 1.5c0 1.644-.774 3-1.52 3.929-.259-.881-.436-1.867-.473-2.979-.027-.828-.704-1.484-1.549-1.449-.828.027-1.477.721-1.449 1.549.171 5.153 2.676 8.318 4.489 9.946-.677.467-1.43.885-2.165 1.319-.786-.743-2.165-2.328-2.319-4.424-.061-.826-.768-1.441-1.606-1.386-.826.061-1.447.78-1.386 1.606.083 1.136.394 2.152.807 3.04.407 1.303-.081 2.298-.682 2.973-.474-.696-1.131-1.28-1.956-1.646-.777-.345-1.488-.694-2.12-1.066 1.54-1.898 4.34-6 4.849-11.267.08-.824-.524-1.558-1.349-1.637-.821-.075-1.557.524-1.637 1.349-.138 1.428-.489 2.762-.939 3.976-.544-.664-.995-1.581-.995-2.832 0-.829-.671-1.5-1.5-1.5s-1.5.671-1.5 1.5c0 2.858 1.442 4.693 2.64 5.725-.667 1.167-1.345 2.096-1.857 2.737-.501-.701-.783-1.502-.783-2.461 0-.829-.671-1.5-1.5-1.5s-1.5.669-1.5 1.498c0 5.124 4.71 7.214 6.974 8.219.83.368 1.218 1.326.866 2.136-.268.582-.588 1.066-.764 1.787-.195.81-.01 1.651.508 2.31.525.667 1.312 1.049 2.159 1.049h4.515c.847 0 1.634-.382 2.159-1.049.197-.25.329-.531.428-.823.951-.363 2.531-1.075 4.488-2.38.689-.459.875-1.391.416-2.08-.46-.689-1.39-.876-2.08-.416zm-9.543 3.748c.342-.66.697-1.348.775-2.088.804-.542 1.689-1.374 2.307-2.45-.333 1.071-.281 2.263.233 3.371.164.353.341.755.471 1.167h-3.787z"/></svg>