<svg id="Layer_1" viewBox="0 0 24 24" xmlns="http://www.w3.org/2000/svg" data-name="Layer 1"><path d="m24 5.5v13c0 3.032-2.468 5.5-5.5 5.5h-13c-3.032 0-5.5-2.468-5.5-5.5v-13c0-3.032 2.468-5.5 5.5-5.5.828 0 1.5.671 1.5 1.5s-.672 1.5-1.5 1.5c-1.379 0-2.5 1.121-2.5 2.5v13c0 1.379 1.121 2.5 2.5 2.5h5.5v-8h-2.5c-.828 0-1.5-.672-1.5-1.5s.672-1.5 1.5-1.5h7c.828 0 1.5.672 1.5 1.5s-.672 1.5-1.5 1.5h-1.5v8h4.5c1.379 0 2.5-1.121 2.5-2.5v-13c0-1.379-1.121-2.5-2.5-2.5h-4.5v1.5c0 .828-.672 1.5-1.5 1.5s-1.5-.672-1.5-1.5v-3c0-.829.672-1.5 1.5-1.5h6c3.032 0 5.5 2.468 5.5 5.5z"/></svg>