<svg id="Layer_1" viewBox="0 0 24 24" xmlns="http://www.w3.org/2000/svg" data-name="Layer 1"><path d="m13.5 22.5c0 .828-.672 1.5-1.5 1.5s-1.5-.672-1.5-1.5.672-1.5 1.5-1.5 1.5.672 1.5 1.5zm2.438-9.213c-.284-1.616-1.61-2.942-3.225-3.224-1.183-.206-2.376.111-3.284.874-.908.762-1.428 1.879-1.428 3.063 0 .828.671 1.5 1.5 1.5s1.5-.672 1.5-1.5c0-.296.13-.575.357-.767.134-.112.42-.29.837-.216.382.066.721.406.788.789.094.534-.212.911-.5 1.07-1.241.683-1.982 2.378-1.982 3.623 0 .828.671 1.5 1.5 1.5s1.5-.672 1.5-1.5c0-.315.269-.876.43-.995 1.499-.827 2.306-2.522 2.008-4.218zm8.032-2.241c0-1.12-.369-2.635-2-3.857.082-1.938-1.228-3.537-3.179-4.027-.513-1.85-2.068-3.162-3.957-3.162-1.094 0-2.082.419-2.849 1.085-.767-.666-1.755-1.085-2.849-1.085-1.889 0-3.445 1.312-3.957 3.161-1.951.49-3.261 2.089-3.179 4.027-1.631 1.223-2 2.737-2 3.857 0 .838.197 1.647.577 2.386-.38.739-.577 1.548-.577 2.387 0 1.697.803 3.182 2.225 4.159.714 2.027 2.488 3.628 4.505 3.998.795.151 1.6-.385 1.746-1.205.149-.815-.391-1.597-1.206-1.746-1.066-.195-2.038-1.188-2.309-2.362-.097-.421-.372-.78-.753-.984-.802-.43-1.208-1.055-1.208-1.859 0-.655.286-1.146.526-1.443.445-.551.445-1.336 0-1.887-.24-.297-.526-.788-.526-1.442 0-.486.14-1.123 1.235-1.738.473-.266.765-.766.765-1.308v-1c0-.791.981-1 1.5-1 .829 0 1.5-.672 1.5-1.5 0-.728.398-1.5 1.136-1.5.682 0 1.235.508 1.333 1.163v2.336c-.001.839.692 1.5 1.53 1.5.974 0 1.5-.672 1.5-1.5v-2.336c.099-.655.652-1.164 1.334-1.164.737 0 1.136.772 1.136 1.5 0 .828.672 1.5 1.5 1.5.519 0 1.5.209 1.5 1v1c0 .542.292 1.042.765 1.308 1.095.615 1.235 1.252 1.235 1.738 0 .654-.286 1.145-.526 1.443-.444.55-.444 1.335 0 1.885.24.298.526.789.526 1.444 0 .805-.406 1.43-1.208 1.859-.382.204-.656.563-.754.984-.27 1.168-1.232 2.163-2.289 2.364-.813.155-1.348.941-1.192 1.755.152.819.961 1.349 1.755 1.192 2.032-.389 3.759-1.958 4.466-3.998 1.421-.977 2.223-2.46 2.223-4.157 0-.839-.197-1.647-.577-2.387.38-.738.577-1.548.577-2.386z"/></svg>