<svg id="Layer_1" viewBox="0 0 24 24" xmlns="http://www.w3.org/2000/svg" data-name="Layer 1"><path d="m23.87 11.912c-.215 1.066-1.549 1.448-2.332.695l-3.044-2.98-1.934 1.934c-.586.586-1.535.586-2.121 0s-.586-1.535 0-2.121l1.912-1.912-2.364-2.315c-.809-.778-.82-2.068-.024-2.859l.775-.771c.758-.754 1.974-.779 2.762-.057l4.22 4.023c2.328 2.381 2.478 4.738 2.15 6.363zm-16.221-4.384 2.364-2.315c.809-.778.82-2.068.024-2.859l-.775-.771c-.758-.754-1.974-.779-2.762-.057l-4.22 4.023c-2.328 2.381-2.478 4.737-2.15 6.363.215 1.066 1.549 1.448 2.332.695l3.044-2.98 12.934 12.934c.586.586 1.535.586 2.121 0s.586-1.535 0-2.121zm-.209 8.912-4 4c-.586.586-.586 1.535 0 2.121s1.535.586 2.121 0l4-4c.586-.586.586-1.535 0-2.121s-1.535-.586-2.121 0z"/></svg>