<svg id="Layer_1" viewBox="0 0 24 24" xmlns="http://www.w3.org/2000/svg" data-name="Layer 1"><path d="m18.5 0h-13c-3.033 0-5.5 2.467-5.5 5.5v11c0 3.033 2.468 5.5 5.5 5.5h3c.828 0 1.5-.671 1.5-1.5s-.672-1.5-1.5-1.5h-3c-1.379 0-2.5-1.122-2.5-2.5v-9.5h18v6.5c0 .829.672 1.5 1.5 1.5s1.5-.671 1.5-1.5v-8c0-3.033-2.468-5.5-5.5-5.5zm-14 5c-.828 0-1.5-.672-1.5-1.5s.672-1.5 1.5-1.5 1.5.672 1.5 1.5-.672 1.5-1.5 1.5zm5 0c-.828 0-1.5-.672-1.5-1.5s.672-1.5 1.5-1.5 1.5.672 1.5 1.5-.672 1.5-1.5 1.5zm14.5 15.708v1.292c0 1.105-.895 2-2 2h-5.699c-.517 0-1.015-.201-1.387-.559l-2.328-2.242c-.859-.859-.773-2.305.257-3.047.808-.582 1.943-.411 2.647.294l.51.525v-6.471c0-.828.672-1.5 1.5-1.5s1.5.672 1.5 1.5v3.5s2.486.994 2.486.994c1.519.607 2.514 2.078 2.514 3.714zm-14-10.708v.641c1.564.405 2.743 1.724 2.95 3.359 0 0 1.05 0 1.05 1 0 .552-.448 1-1 1h-8c-.552 0-1-.448-1-1 0-1 1.05-1 1.05-1 .206-1.635 1.386-2.954 2.95-3.359v-.641c0-.552.448-1 1-1s1 .448 1 1z"/></svg>