<svg id="Layer_1" viewBox="0 0 24 24" xmlns="http://www.w3.org/2000/svg" data-name="Layer 1"><path d="m12 3c0-1.657 1.343-3 3-3s3 1.343 3 3c0-1.657 1.343-3 3-3s3 1.343 3 3c0 2.631-3.391 5.403-5.074 6.688-.546.417-1.306.417-1.851 0-1.684-1.284-5.074-4.057-5.074-6.688zm10.5 7c-.829 0-1.5.672-1.5 1.5v7.013c0 1.379-1.122 2.5-2.5 2.5h-13c-1.378 0-2.5-1.121-2.5-2.5v-7.222l5.111 5.11c1.072 1.072 2.48 1.608 3.889 1.608s2.817-.536 3.889-1.608l1.884-1.884c.586-.586.586-1.535 0-2.121s-1.536-.586-2.122 0l-1.884 1.884c-.975.975-2.562.975-3.536 0l-6.93-6.931c.42-.791 1.243-1.337 2.199-1.337h3.064c.829 0 1.5-.672 1.5-1.5s-.671-1.5-1.5-1.5h-3.064c-3.033.001-5.5 2.468-5.5 5.501v10c0 3.032 2.467 5.487 5.5 5.487h13c3.033 0 5.5-2.455 5.5-5.487v-7.013c0-.828-.671-1.5-1.5-1.5z"/></svg>