<svg id="Layer_1" viewBox="0 0 24 24" xmlns="http://www.w3.org/2000/svg" data-name="Layer 1"><path d="m9 0c-7.438 0-9 2.175-9 4v16c0 1.825 1.562 4 9 4s9-2.175 9-4v-16c0-1.825-1.562-4-9-4zm0 21c-4.163 0-5.717-.767-6-1.086v-14.686c1.21.472 3.175.772 6 .772s4.79-.3 6-.772v14.686c-.283.319-1.838 1.086-6 1.086zm15-9c0 .828-.672 1.5-1.5 1.5h-1c-.828 0-1.5-.672-1.5-1.5s.672-1.5 1.5-1.5h1c.828 0 1.5.672 1.5 1.5zm-4.803-3.827c-.411-.72-.161-1.636.559-2.047l1-.571c.717-.408 1.635-.161 2.047.559.411.72.161 1.636-.559 2.047l-1 .571c-.706.406-1.633.167-2.047-.559zm3.605 9.714c-.414.726-1.341.965-2.047.559l-1-.571c-.72-.411-.97-1.327-.559-2.047.412-.72 1.33-.967 2.047-.559l1 .571c.72.411.97 1.327.559 2.047zm-12.964-4.396s2.014 1.263 2.055 1.3c.144.127.58.514.58 1.126 0 .272-.091.678-.523 1.061l-2.354 1.757c-.331.302-.91.346-1.335.148-.462-.207-.761-.661-.761-1.155v-2.002l-.409.3c-.442.325-1.069.232-1.398-.216-.326-.445-.229-1.071.216-1.397l1.245-.912-1.245-.911c-.446-.326-.543-.951-.217-1.397.326-.445.952-.544 1.397-.216l.41.3v-2.002c0-.494.299-.948.761-1.155.444-.201.958-.142 1.332.146 0 0 2.306 1.556 2.339 1.586.366.325.55.698.549 1.108s-.188.78-.553 1.101c-.031.027-2.09 1.432-2.09 1.432z"/></svg>