<svg id="Layer_1" viewBox="0 0 24 24" xmlns="http://www.w3.org/2000/svg" data-name="Layer 1"><path d="m21.668 1.383c-1.161-.94-2.65-1.379-4.144-1.379-1.505 0-2.949.598-4.013 1.663l-1.195 1.195c-.658.658-1.135 1.5-1.25 2.424-.157 1.26.264 2.472 1.141 3.349l3.829 3.829c-3.383 3.276-6.077 5.452-8.111 6.79-.351-1.85-1.974-3.254-3.925-3.254-.347 0-.678.058-1 .142v-14.642c0-.829-.671-1.5-1.5-1.5s-1.5.671-1.5 1.5v18.5c0 2.209 1.791 4 4 4 3.087 0 8.125-3.438 14.968-10.208.103-.062 3.198-3.135 3.198-3.135 2.589-2.589 2.424-6.907-.498-9.274zm-17.668 19.617c-.551 0-1-.449-1-1s.449-1 1-1 1 .449 1 1-.449 1-1 1zm16.057-12.477-1.88 1.839-1.209-1.208 1.593-1.593c.586-.585.586-1.536 0-2.121-.586-.586-1.535-.586-2.121 0l-1.593 1.593-.519-.519c-.392-.392-.392-1.029 0-1.421l1.14-1.14c.611-.611 1.424-.948 2.289-.948.865 0 1.678.337 2.289.949 1.263 1.264 1.262 3.319.011 4.57z"/></svg>