<svg id="Layer_1" viewBox="0 0 24 24" xmlns="http://www.w3.org/2000/svg" data-name="Layer 1"><path d="m20.222 5.111-2.504-1.414c-1.064-.602-2.385-.601-3.447.001l-2.496 1.414c-1.095.62-1.775 1.787-1.775 3.045v2.905c0 1.253.676 2.417 1.763 3.038l2.517 1.438c.519.297 1.109.456 1.707.461.601.005 1.199-.146 1.728-.439l2.485-1.38c1.111-.617 1.801-1.79 1.801-3.061v-2.962c0-1.259-.681-2.427-1.778-3.047zm-4.472 1.198c.152-.086.34-.086.492 0l1.665.941-1.906 1.089-1.909-1.091zm-2.499 5.188c-.155-.089-.251-.255-.251-.434v-2.136l2 1.143v2.426l-1.748-.999zm5.491.061-1.743.968v-2.454l2-1.143v2.192c0 .182-.099.349-.258.437zm-2.245 6.443h-11.499v-12.501c0-1.378 1.122-2.5 2.5-2.5h5c.829 0 1.5-.671 1.5-1.5s-.671-1.5-1.5-1.5h-5c-3.033 0-5.5 2.467-5.5 5.5v13.5c0 2.761 2.238 5 5 5h6c2.593 0 4.749-1.973 5-4.5.016-.164 0-1.5-1.5-1.5zm-5.5 4h-2c-.552 0-1-.448-1-1s.448-1 1-1h2c.552 0 1 .448 1 1s-.448 1-1 1z"/></svg>