<svg id="Layer_1" viewBox="0 0 24 24" xmlns="http://www.w3.org/2000/svg" data-name="Layer 1"><path d="m19.217 6.572-12.441-3.407c-2.935-.733-5.925 1.056-6.666 3.988-.445 1.584.627 3.381 2.214 3.743l.676.183v1.921c0 1.105.895 2 2 2h10v3h-13.5c-.829 0-1.5.672-1.5 1.5s.671 1.5 1.5 1.5h19c1.93 0 3.5-1.57 3.5-3.5v-4.659c0-2.919-1.967-5.498-4.783-6.269zm-13.201-.505 12.408 3.398c1.499.411 2.547 1.772 2.571 3.322l-17.885-4.787c-.01-.002-.082-.11-.092-.112.337-1.333 1.696-2.146 2.998-1.821zm11.984 10.433c0-.828.672-1.5 1.5-1.5s1.5.672 1.5 1.5-.672 1.5-1.5 1.5-1.5-.672-1.5-1.5z"/></svg>