<svg id="Layer_1" viewBox="0 0 24 24" xmlns="http://www.w3.org/2000/svg" data-name="Layer 1"><path d="m17.5 15.001c.511 0 1.008-.053 1.495-.14.049 1.949-1.549 3.557-3.495 3.555-1.904 0-3.445-1.522-3.491-3.415zm5-1.001c-.828 0-1.5.671-1.5 1.5v3c0 1.378-1.121 2.5-2.5 2.5h-13c-1.379 0-2.5-1.122-2.5-2.5v-7c.005-1.368 1.128-2.499 2.5-2.5h2c.828 0 1.5-.671 1.5-1.5s-.672-1.5-1.5-1.5h-.208l3.295-3.466c.571-.6.547-1.55-.054-2.121s-1.55-.547-2.12.054l-7.094 7.469c-.82.961-1.319 2.204-1.319 3.564v7c0 3.033 2.468 5.5 5.5 5.5h13c3.032 0 5.5-2.467 5.5-5.5v-3c0-.829-.672-1.5-1.5-1.5zm-16 0h1c.828 0 1.5-.671 1.5-1.5s-.672-1.5-1.5-1.5h-1c-.828 0-1.5.671-1.5 1.5s.672 1.5 1.5 1.5zm0 5h2c.828 0 1.5-.671 1.5-1.5s-.672-1.5-1.5-1.5h-2c-.828 0-1.5.671-1.5 1.5s.672 1.5 1.5 1.5zm4.5-8.499v-4c0-3.59 2.91-6.501 6.5-6.501s6.5 2.91 6.5 6.5-2.91 6.499-6.5 6.499h-4c-1.381 0-2.5-1.118-2.5-2.499zm7.5-.501c0-.552-.448-1-1-1s-1 .448-1 1 .448 1 1 1 1-.448 1-1zm-4-5c0 .552.448 1 1 1s1-.449 1-1 .449-1 1-1 1 .449 1 1c0 .356-.192.688-.485.859-.092.043-.409.117-.653.151-.547.076-.928.581-.852 1.128.07.5.498.862.989.862.379-.029.996-.132 1.503-.402.924-.536 1.498-1.531 1.498-2.598 0-1.654-1.346-3-3-3s-3 1.346-3 3z"/></svg>