<?xml version="1.0" encoding="UTF-8"?>
<svg xmlns="http://www.w3.org/2000/svg" id="Layer_1" data-name="Layer 1" viewBox="0 0 24 24">
  <path d="M19.309,10.01c-2.089-.127-3.932,1.166-4.845,3.049-.643,1.327-.537,2.507-.171,3.565,0,0-.315,.376-.315,.876v1.5h-1.184c-.451,0-.816,.365-.816,.816v1.184h-1.163c-.451,0-.816,.365-.816,.816v1.136c0,.579,.469,1.048,1.048,1.048h.935c.398,0,.779-.158,1.06-.44l3.973-3.973c.948,.411,2.044,.544,3.193,.267,1.885-.454,3.373-2.035,3.71-3.945,.538-3.055-1.7-5.723-4.611-5.9Zm.691,5.491c-.828,0-1.5-.672-1.5-1.5s.672-1.5,1.5-1.5,1.5,.672,1.5,1.5-.672,1.5-1.5,1.5Zm-9.002,1.88c-.05-.827-.78-1.462-1.587-1.407-.297,.018-.602,.027-.911,.027-3.465,0-5.343-1.106-5.5-1.5,0-.007-.002-.014-.002-.021v-1.479c1.554,.66,3.531,1.001,5.502,1.001,1.151,0,2.262-.107,3.3-.319,.812-.166,1.335-.958,1.17-1.77s-.955-1.334-1.77-1.17c-.841,.172-1.75,.259-2.7,.259-3.465,0-5.343-1.106-5.5-1.5,0-.014-.004-.028-.004-.042v-1.459c1.554,.66,3.532,1.002,5.504,1.002,2.005,0,4.016-.352,5.581-1.034,.197,.599,.754,1.034,1.419,1.034,.829,0,1.5-.672,1.5-1.5v-3C17,1.546,12.724,0,8.5,0S0,1.546,0,4.5v15c0,2.195,2.61,3.879,6.502,4.376,.744,0,1.389-.553,1.486-1.31,.105-.822-.476-1.573-1.298-1.679-2.503-.319-3.6-1.176-3.69-1.388v-1.5c1.553,.659,3.529,1,5.5,1,.37,0,.733-.012,1.089-.033,.827-.049,1.458-.76,1.408-1.587ZM8.5,3c3.42,0,5.286,1.075,5.486,1.482-.223,.456-2.084,1.518-5.486,1.518-3.42,0-5.286-1.075-5.486-1.482,.223-.456,2.084-1.518,5.486-1.518Z"/>
</svg>
