<svg id="Layer_1" viewBox="0 0 24 24" xmlns="http://www.w3.org/2000/svg" data-name="Layer 1"><path d="m23.99 7.43c-.04-1.68-.7-3.26-1.9-4.46l-2.54-2.54c-.59-.59-1.54-.59-2.12 0s-.59 1.54 0 2.12l1.56 1.56v2.38c0 1.21.86 2.22 2 2.45v9.55c0 .28-.22.5-.5.5s-.5-.22-.5-.5v-1c0-1.93-1.57-3.5-3.5-3.5h-.5v-8.49c0-3.03-2.47-5.5-5.5-5.5h-5c-3.02 0-5.49 2.47-5.49 5.5v13c0 3.03 2.47 5.5 5.5 5.5h5c3.03 0 5.5-2.47 5.5-5.5v-1.5h.5c.28 0 .5.22.5.5v1c0 1.93 1.57 3.5 3.5 3.5s3.5-1.57 3.5-3.5c0-.1 0-11.04 0-11.07zm-10.99 11.07c0 1.38-1.12 2.5-2.5 2.5h-5c-1.38 0-2.5-1.12-2.5-2.5v-7.73c.61-1.04 1.41-1.98 2.17-2.77h-2.17s0-2.5 0-2.5c0-1.38 1.12-2.5 2.5-2.5h5c1.38 0 2.5 1.12 2.5 2.5v2.5h-2.17c.75.78 1.55 1.72 2.17 2.77zm-5-.5c.35 0 .68-.06 1-.14v1.14c0 .55-.45 1-1 1s-1-.45-1-1v-1.14c.32.08.65.14 1 .14zm.96-9.05c1.34 1.34 3.04 3.23 3.04 5.05s-1.28 3.41-3 3.86v-3.86c0-.55-.45-1-1-1s-1 .45-1 1v3.86c-1.72-.45-3-2-3-3.86s1.7-3.71 3.04-5.05c.53-.53 1.39-.53 1.93 0z"/></svg>