<svg id="Layer_1" viewBox="0 0 24 24" xmlns="http://www.w3.org/2000/svg" data-name="Layer 1"><path d="m20.594 18.532v2.936c0 .479.361.898.838.93.375.025.705-.181.863-.489.132-.258.409-.409.699-.409.606 0 .99.647.703 1.182-.414.772-1.222 1.3-2.155 1.318-1.401.027-2.548-1.154-2.548-2.556v-2.887c0-1.402 1.147-2.582 2.548-2.556.933.018 1.741.546 2.155 1.318.287.534-.097 1.182-.703 1.182-.29 0-.567-.151-.699-.409-.158-.308-.488-.514-.863-.489-.478.032-.838.451-.838.93zm-3.894-.932c.442 0 .8-.358.8-.8s-.358-.8-.8-.8h-1.9c-.442 0-.8.358-.8.8v6.4c0 .442.358.8.8.8h1.9c.442 0 .8-.358.8-.8s-.358-.8-.8-.8h-1.101v-1.551h1.101c.442 0 .8-.358.8-.8s-.358-.8-.8-.8h-1.101v-1.65h1.101zm-4.101.7v3.4c0 1.27-1.03 2.3-2.3 2.3h-1.5c-.442 0-.8-.358-.8-.8v-6.4c0-.442.358-.8.8-.8h1.5c1.27 0 2.3 1.03 2.3 2.3zm-1.6 0c0-.386-.314-.7-.7-.7s-.7 0-.7 0v4.802s.314 0 .7 0 .7-.314.7-.7v-3.4zm7.501-16.3h-.5v-.5c0-.828-.672-1.5-1.5-1.5s-1.5.672-1.5 1.5v.5h-6v-.5c0-.828-.671-1.5-1.5-1.5s-1.5.672-1.5 1.5v.5h-.5c-3.033 0-5.5 2.468-5.5 5.5v11c0 2.511 1.697 4.701 4.126 5.326.781.208 1.623-.27 1.827-1.078.207-.802-.276-1.62-1.079-1.826-1.104-.284-1.874-1.28-1.874-2.422v-9.5h18v3.5c0 .828.672 1.5 1.5 1.5s1.5-.672 1.5-1.5v-5c0-3.032-2.468-5.5-5.5-5.5z"/></svg>