<svg id="Layer_1" viewBox="0 0 24 24" xmlns="http://www.w3.org/2000/svg" data-name="Layer 1"><path d="m19 3.261v-1.761c0-.828-.671-1.5-1.5-1.5s-1.5.672-1.5 1.5v.525c-.165-.015-.331-.025-.5-.025h-7c-.169 0-.335.01-.5.025v-.525c0-.828-.671-1.5-1.5-1.5s-1.5.672-1.5 1.5v1.761c-1.221 1.01-2 2.535-2 4.239v9c0 1.704.779 3.229 2 4.239v1.761c0 .828.671 1.5 1.5 1.5s1.5-.672 1.5-1.5v-.525c.165.015.331.025.5.025h7c.169 0 .335-.01.5-.025v.525c0 .828.671 1.5 1.5 1.5s1.5-.672 1.5-1.5v-1.761c1.221-1.01 2-2.535 2-4.239v-9c0-1.704-.779-3.229-2-4.239zm-10.5 15.739c-1.378 0-2.5-1.121-2.5-2.5v-9c0-1.379 1.122-2.5 2.5-2.5h7c1.378 0 2.5 1.121 2.5 2.5v9c0 1.379-1.122 2.5-2.5 2.5zm7.823-11.286c.46.459.677 1.064.677 1.667 0 3.333-4.524 7.619-7.619 7.619-.603 0-1.208-.218-1.667-.677l-.435-.5c-.372-.372-.372-.975 0-1.347l1.085-.833c.372-.372.975-.372 1.347 0l.891.709c1.726-.659 2.999-1.88 3.75-3.75l-.709-.891c-.372-.372-.372-.975 0-1.347l.833-1.085c.372-.372.975-.372 1.347 0z"/></svg>