<svg id="Layer_1" viewBox="0 0 24 24" xmlns="http://www.w3.org/2000/svg" data-name="Layer 1"><path d="m10.04 10.79 1.97 1.97 2.05-2.05c1.25-1.25 2.97-1.77 4.64-1.63.21-.66.32-1.36.32-2.08 0-3.86-3.13-7-6.99-7s0 0 0 0c-3.86 0-7 3.14-7 7 0 .71.11 1.39.3 2.04 1.69-.14 3.43.46 4.73 1.75zm5.52-6.13.63-.37c.51.78.81 1.71.81 2.71 0 .18-.03.35-.05.53l-1.01-.37c-.27-.1-.48-.33-.55-.61l-.23-.91c-.09-.38.07-.77.4-.97zm-3.74-2.64c-.1.15-.18.28-.25.39-.09.14-.09.31 0 .45l.52.87c.13.22.1.49-.08.67-.17.17-.42.21-.63.1l-.57-.29c-.14-.07-.31-.04-.43.07l-.34.34c-.18.18-.17.49.04.65l.94.74h.6c.26 0 .52.07.75.19l1.57.86c.24.13.34.43.22.68l-1.29 2.73c-.16.35-.53.56-.91.54-.52 0-.94-.42-.94-.94v-1.56l-.54-.54c-.29-.29-.46-.69-.46-1.1v-.85h-1.36c-.41 0-.79-.17-1.06-.48l-.24-.27c.69-1.84 2.43-3.16 4.49-3.23zm12.18 3.98v11.51c0 2-.78 3.89-2.2 5.3l-.74.74c-.59.59-1.54.59-2.12 0s-.59-1.54 0-2.12l.74-.74c.88-.88 1.35-2.07 1.32-3.32l-2.43 2.41c-.59.58-1.54.58-2.12 0-.58-.59-.58-1.54 0-2.12l2.42-2.41c.19-.32.15-.75-.12-1.02-.32-.32-.86-.32-1.17 0l-4.01 4.01c.28.78.43 1.59.43 2.44v1.81c0 .83-.67 1.5-1.5 1.5s-1.5-.67-1.5-1.5v-1.81c0-1.25-.53-2.4-1.63-3.49l-2.88-2.88c-.32-.32-.82-.4-1.14-.18-.41.32-.44.73-.24 1.11l2.45 2.43c.59.58.59 1.53 0 2.12-.58.59-1.53.59-2.12 0l-2.46-2.44c-.03 1.25.43 2.43 1.32 3.32l.74.74c.59.59.59 1.54 0 2.12s-1.54.59-2.12 0l-.74-.74c-1.42-1.42-2.2-3.3-2.2-5.3v-11.49c0-1.17 1.01-2.11 2.21-1.99 1.04.11 1.79 1.06 1.79 2.11v5.36c1.48-.81 3.36-.54 4.62.72l2.88 2.88c.17.17.33.35.49.53l3.48-3.48c1.23-1.23 3.08-1.43 4.54-.64v-5.37c0-1.05.75-2 1.79-2.11 1.2-.12 2.21.82 2.21 1.99z"/></svg>