<svg id="Layer_1" viewBox="0 0 24 24" xmlns="http://www.w3.org/2000/svg" data-name="Layer 1"><path d="m5.985 20.322c.118.82-.452 1.58-1.272 1.697-.664.096-1.568.516-1.857 1.124-.356.755-1.267 1.063-1.998.712-.749-.355-1.067-1.25-.712-1.999.721-1.519 2.48-2.568 4.141-2.806.819-.125 1.581.451 1.698 1.271zm13.728-1.271c1.662.237 3.42 1.287 4.141 2.806.355.749.037 1.644-.712 1.999-.731.351-1.642.043-1.998-.712-.289-.608-1.194-1.028-1.857-1.124-.82-.117-1.39-.877-1.272-1.697.117-.82.878-1.396 1.698-1.271zm-15.213-8.051c-1.657 0-3 1.343-3 3s1.343 3 3 3 3-1.343 3-3-1.343-3-3-3zm18 3c0-1.657-1.343-3-3-3s-3 1.343-3 3 1.343 3 3 3 3-1.343 3-3zm-10.5 0c1.657 0 3-1.343 3-3s-1.343-3-3-3-3 1.343-3 3 1.343 3 3 3zm0 2c-2.757 0-5 2.243-5 5v1.5c0 .828.671 1.5 1.5 1.5s1.5-.672 1.5-1.5v-1.5c0-1.103.897-2 2-2s2 .897 2 2v1.5c0 .828.672 1.5 1.5 1.5s1.5-.672 1.5-1.5v-1.5c0-2.757-2.243-5-5-5zm4.5-10h1.5v1.5c0 .828.672 1.5 1.5 1.5s1.5-.672 1.5-1.5v-1.5h1.5c.828 0 1.5-.672 1.5-1.5s-.672-1.5-1.5-1.5h-1.5v-1.5c0-.828-.672-1.5-1.5-1.5s-1.5.672-1.5 1.5v1.5h-1.5c-.828 0-1.5.672-1.5 1.5s.672 1.5 1.5 1.5z"/></svg>