<svg id="Layer_1" viewBox="0 0 24 24" xmlns="http://www.w3.org/2000/svg" data-name="Layer 1"><path d="m17.5 0h-11c-3.033 0-5.5 2.467-5.5 5.5v13c0 3.032 2.467 5.5 5.5 5.5h11c3.033 0 5.5-2.468 5.5-5.5v-13c0-3.033-2.467-5.5-5.5-5.5zm-11 3h11c1.378 0 2.5 1.122 2.5 2.5v2.5h-16v-2.5c0-1.378 1.122-2.5 2.5-2.5zm11 18h-.257c.458-.825.757-2.078.757-3.5 0-2.485-.895-4.5-2-4.5-.289 0-.562.144-.81.392.515 1.089.81 2.494.81 4.108 0 1.333-.211 2.512-.571 3.5h-2.186c.458-.825.757-2.078.757-3.5 0-2.485-.895-4.5-2-4.5-.289 0-.562.144-.81.392.515 1.089.81 2.494.81 4.108 0 1.333-.211 2.512-.571 3.5h-2.186c.458-.825.757-2.078.757-3.5 0-2.485-.895-4.5-2-4.5s-2 2.015-2 4.5c0 1.422.299 2.675.757 3.5h-.257c-1.378 0-2.5-1.121-2.5-2.5v-7.5h16v7.5c0 1.379-1.122 2.5-2.5 2.5zm-4.5-15.5c0-.828.672-1.5 1.5-1.5s1.5.672 1.5 1.5-.672 1.5-1.5 1.5-1.5-.672-1.5-1.5zm-5 0c0-.828.672-1.5 1.5-1.5s1.5.672 1.5 1.5-.672 1.5-1.5 1.5-1.5-.672-1.5-1.5z"/></svg>