<svg id="Layer_1" viewBox="0 0 24 24" xmlns="http://www.w3.org/2000/svg" data-name="Layer 1"><path d="m23.985 15.084c-.005-.832-.07-1.667-.202-2.485l-1.276-7.967c-.392-2.454-2.382-4.355-4.837-4.622-.817-.09-1.565.513-1.656 1.337-.09.823.506 1.564 1.33 1.654 1.114.122 2.018.982 2.198 2.105l1.05 6.555c-3.406-.444-6.218-.66-8.592-.66s-5.185.216-8.591.66c-.009.001-.018.005-.027.006l1.051-6.561c.181-1.129 1.091-1.99 2.214-2.105.825-.084 1.426-.821 1.341-1.645s-.824-1.431-1.647-1.347c-2.475.253-4.479 2.154-4.874 4.623l-1.276 7.967c-.136.851-.206 1.719-.206 2.58l.096.956.685 4.105c.363 2.178 2.232 3.759 4.444 3.759h1.543c1.613 0 3.112-.869 3.912-2.267l.837-1.462c.144-.252.374-.29.498-.29h.001c.125 0 .355.038.499.29l.836 1.461c.8 1.398 2.299 2.267 3.912 2.267h1.573c2.184 0 4.049-1.558 4.435-3.702.229-1.274.503-2.846.717-4.259l.012-.954zm-5.164 5.915h-1.573c-.537 0-1.037-.29-1.304-.756l-.836-1.461c-.645-1.128-1.806-1.801-3.107-1.801h-.002c-1.3 0-2.461.674-3.105 1.801l-.836 1.462c-.267.466-.767.756-1.304.756h-1.543c-.737 0-1.36-.526-1.481-1.252l-.685-4.106c-.09-.475.274-.955.754-1.008 3.276-.427 5.959-.634 8.202-.634 2.263 0 4.974.211 8.291.646.501.051.751.519.707.98-.209 1.378-.476 2.903-.699 4.142-.128.714-.749 1.232-1.478 1.232zm-10.589-11.999h7.536c.985 0 1.599-1.067 1.103-1.917l-3.768-6.451c-.493-.843-1.713-.843-2.205 0l-3.768 6.451c-.496.85.117 1.917 1.103 1.917zm2.767-5.999c0-.552.448-1 1.001-1s1.001.448 1.001 1v1c0 .552-.448 1-1.001 1s-1.001-.448-1.001-1zm1.001 2.999c.553 0 1.001.448 1.001 1s-.448 1-1.001 1-1.001-.448-1.001-1 .448-1 1.001-1z"/></svg>