<svg id="Layer_1" viewBox="0 0 24 24" xmlns="http://www.w3.org/2000/svg" data-name="Layer 1"><path d="m24 18.664v.336s0 2-2 2-2-2-2-2v-.336s.842-2.664.842-2.664h-1.842v6h2c.552 0 1 .448 1 1s-.448 1-1 1h-6c-.552 0-1-.448-1-1s.448-1 1-1h2v-6h-1.842l.842 2.664v.336s0 2-2 2-2-2-2-2v-.336l1.054-3.276c.266-.827 1.035-1.388 1.904-1.388h2.042c0-.552.448-1 1-1s1 .448 1 1h2.042c.869 0 1.638.561 1.904 1.388zm-13 3.836c0 .829-.671 1.5-1.5 1.5h-5c-2.506.008-4.5-2-4.5-4.5v-14c0-3.033 2.467-5.5 5.5-5.5h11c3.033 0 5.5 2.467 5.5 5.5v4c0 .829-.671 1.5-1.5 1.5s-1.5-.671-1.5-1.5v-4c0-1.378-1.122-2.5-2.5-2.5h-7.5v12c.829 0 1.5.671 1.5 1.5s-.671 1.5-1.5 1.5h-4.5c-.827 0-1.5.673-1.5 1.5s.673 1.5 1.5 1.5h5c.829 0 1.5.671 1.5 1.5zm-8-17v9.776c.471-.168.971-.276 1.5-.276h1.5v-12h-.5c-1.378 0-2.5 1.122-2.5 2.5z"/></svg>