<?xml version="1.0" encoding="UTF-8"?>
<svg xmlns="http://www.w3.org/2000/svg" id="Layer_1" data-name="Layer 1" viewBox="0 0 24 24">
  <path d="m9.5,21h-2.505c-1.478,0-2.754-1.103-2.969-2.564l-1.006-6.863c-.029-.197.061-.335.116-.4.056-.064.179-.173.378-.173h18.985c.829,0,1.5-.671,1.5-1.5s-.671-1.5-1.5-1.5h-1.56C20.436,3.506,16.621,0,12,0S3.534,3.532,3.053,8.05c-.842.113-1.623.51-2.186,1.161-.666.77-.963,1.789-.815,2.796l1.007,6.863c.429,2.924,2.981,5.129,5.937,5.129h2.505c.829,0,1.5-.672,1.5-1.5s-.671-1.5-1.5-1.5ZM12,3c2.964,0,5.426,2.166,5.908,5H6.092c.482-2.834,2.944-5,5.908-5Zm6,9c-3.314,0-6,2.686-6,6s2.686,6,6,6,6-2.686,6-6-2.686-6-6-6Zm3,7h-2v2c0,.552-.448,1-1,1s-1-.448-1-1v-2h-2c-.552,0-1-.448-1-1s.448-1,1-1h2v-2c0-.552.448-1,1-1s1,.448,1,1v2h2c.552,0,1,.448,1,1s-.448,1-1,1Z"/>
</svg>
