<svg id="Layer_1" viewBox="0 0 24 24" xmlns="http://www.w3.org/2000/svg" data-name="Layer 1"><path d="m22.769 6.734c-.956-1.102-2.341-1.734-3.8-1.734h-13.938c-1.459 0-2.844.632-3.8 1.734s-1.386 2.563-1.18 4.007l.628 4.395c.314 2.203 2.229 3.864 4.455 3.864h1.625c1.61 0 3.107-.869 3.907-2.267l.827-1.446c.146-.256.381-.295.508-.295s.361.039.508.295l.827 1.446c.799 1.398 2.296 2.267 3.907 2.267h1.625c2.225 0 4.14-1.661 4.455-3.864l.628-4.395c.207-1.444-.224-2.905-1.18-4.007zm-1.79 3.583-.628 4.395c-.105.734-.743 1.288-1.485 1.288h-1.625c-.537 0-1.036-.29-1.302-.755l-.827-1.446c-.646-1.131-1.81-1.807-3.112-1.807s-2.466.675-3.112 1.807l-.827 1.446c-.267.466-.766.755-1.302.755h-1.625c-.742 0-1.38-.554-1.485-1.288l-.628-4.395c-.015-.107-.013-.212-.012-.317h3.491c.829 0 1.5-.671 1.5-1.5v-.5h10.969c.598 0 1.142.249 1.534.7.392.452.561 1.026.476 1.618z"/></svg>