<svg id="Layer_1" viewBox="0 0 24 24" xmlns="http://www.w3.org/2000/svg" data-name="Layer 1"><path d="m16.953 22.001c.206.802-.277 1.62-1.08 1.826-.447.114-.909.173-1.373.173h-7c-3.033 0-5.5-2.468-5.5-5.5v-8c0-.828.671-1.5 1.5-1.5s1.5.672 1.5 1.5v8c0 1.379 1.122 2.5 2.5 2.5h7c.212 0 .423-.026.627-.079.805-.206 1.62.277 1.826 1.08zm-6.953-4.501c0-.828-.672-1.5-1.5-1.5s-1.5.672-1.5 1.5.672 1.5 1.5 1.5 1.5-.672 1.5-1.5zm13.561 6.061c-.586.586-1.535.586-2.121 0l-21.001-21c-.585-.586-.585-1.536 0-2.122s1.536-.585 2.122 0l1.117 1.117c1.012-.98 2.374-1.556 3.823-1.556h7c2.512 0 4.631 1.695 5.287 4h.713c.828 0 1.5.672 1.5 1.5v13c0 .383-.148.729-.385.994l1.945 1.945c.586.586.586 1.535 0 2.121zm-17.758-19.879 1.703 1.703c.265-.237.611-.385.994-.385h5c.828 0 1.5.672 1.5 1.5v1c0 .828-.672 1.5-1.5 1.5h-2.379l2.041 2.041c.109-.025.221-.041.338-.041.828 0 1.5.672 1.5 1.5 0 .117-.016.229-.041.338l2.041 2.041v-9.379c0-1.379-1.121-2.5-2.5-2.5h-7c-.642 0-1.241.256-1.697.682z"/></svg>