<svg id="Layer_1" viewBox="0 0 24 24" xmlns="http://www.w3.org/2000/svg" data-name="Layer 1"><path d="m24 5.5v8c0 3.032-2.468 5.5-5.5 5.5h-5v2h3c.828 0 1.5.672 1.5 1.5s-.672 1.5-1.5 1.5h-9c-.828 0-1.5-.672-1.5-1.5s.672-1.5 1.5-1.5h3v-2h-5c-3.032 0-5.5-2.468-5.5-5.5v-8c0-1.341.488-2.633 1.375-3.638.548-.623 1.495-.682 2.117-.133.621.548.681 1.496.133 2.117-.403.457-.625 1.044-.625 1.653v8.001c0 1.379 1.121 2.5 2.5 2.5h13c1.379 0 2.5-1.121 2.5-2.5v-8c0-.575-.189-1.115-.548-1.561-.519-.646-.415-1.59.23-2.109.647-.519 1.591-.415 2.109.23.779.97 1.208 2.192 1.208 3.439zm-17.024 6.5h3.069c.849 0 1.274-1.026.674-1.627l-.486-.486 1.767-1.767 1.767 1.767-.486.486c-.6.6-.175 1.627.674 1.627h3.069c.539 0 .976-.437.976-.976v-3.069c0-.849-1.026-1.274-1.627-.674l-.486.486-1.767-1.767 1.767-1.767.486.486c.6.6 1.627.175 1.627-.674v-3.069c0-.539-.437-.976-.976-.976h-3.069c-.849 0-1.274 1.026-.674 1.627l.486.486-1.767 1.767-1.767-1.767.486-.486c.6-.6.175-1.627-.674-1.627h-3.069c-.539 0-.976.437-.976.976v3.069c0 .849 1.026 1.274 1.627.674l.486-.486 1.767 1.767-1.767 1.767-.486-.486c-.6-.6-1.627-.175-1.627.674v3.069c0 .539.437.976.976.976z"/></svg>