<svg id="Layer_1" viewBox="0 0 24 24" xmlns="http://www.w3.org/2000/svg" data-name="Layer 1"><path d="m22.837 18.041c-.34-2.835-1.146-9.488-1.406-11.022-.564-3.322-2.721-4.02-4.431-4.02-.402 0-.794.05-1.177.143-.76-1.35-2.096-2.143-3.823-2.143s-3.062.793-3.823 2.143c-.383-.093-.776-.143-1.177-.143-1.71 0-3.867.697-4.431 4.02-.26 1.534-1.066 8.186-1.406 11.022-.665.153-1.163.747-1.163 1.459 0 .828.671 1.5 1.5 1.5h.443c.833 1.326 2.521 2 4.557 2h11c2.035 0 3.724-.674 4.557-2h.443c.829 0 1.5-.672 1.5-1.5 0-.712-.498-1.306-1.163-1.459zm-4.364-10.52c.235 1.386.977 7.481 1.337 10.479h-2.41c-.202-2.917-.663-9.536-.85-11.948.146-.034.296-.052.45-.052.826 0 1.24.15 1.473 1.521zm-6.473-3.521c.672 0 1.377.194 1.506 1.633.12 1.343.653 8.99.887 12.367h-4.785c.234-3.377.767-11.024.887-12.366.128-1.439.833-1.634 1.506-1.634zm-5 2c.154 0 .304.018.45.052-.187 2.411-.648 9.031-.85 11.948h-2.41c.36-2.998 1.102-9.093 1.337-10.479.232-1.371.647-1.521 1.473-1.521z"/></svg>