<?xml version="1.0" encoding="UTF-8"?>
<svg xmlns="http://www.w3.org/2000/svg" id="Layer_1" data-name="Layer 1" viewBox="0 0 24 24">
  <path d="m23.266,11.864l-.492,1.97c-.613,2.453-2.808,4.166-5.336,4.166H7.188c-1.746,0-3.237-1.306-3.469-3.037L2.182,3.434c-.032-.247-.246-.434-.495-.434h-.187c-.828,0-1.5-.671-1.5-1.5S.672,0,1.5,0h.187c1.746,0,3.237,1.306,3.469,3.037l.262,1.963h7.083c.828,0,1.5.671,1.5,1.5s-.672,1.5-1.5,1.5h-6.683l.876,6.566c.032.247.246.434.495.434h10.249c1.149,0,2.146-.779,2.426-1.894l.492-1.97c.2-.804,1.013-1.295,1.818-1.091.804.201,1.293,1.015,1.092,1.819Zm-1.145-7.864l1.439-1.439c.586-.585.586-1.536,0-2.121-.586-.586-1.535-.586-2.121,0l-1.439,1.439-1.439-1.439c-.586-.586-1.535-.586-2.121,0-.586.585-.586,1.536,0,2.121l1.439,1.439-1.439,1.439c-.586.585-.586,1.536,0,2.121.293.293.677.439,1.061.439s.768-.146,1.061-.439l1.439-1.439,1.439,1.439c.293.293.677.439,1.061.439s.768-.146,1.061-.439c.586-.585.586-1.536,0-2.121l-1.439-1.439ZM7,20c-1.105,0-2,.895-2,2s.895,2,2,2,2-.895,2-2-.895-2-2-2Zm10,0c-1.105,0-2,.895-2,2s.895,2,2,2,2-.895,2-2-.895-2-2-2Z"/>
</svg>
