<svg id="Layer_1" viewBox="0 0 24 24" xmlns="http://www.w3.org/2000/svg" data-name="Layer 1"><path d="m9.349 12.613-2.142 2.094c-.391.391-1.024.391-1.414 0l-2.142-2.094c-.603-.589-.186-1.613.657-1.613h.692v-.5c0-.829.671-1.5 1.5-1.5s1.5.671 1.5 1.5v.5h.692c.843 0 1.26 1.024.657 1.613zm6.651.387v.5c0 .828.671 1.5 1.5 1.5s1.5-.672 1.5-1.5v-.5h.692c.843 0 1.26-1.024.657-1.613l-2.142-2.094c-.391-.391-1.024-.391-1.414 0l-2.142 2.094c-.603.589-.186 1.613.657 1.613zm-7.3 4.6c.442 0 .8-.358.8-.8s-.358-.8-.8-.8h-1.4c-.442 0-.8.358-.8.8v6.4c0 .442.358.8.8.8h1.4c.442 0 .8-.358.8-.8s-.358-.8-.8-.8h-.601v-1.551h.601c.442 0 .8-.358.8-.8s-.358-.8-.8-.8h-.601v-1.65h.601zm4.5 4.8h-1.1v-5.6c0-.442-.358-.8-.8-.8s-.8.358-.8.8v6.4c0 .442.358.8.8.8h1.9c.442 0 .8-.358.8-.8s-.358-.8-.8-.8zm4 0h-.6v-5.6c0-.442-.358-.8-.8-.8s-.8.358-.8.8v6.4c0 .442.358.8.8.8h1.4c.442 0 .8-.358.8-.8s-.358-.8-.8-.8zm-3.4-14.4h1.4c.442 0 .8-.358.8-.8s-.358-.8-.8-.8h-.6v-5.6c0-.442-.358-.8-.8-.8s-.8.358-.8.8v6.4c0 .442.358.8.8.8zm-9 8c-.442 0-.8.358-.8.8v2.45h-1.4v-2.45c0-.442-.358-.8-.8-.8s-.8.358-.8.8v6.4c0 .442.358.8.8.8s.8-.358.8-.8v-2.351h1.4v2.351c0 .442.358.8.8.8s.8-.358.8-.8v-6.4c0-.442-.358-.8-.8-.8zm-2-8c.442 0 .8-.358.8-.8v-2.351h1.4v2.351c0 .442.358.8.8.8s.8-.358.8-.8v-6.4c0-.442-.358-.8-.8-.8s-.8.358-.8.8v2.45h-1.4v-2.45c0-.442-.358-.8-.8-.8s-.8.358-.8.8v6.4c0 .442.358.8.8.8zm20.2 10.3v3.4c0 1.269-1.031 2.3-2.3 2.3s-2.3-1.031-2.3-2.3v-3.4c0-1.269 1.031-2.3 2.3-2.3s2.3 1.031 2.3 2.3zm-1.6 0c0-.386-.314-.7-.7-.7s-.7.314-.7.7v3.4c0 .386.314.7.7.7s.7-.314.7-.7zm-11.6-10.3c-1.269 0-2.3-1.031-2.3-2.3v-3.4c0-1.269 1.031-2.3 2.3-2.3s2.3 1.031 2.3 2.3v3.4c0 1.269-1.031 2.3-2.3 2.3zm.7-5.7c0-.386-.314-.7-.7-.7s-.7.314-.7.7v3.4c0 .386.314.7.7.7s.7-.314.7-.7zm6.694 4.714 1.025-5.433c.103-.58.404-1.079.821-1.356.226-.15.474-.225.724-.225.215 0 .432.056.637.168.454.246.798.791.918 1.459l1.005 5.389c.095.511-.297.983-.817.983-.404 0-.749-.29-.818-.688l-.054-.311h-1.747l-.055.312c-.07.399-.418.689-.823.687-.521 0-.913-.473-.816-.985zm1.976-1.614h1.186l-.591-3.383z"/></svg>