<svg id="Layer_1" viewBox="0 0 24 24" xmlns="http://www.w3.org/2000/svg" data-name="Layer 1"><path d="m23.483 16.391c-.558 1.064-1.496 1.849-2.644 2.207l-9.873 3.237c-.766.256-1.636-.163-1.892-.959-.258-.787.171-1.634.958-1.893l9.893-3.243c.797-.23 1.258-1.107 1.003-1.884l-.145-.466-11.809 3.83c-1.162.386-2.559-.89-2.148-2.086l3.782-11.917-.466-.15c-.79-.247-1.632.194-1.879.984l-4.186 13.005c1.656.277 2.922 1.707 2.922 3.442 0 1.933-1.567 3.5-3.5 3.5s-3.499-1.565-3.499-3.498c-.02-.555.168-1.037.312-1.534l5.092-15.82c.737-2.357 3.267-3.681 5.634-2.94l.467.146c.768.24 1.396.766 1.767 1.481.104.2.178.41.235.623.655.323.996 1.081.766 1.798l-1.923 6c-.172.538-.625.895-1.143.997l-.741 2.335 2.289-.742c.086-.541.46-1.016 1.017-1.194l6.24-2c.788-.254 1.634.181 1.886.97v.004c.088.036.179.061.264.106.716.371 1.244.999 1.484 1.769l.145.465c.358 1.146.249 2.364-.309 3.429z"/></svg>