<?xml version="1.0" encoding="UTF-8"?>
<svg xmlns="http://www.w3.org/2000/svg" id="Layer_1" data-name="Layer 1" viewBox="0 0 24 24">
  <path d="M24,12c0-2.087-.538-4.051-1.479-5.762,.296-.514,.479-1.102,.479-1.738,0-1.933-1.567-3.5-3.5-3.5-.636,0-1.224,.182-1.738,.479-1.712-.941-3.675-1.479-5.762-1.479S7.949,.538,6.238,1.479c-.514-.296-1.102-.479-1.738-.479-1.933,0-3.5,1.567-3.5,3.5,0,.636,.182,1.224,.479,1.738-.941,1.711-1.479,3.675-1.479,5.762s.538,4.051,1.479,5.762c-.296,.514-.479,1.102-.479,1.738,0,1.933,1.567,3.5,3.5,3.5,.636,0,1.224-.182,1.738-.479,1.712,.941,3.675,1.479,5.762,1.479s4.051-.538,5.762-1.479c.514,.296,1.102,.479,1.738,.479,1.933,0,3.5-1.567,3.5-3.5,0-.636-.182-1.224-.479-1.738,.941-1.712,1.479-3.675,1.479-5.762ZM7.947,20.025c.026-.172,.053-.345,.053-.525,0-1.933-1.567-3.5-3.5-3.5-.18,0-.352,.027-.525,.053-.619-1.22-.975-2.594-.975-4.053s.357-2.833,.975-4.053c.172,.026,.345,.053,.525,.053,1.933,0,3.5-1.567,3.5-3.5,0-.18-.027-.352-.053-.525,1.22-.619,2.594-.975,4.053-.975s2.833,.356,4.053,.975c-.026,.172-.053,.345-.053,.525,0,1.933,1.567,3.5,3.5,3.5,.18,0,.352-.027,.525-.053,.619,1.22,.975,2.594,.975,4.053s-.356,2.833-.975,4.053c-.172-.026-.345-.053-.525-.053-1.933,0-3.5,1.567-3.5,3.5,0,.18,.027,.352,.053,.525-1.22,.619-2.594,.975-4.053,.975s-2.833-.357-4.053-.975Zm10.053-8.025c0-3.309-2.691-6-6-6s-6,2.691-6,6,2.691,6,6,6,6-2.691,6-6Zm-2.142-1h-1.286c-.058-.827-.19-1.635-.398-2.349,.825,.537,1.43,1.372,1.684,2.349Zm-3.858,5c-.5,0-.847-1.428-.968-3h1.937c-.12,1.567-.469,3-.969,3Zm-.969-5c.12-1.567,.469-3,.969-3s.847,1.428,.968,3h-1.937Zm-1.205-2.349c-.208,.714-.34,1.523-.398,2.349h-1.286c.254-.978,.859-1.812,1.685-2.349Zm-1.685,4.349h1.286c.058,.827,.19,1.635,.398,2.349-.825-.537-1.43-1.372-1.685-2.349Zm6.032,2.349c.208-.714,.34-1.523,.398-2.349h1.286c-.254,.978-.859,1.812-1.684,2.349Z"/>
</svg>
