<svg id="Layer_1" viewBox="0 0 24 24" xmlns="http://www.w3.org/2000/svg" data-name="Layer 1"><path d="m17 19.965v2.535c0 .828-.671 1.5-1.5 1.5s-1.5-.672-1.5-1.5v-.522c-.166.015-.333.022-.5.022h-7c-.169 0-.335-.01-.5-.025v.525c0 .828-.671 1.5-1.5 1.5s-1.5-.672-1.5-1.5v-1.761c-1.221-1.01-2-2.535-2-4.239v-9c0-1.704.779-3.229 2-4.239v-1.761c0-.828.671-1.5 1.5-1.5s1.5.672 1.5 1.5v.525c.165-.015.331-.025.5-.025h7c.167 0 .334.008.5.022v-.522c0-.828.671-1.5 1.5-1.5s1.5.672 1.5 1.5v2.537c0 .537-.287 1.033-.752 1.301s-1.039.266-1.502-.005c-.375-.218-.805-.333-1.245-.333h-7c-1.378 0-2.5 1.121-2.5 2.5v9c0 1.379 1.122 2.5 2.5 2.5h7c.44 0 .872-.115 1.248-.333.464-.27 1.036-.271 1.501-.002.465.268.751.764.751 1.3zm5.483-4.864c-.461.575-1.153.905-1.898.905h-.868c-.123.844-.843 1.494-1.722 1.494s-1.598-.65-1.722-1.494h-.861c-.745 0-1.436-.329-1.896-.903-.449-.56-.617-1.28-.462-1.977.16-.722.377-1.692.564-2.512.516-2.26 2.154-3.608 4.382-3.608 2.241 0 3.879 1.352 4.384 3.616l.559 2.5c.156.696-.011 1.418-.459 1.979zm-2.64-2.095-.387-1.73c-.249-1.119-.875-1.27-1.456-1.27-.576 0-1.2.151-1.457 1.276-.125.547-.263 1.162-.389 1.724h3.688z"/></svg>