<svg id="Layer_1" viewBox="0 0 24 24" xmlns="http://www.w3.org/2000/svg" data-name="Layer 1"><path d="m8.17 13c-1.025 0-1.979-.458-2.618-1.257-.636-.796-.871-1.823-.646-2.817.242-1.072.536-2.378.794-3.56.696-3.174 2.767-5.122 5.686-5.345.833-.06 1.547.556 1.61 1.381.063.826-.555 1.547-1.381 1.61-.585.045-2.367.181-2.983 2.995-.26 1.188-.555 2.501-.799 3.58-.028.253.083.386.338.413h7.659c.199 0 .288-.144.311-.188.379-.736 1.285-1.026 2.021-.646s1.025 1.284.646 2.021c-.577 1.118-1.717 1.812-2.977 1.812h-1.428c-.232 1.141-1.24 2-2.45 2s-2.218-.859-2.45-2h-1.332zm12.33 8h-12c-.829 0-1.5.671-1.5 1.5s.671 1.5 1.5 1.5h12c.829 0 1.5-.671 1.5-1.5s-.671-1.5-1.5-1.5zm-17 0c-.828 0-1.5.672-1.5 1.5s.672 1.5 1.5 1.5 1.5-.672 1.5-1.5-.672-1.5-1.5-1.5zm17-5h-12c-.829 0-1.5.671-1.5 1.5s.671 1.5 1.5 1.5h12c.829 0 1.5-.671 1.5-1.5s-.671-1.5-1.5-1.5zm-17 0c-.828 0-1.5.672-1.5 1.5s.672 1.5 1.5 1.5 1.5-.672 1.5-1.5-.672-1.5-1.5-1.5zm15-9c1.93 0 3.5-1.57 3.5-3.5s-1.57-3.5-3.5-3.5-3.5 1.57-3.5 3.5 1.57 3.5 3.5 3.5z"/></svg>