<svg id="Layer_1" viewBox="0 0 24 24" xmlns="http://www.w3.org/2000/svg" data-name="Layer 1"><path d="m24 16.5c0 1.704-.779 3.229-2 4.239v1.761c0 .828-.672 1.5-1.5 1.5s-1.5-.672-1.5-1.5v-.525c-.165.015-.331.025-.5.025h-13c-.169 0-.335-.01-.5-.025v.525c0 .828-.672 1.5-1.5 1.5s-1.5-.672-1.5-1.5v-1.761c-1.221-1.01-2-2.535-2-4.239v-9c0-3.032 2.468-5.5 5.5-5.5h1.5c.828 0 1.5.672 1.5 1.5s-.672 1.5-1.5 1.5h-1.5c-1.208 0-2.217.86-2.449 2h.449c.828 0 1.5.672 1.5 1.5s-.672 1.5-1.5 1.5h-.5v4h.5c.828 0 1.5.672 1.5 1.5s-.672 1.5-1.5 1.5h-.449c.232 1.14 1.242 2 2.449 2h13c1.379 0 2.5-1.121 2.5-2.5 0-.828.672-1.5 1.5-1.5s1.5.672 1.5 1.5zm-15.518-6.611c-.301.643-.482 1.354-.482 2.111 0 2.761 2.239 5 5 5 1.151 0 2.201-.396 3.04-1.052-3.535-.375-6.452-2.798-7.558-6.059zm1.518-2.889c0-3.866 3.134-7 7-7s7 3.134 7 7-3.134 7-7 7-7-3.134-7-7zm3-1.897c-.01 1.297.915 2.397 2.192 2.61l3.286.548c.315.052.54.331.52.655-.02.334-.315.585-.649.585h-2.35c-.367 0-.688-.199-.862-.494-.182-.31-.509-.506-.869-.506-.763 0-1.253.825-.874 1.487.518.903 1.491 1.513 2.605 1.513 0 .552.448 1 1 1s1-.448 1-1h.315c1.451 0 2.673-1.152 2.685-2.603.01-1.297-.916-2.397-2.193-2.61l-3.261-.544c-.289-.048-.523-.281-.544-.574-.026-.365.263-.67.622-.67h2.376c.367 0 .689.199.862.494.182.31.509.506.869.506.763 0 1.253-.825.874-1.487-.518-.903-1.491-1.513-2.605-1.513 0-.552-.448-1-1-1s-1 .448-1 1h-.315c-1.451 0-2.673 1.152-2.685 2.603z"/></svg>