<svg id="Layer_1" viewBox="0 0 24 24" xmlns="http://www.w3.org/2000/svg" data-name="Layer 1"><path d="m24 20c0 2.206-1.794 4-4 4h-5.5c-.829 0-1.5-.672-1.5-1.5s.671-1.5 1.5-1.5h5.5c.551 0 1-.448 1-1s-.449-1-1-1h-4.5c-.829 0-1.5-.672-1.5-1.5s.671-1.5 1.5-1.5h2.071c.788 0 1.429-.641 1.429-1.429 0-.849-.267-1.478-.606-1.934-.349.743-.894 1.362-1.894 1.362-.779 0-1.5-.499-1.5-1.499 0 0-.115-.782.756-1.397.256-.19.248-1.046.244-1.477 0-.765.751-1.303 1.475-1.057l.507.172c.163.055 3.963 1.395 4.017 5.737.013.657-.124 1.303-.379 1.873 1.399.624 2.379 2.022 2.379 3.65zm-12-2.346v2.346c0 2.206-1.794 4-4 4h-2c-2.206 0-4-1.794-4-4v-2.346c-.227-1.09-1.537-7.526-1.983-12.762-.107-1.257.32-2.51 1.171-3.437.849-.925 2.057-1.455 3.312-1.455h4.999c1.256 0 2.463.53 3.312 1.455.852.927 1.279 2.18 1.171 3.437-.446 5.236-1.756 11.672-1.983 12.762zm-8.994-13.017c.349 4.095 1.279 9.113 1.721 11.363h4.546c.442-2.25 1.372-7.268 1.721-11.363.037-.429-.103-.838-.392-1.153-.287-.312-.679-.484-1.103-.484h-4.999c-.424 0-.816.172-1.103.484-.289.315-.428.725-.392 1.153zm5.994 14.363h-4v1c0 .552.449 1 1 1h2c.551 0 1-.448 1-1z"/></svg>