<svg id="Layer_1" viewBox="0 0 24 24" xmlns="http://www.w3.org/2000/svg" data-name="Layer 1"><path d="m13 13.016h-2c-4.971 0-9 4.029-9 9v.484c0 .828.672 1.5 1.5 1.5h3.936c-1.436 0-1.436-1.5-1.436-1.5v-1.5h4s0 1 1 1h2s1 .105 1-1h4s0 .672 0 1.5c0 0 .051 1.5-1.5 1.5h4c.828 0 1.5-.672 1.5-1.5v-.484c0-4.971-4.029-9-9-9zm5 5.984h-12v-1.5c0-.828.672-1.5 1.5-1.5h2.5s0 1 1 1h2s1 .105 1-1h2.5c.828 0 1.5.672 1.5 1.5s0 1.5 0 1.5zm-12.5-13h.5c0 3.309 2.691 6 6 6s6-2.691 6-6-2.691-6-6-6c-2.215 0-4.149 1.21-5.188 3h-1.312c-.829 0-1.5.672-1.5 1.5s.671 1.5 1.5 1.5zm6.5 3c-1.654 0-3-1.346-3-3h6c0 1.654-1.346 3-3 3z"/></svg>