<svg id="Layer_1" viewBox="0 0 24 24" xmlns="http://www.w3.org/2000/svg" data-name="Layer 1"><path d="m13 12.326 4-2.294v3.454c0 .766-.395 1.478-1.044 1.884l-2.956 1.843zm-4.956 3.044 2.956 1.86v-4.908l-4-2.307v3.47c0 .766.395 1.478 1.044 1.884zm7.876-7.017-2.742-1.714c-.721-.45-1.635-.45-2.356 0l-2.742 1.714 3.92 2.24zm-11.852-1.734c.42 0 .837-.175 1.134-.517.188-.216.385-.423.592-.619.6-.571.624-1.521.053-2.121-.572-.602-1.521-.623-2.121-.053-.275.263-.539.538-.789.826-.543.625-.477 1.573.149 2.116.284.247.634.367.982.367zm18.539 5.396c-.803-.12-1.584.447-1.698 1.271-.042.287-.097.569-.163.846-.192.806.304 1.615 1.109 1.808.808.195 1.615-.304 1.809-1.109.088-.366.16-.739.214-1.118.118-.82-.451-1.581-1.271-1.699zm-2.676 5.366c-.42 0-.837.175-1.134.517-.188.216-.385.423-.592.619-.6.571-.624 1.521-.053 2.121.572.602 1.521.623 2.121.053.275-.263.539-.538.789-.826.543-.625.477-1.573-.149-2.116-.284-.247-.634-.367-.982-.367zm1.9-15.019-1.264 1.264c-2.24-2.288-5.314-3.626-8.567-3.626-1.167 0-2.32.167-3.429.498-.794.237-1.245 1.072-1.009 1.866.237.795 1.071 1.243 1.866 1.009.829-.247 1.694-.373 2.571-.373 2.45 0 4.767 1.013 6.45 2.744l-1.075 1.075c-.8.8-.234 2.169.898 2.169h4.283c.798 0 1.445-.647 1.445-1.445v-4.282c0-1.132-1.368-1.699-2.169-.898zm-20.438 9.623c.803.12 1.584-.447 1.698-1.271.042-.287.097-.569.163-.846.192-.806-.304-1.615-1.109-1.808-.808-.195-1.615.304-1.809 1.109-.088.366-.16.739-.214 1.118-.118.82.451 1.581 1.271 1.699zm13.179 8.643c-.829.247-1.694.373-2.571.373-2.45 0-4.767-1.013-6.45-2.744l1.075-1.075c.8-.8.234-2.169-.898-2.169h-4.283c-.798 0-1.445.647-1.445 1.445v4.283c0 1.132 1.368 1.698 2.169.898l1.264-1.264c2.24 2.289 5.315 3.627 8.567 3.627 1.167 0 2.32-.167 3.429-.498.794-.237 1.245-1.072 1.009-1.866-.237-.795-1.073-1.246-1.866-1.009z"/></svg>