<svg id="Layer_1" viewBox="0 0 24 24" xmlns="http://www.w3.org/2000/svg" data-name="Layer 1"><path d="m15.091 10c0-2.719-1.484-4.639-4.091-5.496 0-.001 0-.003 0-.004 0-.829-.671-1.5-1.5-1.5h-.5v-1.5c0-.829-.671-1.5-1.5-1.5s-1.5.671-1.5 1.5v1.5h-.5c-.829 0-1.5.671-1.5 1.5 0 .011.003.022.003.034-2.552.87-4.003 2.778-4.003 5.466s1.451 4.596 4.003 5.466c0 .011-.003.022-.003.034 0 .828.671 1.5 1.5 1.5h.92l-.4 2.5c-.152.914.553 1.5 1.479 1.5s1.632-.586 1.479-1.5l-.49-2.5h1.01c.829 0 1.5-.672 1.5-1.5 0-.001 0-.003 0-.004 2.607-.857 4.091-2.777 4.091-5.496zm-3 0c0 1.774-1.222 2.763-3.62 2.959.288-.71.529-1.674.529-2.959s-.241-2.249-.529-2.959c2.398.196 3.62 1.185 3.62 2.959zm-9.091 0c0-1.752 1.187-2.742 3.527-2.955-.287.709-.527 1.672-.527 2.955s.24 2.245.527 2.955c-2.34-.213-3.527-1.203-3.527-2.955zm16.997 8.466c0 .011.003.022.003.034 0 .828-.672 1.5-1.5 1.5h-1.01l.49 2.5c.152.914-.553 1.5-1.479 1.5s-1.632-.586-1.479-1.5l.4-2.5h-.92c-.834.001-1.52-.69-1.497-1.526 0 0-.002 0-.003 0v-.536c-.017-1.135 1.068-2.155 2.208-2.006.382.045.797.068 1.246.068 3.017 0 4.546-1.01 4.546-3 0-.657-.004-2.5-2.781-2.914-.638-.095-1.119-.623-1.208-1.262-.086-.618-.24-1.202-.452-1.75.008-.002.017-.002.025-.004-.228-.607-.532-1.169-.909-1.679-.422-.572-.675-1.25-.675-1.961v-1.93c0-.828.672-1.5 1.5-1.5s1.5.672 1.5 1.5v4.5c.899 0 1.651.597 1.902 1.414 2.549.807 4.057 2.753 4.097 5.474 0 .015-.006.028-.006.043.001.023.007.046.007.069 0 2.688-1.451 4.595-4.003 5.466z"/></svg>