<svg id="Layer_1" viewBox="0 0 24 24" xmlns="http://www.w3.org/2000/svg" data-name="Layer 1"><path d="m9.5 18c-.828 0-1.5-.672-1.5-1.5s.672-1.5 1.5-1.5 1.5.672 1.5 1.5-.672 1.5-1.5 1.5zm2 3c-2.321 0-4.394-1.558-5.038-3.789-.089-.307-.273-.577-.526-.771-1.865-1.437-2.936-3.601-2.936-5.939 0-4.136 3.364-7.5 7.5-7.5.282 0 .562.016.836.046.826.086 1.563-.504 1.655-1.327.091-.823-.504-1.564-1.327-1.655-.382-.042-.771-.063-1.164-.063-5.79-.002-10.5 4.708-10.5 10.498 0 3.116 1.354 6.012 3.731 8.015 1.158 3.254 4.284 5.485 7.769 5.485.828 0 1.5-.672 1.5-1.5s-.672-1.5-1.5-1.5zm11.593-6.218c-.124.169-.123.463 0 .632.594.805.907 1.767.907 2.782 0 1.613-1.001 2.384-1.001 2.948 0 .248.126.544.185.66.236.465.218 1.026-.054 1.471-.272.444-.752.723-1.273.724h-3.664c-1.175 0-2.234-.66-2.765-1.723-.503-1.007-.404-2.182.259-3.066.226-.259.359-.6.362-1.014 0-.357-.115-.695-.333-.977-.951-1.229-.951-3.016.002-4.245.216-.28.331-.618.331-.975s-.115-.694-.333-.976c-.951-1.229-.951-3.015.002-4.245.216-.28.331-.618.331-.975s-.115-.694-.333-.976c-.692-.923-.791-2.098-.288-3.105.531-1.061 1.591-1.722 2.764-1.722h3.664c.525.001 1.013.277 1.283.727s.286 1.009.041 1.474c-.055.109-.181.359-.182.665-.003 1.015.993 1.716 1.001 2.938 0 1.015-.313 1.977-.907 2.783-.122.165-.122.465 0 .63.594.806.907 1.768.907 2.783s-.313 1.976-.907 2.782zm-2.416-7.975c.212-.287.323-.634.323-1.003.006-.314-.246-.769-.472-1.191-.216-.405-.517-.928-.529-1.612h-1.844c-.029 0-.052 0-.029.041.604.802.923 1.756.923 2.763 0 1.026-.331 1.998-.958 2.81-.122.157-.122.419-.002.574.629.813.96 1.785.96 2.812s-.331 1.997-.958 2.81c-.122.157-.121.42 0 .575.628.812.959 1.784.959 2.812 0 1.013-.322 1.972-.934 2.776-.017.03.01.027.052.027h1.832c.029-.815.376-1.27.646-1.848.19-.378.354-.704.354-.956 0-.37-.111-.717-.323-1.004-.908-1.235-.907-2.958 0-4.189.21-.286.322-.633.322-1.003s-.111-.717-.323-1.003c-.908-1.233-.908-2.956 0-4.189zm-11.177-.808c-1.933 0-3.5 1.567-3.5 3.5s1.567 3.5 3.5 3.5 3.5-1.567 3.5-3.5-1.567-3.5-3.5-3.5z"/></svg>