<svg id="Layer_1" viewBox="0 0 24 24" xmlns="http://www.w3.org/2000/svg" data-name="Layer 1"><path d="m18.5 0h-13c-3.033 0-5.5 2.467-5.5 5.5v7c0 3.033 2.467 5.5 5.5 5.5h5v2h-1.268c-1.246 0-2.407.67-3.031 1.749-.415.717-.17 1.635.547 2.049.716.415 1.635.169 2.049-.547.091-.157.253-.25.434-.25h5.535c.181 0 .343.094.434.25.278.48.782.75 1.3.75.255 0 .514-.065.75-.202.717-.415.962-1.333.548-2.049-.624-1.079-1.785-1.749-3.031-1.749h-1.268v-2h5c3.032 0 5.5-2.467 5.5-5.5v-7.001c0-3.033-2.468-5.5-5.5-5.5zm2.5 12.5c0 1.378-1.121 2.5-2.5 2.5h-13c-1.378 0-2.5-1.122-2.5-2.5v-7c0-1.378 1.122-2.5 2.5-2.5h13c1.379 0 2.5 1.122 2.5 2.5zm-14.5-7.5c-.873-.001-1.575.717-1.742 1.581l-1.165 5.479c-.103.484.266.939.76.939.365 0 .68-.254.759-.61l.175-.79h2.379l.165.782c.076.36.393.617.761.617.509.026.911-.437.804-.937l-1.142-5.435c-.19-.937-.859-1.621-1.753-1.627zm-.86 5 .686-3.104c.03-.149.104-.296.176-.296s.125.076.171.307l.655 3.092h-1.688zm9.032-2.553c.027-1.347-1.221-2.447-2.569-2.447h-1.104c-.552 0-1 .448-1 1v6.038c0 .552.448 1 1 1h1.49c1.186 0 2.274-.813 2.474-1.982.152-.886-.191-1.689-.786-2.212.297-.391.484-.871.495-1.397zm-3.073-.848h.674c.442 0 .8.358.8.8s-.358.8-.8.8h-.674v-1.599zm1.001 4.839h-1.001v-1.599h1.001c.442 0 .8.358.8.8s-.358.8-.8.8zm4.499-3.907v2.936c0 .479.361.898.838.93.375.025.705-.181.863-.489.132-.258.409-.409.699-.409.606 0 .99.647.703 1.182-.414.772-1.222 1.3-2.155 1.318-1.401.027-2.548-1.154-2.548-2.556v-2.887c0-1.402 1.147-2.582 2.548-2.556.933.018 1.741.547 2.155 1.318.287.534-.097 1.181-.703 1.181-.29 0-.567-.151-.699-.409-.158-.308-.488-.514-.863-.489-.478.032-.838.451-.838.93z"/></svg>