<svg id="Layer_1" viewBox="0 0 24 24" xmlns="http://www.w3.org/2000/svg" data-name="Layer 1"><path d="m13 4c0-.552-.448-1-1-1s-1 .448-1 1v3.072c0 .538-.288 1.035-.755 1.302l-.003.002.004-.008-6.958 3.982c-.423.218-.245.705.069.599.108-.037 5.639-2.007 5.639-2.007.458-.164.969-.094 1.368.188.398.281.635.738.635 1.226v8.991c0 .735-.403 1.411-1.05 1.76l-1.438.776c-1.219.45-2.512-.452-2.512-1.751 0-.805.404-1.556 1.075-2.001l.925-.674v-4.975l-3.77 1.342c-2.009.744-4.281-.887-4.23-3.013 0-1.281.699-2.459 1.824-3.072l6.176-3.536v-2.202c0-2.209 1.791-4 4-4s4 1.791 4 4v2.5c0 .828-.671 1.5-1.5 1.5s-1.5-.672-1.5-1.5v-2.5zm11 14v3c0 1.657-1.343 3-3 3h-5c-1.657 0-3-1.343-3-3v-3c0-.887.388-1.682 1-2.232v-2.268c0-2.481 2.019-4.5 4.5-4.5s4.5 2.019 4.5 4.5v2.268c.612.549 1 1.344 1 2.232zm-4 1.5c0-.828-.672-1.5-1.5-1.5s-1.5.672-1.5 1.5.672 1.5 1.5 1.5 1.5-.672 1.5-1.5zm0-6c0-.827-.673-1.5-1.5-1.5s-1.5.673-1.5 1.5v1.5h3z"/></svg>