<svg id="Layer_1" viewBox="0 0 24 24" xmlns="http://www.w3.org/2000/svg" data-name="Layer 1"><path d="m23.561 21.439-5.52-5.52c1.225-1.66 1.959-3.703 1.959-5.92 0-5.513-4.486-9.999-10-9.999s-10 4.486-10 10 4.486 10 10 10c2.217 0 4.26-.734 5.92-1.959l5.52 5.52c.586.586 1.535.586 2.121 0 .586-.585.586-1.536 0-2.121zm-10.561-7.439h-.623c-.605.616-1.445 1-2.377 1s-1.772-.384-2.377-1h-.623c0 .552-.447 1-1 1s-1-.448-1-1c0-1.001.742-1.825 1.703-1.97-.061-.353-.033-.633.023-1.03h-.726c-.553 0-1-.448-1-1s.447-1 1-1h1.145c.093-.361.185-.698.272-1h-.416c-1.103 0-2-.897-2-2 0-.552.447-1 1-1s1 .448 1 1h1.19c.398-.609.96-1 1.81-1 .896 0 1.431.318 1.837 1h1.163c0-.552.447-1 1-1s1 .448 1 1c0 1.103-.897 2-2 2h-.415c.086.302.179.639.271 1h1.144c.553 0 1 .448 1 1s-.447 1-1 1h-.726c.055.397.084.677.023 1.03.961.145 1.703.969 1.703 1.97 0 .552-.447 1-1 1s-1-.448-1-1zm-2.604-6.331c.286.849.937 3.24.937 3.998 0 .735-.598 1.333-1.333 1.333s-1.333-.598-1.333-1.333c0-.717.617-3.034.94-4.007.088-.266.169-.431.225-.529.05-.088.116-.131.169-.131.117 0 .16.081.191.145.053.111.123.277.206.523z"/></svg>