<svg id="Layer_1" viewBox="0 0 24 24" xmlns="http://www.w3.org/2000/svg" data-name="Layer 1"><path d="m24 4c0-2.206-1.794-4-4-4h-16c-2.206 0-4 1.794-4 4 0 1.005.385 1.914 1 2.618v6.382c0 6.065 4.935 11 11 11s11-4.935 11-11v-6.382c.615-.703 1-1.612 1-2.618zm-20-1h16c.551 0 1 .448 1 1s-.449 1-1 1h-16c-.551 0-1-.448-1-1s.449-1 1-1zm16 10c0 4.411-3.589 8-8 8s-8-3.589-8-8v-5h16zm-8 6c2.757 0 5-2.243 5-5s-2.243-5-5-5-5 2.243-5 5 2.243 5 5 5zm0-7c1.103 0 2 .897 2 2s-.897 2-2 2-2-.897-2-2 .897-2 2-2z"/></svg>