<?xml version="1.0" encoding="UTF-8"?>
<svg xmlns="http://www.w3.org/2000/svg" id="Layer_1" data-name="Layer 1" viewBox="0 0 24 24">
  <path d="M14.027,13c.249-2.25,2.156-4,4.473-4s4.224,1.75,4.473,4c.018,.164,.027,1-.973,1h-7c-1,0-.991-.836-.973-1ZM1.778,2.5h7.528l.126-.326c.27-.787-.287-1.615-1.118-1.661L3.24,.003C2.109-.06,1.253,1.011,1.565,2.1l.213,.4Zm16.722,5.5c1.657,0,3-1.343,3-3s-1.343-3-3-3-3,1.343-3,3,1.343,3,3,3ZM1.477,13.888l5.3-4.684c-.407-.121-.831-.204-1.278-.204-2.316,0-4.224,1.75-4.473,4-.014,.128-.016,.657,.45,.888Zm21.023,4.112h-4.5v-1.157c0-.789-.938-1.202-1.52-.669l-2.73,2.498c-.454,.407-.454,1.117,0,1.524l2.73,2.498c.582,.533,1.52,.12,1.52-.669v-1.025h4.5c.828,0,1.5-.672,1.5-1.5s-.672-1.5-1.5-1.5Zm-12.527-5c-.119-1.077-.625-2.032-1.367-2.743l-4.235,3.743h4.63c1,0,.991-.836,.973-1Zm-2.453,3.174c-.582-.533-1.52-.12-1.52,.669v1.157H1.5c-.828,0-1.5,.672-1.5,1.5s.672,1.5,1.5,1.5H6v1.025c0,.789,.938,1.202,1.52,.669l2.73-2.498c.454-.407,.454-1.117,0-1.524l-2.73-2.498Zm-2.02-8.174c1.933,0,3.5-1.567,3.5-3.5H2c0,1.933,1.567,3.5,3.5,3.5Z"/>
</svg>
