<svg id="Layer_1" viewBox="0 0 24 24" xmlns="http://www.w3.org/2000/svg" data-name="Layer 1"><path d="m18.785 22.473c-.262.786-1.113 1.21-1.896.951-.607-.202-1.195-.343-1.615-.386-1.303-.139-2.314.12-3.132.388-.783.257-1.858.555-3.222.573-.999.006-1.681-.092-2.769-.348-.806-.192-1.303-1.002-1.11-1.808s1-1.306 1.808-1.11c.825.195 1.317.271 2.033.266.954-.013 1.744-.233 2.325-.424 1.054-.345 2.502-.714 4.376-.521.814.085 1.674.331 2.251.522.786.262 1.212 1.11.951 1.896zm-.919-6.998c-.905-.228-1.628-.37-2.147-.423-1.901-.193-3.359.177-4.42.521-.631.204-1.405.414-2.369.427-.629.021-1.37-.082-1.944-.296-.785-.271-1.637.149-1.904.934-.269.784.15 1.637.934 1.904.717.282 2.016.495 2.953.458 1.373-.018 2.461-.315 3.255-.573.831-.27 1.856-.53 3.191-.39.365.037.977.161 1.72.349.807.198 1.618-.285 1.821-1.089.202-.804-.286-1.619-1.089-1.821zm-.058-10.553c-.147-.029-.262-.115-.321-.242-1.588-3.346-5.262-5.209-8.929-4.54-3.349.613-5.974 3.287-6.534 6.654-.164.991-.152 1.983.034 2.95.021.104-.046.249-.162.354-1.205 1.097-1.896 2.66-1.896 4.289 0 .516.073 1.03.219 1.53.227.802 1.084 1.255 1.857 1.023.796-.23 1.254-1.062 1.023-1.857-.066-.229-.1-.464-.1-.696 0-.797.325-1.532.915-2.069.891-.809 1.308-2.014 1.089-3.143-.119-.616-.126-1.252-.021-1.889.348-2.089 2.039-3.814 4.115-4.194 2.369-.434 4.656.72 5.677 2.872.469.991 1.36 1.684 2.447 1.901 2.188.437 3.777 2.376 3.777 4.613 0 .505-.09 1.019-.268 1.529-.273.782.14 1.638.922 1.91.785.275 1.638-.14 1.91-.922.289-.828.436-1.675.436-2.517 0-3.662-2.604-6.84-6.191-7.555z"/></svg>