<svg id="Layer_1" viewBox="0 0 24 24" xmlns="http://www.w3.org/2000/svg" data-name="Layer 1"><path d="m11 22.5c0 .828-.672 1.5-1.5 1.5h-4c-3.032 0-5.5-2.468-5.5-5.5v-13c0-3.032 2.468-5.5 5.5-5.5h7c3.032 0 5.5 2.468 5.5 5.5 0 .828-.672 1.5-1.5 1.5s-1.5-.672-1.5-1.5c0-1.379-1.121-2.5-2.5-2.5h-7c-1.379 0-2.5 1.121-2.5 2.5v13c0 1.379 1.121 2.5 2.5 2.5h4c.828 0 1.5.672 1.5 1.5zm-4.5-17.5c-.828 0-1.5.672-1.5 1.5s.672 1.5 1.5 1.5 1.5-.672 1.5-1.5-.672-1.5-1.5-1.5zm3.5 1.5c0 .828.672 1.5 1.5 1.5s1.5-.672 1.5-1.5-.672-1.5-1.5-1.5-1.5.672-1.5 1.5zm-3.5 3.5c-.828 0-1.5.672-1.5 1.5s.672 1.5 1.5 1.5 1.5-.672 1.5-1.5-.672-1.5-1.5-1.5zm5 0c-.828 0-1.5.672-1.5 1.5s.672 1.5 1.5 1.5 1.5-.672 1.5-1.5-.672-1.5-1.5-1.5zm-5 5c-.828 0-1.5.672-1.5 1.5s.672 1.5 1.5 1.5 1.5-.672 1.5-1.5-.672-1.5-1.5-1.5zm17.5 3v3c0 1.657-1.343 3-3 3h-5c-1.657 0-3-1.343-3-3v-3c0-.885.39-1.672 1-2.221v-2.279c0-2.481 2.019-4.5 4.5-4.5s4.5 2.019 4.5 4.5v2.279c.61.549 1 1.336 1 2.221zm-7-4.5v1.5h3v-1.5c0-.827-.673-1.5-1.5-1.5s-1.5.673-1.5 1.5zm3 6c0-.828-.672-1.5-1.5-1.5s-1.5.672-1.5 1.5.672 1.5 1.5 1.5 1.5-.672 1.5-1.5z"/></svg>