<svg id="Layer_1" viewBox="0 0 24 24" xmlns="http://www.w3.org/2000/svg" data-name="Layer 1"><path d="m20.103 4.352c-.726-1.45-2.183-2.352-3.805-2.352h-.298v-.5c0-.828-.671-1.5-1.5-1.5s-1.5.672-1.5 1.5v.5h-5.298c-1.622 0-3.079.901-3.805 2.352-.587 1.174-.897 2.488-.897 3.801v9.695c0 1.312.31 2.627.897 3.801.726 1.45 2.183 2.352 3.805 2.352h8.597c1.622 0 3.079-.901 3.805-2.352.587-1.174.897-2.488.897-3.801v-9.696c0-1.312-.31-2.627-.897-3.801zm-2.103 13.496c0 .85-.201 1.699-.581 2.459-.214.428-.643.693-1.121.693h-8.596c-.478 0-.907-.266-1.121-.693-.38-.76-.581-1.609-.581-2.459v-9.696c0-.85.201-1.699.581-2.459.214-.428.643-.693 1.121-.693h8.597c.478 0 .907.266 1.121.693.38.76.581 1.609.581 2.459v9.695zm-2.619-4.821-3.492 4.676c-.436.632-1.421.167-1.21-.571l.821-2.088h-2.282c-.481 0-.826-.465-.687-.925l1.734-4.595c.108-.314.404-.524.735-.524h1.473c.546 0 .922.547.726 1.057l-.81 1.877h2.406c.562 0 .897.625.587 1.093z"/></svg>