<svg id="Layer_1" viewBox="0 0 24 24" xmlns="http://www.w3.org/2000/svg" data-name="Layer 1"><path d="m17.992 2.995c-1.413-1.878-3.642-2.995-5.992-2.995s-4.583 1.119-5.997 3c0 0-.002 0-.003 0-3.309 0-6 2.691-6 6 0 1.61.641 3.072 1.677 4.15l.675 5.968c.315 2.783 2.665 4.881 5.465 4.881h8.364c2.801 0 5.15-2.099 5.465-4.881l.676-5.968c1.036-1.079 1.678-2.54 1.678-4.151 0-3.284-2.652-5.961-6.008-6.005zm-12.659 15.786-.44-3.888c.359.067.728.107 1.106.107.545 0 1.086-.085 1.611-.235l.312 6.235c-1.308.051-2.445-.915-2.59-2.219zm7.74 2.219h-2.146l-.307-6.14c.911.17 1.848.17 2.76 0zm5.593-2.218c-.145 1.304-1.281 2.269-2.589 2.218l.311-6.236c.525.15 1.067.236 1.612.236.378 0 .747-.039 1.106-.107l-.44 3.888zm-.666-6.782c-.496 0-.973-.125-1.416-.372-.436-.242-.918-.364-1.396-.364-.421 0-.839.093-1.223.282-1.234.603-2.697.602-3.928 0-.823-.403-1.804-.372-2.62.082-.444.247-.92.372-1.417.372-1.654 0-3-1.346-3-3s1.346-3 3-3c.978 0 1.833-.41 2.348-1.124.845-1.175 2.21-1.876 3.652-1.876s2.808.701 3.652 1.876c.521.725 1.355 1.124 2.348 1.124 1.654 0 3 1.346 3 3s-1.346 3-3 3z"/></svg>