<svg id="Layer_1" viewBox="0 0 24 24" xmlns="http://www.w3.org/2000/svg" data-name="Layer 1"><path d="m0 7.5v-2c0-3.033 2.467-5.5 5.5-5.5h2c.829 0 1.5.671 1.5 1.5s-.671 1.5-1.5 1.5h-2c-1.378 0-2.5 1.122-2.5 2.5v2c0 .829-.671 1.5-1.5 1.5s-1.5-.671-1.5-1.5zm7.5 13.5h-2c-1.378 0-2.5-1.121-2.5-2.5v-2c0-.828-.671-1.5-1.5-1.5s-1.5.672-1.5 1.5v2c0 3.032 2.467 5.5 5.5 5.5h2c.829 0 1.5-.672 1.5-1.5s-.671-1.5-1.5-1.5zm15-6c-.829 0-1.5.672-1.5 1.5v2c0 1.379-1.122 2.5-2.5 2.5h-2c-.829 0-1.5.672-1.5 1.5s.671 1.5 1.5 1.5h2c3.033 0 5.5-2.468 5.5-5.5v-2c0-.828-.671-1.5-1.5-1.5zm-4-15h-2c-.829 0-1.5.671-1.5 1.5s.671 1.5 1.5 1.5h2c1.378 0 2.5 1.122 2.5 2.5v2c0 .829.671 1.5 1.5 1.5s1.5-.671 1.5-1.5v-2c0-3.033-2.467-5.5-5.5-5.5zm-3 13.5c.829 0 1.5-.671 1.5-1.5s-.671-1.5-1.5-1.5h-2v-2c0-.829-.671-1.5-1.5-1.5s-1.5.671-1.5 1.5v2h-2c-.829 0-1.5.671-1.5 1.5s.671 1.5 1.5 1.5h2v2c0 .828.671 1.5 1.5 1.5s1.5-.672 1.5-1.5v-2z"/></svg>