<svg id="Layer_1" viewBox="0 0 24 24" xmlns="http://www.w3.org/2000/svg" data-name="Layer 1"><path d="m23.085 14.684-6.625-11.066c-.891-1.63-2.564-2.607-4.474-2.613h-.018c-1.892 0-3.62.997-4.488 2.562l-6.657 11.124c-1.066 1.633-1.099 3.772-.088 5.584.956 1.712 2.604 2.72 4.385 2.72.051 0 13.534-.003 13.534-.003 1.978-.024 3.855-1.253 4.783-3.13.859-1.737.725-3.668-.354-5.179zm-8.142 5.309h-5.976s0-2.5 0-2.5c0-.275.224-.5.498-.5h4.98c.274 0 .498.225.498.5zm5.819-1.463c-.427.864-1.289 1.452-2.125 1.463h-.706s0-2.5 0-2.5c0-1.93-1.564-3.5-3.486-3.5h-4.98c-1.922 0-3.486 1.57-3.486 3.5v2.501h-.754c-.748.004-1.456-.42-1.885-1.185-.364-.651-.56-1.643.013-2.521l6.713-11.218c.371-.667 1.081-1.065 1.902-1.065h.008c.807.003 1.505.397 1.894 1.107 0 0 6.739 11.254 6.768 11.293.611.829.34 1.687.124 2.124z"/></svg>