<svg id="Layer_1" viewBox="0 0 24 24" xmlns="http://www.w3.org/2000/svg" data-name="Layer 1"><path d="m18.81.088c-1.01-.207-2.068.063-2.912.743-.773.617-1.726 1.496-2.487 1.854-.884.414-1.938.414-2.819 0-.763-.358-1.714-1.238-2.488-1.854-.846-.679-1.904-.949-2.914-.743-3.25.671-5.19 3.068-5.19 6.412 0 .829.671 1.5 1.5 1.5h1.561c.185 4.73.75 8.112.92 9.038-.575.841-1.64 2.69-1.969 5.273-.105.821.477 1.572 1.298 1.678.806.106 1.576-.473 1.677-1.299.173-1.358.614-2.437 1-3.169.549.459 1.113.871 1.688 1.232 1.291.826 2.792 1.207 4.325 1.247 1.533-.039 3.034-.422 4.323-1.247.576-.362 1.141-.775 1.691-1.234.384.73.824 1.808.997 3.17.101.826.872 1.405 1.678 1.299.822-.105 1.403-.856 1.299-1.678-.33-2.583-1.394-4.431-1.969-5.273.17-.925.735-4.308.92-9.038h1.561c.828 0 1.5-.671 1.5-1.5 0-3.344-1.94-5.741-5.19-6.412zm-8.31 18.672c-.431-.127-.846-.306-1.228-.546-.818-.515-1.617-1.163-2.378-1.93-.091-.53-.252-1.546-.413-2.924 1.434-.274 2.785-.87 4.018-1.768v7.168zm0-11.291c-1.256 1.543-2.696 2.516-4.301 2.892-.073-1.153-.176-2.459-.167-3.817.029-.988.188-1.985.502-3.122.874.723 1.761 1.499 2.782 1.979.379.178.777.31 1.185.407v1.661zm6.605 8.816c-.761.766-1.56 1.413-2.38 1.929-.381.24-.795.419-1.226.546v-7.168c1.233.899 2.584 1.494 4.018 1.768-.16 1.379-.321 2.395-.413 2.925zm.696-5.924c-1.605-.376-3.046-1.35-4.301-2.892v-1.661c.407-.097.806-.229 1.185-.406 1.021-.481 1.908-1.256 2.782-1.979.314 1.138.473 2.134.502 3.122.007 1.358-.095 2.664-.168 3.817z"/></svg>