<svg id="Layer_1" viewBox="0 0 24 24" xmlns="http://www.w3.org/2000/svg" data-name="Layer 1"><path d="m16.5 18h-11.5v-12.5c0-1.378 1.121-2.5 2.5-2.5h4c.828 0 1.5-.671 1.5-1.5s-.672-1.5-1.5-1.5h-4c-3.032 0-5.5 2.467-5.5 5.5v13.5c0 2.761 2.239 5 5 5h6c2.366 0 4.663-1.779 5-4.5 0-.828-.671-1.5-1.5-1.5zm-5.5 4h-2c-.552 0-1-.448-1-1s.448-1 1-1h2c.552 0 1 .448 1 1s-.448 1-1 1zm12-14.221v-2.279c0-2.481-2.019-4.5-4.5-4.5s-4.5 2.019-4.5 4.5v2.279c-.61.549-1 1.336-1 2.221v3c0 1.657 1.343 3 3 3h5c1.657 0 3-1.343 3-3v-3c0-.885-.39-1.672-1-2.221zm-4.5-3.779c.827 0 1.5.673 1.5 1.5v1.5h-3v-1.5c0-.827.673-1.5 1.5-1.5zm0 9c-.828 0-1.5-.672-1.5-1.5s.672-1.5 1.5-1.5 1.5.672 1.5 1.5-.672 1.5-1.5 1.5z"/></svg>