<svg id="Layer_1" viewBox="0 0 24 24" xmlns="http://www.w3.org/2000/svg" data-name="Layer 1"><path d="m21 21v1.5c0 .829-.671 1.5-1.5 1.5s-1.5-.671-1.5-1.5v-1.5c0-1.567-.599-3.142-1.526-4.01l-.475.497s.001.008.001.013v5c0 .829-.671 1.5-1.5 1.5s-1.5-.671-1.5-1.5v-1.891c-.277.25-.635.394-1.012.391-.369-.003-.716-.147-.988-.392v1.892c0 .829-.671 1.5-1.5 1.5s-1.5-.671-1.5-1.5v-5.074l-.367-.392c-.978.859-1.633 2.473-1.633 3.965v1.5c0 .829-.671 1.5-1.5 1.5s-1.5-.671-1.5-1.5v-1.5c0-2.343.989-4.722 2.582-6.209.586-.546 1.35-.827 2.157-.788.807.038 1.576.407 2.111 1.011l2.168 2.312 2.283-2.356c.493-.556 1.264-.923 2.071-.96.813-.032 1.57.244 2.154.791 1.526 1.431 2.474 3.806 2.474 6.199zm-15-15c0-3.309 2.691-6 6-6s6 2.691 6 6-2.691 6-6 6-6-2.691-6-6zm3 0c0 1.654 1.346 3 3 3s3-1.346 3-3-1.346-3-3-3-3 1.346-3 3z"/></svg>