<svg id="Layer_1" viewBox="0 0 24 24" xmlns="http://www.w3.org/2000/svg" data-name="Layer 1"><path d="m18.5 0h-13c-3.033 0-5.5 2.467-5.5 5.5v8c0 3.032 2.467 5.5 5.5 5.5h5v2h-3c-.829 0-1.5.672-1.5 1.5s.671 1.5 1.5 1.5h9c.829 0 1.5-.672 1.5-1.5s-.671-1.5-1.5-1.5h-3v-2h5c3.033 0 5.5-2.468 5.5-5.5v-8c0-3.033-2.467-5.5-5.5-5.5zm2.5 13.5c0 1.379-1.122 2.5-2.5 2.5h-5v-.5c0-.828-.671-1.5-1.5-1.5s-1.5.672-1.5 1.5v.5h-5c-1.378 0-2.5-1.121-2.5-2.5v-8c0-1.378 1.122-2.5 2.5-2.5h5v.5c0 .829.671 1.5 1.5 1.5s1.5-.671 1.5-1.5v-.5h5c1.378 0 2.5 1.122 2.5 2.5zm-13-6.639v5.339c0 .442-.358.8-.8.8s-.8-.358-.8-.8v-3.515l-.36.372c-.307.317-.814.326-1.131.018s-.325-.814-.018-1.131l1.63-1.682c.162-.167.385-.262.618-.262.476 0 .861.385.861.861zm9.176 4.539h1.524c.442 0 .8.358.8.8s-.358.8-.8.8h-2.9c-.442 0-.8-.358-.8-.8 0-1.421 3-2.976 3-3.9 0-.386-.314-.7-.7-.7-.403-.006-.596.258-.672.58-.085.361-.403.62-.774.62-.528 0-.905-.505-.764-1.013.256-.918.972-1.678 1.969-1.774 1.375-.14 2.54.94 2.54 2.288 0 1.313-2.237 2.889-2.424 3.1zm-3.676-2.9v2c0 .829-.671 1.5-1.5 1.5s-1.5-.671-1.5-1.5v-2c0-.829.671-1.5 1.5-1.5s1.5.671 1.5 1.5z"/></svg>