<svg id="Layer_1" viewBox="0 0 24 24" xmlns="http://www.w3.org/2000/svg" data-name="Layer 1"><path d="m10 5h-4v-2.705c0-.581.323-1.103.843-1.363l1.641-.821c.327-.164.708-.146 1.019.046.311.193.497.526.497.891zm14 13.198c0 3.199-2.603 5.802-5.802 5.802h-12.396c-3.199 0-5.802-2.603-5.802-5.802 0-.573.1-1.241.297-1.834l1.096-3.287c.542-1.627 1.947-2.779 3.607-3.025v-1.552c0-.828.672-1.5 1.5-1.5h3c.828 0 1.5.672 1.5 1.5v1.5h3.382l-.236-3h3.696l-.23 3h.725c.252 0 .499.023.741.063.011-.003.021-.009.033-.012.09-.027 1.324-.43 1.996-2.107.308-.771 1.181-1.144 1.95-.836s1.143 1.181.835 1.949c-.493 1.234-1.22 2.124-1.952 2.748.283.379.511.806.667 1.273l1.095 3.285c.198.594.298 1.211.298 1.835zm-3 0c0-.302-.048-.6-.144-.887l-1.095-3.285c-.205-.614-.776-1.026-1.423-1.026h-12.676c-.646 0-1.218.412-1.422 1.025l-1.096 3.287c-.095.286-.144.584-.144.886 0 1.545 1.257 2.802 2.802 2.802h12.396c1.545 0 2.802-1.257 2.802-2.802zm-7.011-13.198h4.007l.948-2.686c.153-.529-.014-1.11-.449-1.448-.673-.523-1.637-.866-2.496-.866-.823 0-1.824.348-2.497.874-.432.338-.599.915-.449 1.443l.935 2.684z"/></svg>