<svg id="Layer_1" viewBox="0 0 24 24" xmlns="http://www.w3.org/2000/svg" data-name="Layer 1"><path d="m7 4.5c0-1.381 1.119-2.5 2.5-2.5s2.5 1.119 2.5 2.5-1.119 2.5-2.5 2.5-2.5-1.119-2.5-2.5zm6.5 6.5h-.442l-1.483-1.805c-.655-.749-1.665-1.195-2.7-1.195h-.359c-1.426 0-2.697.853-3.263 2.237l-1.014 2.847c-.646 1.574-.07 3.376 1.427 4.322l4.334 2.466v2.628c0 .829.671 1.5 1.5 1.5s1.5-.671 1.5-1.5v-2.918c0-.897-.484-1.729-1.264-2.173l-3.209-1.825 1.249-3.852.962 1.172c.572.697 1.417 1.096 2.319 1.096h.442c.828 0 1.5-.671 1.5-1.5s-.672-1.5-1.5-1.5zm-10.108 7.028-.401.972h-1.491c-.828 0-1.5.672-1.5 1.5s.672 1.5 1.5 1.5h2.161c.81 0 1.541-.489 1.849-1.238l.382-.926-1.215-.692c-.499-.314-.918-.698-1.285-1.116zm19.108-18.028h-2.655c-.98 0-1.815.71-1.974 1.677l-.614 3.75c-.725.86-1.258 1.766-1.258 2.573 0 1.713 1.905 2.109 3.296 2.399.51.106 1.431.298 1.696.499-.138.537-2.152 1.103-3.992 1.103-.553 0-1 .448-1 1s.447 1 1 1c2.229 0 6-.666 6-3.16 0-1.713-1.905-2.109-3.296-2.399-.512-.106-1.438-.299-1.699-.501.04-.271.331-.711.789-1.234l3.529-.578c.967-.158 1.677-.994 1.677-1.974v-2.655c0-.828-.672-1.5-1.5-1.5z"/></svg>