<svg id="Layer_1" viewBox="0 0 24 24" xmlns="http://www.w3.org/2000/svg" data-name="Layer 1"><path d="m23.985 13.693c-.839 5.865-5.991 10.307-11.985 10.307-3.435 0-6.635-1.477-8.882-3.958l-1.112 1.112c-.74.74-2.006.216-2.006-.831v-3.962c0-.738.598-1.337 1.337-1.337h3.962c1.047 0 1.571 1.266.831 2.006l-.887.887c1.689 1.928 4.131 3.082 6.758 3.082 4.511 0 8.387-3.315 9.015-7.712.118-.82.881-1.391 1.697-1.272.755.108 1.288.802 1.288 1.485 0 .064-.006.128-.015.193zm-17.985-1.693c0-3.314 2.686-6 6-6s6 2.686 6 6-2.686 6-6 6-6-2.686-6-6zm2.309.991 1.354 1.332c.46.449 1.062.674 1.663.674s1.201-.225 1.653-.671l2.703-2.614c.398-.383.411-1.016.029-1.414-.383-.399-1.017-.41-1.414-.029l-2.713 2.624c-.143.141-.379.144-.522.002l-1.354-1.331c-.396-.388-1.028-.381-1.414.014-.387.395-.381 1.027.014 1.414zm13.677-10.143-1.107 1.107c-2.246-2.479-5.446-3.955-8.879-3.955-5.994 0-11.146 4.423-11.985 10.288-.012.082-.015.164-.015.244 0 .718.55 1.348 1.288 1.453.803.12 1.583-.449 1.697-1.272.628-4.398 4.504-7.713 9.015-7.713 2.625 0 5.066 1.153 6.755 3.079l-.907.907c-.743.743-.217 2.014.834 2.014h3.977c.741 0 1.341-.601 1.341-1.341v-3.977c0-1.051-1.271-1.577-2.014-.834z"/></svg>