<svg id="Layer_1" viewBox="0 0 24 24" xmlns="http://www.w3.org/2000/svg" data-name="Layer 1"><path d="m8.5 21h-3c-1.378 0-2.5-1.122-2.5-2.5v-5c0-1.378 1.122-2.5 2.5-2.5h9c.61 0 1.197.222 1.653.625.621.548 1.568.49 2.117-.132.548-.621.489-1.569-.132-2.117-.346-.305-.734-.544-1.138-.751v-1.624c0-3.86-3.14-7-7-7s-7 3.139-7 6.999v1.607c-1.778.912-3 2.761-3 4.893v5c0 3.033 2.467 5.5 5.5 5.5h3c.829 0 1.5-.671 1.5-1.5s-.671-1.5-1.5-1.5zm1.5-18c2.206 0 4 1.794 4 4v1h-8v-1c0-2.206 1.794-4 4-4zm11 11h-6c-1.304 0-2.403.837-2.816 2h-3.184v-.69c.307-.352.5-.806.5-1.31 0-1.105-.895-2-2-2s-2 .895-2 2c0 .504.193.958.5 1.31v1.19c0 1.378 1.122 2.5 2.5 2.5h3.5v2c0 1.657 1.343 3 3 3h6c1.657 0 3-1.343 3-3v-4c0-1.657-1.343-3-3-3zm-2.33 8.001c-.253 0-.479-.157-.568-.393l-.352-.934h-1.983l-.351.931c-.089.236-.316.393-.569.393h.001c-.426 0-.72-.426-.568-.824l1.787-4.691c.11-.29.388-.482.699-.482s.59.193.7.484l1.772 4.695c.149.397-.144.821-.568.821zm2.829-.619c0 .341-.277.618-.618.618s-.618-.277-.618-.618v-4.764c0-.341.277-.618.618-.618s.618.277.618.618zm-4.735-3.325.53 1.404h-1.065z"/></svg>