<svg id="Layer_1" viewBox="0 0 24 24" xmlns="http://www.w3.org/2000/svg" data-name="Layer 1"><path d="m21 7v5.504c-.473.178-1.157.404-2 .625v-9.629c0-1.93-1.57-3.5-3.5-3.5h-7c-1.93 0-3.5 1.57-3.5 3.5v9.623c-.842-.221-1.527-.446-2-.622v-5.501h-3v7.427c1.624.718 3.451 2.02 10.5 2.535v2.038h-2c-1.93 0-3.5 1.57-3.5 3.5v1.5h3v-1.5c0-.275.224-.5.5-.5h2v2h3v-2h2c.275 0 .5.225.5.5v1.5h3v-1.5c0-1.93-1.57-3.5-3.5-3.5h-2v-2.038c7.058-.518 8.866-1.815 10.5-2.535v-7.427zm-12.5-4h7c.275 0 .5.225.5.5v8.031c-2.638-.665-5.362-.665-8 0v-8.031c0-.275.224-.5.5-.5z"/></svg>