<svg id="Layer_1" viewBox="0 0 24 24" xmlns="http://www.w3.org/2000/svg" data-name="Layer 1"><path d="m2.157 15.957c-.784.197-1.62-.289-1.814-1.1-.228-.929-.343-1.89-.343-2.857 0-6.617 5.383-12 12-12 2.187 0 4.268.582 6.11 1.679l1.426-1.426c.54-.54 1.464-.158 1.464.607v4.14c0 .552-.448 1-1 1h-4.14c-.764 0-1.147-.924-.607-1.464l.645-.645c-1.205-.582-2.523-.891-3.898-.891-4.963 0-9 4.037-9 9 0 .728.086 1.448.257 2.143.197.805-.295 1.617-1.1 1.814zm15.356-5.408-.186.107c.108.431.172.879.172 1.344s-.064.913-.172 1.344l.186.107c.717.414.963 1.331.549 2.049-.414.717-1.331.963-2.049.549l-.184-.106c-.644.626-1.441 1.093-2.33 1.345v.212c0 .828-.672 1.5-1.5 1.5s-1.5-.672-1.5-1.5v-.212c-.889-.252-1.686-.719-2.33-1.345l-.184.106c-.717.414-1.635.168-2.049-.549s-.168-1.635.549-2.049l.186-.107c-.108-.431-.172-.879-.172-1.344s.064-.913.172-1.344l-.186-.107c-.717-.414-.963-1.332-.549-2.049s1.331-.963 2.049-.549l.184.106c.644-.626 1.441-1.093 2.33-1.345v-.212c0-.828.672-1.5 1.5-1.5s1.5.672 1.5 1.5v.212c.889.252 1.686.719 2.33 1.345l.184-.106c.717-.414 1.635-.168 2.049.549s.168 1.635-.549 2.049zm-7.513 1.451c0-.552-.448-1-1-1s-1 .448-1 1v1c0 .552.448 1 1 1s1-.448 1-1zm3-2c0-.552-.448-1-1-1s-1 .448-1 1v3c0 .552.448 1 1 1s1-.448 1-1zm3 1c0-.552-.448-1-1-1s-1 .448-1 1v2c0 .552.448 1 1 1s1-.448 1-1zm7.657-1.857c-.197-.805-1.009-1.298-1.814-1.1-.805.197-1.297 1.01-1.1 1.814.171.694.257 1.415.257 2.143 0 4.963-4.037 9-9 9-1.371 0-2.693-.315-3.895-.893l.642-.642c.54-.54.158-1.464-.607-1.464h-4.14c-.552 0-1 .448-1 1v4.14c0 .764.924 1.147 1.464.607l1.429-1.429c1.833 1.088 3.925 1.682 6.107 1.682 6.617 0 12-5.383 12-12 0-.968-.115-1.929-.343-2.857z"/></svg>