<svg id="Layer_1" viewBox="0 0 24 24" xmlns="http://www.w3.org/2000/svg" data-name="Layer 1"><path d="m10 10.513v-3.013c0-.813-.397-1.53-1-1.987v-2.513c0-1.657-1.343-3-3-3h-1c-1.657 0-3 1.343-3 3v2.513c-.603.457-1 1.174-1 1.987v3.013c-.603.457-1 1.174-1 1.987v7c0 2.481 2.019 4.5 4.5 4.5h2c2.481 0 4.5-2.019 4.5-4.5v-7c0-.813-.397-1.53-1-1.987zm-6-2.513h3v2h-3zm4 11.5c0 .827-.673 1.5-1.5 1.5h-2c-.827 0-1.5-.673-1.5-1.5v-6.5h5zm13.5-5.5h-6c-1.378 0-2.5 1.121-2.5 2.5v3c0 2.481 2.019 4.5 4.5 4.5h2c2.481 0 4.5-2.019 4.5-4.5v-3c0-1.379-1.122-2.5-2.5-2.5zm-.5 5.5c0 .827-.673 1.5-1.5 1.5h-2c-.827 0-1.5-.673-1.5-1.5v-2.5h5z"/></svg>