<svg id="Layer_1" viewBox="0 0 24 24" xmlns="http://www.w3.org/2000/svg" data-name="Layer 1"><path d="m20 9.051v-2.051c0-1.105-.895-2-2-2s-2 .895-2 2v2h-8v-2c0-1.105-.895-2-2-2s-2 .895-2 2v2.051c-2.244.252-4 2.139-4 4.449v9c0 .828.672 1.5 1.5 1.5s1.5-.672 1.5-1.5v-1.5h18v1.5c0 .828.672 1.5 1.5 1.5s1.5-.672 1.5-1.5v-9c0-2.31-1.756-4.197-4-4.449zm-8.879 8.949 6-6h2.379c.116 0 .228.016.337.042l-5.958 5.958zm-7 0 6-6h2.758l-6 6zm.379-6h1.379l-2.879 2.879v-1.379c0-.827.673-1.5 1.5-1.5zm13.621 6 2.879-2.879v2.879zm-16.682-15.439c-.585-.586-.585-1.536 0-2.122.586-.585 1.536-.585 2.122 0l1 1c.586.586.586 1.535 0 2.121s-1.535.586-2.121 0l-1-1zm6 1c-.586-.586-.586-1.535 0-2.121l1-1c.586-.586 1.535-.586 2.121 0 .586.585.586 1.536 0 2.121l-1 1c-.586.586-1.535.586-2.121 0zm6-1c-.586-.585-.586-1.536 0-2.121.586-.586 1.535-.586 2.121 0l1 1c.586.586.586 1.535 0 2.121s-1.535.586-2.121 0zm6 1c-.586-.586-.586-1.535 0-2.121l1-1c.586-.586 1.535-.586 2.121 0 .586.585.586 1.536 0 2.121l-1 1c-.586.586-1.535.586-2.121 0z"/></svg>