<svg id="Layer_1" viewBox="0 0 24 24" xmlns="http://www.w3.org/2000/svg" data-name="Layer 1"><path d="m23.833 15.187c-.307.595-.667 1.127-1.072 1.592l.496.762c.452.694.255 1.624-.439 2.076-.685.448-1.621.261-2.076-.439l-.418-.641c-.268.109-.543.199-.825.269v.695c0 .829-.671 1.5-1.5 1.5s-1.5-.671-1.5-1.5v-.695c-.282-.07-.557-.16-.825-.269l-.418.642c-.455.7-1.391.887-2.076.439-.694-.452-.891-1.381-.439-2.076l.496-.762c-.405-.465-.765-.996-1.072-1.591-.379-.736-.09-1.641.646-2.021.739-.38 1.641-.089 2.02.646.514.998 1.481 2.187 3.166 2.187s2.653-1.189 3.166-2.187c.379-.735 1.284-1.026 2.02-.646.736.379 1.026 1.284.646 2.021zm-12.646-2.02c-.737-.38-1.642-.089-2.02.646-.514.998-1.48 2.187-3.166 2.187s-2.652-1.189-3.166-2.187c-.379-.735-1.282-1.026-2.02-.646-.736.379-1.026 1.284-.646 2.021.307.595.667 1.126 1.072 1.591l-.496.762c-.452.694-.255 1.624.439 2.076.684.448 1.621.261 2.076-.439l.418-.642c.268.109.543.199.825.269v.695c0 .829.671 1.5 1.5 1.5s1.5-.671 1.5-1.5v-.695c.282-.07.557-.16.825-.269l.418.641c.455.7 1.391.887 2.076.439.694-.452.891-1.381.439-2.076l-.496-.762c.405-.465.765-.997 1.072-1.592.379-.737.09-1.641-.646-2.021zm-11.187-6.167c0-2.206 1.794-4 4-4h3.5c1.378 0 2.5 1.122 2.5 2.5h5v-1.5c0-.552.448-1 1-1s1 .448 1 1v1.5h1v-1.5c0-.552.448-1 1-1s1 .448 1 1v1.5h1v-1.5c0-.552.448-1 1-1s1 .448 1 1v1.592c.581.207 1 .756 1 1.408s-.419 1.202-1 1.408v1.592c0 .552-.448 1-1 1s-1-.448-1-1v-1.5h-1v1.5c0 .552-.448 1-1 1s-1-.448-1-1v-1.5h-1v1.5c0 .552-.448 1-1 1s-1-.448-1-1v-1.5h-5c0 1.378-1.122 2.5-2.5 2.5h-3.5c-2.206 0-4-1.794-4-4zm3 0c0 .551.449 1 1 1h3v-2h-3c-.551 0-1 .449-1 1z"/></svg>