<?xml version="1.0" encoding="UTF-8"?>
<svg xmlns="http://www.w3.org/2000/svg" id="Layer_1" data-name="Layer 1" viewBox="0 0 24 24">
  <path d="m6.5,12c.828,0,1.5.672,1.5,1.5s-.672,1.5-1.5,1.5-1.5-.672-1.5-1.5.672-1.5,1.5-1.5Zm17.5-4.5v4c0,.828-.671,1.5-1.5,1.5s-1.5-.672-1.5-1.5v-1.5H3v4.5c0,1.379,1.122,2.5,2.5,2.5h5c.829,0,1.5.672,1.5,1.5s-.671,1.5-1.5,1.5h-5c-3.033,0-5.5-2.468-5.5-5.5v-7C0,4.468,2.467,2,5.5,2h13c3.033,0,5.5,2.468,5.5,5.5Zm-20.949-.5h17.899c-.232-1.14-1.242-2-2.449-2H5.5c-1.207,0-2.217.86-2.449,2Zm19.449,14c-.828,0-1.5.672-1.5,1.5s.672,1.5,1.5,1.5,1.5-.672,1.5-1.5-.672-1.5-1.5-1.5Zm-5.5-4.5c0-.828-.672-1.5-1.5-1.5s-1.5.672-1.5,1.5.672,1.5,1.5,1.5,1.5-.672,1.5-1.5Zm4.844-1.259c-.694-.449-1.624-.252-2.075.443l-3.889,6c-.451.694-.252,1.623.443,2.074.252.163.535.241.814.241.491,0,.973-.241,1.26-.685l3.889-6c.451-.694.252-1.623-.443-2.074Z"/>
</svg>
