<svg id="Layer_1" viewBox="0 0 24 24" xmlns="http://www.w3.org/2000/svg" data-name="Layer 1"><path d="m23 11.8v6.4c0 .442-.358.8-.8.8s-.8-.358-.8-.8v-6.4c0-.442.358-.8.8-.8s.8.358.8.8zm-3.611-7.532-2.656-2.657c-1.039-1.039-2.42-1.611-3.89-1.611h-6.343c-3.032 0-5.5 2.467-5.5 5.5v13c0 3.032 2.468 5.5 5.5 5.5h11c.828 0 1.5-.672 1.5-1.5s-.672-1.5-1.5-1.5h-11c-1.379 0-2.5-1.121-2.5-2.5v-13c0-1.378 1.121-2.5 2.5-2.5h5.5v4c0 1.105.895 2 2 2h5.5v-.007c.895-.01 1.578-.861 1.425-1.738-.188-1.139-.72-2.171-1.536-2.986zm-6.174 8.359 1.142 5.435c.107.5-.296.964-.804.937-.368 0-.685-.258-.761-.617l-.165-.782h-2.379l-.175.79c-.079.356-.394.61-.759.61-.494 0-.863-.456-.76-.939l1.165-5.479c.168-.864.87-1.582 1.742-1.581.894.006 1.563.69 1.753 1.627zm-.924 3.373-.641-3.044c-.047-.231-.111-.355-.185-.355s-.159.214-.189.363l-.673 3.036zm7.024-5c-.39 0-.724.28-.793.664l-.984 5.482-1.007-5.488c-.07-.38-.402-.657-.788-.657-.5 0-.878.454-.788.946l1.037 5.637c.103.58.61 1.416 1.546 1.416s1.435-.794 1.555-1.462l1.015-5.588c.09-.495-.29-.95-.793-.95z"/></svg>