<svg id="Layer_1" viewBox="0 0 24 24" xmlns="http://www.w3.org/2000/svg" data-name="Layer 1"><path d="m24 19.5c0 1.933-1.567 3.5-3.5 3.5s-3.5-1.567-3.5-3.5c0-1.086.505-2.045 1.282-2.687l-3.453-13.813h-2.829v14.35c1.179.563 2 1.756 2 3.15 0 1.933-1.567 3.5-3.5 3.5s-3.5-1.567-3.5-3.5c0-1.394.821-2.587 2-3.15v-14.35h-4v14.35c1.179.563 2 1.756 2 3.15 0 1.933-1.567 3.5-3.5 3.5s-3.5-1.567-3.5-3.5c0-1.394.821-2.587 2-3.15v-14.35h-.5c-.828 0-1.5-.672-1.5-1.5s.672-1.5 1.5-1.5h21c.828 0 1.5.672 1.5 1.5s-.672 1.5-1.5 1.5h-4.579l3.267 13.069c1.603.32 2.812 1.733 2.812 3.431z"/></svg>