<svg id="Layer_1" viewBox="0 0 24 24" xmlns="http://www.w3.org/2000/svg" data-name="Layer 1"><path d="m6.5 8c.829 0 1.5.672 1.5 1.5v3c0 .828-.671 1.5-1.5 1.5s-1.5-.672-1.5-1.5v-3c0-.828.671-1.5 1.5-1.5zm3.5-1.5v6c0 .828.671 1.5 1.5 1.5s1.5-.672 1.5-1.5v-6c0-.828-.671-1.5-1.5-1.5s-1.5.672-1.5 1.5zm12.771 7.109c-.772-.312-1.643.061-1.953.828-.384.949-1.294 1.562-2.318 1.562h-13c-1.378 0-2.5-1.121-2.5-2.5v-8c0-1.379 1.122-2.5 2.5-2.5h7c.828 0 1.5-.672 1.5-1.5s-.672-1.499-1.5-1.499h-7c-3.033 0-5.5 2.468-5.5 5.5v8c0 3.032 2.467 5.5 5.5 5.5h5v2h-3c-.829 0-1.5.672-1.5 1.5s.671 1.5 1.5 1.5h9c.828 0 1.5-.672 1.5-1.5s-.672-1.5-1.5-1.5h-3v-2h5c2.253 0 4.255-1.35 5.1-3.437.311-.769-.061-1.643-.828-1.953zm-4.456-6.876 3.04.506c.374.062.645.382.645.761 0 .552-.448 1-1 1h-2.268c-.356 0-.688-.191-.867-.501-.275-.478-.886-.644-1.366-.364-.478.276-.642.888-.364 1.366.534.925 1.53 1.499 2.598 1.499h.268c0 .553.447 1 1 1s1-.447 1-1c1.654 0 3-1.346 3-3 0-1.359-.974-2.51-2.315-2.733l-3.04-.506c-.374-.062-.645-.382-.645-.761 0-.552.448-1 1-1h2.268c.356 0 .688.191.867.501.275.478.885.642 1.366.364.478-.276.642-.888.364-1.366-.534-.925-1.53-1.499-2.598-1.499h-.268c0-.553-.447-1-1-1s-1 .447-1 1c-1.654 0-3 1.346-3 3 0 1.359.974 2.51 2.315 2.733z"/></svg>