<svg id="Layer_1" viewBox="0 0 24 24" xmlns="http://www.w3.org/2000/svg" data-name="Layer 1"><path d="m6.8 8.99c.42.72 1.34.96 2.05.55l.24-.14c.41.35.89.63 1.41.82v.28c0 .83.67 1.5 1.5 1.5s1.5-.67 1.5-1.5v-.28c.52-.19.99-.46 1.41-.82l.24.14c.7.41 1.63.17 2.05-.55.41-.72.17-1.63-.55-2.05l-.23-.13c.05-.26.08-.54.08-.81s-.03-.55-.08-.81l.23-.13c.72-.41.96-1.33.55-2.05s-1.33-.96-2.05-.55l-.24.14c-.41-.35-.89-.63-1.41-.82v-.28c0-.83-.67-1.5-1.5-1.5s-1.5.67-1.5 1.5v.28c-.52.19-.99.46-1.41.82l-.24-.14c-.72-.41-1.63-.17-2.05.55-.41.72-.17 1.63.55 2.05l.23.13c-.05.26-.08.54-.08.81s.03.55.08.81l-.23.13c-.72.41-.96 1.33-.55 2.05zm5.2-4.49c.83 0 1.5.67 1.5 1.5s-.67 1.5-1.5 1.5-1.5-.67-1.5-1.5.67-1.5 1.5-1.5zm10.5 14.5h-.88l-2-2h2.88c.83 0 1.5-.67 1.5-1.5s-.67-1.5-1.5-1.5h-21c-.83 0-1.5.67-1.5 1.5s.67 1.5 1.5 1.5h.88l-1.94 1.94c-.59.59-.59 1.54 0 2.12s1.54.59 2.12 0l1.94-1.94 1.5 1.5v1.88c0 .83.67 1.5 1.5 1.5s1.5-.67 1.5-1.5v-.5h3.88l1.56 1.56c.59.59 1.54.59 2.12 0s.59-1.54 0-2.12l-.94-.94 1.63-1.63 2.69 2.69c.28.28.66.44 1.06.44h1.5c.83 0 1.5-.67 1.5-1.5s-.67-1.5-1.5-1.5zm-9.62 0h-4.26l-2-2h8.26z"/></svg>