<svg id="Layer_1" viewBox="0 0 24 24" xmlns="http://www.w3.org/2000/svg" data-name="Layer 1"><path d="m8 12.5c0 .828-.672 1.5-1.5 1.5s-1.5-.672-1.5-1.5.672-1.5 1.5-1.5 1.5.672 1.5 1.5zm3.5-1.5c-.828 0-1.5.672-1.5 1.5s.672 1.5 1.5 1.5 1.5-.672 1.5-1.5-.672-1.5-1.5-1.5zm-5 5c-.828 0-1.5.672-1.5 1.5s.672 1.5 1.5 1.5 1.5-.672 1.5-1.5-.672-1.5-1.5-1.5zm5 0c-.828 0-1.5.672-1.5 1.5s.672 1.5 1.5 1.5 1.5-.672 1.5-1.5-.672-1.5-1.5-1.5zm7-5h-2c-.829 0-1.5.672-1.5 1.5v6c0 1.379-1.122 2.5-2.5 2.5h-7c-1.378 0-2.5-1.121-2.5-2.5v-13c0-1.379 1.122-2.5 2.5-2.5h3c.829 0 1.5-.672 1.5-1.5s-.671-1.5-1.5-1.5h-3c-3.033 0-5.5 2.468-5.5 5.5v13c0 3.032 2.467 5.5 5.5 5.5h7c2.513 0 4.638-1.694 5.292-4h.708c.829 0 1.5-.672 1.5-1.5v-6c0-.828-.671-1.5-1.5-1.5zm5.03-10.591c-.603-.569-1.552-.54-2.121.062l-5.093 5.397c-.176.175-.463.176-.671-.027l-2.624-2.439c-.606-.563-1.556-.529-2.12.077s-.529 1.556.077 2.12l2.594 2.411c.664.652 1.533.979 2.408.979.891 0 1.789-.34 2.48-1.025l5.129-5.435c.569-.603.541-1.552-.061-2.12zm-14.976 4.591h-2.054c-.828 0-1.5.672-1.5 1.5v1c0 .828.672 1.5 1.5 1.5h5c.062 0 .121-.011.182-.018l-2.065-1.918c-.608-.565-.953-1.3-1.063-2.063z"/></svg>