<svg id="Layer_1" viewBox="0 0 24 24" xmlns="http://www.w3.org/2000/svg" data-name="Layer 1"><path d="m5.391 21.772c-.311.776-1.205 1.136-1.954.828-2.088-.845-3.437-2.847-3.437-5.1v-8c0-3.033 2.467-5.5 5.5-5.5h8c1.342 0 2.634.488 3.638 1.375.621.548.68 1.496.132 2.117-.548.622-1.497.68-2.117.132-.456-.403-1.043-.625-1.653-.625h-8c-1.378 0-2.5 1.122-2.5 2.5v8c0 1.024.613 1.934 1.563 2.318.768.311 1.138 1.186.828 1.954zm7.109-10.772c-.829 0-1.5.671-1.5 1.5v6.247l-.51-.51c-.704-.704-1.839-.876-2.647-.294-1.03.742-1.116 2.188-.257 3.047l2.306 2.305c.451.451 1.063.705 1.702.705 1.329 0 2.407-1.078 2.407-2.407v-9.093c0-.828-.672-1.5-1.5-1.5zm-4.803 3.528.523-1.308 1.308-.523c.285-.114.472-.39.472-.697s-.187-.583-.472-.697l-1.308-.523-.523-1.308c-.114-.285-.39-.472-.697-.472s-.583.187-.697.472l-.52 1.301-1.299.492c-.287.108-.479.381-.484.687-.005.307.176.586.459.705l1.318.556.526 1.316c.114.285.39.472.697.472s.583-.187.697-.472zm15.831-12.225-1.308-.523-.523-1.308c-.114-.285-.39-.472-.697-.472s-.583.187-.697.472l-.52 1.301-1.299.492c-.287.108-.479.381-.484.687-.005.307.176.586.459.705l1.318.556.526 1.316c.114.285.39.472.697.472s.583-.187.697-.472l.523-1.308 1.308-.523c.285-.114.472-.39.472-.697s-.187-.583-.472-.697zm-3.028 9.697c-.829 0-1.5.671-1.5 1.5v9c0 .829.671 1.5 1.5 1.5s1.5-.671 1.5-1.5v-9c0-.829-.671-1.5-1.5-1.5zm-4-2c-.829 0-1.5.671-1.5 1.5v4c0 .829.671 1.5 1.5 1.5s1.5-.671 1.5-1.5v-4c0-.829-.671-1.5-1.5-1.5z"/></svg>