<svg id="Layer_1" viewBox="0 0 24 24" xmlns="http://www.w3.org/2000/svg" data-name="Layer 1"><path d="m24 6.5c0-2.481-2.019-4.5-4.5-4.5-1.173 0-2.209.565-3.211 1.113-.799.436-1.625.887-2.289.887-1.33 0-2.119-.608-3.212-1.45-1.475-1.136-3.309-2.55-6.788-2.55h-2.5c-.828 0-1.5.672-1.5 1.5s.672 1.5 1.5 1.5h.5v18h-.5c-.828 0-1.5.672-1.5 1.5s.672 1.5 1.5 1.5h10c.828 0 1.5-.672 1.5-1.5 0-.637-.399-1.178-.96-1.396 7.787-6.688 11.96-12.364 11.96-14.604zm-4.5-1.5c.827 0 1.5.673 1.503 1.446-.092.611-1.283 2.658-4.003 5.699v-6.012c.744-.364 1.89-1.115 2.5-1.133zm-8.5 1.29v11.743c-.635.56-1.295 1.13-2 1.718v-14.792c.599.462 1.241.948 2 1.331zm-6-3.229c.792.093 1.435.294 2 .568v17.371h-2zm8 13.154v-9.293c.626.099 1.369.115 2-.03v7.375c-.612.621-1.28 1.271-2 1.947z"/></svg>