<svg id="Layer_1" viewBox="0 0 24 24" xmlns="http://www.w3.org/2000/svg" data-name="Layer 1"><path d="m11.646 10.854-3.729-3.845c.028-.001 8.207.004 8.27.01l-3.835 3.835c-.182.182-.525.181-.707 0zm-.301 3.087c-.73-.132-1.386-.532-1.911-1.056l-3.406-3.406c-.014.168-.029.334-.029.522v4.5c0 1.381 1.119 2.5 2.5 2.5h7c1.381 0 2.5-1.119 2.5-2.5v-5.051l-3.525 3.525c-.813.814-1.957 1.178-3.129.966zm12.655-8.441v13c0 3.033-2.467 5.5-5.5 5.5h-13c-3.033 0-5.5-2.467-5.5-5.5v-13c0-3.033 2.467-5.5 5.5-5.5h13c3.033 0 5.5 2.467 5.5 5.5zm-3 0c0-1.378-1.122-2.5-2.5-2.5h-13c-1.378 0-2.5 1.122-2.5 2.5v13c0 1.378 1.122 2.5 2.5 2.5h13c1.378 0 2.5-1.122 2.5-2.5z"/></svg>