<svg id="Layer_1" viewBox="0 0 24 24" xmlns="http://www.w3.org/2000/svg" data-name="Layer 1"><path d="m23.883 11.957c-.428 1.042-1.866 1.159-2.613.316-.598-.648-.756-1.378-.863-2.387-.458-4.322-3.766-6.386-7.407-6.386-2.954 0-5.672 1.402-6.851 4.205-.306.728-.84 1.337-1.553 1.678l-.024.011c-.739.354-1.68.113-2.043-.622-.165-.333-.215-.727-.09-1.16.216-.765.944-1.238 1.673-1.141-.513-.559-.585-1.453-.133-2.1.461-.646 1.293-.818 1.959-.452-.308-.721-.081-1.572.565-2.013.636-.442 1.467-.312 1.97.248-.072-.765.39-1.487 1.118-1.702.725-.21 1.475.162 1.795.846.135-.774.866-1.357 1.614-1.293.748-.064 1.479.519 1.613 1.294.32-.684 1.07-1.055 1.795-.846.729.215 1.191.937 1.118 1.702.503-.56 1.334-.689 1.97-.248.646.441.873 1.292.565 2.013.666-.366 1.498-.194 1.959.452.452.647.38 1.541-.133 2.1.729-.097 1.457.377 1.673 1.141.215.776-.143 1.573-.811 1.917.719.151 1.232.84 1.232 1.637 0 .297.012.519-.099.789zm-1.901 9.211c.2 1.193-1.232 2.832-5.338 2.832h-11.288c-4.105 0-5.537-1.638-5.338-2.832 0-.797.513-1.486 1.232-1.637-.667-.344-1.026-1.141-.811-1.917.216-.765.944-1.238 1.673-1.141-.513-.559-.585-1.453-.133-2.1.461-.646 1.293-.818 1.959-.452-.308-.721-.081-1.572.565-2.013.636-.442 1.467-.312 1.97.248-.072-.765.39-1.487 1.118-1.702.725-.21 1.475.162 1.795.846.134-.775.865-1.358 1.613-1.294.748-.064 1.479.519 1.613 1.294.32-.684 1.07-1.055 1.795-.846.729.215 1.191.937 1.118 1.702.503-.56 1.334-.689 1.97-.248.646.441.873 1.292.565 2.013.666-.366 1.498-.194 1.959.452.452.647.38 1.541-.133 2.1.729-.097 1.457.377 1.673 1.141.215.776-.143 1.573-.811 1.917.719.151 1.232.84 1.232 1.637zm-3.575-1.282c-.485-4.257-3.766-6.386-7.407-6.386s-6.922 2.129-7.407 6.386c-.067.592.404 1.114 1 1.114h12.814c.596 0 1.068-.522 1-1.114z"/></svg>