<svg id="Layer_1" viewBox="0 0 24 24" xmlns="http://www.w3.org/2000/svg" data-name="Layer 1"><path d="m21 18c-.267 0-.521.046-.767.112l-1.616-1.616c.872-1.281 1.383-2.829 1.383-4.496s-.511-3.214-1.383-4.496l1.616-1.616c.246.065.5.112.767.112 1.657 0 3-1.343 3-3s-1.343-3-3-3-3 1.343-3 3c0 .267.046.521.112.767l-1.616 1.616c-1.281-.872-2.829-1.383-4.496-1.383s-3.214.511-4.496 1.383l-1.616-1.616c.065-.246.112-.5.112-.767 0-1.657-1.343-3-3-3s-3 1.343-3 3 1.343 3 3 3c.267 0 .521-.046.767-.112l1.616 1.616c-.872 1.281-1.383 2.829-1.383 4.496s.511 3.214 1.383 4.496l-1.616 1.616c-.246-.065-.501-.112-.768-.112-1.657 0-3 1.343-3 3s1.343 3 3 3 3-1.343 3-3c0-.267-.046-.521-.111-.767l1.616-1.616c1.281.872 2.828 1.383 4.495 1.383s3.214-.511 4.496-1.383l1.616 1.616c-.065.246-.112.5-.112.767 0 1.657 1.343 3 3 3s3-1.343 3-3-1.343-3-3-3zm-6.582-2c-.477 0-.886-.317-1.032-.772-.22-.685-.782-1.228-1.887-1.228h-.781l.619 1.323c.366.781-.204 1.677-1.067 1.677-.468 0-.892-.278-1.079-.707l-1.525-3.497c-.106-.244-.167-.513-.167-.796v-1c0-1.105.895-2 2-2h2c1.105 0 1.667-.543 1.887-1.228.146-.455.554-.772 1.032-.772.597 0 1.082.484 1.082 1.082v2.01c.581.207 1 .757 1 1.408s-.419 1.201-1 1.408v2.01c0 .597-.484 1.082-1.082 1.082z"/></svg>