<svg id="Layer_1" viewBox="0 0 24 24" xmlns="http://www.w3.org/2000/svg" data-name="Layer 1"><path d="m22.477 1.525c-1.32-1.321-3.256-1.836-5.052-1.339-3.775 1.039-7.814 3.445-10.804 6.435s-5.395 7.029-6.435 10.803c-.495 1.795.018 3.732 1.338 5.051.987.988 2.32 1.524 3.68 1.524.458 0 .92-.061 1.371-.186 3.775-1.039 7.814-3.445 10.804-6.435 2.99-2.989 5.396-7.029 6.435-10.803.495-1.795-.018-3.731-1.338-5.051zm-19.399 16.696c.908-3.297 3.026-6.84 5.664-9.479 2.639-2.639 6.183-4.756 9.48-5.663.19-.053.384-.078.577-.078.17 0 .338.02.502.059-2.517 2.027-5.526 4.626-8.568 7.668-3.045 3.045-5.646 6.056-7.674 8.575-.083-.351-.08-.723.019-1.081zm17.844-12.442c-.908 3.296-3.025 6.84-5.664 9.479s-6.183 4.756-9.48 5.663c-.358.098-.729.102-1.08.019 2.519-2.028 5.531-4.629 8.575-7.673 3.042-3.042 5.641-6.051 7.668-8.568.083.351.079.722-.019 1.08z"/></svg>