<svg id="Layer_1" viewBox="0 0 24 24" xmlns="http://www.w3.org/2000/svg" data-name="Layer 1"><path d="m24 12.545c0 1.146-.799 2.363-2.283 2.45l-.15 1.193c-.311 2.452-2.218 4.365-4.593 4.743-.214 1.727-1.689 3.068-3.474 3.068h-7c-1.93 0-3.5-1.57-3.5-3.5v-1.124c0-.706-.332-1.28-.609-1.638-.64-.823-1.162-1.72-1.554-2.666-.316-.766.048-1.643.813-1.959.769-.317 1.644.048 1.96.813.288.697.674 1.36 1.148 1.97.812 1.044 1.241 2.247 1.241 3.479v1.124c0 .276.225.5.5.5h7c.275 0 .5-.224.5-.5v-1c0-.829.672-1.5 1.5-1.5h.609c1.257 0 2.323-.94 2.48-2.188l.315-2.5c.095-.75.732-1.312 1.488-1.312h.39c-.614-1.47-2.303-4.527-3.268-5.721-.944-1.258-2.164-2.188-3.562-2.733-.771-.301-1.152-1.171-.852-1.943.302-.772 1.172-1.151 1.943-.852 1.918.749 3.591 2.023 4.836 3.686.983 1.214 4.118 6.449 4.118 8.109zm-24-6.545c0-3.314 2.686-6 6-6s6 2.686 6 6-2.686 6-6 6-6-2.686-6-6zm7-1.5c0 .828.672 1.5 1.5 1.5s1.5-.672 1.5-1.5-.672-1.5-1.5-1.5-1.5.672-1.5 1.5zm-2.061 3.061c-.391-.391-1.023-.391-1.414 0s-.391 1.023 0 1.414c.661.661 1.54 1.025 2.475 1.025s1.813-.364 2.475-1.025c.391-.391.391-1.023 0-1.414s-1.023-.391-1.414 0c-.566.566-1.555.566-2.121 0zm-2.939-3.061c0 .828.672 1.5 1.5 1.5s1.5-.672 1.5-1.5-.672-1.5-1.5-1.5-1.5.672-1.5 1.5zm11.5 6.5c-.377 0-.717-.144-.981-.374-.366.515-.792.984-1.267 1.398.838.06 1.622.4 2.222 1.001.391.391.391 1.023 0 1.414s-1.023.391-1.414 0c-.566-.566-1.555-.566-2.121 0-.391.391-1.023.391-1.414 0-.21-.21-.298-.489-.282-.764-.769.22-1.605.356-2.44.315 1.036 1.797 2.973 3.01 5.197 3.01 3.314 0 6-2.686 6-6 0-2.224-1.213-4.16-3.01-5.197.039.757-.078 1.515-.258 2.22.718.112 1.268.728 1.268 1.477 0 .828-.672 1.5-1.5 1.5z"/></svg>