<svg id="Layer_1" viewBox="0 0 24 24" xmlns="http://www.w3.org/2000/svg" data-name="Layer 1"><path d="m10.604 9.561-1.49 1.49 1.425 1.367c.598.574.617 1.523.044 2.121-.295.308-.688.462-1.083.462-.374 0-.748-.139-1.039-.418l-1.638-1.571c-1.088-1.088-1.088-2.824-.022-3.89l1.681-1.681c.586-.586 1.535-.586 2.121 0 .586.585.586 1.536 0 2.121zm2.814 4.978c.295.308.688.462 1.083.462.374 0 .748-.139 1.039-.418l1.66-1.593c1.066-1.066 1.066-2.802 0-3.868l-1.681-1.681c-.586-.586-1.535-.586-2.121 0-.586.585-.586 1.536 0 2.121l1.49 1.49-1.425 1.367c-.598.574-.617 1.523-.044 2.121zm10.094-.689c-.875-1.07-2.456-1.129-3.409-.176l-5.808 5.808c-.813.813-1.269 1.915-1.269 3.064v.955c0 .276.224.5.5.5h.955c1.149 0 2.252-.457 3.064-1.269l5.715-5.715c.85-.85 1.013-2.236.252-3.167zm-14.281 3.151-.923-1h-3.308v-7.5c0-1.378 1.122-2.5 2.5-2.5h9c1.378 0 2.5 1.122 2.5 2.5v3.507c.824-.682 1.873-1.06 2.942-1.002.02 0 .038.008.058.009v-2.514c0-3.033-2.467-5.5-5.5-5.5h-9c-3.033 0-5.5 2.467-5.5 5.5v7.5c-1.105 0-2 .895-2 2v1.154c0 1.02.827 1.846 1.846 1.846h9.376c.275-1.1.836-2.111 1.659-2.934l1.066-1.066h-4.717z"/></svg>