<svg id="Layer_1" viewBox="0 0 24 24" xmlns="http://www.w3.org/2000/svg" data-name="Layer 1"><path d="m5 15.11v-2.656c0-.815-.669-1.455-1.484-1.454h-.033c-.815 0-1.484.64-1.484 1.454v2.656c-1.397.221-2 .737-2 1.12v6.538c0 .5 1.015 1.231 3.5 1.231s3.5-.731 3.5-1.231v-6.538c0-.383-.603-.899-2-1.12zm0 5.8c-.461.053-.951.09-1.5.09-.553 0-1.041-.033-1.5-.081v-2.005c.421.053.918.086 1.5.086s1.077-.037 1.5-.095zm15.5-5.91c-1.006 0-1.761.123-2.315.298l-7.693-6.749c-.752-.66-1.925-.425-2.365.473-.302.617-.153 1.36.365 1.812l8.508 7.429v4.505c0 .5 1.015 1.231 3.5 1.231s3.5-.731 3.5-1.231v-6.538c0-.5-1.015-1.231-3.5-1.231zm1.5 5.91c-.461.053-.951.09-1.5.09-.553 0-1.041-.033-1.5-.081v-2.005c.421.053.918.086 1.5.086s1.077-.037 1.5-.095zm-1.5-20.91c-2.485 0-3.5.731-3.5 1.231v1.769h-6.5c-.829 0-1.5.672-1.5 1.5s.671 1.5 1.5 1.5h6.5v1.769c0 .5 1.015 1.231 3.5 1.231s3.5-.731 3.5-1.231v-6.538c0-.5-1.015-1.231-3.5-1.231zm1.5 5.91c-.461.053-.951.09-1.5.09-.553 0-1.041-.033-1.5-.081v-2.005c.421.053.918.086 1.5.086s1.077-.037 1.5-.095zm-18.5-5.91c-2.485 0-3.5.731-3.5 1.231v6.538c0 .5 1.015 1.231 3.5 1.231s3.5-.731 3.5-1.231v-6.538c0-.5-1.015-1.231-3.5-1.231zm1.5 5.91c-.461.053-.951.09-1.5.09-.553 0-1.041-.033-1.5-.081v-2.005c.421.053.918.086 1.5.086s1.077-.037 1.5-.095z"/></svg>