<svg id="Layer_1" viewBox="0 0 24 24" xmlns="http://www.w3.org/2000/svg" data-name="Layer 1"><path d="m18 0c-3.314 0-6 2.686-6 6s2.686 6 6 6 6-2.686 6-6-2.686-6-6-6zm2.326 7.145-2.88 1.6c-.873.485-1.946-.146-1.946-1.145v-3.201c0-.999 1.073-1.63 1.946-1.145l2.88 1.6c.898.499.898 1.791 0 2.29zm-6.326 10.355v1h-1v-1c0-.276.225-.5.5-.5s.5.224.5.5zm7.36-4.247c-1.023.475-2.158.747-3.36.747-1.404 0-2.723-.364-3.87-1h-10.13c-2.209 0-4 1.791-4 4v3c0 2.209 1.791 4 4 4h16c2.209 0 4-1.791 4-4v-3c0-1.729-1.104-3.189-2.64-3.747zm-14.86 5.747h-.5v1.5c0 .276-.224.5-.5.5s-.5-.224-.5-.5v-3.5c0-.552.448-1 1-1h.5c.827 0 1.5.673 1.5 1.5s-.673 1.5-1.5 1.5zm4 2h-1c-.276 0-.5-.224-.5-.5v-4c0-.276.224-.5.5-.5s.5.224.5.5v3.5h.5c.276 0 .5.224.5.5s-.224.5-.5.5zm4.5-.5c0 .276-.224.5-.5.5s-.5-.224-.5-.5v-1h-1v1c0 .276-.224.5-.5.5s-.5-.224-.5-.5v-3c0-.827.673-1.5 1.5-1.5s1.5.673 1.5 1.5zm3.974-3.841-.975 2.924v.918c0 .276-.224.5-.5.5s-.5-.224-.5-.5v-.918l-.975-2.924c-.087-.262.055-.545.316-.633.263-.088.545.055.633.316l.525 1.577.525-1.577c.089-.261.372-.403.633-.316.262.088.403.371.316.633zm-11.974.841c0 .275-.225.5-.5.5h-.5v-1h.5c.275 0 .5.225.5.5z"/></svg>