<svg id="Layer_1" viewBox="0 0 24 24" xmlns="http://www.w3.org/2000/svg" data-name="Layer 1"><path d="m12 16.8v6.23c0 .535-.434.97-.97.97-.383 0-.731-.226-.886-.576l-1.544-3.478v3.254c0 .442-.358.8-.8.8s-.8-.358-.8-.8v-6.226c0-.537.437-.972.974-.969.381.002.725.227.88.576l1.546 3.482v-3.263c0-.442.358-.8.8-.8s.8.358.8.8zm5.8 1.5v3.4c0 1.269-1.031 2.3-2.3 2.3s-2.3-1.031-2.3-2.3v-3.4c0-1.269 1.031-2.3 2.3-2.3s2.3 1.031 2.3 2.3zm-1.6 0c0-.386-.314-.7-.7-.7s-.7.314-.7.7v3.4c0 .386.314.7.7.7s.7-.314.7-.7zm6.994-2.3c-.39 0-.724.28-.793.664l-.984 5.482-1.007-5.488c-.07-.38-.402-.657-.788-.657-.5 0-.878.454-.788.946l1.037 5.637c.103.58.61 1.416 1.546 1.416s1.435-.794 1.555-1.462l1.015-5.588c.09-.495-.29-.95-.793-.95zm-4.694-14h-.5v-.5c0-.828-.671-1.5-1.5-1.5s-1.5.672-1.5 1.5v.5h-6v-.5c0-.828-.671-1.5-1.5-1.5s-1.5.672-1.5 1.5v.5h-.5c-3.033 0-5.5 2.468-5.5 5.5v11c0 1.999 1.086 3.843 2.835 4.812.711.398 1.635.147 2.039-.584.401-.725.14-1.638-.585-2.039-.795-.441-1.29-1.279-1.29-2.188v-9.501h18.001v3.5c0 .828.671 1.5 1.5 1.5s1.5-.672 1.5-1.5v-5c0-3.032-2.467-5.5-5.5-5.5z"/></svg>