<svg id="Layer_1" viewBox="0 0 24 24" xmlns="http://www.w3.org/2000/svg" data-name="Layer 1"><path d="m11.967 10.25c.413 0 .762.336.762.735s-.349.735-.762.735l-.71.003-.005-1.473zm10.033 3.25v2.5h.5c.828 0 1.5.672 1.5 1.5s-.672 1.5-1.5 1.5h-1.107c-.527 1.027-1.366 1.866-2.393 2.393v1.107c0 .828-.672 1.5-1.5 1.5s-1.5-.672-1.5-1.5v-.5h-2.5v.5c0 .828-.671 1.5-1.5 1.5s-1.5-.672-1.5-1.5v-.5h-2.5v.5c0 .828-.671 1.5-1.5 1.5s-1.5-.672-1.5-1.5v-1.107c-1.027-.527-1.866-1.366-2.393-2.393h-1.107c-.829 0-1.5-.672-1.5-1.5s.671-1.5 1.5-1.5h.5v-2.5h-.5c-.829 0-1.5-.672-1.5-1.5s.671-1.5 1.5-1.5h.5v-2.5h-.5c-.829 0-1.5-.672-1.5-1.5s.671-1.5 1.5-1.5h1.107c.527-1.027 1.366-1.866 2.393-2.393v-1.107c0-.828.671-1.5 1.5-1.5s1.5.672 1.5 1.5v.5h2.5v-.5c0-.828.671-1.5 1.5-1.5s1.5.672 1.5 1.5v.5h2.5v-.5c0-.828.672-1.5 1.5-1.5s1.5.672 1.5 1.5v1.107c1.027.527 1.866 1.366 2.393 2.393h1.107c.828 0 1.5.672 1.5 1.5s-.672 1.5-1.5 1.5h-.5v2.5h.5c.828 0 1.5.672 1.5 1.5s-.672 1.5-1.5 1.5zm-3.051 3.5h-13.898c.232 1.14 1.242 2 2.449 2h9c1.208 0 2.217-.86 2.449-2zm-13.898-10h13.899c-.232-1.14-1.242-2-2.449-2h-9.001c-1.207 0-2.217.86-2.449 2zm13.949 6.084v-3.459c0-.345-.28-.625-.625-.625s-.625.28-.625.625v3.443c-.001.449-.359.751-.75.751-.408-.007-.75-.34-.75-.735v-3.459c0-.345-.28-.625-.625-.625s-.625.28-.625.625v3.443s0 0 0 0v.016c0 1.09.896 1.977 2 1.984 1.109.001 2-.889 2-1.984zm-7.033-4.084h-.967c-.552 0-1 .448-1 1v4.444c0 .345.28.625.625.625s.625-.28.625-.625v-1.471l.717-.003c1.109 0 2.012-.891 2.012-1.985s-.902-1.985-2.012-1.985zm-6.967 1.985v2.099c0 1.094.891 1.985 2 1.985.828-.004 1.536-.507 1.841-1.213.175-.404-.125-.856-.566-.856h-.05c-.236 0-.44.148-.536.364-.116.26-.379.451-.689.455-.391 0-.749-.302-.749-.751v-2.067c0-.449.358-.751.749-.751.294.005.554.188.676.438.096.197.305.312.524.312h.016c.474 0 .776-.501.557-.919-.334-.636-1.003-1.076-1.773-1.08-1.109-.001-2 .889-2 1.984z"/></svg>