<?xml version="1.0" encoding="UTF-8"?>
<svg xmlns="http://www.w3.org/2000/svg" id="Layer_1" data-name="Layer 1" viewBox="0 0 24 24">
  <path d="M14.5,13c-.828,0-1.5-.672-1.5-1.5s.672-1.5,1.5-1.5,1.5,.672,1.5,1.5-.672,1.5-1.5,1.5Zm8.318,1.353c-.555,.55-1.242,.913-1.988,1.068-.596,2.824-2.912,5.996-6.98,8.127-1.151,.603-2.55,.603-3.702,0-4.098-2.147-6.434-5.462-7.009-8.216-.144-.689,.384-1.339,1.084-1.405,.214-.02,.447-.046,.691-.08,.755-.103,1.536,.212,1.908,.878,.199,.356,.431,.687,.687,.993,.615-1.024,1.725-1.718,3.004-1.718h2.973c1.279,0,2.389,.694,3.003,1.718,.428-.567,.955-1.214,1.03-1.964,.127-.761,.812-1.284,1.557-1.251,.163,.003,.667,.005,.921,.006,.515,.008,1.022-.447,1.002-.985,0-.426-.306-.791-.727-.867-.655-.119-1.154-.656-1.224-1.319-.381-3.612-3.412-6.337-7.05-6.337-5.002,0-6.319,2.945-7.48,5.543-.042,.094-.083,.187-.125,.279,2.045-.325,4.842-1.18,7.045-3.383,.586-.586,1.535-.586,2.121,0,.586,.585,.586,1.536,0,2.121-1.101,1.101-2.302,1.92-3.508,2.548,.554,.22,.947,.759,.947,1.392,0,.828-.672,1.5-1.5,1.5s-1.5-.672-1.5-1.5c0-.19,.039-.371,.104-.539-3.47,1.247-6.526,1.048-6.719,1.034-.654-.05-1.2-.521-1.347-1.161-.147-.64,.14-1.301,.707-1.631,.267-.165,.729-1.2,1.036-1.885C3.004,4.582,5.053,0,12,0c4.852,0,8.945,3.406,9.887,8.068,1.27,.649,2.113,1.967,2.113,3.455,0,1.07-.42,2.075-1.182,2.83Zm-8.805,3.161c0-.834-.679-1.513-1.513-1.513h-.973c-.834,0-1.514,.679-1.514,1.513v.05c.666,.275,1.347,.436,1.987,.436,.648,0,1.339-.166,2.013-.448v-.039Z"/>
</svg>
