<svg id="Layer_1" viewBox="0 0 24 24" xmlns="http://www.w3.org/2000/svg" data-name="Layer 1"><path d="m4.271 7.155c.484 1.466.729 2.994.729 4.539v4.419c0 1.285-.172 2.569-.511 3.815-.441 1.618-.489 2.337-.489 2.572 0 .829-.671 1.5-1.5 1.5s-1.5-.671-1.5-1.5c0-.783.2-1.914.594-3.36.269-.989.406-2.007.406-3.026v-4.419c0-1.226-.194-2.437-.578-3.599-.632-1.916-1.345-5.319-1.419-6.502-.052-.827.577-1.539 1.403-1.591.834-.046 1.539.576 1.591 1.403.048.771.664 3.901 1.274 5.749zm17.667 8.958v-4.419c0-1.226.194-2.437.578-3.599.518-1.569 1.485-5.218 1.485-6.595 0-.829-.671-1.5-1.5-1.5s-1.5.671-1.5 1.5c0 .675-.672 3.651-1.333 5.655-.484 1.466-.729 2.993-.729 4.539v4.419c0 1.285.172 2.569.511 3.815.441 1.618.551 2.337.551 2.571 0 .829.671 1.5 1.5 1.5s1.5-.671 1.5-1.5c0-.783-.263-1.914-.657-3.36-.269-.989-.406-2.008-.406-3.027zm-9.938-3.113c.828 0 1.5-.672 1.5-1.5s-.672-1.5-1.5-1.5-1.5.672-1.5 1.5.672 1.5 1.5 1.5zm5.139 4.585-1.532.656c-.368.157-.607.519-.607.919v1.319c0 .427-.483.676-.831.427l-1.588-1.134c-.348-.248-.815-.248-1.163 0l-1.588 1.134c-.348.248-.831 0-.831-.427v-1.319c0-.4-.239-.762-.607-.919l-1.532-.656c-.482-.241-.482-.928 0-1.169l1.532-.656c.368-.157.607-.519.607-.919v-1.272c0-.447.505-.707.869-.447l1.55 1.107c.348.248.815.248 1.163 0l1.55-1.107c.364-.26.869 0 .869.447v1.272c0 .4.239.762.607.919l1.532.656c.482.241.482.928 0 1.169zm-3.639-.585c0-.828-.672-1.5-1.5-1.5s-1.5.672-1.5 1.5.672 1.5 1.5 1.5 1.5-.672 1.5-1.5zm-1.5 4c-.828 0-1.5.672-1.5 1.5s.672 1.5 1.5 1.5 1.5-.672 1.5-1.5-.672-1.5-1.5-1.5zm0-13c.828 0 1.5-.672 1.5-1.5s-.672-1.5-1.5-1.5-1.5.672-1.5 1.5.672 1.5 1.5 1.5zm0-5c.828 0 1.5-.672 1.5-1.5s-.672-1.5-1.5-1.5-1.5.672-1.5 1.5.672 1.5 1.5 1.5z"/></svg>