<svg id="Layer_1" viewBox="0 0 24 24" xmlns="http://www.w3.org/2000/svg" data-name="Layer 1"><path d="m8.383 9.617c-.511-.511-.511-1.339 0-1.85.31-.31 1.263-.584 1.967-.752.383-.091.727.252.635.635-.168.703-.442 1.657-.752 1.967-.511.511-1.339.511-1.85 0zm7.234 0c.511-.511.511-1.339 0-1.85-.31-.31-1.263-.584-1.967-.752-.383-.091-.727.252-.635.635.168.703.442 1.657.752 1.967.511.511 1.339.511 1.85 0zm6.332 4.133-.482 2.713c-.468 2.629-2.746 4.537-5.416 4.537h-8.102c-2.67 0-4.947-1.908-5.415-4.537l-.482-2.709c-1.519-.671-2.012-2.317-2.051-3.188-.001-4.061 5.606-7.566 11.999-7.566s12 3.505 12 7.5c-.049 1.134-.658 2.62-2.051 3.25zm-18.949-3.257s0-.001 0-.001c.006 0 .063.403.258.518.662.049 1.299.287 1.817.681.532.405 1.318.404 1.849 0 1.202-.916 2.948-.917 4.151 0 .532.405 1.318.404 1.849 0 .602-.458 1.339-.687 2.077-.687s1.474.229 2.075.686c.532.405 1.318.404 1.849 0 .458-.334.999-.606 1.576-.628.124 0 .452 0 .503-.653-.003-1.681-3.868-4.411-9.003-4.411s-8.991 2.725-9.001 4.495zm15.513 5.444.176-.993c-.226.034-.456.055-.689.055-1.002 0-1.95-.319-2.742-.923-.137-.104-.379-.104-.517 0-1.582 1.206-3.899 1.207-5.483 0-.136-.104-.378-.104-.517 0-.979.746-2.239 1.028-3.433.851l.179 1.009c.212 1.195 1.248 2.062 2.461 2.062h8.102c1.214 0 2.249-.868 2.462-2.062z"/></svg>