<svg id="Layer_1" viewBox="0 0 24 24" xmlns="http://www.w3.org/2000/svg" data-name="Layer 1"><path d="m23.361 13.639c.852.852.852 2.234 0 3.086l-6.104 6.104c-.75.75-1.768 1.172-2.828 1.172h-.929c-.276 0-.5-.224-.5-.5v-.929c0-1.061.421-2.078 1.172-2.828l6.104-6.104c.852-.852 2.234-.852 3.086 0zm-.666-9.29-2.994-3.018c-.839-.846-2.003-1.331-3.194-1.331h-5.007c-3.032 0-5.5 2.467-5.5 5.5v1.5h-1c-.552 0-1-.449-1-1v-1.511c.604-.456 1-1.173 1-1.989 0-1.381-1.119-2.5-2.5-2.5s-2.5 1.119-2.5 2.5c0 .815.396 1.532 1 1.989v1.511c0 2.206 1.794 4 4 4h1v2h-1c-2.206 0-4 1.794-4 4v1.511c-.604.456-1 1.173-1 1.989 0 1.381 1.119 2.5 2.5 2.5s2.5-1.119 2.5-2.5c0-.815-.396-1.532-1-1.989v-1.511c0-.551.448-1 1-1h1v1.5c0 1.998 1.086 3.842 2.835 4.812.23.128.48.189.727.189.527 0 1.039-.279 1.312-.773.402-.724.141-1.637-.584-2.039-.796-.441-1.29-1.28-1.29-2.189v-11c0-1.378 1.121-2.5 2.5-2.5h5.007c.169 0 .335.035.493.09v1.91c0 1.105.895 2 2 2h1.904c.06.164.096.338.096.518v2.482c0 .829.672 1.5 1.5 1.5s1.5-.671 1.5-1.5v-2.482c0-1.195-.464-2.321-1.305-3.169zm-10.195 7.651h5c.828 0 1.5-.671 1.5-1.5s-.672-1.5-1.5-1.5h-5c-.828 0-1.5.671-1.5 1.5s.672 1.5 1.5 1.5zm2.5 3.5c0-.829-.672-1.5-1.5-1.5h-1c-.828 0-1.5.671-1.5 1.5s.672 1.5 1.5 1.5h1c.828 0 1.5-.671 1.5-1.5z"/></svg>