<svg id="Layer_1" viewBox="0 0 24 24" xmlns="http://www.w3.org/2000/svg" data-name="Layer 1"><path d="m16.196 12.127c-2.57.499-4.625 2.593-5.088 5.17-.421 2.344.418 4.513 1.951 5.948.432.404 1.124.335 1.503-.119l.938-1.125h4l.936 1.123c.381.457 1.078.521 1.512.114 1.262-1.185 2.051-2.868 2.051-4.737 0-4.016-3.642-7.182-7.804-6.373zm4.511 4.58-1.715 1.715c0 1.078-.643 1.582-1.492 1.578-.828 0-1.5-.672-1.5-1.5-.004-.849.5-1.492 1.578-1.492l1.715-1.715c.39-.391 1.024-.391 1.414 0s.39 1.024 0 1.414zm-2.207-16.707h-13c-3.038 0-5.5 2.462-5.5 5.5v11c0 3.038 2.462 5.5 5.5 5.5h2c.828 0 1.5-.672 1.5-1.5s-.672-1.5-1.5-1.5h-2c-1.381 0-2.5-1.119-2.5-2.5v-9.5h18v2.5c0 .828.672 1.5 1.5 1.5s1.5-.672 1.5-1.5v-4c0-3.038-2.462-5.5-5.5-5.5zm-14 5c-.828 0-1.5-.672-1.5-1.5s.672-1.5 1.5-1.5 1.5.672 1.5 1.5-.672 1.5-1.5 1.5zm5 0c-.828 0-1.5-.672-1.5-1.5s.672-1.5 1.5-1.5 1.5.672 1.5 1.5-.672 1.5-1.5 1.5z"/></svg>