<svg id="Layer_1" viewBox="0 0 24 24" xmlns="http://www.w3.org/2000/svg" data-name="Layer 1"><path d="m2.502 14.999c-1.381 0-2.502-1.119-2.502-2.5v-1.999c0-1.381 1.119-2.5 2.5-2.5h3c1.381 0 2.501 1.119 2.5 2.501l-.002 5.272c0 .638-.524 1.088-1.089 1.088-.196 0-.397-.054-.583-.173l-2.454-1.69h-1.37zm21.072-3.534c.283.297.433.696.413 1.106-.3 6.409-5.565 11.43-11.986 11.43-3.829 0-7.46-1.852-9.714-4.952-.486-.67-.338-1.608.332-2.096.672-.486 1.608-.339 2.096.332 1.055 1.452 2.511 2.538 4.155 3.15-.134-.241-.268-.491-.401-.753-.376-.737-.082-1.641.656-2.018.736-.372 1.64-.084 2.018.656.29.569.585 1.078.859 1.525.88-1.433 1.989-3.596 2.364-5.844h-2.865c-.828 0-1.5-.672-1.5-1.5s.672-1.5 1.5-1.5h10.988c.41 0 .802.168 1.085.464zm-2.795 2.536h-3.388c-.315 2.43-1.312 4.722-2.266 6.442 2.82-1.04 4.979-3.446 5.654-6.442zm-16.279-7.85c.389 0 .777-.15 1.071-.45.946-.966 2.073-1.681 3.302-2.135-.391.705-.79 1.496-1.148 2.362-.315.766.049 1.643.814 1.958.747.314 1.644-.041 1.959-.815.487-1.182 1.071-2.223 1.571-3.027.049.076.097.15.146.231.431.716 1.362.931 2.06.507.709-.429.936-1.351.507-2.06-.039-.065-.078-.123-.117-.185.162-.202.279-.444.319-.719.118-.82-.451-1.58-1.271-1.698-.557-.078-1.128-.119-1.696-.12-.005 0-.011 0-.016 0-3.253 0-6.297 1.279-8.572 3.602-.58.592-.57 1.542.021 2.121.292.286.671.429 1.05.429zm17-5.151h-3c-1.381 0-2.501 1.119-2.5 2.501l.002 5.272c0 .638.524 1.088 1.089 1.088.196 0 .397-.054.583-.173l2.454-1.69h1.37c1.381.002 2.502-1.118 2.502-2.499v-1.999c0-1.381-1.119-2.5-2.5-2.5z"/></svg>