<svg id="Layer_1" viewBox="0 0 24 24" xmlns="http://www.w3.org/2000/svg" data-name="Layer 1"><path d="m24 14.5c0-1.448-.88-2.69-2.133-3.223.802-.529 1.447-1.132 1.878-1.615.431-.484.299-1.232-.259-1.562-.58-.344-1.434-.724-2.565-.917.045-.222.079-.448.079-.683 0-1.933-1.567-3.5-3.5-3.5-.362 0-.702.074-1.029.177.162-.949.136-1.755.041-2.336-.1-.62-.73-.996-1.32-.779-.713.263-1.689.73-2.587 1.479-.514-.915-1.482-1.541-2.606-1.541-1.386 0-2.542.945-2.886 2.223-.345-.139-.719-.223-1.114-.223-1.657 0-3 1.343-3 3 0 .147.019.289.04.43-1.878 1.974-3.039 4.636-3.039 7.57 0 6.065 4.935 11 11 11 2.934 0 5.596-1.161 7.57-3.04.141.021.283.04.43.04 1.657 0 3-1.343 3-3 0-.114-.013-.225-.025-.336 1.193-.558 2.025-1.76 2.025-3.164zm-13 6.5c-4.411 0-8-3.589-8-8s3.589-8 8-8 8 3.589 8 8-3.589 8-8 8zm5.561-7.939-5.5 5.5c-.586.586-1.535.586-2.121 0s-.586-1.535 0-2.121l5.5-5.5c.586-.586 1.535-.586 2.121 0s.586 1.535 0 2.121zm-3.5-3.5-5.5 5.5c-.586.586-1.535.586-2.121 0s-.586-1.535 0-2.121l5.5-5.5c.586-.586 1.535-.586 2.121 0s.586 1.535 0 2.121z"/></svg>