<?xml version="1.0" encoding="UTF-8"?>
<svg xmlns="http://www.w3.org/2000/svg" id="Layer_1" data-name="Layer 1" viewBox="0 0 24 24">
  <path d="M2,2.5C2,1.119,3.119,0,4.5,0s2.5,1.119,2.5,2.5-1.119,2.5-2.5,2.5-2.5-1.119-2.5-2.5Zm15,2.5c1.381,0,2.5-1.119,2.5-2.5s-1.119-2.5-2.5-2.5-2.5,1.119-2.5,2.5,1.119,2.5,2.5,2.5Zm7-3.5V3.844c0,1.23-.513,2.422-1.406,3.27l-1.563,1.477c-.009,.008-.021,.011-.03,.019v13.891c0,.828-.672,1.5-1.5,1.5s-1.5-.672-1.5-1.5v-4.5h-2v4.5c0,.828-.672,1.5-1.5,1.5s-1.5-.672-1.5-1.5V8.609c-.009-.008-.021-.011-.03-.019l-1.561-1.476c-.896-.848-1.409-2.04-1.409-3.271V1.5c0-.828,.671-1.5,1.5-1.5s1.5,.672,1.5,1.5V3.844c0,.41,.172,.809,.471,1.092l1.126,1.064h4.807l1.128-1.065c.297-.282,.469-.68,.469-1.091V1.5c0-.828,.672-1.5,1.5-1.5s1.5,.672,1.5,1.5Zm-6,13.5v-6h-2v6h2Zm-6-2.5c0,.828-.671,1.5-1.5,1.5h-1.04c-.939,0-1.807-.386-2.46-1.041v1.541c0,1.391-.822,2.585-2,3.149v4.851c0,.828-.671,1.5-1.5,1.5s-1.5-.672-1.5-1.5v-4.851c-1.178-.564-2-1.758-2-3.149v-5c0-1.93,1.57-3.5,3.5-3.5,1.023,.009,1.92,.453,2.619,1.129l2.952,3.685c.095,.118,.237,.187,.39,.187h1.04c.829,0,1.5,.672,1.5,1.5ZM3,14.5c0,.275,.224,.5,.5,.5s.5-.225,.5-.5v-5c0-.275-.224-.5-.5-.5s-.5,.225-.5,.5v5Z"/>
</svg>
