<svg id="Layer_1" viewBox="0 0 24 24" xmlns="http://www.w3.org/2000/svg" data-name="Layer 1"><path d="m6.315 6.08c-.188-.64-.773-1.08-1.44-1.08h-3.375c-.828 0-1.5.671-1.5 1.5s.672 1.5 1.5 1.5h.919l-2.342 7.026c-.051.153-.077.313-.077.474 0 2.481 2.019 4.5 4.5 4.5s4.5-2.019 4.5-4.5c0-.142-.021-.284-.06-.42zm-.523 8.92h-2.544l1.357-4.07zm7.708-7.216v14.716c0 .829-.672 1.5-1.5 1.5s-1.5-.671-1.5-1.5v-14.83c-.544-.231-1.038-.58-1.459-1l-2.748-2.67c-.391-.391-.391-1.024 0-1.414.391-.391 1.024-.391 1.414 0l1.009.93v-2.688c0-.457.371-.828.828-.828s.828.371.828.828v.672h1.418v-.672c0-.457.371-.828.828-.828s.828.371.828.828v.682h1.392v-.678c0-.459.372-.831.831-.831s.831.372.831.831v2.835c0 1.195-.486 2.278-1.271 3.063-.479.479-1.071.841-1.729 1.055zm8.081.216h.919c.828 0 1.5-.671 1.5-1.5s-.672-1.5-1.5-1.5h-3.375c-.667 0-1.253.44-1.44 1.08l-2.625 9c-.039.136-.06.278-.06.42 0 2.481 2.019 4.5 4.5 4.5s4.5-2.019 4.5-4.5c0-.161-.026-.321-.077-.474zm-2.185 2.93 1.357 4.07h-2.544z"/></svg>