<svg id="Layer_1" viewBox="0 0 24 24" xmlns="http://www.w3.org/2000/svg" data-name="Layer 1"><path d="m18 0c-3.314 0-6 2.686-6 6s2.686 6 6 6 6-2.686 6-6-2.686-6-6-6zm-1 3c0-.553.448-1 1-1s1 .447 1 1v2c0 .553-.448 1-1 1s-1-.447-1-1zm1 7c-.828 0-1.5-.672-1.5-1.5s.672-1.5 1.5-1.5 1.5.672 1.5 1.5-.672 1.5-1.5 1.5zm2.77 5.696c-1.041 4.886-5.31 8.304-10.265 8.304-4.633 0-8.422-2.988-9.946-7.35-1.104-3.163-.547-6.244 1.61-8.91.584-.722 1.489-1.076 2.411-.952.541.074 1.031.3 1.424.644.473-1.743 1.075-3.159 1.834-4.331.214-.331.485-.61.805-.833.682-.471 1.616-.302 2.088.377.472.68.304 1.613-.375 2.086-.761 1.175-1.357 2.796-1.773 4.822-.182.888-.735 1.948-2.334 1.948-1.308 0-1.84-.994-2.073-1.446-1.236 1.742-1.493 3.582-.786 5.607.562 1.609 1.59 2.954 2.866 3.897-.567-1.481-.247-3.172 1.06-4.74.326-.392.961-1.153 1.544-1.961.403-.559 1.02-.838 1.638-.838s1.235.279 1.638.838c.583.809 1.218 1.57 1.544 1.961 1.356 1.628 1.664 3.389 1.006 4.909 1.567-1.05 2.727-2.682 3.147-4.656.173-.81.967-1.329 1.78-1.155.811.173 1.327.97 1.155 1.78z"/></svg>