<svg id="Layer_1" viewBox="0 0 24 24" xmlns="http://www.w3.org/2000/svg" data-name="Layer 1"><path d="m17 10c-3.859 0-7 3.141-7 7s3.141 7 7 7 7-3.141 7-7-3.141-7-7-7zm4.212 9.67h-2.262s-.689 2.149-.689 2.149c-.406.107-.823.181-1.262.181s-.856-.075-1.262-.181l-.689-2.148h-2.262c-.451-.71-.72-1.538-.763-2.427l1.82-1.282-.664-2.148c.536-.641 1.217-1.151 2.008-1.46l1.811 1.316 1.811-1.316c.791.31 1.472.819 2.008 1.46l-.664 2.148 1.82 1.282c-.044.89-.312 1.718-.763 2.427zm-1.056-3.709-1.205 3.71h-3.901l-1.205-3.71 3.156-2.293 3.156 2.293zm3.844-10.461v.5c0 .828-.672 1.5-1.5 1.5-.37 0-.725.136-1 .382-.619.552-1.565.499-2.118-.118-.552-.617-.499-1.565.118-2.118.414-.37.889-.657 1.398-.852-.306-1.036-1.265-1.794-2.398-1.794h-13c-1.129 0-2.085.752-2.395 1.78 1.72.629 2.915 2.25 2.915 4.199 0 1.929-1.214 3.579-2.919 4.228.306 1.035 1.266 1.793 2.398 1.793h1c.828 0 1.5.672 1.5 1.5s-.672 1.5-1.5 1.5h-1c-3.032 0-5.5-2.468-5.5-5.5v-.5c0-.828.672-1.5 1.5-1.5.853 0 1.521-.668 1.521-1.521 0-.844-.653-1.479-1.521-1.479-.828 0-1.5-.672-1.5-1.5v-.5c.001-3.032 2.469-5.5 5.501-5.5h13c3.032 0 5.5 2.468 5.5 5.5z"/></svg>