<svg id="Layer_1" viewBox="0 0 24 24" xmlns="http://www.w3.org/2000/svg" data-name="Layer 1"><path d="m0 6.5v-1c0-3.032 2.468-5.5 5.5-5.5h1c.828 0 1.5.672 1.5 1.5s-.672 1.5-1.5 1.5h-1c-1.379 0-2.5 1.121-2.5 2.5v1c0 .828-.672 1.5-1.5 1.5s-1.5-.672-1.5-1.5zm18.5-6.5h-1c-.828 0-1.5.672-1.5 1.5s.672 1.5 1.5 1.5h1c1.379 0 2.5 1.121 2.5 2.5v1c0 .828.672 1.5 1.5 1.5s1.5-.672 1.5-1.5v-1c0-3.032-2.468-5.5-5.5-5.5zm4 16c-.828 0-1.5.672-1.5 1.5v1c0 1.379-1.121 2.5-2.5 2.5h-1c-.828 0-1.5.672-1.5 1.5s.672 1.5 1.5 1.5h1c3.032 0 5.5-2.468 5.5-5.5v-1c0-.828-.672-1.5-1.5-1.5zm-16 5h-1c-1.379 0-2.5-1.121-2.5-2.5v-1c0-.828-.672-1.5-1.5-1.5s-1.5.672-1.5 1.5v1c0 3.032 2.468 5.5 5.5 5.5h1c.828 0 1.5-.672 1.5-1.5s-.672-1.5-1.5-1.5zm16-11h-7.5c-1.657 0-3-1.343-3-3v-3h-3c-1.657 0-3 1.343-3 3v3h-4.5c-.828 0-1.5.672-1.5 1.5s.672 1.5 1.5 1.5h21c.828 0 1.5-.672 1.5-1.5s-.672-1.5-1.5-1.5zm-4.5 6v-1h-12v1c0 1.657 1.343 3 3 3h6c1.657 0 3-1.343 3-3zm-3-8h2.954c-1.534-1.534-2.42-2.42-3.954-3.954v2.954c0 .552.448 1 1 1z"/></svg>