<svg id="Layer_1" viewBox="0 0 24 24" xmlns="http://www.w3.org/2000/svg" data-name="Layer 1"><path d="m13.5 8.5v3.19c.307.352.5.806.5 1.31 0 1.105-.895 2-2 2s-2-.895-2-2c0-.504.193-.959.5-1.31v-3.19c0-.829.671-1.5 1.5-1.5s1.5.671 1.5 1.5zm9-6c-.841 0-1-.159-1-1 0-.829-.671-1.5-1.5-1.5s-1.5.671-1.5 1.5c0 .641.101 1.214.289 1.715l-.608.675c-1.373-.929-2.966-1.547-4.681-1.779v-.611c0-.829-.671-1.5-1.5-1.5s-1.5.671-1.5 1.5v.615c-1.712.235-3.304.855-4.672 1.786l-.617-.686c.188-.501.289-1.073.289-1.715 0-.829-.671-1.5-1.5-1.5s-1.5.671-1.5 1.5c0 .841-.159 1-1 1-.829 0-1.5.671-1.5 1.5s.671 1.5 1.5 1.5c.563 0 1.068-.086 1.523-.232l.579.643c-1.62 1.916-2.602 4.389-2.602 7.089 0 4.053 2.218 7.766 5.789 9.688.715.389 1.637.128 2.032-.609.393-.729.12-1.639-.609-2.031-2.598-1.399-4.211-4.1-4.211-7.048 0-4.411 3.589-8 8-8 3.959 0 7.282 2.833 7.901 6.735.129.818.9 1.375 1.716 1.247.818-.13 1.376-.898 1.247-1.716-.325-2.052-1.197-3.886-2.45-5.372l.562-.625c.456.146.96.232 1.523.232.829 0 1.5-.671 1.5-1.5s-.671-1.5-1.5-1.5zm.715 19.05c.633 1.086-.15 2.45-1.407 2.45h-9.616c-1.257 0-2.041-1.364-1.407-2.45l4.808-8.242c.629-1.078 2.186-1.078 2.814 0zm-5.215.45c0-.552-.448-1-1-1s-1 .448-1 1 .448 1 1 1 1-.448 1-1zm0-5.002c0-.552-.448-1-1-1s-1 .448-1 1v2.002c0 .552.448 1 1 1s1-.448 1-1z"/></svg>