<svg id="Layer_1" viewBox="0 0 24 24" xmlns="http://www.w3.org/2000/svg" data-name="Layer 1"><path d="m22 8v-4c1.105 0 2 .895 2 2s-.895 2-2 2zm-8 1h.85l2.777 2.12c.968.747 2.372.057 2.372-1.166v-7.992c0-1.223-1.404-1.913-2.372-1.166l-2.898 2.203h-.73c-1.105 0-2 .895-2 2v2c0 1.105.895 2 2 2zm8.5 2.5c-.829 0-1.5.671-1.5 1.5v5.5c0 1.378-1.122 2.5-2.5 2.5h-13c-1.378 0-2.5-1.122-2.5-2.5v-13c0-1.378 1.122-2.5 2.5-2.5h4.5c.829 0 1.5-.671 1.5-1.5s-.671-1.5-1.5-1.5h-4.5c-3.033 0-5.5 2.467-5.5 5.5v13c0 3.033 2.467 5.5 5.5 5.5h13c3.033 0 5.5-2.467 5.5-5.5v-5.5c0-.829-.671-1.5-1.5-1.5zm-12.5 2.5v-7.5c0-.829-.671-1.5-1.5-1.5s-1.5.671-1.5 1.5v7.5h-.5c-.829 0-1.5.671-1.5 1.5s.671 1.5 1.5 1.5h.5v.5c0 .829.671 1.5 1.5 1.5s1.5-.671 1.5-1.5v-.5h.5c.829 0 1.5-.671 1.5-1.5s-.671-1.5-1.5-1.5zm5.5 5h2c.829 0 1.5-.671 1.5-1.5s-.671-1.5-1.5-1.5h-2c-.829 0-1.5.671-1.5 1.5s.671 1.5 1.5 1.5zm0-5h2c.484 0 .909-.233 1.184-.588-.803.076-1.612-.206-2.278-.709l-1.817-1.387c-.356.274-.589.7-.589 1.184 0 .829.671 1.5 1.5 1.5z"/></svg>