<?xml version="1.0" encoding="UTF-8"?>
<svg xmlns="http://www.w3.org/2000/svg" id="Layer_1" data-name="Layer 1" viewBox="0 0 24 24">
  <path d="M13.5,13h-2c-.829,0-1.5-.672-1.5-1.5s.671-1.5,1.5-1.5h2c.829,0,1.5,.672,1.5,1.5s-.671,1.5-1.5,1.5Zm9.603-1c-1.519,0-4.559,.304-7.017,2.289-2.762,2.231-3.589,5.545-3.755,6.906-.195,.495-.359,.999-.5,1.495-.187,.658,.321,1.309,1.005,1.309,.461,0,.875-.302,.997-.747,.129-.471,.276-.949,.456-1.408,.963-2.586,3.174-5.694,6.277-7.412-3.066,3.566-4.066,6.941-4.066,6.941,1.062-.337,2.225-.893,3.357-1.807,2.506-2.024,3.725-4.938,4.115-6.472,.143-.561-.29-1.095-.869-1.095Zm.897-8v.5c0,1.93-1.57,3.5-3.5,3.5h-.5v1.5c0,.828-.671,1.5-1.5,1.5s-1.5-.672-1.5-1.5v-1.5h-3.5c-1.93,0-3.5-1.57-3.5-3.5v-.5c0-.552-.449-1-1-1s-1,.448-1,1V20c0,.347-.058,.678-.142,1h.642c.829,0,1.5,.672,1.5,1.5s-.671,1.5-1.5,1.5H4c-2.173-.047-4.008-1.771-4-4v-.5c0-1.93,1.57-3.5,3.5-3.5h1.5V4C5,1.794,6.794,0,9,0h11c2.206,0,4,1.794,4,4ZM4,21c.551,0,1-.448,1-1v-1h-1.5c-.276,0-.5,.225-.5,.5v.5c0,.552,.449,1,1,1ZM21,4c0-.552-.449-1-1-1h-7.126c.083,.319,.126,.655,.126,1v.5c0,.275,.224,.5,.5,.5h7c.276,0,.5-.225,.5-.5v-.5Z"/>
</svg>
