<svg id="Layer_1" viewBox="0 0 24 24" xmlns="http://www.w3.org/2000/svg" data-name="Layer 1"><path d="m23.059 8.677c-1.651 1.651-5.635 1.386-7.587 1.138-.676-.086-1.202-.612-1.287-1.287-.248-1.952-.513-5.936 1.138-7.587 1.175-1.175 2.993-1.262 4.062-.193 1.068 1.068.982 2.887-.193 4.062 1.175-1.175 2.993-1.262 4.062-.193 1.068 1.068.982 2.887-.193 4.062zm-13.753 1.63c.586-.586.586-1.536 0-2.122l-.707-.707c-.586-.586-1.535-.586-2.121 0l-.808.808 2.829 2.828zm-.01 8.784c-1.172 1.172-3.215 1.173-4.388 0-.586-.585-.908-1.363-.908-2.192s.322-1.607.909-2.193l2.192-2.193-2.829-2.828-2.191 2.192c-1.342 1.341-2.081 3.124-2.081 5.022s.739 3.682 2.08 5.021c1.342 1.342 3.125 2.081 5.022 2.081s3.681-.739 5.022-2.08l2.193-2.192-2.828-2.83-2.194 2.193zm6.52-4.397c-.586-.586-1.536-.586-2.122 0l-.808.807 2.829 2.83.808-.808c.586-.586.586-1.535 0-2.121l-.708-.708z"/></svg>