<svg id="Layer_1" viewBox="0 0 24 24" xmlns="http://www.w3.org/2000/svg" data-name="Layer 1"><path d="m23.003 9.594-2.003-2.003v-1.091c0-1.93-1.57-3.5-3.5-3.5h-1.091l-2.003-2.004c-1.328-1.326-3.486-1.326-4.812 0l-2.003 2.003h-1.091c-1.93 0-3.5 1.57-3.5 3.5v1.091l-2.003 2.004c-.643.643-.997 1.497-.997 2.406s.354 1.764.997 2.406l2.003 2.003v1.091c0 1.93 1.57 3.5 3.5 3.5h1.091l2.003 2.003c.643.643 1.497.997 2.406.997s1.764-.354 2.406-.997l2.003-2.003h1.091c1.93 0 3.5-1.57 3.5-3.5v-1.091l2.003-2.003c.643-.643.997-1.497.997-2.406s-.354-1.764-.997-2.406zm-2.121 2.691-2.442 2.442c-.281.281-.439.663-.439 1.061v1.712c0 .275-.225.5-.5.5h-1.712c-.397 0-.779.158-1.061.439l-2.442 2.442c-.158.156-.412.156-.57 0l-2.442-2.442c-.281-.281-.663-.439-1.061-.439h-1.712c-.275 0-.5-.225-.5-.5v-1.712c0-.397-.158-.779-.439-1.061l-2.442-2.442c-.157-.157-.157-.413 0-.57l2.442-2.442c.281-.281.439-.663.439-1.061v-1.712c0-.276.225-.5.5-.5h1.712c.397 0 .779-.158 1.061-.439l2.442-2.442c.156-.157.412-.157.57 0l2.442 2.443c.281.281.663.439 1.061.439h1.712c.275 0 .5.224.5.5v1.712c0 .398.158.779.439 1.061l2.442 2.442c.157.157.157.413 0 .57zm-8.879-.284c0 1.623.769 2.897 2.528 3.546.528.195.66.841.165 1.11-.314.171-1.32.344-1.694.344-2.695.057-5.099-2.296-5-5-.074-2.685 2.327-5.055 5-5 .373 0 1.38.174 1.694.344.495.269.363.915-.165 1.11-1.759.648-2.528 1.922-2.528 3.545z"/></svg>