<svg id="Layer_1" viewBox="0 0 24 24" xmlns="http://www.w3.org/2000/svg" data-name="Layer 1"><path d="m10 21.5v1c0 .828-.672 1.5-1.5 1.5h-1c-.828 0-1.5-.672-1.5-1.5v-1c0-.828.672-1.5 1.5-1.5h1c.828 0 1.5.672 1.5 1.5zm6.5-1.5h-1c-.828 0-1.5.672-1.5 1.5v1c0 .828.672 1.5 1.5 1.5h1c.828 0 1.5-.672 1.5-1.5v-1c0-.828-.672-1.5-1.5-1.5zm-14 0h-1c-.828 0-1.5.672-1.5 1.5v1c0 .828.672 1.5 1.5 1.5h1c.828 0 1.5-.672 1.5-1.5v-1c0-.828-.672-1.5-1.5-1.5zm12.5-4.5h-6v.5c0 1.105-.895 2-2 2h-4c-1.105 0-2-.895-2-2v-4c0-1.105.895-2 2-2h4c1.105 0 2 .895 2 2v.5h1.5v-4.5h-.5c-1.105 0-2-.895-2-2v-4c0-1.105.895-2 2-2h4c1.105 0 2 .895 2 2v4c0 1.105-.895 2-2 2h-.5v4.5h1.5v-.5c0-1.105.895-2 2-2h4c1.105 0 2 .895 2 2v4c0 1.105-.895 2-2 2h-4c-1.105 0-2-.895-2-2zm2.586-1.5-.793.793c-.39.39-.39 1.024 0 1.414.391.391 1.024.391 1.414 0l.793-.793.793.793c.39.39 1.024.39 1.414 0 .39-.391.39-1.024 0-1.414l-.793-.793.793-.793c.39-.391.39-1.024 0-1.414-.391-.391-1.024-.391-1.414 0l-.793.793-.793-.793c-.39-.391-1.024-.391-1.414 0s-.39 1.024 0 1.414zm-7.481-8.575c.766.765 2.079.763 2.823.019l1.63-1.693c.375-.389.372-1.006-.006-1.392-.394-.403-1.043-.401-1.434.005l-1.592 1.653-.524-.483c-.4-.368-1.02-.349-1.397.042-.389.404-.369 1.049.044 1.429l.457.42zm-2.552 6.935c-.394-.403-1.043-.401-1.434.005l-1.592 1.653-.524-.483c-.4-.368-1.02-.349-1.397.042-.389.404-.369 1.049.044 1.429l.457.42c.766.765 2.079.763 2.823.019l1.63-1.693c.375-.389.372-1.006-.006-1.392zm14.947 7.64h-1c-.828 0-1.5.672-1.5 1.5v1c0 .828.672 1.5 1.5 1.5h1c.828 0 1.5-.672 1.5-1.5v-1c0-.828-.672-1.5-1.5-1.5z"/></svg>