<svg id="Layer_1" viewBox="0 0 24 24" xmlns="http://www.w3.org/2000/svg" data-name="Layer 1"><path d="m22 7v4.5c0 3.033-2.468 5.5-5.5 5.5h-4.5c-1.079-.012-2.006-.886-2-2 0-1.105.895-2 2-2 .738 0 1.376.405 1.723 1h2.777c1.379 0 2.5-1.122 2.5-2.5v-4.5c0-2.206-1.794-4-4-4h-6c-2.206 0-4 1.794-4 4v3.5c0 .829-.672 1.5-1.5 1.5s-1.5-.671-1.5-1.5v-3.5c0-3.86 3.141-7 7-7h6c3.859 0 7 3.14 7 7zm-6.374 11h-7.252c-2.511 0-4.701 1.696-5.326 4.125-.207.802.275 1.62 1.078 1.826.797.207 1.62-.276 1.826-1.078.284-1.103 1.28-1.874 2.422-1.874h7.252c1.142 0 2.138.77 2.422 1.874.203.808 1.046 1.286 1.826 1.078.803-.207 1.285-1.024 1.078-1.826-.625-2.429-2.815-4.125-5.326-4.125zm-7.445-4.128c-1.256-.358-2.181-1.502-2.181-2.872v-4c0-1.657 1.343-3 3-3h5.997c1.658 0 3.001 1.345 3 3.003v3.536c.002.807-.653 1.461-1.46 1.461h-1.921c-.7-.617-1.609-1-2.617-1-1.815 0-3.33 1.216-3.819 2.872zm4.819-5.372c0 .828.672 1.5 1.5 1.5s1.5-.672 1.5-1.5-.672-1.5-1.5-1.5-1.5.672-1.5 1.5zm-5 0c0 .828.672 1.5 1.5 1.5s1.5-.672 1.5-1.5-.672-1.5-1.5-1.5-1.5.672-1.5 1.5z"/></svg>