<svg id="Layer_1" viewBox="0 0 24 24" xmlns="http://www.w3.org/2000/svg" data-name="Layer 1"><path d="m23.269.841-2.93-.784c-.576-.154-1.191.01-1.613.432l-1.621 1.62-.376-.375c-.971-.972-2.553-.976-3.525-.01-1.944 1.932-7.599 7.519-10.091 9.98-.727.719-1.186 1.172-1.209 1.195-1.233 1.231-1.904 2.879-1.904 4.6 0 2.253 1.122 4.254 2.986 5.467 1.056.69 2.28 1.033 3.506 1.033 1.306 0 2.612-.39 3.716-1.166 1.398-.982 2.345-2.433 2.665-4.085.417-2.147 1.264-3.871 2.512-5.118l4.883-4.827c.473-.472.732-1.1.732-1.767 0-.503-.148-.983-.423-1.391.915-.923 2.238-2.258 3.139-3.167.531-.536.282-1.442-.447-1.638zm-9.999 10.664c-1.685 1.684-2.809 3.928-3.342 6.673-.122.627-.471 1.519-1.444 2.203-1.127.792-2.712.824-3.854.076-.928-.607-1.499-1.53-1.61-2.6-.108-1.055.258-2.089 1.006-2.836l1.198-1.184c2.354-2.326 7.53-7.439 9.738-9.631l2.83 2.829-4.521 4.469zm-3.709 1.93c.586.585.586 1.535 0 2.12l-2 1.999c-.586.586-1.535.586-2.121 0-.586-.585-.586-1.535 0-2.12l2-1.999c.586-.586 1.535-.586 2.121 0z"/></svg>