<svg id="Layer_1" viewBox="0 0 24 24" xmlns="http://www.w3.org/2000/svg" data-name="Layer 1"><path d="m22.84 12.904c.926 1.004 1.141 2.319 1.159 3.188.01.502-.405.917-.907.907-.869-.018-2.184-.233-3.188-1.159-.403.25-.872.432-1.263.556-.475.151-.996-.058-1.216-.505-.413-.84-.773-2.041.196-3.059-.614-.444-1.374-.839-2.153-.879-.825-.037-1.619.32-2.407 1.108-.008.008-3.233 3.227-3.233 3.227 1.152.313 2.145.9 2.886 1.454 1.042-1.117 2.305-.746 3.177-.317.448.22.657.741.505 1.216-.124.391-.307.86-.556 1.263.907.984 1.132 2.266 1.157 3.135.016.542-.416.974-.959.959-.869-.025-2.151-.25-3.135-1.157-.403.25-.872.432-1.263.556-.475.151-.996-.058-1.216-.505-.403-.821-.76-1.988.13-2.991-.666-.437-1.481-.822-2.292-.841-.794.005-1.509.31-2.202 1.002-.002.002-3.5 3.5-3.5 3.5-.293.293-.677.439-1.061.439s-.767-.146-1.06-.438c-.586-.586-.586-1.536 0-2.122l3.523-3.526c.675-.685.998-1.397.979-2.176-.02-.811-.404-1.625-.841-2.292-1.003.889-2.169.533-2.991.13-.448-.22-.657-.741-.505-1.216.124-.391.307-.86.556-1.263-.926-1.006-1.141-2.32-1.159-3.19-.01-.502.405-.917.907-.907.869.018 2.184.233 3.188 1.159.403-.25.872-.432 1.263-.556.475-.151.996.058 1.216.506.429.873.8 2.135-.317 3.177.552.739 1.137 1.728 1.451 2.876l3.293-3.296c.738-.764 1.086-1.528 1.044-2.334-.04-.779-.435-1.539-.879-2.152-1.018.969-2.219.608-3.059.196-.448-.22-.657-.741-.505-1.216.124-.391.307-.86.556-1.263-.926-1.004-1.141-2.319-1.159-3.188-.009-.504.406-.919.908-.909.869.018 2.184.233 3.188 1.159.403-.25.872-.432 1.263-.556.475-.151.996.058 1.216.506.422.858.786 2.092-.262 3.124.578.719 1.182 1.682 1.503 2.816l2.089-2.091c-1.41-1.251-.88-2.797-.359-3.812.22-.43.721-.64 1.184-.501.473.142 1.077.364 1.589.681 1.206-1.114 2.806-1.329 3.793-1.327.486 0 .887.402.888.888.002.987-.213 2.587-1.326 3.794.317.511.539 1.116.681 1.589.139.463-.072.963-.501 1.184-1.019.522-2.572 1.054-3.826-.375l-2.098 2.1c1.144.32 2.113.927 2.837 1.508 1.032-1.049 2.266-.684 3.124-.262.448.22.657.741.506 1.216-.125.391-.307.86-.556 1.263z"/></svg>