<svg id="Layer_1" viewBox="0 0 24 24" xmlns="http://www.w3.org/2000/svg" data-name="Layer 1"><path d="m13 5c0-1.103-.897-2-2-2h-6c-1.103 0-2 .897-2 2v14c0 1.103.897 2 2 2h4.5c.828 0 1.5.672 1.5 1.5s-.672 1.5-1.5 1.5h-4.5c-2.757 0-5-2.243-5-5v-14c0-2.757 2.243-5 5-5h6c2.757 0 5 2.243 5 5v4.5c0 .829-.672 1.5-1.5 1.5s-1.5-.671-1.5-1.5zm7 17c-.552 0-1 .448-1 1s.448 1 1 1 1-.448 1-1-.448-1-1-1zm3-3c-.552 0-1 .448-1 1s.448 1 1 1 1-.448 1-1-.448-1-1-1zm-3 0c-.552 0-1 .448-1 1s.448 1 1 1 1-.448 1-1-.448-1-1-1zm-2-4v1c0 1.103-.897 2-2 2h-1c-1.103 0-2-.897-2-2v-1c0-1.103.897-2 2-2h1c1.103 0 2 .897 2 2zm-1.998 1-.002-1h-1v1zm1.998 5v1c0 1.103-.897 2-2 2h-1c-1.103 0-2-.897-2-2v-1c0-1.103.897-2 2-2h1c1.103 0 2 .897 2 2zm-1.998 1-.002-1h-1v1zm7.998-7v1c0 1.103-.897 2-2 2h-1c-1.103 0-2-.897-2-2v-1c0-1.103.897-2 2-2h1c1.103 0 2 .897 2 2zm-1.998 1-.002-1h-1v1zm-15.002 1c-.553 0-1 .447-1 1s.447 1 1 1h2c.553 0 1-.447 1-1s-.447-1-1-1zm2.553-7.505-2.792-.559c-.304-.061-.514-.36-.449-.678.055-.272.309-.458.587-.458h2.102c.203 0 .387.087.515.226.17.189.411.29.664.274.654 0 1.01-.763.592-1.266-.422-.509-1.059-.833-1.77-.833h-.2v-.4c0-.442-.358-.8-.8-.8s-.8.358-.8.8v.4h-.28c-1.091 0-2.046.786-2.199 1.866-.163 1.158.613 2.216 1.725 2.439l2.791.559c.304.062.514.359.451.677-.054.273-.308.46-.586.46h-2.103c-.203 0-.387-.087-.515-.226-.17-.189-.411-.29-.664-.274-.654 0-1.01.763-.592 1.266.422.509 1.059.833 1.77.833h.2v.4c0 .442.358.8.8.8s.8-.358.8-.8v-.4h.28c1.091 0 2.046-.785 2.199-1.865.164-1.158-.613-2.217-1.725-2.439z"/></svg>