<svg id="Layer_1" viewBox="0 0 24 24" xmlns="http://www.w3.org/2000/svg" data-name="Layer 1"><path d="m8.5 20h-3c-1.378 0-2.5-1.121-2.5-2.5v-5c0-1.378 1.122-2.5 2.5-2.5h9.5c.609 0 1.196.222 1.652.625.621.548 1.569.488 2.117-.132.549-.621.49-1.569-.131-2.117-.487-.43-1.044-.761-1.639-.994v-.382c0-3.86-3.141-7-7-7s-6.999 3.14-6.999 7v.607c-1.778.912-3 2.761-3 4.893v5c0 3.032 2.467 5.5 5.5 5.5h3c.829 0 1.5-.672 1.5-1.5s-.671-1.5-1.5-1.5zm1.5-17c2.206 0 4 1.794 4 4h-8c0-2.206 1.794-4 4-4zm8 9c-3.314 0-6 2.686-6 6s2.686 6 6 6 6-2.686 6-6-2.686-6-6-6zm2.707 7.293c.391.391.391 1.023 0 1.414s-1.023.391-1.414 0l-1.293-1.293-1.293 1.293c-.391.391-1.023.391-1.414 0s-.391-1.023 0-1.414l1.293-1.293-1.293-1.293c-.391-.391-.391-1.023 0-1.414s1.023-.391 1.414 0l1.293 1.293 1.293-1.293c.391-.391 1.023-.391 1.414 0s.391 1.023 0 1.414l-1.293 1.293zm-11.207-5.293h1.582c-.525.904-.877 1.918-1.013 3h-.569c-.829 0-1.5-.672-1.5-1.5s.671-1.5 1.5-1.5z"/></svg>