<?xml version="1.0" encoding="UTF-8"?>
<svg xmlns="http://www.w3.org/2000/svg" id="Layer_1" data-name="Layer 1" viewBox="0 0 24 24">
  <path d="m22.535,1.465h0c-.944-.944-2.2-1.465-3.535-1.465s-2.591.521-3.535,1.464c-.944.944-1.465,2.2-1.465,3.536s.521,2.592,1.504,3.573l1.971,1.831c.43.399.979.599,1.53.599s1.105-.201,1.536-.604l1.994-1.863c.944-.944,1.465-2.2,1.465-3.536s-.521-2.591-1.465-3.535Zm-2.085,4.914l-1.447,1.352-1.417-1.317c-.378-.377-.586-.879-.586-1.413s.208-1.036.586-1.414.88-.586,1.414-.586,1.036.208,1.414.586h0c.378.378.586.88.586,1.414s-.208,1.036-.55,1.379Zm-1.273,6.288c-.505-.256-1.11-.205-1.566.131-.171.127-.438.208-.682.208h-.857c-.591,0-1.071-.48-1.071-1.071v-.429c0-.828-.672-1.5-1.5-1.5s-1.5.672-1.5,1.5v.429c0,.591-.48,1.071-1.071,1.071h-.857c-.591,0-1.071-.48-1.071-1.071v-.429c0-.828-.671-1.5-1.5-1.5s-1.5.672-1.5,1.5v.429c0,.591-.48,1.071-1.071,1.071h-.857c-.938,0-1.04-.712-1.065-.958l.919-4.747c.27-.777.993-1.295,1.822-1.295h.253v.5c0,.828.671,1.5,1.5,1.5s1.5-.672,1.5-1.5v-.5h1.5c.829,0,1.5-.672,1.5-1.5s-.671-1.5-1.5-1.5h-4.753c-2.178,0-4.071,1.398-4.71,3.479C1.02,6.536,0,11.839,0,11.935,0,12.948.385,13.864,1,14.577v4.928c0,2.481,2.019,4.5,4.5,4.5h10c2.481,0,4.5-2.019,4.5-4.5v-5.5c0-.565-.318-1.084-.823-1.339Zm-2.177,6.839c0,.827-.673,1.5-1.5,1.5H5.5c-.827,0-1.5-.673-1.5-1.5v-3.507c.024,0,.929.007.929.007.98,0,1.868-.362,2.571-.941.703.579,1.591.941,2.571.941h.857c.98,0,1.868-.362,2.571-.941.703.579,1.591.941,2.571.941,0,0,.905,0,.929,0v3.501Z"/>
</svg>
