<svg id="Layer_1" viewBox="0 0 24 24" xmlns="http://www.w3.org/2000/svg" data-name="Layer 1"><path d="m23.561 21.439-3.806-3.806c1.403-1.847 2.246-4.141 2.246-6.633-.001-6.065-4.936-11-11.001-11s-11 4.935-11 11 4.935 11 11 11c2.493 0 4.787-.843 6.633-2.246l3.806 3.806c.586.586 1.535.586 2.121 0s.586-1.535 0-2.121zm-20.561-10.439c0-4.411 3.589-8 8-8s8 3.589 8 8-3.589 8-8 8-8-3.589-8-8zm14 2.5c0 .828-.672 1.5-1.5 1.5-.679 0-1.246-.454-1.431-1.073l-1.133-.654c-.275.235-.589.42-.936.543v2.184c0 .553-.448 1-1 1s-1-.447-1-1v-2.184c-.347-.124-.661-.309-.936-.543l-1.133.654c-.185.619-.752 1.073-1.431 1.073-.828 0-1.5-.672-1.5-1.5s.672-1.5 1.5-1.5c.202 0 .395.041.571.114l.985-.568c-.033-.177-.055-.359-.055-.545 0-.188.022-.37.055-.549l-1.879-1.085c-.478-.276-.642-.888-.366-1.366.275-.479.886-.644 1.366-.366l1.89 1.091c.274-.234.587-.418.933-.541v-1.573c-.305-.275-.5-.668-.5-1.111 0-.828.672-1.5 1.5-1.5s1.5.672 1.5 1.5c0 .443-.195.836-.5 1.111v1.573c.346.123.659.307.933.541l1.89-1.091c.478-.275 1.089-.114 1.366.366.276.479.112 1.09-.366 1.366l-1.879 1.085c.033.179.055.361.055.549 0 .187-.022.368-.055.545l.985.568c.176-.073.368-.114.571-.114.828 0 1.5.672 1.5 1.5z"/></svg>