<svg id="Layer_1" viewBox="0 0 24 24" xmlns="http://www.w3.org/2000/svg" data-name="Layer 1"><path d="m22.732 1.267c-.836-.836-1.957-1.269-3.138-1.267-3.917.063-9.355.907-13.019 4.571-4.828 4.829-4.689 12.794-4.518 15.251l-1.617 1.617c-.586.586-.586 1.535 0 2.121s1.535.586 2.121 0l1.616-1.616c.441.03 1.053.06 1.794.06 3.415 0 9.497-.619 13.457-4.579 3.665-3.664 4.508-9.102 4.571-13.019.019-1.188-.431-2.302-1.267-3.138zm-4.341 12.733h-6.27l2-2h5.384c-.306.695-.674 1.37-1.113 2zm-8.391-8.392c.63-.44 1.305-.807 2-1.113v5.384l-2 2zm5-2.08c1.402-.313 2.746-.449 3.852-.501l-3.852 3.852zm2.121 5.472 3.852-3.852c-.052 1.106-.188 2.45-.501 3.852h-3.35zm-10.121-.024v5.903l-1.965 1.965c.106-2.274.549-5.311 1.965-7.868zm2.121 8.024h5.903c-2.557 1.416-5.594 1.858-7.868 1.965z"/></svg>