<svg id="Layer_1" viewBox="0 0 24 24" xmlns="http://www.w3.org/2000/svg" data-name="Layer 1"><path d="m14.904 14.909.676.39c.705.411 1.632.175 2.049-.549.415-.717.168-1.635-.549-2.049l-.663-.383c.049-.266.083-.538.083-.818s-.033-.552-.083-.818l.663-.383c.717-.414.963-1.332.549-2.049s-1.331-.963-2.049-.549l-.676.39c-.413-.352-.884-.629-1.404-.815v-.776c0-.829-.671-1.5-1.5-1.5s-1.5.671-1.5 1.5v.776c-.521.186-.992.463-1.404.815l-.676-.39c-.717-.415-1.635-.168-2.049.549-.415.717-.168 1.635.549 2.049l.663.383c-.049.266-.083.538-.083.818s.033.552.083.818l-.663.383c-.717.414-.963 1.332-.549 2.049.417.724 1.344.96 2.049.549l.676-.39c.413.352.884.629 1.404.815v.776c0 .829.671 1.5 1.5 1.5s1.5-.671 1.5-1.5v-.776c.521-.186.992-.463 1.404-.815zm-2.904-4.909c.827 0 1.5.673 1.5 1.5s-.673 1.5-1.5 1.5-1.5-.673-1.5-1.5.673-1.5 1.5-1.5zm2-6c0-1.654 1.346-3 3-3h2.511c.456-.604 1.173-1 1.989-1 1.381 0 2.5 1.119 2.5 2.5s-1.119 2.5-2.5 2.5c-.815 0-1.532-.396-1.989-1h-2.511c0 .829-.671 1.5-1.5 1.5s-1.5-.671-1.5-1.5zm-14-1.5c0-1.381 1.119-2.5 2.5-2.5.815 0 1.532.396 1.989 1h2.511c1.654 0 3 1.346 3 3 0 .829-.671 1.5-1.5 1.5s-1.5-.671-1.5-1.5h-2.511c-.456.604-1.173 1-1.989 1-1.381 0-2.5-1.119-2.5-2.5zm24 19c0 1.381-1.119 2.5-2.5 2.5-.815 0-1.532-.396-1.989-1h-2.511c-1.654 0-3-1.346-3-3 0-.829.671-1.5 1.5-1.5s1.5.671 1.5 1.5h2.511c.456-.604 1.173-1 1.989-1 1.381 0 2.5 1.119 2.5 2.5zm-14-1.5c0 1.654-1.346 3-3 3h-2.511c-.456.604-1.173 1-1.989 1-1.381 0-2.5-1.119-2.5-2.5s1.119-2.5 2.5-2.5c.815 0 1.532.396 1.989 1h2.511c0-.829.671-1.5 1.5-1.5s1.5.671 1.5 1.5z"/></svg>