<svg id="Layer_1" viewBox="0 0 24 24" xmlns="http://www.w3.org/2000/svg" data-name="Layer 1"><path d="m8 22.5c0 .828-.671 1.5-1.5 1.5h-1c-3.033 0-5.5-2.468-5.5-5.5v-8.614c0-1.831.906-3.535 2.424-4.559l6.5-4.386c1.868-1.261 4.283-1.261 6.152 0 0 0 6.741 4.556 6.856 4.648.649.515.758 1.458.243 2.107s-1.458.758-2.107.243c-.259-.206-6.423-4.334-6.67-4.512-.85-.572-1.947-.573-2.797 0l-6.499 4.386c-.69.466-1.102 1.241-1.102 2.073v8.614c0 1.379 1.122 2.5 2.5 2.5h1c.829 0 1.5.672 1.5 1.5zm15.92-6.59c-.336 1.91-1.824 3.49-3.71 3.945-1.15.277-2.245.143-3.193-.267l-3.973 3.973c-.281.281-.663.439-1.06.439h-.935c-.579 0-1.048-.469-1.048-1.048v-1.136c0-.451.365-.816.816-.816h1.163v-1.184c0-.451.365-.816.816-.816h1.184v-1.5c0-.5.315-.876.315-.876-.365-1.058-.472-2.238.171-3.565.912-1.883 2.756-3.177 4.845-3.049 2.911.177 5.149 2.845 4.611 5.9zm-2.42-1.91c0-.828-.672-1.5-1.5-1.5s-1.5.672-1.5 1.5.672 1.5 1.5 1.5 1.5-.672 1.5-1.5zm-10.551 3.16c.791-.248 1.23-1.09.982-1.88s-1.089-1.231-1.88-.981c-.457.144-.896.336-1.304.572-.716.416-.96 1.334-.544 2.051.278.479.781.747 1.299.747.255 0 .514-.065.751-.202.216-.126.451-.229.697-.307zm1.051-8.16c-2.514 0-4.901.795-6.901 2.3-.662.498-.795 1.438-.297 2.101.294.392.745.599 1.2.599.314 0 .63-.099.9-.302 1.477-1.11 3.24-1.697 5.099-1.697.829 0 1.5-.671 1.5-1.5s-.671-1.5-1.5-1.5z"/></svg>