<?xml version="1.0" encoding="UTF-8"?>
<svg xmlns="http://www.w3.org/2000/svg" id="Layer_1" data-name="Layer 1" viewBox="0 0 24 24">
  <path d="M24,12.5v1c0,3.032-2.468,5.5-5.5,5.5h-5v2h3c.828,0,1.5,.672,1.5,1.5s-.672,1.5-1.5,1.5H7.5c-.829,0-1.5-.672-1.5-1.5s.671-1.5,1.5-1.5h3v-2H5.5c-3.033,0-5.5-2.468-5.5-5.5V7.5C0,4.467,2.467,2,5.5,2h5c.829,0,1.5,.671,1.5,1.5s-.671,1.5-1.5,1.5H5.5c-1.378,0-2.5,1.122-2.5,2.5v6c0,1.379,1.122,2.5,2.5,2.5h13c1.379,0,2.5-1.121,2.5-2.5v-1c0-.829,.672-1.5,1.5-1.5s1.5,.671,1.5,1.5Zm-13.5-3.5c0-1.105-.895-2-2-2s-2,.895-2,2,.895,2,2,2,2-.895,2-2Zm-4.925,5h5.849c.569,0,.793-.77,.315-1.087-.854-.566-1.988-.913-3.239-.913s-2.385,.346-3.239,.913c-.479,.317-.254,1.087,.315,1.087ZM24,3v2.999c0,1.657-1.343,3-3,3h-2.872l-2.454,1.69c-.186,.119-.387,.173-.583,.173-.566,0-1.089-.45-1.089-1.088l-.002-6.772C14,1.352,15.35,.002,17,.001h3.999c1.657-.002,3.001,1.341,3.001,2.999Zm-3,0h-4s0,2.999,0,2.999h3.999V3Z"/>
</svg>
