<svg id="Layer_1" viewBox="0 0 24 24" xmlns="http://www.w3.org/2000/svg" data-name="Layer 1"><path d="m14 17.5c0 .828-.672 1.5-1.5 1.5h-1c-.828 0-1.5-.672-1.5-1.5s.672-1.5 1.5-1.5h1c.828 0 1.5.672 1.5 1.5zm5-13.5c0 .083.014-.082 0 0zm0 0c-.021.124-.527 3.223-1.936 7.09.992 2.825 1.936 6.007 1.936 7.91 0 5-5.086 5-7 5s-7 0-7-5c0-1.903.945-5.085 1.936-7.909-1.483-4.162-1.888-6.576-1.936-7.091 0-4 5.269-4 7-4s7 0 7 4zm-10.99-.083c.086.453.37 1.821.927 3.676.463-.308.998-.503 1.564-.564v-.529c0-.829.672-1.5 1.5-1.5s1.5.671 1.5 1.5v.529c.566.062 1.101.256 1.564.564.557-1.856.841-3.223.927-3.676-.132-.568-1.636-.917-3.99-.917s-3.858.349-3.99.917zm7.99 15.083c0-1.422-.898-4.666-2.404-8.677-.073-.196-.258-.323-.468-.323h-2.256c-.21 0-.395.127-.468.324-1.506 4.01-2.404 7.254-2.404 8.676 0 1.171.287 2 4 2s4-.829 4-2z"/></svg>