<svg id="Layer_1" viewBox="0 0 24 24" xmlns="http://www.w3.org/2000/svg" data-name="Layer 1"><path d="m19 9.025v-1.025c0-3.859-3.141-7-7-7s-7 3.141-7 7v1.025c-2.799.254-5 2.611-5 5.475v3c0 3.032 2.467 5.5 5.5 5.5h13c3.032 0 5.5-2.468 5.5-5.5v-3c0-2.863-2.201-5.221-5-5.475zm-11 2.975h8v8h-8zm4-8c2.206 0 4 1.794 4 4v1h-8v-1c0-2.206 1.794-4 4-4zm-9 13.5v-3c0-1.208.86-2.217 2-2.449v7.899c-1.14-.232-2-1.242-2-2.449zm18 0c0 1.208-.86 2.217-2 2.449v-7.899c1.14.232 2 1.242 2 2.449v3zm-7-2c0 .828-.672 1.5-1.5 1.5h-1c-.829 0-1.5-.672-1.5-1.5s.671-1.5 1.5-1.5h1c.828 0 1.5.672 1.5 1.5z"/></svg>