<svg id="Layer_1" viewBox="0 0 24 24" xmlns="http://www.w3.org/2000/svg" data-name="Layer 1"><path d="m12 9c2.481 0 4.5-2.019 4.5-4.5s-2.019-4.5-4.5-4.5-4.5 2.019-4.5 4.5 2.019 4.5 4.5 4.5zm0-6c.827 0 1.5.673 1.5 1.5s-.673 1.5-1.5 1.5-1.5-.673-1.5-1.5.673-1.5 1.5-1.5zm11 19.5c0 .829-.672 1.5-1.5 1.5s-1.5-.671-1.5-1.5c0-1.113-.716-2.075-1.781-2.395l-4.719-1.297v2.769c0 1.338-1.085 2.423-2.423 2.423h-.762c-.884 0-1.738-.323-2.4-.908l-1.68-1.483c-.866-.722-.983-2.008-.261-2.874s2.008-.983 2.874-.261l1.64 1.296v-8.269c0-.958.883-1.705 1.884-1.449.682.175 1.129.839 1.129 1.543v4.104l5.547 1.525c2.378.713 3.953 2.83 3.953 5.278zm-16.698-17.452-2.144 2.451c-.427.488-1.157.142-1.157-.548v-.951h-1.501c-.829 0-1.5-.671-1.5-1.5s.671-1.5 1.5-1.5h1.501v-.951c0-.69.73-1.036 1.157-.548l2.144 2.451c.265.302.265.793 0 1.096zm17.698-.548c0 .829-.672 1.5-1.5 1.5h-1.501v.951c0 .69-.73 1.036-1.157.548l-2.144-2.451c-.265-.303-.265-.793 0-1.096l2.144-2.451c.427-.488 1.157-.142 1.157.548v.951h1.501c.828 0 1.5.671 1.5 1.5z"/></svg>