<svg id="Layer_1" viewBox="0 0 24 24" xmlns="http://www.w3.org/2000/svg" data-name="Layer 1"><path d="m22.5 10h-.861c-1.155-2.049-4.1-6-9.635-6-5.485 0-8.45 3.935-9.626 6h-.878c-.829 0-1.5.671-1.5 1.5s.671 1.5 1.5 1.5h21c.829 0 1.5-.671 1.5-1.5s-.671-1.5-1.5-1.5zm-10.496-3c2.894 0 4.82 1.498 6.029 3h-3.815c-.547-.61-1.333-1-2.219-1s-1.672.39-2.219 1h-3.788c1.218-1.506 3.146-3 6.011-3zm-12.004-.5v-1c0-3.033 2.467-5.5 5.5-5.5h1c.829 0 1.5.671 1.5 1.5s-.671 1.5-1.5 1.5h-1c-1.378 0-2.5 1.122-2.5 2.5v1c0 .829-.671 1.5-1.5 1.5s-1.5-.671-1.5-1.5zm24-1v1c0 .829-.671 1.5-1.5 1.5s-1.5-.671-1.5-1.5v-1c0-1.378-1.122-2.5-2.5-2.5h-1c-.829 0-1.5-.671-1.5-1.5s.671-1.5 1.5-1.5h1c3.033 0 5.5 2.467 5.5 5.5zm-16 17c0 .828-.671 1.5-1.5 1.5h-1c-3.033 0-5.5-2.468-5.5-5.5v-1c0-.828.671-1.5 1.5-1.5s1.5.672 1.5 1.5v1c0 1.379 1.122 2.5 2.5 2.5h1c.829 0 1.5.672 1.5 1.5zm16-5v1c0 3.032-2.467 5.5-5.5 5.5h-1c-.829 0-1.5-.672-1.5-1.5s.671-1.5 1.5-1.5h1c1.378 0 2.5-1.121 2.5-2.5v-1c0-.828.671-1.5 1.5-1.5s1.5.672 1.5 1.5zm-5.399.163c-1.905 1.551-4.125 2.337-6.596 2.337-2.392 0-4.556-.749-6.432-2.226-.651-.513-.763-1.455-.251-2.106.513-.65 1.456-.765 2.106-.251 1.334 1.051 2.875 1.583 4.577 1.583 1.764 0 3.346-.56 4.703-1.663.642-.523 1.586-.427 2.11.216.523.643.426 1.588-.217 2.11z"/></svg>