<svg id="Layer_1" viewBox="0 0 24 24" xmlns="http://www.w3.org/2000/svg" data-name="Layer 1"><path d="m19 8.607v-1.607c0-3.86-3.141-7-7-7s-7 3.14-7 7v1.607c-1.778.912-3 2.761-3 4.893v5c0 3.032 2.468 5.5 5.5 5.5h9c3.032 0 5.5-2.468 5.5-5.5v-5c0-2.132-1.222-3.98-3-4.893zm-7-5.607c2.206 0 4 1.794 4 4v1h-8v-1c0-2.206 1.794-4 4-4zm7 15.5c0 1.379-1.121 2.5-2.5 2.5h-9c-1.379 0-2.5-1.121-2.5-2.5v-5c0-1.378 1.121-2.5 2.5-2.5h9c1.379 0 2.5 1.122 2.5 2.5zm-7.513-1.258c.15 1.496-1.021 2.758-2.487 2.758h-1.2c-.442 0-.8-.358-.8-.8s.358-.8.8-.8h1.2c.496 0 .9-.404.9-.9s-.404-.9-.9-.9h-1.2c-.442 0-.8-.358-.8-.8v-3c0-.442.358-.8.8-.8h2.4c.442 0 .8.358.8.8s-.358.8-.8.8h-1.601v1.4h.258c1.308 0 2.499.941 2.63 2.242zm5.513-.942v1.2c0 1.365-1.093 2.474-2.452 2.5-1.401.027-2.548-1.154-2.548-2.556v-2.887c0-1.402 1.147-2.582 2.548-2.556.933.018 1.741.546 2.155 1.318.287.534-.097 1.182-.703 1.182-.29 0-.567-.151-.699-.409-.158-.308-.488-.514-.863-.489-.478.032-.838.451-.838.93v2.968c0 .517.438.933.962.898.478-.032.838-.451.838-.93v-.368h-.1c-.442 0-.8-.358-.8-.8s.358-.8.8-.8h.9c.442 0 .8.358.8.8z"/></svg>