<svg id="Layer_1" viewBox="0 0 24 24" xmlns="http://www.w3.org/2000/svg" data-name="Layer 1"><path d="m10.5 12h-3c-.829 0-1.5-.672-1.5-1.5s.671-1.5 1.5-1.5h1.5v-2.5c0-.828.671-1.5 1.5-1.5s1.5.672 1.5 1.5v4c0 .828-.671 1.5-1.5 1.5zm13.5 7.714c0 1.262-1.137 2.286-2.4 2.286h-1.612c-1.01 1.256-2.566 2-4.259 2h-1.458c-1.85 0-3.543-.881-4.532-2.355-.752-1.127-1.442-2.001-1.725-4.563-.08-.782.176-1.565.705-2.15.534-.592 1.299-.931 2.101-.931l8.36.002c.801 0 1.567.339 2.1.93.528.585.785 1.369.705 2.151-.035.337-.081.642-.132.929 1.157.059 2.147.526 2.147 1.702zm-6.08.037c.505-.743.876-1.29 1.055-2.749l-7.951-.002c.2 1.603.605 2.074 1.207 2.975.424.633 1.205 1.025 2.04 1.025h1.458c.948.003 1.757-.491 2.191-1.249zm-14.92-9.251c0-4.136 3.364-7.5 7.5-7.5s7.5 3.364 7.5 7.5c0 .828.671 1.5 1.5 1.5s1.5-.672 1.5-1.5c0-5.79-4.71-10.5-10.5-10.5s-10.5 4.71-10.5 10.5c0 2.982 1.275 5.834 3.499 7.825.615.552 1.564.501 2.118-.116.552-.617.5-1.565-.117-2.118-1.589-1.423-2.5-3.461-2.5-5.591z"/></svg>