<svg id="Layer_1" viewBox="0 0 24 24" xmlns="http://www.w3.org/2000/svg" data-name="Layer 1"><path d="m23.958 14.186c-.342 2.745-2.688 4.814-5.458 4.814h-5v2h2.5c.829 0 1.5.671 1.5 1.5s-.671 1.5-1.5 1.5h-8c-.829 0-1.5-.671-1.5-1.5s.671-1.5 1.5-1.5h2.5v-2h-5c-3.033 0-5.5-2.467-5.5-5.5v-6c0-3.033 2.467-5.5 5.5-5.5h3c.829 0 1.5.671 1.5 1.5s-.671 1.5-1.5 1.5h-3c-1.378 0-2.5 1.122-2.5 2.5v6c0 1.378 1.122 2.5 2.5 2.5h13c1.259 0 2.325-.939 2.481-2.186.102-.823.854-1.409 1.674-1.303.822.103 1.405.852 1.303 1.674zm-11.038-6.485.663-.383c-.049-.266-.083-.538-.083-.818s.033-.552.083-.818l-.663-.383c-.717-.414-.963-1.332-.549-2.049.415-.718 1.332-.963 2.049-.549l.676.39c.413-.352.884-.629 1.404-.815v-.776c0-.829.671-1.5 1.5-1.5s1.5.671 1.5 1.5v.776c.521.186.992.463 1.404.815l.676-.39c.719-.415 1.635-.169 2.049.549.415.717.168 1.635-.549 2.049l-.663.383c.049.266.083.538.083.818s-.033.552-.083.818l.663.383c.717.414.963 1.332.549 2.049-.417.724-1.344.96-2.049.549l-.676-.39c-.413.352-.884.629-1.404.815v.776c0 .829-.671 1.5-1.5 1.5s-1.5-.671-1.5-1.5v-.776c-.521-.186-.992-.463-1.404-.815l-.676.39c-.705.411-1.632.175-2.049-.549-.415-.717-.168-1.635.549-2.049zm3.58-1.201c0 .827.673 1.5 1.5 1.5s1.5-.673 1.5-1.5-.673-1.5-1.5-1.5-1.5.673-1.5 1.5z"/></svg>