<svg id="Layer_1" viewBox="0 0 24 24" xmlns="http://www.w3.org/2000/svg" data-name="Layer 1"><path d="m22.607 9.286c-.86-.441-1.881-.368-2.667.194-.046.033-2.94 2.643-2.94 2.643v-.554c0-.933-.507-1.794-1.323-2.246s-1.814-.424-2.605.068c-.039.024-4.072 3.086-4.072 3.086v-4.569c.581-.207 1-.756 1-1.408 0-.828-.671-1.5-1.5-1.5h-7c-.829 0-1.5.672-1.5 1.5 0 .652.419 1.201 1 1.408v10.592c0 3.032 2.467 5.5 5.5 5.5h12c3.033 0 5.5-2.468 5.5-5.5v-6.931c0-.966-.534-1.841-1.393-2.283zm-1.607 9.214c0 1.379-1.122 2.5-2.5 2.5h-12c-1.378 0-2.5-1.121-2.5-2.5v-10.5h2v9.5c0 .828.671 1.5 1.5 1.5s1.5-.672 1.5-1.5v-1.256l5-3.798v3.054c0 .593.349 1.13.891 1.371s1.175.139 1.614-.258l4.495-4.061v5.947zm-14.731-16.913c1.151-1.058 3.528-1.587 4.731-1.587h1.857c.668 0 1.303.248 1.785.661.512-.408 1.152-.661 1.858-.661.731 0 1.392.272 1.912.706.584-.438 1.302-.706 2.088-.706 1.933 0 3.5 1.567 3.5 3.5s-1.567 3.5-3.5 3.5c-1.097 0-2.064-.515-2.705-1.305-.393.189-.829.305-1.295.305-1 0-1.881-.495-2.426-1.247-.326.156-.689.247-1.074.247-.815 0-1.532-.396-1.989-1h-.011c-.28-.443-.649-.962-1.5-1h-2.696c-.742 0-1.081-.911-.535-1.413z"/></svg>