<svg id="Layer_1" viewBox="0 0 24 24" xmlns="http://www.w3.org/2000/svg" data-name="Layer 1"><path d="m18 13.5v3c0 1.704-.779 3.229-2 4.239v1.761c0 .828-.671 1.5-1.5 1.5s-1.5-.672-1.5-1.5v-.525c-.165.015-.331.025-.5.025h-7c-.169 0-.335-.01-.5-.025v.525c0 .828-.671 1.5-1.5 1.5s-1.5-.672-1.5-1.5v-1.761c-1.221-1.01-2-2.535-2-4.239v-9c0-1.704.779-3.229 2-4.239v-1.761c0-.828.671-1.5 1.5-1.5s1.5.672 1.5 1.5v.525c.165-.015.331-.025.5-.025h5c.829 0 1.5.672 1.5 1.5s-.671 1.5-1.5 1.5h-5c-1.378 0-2.5 1.121-2.5 2.5v9c0 1.379 1.122 2.5 2.5 2.5h7c1.378 0 2.5-1.121 2.5-2.5v-3c0-.828.671-1.5 1.5-1.5s1.5.672 1.5 1.5zm-14 1c0 1.381 1.119 2.5 2.5 2.5h5c1.381 0 2.5-1.119 2.5-2.5v-.5h-10zm10-3c0-1.209-.859-2.218-2-2.45v-1.05c0-.552-.448-1-1-1s-1 .448-1 1v1h-2v-1c0-.552-.448-1-1-1s-1 .448-1 1v1.05c-1.141.232-2 1.24-2 2.45v.5h10zm9.482-3.405c-.461.575-1.153.905-1.898.905h-.868c-.123.844-.843 1.494-1.721 1.494s-1.598-.65-1.721-1.494h-.86c-.744 0-1.436-.329-1.896-.903-.449-.56-.617-1.28-.462-1.977.161-.723.377-1.692.564-2.512.516-2.26 2.154-3.608 4.381-3.608 2.24 0 3.879 1.352 4.383 3.616l.559 2.499c.156.698-.012 1.42-.46 1.979zm-2.639-2.095-.387-1.73c-.249-1.119-.875-1.27-1.455-1.27-.576 0-1.2.151-1.457 1.276-.125.547-.263 1.161-.389 1.724z"/></svg>