<svg id="Layer_1" viewBox="0 0 24 24" xmlns="http://www.w3.org/2000/svg" data-name="Layer 1"><path d="m22.004 16.333-.003.925c-.002 2.273-1.452 4.282-3.608 5.001l-4.126 1.375c-.73.244-1.498.365-2.266.365s-1.535-.122-2.265-.365l-4.122-1.374c-2.161-.72-3.61-2.733-3.608-5.009v-.917l3.053 1.381c.162.784.722 1.439 1.504 1.7l3.939 1.313.002-1.969c.573-.236 1.094-.594 1.502-1.066.409.473.927.83 1.498 1.069l-.002 1.964 3.943-1.313c.79-.263 1.356-.93 1.511-1.725l3.049-1.355zm0 0s.001 0 .001 0zm-5.917-15.533c-.379-.504-.972-.8-1.603-.8h-1.61l1.128 3h-4.008l1.128-3h-1.608c-.631 0-1.225.296-1.603.8l-1.561 2.077c-.493.656-.463 1.565.071 2.188l5.577 5.935-2.064-6h4.129l-2.064 6 5.579-5.935c.535-.622.564-1.532.071-2.188l-1.561-2.077zm7.628 10.138-1.023-2.237c-.453-.752-1.138-1.335-1.953-1.662l-1.65-.662-2.207 2.349 1.615.648-6.496 2.406-6.496-2.406 1.613-.647-2.152-2.291c-.017-.02-.028-.042-.045-.061l-1.658.665c-.815.327-1.5.91-1.953 1.662l-1.025 2.236c-.657 1.095-.131 2.517 1.08 2.92l6.971 3.124c.872.295 1.865-.059 2.347-.868l1.306-2.448.01.018.01-.018 1.306 2.448c.482.809 1.475 1.163 2.347.868l6.971-3.124c1.211-.403 1.737-1.825 1.08-2.92z"/></svg>