<svg id="Layer_1" viewBox="0 0 24 24" xmlns="http://www.w3.org/2000/svg" data-name="Layer 1"><path d="m24.013 6.5v11.015c0 2.003-.78 3.886-2.195 5.304l-.745.743c-.585.585-1.536.585-2.121-.002-.585-.586-.585-1.535.002-2.121l.743-.742c.849-.85 1.316-1.979 1.316-3.182v-1.145l-2.443 2.424c-.588.584-1.538.581-2.121-.008-.584-.588-.58-1.538.008-2.121l2.424-2.405c.195-.322.148-.746-.122-1.016-.316-.316-.86-.315-1.175 0l-4.012 4.012c.28.781.429 1.593.429 2.436v2.81c0 .828-.672 1.5-1.5 1.5s-1.5-.672-1.5-1.5v-2.81c0-1.254-.532-2.396-1.627-3.491l-2.877-2.876c-.323-.324-.825-.4-1.137-.178-.413.324-.445.725-.239 1.114l2.449 2.432c.588.584.592 1.533.008 2.121-.583.589-1.534.591-2.121.008l-2.443-2.426v1.12c0 1.202.468 2.332 1.318 3.183l.742.742c.586.586.586 1.535 0 2.121s-1.535.586-2.121 0l-.742-.742c-1.418-1.419-2.198-3.302-2.198-5.305v-11.015c0-1.378 1.121-2.5 2.5-2.5s2.5 1.122 2.5 2.5v3.603c1.255-.264 2.618.111 3.604 1.099l2.877 2.876c.173.172.331.349.486.526l3.482-3.482c.962-.962 2.312-1.295 3.551-1.017v-3.605c0-1.378 1.121-2.5 2.5-2.5s2.5 1.122 2.5 2.5zm-16.513.786v-3.692c0-.57.283-1.102.755-1.421l2.786-1.88c.579-.391 1.338-.391 1.918 0l2.786 1.88c.472.319.755.851.755 1.421v3.692c0 .947-.768 1.714-1.714 1.714h-5.571c-.947 0-1.714-.768-1.714-1.714zm3.5-1.286c0 .276.224.5.5.5h1c.276 0 .5-.224.5-.5v-1c0-.276-.224-.5-.5-.5h-1c-.276 0-.5.224-.5.5z"/></svg>