<svg id="Layer_1" viewBox="0 0 24 24" xmlns="http://www.w3.org/2000/svg" data-name="Layer 1"><path d="m2.548 14.509s0 0 0 0zm-1.765 3.673c1.526.319 2.723.213 3.135.179 1.325.898 3.242.913 4.464-.37 2.083-2.068 2.254-4.551 2.11-6.065-.072-.751-.756-1.284-1.498-1.151-2.43.437-5.699 1.041-6.446 3.732 2.036.106 3.237-.398 6.239-1.789 0 0-.899 2.069-3.297 3.105 0 0-.814.393-2.367.55-.671-.011-1.172.035-1.897-.129-.516-.117-1.036.177-1.185.685-.161.551.181 1.134.743 1.251zm9.717-14.182c.829 0 1.5-.672 1.5-1.5v-1c0-.828-.671-1.5-1.5-1.5s-1.5.672-1.5 1.5v1c0 .828.671 1.5 1.5 1.5zm5 0c.829 0 1.5-.672 1.5-1.5v-1c0-.828-.671-1.5-1.5-1.5s-1.5.672-1.5 1.5v1c0 .828.671 1.5 1.5 1.5zm-10 0c.829 0 1.5-.672 1.5-1.5v-1c0-.828-.671-1.5-1.5-1.5s-1.5.672-1.5 1.5v1c0 .828.671 1.5 1.5 1.5zm14 17h-18c-.829 0-1.5.672-1.5 1.5s.671 1.5 1.5 1.5h18c.829 0 1.5-.672 1.5-1.5s-.671-1.5-1.5-1.5zm4.5-9c0 2.206-1.794 4-4 4h-3.029c-1.155 1.802-3.172 3-5.471 3h-1.221c.741-.758 1.309-1.76 1.576-3.036 1.761-.181 3.145-1.656 3.145-3.464v-3c0-.275-.224-.5-.5-.5h-8c-.231 0-.417.161-.474.374-1.04.292-2.101.717-3.026 1.351v-1.225c0-1.93 1.57-3.5 3.5-3.5h8c1.391 0 2.585.822 3.149 2h2.351c2.206 0 4 1.794 4 4zm-3 0c0-.552-.449-1-1-1h-2v1.5c0 .169-.013.334-.025.5h2.025c.551 0 1-.448 1-1z"/></svg>