<svg id="Layer_1" viewBox="0 0 24 24" xmlns="http://www.w3.org/2000/svg" data-name="Layer 1"><path d="m24 12c0 .828-.671 1.5-1.5 1.5h-9v3.85c1.179.563 2 1.756 2 3.15 0 1.933-1.567 3.5-3.5 3.5s-3.5-1.567-3.5-3.5c0-1.394.821-2.587 2-3.15v-3.85h-9c-.829 0-1.5-.672-1.5-1.5s.671-1.5 1.5-1.5h2.5v-3.85c-1.179-.563-2-1.756-2-3.15 0-1.933 1.567-3.5 3.5-3.5s3.5 1.567 3.5 3.5c0 1.394-.821 2.587-2 3.15v3.85h10v-3.85c-1.179-.563-2-1.756-2-3.15 0-1.933 1.567-3.5 3.5-3.5s3.5 1.567 3.5 3.5c0 1.394-.821 2.587-2 3.15v3.85h2.5c.829 0 1.5.672 1.5 1.5z"/></svg>