<svg id="Layer_1" viewBox="0 0 24 24" xmlns="http://www.w3.org/2000/svg" data-name="Layer 1"><path d="m23.47 2.002c-.646-1.095-1.727-1.813-2.965-1.971-1.238-.155-2.453.259-3.334 1.141-.055.052-.251.284-.304.344-.543.625-.477 1.573.149 2.116.625.543 1.572.476 2.116-.148l.19-.22c.217-.201.511-.292.804-.256.184.023.524.122.759.518.164.279.164.669 0 .949-.255.431-.631.514-.833.524-2.158.113-4.259 1.087-5.914 2.742l-2.907 2.907c-1.084-.894-2.689-.847-3.703.167l-6.216 6.216c-1.492 1.492-1.657 3.888-.375 5.455.718.877 1.776 1.413 2.903 1.469.066.003.132.005.198.005 1.057 0 2.079-.421 2.83-1.172l6.316-6.315c.522-.522.81-1.216.81-1.955 0-.648-.233-1.255-.641-1.749l2.907-2.906c1.13-1.13 2.533-1.793 3.949-1.867 1.347-.07 2.565-.816 3.262-1.997.714-1.214.714-2.782 0-3.995zm-18.723 18.665c-.202.202-.473.312-.757.292-.166-.009-.48-.067-.73-.373-.312-.382-.235-1.025.174-1.434l6.048-6.049 1.415 1.414-6.15 6.149z"/></svg>