<svg id="Layer_1" viewBox="0 0 24 24" xmlns="http://www.w3.org/2000/svg" data-name="Layer 1"><path d="m7 15.5c0 1.381-1.119 2.5-2.5 2.5s-2.5-1.119-2.5-2.5 1.119-2.5 2.5-2.5 2.5 1.119 2.5 2.5zm12.5 2.5c1.381 0 2.5-1.119 2.5-2.5s-1.119-2.5-2.5-2.5-2.5 1.119-2.5 2.5 1.119 2.5 2.5 2.5zm-15 1c-1.904 0-3.609 1.206-4.244 3-.276.781.134 1.638.915 1.914.779.277 1.638-.134 1.914-.914.211-.599.78-1 1.415-1s1.204.401 1.415 1c.275.788 1.154 1.189 1.914.914.781-.275 1.191-1.133.915-1.914-.634-1.794-2.339-3-4.244-3zm19.243 3c-.635-1.795-2.34-3-4.243-3s-3.608 1.205-4.243 3c-.276.781.133 1.637.914 1.914.78.277 1.638-.133 1.914-.914.212-.598.78-1 1.415-1s1.203.402 1.415 1c.275.789 1.154 1.188 1.914.914.781-.276 1.19-1.133.914-1.914zm-3.95-11.292c.391.391 1.024.391 1.414 0l2.078-2.031c.627-.612.193-1.676-.683-1.676h-.602v-4.501c0-.828-.672-1.5-1.5-1.5s-1.5.672-1.5 1.5v4.5h-.602c-.876 0-1.31 1.064-.683 1.676l2.078 2.031zm-18.395-5.708h.602v4.5c0 .828.671 1.5 1.5 1.5s1.5-.672 1.5-1.5v-4.5h.602c.876 0 1.31-1.064.683-1.676l-2.078-2.031c-.391-.391-1.024-.391-1.414 0l-2.078 2.031c-.627.612-.193 1.676.683 1.676zm14.602 5.413c0-1.476-.885-2.783-2.254-3.33l-2.378-.952c-.224-.089-.368-.303-.368-.544 0-.323.263-.587.587-.587h1.181c.181 0 .343.094.434.251.415.718 1.333.963 2.05.548s.962-1.333.548-2.05c-.499-.863-1.344-1.457-2.299-1.664v-.585c0-.828-.671-1.5-1.5-1.5s-1.5.672-1.5 1.5v.687c-1.445.464-2.5 1.804-2.5 3.4 0 1.477.885 2.783 2.254 3.33l2.377.951c.224.09.368.304.368.545 0 .323-.263.587-.587.587h-1.181c-.181 0-.343-.094-.434-.251-.415-.717-1.333-.962-2.049-.548-.717.415-.962 1.333-.547 2.05.499.863 1.344 1.457 2.298 1.664v.585c0 .828.671 1.5 1.5 1.5s1.5-.672 1.5-1.5v-.687c1.444-.464 2.5-1.804 2.5-3.4z"/></svg>