<svg id="Layer_1" viewBox="0 0 24 24" xmlns="http://www.w3.org/2000/svg" data-name="Layer 1"><path d="m3 6.386v4.498c0 2.869 2.363 5.085 4.346 6.439.685.467.86 1.4.393 2.084-.29.425-.761.654-1.239.654-.292 0-.586-.084-.845-.261-2.58-1.761-5.655-4.738-5.655-8.916v-4.498c0-2.085 1.329-3.927 3.308-4.583l5.209-1.727c.307-.102.638-.102.944 0l2.512.833c.786.261 1.212 1.11.951 1.896s-1.107 1.21-1.896.952l-2.039-.677-4.736 1.57c-.749.249-1.252.946-1.252 1.735zm17.985-4.386s.182 11.933.023 12.927c.007-.232-.001-.466-.037-.698-.161-1.029-.721-1.931-1.576-2.539-.13-.092-.27-.162-.409-.236v-9.454h-2c-1.657 0-3 1.343-3 3v7.606l-3.359 3.358c-1.038 1.038-1.61 2.419-1.61 3.88l-.016 2.639c-.005.828.663 1.504 1.491 1.509h.009c.824 0 1.495-.666 1.5-1.491l.016-2.647c0-.668.26-1.296.731-1.768l3.77-3.769c.325-.325.826-.402 1.139-.18.413.326.446.725.24 1.115l-3.2 3.176c-.588.583-.592 1.533-.008 2.122.583.587 1.532.592 2.121.008l3.191-3.167v1.48c0 .967-.377 1.876-1.061 2.561-.586.586-.586 1.536 0 2.122.293.292.677.439 1.061.439s.768-.146 1.061-.439c1.251-1.251 1.939-2.914 1.939-4.682v-4.661c.601-.549.985-1.331.985-2.209v-7.002c0-1.657-1.343-3-3-3z"/></svg>