<svg id="Layer_1" viewBox="0 0 24 24" xmlns="http://www.w3.org/2000/svg" data-name="Layer 1"><path d="m24 9.886v.614c0 .829-.672 1.5-1.5 1.5s-1.5-.671-1.5-1.5v-.614c0-.833-.412-1.607-1.102-2.072l-6.5-4.387c-.85-.573-1.947-.573-2.797 0l-6.499 4.386c-.689.466-1.102 1.24-1.102 2.073v8.614c0 1.378 1.121 2.5 2.5 2.5h3c.828 0 1.5.671 1.5 1.5s-.672 1.5-1.5 1.5h-3c-3.032 0-5.5-2.467-5.5-5.5v-8.614c0-1.831.906-3.536 2.424-4.56l6.5-4.385c1.869-1.262 4.283-1.262 6.152 0l6.5 4.386c1.518 1.023 2.424 2.728 2.424 4.559zm-.92 6.913-.663.383c.049.266.083.538.083.818s-.033.552-.083.818l.663.383c.718.414.963 1.332.549 2.049-.277.481-.782.75-1.3.75-.255 0-.513-.065-.749-.202l-.676-.39c-.413.352-.884.629-1.404.815v.776c0 .829-.672 1.5-1.5 1.5s-1.5-.671-1.5-1.5v-.776c-.521-.186-.992-.463-1.404-.815l-.676.39c-.236.137-.494.202-.749.202-.518 0-1.022-.269-1.3-.75-.414-.717-.169-1.635.549-2.049l.663-.383c-.049-.266-.083-.538-.083-.818s.033-.552.083-.818l-.663-.383c-.718-.414-.963-1.332-.549-2.049.414-.719 1.332-.963 2.049-.549l.676.39c.413-.352.884-.629 1.404-.815v-.776c0-.829.672-1.5 1.5-1.5s1.5.671 1.5 1.5v.776c.521.186.992.463 1.404.815l.676-.39c.716-.414 1.635-.17 2.049.549.414.717.169 1.635-.549 2.049zm-3.58 1.201c0-.827-.673-1.5-1.5-1.5s-1.5.673-1.5 1.5.673 1.5 1.5 1.5 1.5-.673 1.5-1.5z"/></svg>