<svg id="Layer_1" viewBox="0 0 24 24" xmlns="http://www.w3.org/2000/svg" data-name="Layer 1"><path d="m9.18 15.74c-1.28-.52-2.18-1.77-2.18-3.24 0-1.93 1.57-3.5 3.5-3.5 1.05 0 1.99.48 2.63 1.22-1.99 1.19-3.46 3.18-3.95 5.52zm-1.68 3.26h-2c-1.378 0-2.5-1.121-2.5-2.5v-11c0-1.208.86-2.217 2-2.449v1.949c0 1.105.895 2 2 2h6c1.105 0 2-.895 2-2v-1.795c.115.065.224.14.318.235l3.242 3.242c.279.279.439.666.439 1.061v.258c0 .828.672 1.5 1.5 1.5s1.5-.672 1.5-1.5v-.258c0-1.185-.48-2.344-1.318-3.182l-3.242-3.242c-.838-.838-1.997-1.318-3.182-1.318h-8.757c-3.033-.001-5.5 2.467-5.5 5.499v11c0 3.032 2.467 5.5 5.5 5.5h2c.829 0 1.5-.672 1.5-1.5s-.671-1.5-1.5-1.5zm16.5-1.5c0 3.59-2.91 6.5-6.5 6.5s-6.5-2.91-6.5-6.5 2.91-6.5 6.5-6.5 6.5 2.91 6.5 6.5zm-3.988 1.5c-.301 0-.603.115-.774.284-.449.441-1.06.716-1.738.716s-1.274-.283-1.723-.721l.607-.607c.248-.248.072-.672-.278-.672h-2.526c-.32 0-.579.259-.579.579v2.526c0 .351.424.526.672.278l.695-.695c.806.804 1.905 1.311 3.133 1.311 1.252 0 2.379-.517 3.191-1.347.602-.616.183-1.653-.679-1.653zm1.988-5.105c0-.351-.424-.526-.672-.278l-.695.695c-.806-.804-1.905-1.311-3.133-1.311-1.252 0-2.379.517-3.191 1.347-.602.616-.183 1.653.679 1.653.336 0 .603-.115.774-.284.449-.441 1.06-.716 1.738-.716s1.275.283 1.723.721l-.607.607c-.248.248-.072.672.278.672h2.526c.32 0 .579-.259.579-.579v-2.526z"/></svg>