<svg id="Layer_1" viewBox="0 0 24 24" xmlns="http://www.w3.org/2000/svg" data-name="Layer 1"><path d="m9.5 5c1.381 0 2.5 1.119 2.5 2.5s-1.119 2.5-2.5 2.5-2.5-1.119-2.5-2.5 1.119-2.5 2.5-2.5zm14.061 18.558c-.586.586-1.535.586-2.121 0l-2.663-2.663-1.405 1.405c-.448.449-1.069.697-1.699.697-.992.004-1.907-.651-2.23-1.57l-2.247-6.178c-.424-1.169-.143-2.44.735-3.317.874-.872 2.171-1.156 3.319-.737l6.178 2.246c.768.28 1.334.923 1.515 1.72.178.809-.062 1.632-.642 2.211l-1.402 1.402 2.663 2.663c.586.585.586 1.535 0 2.121zm-4.062-7.627-5.232-1.89c-.135-.045-.279.057-.228.251l1.893 5.205 3.566-3.566zm-10.487-1.864c.017-1.081.366-2.132 1.037-3.012-.182-.02-.36-.055-.548-.055-2.073 0-3.855 1.27-4.611 3.072-1.169-1.182-1.889-2.802-1.889-4.572 0-3.584 2.916-6.5 6.5-6.5 3.273 0 6.046 2.444 6.45 5.686.103.822.852 1.407 1.674 1.303.822-.103 1.405-.852 1.303-1.674-.592-4.741-4.645-8.315-9.428-8.315-5.238 0-9.5 4.262-9.5 9.5 0 4.783 3.574 8.835 8.314 9.426.806.106 1.575-.477 1.674-1.303.103-.822-.48-1.571-1.303-1.674-.4-.05-.787-.136-1.159-.255.123-.794.715-1.432 1.485-1.627z"/></svg>