<svg id="Layer_1" viewBox="0 0 24 24" xmlns="http://www.w3.org/2000/svg" data-name="Layer 1"><path d="m23.561 21.439-2.145-2.145c.361-.691.584-1.463.584-2.295 0-2.757-2.243-5-5-5s-5 2.243-5 5 2.243 5 5 5c.831 0 1.604-.223 2.295-.584l2.145 2.145c.586.586 1.535.586 2.121 0s.586-1.535 0-2.121zm-6.561-2.439c-1.103 0-2-.897-2-2s.897-2 2-2 2 .897 2 2-.897 2-2 2zm-6.431.845c-1.385 2.032-3.655 3.43-5.926 3.648-.811.082-1.561-.522-1.637-1.35-.079-.824.525-1.558 1.35-1.637 1.386-.133 2.851-1.057 3.733-2.352.466-.685 1.397-.863 2.084-.395.685.466.861 1.399.395 2.084zm.415-5.845c-.016 0-.031 0-.047 0-.828-.025-1.479-.717-1.454-1.545.011-.337.015-.659.016-.959.002-.826.674-1.495 1.5-1.495h.005c.828.003 1.498.676 1.495 1.505 0 .325-.006.675-.017 1.041-.025.812-.691 1.454-1.499 1.454zm5.349-5.752c.38.735.092 1.641-.644 2.021-.721.375-1.639.099-2.021-.645-.518-1.002-1.541-1.625-2.667-1.625-.345 0-.682.058-1 .17-.782.277-1.639-.132-1.915-.914-.276-.78.133-1.638.914-1.914.641-.227 1.314-.342 2.001-.342 2.254 0 4.297 1.244 5.333 3.248zm-12.835 10.721c-.743 0-1.389-.552-1.486-1.309-.105-.822.475-1.573 1.297-1.679.27-.035.507-.11.686-.217.832-.499.995-1.886 1.004-4.271.003-.828.642-1.469 1.506-1.494.829.003 1.498.678 1.494 1.506-.009 2.265-.021 5.367-2.462 6.832-.583.345-1.301.587-2.039.631zm14.94-10.914c-.307-.77.069-1.643.839-1.948s1.642.069 1.948.839c.296.745.511 1.524.638 2.318.13.818-.427 1.587-1.245 1.718-.8.132-1.59-.422-1.718-1.245-.092-.576-.248-1.142-.462-1.682zm-16.938 5.945c-.829 0-1.5-.672-1.5-1.5v-1.5c0-6.065 4.935-11 11-11 1.817 0 3.62.455 5.213 1.315.729.394 1 1.304.607 2.032s-1.304 1.003-2.033.606c-1.156-.624-2.466-.954-3.787-.954-4.411.001-8 3.59-8 8.001v1.5c0 .828-.671 1.5-1.5 1.5z"/></svg>