<?xml version="1.0" encoding="UTF-8"?>
<svg xmlns="http://www.w3.org/2000/svg" id="Layer_1" data-name="Layer 1" viewBox="0 0 24 24">
  <path d="M23.962,12.438c0,1.361-.357,2.676-1.032,3.822-.421,.716-1.342,.952-2.054,.532-.714-.421-.952-1.34-.532-2.054,.404-.687,.618-1.474,.618-2.277,0-2.26-1.589-4.199-3.778-4.637-1.085-.216-1.977-.908-2.446-1.898-1.021-2.154-3.296-3.312-5.678-2.874-2.075,.38-3.767,2.105-4.114,4.194-.106,.638-.1,1.272,.021,1.888,.219,1.132-.198,2.336-1.09,3.145-.555,.505-.914,1.362-.914,2.183,0,.586,.196,1.134,.567,1.586,.525,.64,.434,1.585-.207,2.111-.279,.229-.616,.341-.951,.341-.434,0-.863-.187-1.16-.548C.405,16.972-.038,15.732-.038,14.462c0-1.677,.709-3.322,1.896-4.402,.116-.105,.183-.25,.162-.354-.188-.967-.2-1.96-.034-2.952C2.546,3.389,5.171,.716,8.52,.102c3.674-.67,7.343,1.195,8.929,4.54,.06,.127,.175,.212,.322,.242,3.588,.716,6.191,3.894,6.191,7.555Zm-5.462,5.062c0,3.59-2.91,6.5-6.5,6.5s-6.5-2.91-6.5-6.5,2.91-6.5,6.5-6.5,6.5,2.91,6.5,6.5Zm-3.437-.499h-1.563v-2.501c0-.828-.671-1.5-1.5-1.5s-1.5,.672-1.5,1.5v2.501h-1.563c-.863,0-1.295,1.043-.685,1.653l3.063,3.063c.378,.378,.991,.378,1.369,0l3.063-3.063c.61-.61,.178-1.653-.685-1.653Z"/>
</svg>
