<svg id="Layer_1" viewBox="0 0 24 24" xmlns="http://www.w3.org/2000/svg" data-name="Layer 1"><path d="m6.5 11c-.828 0-1.5-.672-1.5-1.5s.672-1.5 1.5-1.5 1.5.672 1.5 1.5-.672 1.5-1.5 1.5zm17.5 6.5c0 3.59-2.91 6.5-6.5 6.5s-6.5-2.91-6.5-6.5 2.91-6.5 6.5-6.5 6.5 2.91 6.5 6.5zm-3.437-.499h-1.563v-2.501c0-.828-.671-1.5-1.5-1.5s-1.5.672-1.5 1.5v2.501h-1.563c-.863 0-1.295 1.043-.685 1.653l3.063 3.063c.378.378.991.378 1.369 0l3.063-3.063c.61-.61.178-1.653-.685-1.653zm-12.063 3.999h-1.996c-1.93-.003-3.501-1.573-3.504-3.5v-10.227c0-.182.099-.35.257-.439l6.742-3.786 6.732 3.78c.106.077.268.41.269.674 0 .828.672 1.498 1.5 1.498h.002c.829 0 1.499-.674 1.498-1.502-.001-1.094-.561-2.586-1.787-3.278l-6.905-3.878c-.807-.451-1.809-.451-2.618 0l-6.901 3.876c-1.104.619-1.789 1.79-1.789 3.056v10.229c.004 3.578 2.92 6.493 6.502 6.498h1.998c.829 0 1.5-.672 1.5-1.5s-.671-1.5-1.5-1.5zm-1.832-4.252c.68.456 1.618.278 2.08-.416l4-6c.459-.689.273-1.62-.416-2.08-.69-.462-1.621-.272-2.08.416l-4 6c-.459.689-.273 1.62.416 2.08z"/></svg>