<svg id="Layer_1" viewBox="0 0 24 24" xmlns="http://www.w3.org/2000/svg" data-name="Layer 1"><path d="m13.523 12.818-2.125 1.195c-.626.352-1.399-.1-1.399-.818v-2.39c0-.718.773-1.17 1.399-.818l2.125 1.195c.638.359.638 1.277 0 1.636zm-7.89-7.185c.586-.586.586-1.536 0-2.122s-1.537-.586-2.122 0c-4.681 4.681-4.681 12.297 0 16.978.586.586 1.536.586 2.122 0s.586-1.536 0-2.122c-3.51-3.511-3.51-9.224 0-12.734zm14.856-2.122c-.586-.586-1.536-.586-2.122 0s-.586 1.536 0 2.122c3.51 3.511 3.51 9.224 0 12.734-.586.586-.586 1.536 0 2.122s1.536.586 2.122 0c4.681-4.681 4.681-12.298 0-16.979zm-11.319 3.537c-.586-.586-1.536-.586-2.122 0-2.731 2.73-2.731 7.174 0 9.904.586.586 1.536.586 2.122 0s.586-1.536 0-2.122c-1.56-1.56-1.56-4.1 0-5.66.586-.586.586-1.536 0-2.122zm7.782 0c-.586-.586-1.536-.586-2.122 0s-.586 1.536 0 2.122c1.56 1.56 1.56 4.1 0 5.66-.586.586-.586 1.536 0 2.122s1.536.586 2.122 0c2.731-2.73 2.731-7.174 0-9.904z"/></svg>