<svg id="Layer_1" viewBox="0 0 24 24" xmlns="http://www.w3.org/2000/svg" data-name="Layer 1"><path d="m21.792 12c.118-.135.922-1.566 1.034-1.749.624-1.08.624-2.421 0-3.5l-.866-1.5c-.623-1.079-1.785-1.75-3.031-1.75-.226.005-1.846-.015-2.032.02-.058-.17-.895-1.581-.998-1.769-.624-1.081-1.786-1.752-3.033-1.752h-1.732c-1.247 0-2.409.671-3.03 1.75-.109.198-.937 1.591-.999 1.77-.176-.035-1.817-.015-2.032-.02-1.246 0-2.408.67-3.031 1.75l-.866 1.5c-.624 1.08-.624 2.421 0 3.5.117.192.91 1.607 1.034 1.75-.118.135-.922 1.566-1.034 1.749-.624 1.08-.624 2.421 0 3.5l.866 1.5c.623 1.079 1.785 1.75 3.031 1.75.226-.005 1.846.015 2.032-.02.058.17.895 1.581.998 1.769.622 1.08 1.784 1.751 3.031 1.751h1.732c1.247 0 2.409-.671 3.03-1.75.109-.198.937-1.591.999-1.77.176.035 1.817.015 2.032.02 1.246 0 2.408-.67 3.031-1.75l.866-1.5c.624-1.08.624-2.421 0-3.5 0 0-.976-1.668-1.034-1.75zm-2.43-5.25.866 1.5c.089.154.089.345 0 .5l-.866 1.5c-.089.155-.255.25-.434.25h-1.731c-.179 0-.345-.096-.434-.25l-.865-1.499c-.09-.155-.09-.347 0-.501l.866-1.5c.089-.155.255-.25.434-.25h1.731c.179 0 .345.096.434.25zm-8.228 7.25c-.178 0-.344-.095-.433-.25l-.866-1.5c-.089-.154-.089-.345 0-.5l.867-1.501c.088-.154.254-.249.432-.249h1.732c.178 0 .344.095.433.25l.866 1.5c.089.154.089.345 0 .5l-.867 1.501c-.088.154-.254.249-.432.249zm-1.299-9.25.867-1.501c.088-.154.254-.249.432-.249h1.732c.178 0 .344.095.433.25l.866 1.5c.089.154.089.345 0 .5l-.867 1.501c-.088.154-.254.249-.432.249h-1.732c-.178 0-.344-.095-.433-.25l-.866-1.5c-.089-.154-.089-.345 0-.5zm-6.062 3.5.866-1.5c.089-.155.255-.25.434-.25h1.731c.179 0 .345.096.434.25l.865 1.499c.09.155.09.347 0 .501l-.866 1.5c-.089.155-.255.25-.434.25h-1.731c-.179 0-.345-.096-.434-.25l-.866-1.5c-.089-.154-.089-.345 0-.5zm.866 9-.866-1.5c-.089-.154-.089-.345 0-.5l.866-1.5c.089-.155.255-.25.434-.25h1.731c.179 0 .345.096.434.25l.865 1.499c.09.155.09.347 0 .501l-.866 1.5c-.089.155-.255.25-.434.25h-1.731c-.179 0-.345-.096-.434-.25zm9.526 2-.867 1.501c-.088.154-.254.249-.432.249h-1.732c-.178 0-.344-.095-.433-.25l-.866-1.5c-.089-.154-.089-.345 0-.5l.867-1.501c.088-.154.254-.249.432-.249h1.732c.178 0 .344.095.433.25l.866 1.5c.089.154.089.345 0 .5zm6.062-3.5-.866 1.5c-.089.155-.255.25-.434.25h-1.731c-.179 0-.345-.096-.434-.25l-.865-1.499c-.09-.155-.09-.347 0-.501l.866-1.5c.089-.155.255-.25.434-.25h1.731c.179 0 .345.096.434.25l.866 1.5c.089.154.089.345 0 .5z"/></svg>