<svg id="Layer_1" viewBox="0 0 24 24" xmlns="http://www.w3.org/2000/svg" data-name="Layer 1"><path d="m15 8.152 3.5 2v4.168l-2.56-1.6c-.585-.366-.94-1.006-.94-1.696zm5.5 2v4.168l2.56-1.6c.585-.366.94-1.006.94-1.696v-2.872zm.06-5.29c-.649-.405-1.471-.405-2.12 0l-2.468 1.542 3.528 2.016 3.528-2.016zm-4.889 10.201c.213.267.329.597.329.937v1.5c.006.821-.681 1.506-1.501 1.5-.666 0-1.264-.443-1.445-1.102-.47-1.706-2.343-2.898-4.554-2.898h-.019l2.281 5.132c.496 1.117.211 2.445-.797 3.273-.499.41-1.118.596-1.795.596-.802 0-1.53-.473-1.855-1.206l-3.881-8.731c-1.467-.989-2.434-2.665-2.434-4.564 0-3.033 2.467-5.5 5.5-5.5h3c2.21 0 4.083-1.192 4.554-2.899.182-.658.773-1.101 1.446-1.101.859 0 1.506.68 1.5 1.5v1.5c0 .398-.158.779-.439 1.061-.069.069-1.054 1.036-2.561 1.843v7.077c1.677.867 2.61 2.005 2.671 2.082zm-5.671-2.998v-5.144c-.487.081-1 .079-1.5.079h-3c-1.378 0-2.5 1.122-2.5 2.5s1.122 2.5 2.5 2.5h3c.168 0 1.178.027 1.5.064z"/></svg>