<svg id="Layer_1" viewBox="0 0 24 24" xmlns="http://www.w3.org/2000/svg" data-name="Layer 1"><path d="m19.779 3.237c-2.078-2.088-4.842-3.237-7.78-3.237s-5.703 1.149-7.781 3.237c-4.286 4.306-4.286 11.311.041 15.658l3.735 3.467c1.076 1.057 2.497 1.639 4.003 1.639s2.927-.582 3.973-1.609l3.809-3.537c4.284-4.306 4.284-11.311 0-15.616zm-2.084 13.458-3.796 3.525c-1.023 1.006-2.749 1.035-3.833-.029l-3.723-3.455c-3.124-3.138-3.124-8.244 0-11.382 1.511-1.519 3.519-2.354 5.654-2.354s4.143.836 5.654 2.354c3.124 3.138 3.124 8.244.043 11.341zm.002-9.025c-.391-.391-1.023-.391-1.414 0l-.893.893c-.25.245-.393.587-.393.938v3.5h-1v-4c0-1.103-.897-2-2-2h-2c-1.103 0-2 .897-2 2v5c0 1.103.897 2 2 2h2c.737 0 1.375-.405 1.722-1h1.278c1.103 0 2-.897 2-2v-3.217l.699-.699c.391-.391.391-1.023 0-1.414zm-7.7 1.33h2v2h-2z"/></svg>