<svg id="Layer_1" viewBox="0 0 24 24" xmlns="http://www.w3.org/2000/svg" data-name="Layer 1"><path d="m20.968 22.412c.051.826-.578 1.536-1.404 1.585-.816.053-1.538-.577-1.585-1.404-.144-2.372-1.668-4.357-3.761-5.194l.731 1.951c.224.822-.395 1.631-1.247 1.631h-3.404c-.852 0-1.47-.809-1.247-1.631l.731-1.95c-2.092.837-3.616 2.821-3.76 5.191-.05.826-.752 1.461-1.586 1.404-.825-.05-1.454-.76-1.403-1.585.288-4.728 4.227-8.432 8.968-8.432s8.682 3.705 8.968 8.435zm-16.266-12.928c-.419-.366-.689-.898-.689-1.497 0-.73.395-1.361.98-1.71-.295-.348-.48-.793-.48-1.285 0-.748.416-1.392 1.025-1.734-.012-.087-.027-.173-.027-.263 0-1.103.894-1.997 1.997-1.997.09 0 .176.015.263.027.342-.609.986-1.025 1.734-1.025.326 0 .631.083.902.222.508-.141 1.041-.222 1.594-.222s1.085.081 1.594.222c.271-.139.576-.222.902-.222.748 0 1.392.416 1.734 1.025.087-.012.173-.027.263-.027 1.103 0 1.997.894 1.997 1.997 0 .09-.015.176-.027.263.609.342 1.025.986 1.025 1.734 0 .492-.185.937-.48 1.285.584.348.98.98.98 1.71 0 .6-.27 1.132-.689 1.497.419.366.689.898.689 1.497 0 1.103-.894 1.997-1.997 1.997s-1.997-.894-1.997-1.997c0-.227.046-.442.116-.645-1.074 1.016-2.518 1.643-4.109 1.643s-3.035-.628-4.109-1.643c.07.203.116.418.116.645 0 1.103-.894 1.997-1.997 1.997s-1.997-.894-1.997-1.997c0-.6.27-1.132.689-1.497zm7.298-6.489c-1.652 0-2.995 1.343-2.995 2.995s1.343 2.995 2.995 2.995 2.995-1.343 2.995-2.995-1.343-2.995-2.995-2.995z"/></svg>