<svg id="Layer_1" viewBox="0 0 24 24" xmlns="http://www.w3.org/2000/svg" data-name="Layer 1"><path d="m8.729 2.623 2.178-2.178c.593-.593 1.555-.593 2.148 0l2.178 2.178c.529.529.154 1.434-.594 1.434h-1.139v2.443c0 .829-.672 1.5-1.5 1.5s-1.5-.671-1.5-1.5v-2.443h-1.177c-.749 0-1.123-.905-.594-1.434zm-3.729 5.877v-2.443h1.158c.749 0 1.123-.905.594-1.434l-2.178-2.178c-.593-.593-1.555-.593-2.148 0l-2.178 2.178c-.529.529-.154 1.434.594 1.434h1.158v2.443c0 .829.672 1.5 1.5 1.5s1.5-.671 1.5-1.5zm18.747-3.891-2.178-2.178c-.593-.593-1.555-.593-2.148 0l-2.178 2.178c-.529.529-.154 1.434.594 1.434h1.163v2.457c0 .829.672 1.5 1.5 1.5s1.5-.671 1.5-1.5v-2.457h1.153c.749 0 1.123-.905.594-1.434zm-2.747 11.391v3c0 2.757-2.243 5-5 5h-8c-2.757 0-5-2.243-5-5v-3c-.002-2.775 2-5 5.051-5 .232-1.14 1.242-2 2.449-2h3c1.208 0 2.217.86 2.449 2 3.051 0 5.052 2.225 5.051 5zm-3 0h-4.5v.5c0 .829-.672 1.5-1.5 1.5s-1.5-.671-1.5-1.5v-.5h-4.5v3c0 1.103.897 2 2 2h8c1.103 0 2-.897 2-2z"/></svg>