<svg id="Layer_1" viewBox="0 0 24 24" xmlns="http://www.w3.org/2000/svg" data-name="Layer 1"><path d="m24 22.5c0 .829-.671 1.5-1.5 1.5h-21c-.829 0-1.5-.671-1.5-1.5s.671-1.5 1.5-1.5h9.567c-7.88-5.316-8.066-15.849-8.067-15.991v-.509c0-.827-.673-1.5-1.5-1.5s-1.5-.671-1.5-1.5.671-1.5 1.5-1.5c2.481 0 4.5 2.019 4.5 4.5v.5c.006.642.337 16 16 16h.5c.829 0 1.5.671 1.5 1.5zm-11.439-10.939c.385-.385.491-.922.37-1.415l4.923 4.923c-.492-.121-1.03-.014-1.415.37-.586.586-.586 1.536 0 2.121.586.586 1.536.586 2.121 0 .426-.426.534-1.044.339-1.575.921.652 2.011 1.014 3.163 1.014h.437c.829 0 1.5-.671 1.5-1.5s-.671-1.5-1.5-1.5h-.437c-.658 0-1.302-.267-1.768-.732l-5.563-5.563c-.465-.465-.732-1.109-.732-1.768v-.437c0-.829-.671-1.5-1.5-1.5s-1.5.671-1.5 1.5v.437c0 1.152.362 2.242 1.014 3.163-.531-.194-1.149-.087-1.575.339-.586.586-.586 1.536 0 2.121.586.586 1.536.586 2.121 0z"/></svg>