<svg id="Layer_1" viewBox="0 0 24 24" xmlns="http://www.w3.org/2000/svg" data-name="Layer 1"><path d="m20.5 14c-.828 0-1.5.671-1.5 1.5v3c0 1.381-1.119 2.5-2.5 2.5h-3v-8.39c-.971-.663-1.784-1.536-2.383-2.552-.021-.036-.052-.058-.094-.058-.688 0-7.023 0-7.023 0-.551 0-1-.449-1-1s.449-1 1-1h6.177c.045 0 .077-.041.066-.085-.154-.612-.243-1.252-.243-1.915 0-1.159.251-2.257.696-3.25.245-.545.147-1.198-.276-1.621-.265-.265-.547-.5-.845-.684-.492-.304-.987-.445-1.576-.445-.218 0-.473.027-.691.079-.78.185-1.441.662-1.862 1.344s-.551 1.487-.366 2.267c.118.499.367.941.702 1.311h-1.622c-1.984 0-3.785 1.375-4.106 3.333-.287 1.75.579 3.314 1.945 4.11v6.056c0 3.038 2.462 5.5 5.5 5.5h9c3.038 0 5.5-2.462 5.5-5.5v-3c0-.829-.672-1.5-1.5-1.5zm-15.5 4.5v-5.5h5.5v8h-3c-1.378 0-2.5-1.122-2.5-2.5zm13-18.5c-3.314 0-6 2.686-6 6s2.686 6 6 6 6-2.686 6-6-2.686-6-6-6zm-1 3c0-.553.448-1 1-1s1 .447 1 1v2c0 .553-.448 1-1 1s-1-.447-1-1zm1 7c-.828 0-1.5-.672-1.5-1.5s.672-1.5 1.5-1.5 1.5.672 1.5 1.5-.672 1.5-1.5 1.5z"/></svg>