<svg id="Layer_1" viewBox="0 0 24 24" xmlns="http://www.w3.org/2000/svg" data-name="Layer 1"><path d="m8 12.5v2c0 .276-.224.5-.5.5s-.5-.224-.5-.5v-2c0-.276.224-.5.5-.5s.5.224.5.5zm5.5 2.5c.275 0 .5-.224.5-.5v-1.597c-.352-.205-.685-.434-1-.688v2.285c0 .276.225.5.5.5zm4.5-15c-3.314 0-6 2.686-6 6s2.686 6 6 6 6-2.686 6-6-2.686-6-6-6zm-2.173 4h1.173v-1.5c0-.552.448-1 1-1s1 .448 1 1v1.5h1.173c.581 0 .87.705.455 1.112l-1.853 1.821c-.43.422-1.119.422-1.549 0l-1.853-1.821c-.415-.407-.126-1.112.455-1.112zm4.173 6h-4c-.552 0-1-.448-1-1s.448-1 1-1h4c.552 0 1 .448 1 1s-.448 1-1 1zm-16 2.5v2c0 .275-.225.5-.5.5h-.5v-3h.5c.275 0 .5.225.5.5zm13 6v1h-1v-1c0-.276.225-.5.5-.5s.5.224.5.5zm4 0v2c0 .275-.225.5-.5.5h-.5v-3h.5c.275 0 .5.225.5.5zm2.479-6.682c-1.203 1.133-2.756 1.895-4.479 2.112v1.57c0 .276-.224.5-.5.5s-.5-.224-.5-.5v-1.5c-.34 0-.671-.035-1-.077v1.577c0 .276-.224.5-.5.5s-.5-.224-.5-.5v-1.774c-.344-.089-.676-.2-1-.332v1.106c0 .827-.673 1.5-1.5 1.5-.386 0-.734-.15-1-.39-.266.24-.614.39-1 .39-.827 0-1.5-.673-1.5-1.5v-3c0-.276.224-.5.5-.5s.5.224.5.5v3c0 .276.225.5.5.5s.5-.224.5-.5v-3c0-.07.015-.136.041-.197-.603-.679-1.107-1.448-1.454-2.303h-6.087c-2.485 0-4.5 2.015-4.5 4.5v6c0 2.485 2.015 4.5 4.5 4.5h15c2.485 0 4.5-2.015 4.5-4.5v-5.5c0-.786-.198-1.52-.521-2.182zm-18.479 2.682c0 .827-.673 1.5-1.5 1.5h-1c-.276 0-.5-.224-.5-.5v-4c0-.276.224-.5.5-.5h1c.827 0 1.5.673 1.5 1.5zm1 0v-2c0-.828.672-1.5 1.5-1.5s1.5.672 1.5 1.5v2c0 .828-.672 1.5-1.5 1.5s-1.5-.672-1.5-1.5zm3.5 7.5h-1c-.276 0-.5-.224-.5-.5v-4c0-.276.224-.5.5-.5s.5.224.5.5v3.5h.5c.276 0 .5.224.5.5s-.224.5-.5.5zm4.5-1.5c0 .828-.672 1.5-1.5 1.5s-1.5-.672-1.5-1.5v-2c0-.828.672-1.5 1.5-1.5s1.5.672 1.5 1.5zm4 1c0 .276-.224.5-.5.5s-.5-.224-.5-.5v-1h-1v1c0 .276-.224.5-.5.5s-.5-.224-.5-.5v-3c0-.827.673-1.5 1.5-1.5s1.5.673 1.5 1.5zm4-1c0 .827-.673 1.5-1.5 1.5h-1c-.276 0-.5-.224-.5-.5v-4c0-.276.224-.5.5-.5h1c.827 0 1.5.673 1.5 1.5zm-9-2v2c0 .276-.224.5-.5.5s-.5-.224-.5-.5v-2c0-.276.224-.5.5-.5s.5.224.5.5z"/></svg>