<svg id="Layer_1" viewBox="0 0 24 24" xmlns="http://www.w3.org/2000/svg" data-name="Layer 1"><path d="m14.362 14.98c-.592.628-1.431 1.02-2.362 1.02s-1.77-.392-2.362-1.02c-.347-.368-.059-.98.447-.98h3.831c.506 0 .795.612.447.98zm6.356.466c-.339.678-.787 1.309-1.291 1.898 1.238 1.381 2.082 3.051 2.411 4.892.146.815-.397 1.595-1.213 1.74-.796.149-1.598-.393-1.74-1.213-.231-1.293-.825-2.466-1.696-3.434-1.573 1.039-3.398 1.671-5.19 1.671s-3.617-.632-5.19-1.671c-.872.968-1.465 2.141-1.696 3.435-.142.82-.944 1.362-1.74 1.213-.815-.146-1.358-.925-1.213-1.74.329-1.841 1.173-3.511 2.411-4.892-.504-.589-.952-1.22-1.291-1.898-.789-.141-1.517-.517-2.1-1.094-.762-.754-1.182-1.759-1.182-2.83 0-1.488.843-2.805 2.112-3.455.946-4.662 5.038-8.068 9.89-8.068s8.944 3.406 9.887 8.068c1.271.649 2.113 1.967 2.113 3.455 0 1.07-.42 2.076-1.182 2.83-.583.577-1.311.953-2.1 1.094zm-.011-3.226c.188-.187.292-.435.292-.698 0-.426-.306-.791-.727-.867-.656-.119-1.154-.656-1.225-1.319-.381-3.613-3.411-6.337-7.049-6.337-.806-.017-1.517.694-1.5 1.5 0 .4.156.777.439 1.06.566.568 1.556.567 2.12 0 .586-.587 1.536-.586 2.122 0 .586.585.586 1.535 0 2.121-.85.851-1.98 1.319-3.183 1.319s-2.333-.468-3.183-1.319c-.825-.824-1.281-1.915-1.307-3.078-1.398 1.143-2.357 2.81-2.561 4.734-.069.662-.567 1.199-1.223 1.318-.421.077-.727.441-.727.868-.015.679.673 1.096 1.294.977.626 0 1.199.394 1.413 1 .876 2.481 3.699 4.5 6.293 4.5s5.417-2.019 6.293-4.5c.229-.647.86-1.055 1.54-.995.319.027.646-.049.875-.285zm-9.708-.721c0-.828-.672-1.5-1.5-1.5s-1.5.672-1.5 1.5.672 1.5 1.5 1.5 1.5-.672 1.5-1.5zm3.5-1.5c-.828 0-1.5.672-1.5 1.5s.672 1.5 1.5 1.5 1.5-.672 1.5-1.5-.672-1.5-1.5-1.5z"/></svg>