<svg id="Layer_1" viewBox="0 0 24 24" xmlns="http://www.w3.org/2000/svg" data-name="Layer 1"><path d="m14.585 11c.086.302.179.639.271 1h1.144c.552 0 1 .447 1 1s-.448 1-1 1h-.726c.055.397.084.677.023 1.03.962.145 1.703.969 1.703 1.97 0 .553-.448 1-1 1s-1-.447-1-1h-.623c-.605.616-1.445 1-2.377 1s-1.772-.384-2.377-1h-.623c0 .553-.448 1-1 1s-1-.447-1-1c0-1.001.742-1.825 1.703-1.97-.061-.353-.033-.633.023-1.03h-.726c-.552 0-1-.447-1-1s.448-1 1-1h1.145c.093-.361.185-.698.272-1h-.416c-1.103 0-2-.897-2-2 0-.553.448-1 1-1s1 .447 1 1h1.19c.398-.609.96-1 1.81-1 .896 0 1.431.318 1.837 1h1.163c0-.553.448-1 1-1s1 .447 1 1c0 1.103-.897 2-2 2h-.415zm9.415-2.5v9c0 3.032-2.467 5.5-5.5 5.5h-13c-3.033 0-5.5-2.468-5.5-5.5v-11c0-3.032 2.467-5.5 5.5-5.5h2.528c.54 0 1.081.128 1.564.369l3.156 1.578c.068.034.146.053.224.053h5.528c3.033 0 5.5 2.468 5.5 5.5zm-3 0c0-1.379-1.122-2.5-2.5-2.5h-5.528c-.54 0-1.081-.128-1.564-.369l-3.156-1.578c-.068-.034-.146-.053-.224-.053h-2.528c-1.378 0-2.5 1.121-2.5 2.5v11c0 1.379 1.122 2.5 2.5 2.5h13c1.378 0 2.5-1.121 2.5-2.5z"/></svg>