<svg id="Layer_1" viewBox="0 0 24 24" xmlns="http://www.w3.org/2000/svg" data-name="Layer 1"><path d="m24 7.5v1c0 .828-.672 1.5-1.5 1.5s-1.5-.672-1.5-1.5v-1c0-.171-.018-.338-.051-.5h-17.949v9.5c0 1.379 1.122 2.5 2.5 2.5h3c.829 0 1.5.672 1.5 1.5s-.671 1.5-1.5 1.5h-3c-3.033 0-5.5-2.468-5.5-5.5v-11c0-3.032 2.467-5.5 5.5-5.5h2.528c.54 0 1.081.128 1.564.369l3.156 1.578c.068.034.146.053.224.053h5.528c3.032 0 5.5 2.468 5.5 5.5zm-3.897 5.173-6.808 6.808c-.813.813-1.269 1.915-1.269 3.064v.955c0 .276.224.5.5.5h.955c1.149 0 2.252-.457 3.064-1.269l6.715-6.715c.85-.85 1.013-2.236.252-3.167-.875-1.07-2.456-1.129-3.409-.176z"/></svg>