<svg id="Layer_1" viewBox="0 0 24 24" xmlns="http://www.w3.org/2000/svg" data-name="Layer 1"><path d="m24 5.498-.003 15.759c0 1.098-.651 2.087-1.658 2.521-.998.433-2.171.234-2.973-.521l-3.46-3.258h-10.532c-2.511.001-4.701-1.695-5.327-4.125-.207-.802.276-1.62 1.079-1.826.805-.212 1.62.276 1.827 1.078.284 1.104 1.28 1.874 2.421 1.874h11.126c.382 0 .75.146 1.028.408l3.468 3.265.003-15.175c0-.664-.261-1.29-.735-1.765-.474-.474-1.101-.735-1.765-.735l-7 .002c-.828 0-1.5-.671-1.5-1.5s.671-1.5 1.5-1.5l7-.002c1.465 0 2.846.573 3.887 1.614s1.614 2.421 1.614 3.886zm-24 3.502v-2c0-1.108.607-2.064 1.5-2.584v-.916c0-1.93 1.57-3.5 3.5-3.5s3.5 1.57 3.5 3.5v.916c.893.52 1.5 1.476 1.5 2.584v2c0 1.657-1.343 3-3 3h-4c-1.657 0-3-1.343-3-3zm4-5h2v-.5c0-.551-.449-1-1-1s-1 .449-1 1zm-.5 4c0 .828.672 1.5 1.5 1.5s1.5-.672 1.5-1.5-.672-1.5-1.5-1.5-1.5.672-1.5 1.5z"/></svg>