<svg id="Layer_1" viewBox="0 0 24 24" xmlns="http://www.w3.org/2000/svg" data-name="Layer 1"><path d="m24 6.5v11.015c0 2.003-.78 3.887-2.196 5.304l-.743.742c-.586.586-1.536.586-2.122 0-.585-.586-.585-1.536 0-2.121l.743-.742c.886-.883 1.352-2.079 1.318-3.328l-2.443 2.424c-.292.291-.675.436-1.057.436-.386 0-.771-.147-1.065-.443-.583-.588-.58-1.538.008-2.121l2.424-2.405c.195-.322.148-.746-.123-1.017-.314-.314-.86-.314-1.173 0l-4.012 4.012c.28.781.429 1.593.429 2.436v1.81c0 .828-.671 1.5-1.5 1.5s-1.5-.672-1.5-1.5v-1.81c0-1.254-.532-2.396-1.627-3.491l-2.876-2.877c-.323-.322-.821-.401-1.137-.178-.412.326-.445.726-.24 1.115l2.45 2.432c.588.584.591 1.533.008 2.121-.583.59-1.534.591-2.121.008l-2.443-2.426c-.029 1.24.438 2.425 1.318 3.302l.742.742c.586.585.586 1.535 0 2.121s-1.536.586-2.122 0l-.743-.742c-1.417-1.419-2.197-3.301-2.197-5.304v-11.015c0-1.378 1.122-2.5 2.5-2.5s2.5 1.122 2.5 2.5v4.603c1.254-.263 2.617.111 3.605 1.098l2.876 2.877c.172.172.331.349.486.526l3.482-3.482c.93-.931 2.303-1.254 3.551-.988v-4.634c0-1.378 1.122-2.5 2.5-2.5s2.5 1.122 2.5 2.5zm-8.08-4.448-2.742-1.714c-.721-.45-1.635-.45-2.356 0l-2.742 1.714 3.92 2.24zm-7.876 7.017 2.956 1.86v-4.907l-4-2.307v3.47c0 .766.395 1.478 1.044 1.884zm4.956 1.843 2.956-1.843c.65-.406 1.044-1.118 1.044-1.884v-3.454l-4 2.294z"/></svg>