<svg id="Layer_1" viewBox="0 0 24 24" xmlns="http://www.w3.org/2000/svg" data-name="Layer 1"><path d="m24 3v4c0 1.657-1.343 3-3 3h-1.7v-1h.333c1.244 0 2.302-.969 2.343-2.212.037-1.119-.747-2.102-1.838-2.319l-2.939-.589c-.32-.064-.541-.379-.473-.713.058-.286.326-.483.618-.483h2.212c.214 0 .407.092.542.238.179.199.433.306.699.288.689 0 1.063-.803.623-1.333-.444-.536-1.115-.877-1.864-.877h-.257v-1h1.699c1.657 0 3.001 1.343 3.001 3zm-9.908 8.862c.196 0 .397-.054.583-.173l2.454-1.69h.572v-1h-.248c-.749 0-1.419-.342-1.864-.877-.44-.53-.066-1.333.623-1.333.266-.018.519.089.699.288.135.146.328.238.542.238h2.214c.293 0 .56-.197.617-.484.066-.335-.154-.647-.474-.712l-2.938-.588c-1.09-.218-1.874-1.2-1.838-2.319.041-1.243 1.099-2.213 2.343-2.213h.325v-.998h-1.701c-1.65 0-3 1.351-2.999 3.001l.002 7.772c0 .638.524 1.088 1.089 1.088zm-7.591-2.362c0 .828.672 1.5 1.5 1.5s1.5-.672 1.5-1.5-.672-1.5-1.5-1.5-1.5.672-1.5 1.5zm6.126 8.5h-6.253c-2.511 0-4.701 1.696-5.326 4.125-.207.802.275 1.62 1.078 1.826.799.207 1.62-.276 1.826-1.078.284-1.103 1.28-1.874 2.422-1.874h6.252c1.142 0 2.138.77 2.422 1.874.203.808 1.046 1.286 1.826 1.078.803-.207 1.285-1.024 1.078-1.826-.625-2.429-2.815-4.125-5.326-4.125zm-10.414-6c.655 2.305 2.775 4 5.287 4h7c.828 0 1.5-.671 1.5-1.5s-.672-1.5-1.5-1.5h-7c-1.379 0-2.5-1.122-2.5-2.5v-2c0-1.378 1.121-2.5 2.5-2.5h2c.828 0 1.5-.671 1.5-1.5v-3c0-.829-.672-1.5-1.5-1.5s-1.5.671-1.5 1.5v1.5h-.5c-2.512 0-4.631 1.695-5.287 4h-.713c-.828 0-1.5.671-1.5 1.5v2c0 .829.672 1.5 1.5 1.5z"/></svg>