<svg id="Layer_1" viewBox="0 0 24 24" xmlns="http://www.w3.org/2000/svg" data-name="Layer 1"><path d="m18 0c-3.314 0-6 2.686-6 6s2.686 6 6 6 6-2.686 6-6-2.686-6-6-6zm-3.5 4.75c0-.69.56-1.25 1.25-1.25s1.25.56 1.25 1.25-.56 1.25-1.25 1.25-1.25-.56-1.25-1.25zm3.5 4.75c-.913 0-1.732-.358-2.313-.93-.409-.403-.102-1.07.492-1.07h3.643c.594 0 .901.667.492 1.07-.581.572-1.4.93-2.313.93zm2.25-3.5c-.69 0-1.25-.56-1.25-1.25s.56-1.25 1.25-1.25 1.25.56 1.25 1.25-.56 1.25-1.25 1.25zm-5.25 11.5v1h-1v-1c0-.276.225-.5.5-.5s.5.224.5.5zm-8.5-.5c-.276 0-.5.225-.5.5v2c0 .275.224.5.5.5s.5-.225.5-.5v-2c0-.275-.224-.5-.5-.5zm-3.5.5v2c0 .275-.225.5-.5.5h-.5v-3h.5c.275 0 .5.225.5.5zm18.36-4.247c-1.023.475-2.158.747-3.36.747-1.404 0-2.723-.364-3.87-1h-10.13c-2.209 0-4 1.791-4 4v3c0 2.209 1.791 4 4 4h16c2.209 0 4-1.791 4-4v-3c0-1.729-1.104-3.189-2.64-3.747zm-17.36 6.247c0 .827-.673 1.5-1.5 1.5h-1c-.276 0-.5-.224-.5-.5v-4c0-.276.224-.5.5-.5h1c.827 0 1.5.673 1.5 1.5zm4 0c0 .827-.673 1.5-1.5 1.5s-1.5-.673-1.5-1.5v-2c0-.827.673-1.5 1.5-1.5s1.5.673 1.5 1.5zm4 1c0 .276-.224.5-.5.5s-.5-.224-.5-.5v-3c0-.275-.225-.5-.5-.5s-.5.225-.5.5v3c0 .276-.224.5-.5.5s-.5-.224-.5-.5v-4c0-.276.224-.5.5-.5.14 0 .266.058.357.151.196-.094.412-.151.643-.151.827 0 1.5.673 1.5 1.5zm4 0c0 .276-.224.5-.5.5s-.5-.224-.5-.5v-1h-1v1c0 .276-.224.5-.5.5s-.5-.224-.5-.5v-3c0-.827.673-1.5 1.5-1.5s1.5.673 1.5 1.5zm3.5-3.5h-.5v3.5c0 .276-.224.5-.5.5s-.5-.224-.5-.5v-3.5h-.5c-.276 0-.5-.224-.5-.5s.224-.5.5-.5h2c.276 0 .5.224.5.5s-.224.5-.5.5zm3 1c.276 0 .5.224.5.5s-.224.5-.5.5h-.75v1h.75c.276 0 .5.224.5.5s-.224.5-.5.5h-.75c-.552 0-1-.448-1-1v-3c0-.552.448-1 1-1h.75c.276 0 .5.224.5.5s-.224.5-.5.5h-.75v1z"/></svg>