<svg id="Layer_1" viewBox="0 0 24 24" xmlns="http://www.w3.org/2000/svg" data-name="Layer 1"><path d="m24 20.768c0 1.245-.67 2.407-1.749 3.031-.705.41-1.632.176-2.05-.548-.414-.717-.169-1.635.548-2.05.157-.091.251-.253.251-.434 0-.828.672-1.5 1.5-1.5s1.5.672 1.5 1.5zm0-15.268v3c0 .828-.672 1.5-1.5 1.5s-1.5-.672-1.5-1.5v-3c0-1.208-.86-2.217-2-2.449v4.254c0 .703-.914.978-1.303.392-.803-1.208-1.403-2.756-1.611-4.697h-2.026c.122 1.636.443 3.129.968 4.443.308.77-.067 1.643-.836 1.949-.749.305-1.642-.059-1.949-.836-.089-.222-.154-.462-.233-.691-1.443 4.158-4.201 6.462-6.5 7.713 1.415 1.319 2.866 3.151 3.424 5.449.174.719.011 1.466-.449 2.05-.461.587-1.152.923-1.896.923h-3.089c-1.93 0-3.5-1.57-3.5-3.5v-15c0-3.032 2.468-5.5 5.5-5.5h13c3.032 0 5.5 2.468 5.5 5.5zm-21 11.865v3.135c0 .275.225.5.5.5h2.286c-.582-1.503-1.736-2.745-2.786-3.635zm6.928-14.365h-2.013c-.208 1.941-.808 3.489-1.611 4.697-.39.586-1.303.311-1.303-.392v-4.254c-1.14.232-2 1.242-2 2.449v7.994c2.378-.961 6.405-3.607 6.928-10.494zm11.578 12.661c.628.535 1.575.462 2.114-.171.537-.631.46-1.578-.171-2.114-3.736-3.178-9.169-3.187-12.917-.021-.633.534-.713 1.48-.178 2.113.533.634 1.482.714 2.113.178 2.621-2.215 6.423-2.208 9.038.016zm-1.67 1.235c-1.709-1.191-4.008-1.191-5.717 0-.68.475-.846 1.409-.372 2.089.475.681 1.41.843 2.089.372.682-.477 1.602-.477 2.283 0 .672.469 1.611.312 2.089-.372.474-.68.308-1.614-.372-2.089zm-2.859 4.104c-.828 0-1.5.672-1.5 1.5s.672 1.5 1.5 1.5 1.5-.672 1.5-1.5-.672-1.5-1.5-1.5z"/></svg>