<svg id="Layer_1" viewBox="0 0 24 24" xmlns="http://www.w3.org/2000/svg" data-name="Layer 1"><path d="m22.954 14.07c-.621-.198-1.301.03-1.679.563-.395.559-2.323 1.366-4.775 1.366-2.904 0-4.5-1.127-4.5-1.5.501-.703.462-1.703-.292-2.225-.717-.512-1.754-.283-2.174.495-.641.138-1.322.23-2.034.23-2.904 0-4.5-1.127-4.5-1.5v-1.357c1.238.541 2.781.857 4.5.857.382 0 .757-.017 1.121-.046.826-.067 1.441-.791 1.374-1.616s-.799-1.435-1.616-1.374c-.286.023-.58.036-.879.036-2.904 0-4.5-1.127-4.5-1.5s1.596-1.5 4.5-1.5c.299 0 .593.013.879.036.823.058 1.549-.549 1.616-1.374s-.548-1.549-1.374-1.616c-.364-.029-.739-.046-1.121-.046-4.276.001-7.5 1.936-7.5 4.501v10c0 2.565 3.224 4.5 7.5 4.5.619 0 1.233-.045 1.828-.128.922 1.853 3.7 3.128 7.172 3.128 4.276 0 7.5-1.935 7.5-4.5v-4c0-.653-.423-1.231-1.046-1.43zm-13.954 3.81c-.484.073-.985.119-1.5.119-2.904 0-4.5-1.127-4.5-1.5v-1.357c1.238.541 2.781.857 4.5.857.506 0 1.008-.035 1.5-.091v1.971zm12 1.619c0 .373-1.596 1.5-4.5 1.5s-4.5-1.127-4.5-1.5v-1.351c1.237.539 2.784.851 4.5.851 1.461 0 3.103-.244 4.5-.764zm1.288-18.033-3.816-1.265c-.307-.102-.638-.102-.944 0l-3.815 1.265c-1.024.34-1.712 1.292-1.712 2.37v3.296c.06 2.729 1.85 5.011 5.319 6.781.214.109.448.164.682.164.194 0 .388-.037.571-.113 4.41-1.814 5.386-4.719 5.428-6.865v-3.263c0-1.078-.688-2.03-1.712-2.37zm-4.224 9.441c-2.029-1.156-3.033-2.414-3.063-3.809v-2.899l3-.994 3 .994v2.869c-.033 1.655-.97 2.888-2.937 3.839z"/></svg>