<svg id="Layer_1" viewBox="0 0 24 24" xmlns="http://www.w3.org/2000/svg" data-name="Layer 1"><path d="m22.572 11.408c-.205-.201-.44-.359-.688-.493-.161-1.489-.456-2.892-.895-4.171-.265-.77-.84-1.413-1.58-1.766-.743-.355-1.576-.396-2.341-.117-.161.059-.305.134-.461.198-.496-1.449-1.274-2.817-2.312-4.018-.57-.662-1.407-1.041-2.295-1.041s-1.725.379-2.297 1.041c-1.038 1.201-1.816 2.569-2.312 4.018-.156-.064-.3-.139-.461-.198-.764-.278-1.596-.238-2.341.117-.74.353-1.316.997-1.58 1.766-.438 1.276-.732 2.679-.894 4.171-.247.134-.482.292-.688.492-.707.689-1.041 1.683-.893 2.657.499 5.22 5.45 9.936 11.465 9.936 6.179 0 10.967-4.716 11.465-9.936.147-.974-.186-1.967-.893-2.656zm-3.712-.593c-.866.231-1.702.556-2.498.962-.341-.837-.78-1.636-1.317-2.394.992-.722 1.965-1.291 3.106-1.665.326.95.562 1.988.708 3.097zm-7.129-.169c.174-.217.364-.217.536 0 .702.877 1.214 1.834 1.544 2.849-.529.456-1.016.958-1.465 1.497-.116-.012-.229-.039-.347-.039s-.231.026-.347.039c-.448-.539-.936-1.041-1.465-1.497.329-1.015.842-1.972 1.543-2.849zm.296-7.643c.904 1.045 1.535 2.251 1.885 3.518-.475.323-.952.671-1.431 1.047-.159-.023-.317-.054-.481-.054s-.322.031-.481.054c-.48-.377-.956-.725-1.431-1.047.351-1.267.989-2.473 1.939-3.519zm-6.125 4.677c1.101.402 2.063.978 3.053 1.702-.536.759-.976 1.558-1.317 2.396-.795-.406-1.631-.731-2.497-.962.148-1.113.395-2.159.761-3.136zm-2.401 5.934c-.009-.064.017-.095.084-.079 2.131.379 4.092 1.492 5.533 3.101-.74 1.002-1.319 2.094-1.713 3.242-2.829-1.645-3.665-4.69-3.904-6.264zm6.735 7.238c.34-.993.853-1.943 1.541-2.79.145-.178.301-.179.445 0 .688.847 1.201 1.796 1.541 2.789-.547.088-1.125.148-1.764.148s-1.216-.06-1.764-.148zm6.359-.974c-.394-1.149-.973-2.24-1.714-3.242 1.441-1.609 3.401-2.723 5.532-3.101.076-.019.094.019.084.079-.239 1.574-1.073 4.619-3.902 6.264z"/></svg>