<svg id="Layer_1" viewBox="0 0 24 24" xmlns="http://www.w3.org/2000/svg" data-name="Layer 1"><path d="m15.5 9.5c0 1.933-1.567 3.5-3.5 3.5s-3.5-1.567-3.5-3.5 1.567-3.5 3.5-3.5 3.5 1.567 3.5 3.5zm1-3.5h1.5v1.5c0 .829.672 1.5 1.5 1.5s1.5-.671 1.5-1.5v-1.5h1.5c.828 0 1.5-.671 1.5-1.5s-.672-1.5-1.5-1.5h-1.5v-1.5c0-.829-.672-1.5-1.5-1.5s-1.5.671-1.5 1.5v1.5h-1.5c-.828 0-1.5.671-1.5 1.5s.672 1.5 1.5 1.5zm7.446 4.858c.036.375.054.756.054 1.142 0 6.617-5.383 12-12 12s-12-5.383-12-12 5.383-12 12-12c.384 0 .765.019 1.14.053.825.077 1.431.809 1.354 1.633s-.809 1.432-1.633 1.354c-.283-.027-.57-.041-.86-.041-4.963.001-9.001 4.039-9.001 9.001 0 2.824 1.31 5.345 3.351 6.997.827-2.325 3.043-3.997 5.649-3.997s4.822 1.672 5.649 3.997c2.041-1.651 3.351-4.173 3.351-6.997 0-.29-.014-.576-.04-.858-.078-.825.526-1.557 1.352-1.635.81-.087 1.557.526 1.635 1.352zm-11.946 10.142c1.034 0 2.023-.184 2.949-.506-.242-1.413-1.468-2.494-2.949-2.494s-2.706 1.081-2.949 2.494c.925.322 1.915.506 2.949.506z"/></svg>