<svg id="Layer_1" viewBox="0 0 24 24" xmlns="http://www.w3.org/2000/svg" data-name="Layer 1"><path d="m15 11h-6c-.553 0-1-.448-1-1s.447-1 1-1h2v-6h-1.842l.842 2.663v.336s0 2-2 2-2-2-2-2v-.336l1.054-3.276c.266-.827 1.035-1.388 1.904-1.388h2.042c0-.551.447-.999 1-.999s1 .448 1 1h2.042c.869 0 1.638.561 1.904 1.388l1.054 3.276v.336s0 2-2 2-2-2-2-2v-.336l.842-2.663h-1.842v6h2c.553 0 1 .448 1 1s-.447 1-1 1zm-10.5 5.999c1.657 0 3-1.343 3-3s-1.343-3-3-3-3 1.343-3 3 1.343 3 3 3zm9.5 0c0-1.105-.895-2-2-2s-2 .895-2 2 .895 2 2 2 2-.895 2-2zm2.5-2.999c0 1.657 1.343 3 3 3s3-1.343 3-3-1.343-3-3-3-3 1.343-3 3zm-12 4.999c-1.968 0-3.738 1.195-4.404 2.974-.291.776.103 1.64.878 1.931.778.291 1.64-.104 1.931-.878.23-.614.871-1.026 1.596-1.026s1.365.413 1.596 1.026c.29.784 1.175 1.167 1.931.878.775-.291 1.169-1.155.878-1.931-.666-1.779-2.436-2.974-4.404-2.974zm19.404 2.974c-.666-1.779-2.436-2.974-4.404-2.974s-3.738 1.195-4.404 2.974c-.291.776.103 1.64.878 1.931.778.291 1.641-.104 1.931-.878.23-.614.871-1.026 1.596-1.026s1.365.413 1.596 1.026c.29.784 1.175 1.167 1.931.878.775-.291 1.169-1.155.878-1.931zm-11.904-1.974c-1.294 0-2.461.793-2.904 1.973-.173.461-.109.977.171 1.381.28.405.741.646 1.233.646h3c.492 0 .953-.241 1.233-.646.28-.404.344-.92.171-1.381-.443-1.18-1.61-1.973-2.904-1.973z"/></svg>