<svg id="Layer_1" viewBox="0 0 24 24" xmlns="http://www.w3.org/2000/svg" data-name="Layer 1"><path d="m24 13.5v3.793c0 2.659-1.899 4.935-4.516 5.411l-5.763 1.139c-.578.105-1.154.157-1.728.157-.567 0-1.132-.051-1.692-.153l-5.809-1.147c-2.594-.472-4.493-2.748-4.493-5.407v-9.792c0-1.636.72-3.174 1.976-4.223s2.896-1.481 4.509-1.189l2.323.486c.811.17 1.33.965 1.16 1.775-.169.812-.971 1.33-1.775 1.161l-2.284-.478c-.686-.127-1.438.071-2.011.548-.57.477-.897 1.176-.897 1.919v9.792c0 1.208.863 2.243 2.053 2.46l5.447 1.075v-7.328c0-.829.672-1.5 1.5-1.5s1.5.671 1.5 1.5v7.328l5.425-1.072c1.212-.221 2.075-1.255 2.075-2.464v-3.793c0-.829.672-1.5 1.5-1.5s1.5.671 1.5 1.5zm-6-9c-.828 0-1.5.672-1.5 1.5s.672 1.5 1.5 1.5 1.5-.672 1.5-1.5-.672-1.5-1.5-1.5zm0 4.5c-.828 0-1.5.671-1.5 1.5v1c0 .829.672 1.5 1.5 1.5s1.5-.671 1.5-1.5v-1c0-.829-.672-1.5-1.5-1.5zm-3-.042v-2.84c0-1.451.978-2.784 2.402-3.06 1.915-.372 3.598 1.092 3.598 2.942v2.965c0 .946 1.217 1.395 1.788.641.76-1.004 1.212-2.252 1.212-3.606 0-3.548-3.095-6.386-6.727-5.957-2.618.31-4.788 2.389-5.197 4.993-.266 1.697.186 3.287 1.097 4.518.581.784 1.827.38 1.827-.596z"/></svg>