<?xml version="1.0" encoding="UTF-8"?>
<svg xmlns="http://www.w3.org/2000/svg" id="Layer_1" data-name="Layer 1" viewBox="0 0 24 24">
  <path d="m18.5,2H5.5C2.468,2,0,4.467,0,7.5v9c0,3.032,2.468,5.5,5.5,5.5h13c3.032,0,5.5-2.468,5.5-5.5V7.5c0-3.033-2.468-5.5-5.5-5.5Zm2.5,14.5c0,1.379-1.121,2.5-2.5,2.5H5.5c-1.379,0-2.5-1.121-2.5-2.5V7.5c0-1.378,1.121-2.5,2.5-2.5h13c1.379,0,2.5,1.122,2.5,2.5v9Zm-12.5-7.7v6.275c0,.511-.414.925-.925.925-.402,0-.758-.26-.881-.643l-1.094-3.412v3.254c0,.442-.358.8-.8.8s-.8-.358-.8-.8v-6.271c0-.513.417-.927.929-.924.4.002.753.261.875.642l1.095,3.416v-3.263c0-.442.358-.8.8-.8s.8.358.8.8Zm2.6.8v1.801h1.101c.442,0,.8.358.8.8s-.358.8-.8.8h-1.101v1.4h1.101c.442,0,.8.358.8.8s-.358.8-.8.8h-1.9c-.442,0-.8-.358-.8-.8v-6.4c0-.442.358-.8.8-.8h1.9c.442,0,.8.358.8.8s-.358.8-.8.8h-1.101Zm9.342-.737l-.413,6.138c-.04.705-.439,1-.917,1-.318,0-.613-.242-.781-.64l-1.08-2.56-1.08,2.56c-.168.398-.463.64-.781.64-.479,0-.878-.295-.917-1l-.414-6.143c-.031-.463.337-.856.801-.854.42.002.767.327.795.746l.216,3.206.643-1.523c.275-.652,1.199-.652,1.474,0l.643,1.523.216-3.2c.028-.417.372-.742.79-.746.466-.005.838.389.806.854Z"/>
</svg>
