<svg id="Layer_1" viewBox="0 0 24 24" xmlns="http://www.w3.org/2000/svg" data-name="Layer 1"><path d="m4.5 12c-1.381 0-2.5-1.119-2.5-2.5s1.119-2.5 2.5-2.5 2.5 1.119 2.5 2.5-1.119 2.5-2.5 2.5zm8.5-10.5v13c0 .828-.671 1.5-1.5 1.5h-3.5v4.5c0 1.93-1.57 3.5-3.5 3.5h-1c-1.93 0-3.5-1.57-3.5-3.5v-3c0-2.481 2.019-4.5 4.5-4.5h5.5v-5.458l-9.553-5.815c-.277-.169-.447-.47-.447-.795 0-.685.715-1.135 1.332-.84l8.668 4.146v-2.738c0-.828.671-1.5 1.5-1.5s1.5.672 1.5 1.5zm-8 14.5h-.5c-.827 0-1.5.673-1.5 1.5v3c0 .275.224.5.5.5h1c.276 0 .5-.225.5-.5zm6.5 2c-.829 0-1.5.672-1.5 1.5v3c0 .828.671 1.5 1.5 1.5s1.5-.672 1.5-1.5v-3c0-.828-.671-1.5-1.5-1.5zm12.5-14.442c0-.686-.78-1.081-1.333-.675l-.803.59-.437-2.863c-.054-.351-.355-.609-.71-.609-.396 0-.718.321-.718.718v4.122l-2 1.468v-4.809c0-.828-.671-1.5-1.5-1.5s-1.5.672-1.5 1.5v21c0 .828.671 1.5 1.5 1.5s1.5-.672 1.5-1.5v-12.427l5.763-5.932c.152-.156.237-.366.237-.583z"/></svg>