<svg id="Layer_1" viewBox="0 0 24 24" xmlns="http://www.w3.org/2000/svg" data-name="Layer 1"><path d="m19.5 0c-.828 0-1.5.672-1.5 1.5v2.901l-4.5-2.7v-.201c0-.828-.671-1.5-1.5-1.5s-1.5.672-1.5 1.5v.201l-4.5 2.701v-2.748c0-.982-.671-1.654-1.5-1.654s-1.5.672-1.5 1.5v14.813c0 1.912.969 3.657 2.592 4.669l3.5 2.181c.897.559 1.902.837 2.908.837s2.012-.279 2.908-.837l3.501-2.181c1.622-1.012 2.591-2.757 2.591-4.669v-14.813c0-.828-.672-1.5-1.5-1.5zm-13.5 9.066 3.223 1.934-3.223 1.934zm4.5 8.785-4.404-2.642 4.404-2.642v5.285zm0-8.417-4.5-2.701 4.5-2.7zm3 8.417v-5.285l4.404 2.643zm4.5-4.917-3.223-1.934 3.223-1.934zm0-6.2-4.5 2.7v-5.401l4.5 2.7z"/></svg>