<svg id="Layer_1" viewBox="0 0 24 24" xmlns="http://www.w3.org/2000/svg" data-name="Layer 1"><path d="m23.611 8.099c-1.111-4.129-4.563-7.247-8.793-7.945-4.104-.677-8.196.955-10.685 4.262-1.036 1.297-4.133 6.478-4.133 8.129 0 1.146.798 2.362 2.283 2.45l.151 1.194c.31 2.452 2.217 4.365 4.593 4.743.213 1.727 1.69 3.068 3.474 3.068h7c1.93 0 3.5-1.57 3.5-3.5v-1.124c0-.706.332-1.28.61-1.639 2.169-2.793 2.898-6.306 2.001-9.639zm-4.369 7.798c-.812 1.044-1.242 2.248-1.242 3.479v1.124c0 .276-.225.5-.5.5h-7c-.276 0-.5-.224-.5-.5v-1c0-.829-.671-1.5-1.5-1.5h-.61c-1.256 0-2.323-.94-2.48-2.187l-.316-2.501c-.095-.75-.732-1.312-1.488-1.312h-.39c.615-1.47 2.303-4.527 3.268-5.721.012-.015.023-.029.035-.044 1.813-2.421 4.811-3.617 7.811-3.121 3.024.499 5.591 2.815 6.385 5.765.891 3.309-.541 5.818-1.473 7.018zm-3.242-8.897c-1.657 0-3 1-3 1s-1.343-1-3-1-3 1.451-3 3.24c0 2.124 2.351 4.551 4.11 6.07 1.088.939 2.693.939 3.781 0 1.759-1.518 4.11-3.946 4.11-6.07 0-1.789-1.343-3.24-3-3.24zm-1 6h-1v1c0 .552-.448 1-1 1s-1-.448-1-1v-1h-1c-.552 0-1-.448-1-1s.448-1 1-1h1v-1c0-.552.448-1 1-1s1 .448 1 1v1h1c.552 0 1 .448 1 1s-.448 1-1 1z"/></svg>