<svg id="Layer_1" viewBox="0 0 24 24" xmlns="http://www.w3.org/2000/svg" data-name="Layer 1"><path d="m23.902 16.956c-1.055-5.114-2.944-10.005-3.089-10.375-1.451-3.937-5.566-6.581-10.245-6.581-5.827 0-10.568 4.741-10.568 10.568 0 1.102.303 4.437.568 6.26.35 2.408 2.294 4.324 4.728 4.658 3.666.503 7.078 1.026 11.717 2.344.406.115.819.17 1.228.17 1.432 0 2.807-.682 3.629-1.85l1.305-1.68c.715-1.013.98-2.294.729-3.515zm-12.902-5.956c0 .552-.448 1-1 1s-1-.448-1-1 .448-1 1-1 1 .448 1 1zm2.858-1h4.997c.483 1.421 1.093 3.356 1.617 5.43l-7.102-2.294c.394-.619.63-1.349.63-2.136 0-.347-.058-.678-.142-1zm5.602 10.364c-.366.52-1.02.752-1.628.579-4.826-1.37-8.348-1.911-12.128-2.43-1.135-.155-2.006-1.006-2.167-2.117-.26-1.78-.537-4.943-.537-5.828 0-4.173 3.396-7.568 7.568-7.568 3.16 0 5.923 1.588 7.137 4h-7.705c-2.173.047-4.008 1.771-4 4 0 1.853 1.272 3.4 2.984 3.853.178.114 11.59 3.743 11.784 3.826-.001.002-1.308 1.686-1.308 1.686z"/></svg>