<svg id="Layer_1" viewBox="0 0 24 24" xmlns="http://www.w3.org/2000/svg" data-name="Layer 1"><path d="m19 2c0-1.105.895-2 2-2s2 .895 2 2-.895 2-2 2-2-.895-2-2zm-3 6c1.105 0 2-.895 2-2s-.895-2-2-2-2 .895-2 2 .895 2 2 2zm7.561 15.561c-.586.586-1.535.586-2.121 0l-5.51-5.51c-1.7 1.254-3.763 1.953-5.92 1.955h-.013c-5.511-.005-9.991-4.489-9.991-10s4.48-9.995 9.99-10h.013c.999 0 1.985.149 2.932.44.792.244 1.236 1.083.993 1.875s-1.083 1.238-1.875.993c-.181-.056-.368-.085-.553-.126v6.818c0 .398-.158.779-.439 1.061l-4.829 4.829c1.089.699 2.379 1.11 3.766 1.11 2.067 0 4.017-.908 5.351-2.49.533-.633 1.479-.715 2.114-.179.448.378.613.961.485 1.495l5.608 5.608c.586.585.586 1.536 0 2.121zm-20.555-13.555c0 1.388.411 2.679 1.11 3.768l4.39-4.39v-6.212c-3.141.689-5.5 3.49-5.5 6.834zm10.046.936c-.203.512.22 1.059.794 1.059h4.309c.574 0 .997-.547.794-1.059-.449-1.135-1.6-1.941-2.948-1.941s-2.499.807-2.948 1.941zm6.866-5.752c.054.262.083.533.083.811 0 .732-.211 1.41-.555 2h3.709c.574 0 .997-.547.794-1.059-.449-1.135-1.6-1.941-2.948-1.941-.382 0-.744.071-1.083.189z"/></svg>