<svg id="Layer_1" viewBox="0 0 24 24" xmlns="http://www.w3.org/2000/svg" data-name="Layer 1"><path d="m21 15h-6c-1.657 0-3 1.343-3 3v3c0 1.657 1.343 3 3 3h6c1.657 0 3-1.343 3-3v-3c0-1.657-1.343-3-3-3zm-4 5c0 .552-.448 1-1 1h-1c-.552 0-1-.448-1-1v-1c0-.552.448-1 1-1h1c.552 0 1 .448 1 1zm5 0c0 .552-.448 1-1 1h-1c-.552 0-1-.448-1-1v-1c0-.552.448-1 1-1h1c.552 0 1 .448 1 1zm.571-9.993-3.279-4.007h3.208c.829 0 1.5-.671 1.5-1.5s-.671-1.5-1.5-1.5h-15.5v-1.5c0-.829-.671-1.5-1.5-1.5s-1.5.671-1.5 1.5v1.5h-2.5c-.829 0-1.5.671-1.5 1.5s.671 1.5 1.5 1.5h2.5v15h-1.5c-.829 0-1.5.671-1.5 1.5s.671 1.5 1.5 1.5h6c.829 0 1.5-.671 1.5-1.5s-.671-1.5-1.5-1.5h-1.5v-15h9.708l-3.279 4.007c-.795.038-1.429.688-1.429 1.493 0 .829.671 1.5 1.5 1.5h9c.829 0 1.5-.671 1.5-1.5 0-.804-.634-1.455-1.429-1.493zm-2.59-.007h-3.961l1.981-2.421 1.981 2.421z"/></svg>