<svg id="Layer_1" viewBox="0 0 24 24" xmlns="http://www.w3.org/2000/svg" data-name="Layer 1"><path d="m21.18 23.85-3.43-1.559-3.43 1.559v-.002c-1.468.668-2.895-1.021-2.083-2.466l3.839-6.829c.375-.67 1.023-1.005 1.674-1.007.651.003 1.299.338 1.674 1.008l3.841 6.831c.812 1.444-.616 3.133-2.084 2.466zm-10.68-18.35v1c0 .829.671 1.5 1.5 1.5s1.5-.671 1.5-1.5v-1c0-.829-.671-1.5-1.5-1.5s-1.5.671-1.5 1.5zm3 7v-1c0-.829-.671-1.5-1.5-1.5s-1.5.671-1.5 1.5v1c0 .829.671 1.5 1.5 1.5s1.5-.671 1.5-1.5zm-5 8.5h-3.181c-.687 0-1.333-.301-1.775-.827-.441-.526-.627-1.215-.509-1.891l2.339-13.364c.194-1.112 1.154-1.918 2.283-1.918h8.673c1.136 0 2.102.807 2.296 1.918l1.173 6.704c.144.816.919 1.362 1.736 1.219.815-.143 1.361-.92 1.219-1.736l-1.173-6.704c-.445-2.551-2.654-4.402-5.251-4.402h-8.673c-2.589.001-4.792 1.852-5.238 4.403l-2.338 13.364c-.271 1.551.154 3.132 1.167 4.337 1.013 1.206 2.497 1.897 4.072 1.897h3.181c.829 0 1.5-.671 1.5-1.5s-.671-1.5-1.5-1.5z"/></svg>