<svg id="Layer_1" viewBox="0 0 24 24" xmlns="http://www.w3.org/2000/svg" data-name="Layer 1"><path d="m18.383 2.036-5.911-1.96c-.307-.102-.637-.102-.943 0l-5.912 1.96c-2.163.717-3.616 2.731-3.616 5.01v5.106c0 6.518 6.852 10.45 8.951 11.5.314.163.69.366 1.051.348.311.016.67-.152.954-.267 2.122-.853 9.044-4.21 9.044-11.581v-5.106c0-2.28-1.453-4.293-3.617-5.01zm.617 10.116c0 5.259-5.031 7.896-6.932 8.702-1.927-.998-7.068-4.098-7.068-8.702v-5.106c0-.983.627-1.853 1.561-2.162l5.439-1.804 5.439 1.804c.934.31 1.561 1.178 1.561 2.162zm-6.636-6.584c-.275-.245-.71-.183-.898.134-1.057 1.788-.839 4.512-1.787 4.512-.449 0-.378-.775-.59-1.254-.15-.338-.605-.391-.839-.103-.894 1.105-1.729 2.889-.937 4.791.847 2.035 2.76 3.472 4.961 3.343 2.634-.154 4.722-2.339 4.722-5.01 0-2.638-2.926-4.89-4.633-6.413zm.792 8.899c-.305.355-.73.533-1.156.533s-.852-.178-1.157-.533c-.527-.615-.425-1.554.148-2.127l.67-.67c.187-.187.489-.187.676 0l.67.67c.573.573.675 1.512.148 2.127z"/></svg>