<svg id="Layer_1" viewBox="0 0 24 24" xmlns="http://www.w3.org/2000/svg" data-name="Layer 1"><path d="m15.5 9.5c0 1.933-1.567 3.5-3.5 3.5s-3.5-1.567-3.5-3.5 1.567-3.5 3.5-3.5 3.5 1.567 3.5 3.5zm8.5 2.5c0 6.617-5.383 12-12 12s-12-5.383-12-12c0-3.159 1.218-6.142 3.429-8.398.58-.592 1.529-.602 2.121-.021.592.58.602 1.529.021 2.121-1.658 1.693-2.571 3.93-2.571 6.299 0 2.824 1.31 5.345 3.351 6.997.827-2.325 3.044-3.997 5.649-3.997s4.822 1.672 5.649 3.997c2.041-1.651 3.351-4.173 3.351-6.997 0-2.369-.913-4.606-2.571-6.299-.58-.592-.57-1.542.021-2.121.592-.579 1.541-.57 2.121.021 2.211 2.257 3.429 5.24 3.429 8.398zm-12 9c1.034 0 2.023-.184 2.949-.506-.242-1.413-1.468-2.494-2.949-2.494s-2.707 1.081-2.949 2.494c.925.322 1.915.506 2.949.506zm-3-16h6c.552 0 1-.448 1-1v-3.499c0-.198-.116-.376-.297-.457-.182-.079-.392-.046-.538.085l-1.377 1.242-.856-.955c-.497-.555-1.366-.555-1.864 0l-.856.955-1.377-1.242c-.146-.132-.357-.165-.538-.085-.181.081-.297.259-.297.457v3.499c0 .552.448 1 1 1z"/></svg>