<svg id="Layer_1" viewBox="0 0 24 24" xmlns="http://www.w3.org/2000/svg" data-name="Layer 1"><path d="m18.5 0h-13c-3.033 0-5.5 2.468-5.5 5.5v9c0 2.88 2.227 5.246 5.048 5.477.242 2.255 2.134 4.023 4.452 4.023h5c2.318 0 4.21-1.768 4.452-4.023 2.822-.231 5.048-2.597 5.048-5.477v-9c0-3.032-2.467-5.5-5.5-5.5zm-2.5 19.5c0 .827-.673 1.5-1.5 1.5h-5c-.827 0-1.5-.673-1.5-1.5v-2.5h1.55c.232 1.141 1.24 2 2.45 2s2.218-.859 2.45-2h1.55zm5-5c0 1.208-.86 2.217-2 2.449v-1.449c0-.828-.671-1.5-1.5-1.5h-11c-.829 0-1.5.672-1.5 1.5v1.449c-1.14-.232-2-1.242-2-2.449v-9c0-1.379 1.122-2.5 2.5-2.5h13c1.378 0 2.5 1.121 2.5 2.5zm-11-8.5v5c0 .552-.448 1-1 1h-3c-.552 0-1-.448-1-1v-5c0-.552.448-1 1-1h3c.552 0 1 .448 1 1zm5 .5c0 .828-.672 1.5-1.5 1.5s-1.5-.672-1.5-1.5.672-1.5 1.5-1.5 1.5.672 1.5 1.5zm4 0c0 .828-.672 1.5-1.5 1.5s-1.5-.672-1.5-1.5.672-1.5 1.5-1.5 1.5.672 1.5 1.5zm-4 4c0 .828-.672 1.5-1.5 1.5s-1.5-.672-1.5-1.5.672-1.5 1.5-1.5 1.5.672 1.5 1.5zm4 0c0 .828-.672 1.5-1.5 1.5s-1.5-.672-1.5-1.5.672-1.5 1.5-1.5 1.5.672 1.5 1.5z"/></svg>