<?xml version="1.0" encoding="UTF-8"?>
<svg xmlns="http://www.w3.org/2000/svg" id="Layer_1" data-name="Layer 1" viewBox="0 0 24 24">
  <path d="M2.5,9.5c0-1.933,1.567-3.5,3.5-3.5s3.5,1.567,3.5,3.5-1.567,3.5-3.5,3.5-3.5-1.567-3.5-3.5Zm3.5,5.5c-3.309,0-6,2.691-6,6v1.5c0,.829,.671,1.5,1.5,1.5s1.5-.671,1.5-1.5v-1.5c0-1.654,1.346-3,3-3s3,1.346,3,3v1.5c0,.829,.671,1.5,1.5,1.5s1.5-.671,1.5-1.5v-1.5c0-3.309-2.691-6-6-6ZM24,3v5c0,1.657-1.343,3-3,3h-4.872l-2.454,1.69c-.186,.119-.387,.173-.583,.173-.566,0-1.089-.45-1.089-1.088l-.002-8.772C12,1.352,13.349,.002,14.999,.001h6c1.657-.002,3.001,1.341,3.001,2.999Zm-5,6c0-.552-.448-1-1-1s-1,.448-1,1,.448,1,1,1,1-.448,1-1Zm2-5c0-1.654-1.346-3-3-3s-3,1.346-3,3c0,.552,.448,1,1,1s1-.448,1-1,.449-1,1-1,1,.449,1,1c0,.356-.192,.688-.485,.859-.092,.043-.409,.117-.653,.151-.546,.077-.928,.582-.852,1.128,.069,.5,.498,.862,.989,.862,.378-.03,.996-.133,1.503-.402,.924-.535,1.498-1.531,1.498-2.598Z"/>
</svg>
