<svg id="Layer_1" viewBox="0 0 24 24" xmlns="http://www.w3.org/2000/svg" data-name="Layer 1"><path d="m11.49 16.898 2.828 2.83-2.193 2.192c-1.341 1.341-3.125 2.08-5.022 2.08s-3.681-.739-5.022-2.081c-1.341-1.34-2.08-3.124-2.08-5.021s.739-3.682 2.081-5.022l2.191-2.192 2.829 2.828-2.192 2.193c-.587.586-.909 1.364-.909 2.193s.322 1.607.908 2.192c1.173 1.174 3.216 1.173 4.388 0l2.194-2.193zm-2.184-6.591c.586-.586.586-1.536 0-2.122l-.707-.707c-.586-.586-1.535-.586-2.121 0l-.808.808 2.829 2.828zm14.694-3.807c0 3.59-2.91 6.5-6.5 6.5s-6.5-2.91-6.5-6.5 2.91-6.5 6.5-6.5 6.5 2.91 6.5 6.5zm-4.947-.505-2.792-.559c-.304-.061-.514-.36-.449-.678.055-.272.309-.458.587-.458h2.102c.203 0 .387.087.515.226.17.189.411.29.664.274.654 0 1.01-.763.592-1.266-.457-.566-1.204-.881-1.971-.833v-.4c0-.442-.358-.8-.8-.8s-.8.358-.8.8v.4c-1.178-.104-2.318.671-2.478 1.866-.163 1.158.613 2.216 1.725 2.439l2.791.559c.304.062.514.359.451.677-.054.273-.308.46-.586.46h-2.103c-.203 0-.387-.087-.515-.226-.17-.189-.411-.29-.664-.274-.654 0-1.01.763-.592 1.266.457.566 1.204.881 1.971.833v.4c0 .442.358.8.8.8s.8-.358.8-.8v-.4c1.178.104 2.317-.67 2.478-1.865.164-1.158-.613-2.217-1.725-2.439zm-3.237 8.699c-.586-.586-1.536-.586-2.122 0l-.808.807 2.829 2.83.808-.808c.586-.586.586-1.535 0-2.121l-.708-.708z"/></svg>