<svg id="Layer_1" viewBox="0 0 24 24" xmlns="http://www.w3.org/2000/svg" data-name="Layer 1"><path d="m24 14.5v4c0 3.033-2.468 5.5-5.5 5.5h-13c-3.032 0-5.5-2.467-5.5-5.5v-6.702c0-1.492.617-2.939 1.694-3.972l1.306-1.267v-2.06c0-2.48 2.019-4.499 4.5-4.499h2c.828 0 1.5.671 1.5 1.5s-.672 1.5-1.5 1.5h-2c-.827 0-1.5.673-1.5 1.5v6.42l4.348 4.348c.945.942 2.586.947 3.549-.015l.781-.801c.579-.593 1.529-.604 2.122-.026.593.579.604 1.528.026 2.121l-.795.815c-1.062 1.061-2.447 1.638-3.916 1.638s-2.849-.572-3.888-1.609l-5.228-5.228v6.338c0 1.378 1.121 2.5 2.5 2.5h13c1.379 0 2.5-1.122 2.5-2.5v-4c0-.829.672-1.5 1.5-1.5s1.5.671 1.5 1.5zm-12-8.5c0-3.314 2.686-6 6-6s6 2.686 6 6-2.686 6-6 6-6-2.686-6-6zm4.586 0-1.293 1.293c-.391.391-.391 1.023 0 1.414s1.023.391 1.414 0l1.293-1.293 1.293 1.293c.391.391 1.023.391 1.414 0s.391-1.023 0-1.414l-1.293-1.293 1.293-1.293c.391-.391.391-1.023 0-1.414s-1.023-.391-1.414 0l-1.293 1.293-1.293-1.293c-.391-.391-1.023-.391-1.414 0s-.391 1.023 0 1.414z"/></svg>