<svg id="Layer_1" viewBox="0 0 24 24" xmlns="http://www.w3.org/2000/svg" data-name="Layer 1"><path d="m5 7.25c0-.69.56-1.25 1.25-1.25h.5v-2.75c0-1.792 1.458-3.25 3.25-3.25.69 0 1.25.56 1.25 1.25s-.56 1.25-1.25 1.25c-.414 0-.75.337-.75.75v2.75h.5c.69 0 1.25.56 1.25 1.25s-.56 1.25-1.25 1.25h-.5v4.3c0 .69-.56 1.25-1.25 1.25s-1.25-.56-1.25-1.25v-4.3h-.5c-.69 0-1.25-.56-1.25-1.25zm17.669-1.69c-.519-.646-1.461-.748-2.109-.229-.646.519-.748 1.463-.229 2.108.305.38.669.959.669 1.562v8.293c0 1.209-.863 2.243-2.075 2.464l-5.425 1.072v-2.329c0-.828-.671-1.5-1.5-1.5s-1.5.672-1.5 1.5v2.328l-5.447-1.076c-1.189-.217-2.053-1.251-2.053-2.46v-8.293c0-.603.364-1.182.669-1.562.519-.646.417-1.59-.229-2.108-.646-.519-1.589-.416-2.109.229-.871 1.083-1.331 2.272-1.331 3.44v8.293c0 2.66 1.899 4.936 4.494 5.407l5.807 1.146c.566.107 1.058.153 1.699.153s1.143-.049 1.722-.157l5.762-1.139c2.617-.476 4.517-2.751 4.517-5.411v-8.291c0-1.168-.46-2.357-1.331-3.44zm-9.904 8.201c.553.403 1.337.286 1.746-.275l.989-1.36.989 1.36c.409.562 1.193.679 1.746.275.558-.406.682-1.188.275-1.746l-1.465-2.015 1.465-2.015c.406-.559.283-1.34-.275-1.746-.558-.404-1.339-.282-1.746.275l-.989 1.36-.989-1.36c-.407-.559-1.188-.682-1.746-.275s-.682 1.188-.275 1.746l1.465 2.015-1.465 2.015c-.406.559-.283 1.34.275 1.746z"/></svg>