<svg id="Layer_1" viewBox="0 0 24 24" xmlns="http://www.w3.org/2000/svg" data-name="Layer 1"><path d="m5.422 1.759c-.093-.317.026-.658.297-.847l1.135-.795c.363-.254.868-.075.988.352l.563 2.374 1.654-1.159c.391-.274.929-.002.941.475v4.843c-.005.151-.073.294-.189.392-.294.249-.747.113-.856-.256l-.856-2.365-1.591 1.179c-.335.235-.801.079-.929-.309l-1.156-3.884zm8.623 5.379.856-2.365 1.591 1.179c.335.235.801.079.929-.309l1.156-3.884c.093-.317-.026-.658-.297-.847l-1.135-.795c-.363-.254-.868-.075-.988.352l-.563 2.374-1.654-1.159c-.391-.274-.929-.002-.941.475v4.843c.005.151.073.294.189.392.294.249.747.113.856-.256zm-2.045 11.862c-2.511 0-4.889.876-6.524 2.404-.605.565-.638 1.515-.072 2.12.566.604 1.515.638 2.12.071 1.086-1.014 2.717-1.596 4.476-1.596s3.391.582 4.476 1.596c.605.565 1.553.535 2.12-.071.565-.605.533-1.555-.071-2.12-1.636-1.528-4.014-2.404-6.524-2.404zm-4-6c0 2.209 1.791 4 4 4s4-1.791 4-4-1.791-4-4-4-4 1.791-4 4zm15.881-4.661c-.108-1.479-.784-2.822-1.902-3.784-.628-.542-1.574-.469-2.115.158-.541.628-.47 1.575.158 2.115.51.438.817 1.053.867 1.729.074 1.021.111 2.012.111 2.943s-.037 1.923-.111 2.942c-.077 1.05-.801 1.947-1.802 2.233-.796.229-1.257 1.059-1.029 1.855.226.804 1.08 1.256 1.855 1.029 2.205-.631 3.8-2.601 3.968-4.9.079-1.093.119-2.156.119-3.16s-.04-2.067-.119-3.161zm-17.939 10.192c.228-.797-.232-1.627-1.029-1.855-1.001-.286-1.725-1.184-1.801-2.233-.074-1.018-.112-2.008-.112-2.942s.038-1.925.112-2.943c.049-.676.356-1.29.866-1.729.628-.54.699-1.487.159-2.115-.542-.629-1.488-.699-2.115-.158-1.12.962-1.795 2.305-1.902 3.783-.08 1.09-.12 2.153-.12 3.161s.04 2.071.12 3.16c.167 2.3 1.761 4.269 3.968 4.9.775.227 1.629-.226 1.854-1.029z"/></svg>