<svg id="Layer_1" viewBox="0 0 24 24" xmlns="http://www.w3.org/2000/svg" data-name="Layer 1"><path d="m22.5 17h-4.318s-4.565-4.068-4.565-4.068c.466-.436 1.152-1.232 1.863-.828.274.16.823.457 1.191.644s.743.252 1.132.251h4.697c.828 0 1.5-.672 1.5-1.5s-.672-1.5-1.5-1.5h-3.5v-3.999c0-2.206-1.794-4-4-4 0-1.105-.895-2-2-2h-2c-1.105 0-2 .895-2 2-2.206 0-4 1.794-4 4v4h-3.5c-.828 0-1.5.671-1.5 1.5s.672 1.5 1.5 1.5h4.682c.402 0 .817-.046 1.168-.266.544-.34 1.084-.742 1.614-.728.331-.023.612.193.876.372l-1.267 1.341c-.676.676-.768 1.721-.218 2.483.662.954 2.115 1.071 2.925.219l.807-.835 3.424 3.051-2.645 2.064c-.492.384-1.238.384-1.73 0l-3.795-2.961c-.612-.478-1.377-.741-2.153-.741h-3.688c-.828 0-1.5.671-1.5 1.5s.672 1.5 1.5 1.5h3.687c.11 0 .22.038.308.106l3.795 2.96c.771.602 1.733.934 2.711.934s1.94-.332 2.711-.933l3.93-3.067h3.859c.828 0 1.5-.672 1.5-1.5s-.672-1.5-1.5-1.5zm-13.536-7.994c-.327 0-.65.044-.964.121v-3.127h2.5v.5c0 .829.672 1.5 1.5 1.5s1.5-.671 1.5-1.5v-.5h2.5v3.127c-.314-.077-.637-.121-.964-.121-.842 0-1.648.253-2.315.72l-.721.457-.721-.457c-.667-.467-1.473-.72-2.315-.72z"/></svg>