<svg id="Layer_1" viewBox="0 0 24 24" xmlns="http://www.w3.org/2000/svg" data-name="Layer 1"><path d="m10 10h4c1.654 0 3-1.346 3-3v-2c0-1.302-.839-2.402-2-2.816.087-1.166-.82-2.19-2-2.184h-2c-1.18-.006-2.087 1.019-2 2.184-1.161.414-2 1.514-2 2.816v2c0 1.654 1.346 3 3 3zm4-3-4 .002v-2.002h4zm-14-.5c0-1.381 1.119-2.5 2.5-2.5s2.5 1.119 2.5 2.5-1.119 2.5-2.5 2.5-2.5-1.119-2.5-2.5zm9 13.5v2.5c0 .828-.671 1.5-1.5 1.5s-1.5-.672-1.5-1.5v-2.5h-3.5c-1.381 0-2.5-1.119-2.5-2.5v-4c0-1.381 1.119-2.5 2.5-2.5s2.5 1.119 2.5 2.5v3.5h1c1.654 0 3 1.346 3 3zm10-13.5c0-1.381 1.119-2.5 2.5-2.5s2.5 1.119 2.5 2.5-1.119 2.5-2.5 2.5-2.5-1.119-2.5-2.5zm5 7v4c0 1.381-1.119 2.5-2.5 2.5h-3.5v2.5c0 .828-.671 1.5-1.5 1.5s-1.5-.672-1.5-1.5v-2.5c0-1.654 1.346-3 3-3h1v-3.5c0-1.381 1.119-2.5 2.5-2.5s2.5 1.119 2.5 2.5zm-17 0c0-.829.671-1.5 1.5-1.5h7c.829 0 1.5.671 1.5 1.5s-.671 1.5-1.5 1.5h-7c-.829 0-1.5-.672-1.5-1.5zm17 9c0 .828-.671 1.5-1.5 1.5h-1c-.829 0-1.5-.672-1.5-1.5s.671-1.5 1.5-1.5h1c.829 0 1.5.672 1.5 1.5zm-20 0c0 .828-.671 1.5-1.5 1.5h-1c-.829 0-1.5-.672-1.5-1.5s.671-1.5 1.5-1.5h1c.829 0 1.5.672 1.5 1.5z"/></svg>