<svg id="Layer_1" viewBox="0 0 24 24" xmlns="http://www.w3.org/2000/svg" data-name="Layer 1"><path d="m24 21v1.154c0 1.02-.827 1.846-1.846 1.846h-20.308c-1.02 0-1.846-.827-1.846-1.846v-1.154c0-1.105.895-2 2-2v-7.5c0-1.577.679-3.081 1.862-4.125.621-.55 1.569-.49 2.117.132s.489 1.569-.132 2.117c-.539.475-.847 1.159-.847 1.875v7.5h3.308l.923 1h5.538l.923-1h3.308v-5.5c0-.829.671-1.5 1.5-1.5s1.5.671 1.5 1.5v5.5c1.105 0 2 .895 2 2zm0-18v4c0 1.657-1.343 3-3 3h-10c-1.657 0-3-1.343-3-3v-4c0-1.657 1.343-3 3-3h10c1.657 0 3 1.343 3 3zm-11.5 4c0-.828-.672-1.5-1.5-1.5s-1.5.672-1.5 1.5.672 1.5 1.5 1.5 1.5-.672 1.5-1.5zm0-4c0-.828-.672-1.5-1.5-1.5s-1.5.672-1.5 1.5.672 1.5 1.5 1.5 1.5-.672 1.5-1.5zm6 2c0-1.383-1.117-2.5-2.5-2.5s-2.5 1.117-2.5 2.5 1.117 2.5 2.5 2.5 2.5-1.117 2.5-2.5zm4 2c0-.828-.672-1.5-1.5-1.5s-1.5.672-1.5 1.5.672 1.5 1.5 1.5 1.5-.672 1.5-1.5zm0-4c0-.828-.672-1.5-1.5-1.5s-1.5.672-1.5 1.5.672 1.5 1.5 1.5 1.5-.672 1.5-1.5z"/></svg>