<svg id="Layer_1" viewBox="0 0 24 24" xmlns="http://www.w3.org/2000/svg" data-name="Layer 1"><path d="m18.5 0h-13c-3.032 0-5.5 2.467-5.5 5.5v4c0 .829.672 1.5 1.5 1.5h21c.828 0 1.5-.671 1.5-1.5v-4c0-3.033-2.468-5.5-5.5-5.5zm2.5 8h-18v-2.5c0-1.378 1.121-2.5 2.5-2.5h13c1.379 0 2.5 1.122 2.5 2.5zm-13.5 5h-6c-.828 0-1.5.671-1.5 1.5v4c0 3.033 2.468 5.5 5.5 5.5h2c.828 0 1.5-.671 1.5-1.5v-8c0-.829-.672-1.5-1.5-1.5zm-1.5 8h-.5c-1.379 0-2.5-1.122-2.5-2.5v-2.5h3zm16.5-8h-10c-.828 0-1.5.671-1.5 1.5v8c0 .829.672 1.5 1.5 1.5h6c3.032 0 5.5-2.467 5.5-5.5v-4c0-.829-.672-1.5-1.5-1.5zm-1.5 5.5c0 1.378-1.121 2.5-2.5 2.5h-4.5v-5h7z"/></svg>