<svg id="Layer_1" viewBox="0 0 24 24" xmlns="http://www.w3.org/2000/svg" data-name="Layer 1"><path d="m18.916 16.853c.42 2.254-.821 4.472-2.916 5.299v.348c0 .829-.672 1.5-1.5 1.5s-1.5-.671-1.5-1.5v-.71c0-1.096.715-2.055 1.779-2.387.731-.229 1.376-.991 1.188-2.002-.124-.668-.676-1.229-1.343-1.363-.798-.158-1.335.216-1.584.455-.58.56-1.5.56-2.08 0-.249-.239-.785-.614-1.584-.455-.667.135-1.219.695-1.343 1.362-.188 1.013.456 1.774 1.189 2.004 1.062.332 1.777 1.291 1.777 2.386v.71c0 .829-.672 1.5-1.5 1.5s-1.5-.671-1.5-1.5v-.349c-2.095-.828-3.336-3.045-2.916-5.3.137-.742.461-1.424.911-2.004-1.569-1.354-2.104-3.571-1.277-5.475l-4.281-4.315c-.584-.588-.58-1.538.008-2.122.589-.583 1.538-.58 2.121.008l4.533 4.569c.771.77.944 1.954.426 2.941-.355.68-.272 1.674.576 2.257.559.385 1.348.389 1.913.013.496-.329.787-.855.798-1.441.016-.806.665-1.456 1.471-1.471.588-.012 1.113-.302 1.442-.798.376-.567.371-1.354-.014-1.914-.583-.849-1.576-.931-2.258-.575-.986.518-2.171.344-2.944-.431l-3.551-3.55c-.586-.586-.586-1.536 0-2.122s1.535-.585 2.121 0l3.296 3.295c2.063-.896 4.511-.207 5.81 1.685 1.075 1.567 1.092 3.685.04 5.27-.637.959-1.552 1.632-2.608 1.944-.047.159-.118.308-.181.46.578-.1 1.178-.101 1.784.022 1.866.377 3.353 1.886 3.698 3.755zm1.028-9.353c-.313-.293-.951 0-.951.5 0 1.308-.49 2.547-1.241 3.598 1.167.711 2.095 1.768 2.653 3.027.22.496.945.484 1.144-.02.291-.735.451-1.535.451-2.373 0-1.865-.792-3.546-2.056-4.731z"/></svg>