<svg id="Layer_1" viewBox="0 0 24 24" xmlns="http://www.w3.org/2000/svg" data-name="Layer 1"><path d="m16.764 18.057.53 1.404h-1.065zm7.236-1.057v4c0 1.657-1.343 3-3 3h-6c-1.657 0-3-1.343-3-3v-4c0-1.657 1.343-3 3-3h6c1.657 0 3 1.343 3 3zm-4.762 4.18-1.772-4.695c-.11-.291-.389-.484-.7-.484s-.589.192-.699.482l-1.787 4.691c-.152.398.142.825.568.825h-.001c.253 0 .48-.158.569-.394l.351-.931h1.983l.352.934c.089.236.315.393.568.393.424 0 .717-.424.568-.821zm2.261-4.562c0-.341-.277-.618-.618-.618s-.618.277-.618.618v4.764c0 .341.277.618.618.618s.618-.277.618-.618zm-10.499-15.118c0 .652-.419 1.201-1 1.408v16.592c0 2.481-2.019 4.5-4.5 4.5s-4.5-2.019-4.5-4.5v-16.592c-.581-.207-1-.756-1-1.408 0-.829.672-1.5 1.5-1.5h8c.828 0 1.5.671 1.5 1.5zm-4 1.5h-3v5h3zm0 16.5v-8.5h-3v8.5c0 .827.673 1.5 1.5 1.5s1.5-.673 1.5-1.5zm6.344-12.597.234-.132c-.1-.5-.1-1.043 0-1.543l-.234-.132c-.722-.407-.978-1.322-.57-2.043s1.325-.976 2.043-.57l.244.137c.42-.366.904-.653 1.44-.844v-.276c0-.829.672-1.5 1.5-1.5s1.5.671 1.5 1.5v.276c.535.191 1.019.478 1.44.844l.244-.137c.719-.407 1.636-.153 2.043.57.407.722.151 1.637-.57 2.043l-.234.132c.1.5.1 1.043 0 1.543l.234.132c.722.407.978 1.322.57 2.043-.409.728-1.335.973-2.043.57l-.244-.137c-.42.366-.904.653-1.44.844v.276c0 .829-.672 1.5-1.5 1.5s-1.5-.671-1.5-1.5v-.276c-.535-.191-1.019-.478-1.44-.844l-.244.137c-.708.404-1.634.159-2.043-.57-.407-.722-.151-1.637.57-2.043zm4.656.597c.827 0 1.5-.673 1.5-1.5s-.673-1.5-1.5-1.5-1.5.673-1.5 1.5.673 1.5 1.5 1.5z"/></svg>