<svg id="Layer_1" viewBox="0 0 24 24" xmlns="http://www.w3.org/2000/svg" data-name="Layer 1"><path d="m6 14c3.314 0 6-2.686 6-6s-2.686-6-6-6-6 2.686-6 6 2.686 6 6 6zm-1-9c0-.553.448-1 1-1s1 .447 1 1v2c0 .553-.448 1-1 1s-1-.447-1-1zm1 4c.828 0 1.5.672 1.5 1.5s-.672 1.5-1.5 1.5-1.5-.672-1.5-1.5.672-1.5 1.5-1.5zm18-.566v8.984c0 .728-.337 1.452-.967 1.816-.308.178-.644.265-.98.265-.412 0-.819-.132-1.165-.391l-1.947-1.846c-.374 2.671-2.668 4.736-5.441 4.736h-8c-3.033 0-5.5-2.468-5.5-5.5 0-.828.671-1.5 1.5-1.5s1.5.672 1.5 1.5c0 1.379 1.122 2.5 2.5 2.5h8c1.378 0 2.5-1.121 2.5-2.5v-7c0-.909-.494-1.747-1.29-2.188-.725-.402-.986-1.315-.584-2.04s1.315-.984 2.04-.584c1.529.848 2.551 2.364 2.784 4.067l1.939-1.877c.594-.445 1.374-.515 2.037-.183.663.331 1.075.998 1.075 1.739z"/></svg>