<svg id="Layer_1" viewBox="0 0 24 24" xmlns="http://www.w3.org/2000/svg" data-name="Layer 1"><path d="m7 16.5c0-.829.671-1.5 1.5-1.5h7c.829 0 1.5.671 1.5 1.5s-.671 1.5-1.5 1.5h-7c-.829 0-1.5-.671-1.5-1.5zm9.9-8.899c0-.442-.358-.8-.8-.8h-1.001v1.599h1.001c.442 0 .8-.358.8-.8zm-7 0c0-.442-.358-.8-.8-.8h-1.001v1.599h1.001c.442 0 .8-.358.8-.8zm-.327-3.24c0-.442-.358-.8-.8-.8h-.674v1.599h.674c.442 0 .8-.358.8-.8zm12.427.639v13.5c0 3.033-2.467 5.5-5.5 5.5h-9c-3.033 0-5.5-2.467-5.5-5.5v-13.5c0-2.761 2.239-5 5-5h10c2.761 0 5 2.239 5 5zm-8.5 4.2c0 .442.358.8.8.8h1.801c1.325 0 2.399-1.074 2.399-2.399v-.024c0-1.334-1.081-2.416-2.416-2.416h-.985v-1.361c0-.442-.358-.8-.8-.8s-.8.358-.8.8v5.4zm-7-.2c0 .552.448 1 1 1h1.49c1.186 0 2.274-.813 2.474-1.982.152-.886-.191-1.689-.786-2.212.297-.391.484-.871.495-1.397.027-1.347-1.221-2.447-2.569-2.447h-1.104c-.552 0-1 .448-1 1zm12.5 3h-14v6.5c0 1.378 1.122 2.5 2.5 2.5h9c1.378 0 2.5-1.122 2.5-2.5z"/></svg>