<?xml version="1.0" encoding="UTF-8"?>
<svg xmlns="http://www.w3.org/2000/svg" id="Layer_1" data-name="Layer 1" viewBox="0 0 24 24">
  <path d="M23.797,15.345c.416,.717,.172,1.635-.544,2.051-.682,.396-1.461,.604-2.253,.604-.984,0-1.978-.321-2.797-.903-.131-.093-.278-.092-.406,0-1.64,1.166-3.956,1.165-5.594,0-.131-.093-.278-.092-.406,0-1.64,1.166-3.956,1.165-5.594,0-.131-.093-.278-.092-.406,0-1.479,1.053-3.52,1.188-5.05,.3-.716-.416-.96-1.334-.544-2.051s1.334-.958,2.05-.545c.536,.312,1.263,.236,1.806-.148,1.161-.826,2.722-.827,3.883,0,.622,.441,1.494,.442,2.117,0,1.161-.826,2.722-.827,3.883,0,.622,.441,1.494,.442,2.117,0,1.161-.826,2.722-.827,3.883,0,.541,.384,1.269,.459,1.805,.147,.716-.415,1.634-.171,2.05,.545ZM13,6c1.657,0,3-1.343,3-3s-1.343-3-3-3-3,1.343-3,3,1.343,3,3,3Zm-9.898-.608c.068,.113,.151,.217,.247,.308l2.72,2.601-.757,2.215c-.268,.784,.15,1.637,.935,1.904,.763,.267,1.638-.143,1.904-.934l.703-2.056,3.416,.962-.204,.673c-.24,.793,.208,1.631,1,1.871,.771,.239,1.633-.2,1.871-1l.302-.995,3.934-.451c.145-.017,.286-.054,.42-.111l3.5-1.5c.762-.326,1.114-1.208,.788-1.97s-1.21-1.11-1.97-.788l-3.298,1.414-3.853,.441-6.646-1.873-2.547-2.435L3.783,.724C3.355,.016,2.433-.214,1.724,.217c-.709,.429-.936,1.351-.507,2.06l1.885,3.115Zm18.646,15.408c-.537,.312-1.264,.236-1.805-.147-1.161-.828-2.722-.827-3.883,0-.623,.443-1.495,.442-2.117,0-1.161-.828-2.722-.827-3.883,0-.623,.443-1.495,.442-2.117,0-1.161-.828-2.722-.827-3.883,0-.543,.385-1.27,.46-1.806,.148-.716-.413-1.634-.172-2.05,.545s-.172,1.635,.544,2.051c1.53,.888,3.571,.753,5.05-.3,.128-.09,.275-.092,.406,0,1.639,1.164,3.955,1.165,5.594,0,.128-.09,.275-.092,.406,0,1.639,1.164,3.955,1.165,5.594,0,.128-.09,.275-.092,.406,0,.819,.582,1.813,.903,2.797,.903,.792,0,1.571-.209,2.253-.604,.716-.416,.96-1.334,.544-2.051-.416-.716-1.334-.959-2.05-.545Z"/>
</svg>
