<svg id="Layer_1" viewBox="0 0 24 24" xmlns="http://www.w3.org/2000/svg" data-name="Layer 1"><path d="m0 12c0-1.105.895-2 2-2s2 .895 2 2-.895 2-2 2-2-.895-2-2zm18.5-9h-13.535c-1.958 0-3.783 1.053-4.763 2.749-.415.717-.169 1.635.547 2.049.718.415 1.635.169 2.049-.547.446-.771 1.276-1.251 2.167-1.251h13.535c1.378 0 2.5 1.122 2.5 2.5v7c0 1.379-1.122 2.5-2.5 2.5h-13.535c-.89 0-1.72-.479-2.167-1.251-.415-.717-1.333-.962-2.049-.548-.717.415-.962 1.333-.547 2.05.98 1.695 2.806 2.749 4.763 2.749h13.535c3.033 0 5.5-2.468 5.5-5.5v-7c0-3.033-2.467-5.5-5.5-5.5zm-4.8 6.6c.442 0 .8-.358.8-.8s-.358-.8-.8-.8h-1.7c-.552 0-1 .448-1 1v6c0 .552.448 1 1 1h1.7c.442 0 .8-.358.8-.8s-.358-.8-.8-.8h-1.101v-1.551h1.101c.442 0 .8-.358.8-.8s-.358-.8-.8-.8h-1.101v-1.65h1.101zm4.128 0c.299-.003.52.172.63.411.135.292.416.489.738.489.58 0 .97-.597.734-1.127-.359-.804-1.156-1.378-2.102-1.373-1.269 0-2.3 1.031-2.3 2.3v3.4c0 1.268 1.031 2.3 2.3 2.3.946.004 1.743-.57 2.102-1.373.236-.529-.154-1.127-.734-1.127-.322 0-.603.197-.738.489-.11.239-.331.414-.63.411-.386 0-.7-.314-.7-.7v-3.4c0-.386.314-.7.7-.7zm-8.883 2.933s.728 2.395.728 2.395c.162.533-.237 1.072-.794 1.072-.369 0-.694-.244-.797-.598l-.698-2.402h-.784v2.2c0 .442-.358.8-.8.8s-.8-.358-.8-.8v-6.2c0-.552.448-1 1-1h1.367c1.284 0 2.456.908 2.613 2.182.12.969-.32 1.841-1.035 2.35zm-.545-2.033c0-.496-.404-.9-.9-.9h-.9v1.8h.9c.496 0 .9-.404.9-.9z"/></svg>