<svg id="Layer_1" viewBox="0 0 24 24" xmlns="http://www.w3.org/2000/svg" data-name="Layer 1"><path d="m13 12c-1.105 0-2-.895-2-2s.895-2 2-2 2 .895 2 2-.895 2-2 2zm9.754 4.453-.902-.525c.413-1.065.648-2.219.648-3.428s-.23-2.366-.644-3.431l.898-.523c.716-.417.959-1.335.542-2.051-.417-.717-1.335-.958-2.051-.543l-.909.529c-1.443-1.755-3.496-2.991-5.837-3.364v-.618c0-.828-.671-1.5-1.5-1.5s-1.5.672-1.5 1.5v2c0 .828.671 1.5 1.5 1.5 3.584 0 6.5 2.916 6.5 6.5s-2.901 6.5-6.466 6.5c-3.603 0-6.534-2.916-6.534-6.5 0-.828-.671-1.5-1.5-1.5s-1.5.672-1.5 1.5c0 1.209.237 2.362.652 3.426l-.906.527c-.716.417-.959 1.335-.542 2.051.419.724 1.347.955 2.051.543l.909-.529c1.441 1.749 3.499 2.968 5.836 3.347v.635c0 .828.671 1.5 1.5 1.5s1.5-.672 1.5-1.5v-.626c2.342-.368 4.405-1.59 5.847-3.35l.899.523c.704.412 1.632.181 2.051-.543.417-.716.174-1.634-.542-2.051zm-19.254-8.453c-1.657 0-3-1.344-3-3v-1.999c0-1.658 1.344-3.001 3.001-3.001h2.999c1.65.002 2.999 1.352 2.999 3.002l-.002 5.772c0 .638-.524 1.088-1.089 1.088-.196 0-.397-.054-.583-.173l-2.454-1.69h-1.872zm0-3h3v-2h-3zm9.5 12c1.179 0 2.25-.436 3.081-1.148.302-.259.378-.703.168-1.042-.675-1.086-1.876-1.81-3.249-1.81s-2.574.724-3.249 1.81c-.21.339-.135.782.168 1.042.831.712 1.902 1.148 3.081 1.148z"/></svg>