<svg id="Layer_1" viewBox="0 0 24 24" xmlns="http://www.w3.org/2000/svg" data-name="Layer 1"><path d="m24 11.5c0 .829-.671 1.5-1.5 1.5h-4c-.276 0-.5.224-.5.5v2.5h.5c1.378 0 2.5 1.122 2.5 2.5s-1.122 2.5-2.5 2.5h-.5v1.5c0 .829-.671 1.5-1.5 1.5s-1.5-.671-1.5-1.5v-1.5h-3v1.5c0 .829-.671 1.5-1.5 1.5s-1.5-.671-1.5-1.5v-1.5h-3v1.5c0 .829-.671 1.5-1.5 1.5s-1.5-.671-1.5-1.5v-1.5h-.5c-1.378 0-2.5-1.122-2.5-2.5s1.122-2.5 2.5-2.5h.5v-10.5c0-3.033 2.467-5.5 5.5-5.5h6c.829 0 1.5.671 1.5 1.5s-.671 1.5-1.5 1.5h-6c-1.378 0-2.5 1.122-2.5 2.5v10.5h3v-6.5c0-2.481 2.019-4.5 4.5-4.5h5c.829 0 1.5.671 1.5 1.5s-.671 1.5-1.5 1.5h-5c-.827 0-1.5.673-1.5 1.5v6.5h3v-2.5c0-1.93 1.57-3.5 3.5-3.5h4c.829 0 1.5.671 1.5 1.5z"/></svg>