<svg id="Layer_1" viewBox="0 0 24 24" xmlns="http://www.w3.org/2000/svg" data-name="Layer 1"><path d="m11.939 9.016c-.661-.662-1.539-1.026-2.475-1.026h-3.319c-.922 0-1.79.354-2.447.999l-2.671 2.45c-1.364 1.365-1.364 3.585-.032 4.917l6.227 6.618c.685.686 1.587 1.027 2.484 1.027.887 0 1.771-.334 2.436-1l4.331-4.111c.661-.661 1.025-1.54 1.025-2.475s-.364-1.814-.982-2.43zm2.442 7.725-4.331 4.111c-.196.194-.513.194-.676.033l-6.227-6.617c-.191-.192-.191-.516-.047-.662l2.585-2.37 1.47 1.471c.467.467 1.224.467 1.692 0l1.256-1.257 4.249 4.612c.203.259.199.43.028.68zm9.617-11.133c-.002-1.357-.914-2.543-2.224-2.894l-9.851-2.636c-1.294-.334-2.61.454-2.928 1.752l-.143.585c-.156.635.228 1.278.861 1.441l.288.075v1.07c0 .552.448 1 1 1h6.997v2h-4.498l1.999 2h5.503c1.658 0 3.001-1.346 2.999-3.004l-.002-1.388zm-3.002 2.393c-.552 0-1-.448-1-1s.448-1 1-1 1 .448 1 1-.448 1-1 1z"/></svg>