<svg id="Layer_1" viewBox="0 0 24 24" xmlns="http://www.w3.org/2000/svg" data-name="Layer 1"><path d="m10 14.5v2.5c0 .829-.671 1.5-1.5 1.5s-1.5-.671-1.5-1.5v-2h-2.5c-.827 0-1.5.673-1.5 1.5v3c0 .827.673 1.5 1.5 1.5h2c.829 0 1.5.671 1.5 1.5s-.671 1.5-1.5 1.5h-2c-2.481 0-4.5-2.019-4.5-4.5v-3c0-2.481 2.018-4.5 4.5-4.5h3.26c.809-1.205 2.183-2 3.74-2h3.257c.822-1.228 2.22-2 3.743-2h1c2.481 0 4.5 2.019 4.5 4.5 0 .829-.672 1.5-1.5 1.5s-1.5-.671-1.5-1.5-.673-1.5-1.5-1.5h-1c-.636 0-1.204.402-1.416 1-.212.599-.778 1-1.414 1h-4.17c-.827 0-1.5.673-1.5 1.5zm11 1.741v-.741c0-.828-.672-1.5-1.5-1.5s-1.5.672-1.5 1.5v.5h-2v-.5c0-.828-.672-1.5-1.5-1.5s-1.5.672-1.5 1.5v.741c-1.631.591-1.888 2.1-2 2.463-.747 2.423-1 3.455-1 4.058 0 .682.5 1.238 1.238 1.238.951 0 2.262-1 3.147-1.885s1.694-1.115 2.615-1.115 1.731.231 2.615 1.115 2.196 1.885 3.147 1.885c.738 0 1.238-.5 1.238-1.238 0-.603-.253-1.635-1-4.058-.112-.363-.369-1.872-2-2.463zm-5.288-12.999 1.429 1.163-.565 1.813c-.077.243.008.508.213.662.204.153.484.16.695.018l1.627-1.089 1.655 1.078c.214.139.492.128.695-.028s.284-.423.204-.665l-.588-1.792 1.422-1.159c.193-.163.264-.429.178-.666s-.312-.395-.564-.395h-1.804l-.638-1.791c-.087-.235-.418-.391-.67-.391s-.37.156-.457.391l-.638 1.791h-1.804c-.252 0-.478.158-.564.394-.087.236-.017.502.175.665zm-7.607 2 1.429 1.163-.565 1.813c-.077.243.008.508.213.662.204.153.484.16.695.018l1.627-1.089 1.655 1.078c.214.139.492.128.695-.028s.284-.423.204-.665l-.588-1.792 1.422-1.159c.193-.163.264-.429.178-.666s-.312-.395-.564-.395h-1.804l-.638-1.791c-.087-.235-.312-.391-.563-.391s-.476.156-.564.391l-.638 1.791h-1.804c-.252 0-.478.158-.564.394-.087.236-.017.502.175.665zm-7.5 2 1.429 1.163-.565 1.813c-.077.243.008.508.213.662.204.153.484.16.695.018l1.627-1.089 1.655 1.078c.214.139.492.128.695-.028s.284-.423.204-.665l-.588-1.792 1.422-1.159c.193-.163.264-.429.178-.666s-.312-.395-.564-.395h-1.804l-.638-1.791c-.087-.235-.312-.391-.563-.391s-.476.156-.564.391l-.638 1.791h-1.805c-.252 0-.478.158-.564.394-.087.236-.017.502.175.665z"/></svg>