<svg id="Layer_1" viewBox="0 0 24 24" xmlns="http://www.w3.org/2000/svg" data-name="Layer 1"><path d="m10 18.5c0 .828-.672 1.5-1.5 1.5h-3c-3.032 0-5.5-2.468-5.5-5.5v-9c0-3.032 2.468-5.5 5.5-5.5h13c3.032 0 5.5 2.468 5.5 5.5 0 .828-.672 1.5-1.5 1.5-.749 0-1.364-.551-1.477-1.268-1.283-.448-2.293-1.452-2.748-2.732h-12.551c-.452 1.272-1.452 2.272-2.724 2.724v8.551c1.272.452 2.272 1.452 2.724 2.724h2.776c.828 0 1.5.672 1.5 1.5zm14-4c0 2.3-1.198 4.316-3 5.471v3.024c0 .857-1.005 1.319-1.655.761l-1.845-1.581-1.845 1.581c-.65.558-1.655.095-1.655-.761v-3.024c-1.802-1.155-3-3.172-3-5.471 0-3.59 2.91-6.5 6.5-6.5s6.5 2.91 6.5 6.5zm-2.5 1.897c.01-1.297-.916-2.397-2.193-2.61l-3.261-.544c-.289-.048-.523-.281-.544-.574-.026-.365.263-.67.622-.67h2.376c.367 0 .689.199.862.494.182.31.509.506.869.506.763 0 1.253-.825.874-1.487-.518-.903-1.491-1.513-2.605-1.513 0-.552-.448-1-1-1s-1 .448-1 1h-.315c-1.451 0-2.673 1.152-2.685 2.603-.01 1.297.915 2.397 2.192 2.61l3.286.548c.315.052.54.331.52.655-.02.334-.315.585-.649.585h-2.35c-.367 0-.688-.199-.862-.494-.182-.31-.509-.506-.869-.506-.763 0-1.253.825-.874 1.487.518.903 1.491 1.513 2.605 1.513 0 .552.448 1 1 1s1-.448 1-1h.315c1.451 0 2.673-1.152 2.685-2.603zm-14.5-2.397h1c.828 0 1.5-.672 1.5-1.5s-.672-1.5-1.5-1.5h-1c-.828 0-1.5.672-1.5 1.5s.672 1.5 1.5 1.5zm5-6.5c0-.828-.672-1.5-1.5-1.5h-3c-.828 0-1.5.672-1.5 1.5s.672 1.5 1.5 1.5h3c.828 0 1.5-.672 1.5-1.5z"/></svg>