<svg id="Layer_1" viewBox="0 0 24 24" xmlns="http://www.w3.org/2000/svg" data-name="Layer 1"><path d="m18 17.704c.746 2.424 1 4.455 1 5.058 0 .683-.556 1.238-1.238 1.238-.951 0-2.531-1.442-3.456-2.793-.52-.76-1.385-1.207-2.306-1.207s-1.786.447-2.306 1.207c-.924 1.351-2.505 2.793-3.456 2.793-.683 0-1.238-.556-1.238-1.238 0-.603.253-2.635 1-5.058.112-.363.369-1.872 2-2.463v-.741c0-.828.672-1.5 1.5-1.5s1.5.672 1.5 1.5v.5h2v-.5c0-.828.672-1.5 1.5-1.5s1.5.672 1.5 1.5v.741c1.631.591 1.888 2.099 2 2.463zm-.188-12.781c-.149-.03-.265-.116-.325-.242-1.585-3.345-5.254-5.21-8.929-4.54-3.349.612-5.975 3.286-6.533 6.652-.165.993-.154 1.985.034 2.952.02.103-.046.248-.161.353-1.206 1.097-1.897 2.66-1.897 4.289 0 1.298.475 2.595 1.338 3.651.526.643 1.473.734 2.11.213.642-.524.737-1.47.213-2.111-.426-.521-.661-1.145-.661-1.753 0-.798.325-1.533.916-2.069.891-.81 1.308-2.015 1.088-3.145-.119-.613-.126-1.249-.02-1.888.347-2.09 2.038-3.813 4.114-4.193 2.371-.436 4.656.719 5.678 2.875.469.988 1.36 1.68 2.447 1.897 2.188.437 3.777 2.377 3.777 4.613 0 1.065-.401 2.167-1.128 3.101-.509.653-.393 1.596.261 2.104.653.51 1.595.394 2.105-.261 1.136-1.457 1.762-3.214 1.762-4.944 0-3.663-2.604-6.84-6.188-7.555z"/></svg>