<svg id="Layer_1" viewBox="0 0 24 24" xmlns="http://www.w3.org/2000/svg" data-name="Layer 1"><path d="m5.5 10c1.933 0 3.5 1.567 3.5 3.5s-1.567 3.5-3.5 3.5-3.5-1.567-3.5-3.5 1.567-3.5 3.5-3.5zm-.002 9c-2.142 0-4.146 1.004-5.231 2.62-.461.688-.278 1.62.41 2.082.686.461 1.619.279 2.082-.41.535-.796 1.584-1.292 2.74-1.292s2.236.517 2.757 1.318c.454.7 1.391.888 2.075.439.694-.452.891-1.381.439-2.075-1.076-1.654-3.096-2.682-5.272-2.682zm18.274 2.682c-1.076-1.654-3.096-2.682-5.272-2.682-2.142 0-4.146 1.004-5.231 2.62-.461.688-.278 1.62.41 2.082.688.461 1.62.279 2.082-.41.535-.796 1.584-1.292 2.74-1.292s2.236.517 2.757 1.318c.454.7 1.391.888 2.075.439.694-.452.891-1.381.439-2.075zm-20.426-13.434c.61.61 1.653.178 1.653-.685v-1.563h14.001v1.563c0 .863 1.043 1.295 1.653.685l3.063-3.063c.378-.378.378-.991 0-1.369l-3.063-3.063c-.61-.61-1.653-.178-1.653.685v1.563h-14.001v-1.564c0-.863-1.043-1.295-1.653-.685l-3.063 3.063c-.378.378-.378.991 0 1.369l3.063 3.063zm15.154 1.752c-1.868 0-3.486 1.435-3.776 3.342l-.636 3.478c-.109.596.482 1.094 1.041.859 1.044-.438 2.192-.679 3.37-.679s2.326.241 3.368.678c.559.235 1.15-.262 1.042-.859l-.634-3.478c-.29-1.908-1.908-3.342-3.776-3.342z"/></svg>