<svg id="Layer_1" viewBox="0 0 24 24" xmlns="http://www.w3.org/2000/svg" data-name="Layer 1"><path d="m16.479 14.151-.772.579.278.154c.346.192.472.626.282.973l-.135.248c-.191.35-.631.478-.98.285l-.27-.149-.028.05c-.209.383-.691.52-1.071.305l-1.562-.902-.085.254c-.409 1.227-1.552 2.051-2.846 2.051h-1.292c-.552 0-1-.447-1-1s.448-1 1-1h1.292c.431 0 .812-.274.948-.684l.214-.642-1.68-.97c-.737-.422-.993-1.361-.572-2.098l.474-.83c.421-.736 1.358-.993 2.095-.574l5.66 3.242c.267.15.292.525.047.708zm6.968 6.618c-.775 1.393-2.188 2.224-3.781 2.224h-15.332c-1.593 0-3.006-.831-3.78-2.222-.773-1.392-.733-3.028.107-4.379l7.635-13.3c.833-1.342 2.173-2.086 3.704-2.086s2.834.724 3.653 2.039l7.712 13.389c.813 1.31.853 2.945.082 4.334zm-2.655-2.795-7.71-13.387c-.244-.389-.586-.582-1.082-.582s-.869.204-1.131.625l-7.635 13.3c-.287.465-.299.953-.059 1.385.247.445.648.68 1.159.68h15.333c.496 0 .918-.249 1.16-.683.239-.429.226-.918-.034-1.338z"/></svg>