<svg id="Layer_1" viewBox="0 0 24 24" xmlns="http://www.w3.org/2000/svg" data-name="Layer 1"><path d="m18.5 5h-1.5v-1.5c0-1.93-1.57-3.5-3.5-3.5h-3c-1.93 0-3.5 1.57-3.5 3.5v1.5h-1.5c-3.033 0-5.5 2.467-5.5 5.5v8c0 3.033 2.467 5.5 5.5 5.5h13c3.033 0 5.5-2.467 5.5-5.5v-8c0-3.033-2.467-5.5-5.5-5.5zm-8.5-1.5c0-.276.224-.5.5-.5h3c.276 0 .5.224.5.5v1.5h-4zm11 15c0 1.378-1.122 2.5-2.5 2.5h-13c-1.378 0-2.5-1.122-2.5-2.5v-8c0-1.378 1.122-2.5 2.5-2.5h13c1.378 0 2.5 1.122 2.5 2.5zm-9-9.5c-3.038 0-5.5 2.462-5.5 5.5s2.462 5.5 5.5 5.5 5.5-2.462 5.5-5.5-2.462-5.5-5.5-5.5zm2.5 6.5h-1.5v1.5c0 .552-.448 1-1 1s-1-.448-1-1v-1.5h-1.5c-.552 0-1-.448-1-1s.448-1 1-1h1.5v-1.5c0-.552.448-1 1-1s1 .448 1 1v1.5h1.5c.552 0 1 .448 1 1s-.448 1-1 1z"/></svg>