<svg id="Layer_1" viewBox="0 0 24 24" xmlns="http://www.w3.org/2000/svg" data-name="Layer 1"><path d="m9.338 19.75 1.62 1.299c-.713.586-1.599.927-2.53.927h-.929c-.276 0-.5-.224-.5-.5v-.929c0-1.016.395-1.986 1.087-2.725.204.726.622 1.404 1.251 1.928zm3.577-4.329c-.771-.643-1.917-.538-2.56.233s-.538 1.917.233 2.56l3.036 2.434c.237.19.375.477.375.78v1.072c0 .828.671 1.5 1.5 1.5s1.5-.672 1.5-1.5v-1.86c0-1.206-.544-2.347-1.48-3.107zm7.94-4.485c.322-.844.102-1.848-.662-2.473-.883-.723-2.199-.568-3.006.239l-4.419 4.419c.504.138.988.375 1.415.728l2.223 1.804 2.447-2.447c1.325.816 2.145 2.259 2.145 3.824v5.47c0 .829.671 1.5 1.5 1.5s1.5-.671 1.5-1.5v-5.47c0-2.436-1.19-4.697-3.144-6.094zm-9.391.064h-7.846l-.703 1.998c-.273.789-1.152 1.191-1.913.917-.782-.275-1.192-1.131-.917-1.913l3.33-9.467c.547-1.542 1.954-2.535 3.585-2.535s3.038.993 3.583 2.53l2.295 6.468c.163.459.093.969-.188 1.367s-.738.635-1.225.635zm-2.124-3-1.584-4.466c-.171-.481-.586-.534-.756-.534s-.585.052-.756.534l-1.571 4.466h4.668z"/></svg>