<svg id="Layer_1" viewBox="0 0 24 24" xmlns="http://www.w3.org/2000/svg" data-name="Layer 1"><path d="m20.889 1.238c-1.399-.822-3.044-1.238-4.889-1.238h-8c-1.845 0-3.489.417-4.889 1.239-1.919 1.128-3.111 3.254-3.111 5.549v5.712c0 1.93 1.57 3.5 3.5 3.5h1.5v3.5c0 2.481 2.019 4.5 4.5 4.5h5c2.481 0 4.5-2.019 4.5-4.5v-3.5h1.5c1.93 0 3.5-1.57 3.5-3.5v-5.712c0-2.295-1.192-4.421-3.111-5.55zm-4.889 18.262c0 .827-.673 1.5-1.5 1.5h-1v-3.5c0-.829-.672-1.5-1.5-1.5s-1.5.671-1.5 1.5v3.5h-1c-.827 0-1.5-.673-1.5-1.5v-5.5h8zm5-7c0 .276-.225.5-.5.5h-1.5v-4.5c0-.829-.672-1.5-1.5-1.5s-1.5.671-1.5 1.5v2.5h-8v-2.5c0-.829-.672-1.5-1.5-1.5s-1.5.671-1.5 1.5v4.5h-1.5c-.275 0-.5-.224-.5-.5v-5.712c0-1.236.625-2.372 1.631-2.963.928-.544 2.055-.821 3.349-.824.165.628.355 1.295.528 1.81.229.679 1.07.912 1.614.445l1.878-1.828 1.878 1.828c.544.466 1.386.234 1.614-.445.173-.515.363-1.182.528-1.81 1.294.003 2.421.28 3.349.824 1.006.592 1.631 1.727 1.631 2.963z"/></svg>