<svg id="Layer_1" viewBox="0 0 24 24" xmlns="http://www.w3.org/2000/svg" data-name="Layer 1"><path d="m4.524 11.231c.106-.583 1.039-5.703 1.106-6.033.612-3.01 3.291-5.198 6.37-5.198 3.122 0 5.808 2.224 6.387 5.288.034.181.798 4.288 1.091 5.953.144.816-.401 1.594-1.218 1.737-.796.146-1.598-.397-1.737-1.218-.291-1.654-1.049-5.735-1.083-5.915-.185-.977-.774-1.788-1.568-2.292-1.176 1.486-2.976 2.39-4.871 2.444v.003c0 1.654 1.346 3 3 3 .116 0 .231-.006.345-.02.808-.093 1.566.495 1.662 1.318.143 1.157-.962 1.817-2.007 1.702h-2.697c-.882 0-1.736.259-2.471.749-.502.333-1.153.335-1.656.005s-.76-.93-.651-1.522zm11.476 3.294v3.659c1.161.414 2 1.514 2 2.816v1c0 .553-.447 1-1 1s-1-.447-1-1v-1c0-.552-.448-1-1-1s-1 .448-1 1v1c0 .553-.447 1-1 1s-1-.447-1-1v-1c0-1.302.839-2.402 2-2.816v-4.125c-.329-.037-.662-.059-1-.059h-2c-.688 0-1.356.085-2 .232v4.046c.595.346 1 .984 1 1.723 0 1.105-.895 2-2 2s-2-.895-2-2c0-.738.405-1.376 1-1.723v-3.328c-2.958 1.476-5 4.526-5 8.05 0 .553.447 1 1 1h18c.553 0 1-.447 1-1 0-3.91-2.51-7.236-6-8.475z"/></svg>