<svg id="Layer_1" viewBox="0 0 24 24" xmlns="http://www.w3.org/2000/svg" data-name="Layer 1"><path d="m.526 6.886c-.586-.585-.586-1.536 0-2.121.586-.586 1.535-.586 2.121 0l4.683 4.726c.581.586.579 1.532-.005 2.116-.588.588-1.541.585-2.126-.005zm7.827 1.563c.585.59 1.538.592 2.126.005.584-.584.586-1.53.005-2.116l-4.863-4.906c-.586-.586-1.535-.586-2.121 0-.586.585-.586 1.536 0 2.121l4.853 4.897zm-.353 5.051c0 .828.672 1.5 1.5 1.5s1.5-.672 1.5-1.5-.672-1.5-1.5-1.5-1.5.672-1.5 1.5zm3.575 5.411c-.876-.173-1.694-.6-2.343-1.248l-6.667-6.72c-.272-.273-.648-.443-1.064-.443-.828 0-1.5.672-1.5 1.5 0 .412.167.785.436 1.056s6.671 6.724 6.671 6.724c1.171 1.171 2.67 1.901 4.261 2.13 1.061.152 2.055.552 2.885 1.472.354.433.809.619 1.297.619 1.259 0 2.019-1.462.923-2.558-1.356-1.356-3.016-2.16-4.898-2.531zm8.864 2.528c-.586.586-.586 1.536 0 2.121.586.586 1.536.586 2.121 0 .586-.586.586-1.536 0-2.121s-1.536-.586-2.121 0zm3.123-5.627-.787-.79c-.537-.539-.822-1.278-.782-2.037.004-.085.007-8.001.007-8.001 0-1.215-1.083-2.177-2.336-1.973-.983.16-1.664 1.083-1.664 2.08v2.476l-7.194-7.132c-.271-.268-.644-.435-1.056-.435-.828 0-1.5.672-1.5 1.5 0 .417.17.793.444 1.065s8.812 8.739 8.812 8.739c.44.44.731.982.857 1.567.316 1.467.897 2.863 1.954 3.929.612.617 1.121 1.13 1.121 1.13.944.947 2.562.279 2.562-1.059 0-.397-.157-.778-.438-1.059zm-7.501-2.373c0-.828-.672-1.5-1.5-1.5s-1.5.672-1.5 1.5.672 1.5 1.5 1.5 1.5-.672 1.5-1.5zm1.439 3.561c-.828 0-1.5.672-1.5 1.5s.672 1.5 1.5 1.5 1.5-.672 1.5-1.5-.672-1.5-1.5-1.5z"/></svg>