<svg id="Layer_1" viewBox="0 0 24 24" xmlns="http://www.w3.org/2000/svg" data-name="Layer 1"><path d="m7.5 8c.828 0 1.5.672 1.5 1.5s-.672 1.5-1.5 1.5-1.5-.672-1.5-1.5.672-1.5 1.5-1.5zm5.5 1.5c0 .828.672 1.5 1.5 1.5s1.5-.672 1.5-1.5-.672-1.5-1.5-1.5-1.5.672-1.5 1.5zm-3.943 9.607c-2.668-1.067-4.385-2.765-5.356-4.001-.452-.575-.701-1.322-.701-2.103v-1.504c0-.624.167-1.238.485-1.777l.35-.595c.471-.8.462-1.787-.024-2.576-.642-1.039-.811-1.688-.811-1.885 0-.919.748-1.667 1.667-1.667.424 0 .86.221 1.195.604.682.782 1.726 1.087 2.663.776 1.514-.506 3.437-.506 4.952 0 .934.312 1.979.007 2.661-.775.336-.385.772-.605 1.196-.605.919 0 1.667.748 1.667 1.659-.004.402-.147 1.367-.561 1.78-.586.586-.586 1.535 0 2.121s1.535.586 2.121 0c1.399-1.398 1.439-3.643 1.439-3.894 0-2.573-2.093-4.667-4.667-4.667-1.201 0-2.375.516-3.263 1.424-1.928-.562-4.215-.562-6.141 0-.888-.908-2.062-1.424-3.263-1.424-2.573.002-4.666 2.096-4.666 4.669 0 .882.37 1.956 1.099 3.196l-.198.337c-.589.999-.9 2.14-.9 3.3v1.504c0 1.45.477 2.854 1.342 3.956 1.197 1.524 3.314 3.618 6.601 4.933.749.305 1.643-.059 1.95-.835.308-.77-.066-1.643-.835-1.95zm14.943-1.607c0 3.59-2.91 6.5-6.5 6.5s-6.5-2.91-6.5-6.5c0-1.147.299-2.222.82-3.157-.24.096-.513.157-.82.157-1.289 0-2-1.025-2-1.55s.711-.95 2-.95c1.191 0 1.882.365 1.98.835 1.17-1.134 2.762-1.835 4.52-1.835 3.59 0 6.5 2.91 6.5 6.5zm-3.437-.499h-1.563v-2.501c0-.828-.671-1.5-1.5-1.5s-1.5.672-1.5 1.5v2.501h-1.563c-.863 0-1.295 1.043-.685 1.653l3.063 3.063c.378.378.991.378 1.369 0l3.063-3.063c.61-.61.178-1.653-.685-1.653z"/></svg>