<svg id="Layer_1" viewBox="0 0 24 24" xmlns="http://www.w3.org/2000/svg" data-name="Layer 1"><path d="m12 6c0-3.314-2.686-6-6-6s-6 2.686-6 6 2.686 6 6 6 6-2.686 6-6zm-9.5-2.75c0-.69.56-1.25 1.25-1.25s1.25.56 1.25 1.25-.56 1.25-1.25 1.25-1.25-.56-1.25-1.25zm1.959 6.403c-.252.367-.753.455-1.112.206-.364-.25-.457-.749-.206-1.112l4.4-6.4c.251-.364.75-.456 1.112-.206.364.25.457.749.206 1.112zm3.791.347c-.69 0-1.25-.56-1.25-1.25s.56-1.25 1.25-1.25 1.25.56 1.25 1.25-.56 1.25-1.25 1.25zm15.197 2.269s-5.955 10.512-5.975 10.542c-.51.766-1.296 1.188-2.101 1.189-.329 0-.661-.071-.978-.218-1.15-.532-1.712-1.874-1.335-3.191l1.057-4.589-3.616-.002c-.829 0-1.5-.672-1.499-1.501 0-.828.672-1.499 1.5-1.499l5.5.003c.457 0 .889.209 1.173.566.284.358.39.826.287 1.271l-.743 3.223s4.186-7.388 4.208-7.421c.175-.317.022-.606-.338-.639h-3.088c-.494 0-.957-.244-1.237-.651-.28-.408-.341-.927-.163-1.388l1.901-4.938-3.503-.026c-.829 0-1.5-.673-1.499-1.501.003-.829.674-1.499 1.502-1.499h.001l3.472.003c.991 0 1.921.487 2.486 1.302.565.816.695 1.857.346 2.786l-1.121 2.912h.903c1.265 0 2.419.694 3.012 1.812.582 1.098.522 2.414-.152 3.453z"/></svg>