<svg id="Layer_1" viewBox="0 0 24 24" xmlns="http://www.w3.org/2000/svg" data-name="Layer 1"><path d="m21.5 16h-1.7c-.442 0-.8.358-.8.8v6.4c0 .442.358.8.8.8.442 0 .8-.358.8-.8v-2.2h.922c1.375 0 2.492-1.125 2.478-2.5 0-1.381-1.119-2.5-2.5-2.5zm0 3.4h-.9v-1.8h.9c.496 0 .9.404.9.9s-.404.9-.9.9zm-11-3.4h-1.7c-.442 0-.8.358-.8.8v6.4c0 .442.358.8.8.8.442 0 .8-.358.8-.8v-2.2h.922c1.375 0 2.492-1.125 2.478-2.5 0-1.381-1.119-2.5-2.5-2.5zm0 3.4h-.9v-1.8h.9c.496 0 .9.404.9.9s-.404.9-.9.9zm5.2-3.4c-1.269 0-2.3 1.031-2.3 2.3v3.4c0 1.269 1.031 2.3 2.3 2.3s2.3-1.031 2.3-2.3v-3.4c0-1.269-1.031-2.3-2.3-2.3zm.7 5.7c0 .386-.314.7-.7.7s-.7-.314-.7-.7v-3.4c0-.386.314-.7.7-.7s.7.314.7.7zm-11.732-4.633-.92 2.959.915 2.903c.167.53-.229 1.07-.785 1.07-.368 0-.691-.244-.792-.598l-.798-2.804-.688.002v2.6c0 .442-.358.8-.8.8-.442.001-.8-.357-.8-.799v-6.4c0-.442.358-.8.8-.8.442 0 .8.358.8.8v2.2h.784l.7-2.407c.102-.351.424-.593.79-.593h.008c.555 0 .951.538.786 1.067zm2.332 2.933c0 .442-.358.8-.8.8h-.4c-.442 0-.8-.358-.8-.8s.358-.8.8-.8h.4c.442 0 .8.358.8.8zm5.46-10h3.04c.828 0 1.5-.672 1.5-1.5s-.672-1.5-1.5-1.5h-1.59c.055-.326.09-.659.09-1s-.035-.674-.09-1h6.09c.475 0 .887.336.98.798.144.712.77 1.202 1.468 1.202.1 0 .199-.01.3-.03.812-.164 1.337-.956 1.172-1.768-.376-1.855-2.024-3.202-3.92-3.202h-7.54c-1.099-1.224-2.688-2-4.46-2h-2c-3.309 0-6 2.691-6 6s2.691 6 6 6h2c1.771 0 3.36-.776 4.46-2zm-1.46-4c0 1.483-1.084 2.71-2.5 2.949v-5.898c1.416.24 2.5 1.466 2.5 2.949zm-8 0c0-1.483 1.084-2.71 2.5-2.949v5.899c-1.416-.24-2.5-1.466-2.5-2.949zm21 5.5c0 .459-.312.859-.757.97l-1.418.354-.354 1.418c-.111.445-.511.757-.97.757s-.859-.312-.97-.757l-.357-1.43-1.432-.385c-.443-.119-.748-.525-.74-.984.008-.458.328-.853.775-.956l1.404-.325.351-1.406c.111-.445.511-.757.97-.757s.859.312.97.757l.354 1.418 1.418.354c.445.111.757.511.757.97zm-10.5 4.5c-.328 0-.613-.223-.693-.541l-.255-1.021-1.023-.275c-.317-.085-.534-.375-.529-.703.006-.328.234-.609.553-.683l1.003-.232.251-1.004c.08-.318.365-.541.693-.541s.613.223.693.541l.253 1.013 1.013.253c.318.08.541.365.541.693s-.223.613-.541.693l-1.013.253-.253 1.013c-.08.318-.365.541-.693.541z"/></svg>