<svg id="Layer_1" viewBox="0 0 24 24" xmlns="http://www.w3.org/2000/svg" data-name="Layer 1"><path d="m23 10.5c0-4.136-3.364-7.5-7.5-7.5h-5c-1.177 0-2.272-.806-2.547-1.874-.206-.802-1.024-1.286-1.827-1.079s-1.286 1.024-1.079 1.826c.491 1.908 2.049 3.398 3.952 3.922l-.004 8.204c0 .558-.229 1.295-1.996 2.082-2.329.662-4.004 2.921-4.002 5.427l.002.995c.002.827.673 1.496 1.5 1.496h.004c.828-.002 1.498-.675 1.496-1.504l-.002-.993c0-.631.235-1.234.613-1.704 2.323 1.312 4.588 2.201 8.889 2.201 4.133 0 7.496-3.364 7.496-7.497 0-.03.004-4.003.004-4.003zm-3.034-.338c-.438-.095-.919-.162-1.466-.162-1.277 0-2.145.332-2.843.599-.608.233-1.047.401-1.77.401-.782 0-1.439-.206-1.89-.398l.002-4.602h3.501c2.366 0 4.29 1.841 4.466 4.162zm-4.466 8.838c-2.641 0-4.304-.364-5.795-1.003 1.601-1.093 2.357-2.522 2.291-4.242.558.142 1.188.245 1.891.245 1.277 0 2.145-.332 2.843-.599.608-.233 1.047-.401 1.77-.401.68 0 1.175.154 1.497.301v1.2c-.001 2.48-2.018 4.499-4.497 4.499zm-12.922-7.358-1.156-3.884c-.093-.317.026-.658.297-.847l1.135-.795c.363-.254.868-.075.988.352l.563 2.374 1.654-1.159c.391-.274.929-.002.941.475v4.844c-.005.151-.073.294-.189.392-.294.249-.747.113-.856-.256l-.856-2.365-1.591 1.179c-.335.235-.801.079-.929-.309z"/></svg>