<svg id="Layer_1" viewBox="0 0 24 24" xmlns="http://www.w3.org/2000/svg" data-name="Layer 1"><path d="m24 19.5c0 2.481-2.019 4.5-4.5 4.5s-4.5-2.019-4.5-4.5c0-1.533.586-2.846 1.206-4.235.841-1.885 1.794-4.021 1.794-7.572 0-.444.196-.865.537-1.15.96-.804 2.042-1.718 2.191-1.856.168-.168.271-.419.271-.687s-.104-.518-.293-.707c-.391-.391-1.023-.39-1.414 0-.389.397-3.258 3.856-6.802 8.163.038-.039 1.042-.875 1.493-1.244.729-.598 1.662.056 1.58.996-.055.634-.123 1.408-.793 2.213-.085.138-.188.267-.321.376-5.404 4.423-11.995 9.861-11.996 9.862-.278.229-.617.343-.954.343-.384 0-.767-.147-1.059-.437-.547-.544-.592-1.415-.104-2.012 1.245-1.524 9.948-12.176 14.349-17.461-1.387-.497-3.754-1.09-7.188-1.09-1.928 0-4.394.458-5.691.73-.81.171-1.604-.351-1.774-1.161s.349-1.606 1.159-1.776c1.725-.363 4.219-.795 6.309-.795 4.692 0 7.724 1.005 9.223 1.674.215-.248.373-.427.449-.502 1.512-1.511 4.145-1.511 5.656 0 .756.755 1.172 1.76 1.172 2.828s-.416 2.073-1.172 2.829c-.047.046-.181.181-1.84 1.573-.124 3.785-1.226 6.254-2.043 8.085-.528 1.184-.945 2.119-.945 3.013 0 .827.673 1.5 1.5 1.5s1.5-.673 1.5-1.5.672-1.5 1.5-1.5 1.5.671 1.5 1.5z"/></svg>