<svg id="Layer_1" viewBox="0 0 24 24" xmlns="http://www.w3.org/2000/svg" data-name="Layer 1"><path d="m6.5 16c-.384 0-.768-.146-1.061-.439l-1.439-1.439-1.439 1.439c-.586.586-1.535.586-2.121 0s-.586-1.535 0-2.121l1.439-1.439-1.439-1.439c-.586-.585-.586-1.536 0-2.121.586-.586 1.535-.586 2.121 0l1.439 1.439 1.439-1.439c.586-.586 1.535-.586 2.121 0 .586.585.586 1.536 0 2.121l-1.439 1.439 1.439 1.439c.586.586.586 1.535 0 2.121-.293.293-.677.439-1.061.439zm13.757-14.058c-2.383-1.817-5.448-2.393-8.414-1.579-1.884.517-3.535 1.627-4.775 3.212-.51.653-.395 1.595.257 2.106.652.51 1.595.395 2.106-.257.839-1.073 1.948-1.823 3.205-2.167 2.057-.565 4.169-.173 5.801 1.071 1.629 1.242 2.563 3.127 2.563 5.172 0 2.34-1.256 4.643-3.2 5.865-1.186.746-2.079 1.941-2.657 3.55-.229.634-.656 1.175-1.239 1.564-1.085.725-2.579.693-3.632-.083-.542-.398-.847-.992-1.006-1.42-.289-.775-1.151-1.17-1.93-.882-.776.289-1.171 1.152-.882 1.929.865 2.461 3.18 3.988 5.699 3.969 1.201 0 2.403-.339 3.419-1.02 1.118-.749 1.945-1.8 2.394-3.042.346-.964.828-1.646 1.432-2.026 2.839-1.785 4.603-5.006 4.603-8.404 0-2.989-1.364-5.743-3.743-7.558zm-5.757 6.058c.827 0 1.5.673 1.5 1.5s.672 1.5 1.5 1.5 1.5-.671 1.5-1.5c0-2.481-2.019-4.5-4.5-4.5s-4.5 2.019-4.5 4.5v1.501c0 .544.203 1.046.57 1.413.513.512 1.151.579 1.389.585 0 0 .057.004.057.048s-.055.053-.055.053c-.755.29-1.146 1.132-.875 1.899.217.615.796 1 1.414 1 1.438-.11 2.5-1.561 2.5-3 0-1.303-.835-2.415-2-2.828v-.672c0-.827.673-1.5 1.5-1.5z"/></svg>