<svg id="Layer_1" viewBox="0 0 24 24" xmlns="http://www.w3.org/2000/svg" data-name="Layer 1"><path d="m20 9.5c0-1.953-1.258-3.602-3-4.224v-.276c0-1.103-.897-2-2-2h-1.5v-1.5c0-.828-.671-1.5-1.5-1.5s-1.5.672-1.5 1.5v1.5h-1.5c-1.103 0-2 .897-2 2v.276c-1.742.621-3 2.271-3 4.224v1c0 1.157.451 2.202 1.17 3-.72.798-1.17 1.843-1.17 3v3c0 2.481 2.019 4.5 4.5 4.5h7c2.481 0 4.5-2.019 4.5-4.5v-3c0-1.157-.451-2.202-1.17-3 .72-.798 1.17-1.843 1.17-3zm-3 10c0 .827-.673 1.5-1.5 1.5h-7c-.827 0-1.5-.673-1.5-1.5v-3c0-.827.673-1.5 1.5-1.5h2c.829 0 1.5-.672 1.5-1.5s-.671-1.5-1.5-1.5h-2c-.827 0-1.5-.673-1.5-1.5v-1c0-.827.673-1.5 1.5-1.5h7c.827 0 1.5.673 1.5 1.5v1c0 .827-.673 1.5-1.5 1.5s-1.5.672-1.5 1.5.671 1.5 1.5 1.5 1.5.673 1.5 1.5z"/></svg>