<svg id="Layer_1" viewBox="0 0 24 24" xmlns="http://www.w3.org/2000/svg" data-name="Layer 1"><path d="m8.196 13.709c.502-.6.731-1.378.799-1.942.054-.446-.316-.816-.762-.762-.619.075-1.507.325-2.121.939-.011.011-.018.025-.029.036-.053-.143-.102-.286-.165-.431-.22-.507-.808-.738-1.316-.519-.506.22-.739.809-.519 1.316.093.213.193.481.273.775-2.488.527-4.355 2.734-4.355 5.379 0 3.038 2.462 5.5 5.5 5.5s5.5-2.462 5.5-5.5c0-2.057-1.131-3.848-2.804-4.791zm-3.196 4.791c-.552 0-1-.448-1-1s.448-1 1-1 1 .448 1 1-.448 1-1 1zm2 2.5c-.552 0-1-.448-1-1s.448-1 1-1 1 .448 1 1-.448 1-1 1zm1-3c-.552 0-1-.448-1-1s.448-1 1-1 1 .448 1 1-.448 1-1 1zm12-13h-2.946l.205-1.564c.033-.249.245-.436.496-.436h2.745c.828 0 1.5-.671 1.5-1.5s-.672-1.5-1.5-1.5h-2.745c-1.758 0-3.243 1.303-3.471 3.046l-.256 1.954h-4.528c-1.473 0-2.842.714-3.685 1.917-.419.597-.401 1.447.108 1.969.689.705 1.833.566 2.345-.243.262-.415.741-.643 1.232-.643h6.642c-.084.322-.142.653-.142 1v11c0 .345.044.68.127 1h-2.627c-.829 0-1.5.671-1.5 1.5s.671 1.5 1.5 1.5h6.5c2.209 0 4-1.791 4-4v-11c0-2.209-1.791-4-4-4zm1 15c0 .551-.448 1-1 1s-1-.449-1-1v-11c0-.551.448-1 1-1s1 .449 1 1z"/></svg>