<svg id="Layer_1" viewBox="0 0 24 24" xmlns="http://www.w3.org/2000/svg" data-name="Layer 1"><path d="m24 12.996c0-1.105-.895-2-2-2h-.231l-.531-5.576c-.223-2.336-1.906-4.276-4.189-4.827-3.276-.791-6.822-.791-10.096 0-2.283.551-3.968 2.49-4.191 4.828l-.53 5.575h-.231c-1.105 0-2 .895-2 2s.895 2 2 2v5.5 1.5c0 1.105.895 2 2 2s2-.895 2-2h12c0 1.104.895 2 2 2s2-.895 2-2v-1.498s0 0 0-.001v-5.5c1.104 0 2-.896 2-2zm-19 2.001h2v.5c0 .828.672 1.5 1.5 1.5s1.5-.672 1.5-1.5v-.5h4v.5c0 .828.672 1.5 1.5 1.5s1.5-.672 1.5-1.5v-.5h2v4h-14zm2.657-11.488c2.814-.68 5.87-.68 8.687 0 1.039.251 1.806 1.134 1.907 2.196l.599 6.291h-13.701l.599-6.291c.102-1.062.869-1.945 1.909-2.196z"/></svg>