<svg id="Layer_1" viewBox="0 0 24 24" xmlns="http://www.w3.org/2000/svg" data-name="Layer 1"><path d="m13.763 7.75c-.276-.478-.888-.642-1.366-.366l-.547.316c-.501-.51-1.138-.882-1.849-1.067v-.633c0-.553-.447-1-1-1s-1 .447-1 1v.627c-.714.159-1.359.553-1.864 1.065l-.632-.365c-.479-.276-1.089-.113-1.366.366-.276.479-.112 1.09.366 1.366l.641.37c-.211.73-.163 1.477.018 2.13l-.657.379c-.479.276-.643.888-.366 1.366.278.483.897.639 1.366.366l.659-.38c.5.503 1.126.882 1.835 1.066v.642c0 .553.447 1 1 1s1-.447 1-1v-.237c0-.626.229-1.238.669-1.684.873-.887 1.667-1.846 2.312-2.811-.021-.285-.068-.562-.142-.829l.558-.322c.478-.276.642-.888.366-1.366zm-4.763 4.25c-.827 0-1.5-.673-1.5-1.5s.673-1.5 1.5-1.5 1.5.673 1.5 1.5-.673 1.5-1.5 1.5zm14.841-5.329-2.633 5.268.42.226c.994.535 1.556 1.656 1.33 2.763-.406 1.986-1.375 3.706-2.355 5.029-.432.583-1.193.812-1.886.594-.496-.156-.981-.328-1.454-.515.621-1.185 1.237-2.798 1.237-4.536-1.726 2.157-3.82 2.824-4.363 2.967-.694-.427-1.359-.893-1.992-1.4-.77-.617-.831-1.784-.135-2.484 1.002-1.009 1.962-2.161 2.749-3.366.747-1.144 2.222-1.555 3.424-.907l.382.206 2.593-5.186c.371-.74 1.271-1.039 2.013-.671.741.371 1.041 1.271.671 2.013zm-13.548 11.329h-7.293v-12.5c0-1.379 1.121-2.5 2.5-2.5h5c1.129 0 2.121.76 2.414 1.847.215.801 1.037 1.274 1.838 1.059.8-.215 1.274-1.038 1.059-1.838-.644-2.395-2.827-4.067-5.311-4.067h-5c-3.032-.001-5.5 2.467-5.5 5.499v13.5c0 2.761 2.239 5 5 5h6c1.875 0 3.489-1.044 4.345-2.571 0 0-2.883-1.044-5.052-3.429zm-1.294 4.008h-2c-.552 0-1-.448-1-1s.448-1 1-1h2c.552 0 1 .448 1 1s-.448 1-1 1z"/></svg>