<svg id="Layer_1" viewBox="0 0 24 24" xmlns="http://www.w3.org/2000/svg" data-name="Layer 1"><path d="m6.707 11.998c1.173-.026 2.052-.273 2.704-.593.785.378 1.661.596 2.589.596s1.804-.218 2.589-.596c.651.32 1.53.567 2.704.593 1.234.027 2.403-.756 2.652-1.965.239-1.156-.322-2.213-1.231-2.718-.454-.253-.714-.794-.714-1.314 0-3.309-2.691-6-6-6s-6 2.69-6 5.999c0 .52-.259 1.061-.714 1.314-.909.506-1.47 1.562-1.231 2.718.249 1.209 1.418 1.992 2.652 1.965zm5.293-8.998c1.654 0 3 1.346 3 3s-1.346 3-3 3-3-1.346-3-3 1.346-3 3-3zm8.972 19.401c.061.862-.635 1.602-1.499 1.599-.783 0-1.442-.608-1.495-1.401-.106-1.612-.853-3.041-1.978-4.054v1.609c0 .761-.868 1.195-1.477.738l-2.523-1.892-2.523 1.892c-.609.456-1.477.022-1.477-.738v-1.609c-1.124 1.013-1.871 2.442-1.978 4.054-.055.827-.807 1.453-1.596 1.398-.827-.054-1.453-.769-1.398-1.595.312-4.711 4.252-8.401 8.972-8.401s8.66 3.69 8.972 8.401zm-10.472.099c0-.828.672-1.5 1.5-1.5s1.5.672 1.5 1.5-.672 1.5-1.5 1.5-1.5-.672-1.5-1.5z"/></svg>