<svg id="Layer_1" viewBox="0 0 24 24" xmlns="http://www.w3.org/2000/svg" data-name="Layer 1"><path d="m12.5 14c2.51 0 4.63-1.7 5.29-4h.71c.83 0 1.5-.67 1.5-1.5v-3c0-.83-.67-1.5-1.5-1.5h-.71c-.66-2.3-2.77-4-5.29-4h-7c-3.03 0-5.5 2.47-5.5 5.5v3c0 3.03 2.47 5.5 5.5 5.5zm-9.5-5.5v-3c0-1.38 1.12-2.5 2.5-2.5h7c1.38 0 2.5 1.12 2.5 2.5v3c0 1.38-1.12 2.5-2.5 2.5h-7c-1.38 0-2.5-1.12-2.5-2.5zm3 .5c-.55 0-1-.45-1-1v-2c0-.55.45-1 1-1h3c.55 0 1 .45 1 1v2c0 .55-.45 1-1 1zm17.1 8.5c.56.69.9 1.55.9 2.5 0 2.21-1.79 4-4 4h-7c-2.21 0-4-1.79-4-4 0-.35.06-.68.14-1h-3.64c-1.26-.06-2.58-.59-3.31-1.55-.46-.59-.06-1.45.69-1.45h10.62c.83 0 1.5.67 1.5 1.5s-.67 1.5-1.5 1.5h-.5c-.55 0-1 .45-1 1s.45 1 1 1h7c.55 0 1-.45 1-1s-.45-1-1-1h-.5c-.83 0-1.5-.67-1.5-1.5s.67-1.5 1.5-1.5h.5c.55 0 1-.45 1-1s-.45-1-1-1c-.83 0-1.5-.67-1.5-1.5s.67-1.5 1.5-1.5c2.21 0 4 1.79 4 4 0 .95-.35 1.81-.9 2.5z"/></svg>