<svg id="Layer_1" viewBox="0 0 24 24" xmlns="http://www.w3.org/2000/svg" data-name="Layer 1"><path d="m18 12c-3.314 0-6 2.686-6 6s2.686 6 6 6 6-2.686 6-6c0-3-2.686-6-6-6zm-1 3c0-.553.448-1 1-1s1 .447 1 1v2c0 .553-.448 1-1 1s-1-.447-1-1zm1 7c-.828 0-1.5-.672-1.5-1.5s.672-1.5 1.5-1.5 1.5.672 1.5 1.5-.672 1.5-1.5 1.5zm-7-10.624c0-.307-.22-.565-.522-.616l-3.284-.547c-1.271-.212-2.193-1.301-2.193-2.589 0-1.447 1.177-2.624 2.624-2.624h.376c0-.553.447-1 1-1s1 .447 1 1h.246c1.107 0 2.115.582 2.63 1.519.267.483.09 1.092-.395 1.357-.483.267-1.092.089-1.357-.395-.166-.302-.494-.481-.878-.481h-2.622c-.344 0-.624.28-.624.624 0 .307.22.565.522.616l3.284.547c1.271.212 2.193 1.301 2.193 2.589 0 1.447-1.177 2.624-2.624 2.624h-.376c0 .553-.447 1-1 1s-1-.447-1-1h-.278c-1.048 0-2.037-.571-2.582-1.49-.281-.475-.125-1.088.351-1.37.474-.281 1.087-.125 1.37.351.187.314.517.51.861.51h2.654c.344 0 .624-.28.624-.624zm-.699 11.861c-.412.72-1.329.968-2.047.559l-2.8-1.6-3.282 1.642c-.212.105-.441.158-.671.158-1 0-1.518-.694-1.501-1.5v-17.496c0-2.754 2.24-4.997 4.994-5h8.159c1.297 0 2.515.505 3.43 1.422.914.916 1.418 2.134 1.417 3.43v3.648c0 .829-.673 1.5-1.501 1.5s-1.495-.672-1.495-1.5v-3.649c0-.495-.195-.96-.544-1.31-.349-.349-.812-.541-1.306-.541h-8.158c-1.099 0-1.996.898-1.996 2v15.068l1.829-.915c.447-.224.979-.209 1.415.039l3.498 1.998c.72.411.97 1.327.559 2.047z"/></svg>