<svg id="Layer_1" viewBox="0 0 24 24" xmlns="http://www.w3.org/2000/svg" data-name="Layer 1"><path d="m9 5h2v7h-2c-.552 0-1-.448-1-1v-5c0-.552.448-1 1-1zm6 0h-2v7h2c.552 0 1-.448 1-1v-5c0-.552-.448-1-1-1zm-.5 9c-.828 0-1.5.672-1.5 1.5s.672 1.5 1.5 1.5 1.5-.672 1.5-1.5-.672-1.5-1.5-1.5zm9.5 8.5c0 .828-.672 1.5-1.5 1.5h-21c-.828 0-1.5-.672-1.5-1.5s.672-1.5 1.5-1.5h1.5v-15.5c0-3.032 2.468-5.5 5.5-5.5h7c3.032 0 5.5 2.468 5.5 5.5v15.5h1.5c.828 0 1.5.672 1.5 1.5zm-18-1.5h12v-15.5c0-1.379-1.121-2.5-2.5-2.5h-7c-1.379 0-2.5 1.121-2.5 2.5z"/></svg>