<svg id="Layer_1" viewBox="0 0 24 24" xmlns="http://www.w3.org/2000/svg" data-name="Layer 1"><path d="m20 22.5c0 .829-.671 1.5-1.5 1.5h-13c-.829 0-1.5-.671-1.5-1.5s.671-1.5 1.5-1.5h5v-5.5c0-.829.671-1.5 1.5-1.5s1.5.671 1.5 1.5v5.5h5c.829 0 1.5.671 1.5 1.5zm4-8c0 2.481-2.019 4.5-4.5 4.5s-4.5-2.019-4.5-4.5c0-.161.026-.321.077-.474l3-9c.204-.613.777-1.026 1.423-1.026s1.219.413 1.423 1.026l3 9c.051.153.077.313.077.474zm-5.752-.5h2.504l-1.252-3.757zm-13.748 5c-2.481 0-4.5-2.019-4.5-4.5 0-.161.026-.321.077-.474l3-9c.204-.613.777-1.026 1.423-1.026s1.219.413 1.423 1.026l3 9c.051.153.077.313.077.474 0 2.481-2.019 4.5-4.5 4.5zm-1.252-5h2.504l-1.252-3.757zm7.067-7.267 3.042.507c.373.062.644.382.644.76 0 .551-.449 1-1 1h-2.268c-.356 0-.688-.192-.867-.5-.277-.479-.89-.642-1.366-.365-.479.277-.642.888-.365 1.366.535.925 1.53 1.499 2.598 1.499h.268c0 .553.448 1 1 1s1-.448 1-1c1.654 0 3-1.346 3-3 0-1.36-.974-2.51-2.315-2.733l-3.042-.507c-.373-.062-.644-.382-.644-.76 0-.551.449-1 1-1h2.268c.356 0 .688.192.867.5.277.479.89.642 1.366.365.479-.277.642-.888.365-1.366-.535-.925-1.53-1.499-2.598-1.499h-.268c0-.553-.448-1-1-1s-1 .448-1 1c-1.654 0-3 1.346-3 3 0 1.36.974 2.51 2.315 2.733z"/></svg>