<svg id="Layer_1" viewBox="0 0 24 24" xmlns="http://www.w3.org/2000/svg" data-name="Layer 1"><path d="m13 9c0-2.206-1.794-4-4-4s-4 1.794-4 4 1.794 4 4 4 4-1.794 4-4zm-4 1c-.551 0-1-.448-1-1s.449-1 1-1 1 .448 1 1-.449 1-1 1zm15 12.477c0 .828-.671 1.5-1.5 1.5s-1.5-.672-1.5-1.5c0-.847-.536-1.604-1.334-1.887l-2.666-.941v2.196c0 1.19-.965 2.155-2.155 2.155-.505 0-.995-.172-1.388-.488l-2.868-2.299c-.771-.643-.875-1.789-.233-2.56s1.789-.875 2.56-.233l1.084.87v-6.291c0-.828.672-1.5 1.5-1.5s1.5.672 1.5 1.5v3.469l3.664 1.293c1.996.704 3.336 2.6 3.336 4.715zm-14-20.188v-.997c0-.662.625-1.164 1.266-.997 2.534.66 4.619 2.409 5.768 4.705h2.467c1.93 0 3.5 1.57 3.5 3.5v1.011c.604.456 1 1.173 1 1.989 0 1.381-1.119 2.5-2.5 2.5s-2.5-1.119-2.5-2.5c0-.815.396-1.532 1-1.989v-1.011c0-.275-.224-.5-.5-.5h-3.562c-.573 0-1.075-.369-1.258-.912-.621-1.842-2.113-3.284-3.985-3.837-.42-.124-.695-.525-.695-.963zm-9.705 4.445c.818-3.143 3.296-5.623 6.439-6.441.64-.167 1.266.336 1.266.997v.998c0 .438-.276.839-.695.963-1.945.574-3.479 2.109-4.053 4.054-.124.42-.525.695-.963.695h-.997c-.662 0-1.164-.625-.997-1.266zm7.705 9.204v3.562c0 1.93-1.57 3.5-3.5 3.5h-.011c-.456.604-1.173 1-1.989 1-1.381 0-2.5-1.119-2.5-2.5s1.119-2.5 2.5-2.5c.815 0 1.532.396 1.989 1h.011c.276 0 .5-.225.5-.5v-2.467c-2.296-1.148-4.045-3.233-4.705-5.767-.167-.64.336-1.266 1.117-1.266h.88c.438 0 .836.276.96.695.553 1.872 1.995 3.364 3.836 3.985.543.183.912.685.912 1.258z"/></svg>