<svg id="Layer_1" viewBox="0 0 24 24" xmlns="http://www.w3.org/2000/svg" data-name="Layer 1"><path d="m6 3c0 1.654-1.346 3-3 3s-3-1.346-3-3 1.346-3 3-3 3 1.346 3 3zm5 3c1.654 0 3-1.346 3-3s-1.346-3-3-3-3 1.346-3 3 1.346 3 3 3zm-8 2c-1.654 0-3 1.346-3 3s1.346 3 3 3 3-1.346 3-3-1.346-3-3-3zm0 8c-1.654 0-3 1.346-3 3s1.346 3 3 3 3-1.346 3-3-1.346-3-3-3zm20.967 6.188c-.468-2.2-2.074-4.032-4.204-4.784l-4.263-1.473v-4.338c0-.704-.447-1.368-1.129-1.543-1.001-.256-1.884.492-1.884 1.449v7.289l-1.205-.815c-.866-.722-2.153-.604-2.874.261-.722.866-.605 2.153.261 2.874l3.23 2.438c.39.294.865.453 1.354.453 1.241 0 2.247-1.006 2.247-2.247v-2.647l3.273 1.131c1.142.403 2.008 1.39 2.259 2.575.147.709.785 1.188 1.468 1.188.845 0 1.5-.706 1.5-1.5 0-.103-.011-.207-.033-.312zm-13.48-8.24v-2.448c0-1.032.449-2.005 1.232-2.671.216-.183.453-.33.701-.454-.425-.231-.904-.374-1.421-.374-1.654 0-3 1.346-3 3 0 1.479 1.078 2.703 2.487 2.948z"/></svg>