<svg id="Layer_1" viewBox="0 0 24 24" xmlns="http://www.w3.org/2000/svg" data-name="Layer 1"><path d="m15 5.5c0-1.379-1.121-2.5-2.5-2.5h-7c-1.379 0-2.5 1.121-2.5 2.5v13c0 1.379 1.121 2.5 2.5 2.5h6c.828 0 1.5.672 1.5 1.5s-.672 1.5-1.5 1.5h-6c-3.032 0-5.5-2.468-5.5-5.5v-13c0-3.032 2.468-5.5 5.5-5.5h7c3.032 0 5.5 2.468 5.5 5.5v1c0 .828-.672 1.5-1.5 1.5s-1.5-.672-1.5-1.5zm-8.5-.5c-.828 0-1.5.672-1.5 1.5s.672 1.5 1.5 1.5 1.5-.672 1.5-1.5-.672-1.5-1.5-1.5zm5 0c-.828 0-1.5.672-1.5 1.5s.672 1.5 1.5 1.5 1.5-.672 1.5-1.5-.672-1.5-1.5-1.5zm-5 5c-.828 0-1.5.672-1.5 1.5s.672 1.5 1.5 1.5 1.5-.672 1.5-1.5-.672-1.5-1.5-1.5zm5 0c-.828 0-1.5.672-1.5 1.5s.672 1.5 1.5 1.5 1.5-.672 1.5-1.5-.672-1.5-1.5-1.5zm0 5c-.828 0-1.5.672-1.5 1.5s.672 1.5 1.5 1.5 1.5-.672 1.5-1.5-.672-1.5-1.5-1.5zm-5 0c-.828 0-1.5.672-1.5 1.5s.672 1.5 1.5 1.5 1.5-.672 1.5-1.5-.672-1.5-1.5-1.5zm16.847-2.77-4.22-1.717c-.834-.339-1.726-.514-2.627-.514-.828 0-1.5.672-1.5 1.5v11c0 .828.672 1.5 1.5 1.5s1.5-.672 1.5-1.5v-5.341l5.347-2.571c.871-.544.871-1.813 0-2.357z"/></svg>