<svg id="Layer_1" viewBox="0 0 24 24" xmlns="http://www.w3.org/2000/svg" data-name="Layer 1"><path d="m13.5 9c.723 0 1.326-.512 1.468-1.193.564.12 1.233.193 2.032.193.785 0 1.459-.072 2.031-.197.14.683.745 1.197 1.469 1.197.828 0 1.5-.671 1.5-1.5v-5.5c0-1.178-2.056-2-5-2s-5 .822-5 2v5.5c0 .829.672 1.5 1.5 1.5zm5.5-5.144v1.882c-.417.137-1.063.262-2 .262-.943 0-1.587-.116-2-.243v-1.901c.601.093 1.273.144 2 .144s1.399-.051 2-.144zm4.393 8.375c-.583-.782-1.476-1.231-2.451-1.231h-11.827c-1.913 0-3.62 1.213-4.249 3.02l-1.784 5.119c-.054-.204-.082-.418-.082-.638v-9.501h6c.552 0 1-.448 1-1v-3.736c0-.568-.32-1.087-.829-1.341l-1.105-.554c-.483-.241-1.024-.369-1.565-.369h-2c-2.482 0-4.501 2.019-4.501 4.5v12c0 3.033 2.468 5.5 5.5 5.5h11.558c2.447 0 4.565-1.575 5.269-3.919l1.543-5.147c.28-.935.106-1.919-.476-2.702zm-3.94 6.987c-.32 1.066-1.282 1.782-2.396 1.782h-11.447l2.089-5.994c.209-.602.778-1.006 1.416-1.006h11.882z"/></svg>