<svg id="Layer_1" viewBox="0 0 24 24" xmlns="http://www.w3.org/2000/svg" data-name="Layer 1"><path d="m23.561 9.061c.586-.585.586-1.536 0-2.121-.586-.586-1.535-.586-2.121 0l-3.689 3.689-4.379-4.379 3.689-3.689c.586-.585.586-1.536 0-2.121-.586-.586-1.535-.586-2.121 0l-3.689 3.689c-.625-.626-2.048-2.048-2.689-2.689-.586-.586-1.535-.586-2.121 0-.586.585-.586 1.536 0 2.121l.636.636-4.441 4.439c-3.086 2.971-3.504 8.146-.966 11.573l-1.23 1.23c-.586.586-.586 1.535 0 2.121s1.535.586 2.121 0l1.232-1.232c3.543 2.525 8.445 2.163 11.572-.965l4.44-4.44.636.636c.586.586 1.535.586 2.121 0s.586-1.535 0-2.121c-.647-.647-2.059-2.059-2.689-2.689l3.689-3.689zm-10.318 10.183c-2.34 2.34-6.146 2.34-8.485 0-1.133-1.134-1.757-2.641-1.757-4.243s.624-3.109 1.757-4.243l4.439-4.439 8.485 8.485-4.44 4.44zm-2.037-8.45c.813-.16 1.603.366 1.765 1.177.162.812-.365 1.603-1.177 1.765l-1.396.278.773.773c.549.55.75 1.353.526 2.095-.234.78-.906 1.361-1.713 1.474l-3.067.373c-.807.102-1.574-.482-1.67-1.309-.1-.822.486-1.569 1.308-1.67l1.192-.145-.663-.663c-.471-.469-.694-1.144-.597-1.804.117-.794.712-1.526 1.508-1.705l3.21-.641z"/></svg>