<svg id="Layer_1" viewBox="0 0 24 24" xmlns="http://www.w3.org/2000/svg" data-name="Layer 1"><path d="m12.68 14.809c.296 1.684 2.103 2.855 3.756 2.443l5.261-1.175c1.464-.327 2.445-1.697 2.281-3.186-.772-7.023-6.856-11.364-9.964-12.678-.912-.385-1.957-.236-2.727.391-.772.63-1.129 1.628-.933 2.604zm8.363-1.66-5.261 1.175c-.07.017-.148-.031-.161-.104l-2.201-10.979c2.949 1.463 7.042 5.071 7.623 9.909zm-21.039-8.649c0-1.381 1.119-2.5 2.499-2.5s2.499 1.119 2.499 2.5-1.119 2.5-2.499 2.5-2.499-1.119-2.499-2.5zm23.246 18.895c-.681.396-1.46.605-2.253.605-.983 0-1.976-.32-2.795-.903-.131-.092-.277-.093-.406 0-1.642 1.168-3.953 1.167-5.592 0-.13-.093-.277-.092-.406 0-1.639 1.166-3.954 1.165-5.592 0-.13-.093-.278-.091-.406 0-1.479 1.052-3.519 1.188-5.049.3-.716-.416-.96-1.334-.544-2.051s1.334-.958 2.05-.545c.536.312 1.262.237 1.805-.148 1.014-.722 2.333-.813 3.425-.273l-.28-1.394c-.034-.171-.157-.313-.32-.372 0 0-3.798-1.366-3.844-1.388-1.297-.62-2.236-1.808-2.511-3.175l-.465-2.322c-.375-1.666.815-3.384 2.467-3.706.872-.134 1.732.095 2.441.386l1.998.692c.083.029.175.036.261.018l1.472-.295c.813-.16 1.603.363 1.765 1.176s-.364 1.603-1.175 1.766l-1.471.295c-.611.123-1.246.08-1.836-.125l-1.105-.383.885 3.474 2.129.764c1.147.411 2.009 1.41 2.248 2.606l.396 1.973c1.086-.526 2.392-.433 3.399.284.621.441 1.492.442 2.116 0 1.161-.826 2.722-.825 3.882 0 .537.382 1.274.456 1.803.148.717-.415 1.634-.173 2.05.543.416.717.173 1.635-.543 2.051z"/></svg>