<svg id="Layer_1" viewBox="0 0 24 24" xmlns="http://www.w3.org/2000/svg" data-name="Layer 1"><path d="m11.5 12.6v6.4l-4.051-1.162c-.858-.246-1.449-1.03-1.449-1.923v-4.415c0-.999.958-1.719 1.917-1.441l2.139.619c.855.247 1.444 1.031 1.444 1.921zm6.5-1.099c0-.999-.958-1.719-1.917-1.441l-2.133.617c-.859.245-1.451 1.03-1.451 1.923v5.986l5.5-5.5v-1.585zm5.486 2.348c-.875-1.07-2.456-1.129-3.409-.176l-5.808 5.808c-.813.813-1.269 1.915-1.269 3.064v.955c0 .276.224.5.5.5h.955c1.149 0 2.252-.457 3.064-1.269l5.715-5.715c.85-.85 1.013-2.236.252-3.167zm-3.484-5.232c.421.33.72.775.865 1.29.225.798 1.056 1.261 1.851 1.037.797-.225 1.261-1.054 1.037-1.851-.319-1.132-.978-2.113-1.904-2.838l-6.5-5.087c-1.927-1.545-4.851-1.55-6.779 0l-6.501 5.087c-1.341 1.05-2.11 2.629-2.11 4.339l.039 7.906c0 3.032 2.467 5.5 5.5 5.5h4c.829 0 1.5-.672 1.5-1.5s-.671-1.5-1.5-1.5h-4c-1.378 0-2.5-1.121-2.5-2.508l-.039-7.906c0-.774.35-1.492.959-1.969l6.5-5.086c.902-.697 2.201-.708 3.082 0z"/></svg>