<svg id="Layer_1" viewBox="0 0 24 24" xmlns="http://www.w3.org/2000/svg" data-name="Layer 1"><path d="m18.5 0h-13c-3.033 0-5.5 2.467-5.5 5.5v13c0 3.033 2.467 5.5 5.5 5.5h13.5c2.761 0 5-2.239 5-5v-13.5c0-3.033-2.467-5.5-5.5-5.5zm2.5 5.5v.5h-12v-3h9.5c1.378 0 2.5 1.122 2.5 2.5zm-12.327 6.925-.457-.42c-.413-.38-.433-1.025-.044-1.429.377-.392.997-.41 1.397-.042l.524.483 1.592-1.653c.391-.406 1.04-.409 1.435-.006.378.386.38 1.003.006 1.392l-1.63 1.693c-.744.744-2.058.746-2.823-.019zm-3.173-9.425h.5v3h-3v-.5c0-1.378 1.122-2.5 2.5-2.5zm-2.5 15.5v-9.5h3v12h-.5c-1.378 0-2.5-1.122-2.5-2.5zm19.126.25-1.63 1.693c-.744.744-2.058.746-2.823-.019l-.457-.42c-.413-.38-.433-1.025-.044-1.429.377-.392.997-.41 1.397-.042l.524.483 1.592-1.653c.391-.406 1.04-.409 1.435-.006.378.386.38 1.003.006 1.392zm-7.126-3.75v6h-6v-6h6v-6h6v6z"/></svg>