<svg id="Layer_1" viewBox="0 0 24 24" xmlns="http://www.w3.org/2000/svg" data-name="Layer 1"><path d="m23.559 15.438c-.586-.586-1.537-.582-2.121.004l-1.316 1.321c-.326.326-.896.327-1.221 0l-1.53-1.535c1.514-1.485 1.526-3.933.026-5.433l-7.837-7.838c-1.363-1.36-3.578-1.359-4.941-.002l-2.608-1.738c-.513-.342-1.196-.274-1.632.162s-.504 1.119-.162 1.632l1.738 2.607c-.656.661-1.018 1.537-1.018 2.468 0 .936.365 1.814 1.026 2.475l6.437 6.439h-2.901c-.829 0-1.5.672-1.5 1.5s.671 1.5 1.5 1.5h3.857l-2.429 2.429c-.586.586-.586 1.535 0 2.121.293.293.677.439 1.061.439s.768-.146 1.061-.439l6.199-6.199 1.526 1.531c.73.731 1.701 1.135 2.734 1.135h.001c1.034 0 2.005-.404 2.735-1.137l1.316-1.321c.585-.587.583-1.536-.004-2.121zm-19.621-8.353c0-.078.019-.227.146-.354l2.649-2.649c.098-.098.227-.146.355-.146.127 0 .254.049.351.145l4.718 4.72-3.357 3.357-4.716-4.72c-.128-.128-.147-.276-.147-.354zm8.562 8.771-1.579-1.579 3.357-3.357.996.997c.321.321.321.844 0 1.165l-2.775 2.774z"/></svg>