<svg id="Layer_1" viewBox="0 0 24 24" xmlns="http://www.w3.org/2000/svg" data-name="Layer 1"><path d="m3 9.886v8.614c0 1.379 1.121 2.5 2.5 2.5h4c.828 0 1.5.672 1.5 1.5s-.672 1.5-1.5 1.5h-4c-3.032 0-5.5-2.468-5.5-5.5v-8.614c0-1.831.906-3.536 2.424-4.56l6.5-4.385c1.869-1.262 4.283-1.262 6.152 0l5.263 3.551c.687.463.868 1.396.404 2.082-.463.688-1.396.868-2.082.404l-5.263-3.551c-.85-.573-1.947-.573-2.797 0l-6.499 4.386c-.689.466-1.102 1.24-1.102 2.073zm21 8.114v3c0 1.657-1.343 3-3 3h-5c-1.657 0-3-1.343-3-3v-3c0-.885.39-1.672 1-2.221v-2.279c0-2.481 2.019-4.5 4.5-4.5 1.277 0 2.5.546 3.354 1.499.553.617.501 1.565-.116 2.118-.618.553-1.567.499-2.118-.116-.289-.323-.687-.501-1.119-.501-.827 0-1.5.673-1.5 1.5v1.5h4c1.657 0 3 1.343 3 3zm-4 1.5c0-.828-.672-1.5-1.5-1.5s-1.5.672-1.5 1.5.672 1.5 1.5 1.5 1.5-.672 1.5-1.5z"/></svg>