<svg id="Layer_1" viewBox="0 0 24 24" xmlns="http://www.w3.org/2000/svg" data-name="Layer 1"><path d="m23.375 13.846c-.475-.537-1.158-.846-1.875-.846h-6c-.717 0-1.4.309-1.875.846-.474.537-.695 1.254-.606 1.965l.641 5.123c.218 1.748 1.711 3.066 3.473 3.066h2.734c1.762 0 3.254-1.318 3.473-3.065l.641-5.124c.089-.711-.132-1.428-.606-1.965zm-3.011 6.717c-.031.249-.245.438-.496.438h-2.734c-.251 0-.465-.188-.496-.438l-.57-4.562h4.867l-.57 4.562zm-8.76-9.692c-.24-.336-.509-.655-.801-.947l-1.364-1.364c-.281-.281-.439-.663-.439-1.061v-4.499h-2v4.5c0 .398-.158.779-.439 1.061l-1.364 1.364c-1.417 1.417-2.197 3.3-2.197 5.303v3.272c0 1.379 1.122 2.5 2.5 2.5h5c.829 0 1.5.672 1.5 1.5s-.671 1.5-1.5 1.5h-5c-3.033 0-5.5-2.468-5.5-5.5v-3.272c0-2.804 1.092-5.441 3.076-7.424l.924-.924v-3.966c-.583-.206-1-.761-1-1.414 0-.829.671-1.5 1.5-1.5h7c.829 0 1.5.671 1.5 1.5 0 .653-.417 1.208-1 1.414v3.965l.924.924c.409.409.787.855 1.123 1.326.481.674.324 1.611-.35 2.092-.264.188-.568.279-.87.279-.469 0-.93-.219-1.223-.629zm-.604 5.129c0 1.657-1.343 3-3 3s-3-1.343-3-3 1.343-3 3-3 3 1.343 3 3z"/></svg>