<svg id="Layer_1" viewBox="0 0 24 24" xmlns="http://www.w3.org/2000/svg" data-name="Layer 1"><path d="m12 0c-6.617 0-12 5.383-12 12s5.383 12 12 12 12-5.383 12-12-5.383-12-12-12zm1.5 20.865v-.365c0-.829-.672-1.5-1.5-1.5s-1.5.671-1.5 1.5v.365c-3.761-.635-6.73-3.604-7.365-7.365h.365c.828 0 1.5-.671 1.5-1.5s-.672-1.5-1.5-1.5h-.365c.635-3.76 3.604-6.73 7.365-7.365v.365c0 .829.672 1.5 1.5 1.5s1.5-.671 1.5-1.5v-.365c3.761.635 6.73 3.604 7.365 7.365h-.365c-.828 0-1.5.671-1.5 1.5s.672 1.5 1.5 1.5h.365c-.635 3.76-3.604 6.73-7.365 7.365zm3.5-8.865c0 .552-.448 1-1 1h-8c-.552 0-1-.448-1-1s.448-1 1-1c.5-2.019 1.271-4 2.5-4 .628 0 1.046.555 1.5 1 .526-.59.871-1 1.5-1 1.229 0 2 2.019 2.5 4 .552 0 1 .448 1 1zm-5.5 3.5c0 .828-.672 1.5-1.5 1.5s-1.5-.672-1.5-1.5.672-1.5 1.5-1.5 1.5.672 1.5 1.5zm4 0c0 .828-.672 1.5-1.5 1.5s-1.5-.672-1.5-1.5.672-1.5 1.5-1.5 1.5.672 1.5 1.5z"/></svg>