<svg id="Layer_1" viewBox="0 0 24 24" xmlns="http://www.w3.org/2000/svg" data-name="Layer 1"><path d="m17.5 0h-6c-2.481 0-4.5 2.019-4.5 4.5v10c0 2.481 2.019 4.5 4.5 4.5h6c2.481 0 4.5-2.019 4.5-4.5v-10c0-2.481-2.019-4.5-4.5-4.5zm1.5 14.5c0 .827-.673 1.5-1.5 1.5h-6c-.827 0-1.5-.673-1.5-1.5v-10c0-.827.673-1.5 1.5-1.5h6c.827 0 1.5.673 1.5 1.5zm-5-2v1c0 .828-.671 1.5-1.5 1.5s-1.5-.672-1.5-1.5v-1c0-.828.671-1.5 1.5-1.5s1.5.672 1.5 1.5zm4-2v3c0 .828-.671 1.5-1.5 1.5s-1.5-.672-1.5-1.5v-3c0-.828.671-1.5 1.5-1.5s1.5.672 1.5 1.5zm0-5.5v2.303c0 .62-.75.931-1.188.492l-.596-.596-1.509 1.509c-.195.195-.451.293-.707.293s-.512-.098-.707-.293l-.293-.293-.293.293c-.391.391-1.023.391-1.414 0s-.391-1.023 0-1.414l1-1c.391-.391 1.023-.391 1.414 0l.293.293.802-.802-.596-.596c-.438-.438-.128-1.188.492-1.188h2.303c.552 0 1 .448 1 1zm-2 17.5c0 .828-.671 1.5-1.5 1.5h-7c-3.033 0-5.5-2.468-5.5-5.5v-11c0-.828.671-1.5 1.5-1.5s1.5.672 1.5 1.5v11c0 1.379 1.122 2.5 2.5 2.5h7c.829 0 1.5.672 1.5 1.5z"/></svg>