<svg id="Layer_1" viewBox="0 0 24 24" xmlns="http://www.w3.org/2000/svg" data-name="Layer 1"><path d="m16 0c-4.411 0-8 3.589-8 8 0 1.665.512 3.211 1.386 4.493l-1.59 1.59-1.939-1.94c-.585-.586-1.535-.586-2.121 0-.586.585-.586 1.535 0 2.121l1.939 1.94-1.175 1.175-1.939-1.939c-.586-.586-1.535-.586-2.121 0-.586.585-.586 1.536 0 2.121l1.939 1.939-1.939 1.939c-.586.585-.586 1.536 0 2.121.586.586 1.535.586 2.121 0l8.946-8.946c1.282.874 2.828 1.386 4.493 1.386 4.411 0 8-3.589 8-8s-3.589-8-8-8zm2.847 12.1c-.384-1.214-1.506-2.1-2.847-2.1s-2.464.886-2.847 2.1c-1.298-.904-2.153-2.402-2.153-4.1 0-2.757 2.243-5 5-5s5 2.243 5 5c0 1.698-.855 3.196-2.153 4.1zm-.847-5.1c0 1.105-.895 2-2 2s-2-.895-2-2 .895-2 2-2 2 .895 2 2z"/></svg>