<svg id="Layer_1" viewBox="0 0 24 24" xmlns="http://www.w3.org/2000/svg" data-name="Layer 1"><path d="m21.479 9.645c-1.838-1.801-4.612-2.705-8.215-2.67-.648-.51-1.434-.837-2.297-.928-.083-1.235-.588-2.406-1.469-3.287-.625-.625-1.401-1.078-2.253-1.315l-4.086-1.417c-.227-.063-.47 0-.637.167-.255.255-.255.669 0 .924l2.975 2.975c.578.17 1.422.312 1.844.781.368.358.658.861.658 1.375v.512c-.489.328-.91.749-1.238 1.238h-.516c-.513 0-1.016-.29-1.374-.658-.468-.42-.613-1.269-.782-1.844l-2.974-2.976c-.255-.255-.669-.255-.924 0-.167.167-.231.41-.167.637l1.418 4.086c.237.852.69 1.628 1.315 2.253.882.882 2.054 1.387 3.291 1.469.091.863.419 1.649.929 2.297-.024 3.609.868 6.376 2.669 8.214 1.639 1.673 3.945 2.521 6.855 2.521.829 0 1.5-.671 1.5-1.5s-.671-1.5-1.5-1.5c-2.073 0-3.658-.545-4.712-1.621-.968-.989-1.55-2.475-1.745-4.426.152.016.3.046.457.046 2.481 0 4.5-2.019 4.5-4.5 0-.155-.03-.302-.046-.453 1.952.196 3.437.772 4.425 1.741 1.075 1.054 1.621 2.639 1.621 4.712 0 .829.671 1.5 1.5 1.5s1.5-.671 1.5-1.5c0-2.91-.848-5.216-2.521-6.855zm-10.979 2.355c-.827 0-1.5-.673-1.5-1.5s.673-1.5 1.5-1.5 1.5.673 1.5 1.5-.673 1.5-1.5 1.5z"/></svg>