<svg id="Layer_1" viewBox="0 0 24 24" xmlns="http://www.w3.org/2000/svg" data-name="Layer 1"><path d="m9 3c0-.889.391-1.726 1.071-2.298.681-.572 1.577-.811 2.464-.655 1.21.212 2.205 1.206 2.418 2.417.223 1.273-.382 2.545-1.506 3.165-.169.093-.412.388-.484.644-.149.536-.718.841-1.235.69-.531-.15-.84-.703-.69-1.235.212-.748.792-1.492 1.444-1.851.29-.16.595-.535.502-1.067-.069-.391-.403-.724-.794-.793-.305-.053-.602.023-.832.217-.228.191-.358.47-.358.767 0 .552-.448 1-1 1s-1-.448-1-1zm3 5c-.552 0-1 .448-1 1s.448 1 1 1 1-.448 1-1-.448-1-1-1zm5.441 11.414-3.943 1.313.002-1.964c-.571-.239-1.089-.596-1.498-1.069-.408.472-.929.83-1.502 1.066l-.002 1.969-3.939-1.313c-.782-.261-1.342-.916-1.504-1.7l-3.053-1.381v.917c-.002 2.276 1.447 4.289 3.608 5.009l4.122 1.374c.73.243 1.497.365 2.265.365s1.536-.121 2.266-.365l4.126-1.375c2.156-.719 3.606-2.728 3.608-5.001l.003-.925-3.049 1.355c-.155.795-.721 1.462-1.511 1.725zm4.559-3.08h.001s-.001 0-.001 0zm1.714-5.395-1.023-2.237c-.453-.752-1.138-1.335-1.953-1.662l-4.315-1.731c-.341.655-.818 1.239-1.424 1.693 0 .318-.063.619-.156.907l3.652 1.465-6.496 2.406-6.496-2.406 3.652-1.465c-.092-.288-.155-.589-.155-.907v-.495c0-.22.016-.44.047-.66-.423-.142-.8-.379-1.116-.68l-4.67 1.874c-.815.327-1.5.91-1.953 1.662l-1.023 2.235c-.657 1.095-.131 2.517 1.08 2.92l6.971 3.124c.872.295 1.865-.059 2.347-.868l1.306-2.448.01.018.01-.018 1.306 2.448c.482.809 1.475 1.163 2.347.868l6.971-3.124c1.211-.403 1.737-1.825 1.08-2.92z"/></svg>