<svg id="Layer_1" viewBox="0 0 24 24" xmlns="http://www.w3.org/2000/svg" data-name="Layer 1"><path d="m21.282 5.55c-.737-.38-1.642-.087-2.02.649-.378.737-.087 1.642.649 2.02.671.345 1.088 1.027 1.088 1.781v2h-2v-.5c0-.829-.671-1.5-1.5-1.5s-1.5.671-1.5 1.5v.5h-8v-.5c0-.829-.671-1.5-1.5-1.5s-1.5.671-1.5 1.5v.5h-2v-2c0-.776.455-1.489 1.159-1.815.751-.349 1.078-1.241.729-1.992-.35-.752-1.242-1.077-1.992-.729-1.76.817-2.896 2.598-2.896 4.537v9c0 2.757 2.243 5 5 5h14c2.757 0 5-2.243 5-5v-9c0-1.884-1.042-3.589-2.718-4.45zm-2.282 15.45v-2.5c0-.828-.671-1.5-1.5-1.5s-1.5.672-1.5 1.5v2.5h-8v-2.5c0-.828-.671-1.5-1.5-1.5s-1.5.672-1.5 1.5v2.5c-1.103 0-2-.897-2-2v-4h18v4c0 1.103-.897 2-2 2zm-11.999-14.955v-5.195c0-.329.185-.617.483-.755.274-.124.598-.106.81.045.035.025 1.448 1.905 1.448 1.905l1.359-1.634c.506-.505 1.283-.517 1.754-.05l1.427 1.681 1.223-1.715c.242-.295.608-.398.942-.279.337.121.553.428.553.784v5.227c0 1.236-1.001 1.941-1.948 1.941h-6.111c-1.07-.002-1.94-.888-1.94-1.955z"/></svg>