<svg id="Layer_1" viewBox="0 0 24 24" xmlns="http://www.w3.org/2000/svg" data-name="Layer 1"><path d="m10.5 2.5c0-.521.594-1.377 1.034-1.939.238-.304.693-.304.931 0 .44.562 1.034 1.418 1.034 1.939 0 .828-.672 1.5-1.5 1.5s-1.5-.672-1.5-1.5zm5 1.5c.828 0 1.5-.672 1.5-1.5 0-.521-.594-1.377-1.034-1.939-.238-.304-.693-.304-.931 0-.44.562-1.034 1.418-1.034 1.939 0 .828.672 1.5 1.5 1.5zm3.5 0c.828 0 1.5-.672 1.5-1.5 0-.521-.594-1.377-1.034-1.939-.238-.304-.693-.304-.931 0-.44.562-1.034 1.418-1.034 1.939 0 .828.672 1.5 1.5 1.5zm-16-1.5c0-.521-.594-1.377-1.034-1.939-.238-.304-.693-.304-.931 0-.44.562-1.034 1.418-1.034 1.939 0 .828.672 1.5 1.5 1.5s1.5-.672 1.5-1.5zm2 1.5c.828 0 1.5-.672 1.5-1.5 0-.521-.594-1.377-1.034-1.939-.238-.304-.693-.304-.931 0-.44.562-1.034 1.418-1.034 1.939 0 .828.672 1.5 1.5 1.5zm3.5 0c.828 0 1.5-.672 1.5-1.5 0-.521-.594-1.377-1.034-1.939-.238-.304-.693-.304-.931 0-.44.562-1.034 1.418-1.034 1.939 0 .828.672 1.5 1.5 1.5zm14.466-3.439c-.238-.304-.693-.304-.931 0-.44.562-1.034 1.418-1.034 1.939 0 .828.672 1.5 1.5 1.5s1.5-.672 1.5-1.5c0-.521-.594-1.377-1.034-1.939zm-.508 5.443c-.704-.019-1.082.681-1.021 1.3-.374 4.501-3.922 8.13-8.381 8.631-.017-.017-.038-.03-.056-.046v-1.46c3.726-.472 6.709-3.53 6.979-7.359.039-.551-.376-1.029-.927-1.068-.546-.034-1.028.376-1.067.927-.198 2.784-2.309 5.025-4.985 5.481v-1.538c1.774-.411 3.188-1.872 3.455-3.731.078-.547-.302-1.054-.849-1.132-.543-.077-1.052.301-1.132.848-.125.871-.705 1.582-1.475 1.923v-1.78c0-.552-.448-1-1-1s-1 .448-1 1v1.781c-.769-.34-1.35-1.051-1.475-1.922-.077-.547-.584-.923-1.131-.849-.547.078-.927.584-.849 1.131.265 1.86 1.68 3.321 3.454 3.732v1.538c-2.677-.455-4.789-2.697-4.985-5.481-.039-.551-.519-.962-1.068-.927-.551.039-.966.517-.927 1.068.27 3.828 3.254 6.887 6.98 7.359v1.46c-.017.015-.036.027-.052.043-4.461-.499-8.011-4.13-8.385-8.632.062-.619-.316-1.319-1.021-1.3-.666-.014-1.1.635-1.002 1.25.244 6.143 4.504 10.639 9.959 11.355v2.395h-3c-.829 0-1.5.671-1.5 1.5s.671 1.5 1.5 1.5h9c.828 0 1.5-.671 1.5-1.5s-.672-1.5-1.5-1.5h-3v-2.391c5.455-.716 9.716-5.213 9.959-11.355.098-.615-.336-1.264-1.002-1.25z"/></svg>