<?xml version="1.0" encoding="UTF-8"?>
<svg xmlns="http://www.w3.org/2000/svg" id="Layer_1" data-name="Layer 1" viewBox="0 0 24 24">
  <path d="m23.961,6.839l-1.62,6.97c-.619,2.477-2.812,4.19-5.341,4.19H7.188c-1.747,0-3.239-1.306-3.469-3.038L2.182,3.434c-.033-.248-.246-.434-.496-.434h-.187c-.829,0-1.5-.671-1.5-1.5S.671,0,1.5,0h.187c1.747,0,3.239,1.306,3.469,3.038l.262,1.962h1.083c.829,0,1.5.671,1.5,1.5s-.671,1.5-1.5,1.5h-.683l.875,6.566c.033.248.246.434.496.434h9.812c1.149,0,2.146-.778,2.425-1.893l1.614-6.946c.188-.808.997-1.311,1.8-1.122.807.188,1.309.994,1.122,1.8ZM7,20c-1.105,0-2,.895-2,2s.895,2,2,2,2-.895,2-2-.895-2-2-2Zm10,0c-1.105,0-2,.895-2,2s.895,2,2,2,2-.895,2-2-.895-2-2-2Zm-5.5-12h2.5v2.056c0,.751.918,1.123,1.446.586l3.188-3.242c.488-.485.488-1.272,0-1.757l-3.188-3.242c-.528-.537-1.446-.165-1.446.586v2.014h-2.5c-.829,0-1.5.671-1.5,1.5s.671,1.5,1.5,1.5Z"/>
</svg>
