<svg id="Layer_1" viewBox="0 0 24 24" xmlns="http://www.w3.org/2000/svg" data-name="Layer 1"><path d="m8.942 10.057c.344.23.558.678.558 1.169v.774c0 1.103.897 2 2 2h1c1.103 0 2-.897 2-2v-.774c0-.491.214-.939.557-1.169 1.53-1.021 2.443-2.724 2.443-4.557 0-1.686-.757-3.256-2.078-4.306-1.321-1.051-3.037-1.432-4.713-1.045-2.005.462-3.6 2.058-4.062 4.065-.522 2.269.378 4.562 2.294 5.843zm.629-5.17c.203-.882.932-1.612 1.813-1.815.208-.048.416-.072.619-.072.566 0 1.102.185 1.551.542.601.478.946 1.192.946 1.958 0 .828-.414 1.599-1.108 2.062-.593.396-1.067.938-1.392 1.568-.325-.63-.798-1.172-1.392-1.568-.693-.463-1.329-1.409-1.037-2.675zm14.429 2.322v10.083c0 2.659-1.899 4.935-4.516 5.411l-5.762 1.139c-.574.104-1.147.156-1.717.157-.002 0-.003 0-.005 0 0 0-.001 0-.002 0s-.003 0-.004 0c-.568 0-1.132-.051-1.693-.153l-5.807-1.147c-2.595-.472-4.494-2.748-4.494-5.407v-10.083c0-2.25 1.349-4.251 3.436-5.099.765-.312 1.642.058 1.954.825s-.058 1.642-.825 1.954c-.95.386-1.564 1.297-1.564 2.32v10.083c0 1.209.863 2.243 2.053 2.46l5.447 1.076v-3.328c0-.829.671-1.5 1.5-1.5s1.5.671 1.5 1.5v3.328l5.425-1.072c1.212-.221 2.075-1.255 2.075-2.464v-10.083c0-1.023-.614-1.934-1.564-2.32-.768-.312-1.137-1.187-.825-1.954s1.188-1.137 1.954-.825c2.087.848 3.436 2.849 3.436 5.099z"/></svg>