<svg id="Layer_1" viewBox="0 0 24 24" xmlns="http://www.w3.org/2000/svg" data-name="Layer 1"><path d="m8 12.5c0 .828-.672 1.5-1.5 1.5s-1.5-.672-1.5-1.5.672-1.5 1.5-1.5 1.5.672 1.5 1.5zm-1.5 3.5c-.828 0-1.5.672-1.5 1.5s.672 1.5 1.5 1.5 1.5-.672 1.5-1.5-.672-1.5-1.5-1.5zm3.5 1.5c0 .828.672 1.5 1.5 1.5s1.5-.672 1.5-1.5-.672-1.5-1.5-1.5-1.5.672-1.5 1.5zm8.5-.5h-2c-.828 0-1.5.672-1.5 1.5 0 1.125-1.153 2.5-2.5 2.5h-7c-1.379 0-2.5-1.121-2.5-2.5v-13c0-1.379 1.121-2.5 2.5-2.5h5c.828 0 1.5-.672 1.5-1.5s-.672-1.5-1.5-1.5h-5c-3.032 0-5.5 2.468-5.5 5.5v13c0 3.032 2.468 5.5 5.5 5.5h7c2.546 0 4.57-1.9 5.252-4h.748c.828 0 1.5-.672 1.5-1.5s-.672-1.5-1.5-1.5zm5.5-13v7.5c0 1.933-1.567 3.5-3.5 3.5h-4c-1.933 0-3.5-1.567-3.5-3.5v-7.5c0-2.206 1.794-4 4-4h3c2.206 0 4 1.794 4 4zm-4 8c0-.552-.448-1-1-1h-1c-.552 0-1 .448-1 1s.448 1 1 1h1c.552 0 1-.448 1-1zm1-3v-5c0-.552-.448-1-1-1h-3c-.552 0-1 .448-1 1v5zm-10-.5v-3c0-.276-.224-.5-.5-.5h-4c-.828 0-1.5.672-1.5 1.5v1c0 .828.672 1.5 1.5 1.5h4c.276 0 .5-.224.5-.5z"/></svg>