<?xml version="1.0" encoding="UTF-8"?>
<svg xmlns="http://www.w3.org/2000/svg" id="Layer_1" data-name="Layer 1" viewBox="0 0 24 24">
  <path d="M16,2.5c0-1.381,1.119-2.5,2.5-2.5s2.5,1.119,2.5,2.5-1.119,2.5-2.5,2.5-2.5-1.119-2.5-2.5Zm7.111,16.302c-.312,.358-.694,.637-1.111,.839v2.859c0,.828-.672,1.5-1.5,1.5s-1.5-.672-1.5-1.5v-2.5h-1v2.5c0,.828-.672,1.5-1.5,1.5s-1.5-.672-1.5-1.5v-2.859c-.418-.203-.799-.481-1.111-.839-.665-.762-.968-1.773-.831-2.775l.816-5.988c.315-2.303,2.304-4.038,4.626-4.038s4.311,1.735,4.626,4.037l.816,5.99c.137,1.001-.166,2.013-.831,2.774Zm-7.081-2.37c.004,.375,.124,.513,.495,.568h3.949c.371-.055,.491-.193,.495-.567l-.816-5.99c-.112-.822-.823-1.442-1.653-1.442s-1.541,.62-1.653,1.443l-.816,5.988ZM13.573,3.794l-1.358-2.545c-.811-1.644-3.361-1.642-4.169,.003l-.801,1.506L3.962,1.041C2.086-.013-.079,2.266,1.135,4.118l1.909,2.854-1.839,.85c-1.629,.744-1.571,3.25,.117,3.918l1.813,.748s-1.011,1.991-1.031,2.047c-.683,1.711,1.115,3.542,2.862,2.863l2.247-.85,.91,1.702c.393,.737,1.315,1.002,2.03,.614,.73-.391,1.006-1.3,.615-2.03l-1.532-2.862c-.356-.664-1.148-.96-1.853-.695l-1.589,.602,.752-1.477c.403-.749,.029-1.76-.764-2.067l-1.512-.624,1.626-.75c.821-.357,1.134-1.463,.619-2.196l-1.034-1.545,1.695,.886c.73,.383,1.632,.103,2.019-.624l.938-1.764,.793,1.488c.39,.729,1.296,1.008,2.03,.617,.731-.39,1.007-1.298,.618-2.029Z"/>
</svg>
