<svg id="Layer_1" viewBox="0 0 24 24" xmlns="http://www.w3.org/2000/svg" data-name="Layer 1"><path d="m3 10c0 1.659.591 3.267 1.662 4.528.537.632.46 1.578-.171 2.114-.628.535-1.576.462-2.114-.171-1.533-1.803-2.377-4.101-2.377-6.471 0-5.514 4.486-10 10-10 5.292 0 9.677 4.135 9.982 9.413.049.827-.583 1.536-1.41 1.584-.827.057-1.537-.583-1.584-1.41-.215-3.693-3.284-6.587-6.988-6.587-3.859 0-7 3.141-7 7zm6-3.5v1.5h-.5c-.828 0-1.5.672-1.5 1.5s.672 1.5 1.5 1.5h2c.828 0 1.5-.672 1.5-1.5v-3c0-.828-.672-1.5-1.5-1.5s-1.5.672-1.5 1.5zm15 12c0-.652-.419-1.201-1-1.408v-.592c0-.828-.672-1.5-1.5-1.5-.176 0-.343.036-.5.092v-.592c0-.828-.672-1.5-1.5-1.5s-1.5.672-1.5 1.5v2.5h-6v-2.5c0-.828-.672-1.5-1.5-1.5s-1.5.672-1.5 1.5v.592c-.157-.056-.324-.092-.5-.092-.828 0-1.5.672-1.5 1.5v.592c-.581.207-1 .756-1 1.408s.419 1.201 1 1.408v.592c0 .828.672 1.5 1.5 1.5.176 0 .343-.036.5-.092v.592c0 .828.672 1.5 1.5 1.5s1.5-.672 1.5-1.5v-2.5h6v2.5c0 .828.672 1.5 1.5 1.5s1.5-.672 1.5-1.5v-.592c.157.056.324.092.5.092.828 0 1.5-.672 1.5-1.5v-.592c.581-.207 1-.756 1-1.408z"/></svg>