<?xml version="1.0" encoding="UTF-8"?>
<svg xmlns="http://www.w3.org/2000/svg" id="Layer_1" data-name="Layer 1" viewBox="0 0 24 24">
  <path d="M13.5,6H3.5c-.829,0-1.5,.671-1.5,1.5,0,.276-.224,.5-.5,.5-.829,0-1.5,.671-1.5,1.5v1.918c0,.969,.498,1.866,1.346,2.447-.012,.083-1.157,3.505-1.157,3.505-.81,2.181,.988,4.692,3.313,4.629h.864c1.764,0,3.293-1.134,3.805-2.821l.965-3.179h.206c1.104,0,2.077-.724,2.395-1.782l.065-.218h1.699c1.379,0,2.5-1.122,2.5-2.5v-3c0-1.378-1.121-2.5-2.5-2.5ZM5.299,18.308c-.125,.414-.5,.692-.934,.692h-.864c-.407-.06-.548-.256-.473-.662l1.087-3.192c.131-.425,.202-.805,.227-1.146h2.264l-1.308,4.308Zm7.701-7.308h-4.336c-.022,0-.046,0-.068,0H3v-.338c.727-.346,1.316-.936,1.662-1.662H13v2Zm10.623-.441l-2.214,1.107,1.929,1.929c.469,.469,.06,1.264-.594,1.155l-1.335-.222,.547,2.19c.168,.671-.655,1.137-1.144,.648l-3.483-3.532c.418-.683,.671-1.476,.671-2.333v-3c0-.859-.255-1.655-.674-2.339l3.487-3.629c.489-.489,1.312-.023,1.144,.648l-.547,2.19,1.335-.223c.655-.109,1.064,.686,.594,1.155l-1.929,1.929,2.214,1.107c.503,.251,.503,.969,0,1.22Z"/>
</svg>
