<?xml version="1.0" encoding="UTF-8"?>
<svg xmlns="http://www.w3.org/2000/svg" id="Layer_1" data-name="Layer 1" viewBox="0 0 24 24">
  <path d="M7.565,2.1C7.253,1.011,8.109-.06,9.24,.003l6.002,.51c.831,.046,1.388,.873,1.118,1.661l-.319,.826h-7.997l-.479-.9Zm4.435,6.9c2.209,0,4-1.791,4-4H8c0,2.209,1.791,4,4,4Zm11.307,13.765c-.688,.441-1.623,.246-2.071-.458l-3.235-5.072v3.266c0,1.93-1.57,3.5-3.5,3.5h-4c-1.93,0-3.5-1.57-3.5-3.5v-6.5H1.5c-.828,0-1.5-.672-1.5-1.5s.672-1.5,1.5-1.5H12.65c3.134,0,6.087,1.667,7.706,4.352l3.408,5.342c.445,.698,.24,1.626-.458,2.071ZM13.061,14.027c-.137-.01-.272-.027-.41-.027h-2.65v3.872l3.061-3.844Zm1.939,2.382l-3.655,4.591h3.155c.275,0,.5-.225,.5-.5v-4.091Z"/>
</svg>
