<svg id="Layer_1" viewBox="0 0 24 24" xmlns="http://www.w3.org/2000/svg" data-name="Layer 1"><path d="m9.5 2.5c0-1.381 1.119-2.5 2.5-2.5s2.5 1.119 2.5 2.5-1.119 2.5-2.5 2.5-2.5-1.119-2.5-2.5zm-7 6.5c1.381 0 2.5-1.119 2.5-2.5s-1.119-2.5-2.5-2.5-2.5 1.119-2.5 2.5 1.119 2.5 2.5 2.5zm3.5 8h-1v-3.5c0-1.381-1.119-2.5-2.5-2.5s-2.5 1.119-2.5 2.5v4c0 1.381 1.119 2.5 2.5 2.5h3.5v2.5c0 .828.671 1.5 1.5 1.5s1.5-.672 1.5-1.5v-2.5c0-1.654-1.346-3-3-3zm15.5-8c1.381 0 2.5-1.119 2.5-2.5s-1.119-2.5-2.5-2.5-2.5 1.119-2.5 2.5 1.119 2.5 2.5 2.5zm0 2c-1.381 0-2.5 1.119-2.5 2.5v3.5h-1c-1.654 0-3 1.346-3 3v2.5c0 .828.671 1.5 1.5 1.5s1.5-.672 1.5-1.5v-2.5h3.5c1.381 0 2.5-1.119 2.5-2.5v-4c0-1.381-1.119-2.5-2.5-2.5zm-13 4h7c.829 0 1.5-.672 1.5-1.5s-.671-1.5-1.5-1.5v-1.5c0-1.933-1.567-3.5-3.5-3.5s-3.5 1.567-3.5 3.5v1.5c-.829 0-1.5.671-1.5 1.5s.671 1.5 1.5 1.5zm-6 6h-1c-.829 0-1.5.672-1.5 1.5s.671 1.5 1.5 1.5h1c.829 0 1.5-.672 1.5-1.5s-.671-1.5-1.5-1.5zm20 0h-1c-.829 0-1.5.672-1.5 1.5s.671 1.5 1.5 1.5h1c.829 0 1.5-.672 1.5-1.5s-.671-1.5-1.5-1.5z"/></svg>