<?xml version="1.0" encoding="UTF-8"?>
<svg xmlns="http://www.w3.org/2000/svg" id="Layer_1" data-name="Layer 1" viewBox="0 0 24 24">
  <path d="m6.5,12c.828,0,1.5.672,1.5,1.5s-.672,1.5-1.5,1.5-1.5-.672-1.5-1.5.672-1.5,1.5-1.5Zm17.5-4.5v1c0,.829-.672,1.5-1.5,1.5H3v4.5c0,1.379,1.122,2.5,2.5,2.5h3c.829,0,1.5.672,1.5,1.5s-.671,1.5-1.5,1.5h-3c-3.033,0-5.5-2.468-5.5-5.5v-7C0,4.467,2.467,2,5.5,2h13c3.032,0,5.5,2.467,5.5,5.5Zm-3.05-.5c-.232-1.14-1.243-2-2.45-2H5.5c-1.208,0-2.217.86-2.45,2h17.9Zm3.05,11c0,3.314-2.686,6-6,6s-6-2.686-6-6,2.686-6,6-6,6,2.686,6,6Zm-2.325-1.954c-.392-.401-1.038-.401-1.43,0l-2.899,2.971-1.496-1.553c-.393-.408-1.047-.408-1.44,0-.372.387-.373.999,0,1.386l1.515,1.575c.765.765,2.079.763,2.823.019l.004-.004h-.001l2.925-2.997c.379-.389.379-1.009,0-1.397Z"/>
</svg>
