<svg id="Layer_1" viewBox="0 0 24 24" xmlns="http://www.w3.org/2000/svg" data-name="Layer 1"><path d="m18 12c-3.314 0-6 2.686-6 6s2.686 6 6 6 6-2.686 6-6-2.686-6-6-6zm3.925 7.235c-.335 1.636-1.855 2.765-3.525 2.765h-.399c-.552 0-1-.448-1-1s.448-1 1-1h.5c.827 0 1.5-.673 1.5-1.5s-.673-1.5-1.5-1.5h-1.46v.843c0 .584-.707.877-1.12.464l-1.648-1.648c-.364-.364-.364-.954 0-1.318l1.648-1.648c.413-.413 1.12-.121 1.12.464v.843h1.46c2.17 0 3.885 1.986 3.425 4.235zm-3.932-10.804c-.016.889.692 1.623 1.609 1.565.879-.055 1.505-.86 1.387-1.725-.02-1.958-1.087-3.769-2.795-4.734l-5.002-2.825c-1.669-.943-3.745-.944-5.416.002l-4.986 2.824c-1.721.974-2.79 2.808-2.79 4.786v5.804c0 1.969 1.062 3.799 2.771 4.775l5.024 2.872c.707.406 1.633.167 2.047-.559.411-.719.161-1.636-.558-2.047l-5.025-2.872c-.777-.443-1.259-1.275-1.259-2.17v-5.698l5.993 3.425v.645c0 .828.671 1.5 1.5 1.5s1.5-.672 1.5-1.5v-.64l5.999-3.428zm-8.739-5.106c.759-.431 1.702-.431 2.462 0l4.61 2.604-5.829 3.331-5.835-3.335z"/></svg>