<svg id="Layer_1" viewBox="0 0 24 24" xmlns="http://www.w3.org/2000/svg" data-name="Layer 1"><path d="m6.5 11c-3.59 0-6.5 2.91-6.5 6.5s2.91 6.5 6.5 6.5 6.5-2.91 6.5-6.5-2.91-6.5-6.5-6.5zm3.278 8.435c-.153 1.08-1.108 1.865-2.199 1.865h-.28v.4c0 .442-.358.8-.8.8s-.8-.358-.8-.8v-.4c-.777 0-1.513-.267-1.971-.833-.418-.504-.063-1.266.592-1.266.252-.017.493.084.664.274.128.139.312.226.515.226h2.103c.278 0 .532-.187.586-.46.063-.318-.146-.615-.451-.677l-2.791-.559c-1.112-.223-1.888-1.281-1.725-2.439.152-1.08 1.108-1.866 2.199-1.866h.28v-.4c0-.442.358-.8.8-.8s.8.358.8.8v.4h.2c.711 0 1.348.324 1.77.833.418.504.063 1.266-.592 1.266-.252.017-.493-.084-.664-.274-.128-.139-.312-.226-.515-.226h-2.102c-.278 0-.532.186-.587.458-.064.318.146.617.449.678l2.792.559c1.112.222 1.889 1.282 1.725 2.439zm-9.778-11.713c0-.541.282-1.056.762-1.306.725-.378 1.49-.688 2.288-.92.972-.282 1.951.424 1.951 1.436v.003c0 .672-.451 1.253-1.097 1.438-.587.168-1.151.391-1.687.663-1.014.516-2.216-.176-2.216-1.315zm20.492 10.068c.415.471.081 1.21-.547 1.21h-1.067c-.184 1.51-.626 2.941-1.3 4.237-.25.48-.765.763-1.307.763-1.132 0-1.835-1.194-1.319-2.202.443-.865.756-1.806.916-2.798h-.814c-.627 0-.961-.74-.546-1.21l2.092-2.373c.48-.556 1.32-.556 1.8 0zm-8.992-12.39h-.9v-1.8h.9c.496 0 .9.404.9.9s-.404.9-.9.9zm6.9-.9v3c0 .496-.404.9-.9.9s-.9-.404-.9-.9v-3c0-.496.404-.9.9-.9s.9.404.9.9zm2.6-4.5h-11c-1.657 0-3 1.343-3 3v6.025c.691.04 1.363.154 2 .35v-6.545c0-.459.372-.83.83-.83h1.537c1.284 0 2.456.908 2.613 2.182.121.976-.311 1.847-1.034 2.355l.728 2.391c.162.533-.237 1.072-.794 1.072-.369 0-.694-.244-.797-.598l-.698-2.402h-.784v3.062c1.005.555 1.884 1.306 2.587 2.203l1.775 1.495c.307.273.769.273 1.076 0l2.129-1.76h2.833c1.657 0 3-1.343 3-3v-6c0-1.657-1.343-3-3-3zm-1 7.5c0 1.379-1.121 2.5-2.5 2.5s-2.5-1.121-2.5-2.5v-3c0-1.379 1.121-2.5 2.5-2.5s2.5 1.121 2.5 2.5zm2.5 1.7c0 .442-.358.8-.8.8s-.8-.358-.8-.8v-6.4c0-.442.358-.8.8-.8s.8.358.8.8z"/></svg>