<svg id="Layer_1" viewBox="0 0 24 24" xmlns="http://www.w3.org/2000/svg" data-name="Layer 1"><path d="m21 2.5c0-.828.672-1.5 1.5-1.5s1.5.672 1.5 1.5-.672 1.5-1.5 1.5-1.5-.672-1.5-1.5zm-4-2.5c-.904 0-1.706.409-2.256 1.041-.341-.617-.99-1.041-1.744-1.041-1.103 0-2 .897-2 2-1.614 0-3.143.358-4.525.985-.457-.595-1.168-.985-1.975-.985-1.379 0-2.5 1.121-2.5 2.5 0 .173.018.342.051.505-1.12-.045-2.053.878-2.051 1.995 0 .695.355 1.306.894 1.665-.573 1.331-.894 2.796-.894 4.335 0 3.834 1.947 7.331 5.209 9.354.693.432 1.626.227 2.065-.484.437-.704.22-1.628-.483-2.065-2.374-1.472-3.791-4.016-3.791-6.804 0-4.411 3.589-8 8-8 2.234 0 4.383.945 5.895 2.592.562.61 1.51.652 2.12.091.61-.56.65-1.509.091-2.119-.075-.082-.16-.154-.238-.233.685-.55 1.132-1.384 1.132-2.33 0-1.657-1.343-3-3-3zm1.5 10c-.828 0-1.5.671-1.5 1.5v4c0 .829.672 1.5 1.5 1.5s1.5-.671 1.5-1.5v-4c0-.829-.672-1.5-1.5-1.5zm-4 1c-.829 0-1.5.671-1.5 1.5v6.247l-.51-.51c-.704-.704-1.839-.876-2.647-.294-1.03.742-1.116 2.188-.257 3.047l2.306 2.305c.451.451 1.063.705 1.702.705 1.329 0 2.407-1.078 2.407-2.407v-9.093c0-.828-.672-1.5-1.5-1.5zm8 1c-.828 0-1.5.671-1.5 1.5v9c0 .829.672 1.5 1.5 1.5s1.5-.671 1.5-1.5v-9c0-.829-.672-1.5-1.5-1.5zm-14.5 1c0-1.27.804-2.407 2-2.83.781-.276 1.19-1.133.914-1.914s-1.135-1.191-1.914-.914c-2.393.846-4 3.12-4 5.658 0 1.369.474 2.708 1.334 3.772.523.647 1.47.741 2.109.223.644-.521.744-1.465.223-2.11-.436-.539-.666-1.191-.666-1.885z"/></svg>