<svg id="Layer_1" viewBox="0 0 24 24" xmlns="http://www.w3.org/2000/svg" data-name="Layer 1"><path d="m20.559 14.274c-1.07-2.596-1.559-5.233-1.559-6.774 0-.275.224-.5.5-.5s.5.225.5.5c0 .828.671 1.5 1.5 1.5s1.5-.672 1.5-1.5c0-1.93-1.57-3.5-3.5-3.5s-3.5 1.57-3.5 3.5c0 .514.044 1.078.114 1.665l-7.055 5.291c-.63-.287-1.323-.456-2.059-.456-2.757 0-5 2.243-5 5s2.243 5 5 5 5-2.243 5-5c0-.908-.262-1.75-.687-2.484l5.454-4.091c.172.628.37 1.255.59 1.875-1.948.684-3.357 2.522-3.357 4.7 0 2.757 2.243 5 5 5s5-2.243 5-5c0-2.209-1.45-4.067-3.441-4.726zm-13.559 6.726c-1.103 0-2-.897-2-2s.897-2 2-2 2 .897 2 2-.897 2-2 2zm12 0c-1.103 0-2-.897-2-2s.897-2 2-2 2 .897 2 2-.897 2-2 2zm-7-15c0-3.314-2.686-6-6-6s-6 2.686-6 6 2.686 6 6 6 6-2.686 6-6zm-6.729 4c-.324.001-.554-.335-.452-.661l.519-2.339h-1.793c-.364.002-.626-.369-.523-.738l1.313-3.691c.125-.344.437-.571.785-.571h1.665c.352 0 .589.382.45.725l-.844 2.275h2.073c.424-.002.681.497.448.873l-3.266 3.93c-.089.124-.228.196-.375.197z"/></svg>