<svg id="Layer_1" viewBox="0 0 24 24" xmlns="http://www.w3.org/2000/svg" data-name="Layer 1"><path d="m15.5 13c.828 0 1.5.671 1.5 1.5v3c0 .829-.672 1.5-1.5 1.5h-9c-.828 0-1.5-.671-1.5-1.5v-3c0-.829.672-1.5 1.5-1.5zm7.729-.954c-1.165 1.008-2.621 1.684-4.229 1.885v4.569c0 1.378-1.122 2.5-2.5 2.5h-11c-1.378 0-2.5-1.122-2.5-2.5v-5c0-1.378 1.122-2.5 2.5-2.5h3.5c.829 0 1.5-.671 1.5-1.5s-.671-1.5-1.5-1.5h-3.5c-3.033 0-5.5 2.467-5.5 5.5v5c0 3.033 2.467 5.5 5.5 5.5h11c2.512 0 4.632-1.695 5.287-4h1.213c.552 0 1-.448 1-1v-6c0-.471-.333-.848-.771-.954zm-11.229-6.046c0-3.314 2.686-6 6-6s6 2.686 6 6-2.686 6-6 6-6-2.686-6-6zm5-1c0 .553.448 1 1 1s1-.447 1-1v-2c0-.553-.448-1-1-1s-1 .447-1 1zm-.5 3.5c0 .828.672 1.5 1.5 1.5s1.5-.672 1.5-1.5-.672-1.5-1.5-1.5-1.5.672-1.5 1.5z"/></svg>