<svg id="Layer_1" viewBox="0 0 24 24" xmlns="http://www.w3.org/2000/svg" data-name="Layer 1"><path d="m20.143 7c2.13 0 3.857-1.727 3.857-3.857v-1.643c0-.829-.672-1.5-1.5-1.5s-1.5.671-1.5 1.5v1.5c0 .552-.448 1-1 1h-2.431c-1.227-1.827-3.299-2.993-5.563-2.999-.002 0-.005 0-.007 0s0 0-.001 0c-2.264.003-4.339 1.17-5.568 3h-2.429c-.552 0-1-.448-1-1v-1.5c0-.829-.671-1.5-1.5-1.5s-1.501.67-1.501 1.499v1.643c0 2.13 1.727 3.857 3.857 3.857h1.422l-1.017 4h-2.762c-.829 0-1.5.671-1.5 1.5s.671 1.5 1.5 1.5h2.066c-.022.244-.033.48-.036.702.001.801.119 1.57.328 2.298-2.13 0-3.857 1.727-3.857 3.857v1.643c0 .829.671 1.5 1.5 1.5s1.5-.671 1.5-1.5v-1.5c0-.552.448-1 1-1h1.441c1.542 1.84 3.889 2.997 6.561 3 2.668-.003 5.012-1.158 6.553-3h1.445c.552 0 1 .448 1 1v1.5c0 .829.672 1.5 1.5 1.5s1.5-.671 1.5-1.5v-1.643c0-2.13-1.727-3.857-3.857-3.857h-.005c.211-.735.33-1.512.331-2.322-.003-.216-.014-.444-.036-.678h2.067c.828 0 1.5-.671 1.5-1.5s-.672-1.5-1.5-1.5h-2.762l-1.018-4h1.423zm-8.141 13c-3.065-.003-5.468-2.333-5.472-5.276.004-.29.015-.506.038-.624l1.971-7.741c.555-1.412 1.938-2.357 3.459-2.359 1.525.002 2.908.947 3.463 2.359l1.961 7.702c.034.182.044.396.048.637-.004 2.97-2.406 5.299-5.467 5.302zm1.122-12.355c-.502-.861-1.746-.861-2.248 0l-3.84 6.398c-.506.867.12 1.957 1.124 1.957h7.68c1.004 0 1.63-1.089 1.124-1.957zm-1.124 7.355c-.552 0-1-.448-1-1s.448-1 1-1 1 .448 1 1-.448 1-1 1zm1-4c0 .552-.448 1-1 1s-1-.448-1-1v-1c0-.552.448-1 1-1s1 .448 1 1z"/></svg>