<svg id="Layer_1" viewBox="0 0 24 24" xmlns="http://www.w3.org/2000/svg" data-name="Layer 1"><path d="m10.406 13.953c.378.386.38 1.003.005 1.392l-2.223 2.306c-.459.474-1.22.471-1.674-.007l-1.302-1.318c-.381-.386-.385-1.005-.009-1.395l.006-.007c.387-.403 1.029-.409 1.425-.015l.726.723 1.612-1.673c.391-.406 1.04-.408 1.434-.005zm-.627-7.66c-.391-.391-1.023-.391-1.414 0l-.793.793-.793-.793c-.391-.391-1.023-.391-1.414 0s-.391 1.023 0 1.414l.793.793-.793.793c-.391.391-.391 1.023 0 1.414s1.023.391 1.414 0l.793-.793.793.793c.391.391 1.023.391 1.414 0s.391-1.023 0-1.414l-.793-.793.793-.793c.391-.391.391-1.023 0-1.414zm-1.279 14.707h-3c-1.378 0-2.5-1.121-2.5-2.5v-13c0-1.379 1.122-2.5 2.5-2.5h9c1.378 0 2.5 1.121 2.5 2.5v3c0 .828.671 1.5 1.5 1.5s1.5-.672 1.5-1.5v-3c0-3.032-2.467-5.5-5.5-5.5h-9c-3.033 0-5.5 2.468-5.5 5.5v13c0 3.032 2.467 5.5 5.5 5.5h3c.829 0 1.5-.672 1.5-1.5s-.671-1.5-1.5-1.5zm5-11c.829 0 1.5-.672 1.5-1.5s-.671-1.5-1.5-1.5h-1c-.829 0-1.5.672-1.5 1.5s.671 1.5 1.5 1.5zm7.716 6c.087.316.177.653.263 1h1.521c.552 0 1 .447 1 1s-.448 1-1 1h-1.097c.06.383.097.728.097 1 1.103 0 2 .897 2 2v1c0 .553-.448 1-1 1s-1-.447-1-1v-1h-.556c-.694 1.19-1.97 2-3.444 2s-2.75-.81-3.444-2h-.556v1c0 .553-.448 1-1 1s-1-.447-1-1v-1c0-1.103.897-2 2-2 0-.275.036-.619.096-1h-1.096c-.552 0-1-.447-1-1s.448-1 1-1h1.522c.087-.348.177-.686.264-1h-.786c-1.103 0-2-.897-2-2v-1c0-.553.448-1 1-1s1 .447 1 1v1h1.417c.555-1.356 1.383-2 2.583-2 1.453 0 2.096.729 2.59 2h1.41v-1c0-.553.448-1 1-1s1 .447 1 1v1c0 1.103-.897 2-2 2zm-2.216 4c0-.673-.586-3.008-1-4.318-.429 1.37-1 3.648-1 4.318 0 .552.449 1 1 1s1-.448 1-1z"/></svg>