<svg id="Layer_1" viewBox="0 0 24 24" xmlns="http://www.w3.org/2000/svg" data-name="Layer 1"><path d="m24 8.5v1c0 .829-.672 1.5-1.5 1.5s-1.5-.671-1.5-1.5v-1c0-1.378-1.121-2.5-2.5-2.5h-13c-1.379 0-2.5 1.122-2.5 2.5v2.5h7.5c.828 0 1.5.671 1.5 1.5s-.672 1.5-1.5 1.5h-7.5v4.5c0 1.379 1.121 2.5 2.5 2.5h6c.828 0 1.5.672 1.5 1.5s-.672 1.5-1.5 1.5h-6c-3.032 0-5.5-2.468-5.5-5.5v-10c0-3.033 2.468-5.5 5.5-5.5h.642c.447-1.72 1.999-3 3.858-3h4c1.859 0 3.411 1.28 3.858 3h.642c3.032 0 5.5 2.467 5.5 5.5zm-1.912 5.3c-.379-.504-.972-.8-1.603-.8h-1.61l1.128 3h-4.008l1.128-3h-1.608c-.631 0-1.225.296-1.603.8l-1.561 2.077c-.493.656-.463 1.565.071 2.188l5.577 5.935-2.064-6h4.129l-2.064 6 5.579-5.935c.535-.622.564-1.532.071-2.188l-1.561-2.077z"/></svg>