<svg id="Layer_1" viewBox="0 0 24 24" xmlns="http://www.w3.org/2000/svg" data-name="Layer 1"><path d="m3.038 2.5c0-1.381 1.119-2.5 2.5-2.5s2.5 1.119 2.5 2.5-1.119 2.5-2.5 2.5-2.5-1.119-2.5-2.5zm4.501 8.5c-.829 0-1.5.671-1.5 1.5v2.5h-1.5c-.827 0-1.5-.673-1.5-1.5v-3c0-.827.673-1.5 1.5-1.5h8.999c.828 0 1.5-.671 1.5-1.5s-.672-1.5-1.5-1.5h-8.999c-2.482 0-4.5 2.019-4.5 4.5v3c0 1.557.795 2.93 2 3.738v5.262c0 .829.671 1.5 1.5 1.5s1.5-.671 1.5-1.5v-4.5h1v4.5c0 .829.671 1.5 1.5 1.5s1.5-.671 1.5-1.5v-10c0-.829-.671-1.5-1.5-1.5zm11.999-11h-8c-.829 0-1.5.671-1.5 1.5s.671 1.5 1.5 1.5h8c.827 0 1.5.673 1.5 1.5v6c0 .827-.673 1.5-1.5 1.5h-7c-.829 0-1.5.671-1.5 1.5s.671 1.5 1.5 1.5h.461v2.511c-.604.456-1 1.173-1 1.989 0 1.381 1.119 2.5 2.5 2.5s2.5-1.119 2.5-2.5c0-.815-.396-1.532-1-1.989v-2.511h3.538c2.481 0 4.5-2.019 4.5-4.5v-6c0-2.481-2.019-4.5-4.5-4.5z"/></svg>