<svg id="Layer_1" viewBox="0 0 24 24" xmlns="http://www.w3.org/2000/svg" data-name="Layer 1"><path d="m12 9c2.481 0 4.5-2.019 4.5-4.5s-2.019-4.5-4.5-4.5-4.5 2.019-4.5 4.5 2.019 4.5 4.5 4.5zm0-6c.827 0 1.5.673 1.5 1.5s-.673 1.5-1.5 1.5-1.5-.673-1.5-1.5.673-1.5 1.5-1.5zm-11 3.5c0-.828.672-1.5 1.5-1.5s1.5.672 1.5 1.5-.672 1.5-1.5 1.5-1.5-.672-1.5-1.5zm13 11c0 .828-.672 1.5-1.5 1.5s-1.5-.672-1.5-1.5.672-1.5 1.5-1.5 1.5.672 1.5 1.5zm6-9c0-.828.672-1.5 1.5-1.5s1.5.672 1.5 1.5-.672 1.5-1.5 1.5-1.5-.672-1.5-1.5zm2.5 12.5h-4.5v-5.99c.393.154.786.31 1.163.499l2.666 1.333c.215.107.444.158.67.158.55 0 1.08-.304 1.343-.829.37-.741.07-1.642-.671-2.013l-2.666-1.333c-2.387-1.194-5.061-1.825-7.732-1.825h-1.545c-2.671 0-5.345.631-7.732 1.825l-2.666 1.333c-.741.371-1.041 1.271-.671 2.013.372.74 1.272 1.041 2.013.671l2.666-1.333c.377-.189.77-.345 1.163-.499v5.99h-4.501c-.829 0-1.5.672-1.5 1.5s.671 1.5 1.5 1.5h21c.829 0 1.5-.672 1.5-1.5s-.671-1.5-1.5-1.5zm-13.5-6.802c.738-.117 1.481-.198 2.228-.198h1.545c.747 0 1.49.081 2.228.198v6.802h-6v-6.802z"/></svg>