<svg id="Layer_1" viewBox="0 0 24 24" xmlns="http://www.w3.org/2000/svg" data-name="Layer 1"><path d="m12.075 12.709-2.828 2.828c-.586.586-1.536.586-2.121 0s-.586-1.536 0-2.121l2.828-2.828c.586-.586 1.536-.586 2.121 0 .586.586.586 1.536 0 2.121zm.707.707-2.828 2.828c-.586.586-.586 1.536 0 2.121s1.536.586 2.121 0l2.828-2.828c.586-.586.586-1.536 0-2.121s-1.536-.586-2.121 0zm5.657.024-5.364 5.364c-1.416 1.416-3.3 2.196-5.303 2.196h-2.272c-1.379 0-2.5-1.121-2.5-2.5v-3c0-1.379 1.121-2.5 2.5-2.5h.5c1.103 0 2-.897 2-2s-.897-2-2-2h-.5c-3.032 0-5.5 2.468-5.5 5.5v4c0 3.032 2.468 5.5 5.5 5.5h2.272c2.805 0 5.441-1.092 7.424-3.075l5.364-5.364c.586-.586.586-1.535 0-2.121s-1.535-.586-2.121 0zm-9.352-3.405 4.474-4.474c.586-.586.586-1.536 0-2.121s-1.536-.586-2.121 0l-4.474 4.473c1.012.318 1.804 1.11 2.121 2.121zm10.469-4.034h-2.735c-.55 0-.944-.531-.785-1.058l1.884-4.344c.124-.358.461-.599.84-.599h1.876c.624 0 1.053.625.83 1.208l-.85 1.792h2.579c.642 0 1.025.715.67 1.249l-4.037 5.411c-.498.722-1.624.191-1.383-.652l1.111-3.008z"/></svg>