<svg id="Layer_1" viewBox="0 0 24 24" xmlns="http://www.w3.org/2000/svg" data-name="Layer 1"><path d="m24 19.5v3c0 .828-.671 1.5-1.5 1.5h-4c-2.372 0-4.468-1.512-5.218-3.761l-.987-2.963-2.986 1.698c-.58.33-1.22.498-1.869.498-.736.008-1.495-.233-2.098-.651l-1.624.971c-.707.442-1.713.164-2.091-.577l-1.218-2.268c-.379-.706-.137-1.586.551-1.997l1.131-.676-1.281-.668c-.487-.252-.797-.752-.807-1.301s.28-1.06.758-1.331l7.497-4.266c.72-.407 1.636-.157 2.045.562.41.721.158 1.637-.562 2.046l-5.156 2.934c.125.113.23.247.311.396l1.846 3.419c.333.437.568.506 1.083.303l5.433-3.09c.722-.407 1.636-.158 2.045.562.368.646.199 1.447-.359 1.901l1.183 3.549c.341 1.022 1.294 1.71 2.372 1.71h2.5v-1.5c0-.828.671-1.5 1.5-1.5s1.5.672 1.5 1.5zm-12-13.5c0-3.314 2.686-6 6-6s6 2.686 6 6-2.686 6-6 6-6-2.686-6-6zm5-1c0 .553.448 1 1 1s1-.447 1-1v-2c0-.553-.448-1-1-1s-1 .447-1 1zm-.5 3.5c0 .828.672 1.5 1.5 1.5s1.5-.672 1.5-1.5-.672-1.5-1.5-1.5-1.5.672-1.5 1.5z"/></svg>