<?xml version="1.0" encoding="UTF-8"?>
<svg xmlns="http://www.w3.org/2000/svg" id="Layer_1" data-name="Layer 1" viewBox="0 0 24 24">
  <path d="M8.5,10.5c0-1.933,1.567-3.5,3.5-3.5s3.5,1.567,3.5,3.5-1.567,3.5-3.5,3.5-3.5-1.567-3.5-3.5Zm9.5-3.5c1.933,0,3.5-1.567,3.5-3.5s-1.567-3.5-3.5-3.5-3.5,1.567-3.5,3.5,1.567,3.5,3.5,3.5Zm-12,0c1.933,0,3.5-1.567,3.5-3.5S7.933,0,6,0,2.5,1.567,2.5,3.5s1.567,3.5,3.5,3.5Zm18,15.5c0,.828-.672,1.5-1.5,1.5H1.5c-.828,0-1.5-.672-1.5-1.5s.672-1.5,1.5-1.5H6c0-3.309,2.691-6,6-6s6,2.691,6,6h4.5c.828,0,1.5,.672,1.5,1.5Zm-15-1.5h6c0-1.654-1.346-3-3-3s-3,1.346-3,3Zm8.009-11.638c-.091,.823,.503,1.565,1.326,1.656,1.381,.152,2.494,1.266,2.646,2.646,.088,.827,.847,1.419,1.656,1.326,.823-.091,1.417-.832,1.326-1.656-.306-2.765-2.534-4.993-5.299-5.299-.843-.086-1.565,.503-1.656,1.326ZM1.362,14.991c.81,.093,1.568-.499,1.656-1.326,.152-1.381,1.266-2.494,2.646-2.646,.823-.091,1.417-.833,1.326-1.656-.092-.823-.822-1.413-1.656-1.326C2.57,8.342,.342,10.57,.036,13.335c-.091,.824,.503,1.565,1.326,1.656Z"/>
</svg>
