<svg id="Layer_1" viewBox="0 0 24 24" xmlns="http://www.w3.org/2000/svg" data-name="Layer 1"><path d="m22.5 13.584v2.666c0 3.722-3.028 6.75-6.75 6.75s-6.75-3.028-6.75-6.75v-2.932c-2.862-.68-5-3.251-5-6.318v-2.188c0-2.2 1.477-4.155 3.59-4.755.793-.229 1.626.236 1.853 1.033s-.236 1.626-1.033 1.853c-.83.236-1.41 1.004-1.41 1.869v2.188c0 1.93 1.57 3.5 3.5 3.5s3.5-1.57 3.5-3.5v-2.188c0-.865-.58-1.633-1.41-1.869-.797-.226-1.26-1.056-1.033-1.853.226-.797 1.056-1.261 1.852-1.033 2.114.6 3.591 2.555 3.591 4.754v2.188c0 3.067-2.138 5.638-5 6.318v2.932c0 2.067 1.683 3.75 3.75 3.75s3.75-1.683 3.75-3.75v-2.666c-.893-.52-1.5-1.476-1.5-2.584 0-1.657 1.343-3 3-3s3 1.343 3 3c0 1.108-.607 2.064-1.5 2.584zm-16.693 4.203-3.285-.547c-.303-.051-.522-.31-.522-.616 0-.344.28-.624.624-.624h2.644c.356 0 .688.191.867.501.277.479.89.643 1.366.364.479-.276.642-.888.365-1.366-.535-.925-1.531-1.499-2.598-1.499h-.268c0-.553-.448-1-1-1s-1 .447-1 1h-.376c-1.447 0-2.624 1.177-2.624 2.624 0 1.288.922 2.377 2.193 2.589l3.285.547c.303.051.522.31.522.616 0 .344-.28.624-.624.624h-2.644c-.356 0-.688-.191-.867-.501-.277-.478-.89-.643-1.366-.364-.479.276-.642.888-.365 1.366.535.925 1.531 1.499 2.598 1.499h.268c0 .553.448 1 1 1s1-.447 1-1h.376c1.447 0 2.624-1.177 2.624-2.624 0-1.288-.922-2.377-2.193-2.589z"/></svg>