<svg id="Layer_1" viewBox="0 0 24 24" xmlns="http://www.w3.org/2000/svg" data-name="Layer 1"><path d="m23.003 0h-4.997s-2 .004-2 2.004c0 2.339-1.367 3.305-2.503 3.707v-2.405c.306-.351.497-.804.497-1.306 0-1.105-.895-2-2-2s-2 .895-2 2c0 .506.194.963.504 1.315v2.398c-1.137-.402-2.507-1.368-2.507-3.708 0-2.001-2-2.005-2-2.005h-4.997s-1 0-1 1.002c0 1.454.933 1.903 1.5 1.999h3.13c.241 0 .442.176.482.413 0 .004.002.009.002.013.051.3-.176.575-.48.575h-1.916c-.544-.001-.892.587-.622 1.059.538.939 1.747.94 1.747.94h2.036c.158 0 .307.075.399.204.003.004.005.007.008.011.238.328.005.786-.399.786h-1.17c-.543 0-.891.587-.621 1.059.537.939 1.743.939 1.743.939h4.663v2.002h-1.891c-1.759 0-3.289 1.256-3.561 2.923-.389 2.07 1.351 4.126 3.453 4.077h1.997v.991h-.017c-1.367 0-2.481 1.112-2.484 2.504-.033 1.335 1.145 2.521 2.475 2.494l.512.003c1.161.028 2.248-.858 2.463-1.994l1.056.003c1.93 0 3.5-1.57 3.5-3.501s-1.57-3.5-3.5-3.5h-1.004v-1h2.571c1.086 0 2.054-.499 2.692-1.28.561-.686.057-1.72-.828-1.72-1.231 0-3.2 0-4.434 0v-2.002h4.661s1.207 0 1.743-.939c.27-.472-.078-1.059-.621-1.059h-1.17c-.405 0-.637-.458-.399-.786.003-.004.005-.007.008-.011.092-.128.241-.204.399-.204h2.036s1.209-.001 1.747-.94c.27-.472-.078-1.06-.622-1.06h-1.916c-.305.001-.531-.274-.48-.574 0-.005.002-.009.002-.013.04-.237.242-.413.482-.413h3.13c.567-.096 1.5-.545 1.5-1.999 0-1.002-1-1.002-1-1.002zm-12.502 15.002h-1.997c-.38-.053-.508-.218-.492-.595.036-.22.311-.405.6-.405h1.891v1zm4.003 3c.275 0 .5.225.5.501s-.225.5-.496.5l-1.008-.003v-.998z"/></svg>