<svg id="Layer_1" viewBox="0 0 24 24" xmlns="http://www.w3.org/2000/svg" data-name="Layer 1"><path d="m6.5 12c.829 0 1.5.671 1.5 1.5v2c0 .829-.671 1.5-1.5 1.5s-1.5-.671-1.5-1.5v-2c0-.829.671-1.5 1.5-1.5zm17.061 9.439c.586.585.586 1.536 0 2.121-.586.586-1.535.586-2.121 0l-2.145-2.145c-.691.361-1.463.584-2.295.584-2.757 0-5-2.243-5-5s2.243-5 5-5 5 2.243 5 5c0 .831-.223 1.604-.584 2.295zm-4.561-4.439c0-1.103-.897-2-2-2s-2 .897-2 2 .897 2 2 2 2-.897 2-2zm5-11.5v6c0 .829-.672 1.5-1.5 1.5s-1.5-.671-1.5-1.5v-4.5h-18v9.5c0 1.378 1.122 2.5 2.5 2.5h4c.829 0 1.5.671 1.5 1.5s-.671 1.5-1.5 1.5h-4c-3.033 0-5.5-2.467-5.5-5.5v-11c0-3.038 2.462-5.5 5.5-5.5h13c3.038 0 5.5 2.462 5.5 5.5zm-18-2c0-.828-.672-1.5-1.5-1.5s-1.5.672-1.5 1.5.672 1.5 1.5 1.5 1.5-.672 1.5-1.5zm5 0c0-.828-.672-1.5-1.5-1.5s-1.5.672-1.5 1.5.672 1.5 1.5 1.5 1.5-.672 1.5-1.5zm2 8v-1c0-.829-.671-1.5-1.5-1.5s-1.5.671-1.5 1.5v1c0 .829.671 1.5 1.5 1.5s1.5-.671 1.5-1.5z"/></svg>