<svg id="Layer_1" viewBox="0 0 24 24" xmlns="http://www.w3.org/2000/svg" data-name="Layer 1"><path d="m21.5 5h-9.532c.65-1.012 1.032-2.211 1.032-3.5 0-.828-.671-1.5-1.5-1.5s-1.5.672-1.5 1.5c0 1.93-1.57 3.5-3.5 3.5h-4c-.829 0-1.5.672-1.5 1.5-.005.898.783 1.576 1.667 1.5l1.316 11.145c.327 2.769 2.675 4.855 5.462 4.855h5.034c2.787 0 5.135-2.087 5.462-4.855l1.316-11.145c.907.099 1.751-.564 1.744-1.5 0-.828-.671-1.5-1.5-1.5zm-14.868 11-.354-3h4.222c.276 0 .5.225.5.5v2c0 .275-.224.5-.5.5zm10.329 2.793c-.148 1.258-1.216 2.207-2.483 2.207h-5.034c-1.195 0-2.202-.849-2.438-2h3.494c1.93 0 3.5-1.57 3.5-3.5v-2c0-1.93-1.57-3.5-3.5-3.5h-4.576l-.236-2h12.548l-1.274 10.793z"/></svg>