<svg id="Layer_1" viewBox="0 0 24 24" xmlns="http://www.w3.org/2000/svg" data-name="Layer 1"><path d="m6.5 10c.828 0 1.5.672 1.5 1.5s-.672 1.5-1.5 1.5-1.5-.672-1.5-1.5.672-1.5 1.5-1.5zm17.5-4.5v4c0 .829-.672 1.5-1.5 1.5s-1.5-.671-1.5-1.5v-1.5h-18v4.5c0 1.378 1.121 2.5 2.5 2.5h3c.828 0 1.5.671 1.5 1.5s-.672 1.5-1.5 1.5h-3c-3.032 0-5.5-2.467-5.5-5.5v-7c0-3.033 2.468-5.5 5.5-5.5h13c3.032 0 5.5 2.467 5.5 5.5zm-20.949-.5h17.899c-.232-1.14-1.242-2-2.449-2h-13.001c-1.208 0-2.217.86-2.449 2zm20.949 13c0 3.314-2.686 6-6 6s-6-2.686-6-6 2.686-6 6-6 6 2.686 6 6zm-2.325-1.954c-.392-.401-1.038-.401-1.43 0l-2.899 2.971-1.496-1.553c-.393-.408-1.047-.408-1.44 0-.372.387-.373.999 0 1.386l1.515 1.575c.765.765 2.079.763 2.823.019l.004-.004h-.001l2.925-2.997c.379-.389.379-1.009 0-1.397z"/></svg>