<svg id="Layer_1" viewBox="0 0 24 24" xmlns="http://www.w3.org/2000/svg" data-name="Layer 1"><path d="m15.5 10h-2v-8.5c0-.829-.671-1.5-1.5-1.5s-1.5.671-1.5 1.5v8.5h-2c-3.033 0-5.5 2.467-5.5 5.5v4c0 .827-.673 1.5-1.5 1.5s-1.5.671-1.5 1.5.671 1.5 1.5 1.5h14c3.032 0 5.5-2.467 5.5-5.5v-3c0-3.033-2.468-5.5-5.5-5.5zm2.5 8.5c0 1.378-1.121 2.5-2.5 2.5h-9.757c.166-.469.257-.974.257-1.5v-4c0-.171.018-.338.051-.5h1.949v2.5c0 .829.671 1.5 1.5 1.5s1.5-.671 1.5-1.5v-2.5h2v2.5c0 .829.672 1.5 1.5 1.5s1.5-.671 1.5-1.5v-2.5h1.949c.033.162.051.329.051.5zm-16.5-15.048c.006-.307.198-.579.484-.687l1.299-.492.52-1.301c.114-.285.39-.472.697-.472s.583.187.697.472l.523 1.308 1.308.523c.285.114.472.39.472.697s-.187.583-.472.697l-1.308.523-.523 1.308c-.114.285-.39.472-.697.472s-.583-.187-.697-.472l-.526-1.316-1.318-.556c-.283-.119-.464-.398-.459-.705zm22 2.048c0 .307-.187.583-.472.697l-1.308.523-.523 1.308c-.114.285-.39.472-.697.472s-.583-.187-.697-.472l-.526-1.316-1.318-.556c-.283-.119-.464-.398-.459-.705.006-.307.198-.579.484-.687l1.299-.492.52-1.301c.114-.285.39-.472.697-.472s.583.187.697.472l.523 1.308 1.308.523c.285.114.472.39.472.697z"/></svg>