<svg id="Layer_1" viewBox="0 0 24 24" xmlns="http://www.w3.org/2000/svg" data-name="Layer 1"><path d="m6.5 16c.828 0 1.5.672 1.5 1.5s-.672 1.5-1.5 1.5-1.5-.672-1.5-1.5.672-1.5 1.5-1.5zm16 1c-.829 0-1.5.672-1.5 1.5 0 1.379-1.122 2.5-2.5 2.5h-13c-1.378 0-2.5-1.121-2.5-2.5v-4.5h6.5c.829 0 1.5-.672 1.5-1.5s-.671-1.5-1.5-1.5h-6.449c.232-1.14 1.242-2 2.449-2h4c.829 0 1.5-.672 1.5-1.5s-.671-1.5-1.5-1.5h-4c-3.033 0-5.5 2.468-5.5 5.5v7c0 3.032 2.467 5.5 5.5 5.5h13c3.033 0 5.5-2.468 5.5-5.5 0-.828-.671-1.5-1.5-1.5zm1.5-8v3c0 1.657-1.343 3-3 3h-5c-1.657 0-3-1.343-3-3v-3c0-.885.39-1.672 1-2.221v-2.279c0-2.481 2.019-4.5 4.5-4.5s4.5 2.019 4.5 4.5v2.279c.61.549 1 1.336 1 2.221zm-7-4.5v1.5h3v-1.5c0-.827-.673-1.5-1.5-1.5s-1.5.673-1.5 1.5zm3 6c0-.828-.672-1.5-1.5-1.5s-1.5.672-1.5 1.5.672 1.5 1.5 1.5 1.5-.672 1.5-1.5z"/></svg>