<svg id="Layer_1" viewBox="0 0 24 24" xmlns="http://www.w3.org/2000/svg" data-name="Layer 1"><path d="m9 17.5v5c0 .829-.672 1.5-1.5 1.5s-1.5-.671-1.5-1.5v-5c0-.829.672-1.5 1.5-1.5s1.5.671 1.5 1.5zm3.5-4.5c-.828 0-1.5.671-1.5 1.5v8c0 .829.672 1.5 1.5 1.5s1.5-.671 1.5-1.5v-8c0-.829-.672-1.5-1.5-1.5zm-10 6c-.828 0-1.5.671-1.5 1.5v2c0 .829.672 1.5 1.5 1.5s1.5-.671 1.5-1.5v-2c0-.829-.672-1.5-1.5-1.5zm15.5-14.5c-.828 0-1.5.672-1.5 1.5s.672 1.5 1.5 1.5 1.5-.672 1.5-1.5-.672-1.5-1.5-1.5zm0 4.5c-.828 0-1.5.671-1.5 1.5v1c0 .829.672 1.5 1.5 1.5s1.5-.671 1.5-1.5v-1c0-.829-.672-1.5-1.5-1.5zm3-.035c0 .946 1.217 1.395 1.788.641.76-1.004 1.212-2.252 1.212-3.606 0-3.264-2.691-5.994-6-6-2.887-.033-5.49 2.183-5.924 5.036-.266 1.697.186 3.287 1.097 4.518.581.784 1.827.38 1.827-.596v-2.84c0-1.451.978-2.784 2.402-3.06 1.915-.372 3.598 1.092 3.598 2.942zm-3.5 6.035c-.828 0-1.5.671-1.5 1.5v6c0 .829.672 1.5 1.5 1.5s1.5-.671 1.5-1.5v-6c0-.829-.672-1.5-1.5-1.5zm5-2c-.828 0-1.5.671-1.5 1.5v8c0 .829.672 1.5 1.5 1.5s1.5-.671 1.5-1.5v-8c0-.829-.672-1.5-1.5-1.5zm-14.5-2.587c0-1.476-.885-2.783-2.255-3.331l-2.376-.95c-.225-.09-.369-.304-.369-.545 0-.324.264-.587.587-.587h1.181c.181 0 .343.094.434.251.416.717 1.334.961 2.05.547.717-.415.962-1.333.548-2.049-.499-.863-1.344-1.457-2.299-1.664v-.585c0-.829-.672-1.5-1.5-1.5s-1.5.671-1.5 1.5v.687c-1.444.464-2.5 1.813-2.5 3.4 0 1.476.885 2.783 2.255 3.331l2.376.95c.225.09.369.304.369.545 0 .324-.264.587-.587.587h-1.181c-.181 0-.343-.094-.434-.25-.416-.718-1.334-.962-2.05-.547-.48.277-.749.725-.749 1.294 0 .256.064.519.201.756.499.863 1.344 1.457 2.299 1.663v.585c0 .829.672 1.5 1.5 1.5s1.5-.671 1.5-1.5v-.687c1.444-.464 2.5-1.804 2.5-3.4z"/></svg>