<svg id="Layer_1" viewBox="0 0 24 24" xmlns="http://www.w3.org/2000/svg" data-name="Layer 1"><path d="m8.343 18-2.966-7.787c-.157-.411-.26-.819-.308-1.213h.432c.196 0 .387.021.576.051-.045.143-.076.292-.076.449 0 .828.672 1.5 1.5 1.5.456 0 .86-.208 1.135-.529.843.89 1.367 2.037 1.37 3.021 1.432-2.673 4.251-4.492 7.495-4.492.87 0 1.709.132 2.5.375 0-1.058-.03-2.471-.721-3.745 1.598-.691 2.721-2.281 2.721-4.13 0-.828-.671-1.5-1.5-1.5s-1.5.672-1.5 1.5-.673 1.5-1.5 1.5h-13.001c-.827 0-1.5-.673-1.5-1.5s-.671-1.5-1.5-1.5-1.5.672-1.5 1.5c0 1.854 1.127 3.447 2.732 4.136-.28.508-.487 1.069-.597 1.696-.221 1.25-.069 2.615.439 3.949l3.465 9.095c.176.924.986 1.624 1.962 1.624h2.298c-.734-1.172-1.175-2.538-1.262-4h-.693zm2.157-9.647c-.982-1.182-2.378-2.003-3.96-2.259.073-.032.157-.063.238-.093h8.44c.01.004.021.009.032.013-1.907.073-3.607.964-4.75 2.34zm7 2.647c-3.59 0-6.5 2.91-6.5 6.5s2.91 6.5 6.5 6.5 6.5-2.91 6.5-6.5-2.91-6.5-6.5-6.5zm3.063 6.999h-1.563v2.501c0 .828-.671 1.5-1.5 1.5s-1.5-.672-1.5-1.5v-2.501h-1.563c-.863 0-1.295-1.043-.685-1.653l3.063-3.063c.378-.378.991-.378 1.369 0l3.063 3.063c.61.61.178 1.653-.685 1.653z"/></svg>