<svg id="Layer_1" viewBox="0 0 24 24" xmlns="http://www.w3.org/2000/svg" data-name="Layer 1"><path d="m12.55 20.378c.592.579.602 1.529.021 2.121-.948.968-2.216 1.501-3.571 1.501h-4c-2.757 0-5-2.243-5-5v-14c0-2.757 2.243-5 5-5h4c2.744 0 4.976 2.224 4.996 4.963 2.67-.497 5.188-.963 7.004-.963 1.623.035 3.008 1.329 3 3 0 1.654-1.346 3-3 3-1.552 0-2.817-1.189-2.97-2.701-1.119.174-2.344.401-3.549.626-2.839.528-5.776 1.075-7.981 1.075-.829 0-1.5-.671-1.5-1.5s.671-1.5 1.5-1.5c1.229 0 2.813-.212 4.5-.497v-.503c0-1.103-.897-2-2-2h-4c-1.103 0-2 .897-2 2v14c0 1.103.897 2 2 2h4c.542 0 1.049-.213 1.429-.601.579-.592 1.53-.602 2.121-.021zm-3.55-6.378c0-1.25-1.147-2.232-2.446-1.952-.705.152-1.297.708-1.482 1.406-.241.91.144 1.758.817 2.208l-.867 2.159c-.131.606.331 1.179.951 1.179h2.054c.62 0 1.082-.573.951-1.179l-.867-2.159c.536-.359.889-.969.889-1.663zm1.555-.646c-.633.534-.713 1.48-.178 2.113.535.634 1.481.715 2.114.178 2.622-2.214 6.422-2.209 9.038.016.628.535 1.575.462 2.114-.171.537-.631.46-1.577-.171-2.114-3.736-3.178-9.168-3.188-12.917-.021zm9.304 3.542c-1.71-1.193-4.007-1.193-5.717 0-.679.475-.846 1.409-.372 2.089.475.68 1.41.846 2.088.372.683-.477 1.601-.477 2.283 0 .671.469 1.612.312 2.088-.372.474-.68.308-1.614-.372-2.089zm-2.858 4.104c-.828 0-1.5.672-1.5 1.5s.672 1.5 1.5 1.5 1.5-.672 1.5-1.5-.672-1.5-1.5-1.5z"/></svg>