<svg id="Layer_1" viewBox="0 0 24 24" xmlns="http://www.w3.org/2000/svg" data-name="Layer 1"><path d="m18 0c-3.314 0-6 2.686-6 6s2.686 6 6 6 6-2.686 6-6-2.686-6-6-6zm-1 3c0-.553.448-1 1-1s1 .447 1 1v2c0 .553-.448 1-1 1s-1-.447-1-1zm1 7c-.828 0-1.5-.672-1.5-1.5s.672-1.5 1.5-1.5 1.5.672 1.5 1.5-.672 1.5-1.5 1.5zm-.02 5.598c-.31 4.711-4.254 8.402-8.98 8.402-4.962 0-9-4.038-9-9v-2.5c0-1.557.795-2.93 2-3.738v-4.262c0-2.481 2.019-4.5 4.5-4.5h3c.829 0 1.5.671 1.5 1.5s-.671 1.5-1.5 1.5h-3c-.827 0-1.5.673-1.5 1.5v3.5h2c0-1.103.897-2 2-2s2 .897 2 2v1.5c0 .829-.671 1.5-1.5 1.5h-5c-.827 0-1.5.673-1.5 1.5v2.5c0 3.309 2.691 6 6 6 3.151 0 5.78-2.459 5.986-5.598.056-.827.75-1.455 1.596-1.398.826.054 1.452.768 1.398 1.595z"/></svg>