<svg id="Layer_1" viewBox="0 0 24 24" xmlns="http://www.w3.org/2000/svg" data-name="Layer 1"><path d="m22.313 10.461c1.514-2.563 1.686-4.737 1.687-6.772 0-2.034-1.655-3.689-3.689-3.689-2.036 0-4.209.172-6.772 1.687-.047-.303-.161-.598-.395-.831-.586-.586-1.535-.586-2.121 0l-1.5 1.5c-.586.585-.586 1.536 0 2.121.084.084.187.129.284.189-.002.002-.004.004-.007.006-1.779 1.778-3.418 3.634-4.939 5.593-.528-.671-1.579-.676-2.171-.075l-1.5 1.5c-.586.585-.586 1.536 0 2.121.247.247.561.366.883.405-.484.74-.972 1.475-1.431 2.247-1.062 1.784-.785 4.048.673 5.504l.72.721c.866.865 2.016 1.314 3.179 1.314.798 0 1.602-.211 2.326-.643.771-.46 1.507-.947 2.246-1.431.039.322.158.636.405.883.293.293.677.439 1.061.439s.768-.146 1.061-.439l1.5-1.5c.6-.591.596-1.644-.076-2.171 1.96-1.522 3.816-3.161 5.593-4.938.002-.002.004-.004.006-.007.06.096.104.199.188.283.586.586 1.535.586 2.121 0l1.5-1.5c.586-.585.586-1.536 0-2.121-.233-.233-.528-.347-.831-.395zm-16.31 10.321c-.603.358-1.362.27-1.849-.216l-.72-.721c-.486-.486-.575-1.246-.217-1.848 2.482-4.166 5.329-7.831 8.703-11.205 3.513-3.513 5.784-3.792 8.39-3.792.38 0 .689.309.689.688 0 2.605-.28 4.877-3.793 8.391-3.371 3.371-7.036 6.218-11.204 8.702z"/></svg>