<svg id="Layer_1" viewBox="0 0 24 24" xmlns="http://www.w3.org/2000/svg" data-name="Layer 1"><path d="m16.469 21.519c.266.784-.154 1.636-.939 1.902-1.134.384-2.321.579-3.529.579-2.453 0-4.713-.817-6.545-2.18-.454.157-.455.529-.455.68 0 .828-.671 1.5-1.5 1.5s-1.5-.672-1.5-1.5c0-1.297.562-2.21 1.286-2.813-1.427-1.856-2.286-4.17-2.286-6.687 0-1.207.195-2.394.579-3.529.265-.785 1.116-1.207 1.901-.94.785.266 1.206 1.117.94 1.901-.279.825-.42 1.689-.42 2.568 0 4.411 3.589 8 8 8 .88 0 1.743-.142 2.566-.421.784-.264 1.637.155 1.902.939zm3.031-18.519c1.316 0 1.459 1.049 1.459 1.5 0 .829.672 1.5 1.5 1.5s1.5-.671 1.5-1.5c0-2.607-1.875-4.5-4.459-4.5-.828 0-1.5.671-1.5 1.5s.672 1.5 1.5 1.5zm4.061 20.561c-.586.586-1.535.586-2.121 0l-21.001-21c-.585-.586-.585-1.536 0-2.122.575-.575 1.497-.578 2.085-.024.594-.271 1.264-.416 1.975-.416.829 0 1.5.671 1.5 1.5 0 .644-.408 1.189-.978 1.401l.919.919c1.38-.915 2.927-1.491 4.559-1.711v-.609c0-.829.671-1.5 1.5-1.5s1.5.671 1.5 1.5v.615c5.357.736 9.5 5.33 9.5 10.885 0 2.185-.628 4.262-1.82 6.059l2.38 2.38c.586.586.586 1.535 0 2.121zm-15.435-17.556 2.385 2.385c.057-.776.698-1.39 1.489-1.39.829 0 1.5.671 1.5 1.5v2.879l.121.121h1.879c.828 0 1.5.671 1.5 1.5 0 .511-.257.961-.647 1.232l2.642 2.642c.656-1.178 1.005-2.495 1.005-3.874 0-4.411-3.589-8-8-8-1.378 0-2.695.349-3.874 1.005z"/></svg>