<svg id="Layer_1" viewBox="0 0 24 24" xmlns="http://www.w3.org/2000/svg" data-name="Layer 1"><path d="m16 16.5c0 .828-.672 1.5-1.5 1.5s-1.5-.672-1.5-1.5.672-1.5 1.5-1.5 1.5.672 1.5 1.5zm.5-5.5c-.828 0-1.5.672-1.5 1.5s.672 1.5 1.5 1.5 1.5-.672 1.5-1.5-.672-1.5-1.5-1.5zm6.5 2.5c0 5.79-3.813 10.5-8.5 10.5-.826 0-1.642-.145-2.426-.431-.046-.016-.101-.017-.149 0-.783.286-1.599.431-2.425.431-4.687 0-8.5-4.71-8.5-10.5s3.813-10.5 8.5-10.5c.336 0 .67.024 1 .072v-1.572c0-.829.671-1.5 1.5-1.5s1.5.671 1.5 1.5v1.573c.328-.048.662-.073 1-.073 4.687 0 8.5 4.71 8.5 10.5zm-3 0c0-4.136-2.467-7.5-5.5-7.5s-5.5 3.364-5.5 7.5c0 1.22.211 2.384.626 3.459.299.772-.085 1.641-.858 1.94-.774.299-1.642-.086-1.94-.858-.55-1.422-.829-2.949-.829-4.541 0-2.865.933-5.465 2.444-7.361-2.529.673-4.444 3.718-4.444 7.361 0 4.136 2.467 7.5 5.5 7.5.474 0 .945-.084 1.399-.25.355-.129.729-.194 1.102-.194s.745.064 1.099.193c.456.166.926.25 1.4.25 3.033 0 5.5-3.364 5.5-7.5z"/></svg>