<?xml version="1.0" encoding="UTF-8"?>
<svg xmlns="http://www.w3.org/2000/svg" id="Layer_1" data-name="Layer 1" viewBox="0 0 24 24">
  <path d="M13.407,4.528c-.567-.603-.538-1.552,.064-2.12,.604-.566,1.551-.541,2.121,.064l1.344,1.428c.25,.249,.708,.25,.991-.033L21.452,.427c.594-.579,1.543-.566,2.121,.025,.579,.593,.567,1.542-.025,2.121l-3.512,3.428c-1.445,1.444-3.807,1.434-5.253-.013l-1.376-1.46ZM2.783,5.988c1.446,1.446,3.808,1.457,5.253,.013l3.512-3.428c.593-.579,.604-1.528,.025-2.121-.579-.592-1.528-.604-2.121-.025l-3.524,3.44c-.282,.283-.742,.281-.991,.033l-1.344-1.428c-.57-.605-1.518-.631-2.121-.064-.603,.568-.632,1.517-.064,2.12l1.376,1.46Zm20.917,11.612c.399,.533,.399,1.267,0,1.8l-1.8,2.4c-1.034,1.378-2.679,2.2-4.4,2.2H4.5c-2.481,0-4.5-2.019-4.5-4.5v-2c0-2.31,1.756-4.197,4-4.449v-2.551c0-.829,.672-1.5,1.5-1.5s1.5,.671,1.5,1.5v2.5h9v-2.5c0-.829,.672-1.5,1.5-1.5s1.5,.671,1.5,1.5v2.72c1.144,.327,2.174,1.013,2.9,1.98l1.8,2.4Zm-19.2,3.4h4.25l1.875-2.5-1.875-2.5H4.5c-.827,0-1.5,.673-1.5,1.5v2c0,.827,.673,1.5,1.5,1.5Zm16.125-2.5l-1.125-1.5c-.47-.626-1.218-1-2-1h-5l1.2,1.6c.399,.533,.399,1.267,0,1.8l-1.2,1.6h5c.782,0,1.53-.374,2-1l1.125-1.5Z"/>
</svg>
