<svg id="Layer_1" viewBox="0 0 24 24" xmlns="http://www.w3.org/2000/svg" data-name="Layer 1"><path d="m15 12.546c0 1.146-.798 2.362-2.283 2.449l-.151 1.193c-.31 2.452-2.217 4.365-4.593 4.743-.213 1.728-1.69 3.068-3.474 3.068h-2.999c-.829 0-1.5-.672-1.5-1.5s.671-1.5 1.5-1.5h3c.276 0 .5-.225.5-.5v-1c0-.828.671-1.5 1.5-1.5h.609c1.257 0 2.323-.94 2.48-2.187l.316-2.501c.095-.75.732-1.312 1.488-1.312h.39c-.615-1.47-2.303-4.527-3.268-5.721-1.658-2.212-4.236-3.421-6.932-3.266-.821.034-1.534-.584-1.581-1.412-.046-.828.587-1.536 1.414-1.582 3.708-.207 7.239 1.445 9.466 4.419.983 1.213 4.118 6.447 4.118 8.109zm7.526-4.546h-1.526c-2 0-2.111 1.5-2.111 1.5l-.311 1.5h5.139l.252-1.199c.186-.913-.512-1.801-1.444-1.801zm-5.19 9h-.336c-1.105 0-2 .895-2 2v1c0 1.105.895 2 2 2h1.964c1.418 0 2.642-.993 2.935-2.38l1.398-6.62h-5.134l-.829 4z"/></svg>