<svg id="Layer_1" viewBox="0 0 24 24" xmlns="http://www.w3.org/2000/svg" data-name="Layer 1"><path d="m24 8.5c0 1.381-1.119 2.5-2.5 2.5-.815 0-1.532-.396-1.989-1h-1.011c-1.758 0-3.204-1.308-3.449-3h-1.551c-.829 0-1.5-.672-1.5-1.5s.671-1.5 1.5-1.5h1.551c.245-1.692 1.691-3 3.449-3h1.011c.456-.604 1.173-1 1.989-1 1.381 0 2.5 1.119 2.5 2.5s-1.119 2.5-2.5 2.5c-.815 0-1.532-.396-1.989-1h-1.011c-.275 0-.5.225-.5.5v2c0 .275.225.5.5.5h1.011c.456-.604 1.173-1 1.989-1 1.381 0 2.5 1.119 2.5 2.5zm-4.064 3.504c-1.036.049-1.991.498-2.69 1.266l-2.446 2.688c-.647-.589-1.499-.958-2.441-.958h-7.859c-2.481 0-4.5 2.019-4.5 4.5v3c0 .828.671 1.5 1.5 1.5s1.5-.672 1.5-1.5v-3c0-.827.673-1.5 1.5-1.5h7.858c.354 0 .642.288.642.643 0 .317-.237.591-.551.635l-5.161.737c-.82.117-1.39.877-1.273 1.697.117.819.879 1.384 1.697 1.273l5.16-.737c1.613-.231 2.857-1.524 3.081-3.101l3.511-3.858c.159-.175.376-.277.612-.288.247-.016.462.071.636.229.356.324.385.881.055 1.252l-4.398 5.03c-.546.624-.482 1.571.142 2.116.284.249.637.371.986.371.418 0 .834-.174 1.13-.513l4.389-5.02c1.41-1.58 1.283-4.027-.281-5.454-.769-.699-1.765-1.054-2.798-1.01zm-19.013-5.101.235-.132c-.044-.252-.078-.507-.078-.771s.034-.519.078-.771l-.235-.132c-.721-.408-.976-1.323-.569-2.044.408-.721 1.322-.975 2.043-.569l.243.137c.42-.366.904-.653 1.44-.844v-.276c0-.828.671-1.5 1.5-1.5s1.5.672 1.5 1.5v.276c.535.191 1.019.478 1.44.844l.243-.137c.723-.404 1.637-.151 2.043.569.407.722.152 1.637-.57 2.044l-.235.132c.044.252.078.507.078.771s-.034.519-.078.771l.235.132c.722.407.977 1.322.57 2.044-.276.488-.784.763-1.308.763-.25 0-.502-.062-.735-.193l-.243-.137c-.42.366-.904.653-1.44.844v.276c0 .828-.671 1.5-1.5 1.5s-1.5-.672-1.5-1.5v-.276c-.535-.191-1.019-.478-1.44-.844l-.243.137c-.233.131-.486.193-.735.193-.524 0-1.032-.274-1.308-.763-.407-.722-.152-1.637.57-2.044zm4.657.597c.827 0 1.5-.673 1.5-1.5s-.673-1.5-1.5-1.5-1.5.673-1.5 1.5.673 1.5 1.5 1.5z"/></svg>