<svg id="Layer_1" viewBox="0 0 24 24" xmlns="http://www.w3.org/2000/svg" data-name="Layer 1"><path d="m16 13c1.654 0 3 1.346 3 3s-1.346 3-3 3-3-1.346-3-3 1.346-3 3-3zm-8.375-5.58c.269.488.885.656 1.359.391l.568-.314c.4.392.898.675 1.448.84v.663c0 .552.448 1 1 1s1-.448 1-1v-.663c.55-.165 1.048-.448 1.448-.84l.568.314c.474.265 1.09.097 1.359-.391.268-.483.092-1.091-.391-1.359l-.568-.314c.053-.241.084-.49.084-.747s-.031-.506-.084-.747l.568-.314c.483-.268.659-.876.391-1.359-.267-.483-.875-.658-1.359-.391l-.568.314c-.4-.392-.898-.675-1.448-.84v-.663c0-.552-.448-1-1-1s-1 .448-1 1v.663c-.55.165-1.048.448-1.448.84l-.568-.314c-.482-.267-1.091-.092-1.359.391s-.092 1.091.391 1.359l.568.314c-.053.241-.084.49-.084.747s.031.506.084.747l-.568.314c-.483.268-.659.876-.391 1.359zm11.457 1.195c-.764-.318-1.643.042-1.962.806s.042 1.643.806 1.962c1.868.78 3.074 2.592 3.074 4.616 0 2.757-2.243 5-5 5h-8c-2.757 0-5-2.243-5-5 0-2.024 1.207-3.836 3.074-4.616.765-.32 1.125-1.198.806-1.962-.319-.765-1.199-1.124-1.962-.806-2.988 1.249-4.918 4.147-4.918 7.385 0 4.411 3.589 8 8 8h8c4.411 0 8-3.589 8-8 0-3.238-1.93-6.136-4.918-7.385z"/></svg>