<svg id="Layer_1" viewBox="0 0 24 24" xmlns="http://www.w3.org/2000/svg" data-name="Layer 1"><path d="m18 12c-3.314 0-6 2.686-6 6s2.686 6 6 6 6-2.686 6-6-2.686-6-6-6zm2.688 6.6h-5.003c.268 1.032 1.2 1.8 2.315 1.8.544 0 1.167-.156 1.564-.467.348-.273.843-.253 1.183.03.318.265.344.758.038 1.037-.702.64-1.758 1-2.785 1-2.498-.01-4.502-2.32-3.89-4.954.332-1.439 1.502-2.606 2.941-2.937 2.309-.531 4.356.935 4.836 2.999.188.76-.415 1.492-1.199 1.492zm-.513-1.6h-4.35c.381-.824 1.209-1.4 2.175-1.4s1.794.576 2.175 1.4zm-10.675 4h-5c-.827 0-1.5-.673-1.5-1.5s.673-1.5 1.5-1.5h4c.829 0 1.5-.672 1.5-1.5 0-.652-.419-1.201-1-1.408v-12.092h7.5c1.378 0 2.5 1.122 2.5 2.5v3c0 .829.671 1.5 1.5 1.5s1.5-.671 1.5-1.5v-3c0-3.033-2.467-5.5-5.5-5.5h-11c-3.033 0-5.5 2.467-5.5 5.5v14c.052 2.448 1.994 4.508 4.5 4.5h5c.829 0 1.5-.672 1.5-1.5s-.671-1.5-1.5-1.5zm-4-18h.5v12h-1.5c-.529 0-1.029.108-1.5.276v-9.776c0-1.378 1.122-2.5 2.5-2.5z"/></svg>