<svg id="Layer_1" viewBox="0 0 24 24" xmlns="http://www.w3.org/2000/svg" data-name="Layer 1"><path d="m0 6.5v-1c0-3.032 2.468-5.5 5.5-5.5h1c.828 0 1.5.672 1.5 1.5s-.672 1.5-1.5 1.5h-1c-1.379 0-2.5 1.121-2.5 2.5v1c0 .828-.672 1.5-1.5 1.5s-1.5-.672-1.5-1.5zm18.5-6.5h-1c-.828 0-1.5.672-1.5 1.5s.672 1.5 1.5 1.5h1c1.379 0 2.5 1.121 2.5 2.5v1c0 .828.672 1.5 1.5 1.5s1.5-.672 1.5-1.5v-1c0-3.032-2.468-5.5-5.5-5.5zm4 16c-.828 0-1.5.672-1.5 1.5v1c0 1.379-1.121 2.5-2.5 2.5h-1c-.828 0-1.5.672-1.5 1.5s.672 1.5 1.5 1.5h1c3.032 0 5.5-2.468 5.5-5.5v-1c0-.828-.672-1.5-1.5-1.5zm-16 5h-1c-1.379 0-2.5-1.121-2.5-2.5v-1c0-.828-.672-1.5-1.5-1.5s-1.5.672-1.5 1.5v1c0 3.032 2.468 5.5 5.5 5.5h1c.828 0 1.5-.672 1.5-1.5s-.672-1.5-1.5-1.5zm16-11h-4.551c-.232-1.14-1.242-2-2.449-2v-2c0-1.105-.895-2-2-2h-3c-1.105 0-2 .895-2 2v2c-1.208 0-2.217.86-2.449 2h-4.551c-.828 0-1.5.672-1.5 1.5s.672 1.5 1.5 1.5h21c.828 0 1.5-.672 1.5-1.5s-.672-1.5-1.5-1.5zm-4.842 7c.276-.781-.133-1.638-.914-1.914-.78-.277-1.638.133-1.914.914-.423 1.196-1.561 2-2.83 2s-2.407-.804-2.83-2c-.276-.781-1.134-1.191-1.914-.914-.781.276-1.19 1.133-.914 1.914.846 2.393 3.12 4 5.658 4s4.812-1.607 5.658-4z"/></svg>