<svg id="Layer_1" viewBox="0 0 24 24" xmlns="http://www.w3.org/2000/svg" data-name="Layer 1"><path d="m18 12c3.314 0 6-2.686 6-6s-2.686-6-6-6-6 2.686-6 6 2.686 6 6 6zm-3.705-6.423c.386-.395 1.019-.401 1.414-.014l1.354 1.331c.144.142.38.139.522-.002l2.713-2.624c.397-.381 1.031-.37 1.414.029.382.398.369 1.031-.029 1.414l-2.703 2.614c-.452.446-1.052.671-1.653.671s-1.203-.225-1.663-.674l-1.354-1.332c-.395-.387-.4-1.02-.014-1.414zm-10.295 11.923c0 .276-.225.5-.5.5h-.5v-1h.5c.275 0 .5.224.5.5zm10 0c0 .276-.225.5-.5.5h-.513l.013-1h.5c.275 0 .5.224.5.5zm7 0v2c0 .275-.225.5-.5.5h-.5v-3h.5c.275 0 .5.225.5.5zm.36-4.247c-1.023.475-2.158.747-3.36.747-1.404 0-2.723-.364-3.87-1h-10.13c-2.209 0-4 1.791-4 4v3c0 2.209 1.791 4 4 4h16c2.209 0 4-1.791 4-4v-3c0-1.729-1.104-3.189-2.64-3.747zm-17.86 5.747h-.5v1.5c0 .276-.224.5-.5.5s-.5-.224-.5-.5v-3.5c0-.552.448-1 1-1h.5c.827 0 1.5.673 1.5 1.5s-.673 1.5-1.5 1.5zm5.5 1.5c0 .276-.224.5-.5.5s-.5-.224-.5-.5v-1h-1v1c0 .276-.224.5-.5.5s-.5-.224-.5-.5v-3c0-.827.673-1.5 1.5-1.5s1.5.673 1.5 1.5zm2 0c0 .276-.224.5-.5.5s-.5-.224-.5-.5v-4c0-.276.224-.5.5-.5s.5.224.5.5zm3.985-.121c.066.268-.096.539-.364.606-.261.068-.541-.094-.606-.364l-.408-1.632c-.072.018-.524.009-.607.011v1.5c0 .276-.224.5-.5.5s-.5-.224-.5-.5v-3.5c0-.551.448-1 1-1h.5c.827 0 1.5.673 1.5 1.5 0 .425-.179.807-.464 1.08l.45 1.799zm2.765-2.379c.276 0 .5.224.5.5s-.224.5-.5.5h-.75v1h.75c.276 0 .5.224.5.5s-.224.5-.5.5h-.75c-.552 0-1-.449-1-1v-3c0-.551.448-1 1-1h.75c.276 0 .5.224.5.5s-.224.5-.5.5h-.75v1zm4.25 1.5c0 .827-.673 1.5-1.5 1.5h-1c-.276 0-.5-.224-.5-.5v-4c0-.276.224-.5.5-.5h1c.827 0 1.5.673 1.5 1.5zm-14-2v1h-1v-1c0-.276.225-.5.5-.5s.5.224.5.5z"/></svg>