<svg id="Layer_1" viewBox="0 0 24 24" xmlns="http://www.w3.org/2000/svg" data-name="Layer 1"><path d="m8.707 6.707-.793.793.793.793c.391.391.391 1.023 0 1.414s-1.023.391-1.414 0l-.793-.793-.793.793c-.391.391-1.023.391-1.414 0s-.391-1.023 0-1.414l.793-.793-.793-.793c-.391-.391-.391-1.023 0-1.414s1.023-.391 1.414 0l.793.793.793-.793c.391-.391 1.023-.391 1.414 0s.391 1.023 0 1.414zm6 0c.391-.391.391-1.023 0-1.414s-1.023-.391-1.414 0l-.793.793-.793-.793c-.391-.391-1.023-.391-1.414 0s-.391 1.023 0 1.414l.793.793-.793.793c-.391.391-.391 1.023 0 1.414s1.023.391 1.414 0zm4.293-5.707h-14c-2.757 0-5 2.243-5 5v3c0 2.757 2.243 5 5 5h3.5c.828 0 1.5-.672 1.5-1.5s-.672-1.5-1.5-1.5h-3.5c-1.103 0-2-.897-2-2v-3c0-1.103.897-2 2-2h14c1.103 0 2 .897 2 2v.5c0 .828.672 1.5 1.5 1.5s1.5-.672 1.5-1.5v-.5c0-2.757-2.243-5-5-5zm5 11.712v3.262c-.043 2.146-1.019 5.05-5.428 6.865-.405.167-.862.149-1.253-.051-3.47-1.771-5.259-4.052-5.319-6.781v-3.295c0-1.078.688-2.031 1.712-2.371l3.816-1.265c.307-.102.637-.102.943 0l3.815 1.265c1.024.34 1.713 1.293 1.713 2.371zm-3 .362-3-.994-3 .994v2.899c.031 1.394 1.035 2.652 3.063 3.809 1.967-.952 2.903-2.184 2.937-3.839z"/></svg>