<svg id="Layer_1" viewBox="0 0 24 24" xmlns="http://www.w3.org/2000/svg" data-name="Layer 1"><path d="m22.133 15.146c-.748-.359-1.643-.038-1.999.711-.589 1.24-1.454 2.295-2.49 3.129-.83-2.319-3.044-3.986-5.645-3.986s-4.822 1.672-5.649 3.997c-2.041-1.651-3.351-4.173-3.351-6.997.001-4.963 4.039-9 9.001-9 .829 0 1.5-.672 1.5-1.5s-.671-1.5-1.5-1.5c-6.617 0-12 5.383-12 12s5.383 12 12 12c4.609 0 8.866-2.691 10.845-6.856.355-.748.037-1.643-.711-1.998zm-13.082 5.348c.242-1.413 1.468-2.494 2.949-2.494s2.698 1.072 2.947 2.477c-.937.328-1.927.523-2.947.523-1.034 0-2.023-.184-2.949-.506zm13.449-15.078v-1.816c0-1.671-1.13-3.191-2.767-3.525-2.249-.459-4.233 1.256-4.233 3.425v1.916c-.893.52-1.5 1.476-1.5 2.584v2c0 1.657 1.343 3 3 3h4c1.657 0 3-1.343 3-3v-2c0-1.108-.607-2.064-1.5-2.584zm-4.5-1.916c0-.551.449-1 1-1s1 .449 1 1v1.5h-2zm1 7c-.828 0-1.5-.672-1.5-1.5s.672-1.5 1.5-1.5 1.5.672 1.5 1.5-.672 1.5-1.5 1.5zm-7-2.5v2c0 1.067.342 2.052.914 2.864-.293.08-.595.136-.914.136-1.933 0-3.5-1.567-3.5-3.5s1.567-3.5 3.5-3.5c.14 0 .274.025.41.041-.264.612-.41 1.276-.41 1.959z"/></svg>