<?xml version="1.0" encoding="UTF-8"?>
<svg xmlns="http://www.w3.org/2000/svg" id="Layer_1" data-name="Layer 1" viewBox="0 0 24 24">
  <path d="M8.5,14c.829,0,1.5-.671,1.5-1.5s-.671-1.5-1.5-1.5c-3.464,0-5.343-1.106-5.5-1.5v-1.499c1.554,.659,3.53,.999,5.5,.999,2.005,0,4.016-.352,5.581-1.034,.197,.599,.754,1.034,1.419,1.034,.828,0,1.5-.671,1.5-1.5v-3C17,1.546,12.724,0,8.5,0S0,1.546,0,4.5v15c0,2.954,4.276,4.5,8.5,4.5,.829,0,1.5-.671,1.5-1.5s-.671-1.5-1.5-1.5c-3.464,0-5.343-1.106-5.5-1.5v-1.486c1.193,.51,2.689,.847,4.408,.953,.031,.002,.062,.003,.093,.003,.787,0,1.447-.613,1.496-1.408,.051-.827-.579-1.538-1.405-1.589-2.94-.18-4.459-1.147-4.592-1.473v-1.499c1.554,.659,3.53,.999,5.5,.999Zm0-11c3.42,0,5.287,1.076,5.486,1.482-.224,.456-2.086,1.518-5.486,1.518-3.419,0-5.286-1.075-5.485-1.482,.223-.456,2.085-1.518,5.485-1.518Zm9,8c-3.59,0-6.5,2.91-6.5,6.5s2.91,6.5,6.5,6.5,6.5-2.91,6.5-6.5-2.91-6.5-6.5-6.5Zm2.5,9h-5.5c-.828,0-1.5-.672-1.5-1.5,0-.653,.417-1.209,1-1.415,.156-.055,.325-.085,.5-.085,.009,0,.004-.418,.011-.5,.126-1.402,1.304-2.5,2.739-2.5,1.261,0,2.313,.854,2.637,2.011,.038-.002,.074-.011,.113-.011,1.105,0,2,.895,2,2s-.895,2-2,2Z"/>
</svg>
