<svg id="Layer_1" viewBox="0 0 24 24" xmlns="http://www.w3.org/2000/svg" data-name="Layer 1"><path d="m5 5.5c0-1.378 1.121-2.5 2.5-2.5h5c.609 0 1.196.222 1.652.625.62.548 1.57.488 2.117-.132.549-.621.49-1.569-.131-2.117-1.005-.887-2.297-1.375-3.639-1.375h-4.999c-3.032-.001-5.5 2.466-5.5 5.499v13.5c0 2.761 2.238 5 5 5h6c2.761 0 5-2.239 5-5v-1h-13zm4 14.5h2c.552 0 1 .448 1 1s-.448 1-1 1h-2c-.552 0-1-.448-1-1s.448-1 1-1zm14-9.592v2.511c0 .597-.484 1.081-1.082 1.081-.477 0-.886-.317-1.031-.772-.219-.686-.782-1.228-1.887-1.228h-.998l.884 2.135c.386.879-.258 1.865-1.218 1.865-.529 0-1.008-.314-1.219-.798l-1.828-4.392c-.385-.504-.622-1.127-.622-1.81 0-1.657 1.343-3 3-3h2c1.105 0 1.667-.543 1.887-1.228.146-.455.554-.772 1.031-.772.597 0 1.082.484 1.082 1.082v2.51c.581.207 1 .757 1 1.408s-.419 1.201-1 1.408z"/></svg>