<svg id="Layer_1" viewBox="0 0 24 24" xmlns="http://www.w3.org/2000/svg" data-name="Layer 1"><path d="m18.5 0h-1.815c-.678 0-1.322.279-1.814.785-.759.784-1.778 1.215-2.87 1.215s-2.111-.431-2.871-1.215c-.491-.506-1.136-.785-1.813-.785h-1.815c-3.034 0-5.502 2.467-5.502 5.5v13c0 3.033 2.468 5.5 5.5 5.5h1.815c.678 0 1.322-.279 1.814-.785.759-.784 1.778-1.215 2.87-1.215s2.111.431 2.871 1.215c.491.506 1.136.785 1.813.785h1.815c3.032 0 5.5-2.467 5.5-5.5v-13c0-3.033-2.468-5.5-5.5-5.5zm0 21h-1.602c-1.315-1.291-3.048-2-4.898-2s-3.584.709-4.898 2h-1.602c-1.379 0-2.5-1.122-2.5-2.5v-13c0-1.378 1.121-2.5 2.5-2.5h1.602c1.315 1.291 3.048 2 4.898 2s3.584-.709 4.898-2h1.602c1.379 0 2.5 1.122 2.5 2.5v1.5h-11c-2.757 0-5 2.243-5 5s2.243 5 5 5h11v1.5c0 1.378-1.121 2.5-2.5 2.5zm2.5-7h-11c-1.103 0-2-.897-2-2s.897-2 2-2h11zm-8-2c0-.828.672-1.5 1.5-1.5s1.5.672 1.5 1.5-.672 1.5-1.5 1.5-1.5-.672-1.5-1.5z"/></svg>