<svg id="Layer_1" viewBox="0 0 24 24" xmlns="http://www.w3.org/2000/svg" data-name="Layer 1"><path d="m23.561 2.561c.586-.585.586-1.536 0-2.121-.586-.586-1.535-.586-2.121 0l-.529.529c-.992-.614-2.16-.969-3.41-.969-3.584 0-6.5 2.916-6.5 6.5 0 .175.007.349.02.521-.172-.014-.345-.021-.52-.021-3.584 0-6.5 2.916-6.5 6.5 0 1.25.355 2.418.969 3.41l-4.531 4.529c-.586.586-.586 1.535 0 2.121.293.293.677.439 1.061.439s.768-.146 1.061-.439l4.529-4.529c.992.614 2.16.969 3.41.969 3.584 0 6.5-2.916 6.5-6.5 0-.175-.007-.349-.021-.52.172.014.346.02.521.02 3.584 0 6.5-2.916 6.5-6.5 0-1.25-.355-2.418-.969-3.41l.529-.529zm-13.061 14.439c-1.933 0-3.5-1.567-3.5-3.5 0-1.054.469-2.001 1.208-2.643.576 1.822 2.279 3.143 4.292 3.143.523 0 1.024-.089 1.491-.253-.127 1.815-1.644 3.253-3.491 3.253zm7-7c-1.933 0-3.5-1.567-3.5-3.5 0-1.054.469-2.001 1.208-2.643.576 1.822 2.279 3.143 4.292 3.143.523 0 1.024-.089 1.491-.253-.127 1.815-1.644 3.253-3.491 3.253z"/></svg>