<svg id="Layer_1" viewBox="0 0 24 24" xmlns="http://www.w3.org/2000/svg" data-name="Layer 1"><path d="m22.793 16.938c-1.05 1.311-2.614 2.062-4.293 2.062h-5v2h3c.828 0 1.5.671 1.5 1.5s-.672 1.5-1.5 1.5h-9c-.828 0-1.5-.671-1.5-1.5s.672-1.5 1.5-1.5h3v-2h-5c-3.032 0-5.5-2.467-5.5-5.5v-8c0-3.033 2.468-5.5 5.5-5.5h7c.828 0 1.5.671 1.5 1.5s-.672 1.5-1.5 1.5h-7c-1.379 0-2.5 1.122-2.5 2.5v8c0 1.378 1.121 2.5 2.5 2.5h13c.763 0 1.474-.342 1.951-.938.517-.647 1.462-.752 2.108-.233.646.518.751 1.462.233 2.108zm-12.293-9.938c0-1.105-.895-2-2-2s-2 .895-2 2 .895 2 2 2 2-.895 2-2zm13.5 1v2c0 1.657-1.343 3-3 3h-4c-1.657 0-3-1.343-3-3v-2c0-1.108.607-2.064 1.5-2.584v-1.916c0-1.929 1.571-3.489 3.5-3.49 1.929.001 3.5 1.561 3.5 3.49v1.916c.893.52 1.5 1.476 1.5 2.584zm-6-3h2v-1.5c0-.551-.449-1-1-1s-1 .449-1 1zm2.5 4c0-.828-.672-1.5-1.5-1.5s-1.5.672-1.5 1.5.672 1.5 1.5 1.5 1.5-.672 1.5-1.5zm-15.413 2.91c-.279.498.147 1.09.762 1.09h5.302c.615 0 1.04-.592.762-1.09-.633-1.133-1.919-1.91-3.413-1.91s-2.78.777-3.413 1.91z"/></svg>