<svg id="Layer_1" viewBox="0 0 24 24" xmlns="http://www.w3.org/2000/svg" data-name="Layer 1"><path d="m24 7c0-3.866-3.134-7-7-7s-7 3.134-7 7 3.134 7 7 7 7-3.134 7-7zm-8 4.5c-1.113 0-2.087-.61-2.605-1.513-.38-.662.11-1.487.874-1.487.359 0 .686.196.869.506.174.296.495.494.862.494h2.35c.334 0 .629-.251.649-.585.02-.324-.206-.602-.52-.655l-3.286-.548c-1.277-.213-2.203-1.312-2.192-2.61.011-1.451 1.234-2.603 2.685-2.603h.315c0-.552.448-1 1-1s1 .448 1 1c1.113 0 2.087.61 2.605 1.513.38.662-.11 1.487-.874 1.487-.36 0-.686-.196-.869-.506-.174-.295-.495-.494-.862-.494h-2.376c-.359 0-.649.305-.622.67.021.292.255.525.544.574l3.261.544c1.277.213 2.203 1.312 2.193 2.61-.011 1.451-1.234 2.603-2.685 2.603h-.315c0 .552-.448 1-1 1s-1-.448-1-1zm-5.273 3.553c-.407-.722-1.321-.977-2.043-.57l-.243.137c-.42-.366-.904-.653-1.44-.844v-.276c0-.829-.671-1.5-1.5-1.5s-1.5.671-1.5 1.5v.276c-.535.191-1.019.478-1.44.844l-.243-.137c-.722-.408-1.636-.152-2.043.57-.407.721-.152 1.636.57 2.043l.235.132c-.044.252-.078.507-.078.771s.034.519.078.771l-.235.132c-.722.407-.977 1.322-.57 2.043.276.489.784.764 1.308.764.25 0 .502-.062.735-.194l.243-.137c.42.366.904.653 1.44.844v.276c0 .829.671 1.5 1.5 1.5s1.5-.671 1.5-1.5v-.276c.535-.191 1.019-.478 1.44-.844l.243.137c.233.131.486.194.735.194.524 0 1.032-.275 1.308-.764.407-.721.152-1.636-.57-2.043l-.235-.132c.044-.252.078-.507.078-.771s-.034-.519-.078-.771l.235-.132c.722-.407.977-1.322.57-2.043zm-3.727 2.947c0 .827-.673 1.5-1.5 1.5s-1.5-.673-1.5-1.5.673-1.5 1.5-1.5 1.5.673 1.5 1.5zm-7-9.5v-2c0-2.481 2.019-4.5 4.5-4.5h.5v-1.158c0-.749.905-1.123 1.434-.594l2.658 2.658c.328.328.328.86 0 1.188l-2.658 2.658c-.529.529-1.434.154-1.434-.594v-1.158h-.5c-.827 0-1.5.673-1.5 1.5v2c0 .829-.671 1.5-1.5 1.5s-1.5-.671-1.5-1.5zm23.752 9.066c.529.529.154 1.434-.594 1.434h-1.158v.5c0 2.481-2.019 4.5-4.5 4.5h-2c-.829 0-1.5-.671-1.5-1.5s.671-1.5 1.5-1.5h2c.827 0 1.5-.673 1.5-1.5v-.5h-1.158c-.749 0-1.123-.905-.594-1.434l2.658-2.658c.328-.328.86-.328 1.188 0z"/></svg>