<svg id="Layer_1" viewBox="0 0 24 24" xmlns="http://www.w3.org/2000/svg" data-name="Layer 1"><path d="m21 9.5c0-.701-.482-1.291-1.133-1.455-.596-3.232-3.141-5.789-6.367-6.404v-.142c0-.828-.672-1.5-1.5-1.5s-1.5.672-1.5 1.5v.142c-3.226.614-5.771 3.172-6.367 6.404-.651.164-1.133.753-1.133 1.455 0 .692.47 1.275 1.107 1.448l.613 7.974c.219 2.848 2.627 5.078 5.483 5.078h3.592c2.856 0 5.265-2.23 5.483-5.078l.613-7.974c.638-.173 1.107-.755 1.107-1.448zm-4.424 5.464c-.417.051-.838.077-1.225.077-.751 0-1.33-.114-1.85-.266v-3.776h3.38l-.305 3.964zm-6.468-.964c-1.027 0-1.975.327-2.705.683l-.283-3.683h3.38v3.011c-.125-.007-.256-.011-.392-.011zm6.662-6h-3.27v-3.27c1.553.489 2.781 1.717 3.27 3.27zm-6.27-3.27v3.27h-3.27c.489-1.553 1.717-2.781 3.27-3.27zm-1 15.27c-.828 0-1.5-.672-1.5-1.5s.672-1.5 1.5-1.5 1.5.672 1.5 1.5-.672 1.5-1.5 1.5zm5 1c-.828 0-1.5-.672-1.5-1.5s.672-1.5 1.5-1.5 1.5.672 1.5 1.5-.672 1.5-1.5 1.5z"/></svg>