<svg id="Layer_1" viewBox="0 0 24 24" xmlns="http://www.w3.org/2000/svg" data-name="Layer 1"><path d="m21.067 0h-7.135c-1.617 0-2.933 1.315-2.933 2.933 0 .75.283 1.463.795 2.007l3.705 3.946v1.948c0 .511.223.996.611 1.328l1.886 1.618c.59.506 1.503.087 1.503-.691v-4.202l3.704-3.944c.513-.546.796-1.259.796-2.009 0-1.617-1.315-2.933-2.933-2.933zm-3.567 6.633-3.411-3.633h6.822zm3.5 10.867v1c0 3.032-2.468 5.5-5.5 5.5h-10c-3.032 0-5.5-2.468-5.5-5.5v-6c0-2.863 2.201-5.221 5-5.475v-.025c0-1.657 1.343-3 3-3 .593-.054 1.161.258 1.384.822.222.544.541 1.048.953 1.486l2.209 2.352c.477.508.117 1.339-.58 1.339h-6.466c-1.379 0-2.5 1.121-2.5 2.5v1.5h11.5c.828 0 1.5.672 1.5 1.5s-.672 1.5-1.5 1.5h-2.5v.5c0 .828-.672 1.5-1.5 1.5s-1.5-.672-1.5-1.5v-.5h-6v1.5c0 1.379 1.121 2.5 2.5 2.5h10c1.379 0 2.5-1.121 2.5-2.5v-1c0-.828.672-1.5 1.5-1.5s1.5.672 1.5 1.5z"/></svg>