<svg id="Layer_1" viewBox="0 0 24 24" xmlns="http://www.w3.org/2000/svg" data-name="Layer 1"><path d="m15.5 5.587c0-1.597 1.056-2.937 2.5-3.4v-.687c0-.829.672-1.5 1.5-1.5s1.5.671 1.5 1.5v.585c.955.206 1.8.801 2.299 1.664.414.717.169 1.635-.548 2.049s-1.635.17-2.05-.547c-.091-.157-.253-.251-.434-.251h-1.181c-.323 0-.587.263-.587.587 0 .242.145.456.369.545l2.376.95c1.37.548 2.255 1.855 2.255 3.331 0 1.597-1.056 2.937-2.5 3.4v.687c0 .829-.672 1.5-1.5 1.5s-1.5-.671-1.5-1.5v-.585c-.955-.206-1.8-.8-2.299-1.663-.414-.717-.169-1.635.548-2.049.716-.415 1.634-.169 2.05.547.091.157.253.25.434.25h1.181c.323 0 .587-.263.587-.587 0-.242-.145-.456-.369-.545l-2.376-.95c-1.37-.548-2.255-1.855-2.255-3.331zm6.5 13.413v-.5c0-.829-.672-1.5-1.5-1.5s-1.5.671-1.5 1.5v.5h-3.308l-.923 1h-5.538l-.923-1h-3.308v-7.5c0-1.378 1.121-2.5 2.5-2.5h5c.828 0 1.5-.671 1.5-1.5s-.672-1.5-1.5-1.5h-5c-3.032 0-5.5 2.467-5.5 5.5v7.5c-1.105 0-2 .895-2 2v1.154c0 1.02.827 1.846 1.846 1.846h20.308c1.02 0 1.846-.827 1.846-1.846v-1.154c0-1.105-.895-2-2-2z"/></svg>