<?xml version="1.0" encoding="UTF-8"?>
<svg xmlns="http://www.w3.org/2000/svg" id="Layer_1" data-name="Layer 1" viewBox="0 0 24 24">
  <path d="M9.5,2.5c0-1.381,1.119-2.5,2.5-2.5s2.5,1.119,2.5,2.5-1.119,2.5-2.5,2.5-2.5-1.119-2.5-2.5Zm8,8v3c0,1.557-.795,2.93-2,3.738v5.262c0,.828-.672,1.5-1.5,1.5s-1.5-.672-1.5-1.5v-4.5h-1v4.5c0,.828-.671,1.5-1.5,1.5s-1.5-.672-1.5-1.5v-5.262c-1.205-.808-2-2.182-2-3.738v-3c0-2.481,2.019-4.5,4.5-4.5h2c2.481,0,4.5,2.019,4.5,4.5Zm-8,3c0,.827,.673,1.5,1.5,1.5h2c.827,0,1.5-.673,1.5-1.5v-3c0-.827-.673-1.5-1.5-1.5h-2c-.827,0-1.5,.673-1.5,1.5v3Zm-6.061,4.939L.439,21.439c-.586,.586-.586,1.535,0,2.121s1.535,.586,2.121,0l3-3c.586-.586,.586-1.535,0-2.121s-1.535-.586-2.121,0ZM19.5,6c.384,0,.768-.146,1.061-.439l3-3c.586-.585,.586-1.536,0-2.121-.586-.586-1.535-.586-2.121,0l-3,3c-.586,.585-.586,1.536,0,2.121,.293,.293,.677,.439,1.061,.439Zm1.061,12.439c-.586-.586-1.535-.586-2.121,0s-.586,1.535,0,2.121l3,3c.586,.586,1.535,.586,2.121,0s.586-1.535,0-2.121l-3-3ZM2.561,.439C1.975-.146,1.025-.146,.439,.439-.146,1.025-.146,1.975,.439,2.561l3,3c.586,.586,1.535,.586,2.121,0,.586-.585,.586-1.536,0-2.121L2.561,.439Z"/>
</svg>
