<svg id="Layer_1" viewBox="0 0 24 24" xmlns="http://www.w3.org/2000/svg" data-name="Layer 1"><path d="m22.805 21.031-2.33-16.31c-.385-2.692-2.726-4.722-5.445-4.722h-6.062c-2.718.001-5.059 2.031-5.444 4.723l-2.329 16.309c-.682.141-1.195.745-1.195 1.469 0 .828.671 1.5 1.5 1.5h21c.829 0 1.5-.672 1.5-1.5 0-.724-.513-1.328-1.195-1.469zm-16.311-15.885c.175-1.224 1.239-2.146 2.475-2.146h6.062c1.236 0 2.3.923 2.475 2.146l2.265 15.854h-15.542zm.506 4.854c0-.828.672-1.5 1.5-1.5s1.5.672 1.5 1.5-.672 1.5-1.5 1.5-1.5-.672-1.5-1.5zm7 0c0-.828.672-1.5 1.5-1.5s1.5.672 1.5 1.5-.672 1.5-1.5 1.5-1.5-.672-1.5-1.5zm-3.5-4c0-.828.672-1.5 1.5-1.5s1.5.672 1.5 1.5-.672 1.5-1.5 1.5-1.5-.672-1.5-1.5zm0 8c0-.828.672-1.5 1.5-1.5s1.5.672 1.5 1.5-.672 1.5-1.5 1.5-1.5-.672-1.5-1.5zm3.5 4c0-.828.672-1.5 1.5-1.5s1.5.672 1.5 1.5-.672 1.5-1.5 1.5-1.5-.672-1.5-1.5zm-7 0c0-.828.672-1.5 1.5-1.5s1.5.672 1.5 1.5-.672 1.5-1.5 1.5-1.5-.672-1.5-1.5z"/></svg>