<svg id="Layer_1" viewBox="0 0 24 24" xmlns="http://www.w3.org/2000/svg" data-name="Layer 1"><path d="m11.5 10.5c0 .829-.672 1.5-1.5 1.5 0 .829-.672 1.5-1.5 1.5s-1.5-.671-1.5-1.5v-1.5c0-.829.672-1.5 1.5-1.5h1.5c.828 0 1.5.671 1.5 1.5zm-1.5 5.5c0-.829-.672-1.5-1.5-1.5s-1.5.671-1.5 1.5v1.5c0 .829.672 1.5 1.5 1.5h1.5c.828 0 1.5-.671 1.5-1.5s-.672-1.5-1.5-1.5zm5.5-1.5c-.828 0-1.5.671-1.5 1.5-.828 0-1.5.671-1.5 1.5s.672 1.5 1.5 1.5h1.5c.828 0 1.5-.671 1.5-1.5v-1.5c0-.829-.672-1.5-1.5-1.5zm0-5.5h-1.5c-.828 0-1.5.671-1.5 1.5s.672 1.5 1.5 1.5c0 .829.672 1.5 1.5 1.5s1.5-.671 1.5-1.5v-1.5c0-.829-.672-1.5-1.5-1.5zm-3.5-9c-6.841 0-12 2.902-12 6.75v12.681c0 1.13.459 2.794 2.648 4.304.255.176.553.265.852.265.822 0 1.516-.692 1.5-1.5v-12.681c0-.493-.242-.955-.648-1.235-.505-.348-1.352-1.05-1.352-1.834 0-1.566 3.424-3.75 9-3.75s9 2.184 9 3.75c0 .785-.847 1.486-1.352 1.834-.406.28-.648.742-.648 1.235v12.681c-.016.808.631 1.5 1.5 1.5.299 0 .597-.089.852-.265 2.189-1.51 2.648-2.735 2.648-4.304v-12.681c0-3.848-5.159-6.75-12-6.75z"/></svg>