<svg id="Layer_1" viewBox="0 0 24 24" xmlns="http://www.w3.org/2000/svg" data-name="Layer 1"><path d="m19 3c.088.008-.09.008 0 0zm4.861 2.05-.872 2.982-.896 13.095c-.125 1.617-1.484 2.874-3.093 2.874s-2.96-1.254-3.086-2.855c0 0-.925-13.201-.926-13.212l-.846-2.871c-.417-1.414.11-2.942 1.312-3.803 1.267-.911 2.373-1.26 3.546-1.26 1.5 0 2.275.345 3.543 1.25 1.202.858 1.731 2.386 1.318 3.8zm-4.15 6.95h-1.433l.627 8.922c.028.179.173.154.196-.014zm1.271-7.792c.056-.191-.018-.399-.184-.517-.871-.623-1.526-.715-1.799-.691-.277-.028-.925.07-1.798.696-.165.119-.238.327-.183.519l.821 2.786h2.324l.817-2.792zm-20.523-.551 1.318.556.526 1.316c.114.285.39.472.697.472s.583-.187.697-.472l.523-1.308 1.308-.523c.285-.114.472-.39.472-.697s-.187-.583-.472-.697l-1.308-.523-.523-1.308c-.114-.285-.39-.472-.697-.472s-.583.187-.697.472l-.52 1.301-1.299.492c-.286.107-.478.379-.484.686-.005.307.176.586.459.705zm11.149 10.262-1.09-.436-.436-1.09c-.095-.237-.325-.393-.58-.393s-.486.156-.581.393l-.433 1.084-1.082.41c-.239.09-.399.317-.404.573s.147.488.382.587l1.099.463.439 1.097c.095.237.325.393.581.393s.486-.156.58-.393l.436-1.09 1.09-.436c.237-.095.393-.325.393-.58s-.156-.486-.393-.58zm.034 6.096c-.923.644-2.01.985-3.142.985-3.033 0-5.5-2.467-5.5-5.5s2.467-5.5 5.5-5.5c.825 0 1.618.178 2.356.528.747.354 1.643.037 1.999-.711.355-.749.037-1.643-.711-1.999-1.144-.543-2.37-.818-3.644-.818-4.687 0-8.5 3.813-8.5 8.5s3.813 8.5 8.5 8.5c1.827 0 3.429-.527 4.858-1.525.68-.474.847-1.409.372-2.088-.472-.679-1.406-.847-2.088-.372z"/></svg>