<?xml version="1.0" encoding="UTF-8"?>
<svg xmlns="http://www.w3.org/2000/svg" id="Layer_1" data-name="Layer 1" viewBox="0 0 24 24">
  <path d="M17.326,2.034C15.629,.517,13.352-.203,11.068,.052c-3.604,.408-6.554,3.313-7.013,6.909-.372,2.928,1.168,5.77,2.859,7.287,.689,.618,1.085,1.577,1.085,2.631v1.878c0,1.201,.468,2.331,1.318,3.182l1.621,1.621c.586,.586,1.535,.586,2.121,0l1.622-1.622c.85-.851,1.317-1.98,1.317-3.182v-2.061c0-1.039,.407-1.973,1.118-2.563,3.73-2.95,3.813-9.021,.208-12.099Zm-4.326,16.724c0,.4-.156,.777-.439,1.061l-.561,.561-.56-.56c-.284-.284-.44-.661-.44-1.062v-1.878c0-.298-.025-.59-.061-.879h2.097c-.023,.229-.036,.462-.036,.696v2.061Zm2.2-6.931c-.41,.341-.762,.739-1.064,1.174h-.638l-.003-3.118c.591-.307,1.079-.784,1.388-1.373,.359-.685-.161-1.509-.935-1.509h-3.899c-.773,0-1.294,.824-.935,1.509,.308,.587,.793,1.062,1.38,1.369l.003,3.122h-.703c-.256-.36-.549-.691-.878-.985-1.072-.961-2.12-2.835-1.886-4.675,.299-2.446,2.5-4.371,4.967-4.34,2.683-.062,5.054,2.322,5.001,5.005,0,1.478-.656,2.871-1.8,3.821Z"/>
</svg>
