<svg id="Layer_1" viewBox="0 0 24 24" xmlns="http://www.w3.org/2000/svg" data-name="Layer 1"><path d="m6.563 17.442c.584.588.581 1.538-.006 2.121l-1.726 1.715.83.83c.698.698.204 1.891-.783 1.891h-3.647c-.686 0-1.231-.556-1.231-1.243v-3.647c0-.987 1.182-1.481 1.879-.783l.831.831 1.732-1.721c.589-.585 1.537-.581 2.121.006zm-4.684-11.757.842-.842 1.718 1.718c.586.586 1.535.586 2.121 0 .586-.585.586-1.536 0-2.121l-1.718-1.718.818-.818c.699-.699.205-1.892-.782-1.892h-3.647c-.687 0-1.231.556-1.231 1.243v3.647c0 .987 1.182 1.481 1.879.783zm20.878-5.673h-3.647c-.987 0-1.481 1.193-.783 1.891l.824.824-1.712 1.712c-.586.585-.586 1.536 0 2.121.586.586 1.535.586 2.121 0l1.712-1.712.836.836c.698.698 1.891.204 1.891-.783v-3.646c.001-.687-.555-1.243-1.242-1.243zm-.649 18.315-.835.835-1.709-1.72c-.584-.587-1.533-.59-2.122-.007-.587.584-.59 1.534-.007 2.122l1.716 1.726-.825.825c-.698.698-.204 1.891.783 1.891h3.647c.686 0 1.243-.556 1.243-1.243v-3.647c0-.987-1.193-1.481-1.891-.783zm-4.109-4.45c0 1.271-.689 2.442-1.8 3.06l-2.485 1.38c-.521.288-1.074.439-1.698.439-.606 0-1.208-.157-1.738-.46l-2.515-1.438c-1.088-.622-1.764-1.786-1.764-3.038v-2.906c0-1.258.681-2.425 1.775-3.045l2.496-1.413c1.063-.603 2.383-.603 3.446-.002l2.505 1.415c1.097.62 1.777 1.788 1.777 3.047v2.962zm-7.907-3.873 1.909 1.091 1.906-1.089-1.666-.941c-.151-.086-.34-.086-.491 0zm.907 5.249v-2.427l-2-1.143v2.137c0 .179.097.345.253.435l1.747.999zm4-1.376v-2.192l-2 1.143v2.453l1.743-.968c.158-.088.257-.255.257-.437z"/></svg>