<svg id="Layer_1" viewBox="0 0 24 24" xmlns="http://www.w3.org/2000/svg" data-name="Layer 1"><path d="m14.5 13c.828 0 1.5.672 1.5 1.5s-.672 1.5-1.5 1.5-1.5-.672-1.5-1.5.672-1.5 1.5-1.5zm1.568-2.564c.793.239 1.63-.21 1.869-1.004.239-.793-.21-1.63-1.004-1.869-.793-.239-1.63.21-1.869 1.004-.239.793.21 1.63 1.004 1.869zm-4.068-4.436c.828 0 1.5-.671 1.5-1.5v-3c0-.829-.672-1.5-1.5-1.5s-1.5.671-1.5 1.5v3c0 .829.672 1.5 1.5 1.5zm5.163.642c.771.24 1.631-.203 1.869-1.003l.904-3c.238-.793-.21-1.63-1.004-1.869s-1.629.209-1.869 1.003l-.904 3c-.238.793.21 1.63 1.004 1.869zm2.925 3.358h-.588c-.828 0-1.5.671-1.5 1.5s.672 1.5 1.5 1.5h.535c.541.018.965.458.965 1 0 .551-.448 1-1 1h-.749c-.707 0-1.318.494-1.467 1.186-.638 2.974-3.499 4.814-5.784 4.814s-5.146-1.841-5.784-4.814c-.148-.691-.76-1.186-1.467-1.186h-.749c-.552 0-1-.449-1-1 0-.542.424-.982.912-1h.588c.828 0 1.5-.671 1.5-1.5s-.672-1.5-1.5-1.5h-.641c-2.164.078-3.859 1.834-3.859 4 0 2.079 1.594 3.792 3.623 3.982 1.283 3.455 4.751 6.018 8.377 6.018s7.094-2.563 8.377-6.018c2.029-.19 3.623-1.904 3.623-3.982 0-2.166-1.695-3.922-3.912-4zm-13.021-2.437c-.793.239-1.243 1.076-1.004 1.869s1.076 1.243 1.869 1.004c.793-.239 1.243-1.076 1.004-1.869s-1.076-1.243-1.869-1.004zm-2.099-1.924c.237.8 1.098 1.243 1.869 1.003.794-.239 1.242-1.076 1.004-1.869l-.904-3c-.24-.792-1.082-1.243-1.869-1.003-.794.239-1.242 1.076-1.004 1.869zm7.032 4.361c.828 0 1.5-.672 1.5-1.5s-.672-1.5-1.5-1.5-1.5.672-1.5 1.5.672 1.5 1.5 1.5zm-4 4.5c0 .828.672 1.5 1.5 1.5s1.5-.672 1.5-1.5-.672-1.5-1.5-1.5-1.5.672-1.5 1.5z"/></svg>