<svg id="Layer_1" viewBox="0 0 24 24" xmlns="http://www.w3.org/2000/svg" data-name="Layer 1"><path d="m7.5 13c2.481 0 4.5-2.019 4.5-4.5v-5.795c0-.32-.195-.597-.498-.706-.301-.107-.63-.015-.848.252l-1.101 1.546-1.284-1.516c-.425-.421-1.124-.411-1.579.045l-1.223 1.474s-1.271-1.694-1.303-1.717c-.191-.136-.482-.152-.729-.04-.268.124-.434.385-.434.681v5.777c0 2.481 2.019 4.5 4.5 4.5zm1.5-5v.5c0 .827-.673 1.5-1.5 1.5s-1.5-.673-1.5-1.5v-.5zm6 14.5c0 .829-.672 1.5-1.5 1.5s-1.5-.671-1.5-1.5c0-2.481-2.019-4.5-4.5-4.5s-4.5 2.019-4.5 4.5c0 .829-.672 1.5-1.5 1.5s-1.5-.671-1.5-1.5c0-4.136 3.364-7.5 7.5-7.5s7.5 3.364 7.5 7.5zm9-4.5c0 .829-.672 1.5-1.5 1.5s-1.5-.671-1.5-1.5c0-2.206-1.794-4-4-4-.941 0-1.821.316-2.545.914-.639.527-1.586.436-2.111-.202-.527-.639-.438-1.584.201-2.112 1.25-1.032 2.832-1.601 4.455-1.601 3.859 0 7 3.14 7 7zm-6.5-9c2.481 0 4.5-2.019 4.5-4.5s-2.019-4.5-4.5-4.5-4.5 2.019-4.5 4.5 2.019 4.5 4.5 4.5zm0-6c.827 0 1.5.673 1.5 1.5s-.673 1.5-1.5 1.5-1.5-.673-1.5-1.5.673-1.5 1.5-1.5z"/></svg>