<?xml version="1.0" encoding="UTF-8"?>
<svg xmlns="http://www.w3.org/2000/svg" id="Layer_1" data-name="Layer 1" viewBox="0 0 24 24">
  <path d="M8,14.5c0-.828,.672-1.5,1.5-1.5s1.5,.672,1.5,1.5-.672,1.5-1.5,1.5-1.5-.672-1.5-1.5Zm6.5-1.5c-.828,0-1.5,.672-1.5,1.5s.672,1.5,1.5,1.5,1.5-.672,1.5-1.5-.672-1.5-1.5-1.5Zm6.5-2.868v-.632c0-1.624-1.288-2.5-2.5-2.5-.828,0-1.5,.672-1.5,1.5,0,.653,.417,1.209,1,1.415v1.585c0,.828,.672,1.5,1.5,1.5h.534c.542,.019,.966,.458,.966,1,0,.552-.448,1-1,1h-.749c-.707,0-1.318,.494-1.467,1.186-.638,2.974-3.499,4.814-5.784,4.814s-5.146-1.841-5.785-4.814c-.148-.691-.76-1.186-1.467-1.186h-.749c-.551,0-1-.448-1-1,0-.542,.424-.981,.912-1h.588c.829,0,1.5-.672,1.5-1.5v-1.585c.542-.192,.948-.689,.996-1.3,.063-.826-.554-1.547-1.38-1.61-.521-.049-1.291,.104-1.864,.635-.343,.317-.751,.891-.751,1.822v.662c-1.737,.442-3,2.007-3,3.876,0,2.078,1.594,3.792,3.623,3.982,1.283,3.455,4.751,6.018,8.377,6.018s7.094-2.562,8.377-6.018c2.029-.19,3.623-1.904,3.623-3.982,0-1.856-1.246-3.413-3-3.868Zm-11.548-1.051c.34,.57,.954,.919,1.618,.919h1.86c.664,0,1.278-.349,1.618-.919l1.072-1.799c.493-.788,.508-1.785,.039-2.588L13,.003v3.997c0,.552-.448,1-1,1s-1-.448-1-1V0s-2.659,4.694-2.659,4.694c-.468,.803-.453,1.799,.039,2.588l1.072,1.799Z"/>
</svg>
