<svg id="Layer_1" viewBox="0 0 24 24" xmlns="http://www.w3.org/2000/svg" data-name="Layer 1"><path d="m22.5 20.999h-1.5v-9.072c1.707-.337 3-1.843 3-3.648 0-1.362-.743-2.613-1.939-3.264l-8.427-4.597c-1.023-.559-2.244-.559-3.266 0l-8.429 4.596c-1.196.652-1.939 1.903-1.939 3.265 0 1.805 1.293 3.311 3 3.648v9.072h-1.5c-.829 0-1.5.672-1.5 1.5s.671 1.5 1.5 1.5h21c.829 0 1.5-.672 1.5-1.5s-.671-1.5-1.5-1.5zm-9.5-8.999v8.999h-2v-8.999zm3 0h2v8.999h-2zm-12.625-4.351s0 0 0 0l8.431-4.598c.122-.067.268-.066.39 0l8.429 4.598c.231.126.375.367.375.631 0 .397-.323.721-.72.721h-16.56c-.397 0-.72-.323-.72-.721 0-.264.144-.505.375-.631zm2.625 4.351h2v8.999h-2zm4.5-5.5c0-.828.672-1.5 1.5-1.5s1.5.672 1.5 1.5-.672 1.5-1.5 1.5-1.5-.672-1.5-1.5z"/></svg>