<svg id="Layer_1" viewBox="0 0 24 24" xmlns="http://www.w3.org/2000/svg" data-name="Layer 1"><path d="m12.641 6.049c-.867.134-1.578.722-1.877 1.527-.708-.377-1.475-.575-2.264-.575s-1.554.198-2.261.573c-.292-.823-1.006-1.421-1.881-1.552-.969-.149-1.911.307-2.41 1.151-1.147 1.936-1.948 4.962-1.948 7.359 0 5.219 3.813 9.464 8.5 9.464s8.5-4.245 8.5-9.464c0-2.416-.82-5.454-1.994-7.387-.493-.812-1.423-1.243-2.365-1.097zm-2.738 4.572c-.457 1.458-.958 2.836-1.404 3.986-.446-1.15-.946-2.528-1.403-3.986.352-.329.827-.621 1.404-.621s1.051.291 1.403.62zm-1.403 10.377c-3.033 0-5.5-2.9-5.5-6.465 0-1.317.333-2.965.838-4.337.874 3.068 2.023 5.955 2.693 7.542.335.794 1.108 1.307 1.969 1.307.861 0 1.634-.515 1.968-1.309.668-1.581 1.814-4.463 2.688-7.526.513 1.36.842 2.982.842 4.323 0 3.565-2.467 6.465-5.5 6.465zm15.5-12.463c0 3.964-2.2 7.366-5.312 8.773.203-.889.312-1.818.312-2.774 0-.32-.013-.648-.036-.981 1.241-1.186 2.036-2.995 2.036-5.018 0-1.34-.329-2.962-.842-4.323-.583 2.041-1.286 4.002-1.888 5.551-.393-1.346-.926-2.62-1.554-3.654-.063-.103-.129-.203-.199-.299.131-.387.261-.784.387-1.187-.352-.329-.827-.62-1.403-.62-.369 0-2.411-.046-3.165.071-.883.137-1.677.53-2.303 1.105-.498-.116-1.011-.176-1.531-.176-.357 0-.71.029-1.058.084.346-1.443.873-2.843 1.505-3.911.498-.845 1.44-1.3 2.409-1.152.875.131 1.589.729 1.881 1.552.707-.376 1.473-.573 2.261-.573s1.557.198 2.264.575c.299-.806 1.01-1.393 1.877-1.527.943-.146 1.872.285 2.365 1.097 1.174 1.933 1.994 4.971 1.994 7.387z"/></svg>