<svg id="Layer_1" viewBox="0 0 24 24" xmlns="http://www.w3.org/2000/svg" data-name="Layer 1"><path d="m23.121 17.411-9.621-11.457v-1.954h1.5c.552 0 1-.448 1-1v-2c0-.552-.448-1-1-1h-3c-.829 0-1.5.672-1.5 1.5v4.453s-9.653 11.496-9.667 11.517c-.941 1.239-1.095 2.876-.403 4.27.692 1.395 2.089 2.261 3.646 2.261h15.85c1.557 0 2.954-.866 3.646-2.261.692-1.394.538-3.03-.449-4.328zm-2.237 2.994c-.089.179-.36.595-.959.595h-15.85c-.599 0-.87-.416-.958-.595-.087-.176-.25-.63.088-1.099l4.237-5.046 1.5 2.192c.514.752 1.619.763 2.149.022l1.41-1.974.728 1.002c.521.716 1.601.678 2.07-.073l.957-1.531 4.522 5.384c.362.478.195.944.106 1.123zm-5.884-15.405c1.105 0 2-.895 2-2v-1h1c.552 0 1 .448 1 1v2c0 .552-.448 1-1 1h-2c-1 0-1-1-1-1z"/></svg>