<svg id="Layer_1" viewBox="0 0 24 24" xmlns="http://www.w3.org/2000/svg" data-name="Layer 1"><path d="m22.563 4.999h-1.563v2.501c0 .829-.671 1.5-1.5 1.5s-1.5-.671-1.5-1.5v-2.501h-1.563c-.863 0-1.295-1.043-.685-1.653l3.063-3.063c.378-.378.991-.378 1.369 0l3.063 3.063c.61.61.178 1.653-.685 1.653zm-15.105 11.001c-3.697 0-6.825 2.628-7.437 6.25-.138.817.412 1.591 1.229 1.729.817.137 1.591-.413 1.729-1.229.367-2.173 2.251-3.75 4.479-3.75s4.112 1.577 4.479 3.75c.134.822.931 1.369 1.729 1.229.817-.138 1.367-.912 1.229-1.729-.612-3.622-3.74-6.25-7.438-6.25zm-5.458-7.5c0-3.033 2.467-5.5 5.5-5.5s5.5 2.467 5.5 5.5-2.467 5.5-5.5 5.5-5.5-2.467-5.5-5.5zm3 0c0 1.378 1.122 2.5 2.5 2.5s2.5-1.122 2.5-2.5-1.122-2.5-2.5-2.5-2.5 1.122-2.5 2.5z"/></svg>