<svg id="Layer_1" viewBox="0 0 24 24" xmlns="http://www.w3.org/2000/svg" data-name="Layer 1"><path d="m.439 17.561c-.586-.585-.586-1.536 0-2.121l10.421-10.421c-1.816-1.422-3.861-2.331-6.008-2.839-.495-.117-.856-.542-.863-1.051-.009-.635.527-1.132 1.162-1.102 3.335.154 6.11.984 8.195 2.506.572-.662 1.594-.72 2.215-.094.627.621.568 1.643-.094 2.215 1.523 2.085 2.353 4.86 2.506 8.195.029.635-.467 1.171-1.103 1.163-.509-.007-.933-.368-1.05-.863-.508-2.147-1.417-4.193-2.839-6.008l-10.42 10.42c-.586.586-1.535.586-2.121 0zm22.061-17.561c-.828 0-1.5.671-1.5 1.5v11.171c0 .134-.052.259-.146.354l-1.828 1.828c-.661.661-1.025 1.54-1.025 2.475v1.171c0 .276-.225.5-.5.5h-2.172c-.935 0-1.813.364-2.475 1.025l-.828.828c-.094.093-.222.146-.354.146h-10.172c-.828 0-1.5.671-1.5 1.5s.672 1.5 1.5 1.5h10.172c.935 0 1.813-.364 2.475-1.025l.828-.828c.094-.093.222-.146.354-.146h2.172c1.93 0 3.5-1.57 3.5-3.5v-1.171c0-.134.052-.259.146-.354l1.828-1.828c.661-.661 1.025-1.54 1.025-2.475v-11.171c0-.829-.672-1.5-1.5-1.5zm-12.256 14.111-1.376.609c-.528.234-.868.756-.868 1.334v.695c0 .488.244.943.649 1.213l1.19.793c.62.413 1.452.293 1.929-.28l.894-1.072c.419-.503.452-1.223.08-1.762l-.708-1.025c-.398-.576-1.149-.788-1.79-.505z"/></svg>