<svg id="Layer_1" viewBox="0 0 24 24" xmlns="http://www.w3.org/2000/svg" data-name="Layer 1"><path d="m3.229 1.393c-.496-.535-.121-1.388.508-1.393h16.263c.553 0 1 .448 1 1s-.447.999-1 .999h-5.207c-1.861 1.529-3.756 2.037-5.462 1.998-3.077-.121-5.25-1.666-6.102-2.605zm.771 7.607h8.642c.447 1.72 1.999 3 3.858 3h3.5c.553 0 1-.448 1-1s-.447-1-1-1h-3.5c-.737 0-1.375-.405-1.722-1h5.222c.553 0 1-.448 1-1s-.447-1-1-1h-5.222c.347-.595.985-1 1.722-1h3.5c.553 0 1-.448 1-1s-.447-1-1-1h-3.5c-1.859 0-3.411 1.28-3.858 3h-8.642c-.553 0-1 .448-1 1s.447 1 1 1zm20 5.5c0-.829-.672-1.5-1.5-1.5h-21c-.828 0-1.5.671-1.5 1.5s.672 1.5 1.5 1.5h2.49c-.825.972-1.445 2.135-1.77 3.438l-.675 2.698c-.201.803.287 1.618 1.091 1.819.782.203 1.622-.281 1.819-1.091l.675-2.698c.613-2.453 2.807-4.165 5.336-4.165h1.836c.385 0 .698.313.698.698 0 .332-.236.62-.561.685l-3.233.646c-.812.162-1.34.953-1.177 1.765.162.813.958 1.34 1.765 1.177l3.233-.646c.762-.152 1.423-.545 1.933-1.078.031-.024 3.367-2.986 3.367-2.986.398-.359 1.054-.329 1.413.068.368.383.336 1.059-.059 1.404l-4.085 3.649c-.618.552-.672 1.5-.119 2.118 1.627 2.03 5.231-2.56 6.211-3.538.757-.755 1.256-1.702 1.307-2.769.021-.425-.043-.837-.151-1.236.662-.156 1.156-.747 1.156-1.456z"/></svg>