<svg id="Layer_1" viewBox="0 0 24 24" xmlns="http://www.w3.org/2000/svg" data-name="Layer 1"><path d="m23.171 8.206c-.85-1.285-2.353-3.189-4.689-4.962-2.741-2.08-6.11-3.24-10.022-3.24-.225 0-3.027-.004-3.307-.004-1.132 0-2.138.583-2.701 1.56-.567.985-.565 2.162.007 3.148.606 1.045 1.001 2.027 1.241 3.121l-2.073-.754c-.925-.336-1.836.504-1.585 1.456.197.75.351 1.609.351 2.468s-.153 1.718-.351 2.468c-.251.952.66 1.793 1.585 1.456l2.073-.754c-.24 1.094-.635 2.075-1.241 3.12-.571.985-.573 2.162-.006 3.146.563.979 1.575 1.562 2.705 1.562h1.538c1.572 0 2.974-.998 3.489-2.483l.95-2.745c.566-1.792.865-3.787.865-5.772 0-1.939-.296-3.86-.88-5.709l-.674-2.135c.752.102 1.461.272 2.151.473.212.636.429 1.311.626 1.954.232.758 1.079 1.095 1.794.753.449-.215.952-.336 1.484-.336.249 0 .49.03.724.08 1.777 1.466 2.909 2.97 3.445 3.781.217.327.331.721.331 1.138 0 .423-.127.836-.368 1.197-.633.947-1.744 2.368-3.437 3.756-.288.236-.591.456-.899.668 0-.002.002-.008.002-.01.221-.712.395-1.436.527-2.166.144-.787-.384-1.497-1.148-1.734-.677-.21-1.653.317-1.782 1.156-.341 2.211-1.132 5.573-2.963 8.857-.346.62.102 1.277.8 1.277.113 0 .176-.026.266-.061 1.303-.519 2.645-1.869 3.091-3.262 1.458-.611 2.806-1.42 4.007-2.405 1.979-1.621 3.284-3.292 4.03-4.409.572-.855.874-1.846.874-2.864 0-1.008-.287-1.975-.829-2.793zm-14.884 7.624-.937 2.705c-.097.279-.36.466-.655.466h-1.538c-.088.03-.163-.163-.103-.205 1.4-2.416 1.945-4.602 1.945-7.795s-.545-5.38-1.945-7.796c-.058-.039.007-.233.099-.204h2.097l1.009 3.194c.492 1.556.741 3.173.741 4.806 0 1.682-.251 3.366-.712 4.829zm6.712-6.329c0-.828.672-1.5 1.5-1.5s1.5.672 1.5 1.5-.672 1.5-1.5 1.5-1.5-.672-1.5-1.5z"/></svg>