<svg id="Layer_1" viewBox="0 0 24 24" xmlns="http://www.w3.org/2000/svg" data-name="Layer 1"><path d="m22.999 8.499c0-4.687-3.813-8.499-8.499-8.499-2.989 0-4.865 1.45-6.372 2.615-1.11.858-1.832 1.385-2.627 1.385-1.008-.415-1.575-1.451-1.5-2.5 0-.829-.671-1.5-1.5-1.5s-1.501.671-1.501 1.5c-.125 2.691 1.783 5.007 4.437 5.682.95.384 1.563 1.294 1.563 2.318v4.001c0 1.024-.613 1.935-1.562 2.318-2.558.658-4.451 2.834-4.435 5.429l-.002 1.249c-.001.828.668 1.501 1.497 1.503h.003c.827 0 1.499-.67 1.5-1.497l.002-1.253c0-.972.576-1.82 1.476-2.252.007 0 .014.002.021.002.584 0 1.091.524 1.937 1.451 1.367 1.498 3.238 3.549 7.064 3.549 2.271 0 4.405-.884 6.01-2.489s2.49-3.74 2.489-6.011v-7.001zm-8.499-5.499c3.032 0 5.5 2.467 5.5 5.499v3.812c-.382.205-1.459.709-2.871.709-.881 0-1.43-.192-2.125-.436-.809-.284-1.726-.605-3.117-.605-.716 0-1.342.087-1.886.217v-2.697c0-1.347-.489-2.599-1.323-3.572.444-.293.868-.616 1.286-.939 1.323-1.023 2.572-1.989 4.537-1.989zm0 18c-2.501 0-3.641-1.249-4.847-2.57-.356-.391-.732-.796-1.146-1.164.465-.494.827-1.072 1.081-1.703.274-.18 1.025-.583 2.298-.583.881 0 1.43.192 2.125.436.809.284 1.726.605 3.117.605 1.13 0 2.098-.213 2.866-.465-.014 1.449-.58 2.809-1.605 3.833-1.039 1.039-2.42 1.611-3.889 1.611zm-2.629-13.38 2.259-2.259c.48-.48 1.259-.48 1.74 0l2.259 2.259c.509.509.149 1.38-.572 1.38h-1.058v.5c0 .829-.671 1.5-1.5 1.5s-1.5-.671-1.5-1.5v-.5h-1.058c-.72 0-1.081-.871-.572-1.38z"/></svg>