<svg id="Layer_1" viewBox="0 0 24 24" xmlns="http://www.w3.org/2000/svg" data-name="Layer 1"><path d="m11 8c-2.757 0-5 2.243-5 5s2.243 5 5 5 5-2.243 5-5-2.243-5-5-5zm0 7c-1.103 0-2-.897-2-2s.897-2 2-2 2 .897 2 2-.897 2-2 2zm13-.5c0-1.448-.88-2.69-2.133-3.223.802-.529 1.447-1.132 1.878-1.615.431-.484.299-1.232-.259-1.562-.58-.344-1.434-.724-2.565-.917.045-.222.079-.448.079-.683 0-1.933-1.567-3.5-3.5-3.5-.362 0-.702.074-1.029.177.162-.949.136-1.755.041-2.336-.1-.62-.73-.996-1.32-.779-.713.263-1.689.73-2.587 1.479-.513-.915-1.481-1.541-2.605-1.541-1.386 0-2.542.945-2.886 2.223-.345-.139-.719-.223-1.114-.223-1.802-.017-3.257 1.645-2.96 3.43-1.879 1.974-3.04 4.636-3.04 7.57 0 6.065 4.935 11 11 11 2.934 0 5.596-1.161 7.57-3.04 1.902.327 3.666-1.386 3.405-3.296 1.193-.558 2.025-1.76 2.025-3.164zm-13 6.5c-4.411 0-8-3.589-8-8s3.589-8 8-8 8 3.589 8 8-3.589 8-8 8z"/></svg>