<svg id="Layer_1" viewBox="0 0 24 24" xmlns="http://www.w3.org/2000/svg" data-name="Layer 1"><path d="m19 12c0 1.105-.265 2.206-.765 3.184-.378.745-1.297 1.025-2.019.651-.737-.377-1.029-1.281-.651-2.019.288-.563.435-1.175.435-1.816 0-2.206-1.794-4-4-4s-4 1.794-4 4c0 .642.146 1.253.435 1.816.378.737.086 1.642-.651 2.019-.736.378-1.643.087-2.019-.651-.5-.978-.765-2.078-.765-3.184 0-3.859 3.141-7 7-7s7 3.141 7 7zm-7-12c-6.617 0-12 5.383-12 12 0 2.226.614 4.4 1.776 6.287.435.705 1.358.922 2.064.49.705-.435.925-1.358.49-2.064-.871-1.413-1.331-3.043-1.331-4.713.001-4.963 4.038-9 9.001-9s9 4.037 9 9c0 1.67-.46 3.3-1.331 4.713-.435.706-.215 1.63.49 2.064.695.429 1.627.222 2.064-.49 1.162-1.887 1.776-4.062 1.776-6.287.001-6.617-5.382-12-11.999-12zm4.5 21h-3v-7.69c.307-.352.5-.806.5-1.31 0-1.105-.895-2-2-2s-2 .895-2 2c0 .504.193.958.5 1.31v7.69h-3c-.828 0-1.5.672-1.5 1.5s.672 1.5 1.5 1.5h9c.828 0 1.5-.672 1.5-1.5s-.672-1.5-1.5-1.5z"/></svg>