<svg id="Layer_1" viewBox="0 0 24 24" xmlns="http://www.w3.org/2000/svg" data-name="Layer 1"><path d="m24 13.5c0 1.678-.752 3.242-2.063 4.293-.642.515-1.587.416-2.108-.233-.518-.646-.413-1.59.233-2.108.596-.478.938-1.188.938-1.951 0-1.241-.909-2.274-2.098-2.468-.215.566-.762.968-1.402.968-.828 0-1.5-.671-1.5-1.5 0-1.365.911-2.193 1.921-2.426-.447-2.869-2.928-5.074-5.921-5.074s-5.474 2.205-5.921 5.074c1.01.232 1.921 1.061 1.921 2.426 0 .829-.672 1.5-1.5 1.5-.641 0-1.188-.402-1.402-.968-1.188.193-2.098 1.227-2.098 2.468 0 .763.342 1.474.938 1.951.646.519.751 1.462.233 2.108-.521.65-1.467.749-2.108.233-1.311-1.051-2.062-2.615-2.062-4.293 0-2.14 1.232-3.994 3.02-4.903.212-4.775 4.152-8.597 8.979-8.597s8.767 3.822 8.98 8.597c1.789.909 3.02 2.763 3.02 4.903zm-6 2.658v2.962c0 1.271-.689 2.443-1.8 3.061l-2.485 1.38c-.521.288-1.106.439-1.698.439-.608 0-1.21-.16-1.738-.461l-2.515-1.438c-1.088-.622-1.764-1.786-1.764-3.038v-2.905c0-1.26.681-2.427 1.776-3.046l2.496-1.414c1.061-.602 2.382-.602 3.444-.002l2.506 1.416c1.096.618 1.777 1.786 1.777 3.047zm-7.907-.911 1.688.964c.156.089.347.088.502-.003l1.626-.959-1.665-.941c-.153-.086-.34-.086-.493 0zm.907 2.822-2-1.143v2.136c0 .179.097.345.253.435l1.747.999zm4-1.14-2 1.143v2.454l1.743-.968c.158-.088.257-.256.257-.438z"/></svg>