<svg id="Layer_1" viewBox="0 0 24 24" xmlns="http://www.w3.org/2000/svg" data-name="Layer 1"><path d="m14.5 13c-.828 0-1.5-.672-1.5-1.5s.672-1.5 1.5-1.5 1.5.672 1.5 1.5-.672 1.5-1.5 1.5zm9.421 4.771c.269 1.55-.158 3.13-1.171 4.334s-2.497 1.895-4.07 1.895h-3.18c-.805.017-1.516-.694-1.5-1.5v-1.774c-.663.163-1.333.274-2 .274-.689 0-1.358-.101-2-.282v1.782c.016.806-.694 1.516-1.5 1.5h-3.18c-1.573 0-3.057-.691-4.07-1.895-1.013-1.204-1.44-2.784-1.171-4.334l.401-2.024c.268-1.546 1.631-2.715 3.235-2.746 1.139-.023 2.198.531 2.842 1.48 1.102 1.624 3.188 3.519 5.443 3.519 2.594 0 5.417-2.019 6.292-4.5.212-.6.779-1 1.415-1h.319c.258 0 .501-.102.687-.288s.287-.429.287-.687c0-.429-.306-.793-.726-.87-.656-.119-1.154-.656-1.224-1.319-.381-3.612-3.412-6.337-7.05-6.337-5.002 0-6.319 2.945-7.48 5.543-.042.094-.084.187-.125.279 2.05-.325 4.856-1.181 7.076-3.387.588-.583 1.536-.582 2.122.006.584.588.581 1.538-.006 2.122-1.108 1.101-2.315 1.92-3.525 2.547.55.222.939.759.939 1.389 0 .828-.672 1.5-1.5 1.5s-1.5-.672-1.5-1.5c0-.189.039-.369.103-.536-3.474 1.243-6.526 1.045-6.718 1.031-.654-.05-1.2-.521-1.347-1.161s.14-1.301.707-1.631c.267-.165.729-1.2 1.036-1.885 1.222-2.734 3.271-7.316 10.218-7.316 4.852 0 8.944 3.406 9.887 8.067 1.269.649 2.112 1.966 2.113 3.452 0 .849-.273 1.649-.762 2.323zm-16.921 1.443c-1.2-.881-2.202-1.982-2.926-3.049-.071-.105-.178-.166-.293-.166h-.007c-.171.003-.316.128-.345.295l-.401 2.024c-.11.641.076 1.329.517 1.854.442.525 1.088.826 1.774.826h1.68s0-1.785 0-1.785zm13.965-.93-.438-2.518c-.818 1.476-2.06 2.764-3.527 3.689v1.545h1.68c.686 0 1.333-.302 1.774-.827s.627-1.213.51-1.889zm-11.328-3.304c.592.628 1.431 1.02 2.362 1.02s1.77-.392 2.362-1.02c.347-.368.059-.98-.447-.98h-3.831c-.506 0-.795.612-.447.98z"/></svg>