<svg id="Layer_1" viewBox="0 0 24 24" xmlns="http://www.w3.org/2000/svg" data-name="Layer 1"><path d="m15.157 13.5h3.259c.52.893 1.476 1.5 2.584 1.5 1.657 0 3-1.343 3-3s-1.343-3-3-3c-1.108 0-2.064.607-2.584 1.5h-3.259c-1.202 0-2.333-.468-3.183-1.318l-1.518-1.518.346-.346c.851-.85 1.981-1.318 3.183-1.318h4.431c.52.893 1.476 1.5 2.584 1.5 1.657 0 3-1.343 3-3s-1.343-3-3-3c-1.108 0-2.064.607-2.584 1.5h-4.431c-2.003 0-3.886.78-5.304 2.197l-.346.346-2.355-2.355c.155-1.713-1.249-3.188-2.98-3.188-1.657 0-3 1.343-3 3s1.343 3 3 3c.453 0 .878-.108 1.263-.288l1.951 1.952-1.739 1.739c-.437-.249-.936-.403-1.476-.403-1.657 0-3 1.343-3 3s1.343 3 3 3c.539 0 1.038-.154 1.476-.403l1.739 1.739-1.951 1.951c-.385-.18-.81-.288-1.263-.288-1.657 0-3 1.343-3 3s1.343 3 3 3c1.692 0 3.135-1.475 2.981-3.188l2.354-2.354.346.346c1.418 1.417 3.301 2.196 5.304 2.196h4.431c.52.893 1.476 1.5 2.584 1.5 1.657 0 3-1.343 3-3s-1.343-3-3-3c-1.108 0-2.064.607-2.584 1.5h-4.431c-1.201 0-2.332-.468-3.183-1.318l-.346-.346 1.518-1.518c.85-.85 1.98-1.318 3.183-1.318zm-9.036-1.5 2.215-2.215 1.518 1.518c.256.256.531.483.816.697-.284.214-.56.441-.816.697l-1.518 1.518z"/></svg>