<svg id="Layer_1" viewBox="0 0 24 24" xmlns="http://www.w3.org/2000/svg" data-name="Layer 1"><path d="m23.995 12.189c0-6.807-5.351-12.184-12.187-12.184-6.49 0-11.824 5.428-11.813 11.995 0 6.619 5.385 12.005 12.005 12.005 6.568.012 11.886-5.327 11.995-11.816zm-4.142 4.201c-1.069.403-2.195.612-3.352.612-5.24 0-9.504-4.263-9.504-9.504 0-1.156.209-2.283.613-3.352.629-.353 1.305-.627 2.015-.822-.076.49-.127.986-.127 1.491 0 5.341 4.344 9.686 9.685 9.686.505 0 1-.051 1.491-.127-.195.71-.469 1.387-.822 2.016zm-4.307-12.663c.302 2.467 2.26 4.426 4.727 4.728.375.87.611 1.812.692 2.797-.576.159-1.171.248-1.781.248-3.686 0-6.684-2.999-6.684-6.684 0-.611.089-1.205.248-1.781.985.082 1.927.318 2.798.692zm-12.55 8.273c0-1.494.371-2.902 1.019-4.144.189 6.609 5.52 11.94 12.129 12.129-1.242.647-2.649 1.019-4.144 1.019-4.965 0-9.004-4.039-9.004-9.004z"/></svg>