<svg id="Layer_1" viewBox="0 0 24 24" xmlns="http://www.w3.org/2000/svg" data-name="Layer 1"><path d="m12 20c0 2.209-1.832 4-4.091 4-.69 0-1.339-.169-1.909-.464-.57.295-1.219.464-1.909.464-2.259 0-4.091-1.791-4.091-4s1.832-4 4.091-4h.849c-.114-.637-.371-1.212-.541-1.542-.253-.491-.061-1.094.43-1.348s1.094-.061 1.347.43c.153.297.313.672.456 1.081.131-.244.284-.481.486-.683.634-.634 1.544-.867 2.167-.935.407-.044.756.305.712.712-.068.623-.302 1.534-.935 2.167-.082.082-.176.147-.267.217 1.833.396 3.206 1.989 3.206 3.901zm12-11v11c0 2.206-1.794 4-4 4h-5c-.829 0-1.5-.671-1.5-1.5s.671-1.5 1.5-1.5h1.126c-.083-.32-.126-.655-.126-1v-11c0-.347.058-.678.142-1h-6.642c-.827 0-1.5.673-1.5 1.5s-.671 1.5-1.5 1.5-1.5-.671-1.5-1.5c0-2.481 2.019-4.5 4.5-4.5h4.528l.257-1.955c.228-1.736 1.719-3.045 3.47-3.045h2.745c.829 0 1.5.671 1.5 1.5s-.671 1.5-1.5 1.5h-2.745c-.25 0-.463.187-.496.435l-.205 1.565h2.946c2.173.047 4.008 1.772 4 4zm-3 0c0-.551-.449-1-1-1s-1 .449-1 1v11c0 .551.449 1 1 1s1-.449 1-1z"/></svg>