<svg id="Layer_1" viewBox="0 0 24 24" xmlns="http://www.w3.org/2000/svg" data-name="Layer 1"><path d="m8.969 13.085c.688 0 1.346-.356 1.715-.971l1.306-2.448.906 1.672c1.154-.838 2.569-1.338 4.104-1.338 1.225 0 2.375.316 3.377.869l2.257-1.012c1.211-.404 1.737-1.825 1.08-2.92h.002l-1.022-2.236c-.453-.753-1.14-1.337-1.956-1.663l-6.514-2.608c-.716-.286-1.224-.43-2.224-.43-.757 0-1.523.144-2.24.431l-6.498 2.607c-.815.327-1.5.91-1.953 1.662l-1.024 2.238c-.657 1.095-.131 2.517 1.08 2.92l6.971 3.124c.208.069.422.103.632.103zm1.909-9.869c.357-.143.733-.216 1.117-.216s.759.072 1.115.215l5.388 2.157-6.496 2.407-6.498-2.407zm3.656 20.328c-.813.293-1.67.455-2.534.455-1 0-1.538-.122-2.268-.365l-4.122-1.374c-2.161-.72-3.61-2.733-3.608-5.009v-4.917l2.999 1.344v3.574c0 .983.626 1.851 1.559 2.162l4.652 1.506c.805 1.185 1.961 2.11 3.323 2.624zm9.026-2.105-2.145-2.145c.361-.691.584-1.463.584-2.295 0-2.757-2.243-5-5-5s-5 2.243-5 5 2.243 5 5 5c.831 0 1.604-.223 2.295-.584l2.145 2.145c.293.293.677.439 1.061.439s.768-.146 1.061-.439.439-.677.439-1.061-.146-.768-.439-1.061zm-6.561-2.439c-1.103 0-2-.897-2-2s.897-2 2-2 2 .897 2 2-.897 2-2 2z"/></svg>