<svg id="Layer_1" viewBox="0 0 24 24" xmlns="http://www.w3.org/2000/svg" data-name="Layer 1"><path d="m14.829 9.658c-.508-1.016-1.547-1.658-2.683-1.658h-4.146c-1.657 0-3 1.343-3 3v2c0 .748.416 1.392 1.024 1.735.114.716.729 1.265 1.476 1.265.652 0 1.202-.419 1.408-1h3.184c.207.581.756 1 1.408 1 .748 0 1.363-.549 1.476-1.265.608-.343 1.024-.987 1.024-1.735v-.427c0-.377-.088-.748-.256-1.085l-.915-1.829zm-3.829 2.342h-3c-.552 0-1-.448-1-1s.448-1 1-1h3c.552 0 1 .448 1 1s-.448 1-1 1zm11.5-1.5c.828 0 1.5-.671 1.5-1.5v-.5c0-3.033-2.468-5.5-5.5-5.5h-13c-3.032 0-5.5 2.467-5.5 5.5v7c0 3.032 2.468 5.5 5.5 5.5h13c3.032 0 5.5-2.468 5.5-5.5v-.5c0-.828-.672-1.5-1.5-1.5s-1.5-.673-1.5-1.5.673-1.5 1.5-1.5zm-1.602 5.706c-.305 1.035-1.265 1.794-2.398 1.794h-13c-1.379 0-2.5-1.121-2.5-2.5v-7c0-1.378 1.121-2.5 2.5-2.5h13c1.134 0 2.094.758 2.398 1.794-1.693.646-2.898 2.288-2.898 4.206s1.205 3.559 2.898 4.206z"/></svg>