<svg id="Layer_1" viewBox="0 0 24 24" xmlns="http://www.w3.org/2000/svg" data-name="Layer 1"><path d="m20.697 14.025c-1.319-1.32-3.622-1.324-4.945-.005l-.41.403c-2.587-1.198-4.481-3.099-5.755-5.776l.388-.395c.661-.661 1.025-1.54 1.025-2.475s-.364-1.814-.986-2.434l-2.152-2.318c-1.309-1.308-3.582-1.325-4.908-.042 0 0-1.067.93-1.091.955-1.201 1.199-1.863 2.819-1.863 4.562 0 7.523 9.977 17.5 17.5 17.5 1.742 0 3.362-.662 4.562-1.862.024-.024.954-1.092.954-1.092.636-.656.984-1.517.984-2.433 0-.935-.364-1.814-1.065-2.514l-2.237-2.074zm.156 4.941c-.024.024-.948 1.084-.948 1.084-.629.613-1.481.95-2.405.95-5.51 0-14.5-8.101-14.5-14.5 0-.924.337-1.776.949-2.405 0 0 1.06-.924 1.084-.948.127-.127.276-.146.353-.146s.226.019.314.106l2.152 2.319c.127.127.146.276.146.353s-.019.226-.156.362l-1.108 1.127c-.418.425-.544 1.058-.322 1.611 1.694 4.22 4.633 7.153 8.732 8.717.549.208 1.17.079 1.587-.332l1.135-1.117c.128-.127.276-.146.354-.146s.227.019.395.186l2.237 2.075c.128.127.146.276.146.353s-.019.226-.146.353zm.647-18.966h-6c-1.375 0-2.5 1.126-2.5 2.501l.002 7.41c0 .858.949 1.378 1.672.915l2.826-1.827h4c1.381 0 2.5-1.119 2.5-2.5v-3.998c0-1.381-1.119-2.501-2.5-2.501zm-1.5 6.999h-3c-1.105 0-2-.895-2-2h1.737l1.242.842c.315.21.726.21 1.041 0l1.242-.842h1.737c0 1.105-.895 2-2 2zm-5-3c0-1.105.895-2 2-2h3c1.105 0 2 .895 2 2z"/></svg>