<svg id="Layer_1" viewBox="0 0 24 24" xmlns="http://www.w3.org/2000/svg" data-name="Layer 1"><path d="m8 12.5c0 .828-.672 1.5-1.5 1.5s-1.5-.672-1.5-1.5.672-1.5 1.5-1.5 1.5.672 1.5 1.5zm-1.5 3.5c-.828 0-1.5.672-1.5 1.5s.672 1.5 1.5 1.5 1.5-.672 1.5-1.5-.672-1.5-1.5-1.5zm5 3c.828 0 1.5-.672 1.5-1.5s-.672-1.5-1.5-1.5-1.5.672-1.5 1.5.672 1.5 1.5 1.5zm7-6h-2c-.828 0-1.5.672-1.5 1.5v4c0 1.379-1.121 2.5-2.5 2.5h-7c-1.379 0-2.5-1.121-2.5-2.5v-13c0-1.379 1.121-2.5 2.5-2.5h2c.828 0 1.5-.672 1.5-1.5s-.672-1.5-1.5-1.5h-2c-3.032 0-5.5 2.468-5.5 5.5v13c0 3.032 2.468 5.5 5.5 5.5h7c2.513 0 4.638-1.694 5.292-4h.708c.828 0 1.5-.672 1.5-1.5v-4c0-.828-.672-1.5-1.5-1.5zm-10.5-6v-2h-1.5c-.828 0-1.5.672-1.5 1.5v1c0 .828.672 1.5 1.5 1.5h1.85c-.223-.627-.35-1.298-.35-2zm3.5 7c.689 0 1.263-.467 1.439-1.1-1.006-.18-1.925-.609-2.691-1.225-.156.237-.249.52-.249.825 0 .828.672 1.5 1.5 1.5zm12.5-10v3c0 2.206-1.794 4-4 4h-6c-2.206 0-4-1.794-4-4v-3c0-2.206 1.794-4 4-4h6c2.206 0 4 1.794 4 4zm-3 3v-2h-8v2c0 .552.448 1 1 1h6c.552 0 1-.448 1-1z"/></svg>