<svg id="Layer_1" viewBox="0 0 24 24" xmlns="http://www.w3.org/2000/svg" data-name="Layer 1"><path d="m17.925 7.803-.925-.924v-3.965c.582-.206 1-.761 1-1.414 0-.829-.672-1.5-1.5-1.5h-9c-.828 0-1.5.671-1.5 1.5 0 .653.418 1.208 1 1.414v3.964l-.925.925c-1.983 1.983-3.075 4.62-3.075 7.425v3.272c0 3.033 2.468 5.5 5.5 5.5h7c3.032 0 5.5-2.467 5.5-5.5v-3.272c0-2.805-1.092-5.441-3.075-7.425zm.075 10.697c0 1.378-1.121 2.5-2.5 2.5h-7c-1.379 0-2.5-1.122-2.5-2.5v-3.272c0-2.003.78-3.887 2.196-5.303l1.364-1.364c.281-.282.439-.663.439-1.061v-4.5h4v4.5c0 .398.158.779.439 1.061l1.364 1.363c1.416 1.417 2.196 3.3 2.196 5.304v3.272zm-2.97-4.074 1.544 1.544c.568.568.568 1.492 0 2.059l-1.544 1.544c-.284.284-.657.426-1.03.426s-.746-.142-1.029-.426l-1.545-1.544c-.567-.568-.567-1.491 0-2.059l1.546-1.545c.567-.568 1.492-.568 2.059 0zm-3.437-1.423-1.594 1.593c-.455.456-.726 1.024-.826 1.616-.67-.15-1.173-.747-1.173-1.462v-2.25c0-.827.673-1.5 1.5-1.5h2.25c.715 0 1.312.503 1.462 1.174-.611.102-1.174.383-1.62.829z"/></svg>