<svg id="Layer_1" viewBox="0 0 24 24" xmlns="http://www.w3.org/2000/svg" data-name="Layer 1"><path d="m23.145 11.698c-.352-.469-.787-.845-1.274-1.127.083-.35.13-.71.13-1.072 0-1.587-.793-3.016-2.082-3.857-.387-1.999-2.1-3.53-4.185-3.637-.818-1.233-2.204-2.005-3.732-2.005s-2.915.772-3.732 2.006c-2.229.114-4.035 1.857-4.246 4.06-1.24.849-2.02 2.271-2.02 3.81 0 .248.029.491.067.733-.462.278-.875.642-1.212 1.09-.816 1.086-1.064 2.46-.682 3.769.676 2.313 1.902 4.402 3.546 6.039 1.59 1.585 3.833 2.493 6.156 2.493h4.244c2.323 0 4.567-.908 6.156-2.492 1.644-1.638 2.871-3.727 3.547-6.041.381-1.308.133-2.682-.683-3.769zm-17.077-3.338c.668-.247 1.068-.943.961-1.646-.193-1.009.808-1.929 1.803-1.672.754.168 1.515-.264 1.756-1 .202-.623.77-1.042 1.414-1.042s1.212.419 1.414 1.042c.24.736 1.002 1.167 1.756 1 .934-.238 1.884.549 1.822 1.501-.021.638.365 1.219.962 1.447.635.244 1.046.837 1.046 1.51 0 .174-.036.34-.088.5h-3.004c.056-.157.092-.324.092-.5 0-.828-.671-1.5-1.5-1.5s-1.5.672-1.5 1.5c0 .176.036.343.092.5h-8.068c-.11-.71.371-1.392 1.042-1.64zm14.88 6.266c-.527 1.804-1.515 3.492-2.785 4.756-1.032 1.028-2.505 1.618-4.039 1.618h-4.244c-1.535 0-3.007-.59-4.039-1.619-1.269-1.263-2.257-2.951-2.784-4.754-.115-.394-.041-.805.202-1.129.14-.187.454-.498.996-.498h15.494c.542 0 .856.312.996.498.243.324.317.735.203 1.128zm-11.946-7.126c0-.828.671-1.5 1.5-1.5s1.5.672 1.5 1.5-.671 1.5-1.5 1.5-1.5-.672-1.5-1.5zm8.492 7.771c-.414 3.922-3.659 4.603-5.143 4.71h-.699c-1.484-.107-4.729-.788-5.143-4.71-.083-.783.624-1.415 1.386-1.243 2.509.568 3.616 2.505 4.107 4.02.491-1.515 1.597-3.452 4.107-4.02.761-.172 1.468.46 1.386 1.243z"/></svg>