<svg id="Layer_1" viewBox="0 0 24 24" xmlns="http://www.w3.org/2000/svg" data-name="Layer 1"><path d="m24 9.5c0 .828-.672 1.5-1.5 1.5-.679 0-1.246-.454-1.431-1.073l-1.133-.654c-.275.235-.589.42-.936.543v2.184c0 .553-.448 1-1 1s-1-.447-1-1v-2.184c-.347-.124-.661-.309-.936-.543l-1.133.654c-.185.619-.752 1.073-1.431 1.073-.828 0-1.5-.672-1.5-1.5s.672-1.5 1.5-1.5c.202 0 .395.041.571.114l.985-.568c-.033-.177-.055-.359-.055-.545 0-.188.022-.37.055-.549l-1.879-1.085c-.478-.276-.642-.888-.366-1.366s.886-.643 1.366-.366l1.89 1.091c.274-.234.587-.418.933-.541v-1.573c-.305-.275-.5-.668-.5-1.111 0-.828.672-1.5 1.5-1.5s1.5.672 1.5 1.5c0 .443-.195.836-.5 1.111v1.573c.346.123.659.307.933.541l1.89-1.091c.479-.276 1.089-.113 1.366.366.276.479.112 1.09-.366 1.366l-1.879 1.085c.033.178.055.361.055.549 0 .187-.022.368-.055.545l.985.568c.176-.073.368-.114.571-.114.828 0 1.5.672 1.5 1.5zm-8.957 5.267c-.679.562-1.758 1.233-3.043 1.233-3.312 0-6-4.235-6-7 0-.697 0-2.548 3.687-3.012.822-.104 1.405-.854 1.301-1.676-.103-.821-.853-1.397-1.675-1.301-2.206.277-3.65.988-4.598 1.861-1.004-.331-1.715-1.279-1.715-2.373v-.999c0-.828-.671-1.5-1.5-1.5s-1.5.672-1.5 1.5v1c0 2.183 1.296 4.086 3.185 4.969-.137.552-.185 1.081-.185 1.531 0 4.064 3.235 8.872 7.5 9.82v3.68c0 .828.671 1.5 1.5 1.5s1.5-.672 1.5-1.5v-3.674c1.206-.27 2.381-.857 3.458-1.748.638-.528.727-1.475.198-2.112-.528-.639-1.474-.726-2.112-.198z"/></svg>