<svg id="Layer_1" viewBox="0 0 24 24" xmlns="http://www.w3.org/2000/svg" data-name="Layer 1"><path d="m24 5.5v8c0 3.033-2.468 5.5-5.5 5.5h-5v2h3c.828 0 1.5.671 1.5 1.5s-.672 1.5-1.5 1.5h-9c-.828 0-1.5-.671-1.5-1.5s.672-1.5 1.5-1.5h3v-2h-5c-3.032 0-5.5-2.467-5.5-5.5v-8c0-1.341.488-2.633 1.375-3.638.548-.622 1.495-.682 2.117-.133.621.548.681 1.496.133 2.117-.403.457-.625 1.044-.625 1.653v8.001c0 1.378 1.121 2.5 2.5 2.5h13c1.379 0 2.5-1.122 2.5-2.5v-8c0-.575-.189-1.115-.548-1.561-.519-.646-.415-1.59.23-2.109.647-.52 1.591-.415 2.109.23.779.97 1.208 2.192 1.208 3.439zm-18 5.5v-8c0-1.657 1.343-3 3-3h6c1.657 0 3 1.343 3 3v8c0 1.657-1.343 3-3 3h-6c-1.657 0-3-1.343-3-3zm8.5-3c-.828 0-1.5.672-1.5 1.5s.672 1.5 1.5 1.5 1.5-.672 1.5-1.5-.672-1.5-1.5-1.5zm-1.293-4.577-4.004 6.134c-.405.621.04 1.443.781 1.443.315 0 .609-.159.781-.423l4.004-6.134c.405-.621-.04-1.443-.781-1.443-.315 0-.609.159-.781.423zm-5.207.577c0 .828.672 1.5 1.5 1.5s1.5-.672 1.5-1.5-.672-1.5-1.5-1.5-1.5.672-1.5 1.5z"/></svg>