<svg id="Layer_1" viewBox="0 0 24 24" xmlns="http://www.w3.org/2000/svg" data-name="Layer 1"><path d="m16 17c0 1.258-.592 2.366-1.5 3.099v3.247c0 .581-.703.872-1.114.461l-1.386-1.386-1.386 1.386c-.411.411-1.114.12-1.114-.461v-3.247c-.908-.733-1.5-1.842-1.5-3.099 0-2.209 1.791-4 4-4s4 1.791 4 4zm6.808-4.29c.758.612 1.192 1.521 1.192 2.496v3.589c0 .974-.435 1.884-1.192 2.496-.575.465-1.28.71-2.002.71-.226 0-.453-.024-.679-.073-.978-.211-2.38-.494-3.849-.724.746-.759 1.286-1.716 1.546-2.784 1.048.184 2.056.385 2.936.575.122.031.244-.077.24-.201v-3.589c.005-.124-.12-.232-.24-.201-.88.19-1.888.391-2.936.575-.291-1.195-.937-2.248-1.824-3.043v-2.679l-1.511.635c-.8.336-1.658.504-2.516.504-.863 0-1.726-.17-2.529-.509l-1.444-.611v2.66c-.887.795-1.533 1.848-1.824 3.043-1.048-.184-2.056-.385-2.936-.575-.123-.03-.244.077-.24.201v3.589c-.004.124.118.231.24.201.88-.19 1.888-.391 2.936-.575.26 1.068.8 2.025 1.546 2.784-1.47.23-2.871.513-3.849.724-.949.202-1.926-.028-2.681-.638-.758-.612-1.192-1.521-1.192-2.496v-3.589c0-.974.435-1.884 1.192-2.496.754-.61 1.732-.843 2.681-.638.328.071.717.151 1.127.233v-3.697l-4.084-1.726c-.555-.234-.916-.779-.916-1.381s.361-1.147.916-1.381l8.528-3.606c1.602-.678 3.441-.68 5.045-.006l8.592 3.61c.557.234.919.779.919 1.383s-.362 1.149-.919 1.383l-4.081 1.715v3.708c.41-.082.799-.162 1.127-.233.946-.204 1.926.027 2.681.638zm-4.18-7.21-5.3-2.227c-.862-.362-1.852-.362-2.715.003l-5.26 2.224 5.26 2.224c.864.366 1.854.366 2.715.003z"/></svg>