<svg id="Layer_1" viewBox="0 0 24 24" xmlns="http://www.w3.org/2000/svg" data-name="Layer 1"><path d="m9 12c3.309 0 6-2.691 6-6s-2.691-6-6-6-6 2.691-6 6 2.691 6 6 6zm0-9c1.654 0 3 1.346 3 3s-1.346 3-3 3-3-1.346-3-3 1.346-3 3-3zm1.958 12.605c-.05.827-.759 1.468-1.588 1.406-.123-.007-.246-.011-.37-.011-3.133 0-5.762 2.444-5.984 5.565-.057.828-.787 1.452-1.603 1.39-.826-.059-1.448-.776-1.39-1.603.334-4.684 4.276-8.352 8.977-8.352.185 0 .37.006.552.017.827.05 1.457.761 1.406 1.588zm6.675 6.261c.32.45.216 1.074-.234 1.395-.701.499-1.592.74-2.398.74-1.029 0-1.972-.395-2.749-1.172-1.559-1.56-1.559-4.097 0-5.656l1.414-1.415c1.197-1.198 3.031-1.509 4.553-.782.499.238.71.835.472 1.333s-.836.709-1.333.471c-.764-.364-1.679-.208-2.277.392l-1.414 1.414c-.779.78-.779 2.048 0 2.828.694.693 1.775.786 2.573.217.45-.32 1.074-.214 1.395.234zm6.367-6.845c0 1.068-.416 2.073-1.172 2.828l-1.414 1.415c-.767.767-1.794 1.171-2.833 1.171-.584 0-1.172-.127-1.72-.389-.499-.238-.71-.835-.472-1.333s.836-.709 1.333-.471c.762.363 1.678.208 2.277-.392l1.414-1.414c.378-.378.586-.88.586-1.414s-.208-1.037-.586-1.415c-.692-.692-1.773-.786-2.572-.217-.45.322-1.074.215-1.395-.234s-.216-1.074.234-1.395c1.596-1.137 3.76-.955 5.146.432.756.755 1.172 1.76 1.172 2.829z"/></svg>