<?xml version="1.0" encoding="UTF-8"?>
<svg xmlns="http://www.w3.org/2000/svg" id="Layer_1" data-name="Layer 1" viewBox="0 0 24 24">
  <path d="M14,5c0,2.209-1.791,4-4,4s-4-1.791-4-4S7.791,1,10,1s4,1.791,4,4Zm8.5,10h-3.204l-.288-1.151c2.245-.426,4.991-1.853,4.991-5.349,0-.829-.671-1.5-1.5-1.5s-1.5,.671-1.5,1.5c0,1.384-1.045,2-2,2.276V1.5c0-.829-.671-1.5-1.5-1.5-.652,0-1.202,.419-1.408,1h-.092c-.552,0-1,.448-1,1s.448,1,1,1v5.092c-.581,.207-1,.756-1,1.408v7c0,.652,.419,1.201,1,1.408v4.592c0,.828,.671,1.5,1.5,1.5h1.5c1.252,0,2-1.017,2-2,0-.123-.015-.245-.045-.364l-.909-3.636h2.454c.829,0,1.5-.672,1.5-1.5s-.671-1.5-1.5-1.5Zm-10,6h-4c-.276,0-.5-.225-.5-.5v-6.026c.604-.31,1.269-.474,2-.474,.407,0,.809,.06,1.197,.179,.791,.236,1.63-.205,1.873-.997,.242-.792-.204-1.631-.997-1.873-.672-.205-1.369-.309-2.073-.309-2.862,0-5.281,1.517-6.817,4.281L.183,20.781c-.396,.728-.128,1.639,.599,2.035,.713,.393,1.636,.136,2.035-.598l2.183-4.003v2.284c0,1.93,1.57,3.5,3.5,3.5h4c.829,0,1.5-.672,1.5-1.5s-.671-1.5-1.5-1.5Z"/>
</svg>
