<svg id="Layer_1" viewBox="0 0 24 24" xmlns="http://www.w3.org/2000/svg" data-name="Layer 1"><path d="m22.642 18.977-.227-.133c.052-.274.085-.555.085-.844s-.033-.57-.085-.844l.227-.133c.715-.419.956-1.337.538-2.053-.419-.715-1.337-.954-2.052-.537l-.242.142c-.408-.344-.872-.616-1.385-.799v-.276c0-.829-.671-1.5-1.5-1.5s-1.5.671-1.5 1.5v.276c-.513.183-.977.455-1.385.799l-.242-.142c-.714-.417-1.634-.178-2.052.537-.418.716-.178 1.634.538 2.053l.227.133c-.052.274-.085.555-.085.844s.033.57.085.844l-.227.133c-.715.419-.956 1.337-.538 2.053.279.477.781.742 1.296.742.257 0 .518-.066.756-.205l.242-.142c.408.344.872.616 1.385.799v.276c0 .828.671 1.5 1.5 1.5s1.5-.672 1.5-1.5v-.276c.513-.183.977-.455 1.385-.799l.242.142c.238.139.499.205.756.205.516 0 1.017-.266 1.296-.742.418-.716.178-1.634-.538-2.053zm-3.142-.977c0 .827-.673 1.5-1.5 1.5s-1.5-.673-1.5-1.5.673-1.5 1.5-1.5 1.5.673 1.5 1.5zm-11 1c.37 0 .733-.012 1.089-.033.827-.049 1.458-.76 1.408-1.587-.05-.826-.775-1.47-1.587-1.407-.297.018-.602.027-.911.027-3.465 0-5.343-1.106-5.5-1.5v-1.499c1.554.659 3.53.999 5.5.999 4.224 0 8.5-1.546 8.5-4.5v-5c.001-2.954-4.275-4.5-8.499-4.5s-8.5 1.546-8.5 4.5v15c0 2.954 4.276 4.5 8.5 4.5.37 0 .733-.012 1.089-.033.827-.049 1.458-.76 1.408-1.587-.05-.826-.775-1.47-1.587-1.407-.297.018-.602.027-.911.027-3.465 0-5.343-1.106-5.5-1.5v-1.499c1.554.659 3.53.999 5.5.999zm0-8c-3.464 0-5.343-1.106-5.5-1.5v-1.499c1.554.659 3.53.999 5.5.999s3.95-.341 5.504-1.001l.002 1.454c-.164.44-2.042 1.547-5.506 1.547zm0-8c3.419 0 5.286 1.075 5.485 1.482-.223.456-2.085 1.518-5.485 1.518-3.419 0-5.286-1.075-5.485-1.482.223-.456 2.085-1.518 5.485-1.518z"/></svg>