<svg id="Layer_1" viewBox="0 0 24 24" xmlns="http://www.w3.org/2000/svg" data-name="Layer 1"><path d="m8.504 10c-.966 0-1.5-.771-1.5-1.208s.534-.792 1.5-.792 1.5.354 1.5.792-.534 1.208-1.5 1.208zm15.496-4.5v1.974c0 4.657-2.258 9.065-6.041 11.792-.601.433-.959 1.168-.959 1.966v1.269c0 .829-.671 1.5-1.5 1.5s-1.5-.671-1.5-1.5v-1.269c0-1.76.824-3.404 2.205-4.399 1.052-.758 1.955-1.68 2.685-2.716-1.178.567-2.498.885-3.89.885h-6.5c-3.033 0-5.5 2.467-5.5 5.5v2c0 .829-.671 1.5-1.5 1.5s-1.5-.671-1.5-1.5v-2c0-2.827 1.392-5.328 3.521-6.874-1.528-1.19-2.517-3.043-2.517-5.126 0-.099-.003-.537.006-.628.052-3.066.566-5.942.589-6.068l.059-.89c.177-.772 1.046-1.152 1.73-.758l1.872 1.491c.972-.414 2.063-.648 3.239-.648s2.271.235 3.244.649l1.877-1.493c.684-.393 1.553-.013 1.729.756l.059.891c.023.127.536 2.998.589 6.06.01.095.006.534.007.637 0 1.289-.382 2.488-1.032 3.5h.028c3.309 0 6-2.691 6-6v-.5c0-.829.671-1.5 1.5-1.5s1.5.671 1.5 1.5zm-14.496 6.5c1.93 0 3.5-1.57 3.5-3.5v-.5c0-2.355-1.852-4-4.504-4s-4.496 1.645-4.496 4v.5c0 1.93 1.57 3.5 3.5 3.5zm-3.004 5c0 1.105.895 2 2 2s2-.895 2-2-.895-2-2-2-2 .895-2 2z"/></svg>