<svg id="Layer_1" viewBox="0 0 24 24" xmlns="http://www.w3.org/2000/svg" data-name="Layer 1"><path d="m24 3.5v8.5c0 6.617-5.383 12-12 12s-12-5.383-12-12v-8.5c0-1.93 1.57-3.5 3.5-3.5h2c.545 0 1.054.136 1.515.359l-.442.277c-.978.611-1.572 1.683-1.572 2.837v2.528h-2.001v6c0 4.963 4.038 9 9 9s9-4.037 9-9v-6.001h-2v-2.528c0-1.154-.594-2.226-1.572-2.837l-.442-.277c.46-.223.97-.359 1.515-.359h2c1.93 0 3.5 1.57 3.5 3.5zm-17.963 9.165c.336 3.041 2.9 5.335 5.963 5.335s5.627-2.294 5.963-5.335c.091-.823-.502-1.564-1.326-1.656-.826-.086-1.564.502-1.656 1.326-.168 1.52-1.45 2.665-2.982 2.665s-2.813-1.146-2.982-2.665c-.091-.824-.835-1.411-1.656-1.326-.823.092-1.417.833-1.326 1.656zm9.883-10.613-2.742-1.714c-.721-.45-1.635-.45-2.356 0l-2.742 1.714 3.92 2.24zm-2.92 8.86 2.956-1.843c.65-.406 1.044-1.118 1.044-1.884v-3.454l-4 2.294zm-4.956-1.843 2.956 1.86v-4.907l-4-2.307v3.47c0 .766.395 1.478 1.044 1.884z"/></svg>