<svg id="Layer_1" viewBox="0 0 24 24" xmlns="http://www.w3.org/2000/svg" data-name="Layer 1"><path d="m13 11.264c1.135-.794 2.513-1.264 4-1.264s2.865.47 4 1.264c-1.551 1.085-2.638 2.781-2.92 4.736h-2.16c-.282-1.955-1.369-3.651-2.92-4.736zm-1.506 1.428c-.737.94-1.236 2.072-1.414 3.308h3.819c-.289-1.418-1.191-2.602-2.405-3.308zm-1.414 5.308c.178 1.236.677 2.367 1.414 3.308 1.214-.706 2.116-1.89 2.405-3.308zm10.021-2h3.819c-.178-1.236-.677-2.367-1.414-3.308-1.214.706-2.116 1.89-2.405 3.308zm-2.021 2h-2.16c-.282 1.955-1.369 3.651-2.92 4.736 1.135.794 2.513 1.264 4 1.264s2.865-.47 4-1.264c-1.551-1.085-2.638-2.781-2.92-4.736zm.42-18h-13c-3.033 0-5.5 2.468-5.5 5.5v.5c0 .828.671 1.5 1.5 1.5.867 0 1.521.636 1.521 1.479 0 .853-.668 1.521-1.521 1.521-.829 0-1.5.672-1.5 1.5v.5c0 3.032 2.467 5.5 5.5 5.5h1c.829 0 1.5-.672 1.5-1.5s-.671-1.5-1.5-1.5h-1c-1.133 0-2.092-.758-2.398-1.793 1.705-.648 2.919-2.299 2.919-4.228 0-1.949-1.195-3.57-2.915-4.199.31-1.028 1.266-1.78 2.395-1.78h13c1.133 0 2.093.758 2.398 1.794-.51.194-.984.481-1.398.852-.617.552-.67 1.5-.118 2.118.553.617 1.501.671 2.118.118.275-.246.63-.382 1-.382.829 0 1.5-.672 1.5-1.5v-.5c0-3.032-2.467-5.5-5.5-5.5zm4.006 21.308c.737-.94 1.236-2.072 1.414-3.308h-3.819c.289 1.418 1.191 2.602 2.405 3.308z"/></svg>