<svg id="Layer_1" viewBox="0 0 24 24" xmlns="http://www.w3.org/2000/svg" data-name="Layer 1"><path d="m17.282 10.902-4.261 2.02v-3.857c1.692.196 3.188.866 4.261 1.837zm-11.777 1.558c-.323.632-.505 1.319-.505 2.04 0 .704.176 1.376.484 1.995l4.225-2.003zm8.836 2.05 4.162 2.012c.317-.627.497-1.308.497-2.023 0-.696-.172-1.36-.474-1.974l-4.185 1.984zm-1.32 5.424c1.671-.193 3.149-.85 4.219-1.801l-4.219-2.04v3.84zm-2-7.029v-3.845c-1.681.186-3.169.84-4.246 1.792zm0 7.034v-3.856l-4.284 2.031c1.08.97 2.584 1.637 4.284 1.825zm12.872-1.441c.215 1.377-.182 2.774-1.088 3.834-.907 1.06-2.228 1.667-3.622 1.667h-14.367c-1.395 0-2.715-.608-3.622-1.667-.906-1.06-1.303-2.457-1.088-3.834l1.81-11.577-1.146-1.434c-.819-1.023-.975-2.392-.408-3.572.568-1.182 1.734-1.915 3.044-1.915h17.188c1.311 0 2.477.733 3.044 1.915.567 1.181.411 2.55-.407 3.573l-1.146 1.434 1.81 11.578zm-20.782-14.885 1.109 1.387h15.559l1.109-1.387c.122-.153.092-.302.045-.399s-.144-.214-.34-.214h-17.187c-.196 0-.293.116-.34.214s-.077.246.045.399zm17.817 15.348-1.713-10.961h-14.431l-1.713 10.961c-.081.518.062 1.022.402 1.42.342.398.818.618 1.343.618h14.367c.524 0 1.001-.22 1.343-.618.341-.398.483-.903.402-1.42z"/></svg>