<svg id="Layer_1" viewBox="0 0 24 24" xmlns="http://www.w3.org/2000/svg" data-name="Layer 1"><path d="m10.526 11.057.53 1.404h-1.064l.535-1.404zm11.854 7.42c-.224.414-.495.787-.806 1.106-.579.593-1.529.605-2.121.026-.594-.578-.605-1.528-.027-2.121.117-.119.223-.266.314-.437.737-1.362-.271-3.006-1.752-4.494-.124 9.422-3.305 11.443-5.988 11.443-.828 0-1.5-.671-1.5-1.5s.672-1.5 1.5-1.5c1.077 0 1.903-1.11 2.414-3.115-3.398 2.078-6.155 3.117-8.339 3.117-1.86.028-3.572-.846-4.455-2.525-.308-.569-.504-1.171-.581-1.79-.104-.822.479-1.572 1.302-1.675.82-.103 1.571.48 1.675 1.301.091.718.594 1.451 1.318 1.604.556.145 1.617.171 3.459-.523-8.334-5.343-8.509-9.403-7.173-11.871.224-.414.495-.787.806-1.106.579-.594 1.531-.604 2.121-.026.594.578.605 1.528.027 2.121-.117.119-.223.266-.314.437-.737 1.362.271 3.006 1.752 4.494.124-9.423 3.305-11.443 5.988-11.443.828 0 1.5.671 1.5 1.5s-.672 1.5-1.5 1.5c-1.078 0-1.905 1.112-2.415 3.12 4.224-2.582 7.454-3.561 9.836-2.94 1.288.334 2.311 1.145 2.959 2.343.308.569.504 1.171.581 1.79.104.822-.479 1.572-1.302 1.675-.819.104-1.57-.479-1.675-1.301-.091-.718-.594-1.451-1.318-1.604-.557-.144-1.617-.171-3.458.523 8.334 5.343 8.508 9.402 7.172 11.871zm-9.38-4.298-1.772-4.695c-.11-.291-.389-.484-.7-.484s-.589.192-.699.482l-1.788 4.693c-.151.397.142.823.567.823h.003c.252 0 .479-.156.568-.393l.352-.932h1.983l.352.934c.089.236.315.393.568.393.424 0 .717-.424.568-.821zm2.263-4.561c0-.341-.277-.618-.618-.618s-.618.277-.618.618v4.763c0 .341.277.618.618.618s.618-.277.618-.618z"/></svg>