<svg id="Layer_1" viewBox="0 0 24 24" xmlns="http://www.w3.org/2000/svg" data-name="Layer 1"><path d="m0 10.5c0-.829.672-1.5 1.5-1.5h5c.828 0 1.5.671 1.5 1.5s-.672 1.5-1.5 1.5h-5c-.828 0-1.5-.671-1.5-1.5zm4.5 3.5h-3c-.828 0-1.5.672-1.5 1.5s.672 1.5 1.5 1.5h3c.828 0 1.5-.672 1.5-1.5s-.672-1.5-1.5-1.5zm-2 5h-1c-.828 0-1.5.672-1.5 1.5s.672 1.5 1.5 1.5h1c.828 0 1.5-.672 1.5-1.5s-.672-1.5-1.5-1.5zm13-2c.828 0 1.5-.672 1.5-1.5s-.672-1.5-1.5-1.5h-2c-.828 0-1.5.672-1.5 1.5s.672 1.5 1.5 1.5zm8.449-10.292-1.51 10.57c-.378 2.648-2.871 4.723-5.675 4.723h-9.264c-.828 0-1.5-.672-1.5-1.5s.672-1.5 1.5-1.5h9.265c1.3 0 2.538-.983 2.704-2.146l1.122-7.854h-3.544c-.523 1.744-2.144 3-4.008 3-1.216 0-2.37-.527-3.166-1.445-.797-.918-1.155-2.136-.984-3.34l.459-3.215h-1.083c-1.134 0-2.128.765-2.417 1.86-.212.802-1.027 1.282-1.833 1.067-.801-.211-1.279-1.032-1.067-1.833.634-2.411 2.821-4.095 5.316-4.095h10.735c2.954-.069 5.437 2.792 4.95 5.708zm-4.95-2.708h-1.181l-.286 2h3.457c.034-1.071-.914-2.028-1.99-2zm-4.78 3.977.568-3.977h-2.408l-.52 3.639c-.067.468.146.796.279.95.134.154.428.411.9.411.59 0 1.098-.44 1.181-1.023z"/></svg>