<svg id="Layer_1" viewBox="0 0 24 24" xmlns="http://www.w3.org/2000/svg" data-name="Layer 1"><path d="m23.694 11.378c-.388-1.133-1.164-2.052-2.179-2.655.497-1.283.424-2.701-.197-3.943-.6-1.203-1.678-2.129-2.957-2.54-.767-.247-1.575-.285-2.358-.151-.906-1.259-2.373-2.089-4.037-2.089s-3.13.829-4.037 2.089c-.784-.134-1.591-.097-2.357.151-1.279.411-2.357 1.337-2.958 2.54-.621 1.242-.694 2.66-.196 3.943-1.016.605-1.792 1.522-2.179 2.655-.432 1.263-.348 2.62.237 3.819 1.057 2.166 3.961 4.425 6.504 6.096v.206c0 1.378 1.118 2.5 2.493 2.5h4.986c1.375 0 2.493-1.122 2.493-2.5v-.206c2.543-1.671 5.447-3.93 6.504-6.096.586-1.2.67-2.556.238-3.819zm-5.051-5.255c.231.463.269.98.105 1.457-.948 2.755-2.643 5.846-4.228 8.426 1.046-3.364 2.429-8.316 2.433-10.995.167.01.333.033.495.084.517.167.953.541 1.196 1.027zm-6.677-3.123c1.1 0 1.994.897 1.994 2 0 1.974-1.017 5.87-1.994 9.123-.978-3.251-1.994-7.147-1.994-9.123 0-1.103.894-2 1.994-2zm-6.677 3.123c.242-.486.679-.861 1.196-1.027.161-.052.328-.075.495-.085.004 2.68 1.388 7.634 2.434 10.998-1.585-2.579-3.28-5.67-4.229-8.429-.164-.477-.127-.994.105-1.457zm-2.126 7.756c-.234-.48-.268-1.022-.095-1.528.106-.309.288-.574.517-.793.96 2.074 2.124 4.143 3.24 5.964-1.698-1.259-3.139-2.572-3.662-3.644zm17.606 0c-.523 1.072-1.964 2.385-3.662 3.644 1.116-1.822 2.28-3.891 3.24-5.964.23.219.412.484.517.793.173.505.139 1.048-.095 1.528z"/></svg>