<svg id="Layer_1" viewBox="0 0 24 24" xmlns="http://www.w3.org/2000/svg" data-name="Layer 1"><path d="m24 17c0 3.925-5.271 7-12 7s-12-3.075-12-7c0-2.479 1.984-4.632 5.442-5.907.779-.289 1.639.111 1.926.889.287.776-.111 1.64-.888 1.926-2.114.78-3.48 1.994-3.48 3.093 0 1.889 3.849 4 9 4s9-2.111 9-4c0-1.099-1.366-2.312-3.48-3.093-.777-.286-1.175-1.149-.888-1.926s1.149-1.178 1.926-.889c3.458 1.275 5.442 3.429 5.442 5.907zm-12-12c1.381 0 2.5-1.119 2.5-2.5s-1.119-2.5-2.5-2.5-2.5 1.119-2.5 2.5 1.119 2.5 2.5 2.5zm-4 11h-.792c-.755.314-1.208.702-1.208 1.125 0 1.036 2.686 1.875 6 1.875s6-.839 6-1.875c0-.423-.453-.811-1.208-1.125h-.792c-1.18 0-2.5-.855-2.5-2 .003-1.546 1.562-2.426 1.5-4 0-1.657-1.343-3-3-3s-3 1.343-3 3c-.062 1.574 1.497 2.453 1.5 4 0 1.145-1.32 2-2.5 2z"/></svg>