<?xml version="1.0" encoding="UTF-8"?>
<svg xmlns="http://www.w3.org/2000/svg" id="Layer_1" data-name="Layer 1" viewBox="0 0 24 24">
  <path d="M17,21.5c0,1.381-1.119,2.5-2.5,2.5-.815,0-1.532-.396-1.989-1H1.5c-.828,0-1.5-.671-1.5-1.5s.672-1.5,1.5-1.5H12.511c.456-.604,1.173-1,1.989-1,1.381,0,2.5,1.119,2.5,2.5Zm-.5-16.5c-1.381,0-2.5,1.119-2.5,2.5s1.119,2.5,2.5,2.5,2.5-1.119,2.5-2.5-1.119-2.5-2.5-2.5Zm7.5,.5v6c0,3.033-2.468,5.5-5.5,5.5H5.5c-3.032,0-5.5-2.467-5.5-5.5V5.5C0,2.467,2.468,0,5.5,0h13c3.032,0,5.5,2.467,5.5,5.5Zm-3,0c0-1.378-1.121-2.5-2.5-2.5H5.5c-1.379,0-2.5,1.122-2.5,2.5v6c0,1.378,1.121,2.5,2.5,2.5h13c1.379,0,2.5-1.122,2.5-2.5V5.5Zm1.5,14.5h-2c-.828,0-1.5,.671-1.5,1.5s.672,1.5,1.5,1.5h2c.828,0,1.5-.671,1.5-1.5s-.672-1.5-1.5-1.5ZM10.829,5.658c-1.074,.537-1.9,1.372-2.499,2.165-.645-.495-1.238-.707-1.355-.746-.785-.265-1.637,.162-1.897,.949-.262,.786,.162,1.635,.948,1.897,.008,.003,.805,.31,1.052,1.051,.203,.611,.78,1.025,1.424,1.023,.607,0,1.158-.37,1.39-.935,.226-.552,1.076-2.118,2.28-2.72,.741-.371,1.041-1.271,.671-2.013-.37-.74-1.27-1.04-2.013-.671Z"/>
</svg>
