<svg id="Layer_1" viewBox="0 0 24 24" xmlns="http://www.w3.org/2000/svg" data-name="Layer 1"><path d="m21 9.5c0-.703-.486-1.289-1.138-1.451-.596-3.232-3.136-5.788-6.362-6.403v-.146c0-.828-.671-1.5-1.5-1.5s-1.5.672-1.5 1.5v.146c-3.226.615-5.766 3.171-6.362 6.403-.653.163-1.138.748-1.138 1.451 0 .691.47 1.267 1.106 1.441l.614 7.981c.219 2.848 2.627 5.078 5.484 5.078h3.592c2.856 0 5.265-2.23 5.484-5.078l.614-7.981c.636-.174 1.106-.75 1.106-1.441zm-4.411 5.283c-.454.122-.986.217-1.589.217-.574 0-1.043-.084-1.5-.202v-3.798h3.38zm-9.469-3.783h3.38v3.059c-.31-.036-.64-.059-1-.059-.829 0-1.529.121-2.127.286zm9.625-3h-3.245v-3.245c1.545.49 2.755 1.7 3.245 3.245zm-6.245-3.245v3.245h-3.245c.49-1.545 1.7-2.755 3.245-3.245zm3.296 16.245h-3.592c-1.298 0-2.393-1.014-2.493-2.309l-.102-1.324c.399-.178 1.021-.367 1.89-.367.909 0 1.557.2 2.306.433.858.266 1.83.567 3.194.567.483 0 .927-.048 1.35-.113l-.062.804c-.1 1.295-1.194 2.309-2.493 2.309z"/></svg>