<svg id="Layer_1" viewBox="0 0 24 24" xmlns="http://www.w3.org/2000/svg" data-name="Layer 1"><path d="m19 0c-1.363 0-2.597.551-3.5 1.438-.903-.887-2.137-1.438-3.5-1.438s-2.597.551-3.5 1.438c-.903-.887-2.137-1.438-3.5-1.438-2.757 0-5 2.243-5 5v17.499c0 .701.486 1.309 1.17 1.463.69.158 1.385-.187 1.686-.82.294-.62 1.276-1.143 2.145-1.143s1.851.523 2.145 1.143c.255.528.843.899 1.435.848.539-.019 1.041-.361 1.276-.848.294-.62 1.276-1.143 2.145-1.143s1.851.523 2.145 1.143c.263.535.851.903 1.452.847.537-.021 1.023-.37 1.259-.847.294-.62 1.276-1.143 2.145-1.143s1.851.523 2.145 1.143c.263.523.824.888 1.418.85.785-.013 1.437-.717 1.438-1.494v-17.498c-.004-2.757-2.247-5-5.004-5zm0 3c1.103 0 2 .897 2 2v1.424c-.614-.269-1.288-.424-2-.424s-1.386.154-2 .424v-1.424c0-1.103.897-2 2-2zm-16 7.999c0-1.103.897-2 2-2s2 .897 2 2v1.924c-.614-.269-1.288-.424-2-.424s-1.386.154-2 .424zm7 0c0-1.103.897-2 2-2s2 .897 2 2v1.924c-.614-.269-1.288-.424-2-.424s-1.386.154-2 .424zm7 0c0-1.103.897-2 2-2s2 .897 2 2v1.924c-.614-.269-1.288-.424-2-.424s-1.386.154-2 .424zm-5-7.999c1.103 0 2 .897 2 2v1.424c-.614-.269-1.288-.424-2-.424s-1.386.154-2 .424v-1.424c0-1.103.897-2 2-2zm-7 0c1.103 0 2 .897 2 2v1.424c-.614-.269-1.288-.424-2-.424s-1.386.154-2 .424v-1.424c0-1.103.897-2 2-2zm2 16.377c-.636-.243-1.319-.378-2-.378s-1.364.136-2 .378v-1.878c0-1.103.897-2 2-2s2 .897 2 2zm5-.378c-.682 0-1.363.146-2 .389v-1.889c0-1.103.897-2 2-2s2 .897 2 2v1.889c-.637-.244-1.318-.389-2-.389zm7 0c-.682 0-1.363.146-2 .389v-1.889c0-1.103.897-2 2-2s2 .897 2 2v1.889c-.637-.244-1.318-.389-2-.389z"/></svg>