<svg id="Layer_1" viewBox="0 0 24 24" xmlns="http://www.w3.org/2000/svg" data-name="Layer 1"><path d="m18.5 0h-13c-3.032 0-5.5 2.468-5.5 5.5v13c0 3.032 2.468 5.5 5.5 5.5h13c3.032 0 5.5-2.468 5.5-5.5v-13c0-3.032-2.468-5.5-5.5-5.5zm2.5 5.5v5h-7.5v-7.5h5c1.379 0 2.5 1.121 2.5 2.5zm-15.5-2.5h5v7.5h-7.5v-5c0-1.379 1.121-2.5 2.5-2.5zm-2.5 15.5v-5h7.5v7.5h-5c-1.379 0-2.5-1.121-2.5-2.5zm15.5 2.5h-5v-7.5h7.5v5c0 1.379-1.121 2.5-2.5 2.5zm-14.5-14.294c.005-.281.181-.531.444-.63l1.191-.451.477-1.192c.104-.261.357-.432.638-.432s.534.171.638.432l.48 1.199 1.199.48c.261.104.432.357.432.638s-.171.534-.432.638l-1.199.48-.48 1.199c-.104.261-.357.432-.638.432s-.534-.171-.638-.432l-.482-1.206-1.208-.509c-.259-.109-.426-.365-.421-.646zm10.5 0c.005-.281.181-.531.444-.63l1.191-.451.477-1.192c.104-.261.357-.432.638-.432s.534.171.638.432l.48 1.199 1.199.48c.261.104.432.357.432.638s-.171.534-.432.638l-1.199.48-.48 1.199c-.104.261-.357.432-.638.432s-.534-.171-.638-.432l-.482-1.206-1.208-.509c-.259-.109-.426-.365-.421-.646zm-5 10.544c0 .281-.171.534-.432.638l-1.199.48-.48 1.199c-.104.261-.357.432-.638.432s-.534-.171-.638-.432l-.482-1.206-1.208-.509c-.259-.109-.426-.365-.421-.646s.181-.531.444-.63l1.191-.451.477-1.192c.104-.261.357-.432.638-.432s.534.171.638.432l.48 1.199 1.199.48c.261.104.432.357.432.638zm10.5 0c0 .281-.171.534-.432.638l-1.199.48-.48 1.199c-.104.261-.357.432-.638.432s-.534-.171-.638-.432l-.482-1.206-1.208-.509c-.259-.109-.426-.365-.421-.646s.181-.531.444-.63l1.191-.451.477-1.192c.104-.261.357-.432.638-.432s.534.171.638.432l.48 1.199 1.199.48c.261.104.432.357.432.638z"/></svg>