<svg id="Layer_1" viewBox="0 0 24 24" xmlns="http://www.w3.org/2000/svg" data-name="Layer 1"><path d="m6 6v-.336l1.054-3.276c.266-.827 1.035-1.388 1.904-1.388h2.042c0-.552.448-1 1-1s1 .448 1 1h2.042c.869 0 1.638.561 1.904 1.388l1.054 3.276v.336s0 2-2 2-2-2-2-2v-.336l.842-2.664h-1.842v6h2c.553 0 1 .448 1 1s-.447 1-1 1h-6c-.552 0-1-.448-1-1s.448-1 1-1h2v-6h-1.842l.842 2.664v.336s0 2-2 2-2-2-2-2zm15.792-1.989c-1.041.106-1.792 1.061-1.792 2.107v5.369c-1.453-.793-3.31-.593-4.538.636l-3.482 3.482c-.155-.177-.313-.354-.486-.527l-2.876-2.876c-1.263-1.264-3.14-1.529-4.618-.721v-5.363c0-1.046-.751-2.001-1.792-2.107-1.196-.122-2.208.818-2.208 1.989v11.515c0 2.003.78 3.887 2.197 5.303l.743.743c.586.586 1.535.586 2.121 0 .586-.585.586-1.536 0-2.121l-.743-.743c-.883-.88-1.349-2.069-1.318-3.314l2.456 2.437c.587.583 1.538.58 2.122-.008.583-.588.58-1.538-.008-2.122l-2.45-2.431c-.206-.39-.172-.789.24-1.115.313-.223.813-.145 1.137.178l2.876 2.876c1.095 1.095 1.627 2.237 1.627 3.492v1.81c0 .829.671 1.5 1.5 1.5s1.5-.671 1.5-1.5v-1.81c0-.843-.148-1.654-.429-2.436l4.012-4.012c.314-.313.859-.314 1.174 0 .271.271.317.694.123 1.017l-2.424 2.405c-.588.583-.592 1.533-.008 2.122.584.588 1.533.591 2.121.008l2.431-2.412c.031 1.245-.435 2.434-1.318 3.314l-.742.743c-.586.586-.586 1.536 0 2.122.586.585 1.536.586 2.121 0l.742-.742c1.417-1.416 2.197-3.299 2.197-5.304v-11.515c0-1.172-1.012-2.111-2.208-1.989z"/></svg>