<svg id="Layer_1" viewBox="0 0 24 24" xmlns="http://www.w3.org/2000/svg" data-name="Layer 1"><path d="m18.5 3h-.642c-.447-1.721-2-3-3.858-3h-4c-1.858 0-3.411 1.279-3.858 3h-.642c-3.033 0-5.5 2.468-5.5 5.5v10c0 3.032 2.467 5.5 5.5 5.5h13c3.033 0 5.5-2.468 5.5-5.5v-10c0-3.032-2.467-5.5-5.5-5.5zm2.5 15.5c0 1.379-1.122 2.5-2.5 2.5h-13c-1.378 0-2.5-1.121-2.5-2.5v-10c0-1.379 1.122-2.5 2.5-2.5h13c1.378 0 2.5 1.121 2.5 2.5zm-5-3.25c0 1.517-1.346 2.75-3 2.75v1c0 .553-.448 1-1 1s-1-.447-1-1v-1h-.268c-1.186 0-2.103-.748-2.566-1.448-.305-.461-.178-1.081.282-1.386.459-.305 1.08-.179 1.386.282.176.266.532.552.898.552h2.268c.542 0 1-.344 1-.75 0-.255-.269-.486-.625-.539l-3.04-.443c-1.354-.198-2.335-1.257-2.335-2.518 0-1.517 1.346-2.75 3-2.75v-1c0-.553.448-1 1-1s1 .447 1 1v1h.268c1.187 0 2.104.748 2.567 1.449.304.461.177 1.081-.283 1.385-.461.306-1.081.178-1.386-.283-.175-.265-.531-.551-.898-.551h-2.268c-.542 0-1 .344-1 .75 0 .255.269.486.625.539l3.04.443c1.354.198 2.335 1.257 2.335 2.518z"/></svg>