<svg id="Layer_1" viewBox="0 0 24 24" xmlns="http://www.w3.org/2000/svg" data-name="Layer 1"><path d="m13.364 3.778c.35.143.734.222 1.136.222h.626l.462.577c.695.893 1.778 1.423 2.912 1.423h.196l.493.711c.262.377.602.683.99.902-.207.404-.318.846-.33 1.292-.331.198-.624.46-.861.777l-.39.522c-.623.833-.77 1.93-.389 2.898.268.678.768 1.226 1.396 1.555-.447.538-.693 1.216-.693 1.917v.219c0 .531.141 1.047.401 1.499l-.956-.217c-.218-.05-.441-.075-.665-.075h-1.194c-1.232 0-2.339.753-2.791 1.899l-.303.768c-1.12-.448-2.651-.734-3.544-.667-.355 0-.849-.081-1.368-.229l-.463-.124 1.089-2.798c.389-.388.668-.879.798-1.425.203-.846.028-1.739-.479-2.446l-2.519-3.514c-.242-.338-.553-.622-.911-.834l-.594-.351c.336-.082.66-.222.958-.42.4-.267.722-.62.949-1.024.301.102.617.156.937.159l.743.007c.808 0 1.609-.267 2.233-.734l.977-.717c.593-.435.999-1.068 1.155-1.772m.201-3.778h-.522c-.277 0-.542.11-.738.306l-1.565 1.565c-.196.196-.306.461-.306.738v.522l-.977.717c-.132.099-.294.153-.458.153h-.007l-.708-.007-1.138-.553c-.19-.147-.415-.218-.637-.218-.304 0-.605.133-.811.387l-.77.95c-.184.227-.263.519-.223.803-.207-.123-.462-.174-.704-.131l-2.303.384c-.985.164-1.699 1.007-1.699 2.005 0 .894.573 1.674 1.426 1.94l.562.176 2.494 1.475 2.519 3.514c-.25.13-.444.359-.524.645l-1.256 3.227-.926.959c-.189.194-.293.454-.293.725v.588c0 .466.309.875.757 1.003l2.958.795c.67.192 1.451.332 2.147.332.623-.006 1.167.034 1.757.234l2.138.713c.208.083.631.046.852.054.449 0 .848-.287.989-.713l.902-2.287h1.194l2.155.49c.206.057.415.084.621.084.703 0 1.378-.319 1.827-.889l.262-.333c.719-.915.649-2.233-.164-3.065l-.482-.494v-.219l.671-.746c.238-.265.324-.634.228-.978l-.51-1.979c-.138-.438-.85-.823-1.302-.871l.39-.522h.884c.341 0 .661-.167.857-.448.195-.28.241-.638.121-.959l-.405-1.089 1.099-1.979c.063-.137.096-.286.096-.438v-.522c0-.576-.467-1.043-1.043-1.043h-1.346l-1.066-1.535c-.194-.29-.52-.465-.868-.465h-1.22c-.216 0-.423-.103-.552-.276l-1.048-1.307c-.197-.263-.506-.417-.835-.417h-1.565c0-.576-.358-1-.935-1z"/></svg>