<svg id="Layer_1" viewBox="0 0 24 24" xmlns="http://www.w3.org/2000/svg" data-name="Layer 1"><path d="m2.111 1.097c-.123-.302-.05-.648.185-.874.234-.226.583-.287.88-.153l1.345.606 1.368-.586c.3-.128.647-.062.878.169s.297.578.169.878l-.59 1.376.59 1.376c.128.3.062.647-.169.878s-.578.297-.878.169l-.889-.381v-.554c0-1.103-.897-2-2-2h-.522l-.367-.903zm8.889 4.903c0-3.309 2.691-6 6-6s6 2.691 6 6-2.691 6-6 6-6-2.691-6-6zm3 0c0 1.654 1.346 3 3 3s3-1.346 3-3-1.346-3-3-3-3 1.346-3 3zm3 8h-9.12c-.14 0-.274-.059-.369-.162 0 0-4.412-4.829-4.428-4.855.511-.045.916-.461.916-.983v-4c0-.552-.448-1-1-1h-1.999c-.552 0-1 .448-1 1v5.004c.062.775.391 1.505.92 2.083l4.38 4.779c.662.721 1.602 1.134 2.58 1.134h9.12c2.206 0 4 1.794 4 4v1.5c0 .829.671 1.5 1.5 1.5s1.5-.671 1.5-1.5v-1.5c0-3.86-3.14-7-7-7zm-5.5 5c-.829 0-1.5.671-1.5 1.5v2c0 .829.671 1.5 1.5 1.5s1.5-.671 1.5-1.5v-2c0-.829-.671-1.5-1.5-1.5z"/></svg>