<svg id="Layer_1" viewBox="0 0 24 24" xmlns="http://www.w3.org/2000/svg" data-name="Layer 1"><path d="m3.66 16.14c.52.64.43 1.59-.21 2.11-.28.23-.62.34-.95.34-.43 0-.87-.19-1.16-.55-.86-1.06-1.34-2.35-1.34-3.65 0-1.63.69-3.19 1.9-4.29.12-.11.18-.25.16-.35-.19-.97-.2-1.96-.03-2.95.55-3.37 3.18-6.05 6.53-6.66 3.67-.67 7.34 1.19 8.93 4.54.06.13.17.21.32.24 2.47.49 4.54 2.17 5.55 4.48.33.76-.02 1.64-.78 1.97s-1.64-.02-1.97-.78c-.62-1.41-1.88-2.43-3.39-2.73-1.09-.22-1.98-.91-2.45-1.9-1.02-2.15-3.3-3.31-5.68-2.87-2.08.38-3.77 2.1-4.12 4.19-.11.64-.1 1.27.02 1.89.22 1.13-.2 2.33-1.09 3.14-.59.54-.91 1.27-.91 2.07 0 .61.23 1.23.66 1.75zm2.86 2.27c-.36.39-1.52 1.96-1.52 3.09 0 .67.26 1.3.73 1.77s1.1.73 1.77.73 1.3-.26 1.77-.73.73-1.1.73-1.77c0-1.14-1.17-2.71-1.56-3.12-.52-.51-1.37-.51-1.92.04zm17.48-.41c0 3.31-2.69 6-6 6s-6-2.69-6-6 2.69-6 6-6 6 2.69 6 6zm-7 0c0 .55.45 1 1 1s1-.45 1-1-.45-1-1-1-1 .45-1 1zm-.95-.45c.08-.36.26-.68.51-.94.18-.19.2-.48.06-.7l-.48-.73c-.2-.3-.61-.34-.87-.1-.23.21-.43.45-.61.72-.31.48-.51.99-.6 1.52-.06.35.21.68.56.68h.88c.27 0 .49-.19.55-.45zm3.73 3.32-.46-.74c-.14-.22-.42-.33-.66-.24-.2.07-.42.11-.65.11s-.45-.04-.65-.11c-.25-.09-.53.02-.66.24l-.46.74c-.19.3-.06.7.27.83.46.19.97.3 1.5.3s1.04-.11 1.5-.3c.33-.14.46-.53.27-.83zm2.16-3.55c-.09-.53-.29-1.05-.6-1.52-.18-.27-.38-.51-.61-.72-.26-.24-.68-.2-.87.1l-.48.73c-.14.22-.13.51.06.7.25.26.43.58.51.94.06.26.28.45.55.45h.88c.36 0 .62-.32.56-.68z"/></svg>