<svg id="Layer_1" viewBox="0 0 24 24" xmlns="http://www.w3.org/2000/svg" data-name="Layer 1"><path d="m16.976 10.182c.074.443-.026.912-.277 1.285l-1.933 2.399c-.626.931-1.604 1.771-2.766 1.816-1.162-.045-2.14-.885-2.766-1.816l-1.933-2.399c-.251-.374-.351-.842-.277-1.285.191-1.166 1.695-1.567 2.558-.76l2.418 2.261 2.418-2.261c.863-.807 2.367-.406 2.558.76zm4.524 3.818c-.25 0-.487.048-.714.116-.327-.659-1-1.116-1.786-1.116-1.105 0-2 .895-2 2s.895 2 2 2v5.5c0 .828.671 1.5 1.5 1.5s1.5-.672 1.5-1.5v-3.55c1.141-.232 2-1.24 2-2.45 0-1.381-1.119-2.5-2.5-2.5zm-16.5-1c-.786 0-1.459.457-1.786 1.116-.228-.068-.464-.116-.714-.116-1.381 0-2.5 1.119-2.5 2.5 0 1.209.859 2.218 2 2.45v3.55c0 .828.671 1.5 1.5 1.5s1.5-.672 1.5-1.5v-5.5c1.105 0 2-.895 2-2s-.895-2-2-2zm-2.769-1.06c.796-.23 1.253-1.062 1.022-1.858-.166-.573-.254-1.12-.254-1.582 0-1.93 1.57-3.5 3.5-3.5 1.093 0 2.106.512 2.781 1.404.284.375.727.596 1.197.596h3.045c.47 0 .913-.221 1.197-.596.674-.893 1.688-1.404 2.781-1.404 1.93 0 3.5 1.57 3.5 3.5 0 .462-.088 1.009-.254 1.582-.231.796.227 1.628 1.022 1.858.774.231 1.63-.22 1.858-1.022.248-.853.373-1.666.373-2.418 0-3.584-2.916-6.5-6.5-6.5-1.477 0-2.869.502-4 1.401v-1.901c0-.828-.671-1.5-1.5-1.5s-1.5.672-1.5 1.5v1.901c-1.131-.899-2.523-1.401-4-1.401-3.583 0-6.499 2.916-6.499 6.5 0 .752.125 1.565.373 2.418.231.796 1.061 1.256 1.858 1.022zm13.269 8.06c-.367 0-.805-.295-1.268-.607-.621-.418-1.325-.893-2.232-.893s-1.612.475-2.232.893c-.463.312-.9.607-1.268.607-.829 0-1.5.672-1.5 1.5s.671 1.5 1.5 1.5c1.284 0 2.244-.647 2.945-1.119.168-.114.407-.274.555-.352.148.077.387.237.555.352.701.472 1.661 1.119 2.945 1.119.829 0 1.5-.672 1.5-1.5s-.671-1.5-1.5-1.5z"/></svg>