<svg id="Layer_1" viewBox="0 0 24 24" xmlns="http://www.w3.org/2000/svg" data-name="Layer 1"><path d="m20.993 8.864s0-.006 0-.01c-.079-4.895-4.079-8.855-8.993-8.855-4.962.001-9 4.038-9 9.001-.006.093.726 9.803.729 9.907.212 2.855 2.621 5.093 5.485 5.093h5.57c2.864 0 5.274-2.237 5.485-5.094.003-.345.761-9.698.723-10.042zm-8.993-5.864c2.89 0 5.309 2.055 5.874 4.78-.349.085-.75.197-1.189.34-.39-.667-1.107-1.12-1.935-1.12-1.243 0-2.25 1.007-2.25 2.25 0 .28.057.545.151.792-.138.089-.277.18-.416.275-.588-.403-1.169-.744-1.732-1.041 0-.009-.003-.017-.003-.027 0-1.482.761-2.784 1.911-3.545-.52-.434-1.181-.705-1.911-.705-1.657 0-3 1.343-3 3 0 .011.003.021.003.031-.525-.162-.982-.276-1.353-.355.605-2.673 2.996-4.676 5.85-4.676zm-5.424 13.717-.442-5.958c.923.248 2.251.715 3.677 1.568-1.169 1.163-2.283 2.605-3.235 4.389zm8.209 4.283h-5.57c-.403 0-.78-.106-1.12-.279 2.357-6.684 7.145-9.028 9.76-9.825l-.577 7.79c-.096 1.298-1.191 2.314-2.493 2.314z"/></svg>