<svg id="Layer_1" viewBox="0 0 24 24" xmlns="http://www.w3.org/2000/svg" data-name="Layer 1"><path d="m22.307 12.721c.165-.211.339-.414.486-.644 1.612-2.527 1.596-5.916-.04-8.432-1.327-2.041-3.452-3.354-5.83-3.602-2.06-.218-4.082.379-5.684 1.641l-2.353-.543c-1.862-.429-3.776.12-5.126 1.471l-1.149 1.149c-1.35 1.35-1.899 3.266-1.47 5.125l.553 2.394c-.165.211-.339.414-.486.644-1.612 2.527-1.597 5.915.039 8.431 1.473 2.279 3.984 3.654 6.66 3.646 1.766 0 3.465-.595 4.85-1.685l2.357.544c1.833.427 3.776-.113 5.126-1.471l1.149-1.149c1.35-1.35 1.899-3.266 1.47-5.125zm-17.575-6.839 1.15-1.149c.613-.614 1.482-.864 2.33-.668l.892.206c-.098.191-.194.384-.277.584-.795 1.915-2.083 3.278-3.627 3.84-.322.117-.625.27-.926.426l-.21-.908c-.195-.846.055-1.717.668-2.33zm2.656 15.092c-1.495-.156-2.782-.957-3.626-2.254-1.006-1.547-1.016-3.63-.025-5.183.608-.954 1.468-1.653 2.486-2.022 2.345-.853 4.254-2.81 5.375-5.51.787-1.96 2.924-3.228 5.014-2.979 1.495.156 2.783.956 3.626 2.253 1.006 1.547 1.016 3.631.026 5.184-.608.954-1.468 1.653-2.487 2.023-2.345.852-4.254 2.808-5.375 5.509-.792 1.963-2.91 3.219-5.015 2.979zm11.88-2.856-1.15 1.149c-.613.613-1.482.864-2.329.668l-.892-.206c.098-.191.194-.384.277-.584.795-1.915 2.083-3.278 3.627-3.839.322-.117.625-.27.926-.426l.209.907c.195.846-.055 1.717-.668 2.33z"/></svg>