<svg id="Layer_1" viewBox="0 0 24 24" xmlns="http://www.w3.org/2000/svg" data-name="Layer 1"><path d="m16.657 14.7-2.5-1.957c-1.271-.994-3.045-.994-4.314 0l-2.499 1.956c-.854.668-1.344 1.673-1.344 2.757v3.043c0 1.93 1.57 3.5 3.5 3.5h5c1.93 0 3.5-1.57 3.5-3.5v-3.043c0-1.084-.489-2.089-1.343-2.756zm-1.657 5.8c0 .276-.225.5-.5.5h-5c-.275 0-.5-.224-.5-.5v-3.043c0-.155.07-.298.192-.394l2.5-1.957c.182-.142.434-.142.615 0l2.501 1.957c.121.095.191.239.191.394v3.043zm-1.5-2.5v1c0 .552-.448 1-1 1h-1c-.552 0-1-.448-1-1v-1c0-.552.448-1 1-1h1c.552 0 1 .448 1 1zm10.5-14.5c0 .829-.672 1.5-1.5 1.5h-7.5v.5c0 .398-.158.779-.439 1.061l-1.061 1.061v.879c0 .829-.672 1.5-1.5 1.5s-1.5-.671-1.5-1.5v-.879l-1.061-1.061c-.281-.281-.439-.663-.439-1.061v-.5h-7.5c-.828 0-1.5-.671-1.5-1.5s.672-1.5 1.5-1.5h7.684c.414-1.161 1.514-2 2.816-2s2.402.839 2.816 2h7.684c.828 0 1.5.671 1.5 1.5z"/></svg>