<svg id="Layer_1" viewBox="0 0 24 24" xmlns="http://www.w3.org/2000/svg" data-name="Layer 1"><path d="m24 8.59v9.91c0 3.033-2.468 5.5-5.5 5.5h-1c-.828 0-1.5-.671-1.5-1.5v-5c0-.276-.225-.5-.5-.5h-2v5.5c0 .829-.672 1.5-1.5 1.5s-1.5-.671-1.5-1.5v-5.5h-2c-.275 0-.5.224-.5.5v5c0 .829-.672 1.5-1.5 1.5h-1c-3.032 0-5.5-2.467-5.5-5.5v-9.91c-.007-2.571 1.496-4.866 3.829-5.932.743-.368 1.643-.069 2.013.671.37.741.07 1.642-.671 2.013-1.306.562-2.179 1.817-2.171 3.249v9.91c0 1.208.86 2.217 2 2.45v-3.45c0-1.93 1.57-3.5 3.5-3.5h7c1.93 0 3.5 1.57 3.5 3.5v3.45c1.14-.232 2-1.242 2-2.45v-9.911c.008-1.432-.865-2.687-2.171-3.249-.741-.371-1.041-1.271-.671-2.013.371-.74 1.272-1.039 2.013-.671 2.333 1.066 3.836 3.361 3.829 5.932zm-15.75-2.266c-.633-1.522.054-3.081.77-3.965.187-.23.551-.188.671.082.169.383.113 1.004.472 1.004.758 0 .564-1.786 1.41-3.217.15-.254.499-.303.719-.108 1.366 1.219 3.708 2.758 3.708 4.869 0 2.139-1.671 3.887-3.779 4.011-1.761.103-3.293-1.047-3.971-2.676zm2.557 1.125c.62.723 1.732.723 2.351 0 .536-.625.432-1.58-.15-2.162l-.682-.682c-.19-.19-.497-.19-.687 0l-.682.682c-.582.582-.686 1.537-.15 2.162zm3.193 3.064c0 .829.672 1.5 1.5 1.5h1.936c.828 0 1.5-.671 1.5-1.5s-.672-1.5-1.5-1.5h-1.936c-.828 0-1.5.671-1.5 1.5zm-9-.013c0 .829.672 1.5 1.5 1.5h1.936c.828 0 1.5-.671 1.5-1.5s-.672-1.5-1.5-1.5h-1.936c-.828 0-1.5.671-1.5 1.5z"/></svg>