<svg id="Layer_1" viewBox="0 0 24 24" xmlns="http://www.w3.org/2000/svg" data-name="Layer 1"><path d="m22.5 6c-.829 0-1.5.672-1.5 1.5v2.5h-18v-4.25c0-2.194 1.372-3.736 2.887-3.736 1.421 0 2.596 1.031 2.974 2.346-.519.361-.86.96-.86 1.641 0 1.105.895 2 2 2s2-.895 2-2c0-.781-.452-1.45-1.104-1.779-.477-2.436-2.615-4.207-5.221-4.207-3.176 0-5.676 2.664-5.676 5.735v16.75c0 .828.671 1.5 1.5 1.5s1.5-.672 1.5-1.5v-.5h18v.5c0 .828.671 1.5 1.5 1.5s1.5-.672 1.5-1.5v-15c0-.828-.671-1.5-1.5-1.5zm-9 7h2.5v6h-2.5zm-3 6h-2.5v-6h2.5zm-7.5-6h2v6h-2zm16 6v-6h2v6z"/></svg>