<svg id="Layer_1" viewBox="0 0 24 24" xmlns="http://www.w3.org/2000/svg" data-name="Layer 1"><path d="m3 12h4c1.657 0 3-1.343 3-3v-2c0-1.108-.607-2.064-1.5-2.584v-.916c0-1.93-1.57-3.5-3.5-3.5s-3.5 1.57-3.5 3.5v.916c-.893.52-1.5 1.476-1.5 2.584v2c0 1.657 1.343 3 3 3zm1-8.5c0-.551.449-1 1-1s1 .449 1 1v.5h-2zm1 3c.828 0 1.5.672 1.5 1.5s-.672 1.5-1.5 1.5-1.5-.672-1.5-1.5.672-1.5 1.5-1.5zm19 5.824v6.176c0 3.032-2.468 5.5-5.5 5.5h-5.466c-5.705 0-10.544-3.133-12.329-7.981-.286-.777.112-1.64.89-1.926.775-.287 1.64.11 1.926.889 1.346 3.656 5.08 6.019 9.514 6.019h5.466c1.379 0 2.5-1.121 2.5-2.5v-6.176c0-2.602-1.074-5.115-2.946-6.895-1.77-1.681-4.065-2.54-6.478-2.417-.819.025-1.532-.594-1.574-1.422-.042-.827.594-1.532 1.422-1.574 3.24-.169 6.326.985 8.696 3.238 2.466 2.344 3.88 5.649 3.88 9.069z"/></svg>