<svg id="Layer_1" viewBox="0 0 24 24" xmlns="http://www.w3.org/2000/svg" data-name="Layer 1"><path d="m14.121 12.879c1.172 1.172 1.172 3.071 0 4.243-.586.586-1.354.879-2.121.879-.768 0-1.536-.293-2.121-.879-1.172-1.172-1.172-3.071 0-4.243l1.448-1.601c.372-.37.974-.37 1.346 0zm6.73-6.609c.745 1.076 1.149 2.349 1.149 3.686v8.544c0 3.033-2.467 5.5-5.5 5.5h-9c-3.033 0-5.5-2.467-5.5-5.5v-13c0-3.033 2.467-5.5 5.5-5.5h4.544c1.578 0 3.067.564 4.248 1.587l.648-.648c.586-.586 1.535-.586 2.121 0l2.5 2.5c.586.585.586 1.536 0 2.121zm-15.8-1.27h4.449c1.207 0 2.217-.86 2.449-2h-4.449c-1.207 0-2.217.86-2.449 2zm13.949 4.956c0-.935-.364-1.814-1.025-2.475l-3.256-3.256c-.726 2.19-2.789 3.775-5.219 3.775h-4.5v10.5c0 1.378 1.122 2.5 2.5 2.5h9c1.378 0 2.5-1.122 2.5-2.5z"/></svg>