<svg id="Layer_1" viewBox="0 0 24 24" xmlns="http://www.w3.org/2000/svg" data-name="Layer 1"><path d="m14.5 11h-5c-2.481 0-4.5 2.019-4.5 4.5v4c0 2.481 2.019 4.5 4.5 4.5h5c2.481 0 4.5-2.019 4.5-4.5v-4c0-2.481-2.019-4.5-4.5-4.5zm1.5 8.5c0 .827-.673 1.5-1.5 1.5h-5c-.827 0-1.5-.673-1.5-1.5v-4c0-.827.673-1.5 1.5-1.5h5c.827 0 1.5.673 1.5 1.5zm-2-2c0 .828-.671 1.5-1.5 1.5h-1c-.829 0-1.5-.672-1.5-1.5s.671-1.5 1.5-1.5h1c.829 0 1.5.672 1.5 1.5zm7.682-13.5c-.002.006-.003.012-.004.018.783.094 1.383.783 1.317 1.606-.064.798-.803 1.376-1.603 1.376h-.832s-.002.004-.003.006c.801.031 1.442.685 1.442 1.494 0 .828-.672 1.5-1.5 1.5h-1.864c-.901 0-1.45-.972-1-1.753 1.064-1.848 1.943-3.958 2.257-5.247h-1.578c-.998 0-1.889.571-2.27 1.454-.602 1.392-1.311 2.609-2.106 3.617-.47.595-1.176.936-1.938.936s-1.468-.341-1.938-.936c-.796-1.008-1.505-2.225-2.106-3.616-.381-.884-1.272-1.455-2.27-1.455h-1.578c.313 1.289 1.193 3.399 2.257 5.247.449.78-.1 1.753-1 1.753h-1.864c-.828 0-1.5-.672-1.5-1.5 0-.809.641-1.463 1.442-1.494 0-.002-.002-.004-.003-.006h-.832c-.8 0-1.539-.578-1.603-1.376-.066-.823.534-1.512 1.317-1.606-.002-.006-.003-.012-.004-.018h-.318c-1.103 0-2-.897-2-2s.897-2 2-2h3.686c2.196 0 4.168 1.282 5.024 3.265.386.894.819 1.692 1.29 2.38.471-.688.904-1.486 1.291-2.381.856-1.982 2.828-3.264 5.024-3.264h3.686c1.103 0 2 .897 2 2s-.897 2-2 2h-.318z"/></svg>