<svg id="Layer_1" viewBox="0 0 24 24" xmlns="http://www.w3.org/2000/svg" data-name="Layer 1"><path d="m18 13.5h1.5c.829 0 1.5-.672 1.5-1.5s-.671-1.5-1.5-1.5h-1.5v-4h1.5c.829 0 1.5-.672 1.5-1.5s-.671-1.5-1.5-1.5h-1.755c-.642-2.021-2.514-3.5-4.745-3.5h-2c-2.231 0-4.103 1.479-4.745 3.5h-1.755c-.829 0-1.5.672-1.5 1.5s.671 1.5 1.5 1.5h1.5v4h-1.5c-.829 0-1.5.672-1.5 1.5s.671 1.5 1.5 1.5h1.5v4h-1.5c-.829 0-1.5.672-1.5 1.5s.671 1.5 1.5 1.5h1.755c.642 2.021 2.514 3.5 4.745 3.5h2c2.231 0 4.103-1.479 4.745-3.5h1.755c.829 0 1.5-.672 1.5-1.5s-.671-1.5-1.5-1.5h-1.5zm-9-3.5h6v4h-6zm2-7h2c1.103 0 2 .897 2 2v2h-6v-2c0-1.103.897-2 2-2zm2 18h-2c-1.103 0-2-.897-2-2v-2h6v2c0 1.103-.897 2-2 2z"/></svg>