<svg id="Layer_1" viewBox="0 0 24 24" xmlns="http://www.w3.org/2000/svg" data-name="Layer 1"><path d="m17.816 16.77v4.931c0 1.348-1.164 2.427-2.539 2.288-1.197-.122-2.06-1.22-2.06-2.422v-4.796c0-.442.358-.8.8-.8s.8.358.8.8v4.931c0 .386.314.7.7.7s.7-.314.7-.7v-4.931c0-.442.358-.8.8-.8s.8.358.8.8zm-6.569-.8c-.442 0-.8.358-.8.8v4.931c0 .386-.314.7-.7.7s-.7-.314-.7-.7v.1c0-.442-.358-.8-.8-.8-.416 0-.747.322-.785.728.074 1.137.904 2.143 2.046 2.26 1.376.14 2.539-.94 2.539-2.288v-4.931c0-.442-.358-.8-.8-.8zm11.953.03c-.442 0-.8.358-.8.8v3.263l-1.546-3.482c-.155-.348-.499-.574-.88-.576-.537-.003-.974.432-.974.969v6.226c0 .442.358.8.8.8s.8-.358.8-.8v-3.254l1.544 3.478c.156.35.503.576.886.576.536 0 .97-.434.97-.97v-6.23c0-.442-.358-.8-.8-.8zm-4.7-14h-.5v-.5c0-.829-.671-1.5-1.5-1.5s-1.5.671-1.5 1.5v.5h-6v-.5c0-.829-.671-1.5-1.5-1.5s-1.5.671-1.5 1.5v.5h-.5c-3.033 0-5.5 2.467-5.5 5.5v11c0 2.511 1.697 4.701 4.126 5.326.781.208 1.623-.27 1.827-1.078.207-.802-.276-1.62-1.079-1.826-1.104-.284-1.874-1.28-1.874-2.422v-9.5h18v3.5c0 .828.671 1.5 1.5 1.5s1.5-.672 1.5-1.5v-5c0-3.033-2.467-5.5-5.5-5.5z"/></svg>