<svg id="Layer_1" viewBox="0 0 24 24" xmlns="http://www.w3.org/2000/svg" data-name="Layer 1"><path d="m16.381 0h-10.881c-1.93 0-3.5 1.57-3.5 3.5v20.5h20v-18.335zm2.619 21h-14v-17.5c0-.276.224-.5.5-.5h8.5v5h5zm-6-6.8h1.2v-1.2h1.6v1.2h1.2v1.6h-1.2v1.2h-1.6v-1.2h-1.2zm-1.4-.909c0-1.266-1.026-2.292-2.292-2.292h-2.308v8h2.5c1.381 0 2.5-1.119 2.5-2.5 0-.743-.331-1.404-.846-1.862.277-.379.446-.842.446-1.347zm-3-.692h.708c.381 0 .692.31.692.692s-.31.692-.692.692h-.708v-1.383zm.9 4.8h-.9v-1.8h.9c.496 0 .9.404.9.9s-.404.9-.9.9z"/></svg>