<svg id="Layer_1" viewBox="0 0 24 24" xmlns="http://www.w3.org/2000/svg" data-name="Layer 1"><path d="m23.782 17.972c-.215-.643-.586-1.212-1.079-1.674.665-1.521 1.025-2.647 1.221-3.769.323-2.126-1.143-4.119-3.27-4.443-1.175-.179-2.313.189-3.147.908.487-2.552.553-3.889.416-5.497-.27-2.181-2.269-3.738-4.443-3.466-1.562.192-2.806 1.271-3.286 2.654-.993-1.704-2.665-2.685-4.668-2.685-1.727-.023-3.326.783-4.383 2.161-1.063 1.386-1.407 3.116-.933 4.777 1.017 3.295 2.854 6.247 5.586 8.958-.765.084-1.422.126-1.832.139-2.176.108-3.682 1.435-3.933 3.461-.269 2.18 1.286 4.172 3.467 4.443.152.019.576.062 1.24.062 1.604 0 4.914-.271 9.485-2.033 1.289.683 2.411 1.197 3.18 1.539.474.212 1.201.494 2.038.494 1.655 0 3.172-.903 3.959-2.357.633-1.169.773-2.507.382-3.671zm-3.02 2.242c-.456.777-1.28.996-2.137.553-.914-.407-2.147-.976-3.581-1.766-.397-.219-.87-.246-1.289-.076-5.897 2.397-9.497 2.084-9.891 2.036-.539-.067-.924-.56-.857-1.099.034-.273.097-.781 1.076-.831.703-.018 6.45-.573 8.126-1.703.733-.385 1.017-1.291.632-2.024s-1.29-1.02-2.025-.632c-.387.202-.845.377-1.341.527-1.414-1.198-2.596-2.444-3.581-3.741.375-.1.769-.227 1.176-.394.766-.315 1.131-1.191.816-1.958-.315-.766-1.19-1.13-1.958-.815-.67.275-1.276.393-1.757.447-.439-.86-.805-1.742-1.086-2.653-.366-1.158.381-2.577 1.522-2.928 2.134-.656 2.932.94 3.386 1.959.544 1.221 1.126 2.301 1.891 3.499.328.514.935.777 1.536.669.601-.111 1.082-.572 1.197-1.172.441-2.304.391-3.727.373-4.025-.033-.54.313-1.012.858-1.079.541-.06 1.032.319 1.098.858.012.098.04.394.04.872 0 1.186-.186 3.714-1.431 7.313-.189.546-.048 1.151.363 1.557.589.582 1.219 1.153 1.873 1.696.356.296.831.41 1.281.311.452-.1.833-.403 1.032-.821.895-1.885 1.076-2.996 1.077-3.006.077-.489.526-.81 1.022-.737.492.075.831.536.757 1.024-.015.095-.066.376-.191.82-.192.683-.575 1.801-1.312 3.246-.183.358-.202.78-.075 1.162s.414.701.775.878c.896.337 1.048 1.219.606 2.033z"/></svg>