<svg id="Layer_1" viewBox="0 0 24 24" xmlns="http://www.w3.org/2000/svg" data-name="Layer 1"><path d="m23.975 20.915c0 .272-.091.679-.523 1.062l-2.354 1.757c-.331.303-.911.346-1.336.148-.462-.207-.761-.661-.761-1.155v-2.002l-.409.3c-.44.325-1.071.232-1.397-.216-.326-.445-.229-1.071.216-1.397l1.245-.911-1.245-.911c-.445-.326-.542-.951-.216-1.397.325-.446.95-.543 1.397-.216l.409.299v-2.002c0-.494.299-.948.761-1.155.446-.2.959-.142 1.332.146 0 0 2.306 1.556 2.34 1.586.365.325.55.698.549 1.108 0 .409-.187.779-.552 1.101-.03.027-2.091 1.432-2.091 1.432s2.013 1.262 2.054 1.298c.144.127.581.514.582 1.127zm-7.146-8.001c-.78.275-1.638-.132-1.914-.914-.212-.598-.78-1-1.415-1h-9c-.827 0-1.5.673-1.5 1.5v2.5c0 3.309 2.691 6 6 6 1.479 0 2.899-.543 3.999-1.527.619-.556 1.566-.499 2.118.116.553.617.501 1.565-.116 2.118-1.651 1.479-3.782 2.293-6.001 2.293-4.963 0-9-4.037-9-9v-2.5c0-1.557.795-2.93 2-3.738v-4.262c0-2.481 2.019-4.5 4.5-4.5h5c2.481 0 4.5 2.019 4.5 4.5v4.269c.788.528 1.413 1.297 1.743 2.231.276.781-.133 1.638-.914 1.914zm-3.829-4.914v-3.5c0-.827-.673-1.5-1.5-1.5h-5c-.827 0-1.5.673-1.5 1.5v3.5h2c0-.983.748-2 2-2s2 1.017 2 2z"/></svg>