<svg id="Layer_1" viewBox="0 0 24 24" xmlns="http://www.w3.org/2000/svg" data-name="Layer 1"><path d="m11.8 7.1-.8-.6c0-.828-.671-1.5-1.5-1.5h-5c-.828 0-1.5.672-1.5 1.5l-.8.6c-1.377 1.034-2.2 2.679-2.2 4.4v7c0 3.032 2.467 5.5 5.5 5.5h3c3.033 0 5.5-2.468 5.5-5.5v-7c0-1.722-.822-3.366-2.2-4.4zm-3.3 13.9h-3c-1.378 0-2.5-1.121-2.5-2.5v-7c0-.782.374-1.53 1-2l2-1.5h2l2 1.5c.626.47 1 1.218 1 2v1.5h-3.5c-.828 0-1.5.672-1.5 1.5v2c0 .828.672 1.5 1.5 1.5h3.5v.5c0 1.379-1.122 2.5-2.5 2.5zm15.5-13.505c0 .831-.674 1.505-1.505 1.505h-.495v5.462c0 .552-.224 1.052-.586 1.414-.122.122-.264.221-.414.308v.815c0 .552-.448 1-1 1s-1-.448-1-1v-.815c-.595-.346-1-.984-1-1.723v-5.462h-.495c-.831 0-1.505-.674-1.505-1.505 0-.714.355-1.4.977-1.751.609-.344 1.023-.997 1.023-1.743v-2.001c0-1.104.896-1.999 2-1.999 1.104 0 2 .895 2 2v2c0 .746.414 1.4 1.023 1.743.622.351.977 1.037.977 1.751zm-2.586 13.091c.781.781.781 2.047 0 2.828-.391.391-.902.586-1.414.586s-1.024-.195-1.414-.586c-.781-.781-.781-2.047 0-2.828l.785-.768c.35-.342.909-.342 1.259 0l.785.768z"/></svg>