<svg id="Layer_1" viewBox="0 0 24 24" xmlns="http://www.w3.org/2000/svg" data-name="Layer 1"><path d="m12 0c-6.617 0-12 5.383-12 12s5.383 12 12 12 12-5.383 12-12-5.383-12-12-12zm9 12c0 1.941-.624 3.735-1.672 5.207l-2.163-2.163c.2-.339.368-.699.499-1.077.11.019.221.034.336.034 1.105 0 2-.895 2-2s-.895-2-2-2c-.117 0-.23.015-.341.034-.821-2.334-3.053-4.015-5.659-4.032 0 .812.427 1.09.476 1.119.462.275.641.877.383 1.349-.259.477-.835.663-1.307.425-.536-.268-1.406-1.101-1.528-2.557-.369.108-.727.287-1.069.497l-2.162-2.162c1.472-1.049 3.266-1.672 5.207-1.672 4.963 0 9 4.038 9 9zm-5.885.994-2.11-2.11c.265-.237.611-.385.994-.385.828 0 1.5.672 1.5 1.5 0 .383-.148.729-.385.994zm-12.115-.994c0-1.941.624-3.735 1.672-5.207l12.534 12.534c-1.472 1.049-3.266 1.672-5.207 1.672-4.963 0-9-4.037-9-9zm9.922 5.922c-.301.047-.608.078-.922.078-2.624 0-4.849-1.687-5.664-4.034-.11.019-.221.034-.336.034-1.105 0-2-.895-2-2 0-.812.485-1.507 1.18-1.82z"/></svg>