<svg id="Layer_1" viewBox="0 0 24 24" xmlns="http://www.w3.org/2000/svg" data-name="Layer 1"><path d="m18.5 1h-13c-3.033 0-5.5 2.467-5.5 5.5v11c0 3.032 2.467 5.5 5.5 5.5h13c3.032 0 5.5-2.468 5.5-5.5v-11c0-3.033-2.468-5.5-5.5-5.5zm-9 2c.828 0 1.5.672 1.5 1.5s-.672 1.5-1.5 1.5-1.5-.672-1.5-1.5.672-1.5 1.5-1.5zm-5 0c.828 0 1.5.672 1.5 1.5s-.672 1.5-1.5 1.5-1.5-.672-1.5-1.5.672-1.5 1.5-1.5zm16.5 14.5c0 1.379-1.121 2.5-2.5 2.5h-13c-1.378 0-2.5-1.121-2.5-2.5v-9.5h18zm-16-6c0-.829.671-1.5 1.5-1.5h11c.828 0 1.5.671 1.5 1.5s-.672 1.5-1.5 1.5h-11c-.829 0-1.5-.671-1.5-1.5zm0 5c0-.828.671-1.5 1.5-1.5h1c.829 0 1.5.672 1.5 1.5s-.671 1.5-1.5 1.5h-1c-.829 0-1.5-.672-1.5-1.5zm14 0c0 .828-.672 1.5-1.5 1.5h-1c-.828 0-1.5-.672-1.5-1.5s.672-1.5 1.5-1.5h1c.828 0 1.5.672 1.5 1.5zm-5 0c0 .828-.672 1.5-1.5 1.5h-1c-.829 0-1.5-.672-1.5-1.5s.671-1.5 1.5-1.5h1c.828 0 1.5.672 1.5 1.5z"/></svg>