<?xml version="1.0" encoding="UTF-8"?>
<svg xmlns="http://www.w3.org/2000/svg" id="Layer_1" data-name="Layer 1" viewBox="0 0 24 24">
  <path d="M5,5H13c0,2.209-1.791,4-4,4s-4-1.791-4-4Zm.115-2h7.997l.319-.826c.27-.787-.287-1.615-1.118-1.661L6.311,.003c-1.131-.063-1.987,1.008-1.675,2.097l.479,.9ZM14,22.5c0,.828-.671,1.5-1.5,1.5h-4c-1.996,.006-3.505-1.509-3.5-3.5v-2.525l-2.166,4.212c-.266,.517-.791,.813-1.335,.813-.231,0-.465-.054-.685-.166-.736-.379-1.026-1.284-.647-2.021l2.981-5.794c1.166-2.462,3.608-4.02,6.353-4.02,.87,0,1.723,.157,2.535,.467,.639,.244,1.007,.877,.953,1.526l.012,.007v2.849c0,.502-.165,.99-.47,1.389l-2.877,3.762h2.847c.829,0,1.5,.672,1.5,1.5Zm-2.987-8.217c-.016-.006-.032-.007-.048-.013-.469-.179-.962-.27-1.465-.27-.527,0-1.032,.109-1.5,.298v3.926l3.013-3.94Zm11.487,.717h-3.204l-.288-1.151c2.245-.426,4.991-1.853,4.991-5.349,0-.829-.671-1.5-1.5-1.5s-1.5,.671-1.5,1.5c0,1.384-1.045,2-2,2.276V1.5c0-.829-.671-1.5-1.5-1.5-.652,0-1.202,.419-1.408,1h-.092c-.552,0-1,.448-1,1s.448,1,1,1v5.092c-.581,.207-1,.756-1,1.408v7c0,.652,.419,1.201,1,1.408v4.592c0,.828,.671,1.5,1.5,1.5h1.5c1.252,0,2-1.017,2-2,0-.123-.015-.245-.045-.364l-.909-3.636h2.454c.829,0,1.5-.672,1.5-1.5s-.671-1.5-1.5-1.5Z"/>
</svg>
