<svg id="Layer_1" viewBox="0 0 24 24" xmlns="http://www.w3.org/2000/svg" data-name="Layer 1"><path d="m12 4c-3.134 0-6.159 1.128-8.516 3.177-.622.541-1.571.479-2.116-.148-.543-.625-.477-1.573.148-2.116 2.903-2.523 6.627-3.913 10.484-3.913s7.58 1.39 10.483 3.913c.626.543.692 1.491.148 2.116-.544.627-1.494.69-2.115.148-2.358-2.049-5.383-3.177-8.517-3.177zm12 14v3c0 1.657-1.343 3-3 3h-5c-1.657 0-3-1.343-3-3v-3c0-.885.39-1.672 1-2.221v-1.279c0-2.481 2.019-4.5 4.5-4.5s4.5 2.019 4.5 4.5v1.279c.61.549 1 1.336 1 2.221zm-7-3.5v.5h3v-.5c0-.827-.673-1.5-1.5-1.5s-1.5.673-1.5 1.5zm3 5c0-.828-.672-1.5-1.5-1.5s-1.5.672-1.5 1.5.672 1.5 1.5 1.5 1.5-.672 1.5-1.5zm-3.188-11.27c-3.327-1.842-7.478-1.663-10.696.683-.669.488-.816 1.426-.328 2.096.487.668 1.425.817 2.096.328 1.722-1.256 3.825-1.617 5.762-1.145.831-.935 1.924-1.627 3.166-1.962zm-7.812 8.77c0 1.304.837 2.403 2 2.816v-1.816c0-1.113.378-2.13 1-2.957v-1.043c-1.657 0-3 1.343-3 3z"/></svg>