<svg id="Layer_1" viewBox="0 0 24 24" xmlns="http://www.w3.org/2000/svg" data-name="Layer 1"><path d="m19.5 10c-.828 0-1.5.671-1.5 1.5v.5h-7v-2.671c0-.635.401-1.204 1-1.415.781-.276 1.19-1.133.914-1.914s-1.131-1.189-1.914-.915c-1.794.634-3 2.339-3 4.244v4.671h-.5c-1.93 0-3.5 1.57-3.5 3.5v1c0 .276-.225.5-.5.5s-.5-.224-.5-.5v-9.551c1.14-.232 2-1.242 2-2.449v-2.379l1.561-1.561c.586-.586.586-1.536 0-2.121-.586-.586-1.535-.586-2.121 0l-1.997 1.997s-.004.004-.005.006l-.826.826c-1.039 1.039-1.611 2.42-1.611 3.889v11.343c0 1.93 1.57 3.5 3.5 3.5s3.5-1.57 3.5-3.5v-1c0-.276.225-.5.5-.5h.5v2.5c0 2.481 2.019 4.5 4.5 4.5h4c2.481 0 4.5-2.019 4.5-4.5v-8c0-.829-.672-1.5-1.5-1.5zm-3 11h-4c-.827 0-1.5-.673-1.5-1.5v-4.5h7v4.5c0 .827-.673 1.5-1.5 1.5zm5.503-12.129-2.953-1.342-2.952 1.34c-1.265.575-2.493-.879-1.794-2.123l3.305-5.879c.323-.577.881-.865 1.441-.867.56.003 1.118.291 1.441.868l3.306 5.88c.699 1.243-.53 2.697-1.794 2.123z"/></svg>