<svg id="Layer_1" viewBox="0 0 24 24" xmlns="http://www.w3.org/2000/svg" data-name="Layer 1"><path d="m15 18h-12v-12.5c0-1.378 1.122-2.5 2.5-2.5h5c.61 0 1.197.222 1.653.625.62.548 1.568.49 2.117-.132.548-.621.489-1.569-.132-2.117-1.004-.887-2.296-1.375-3.638-1.375h-5c-3.033-.001-5.5 2.466-5.5 5.499v13.5c.055 2.727 2.212 5.009 5 5h6c2.761 0 5-2.239 5-5 0 0 0-1-1-1zm-6.008 4.015h-1.985c-.556 0-1.008-.451-1.008-1.008s.451-1.008 1.008-1.008h1.985c.556 0 1.008.451 1.008 1.008s-.451 1.008-1.008 1.008zm12.508-17.014h-6c-1.375 0-2.5 1.125-2.5 2.501l.002 7.41c0 .858.949 1.378 1.672.915l2.826-1.827h4c1.381 0 2.5-1.119 2.5-2.5v-3.999c0-1.381-1.119-2.5-2.5-2.5zm-1.5 6.999h-3c-1.105 0-2-.895-2-2h1.737l1.242.842c.315.21.726.21 1.041 0l1.242-.842h1.737c0 1.105-.895 2-2 2zm-5-3c0-1.105.895-2 2-2h3c1.105 0 2 .895 2 2z"/></svg>