<svg id="Layer_1" viewBox="0 0 24 24" xmlns="http://www.w3.org/2000/svg" data-name="Layer 1"><path d="m11.825 17 .445 6.142c.034.463-.333.858-.798.858-.419 0-.768-.324-.798-.742l-.265-3.66-.798 1.756c-.304.668-1.253.668-1.557 0l-.798-1.756-.265 3.66c-.03.418-.379.742-.798.742-.465 0-.832-.394-.798-.858l.445-6.142c.043-.705.472-1 .988-1 .342 0 .66.242.841.64l1.164 2.56 1.164-2.56c.181-.398.499-.64.841-.64.516 0 .945.295.988 1zm6.107.626 1.142 5.435c.107.5-.296.964-.804.937-.368 0-.685-.257-.761-.617l-.165-.782h-2.379l-.175.79c-.079.356-.394.61-.759.61-.494 0-.863-.456-.76-.939l1.165-5.479c.168-.864.87-1.583 1.742-1.581.894.006 1.563.69 1.753 1.627zm-.924 3.373-.641-3.044c-.047-.231-.144-.334-.168-.349l-.017-.006c-.071.042-.146.146-.176.296l-.686 3.104h1.688zm6.241-5c-.286 0-.548.163-.674.42l-1.122 2.29-1.122-2.29c-.126-.257-.387-.42-.674-.42-.555 0-.918.582-.674 1.08l1.652 3.37v2.749c0 .442.358.8.8.8s.8-.358.8-.8v-2.678l1.687-3.442c.244-.498-.118-1.08-.674-1.08zm-4.749-13.999h-.5v-.5c0-.829-.671-1.5-1.5-1.5s-1.5.671-1.5 1.5v.5h-6v-.5c0-.829-.671-1.5-1.5-1.5s-1.5.671-1.5 1.5v.5h-.5c-3.033 0-5.5 2.467-5.5 5.5v11c0 1.246.429 2.468 1.207 3.438.521.649 1.467.748 2.109.231.646-.518.75-1.462.232-2.108-.358-.446-.548-.986-.548-1.562v-9.499h18v3.5c0 .828.671 1.5 1.5 1.5s1.5-.672 1.5-1.5v-5c0-3.033-2.467-5.5-5.5-5.5z"/></svg>