<svg id="Layer_1" viewBox="0 0 24 24" xmlns="http://www.w3.org/2000/svg" data-name="Layer 1"><path d="m5.176 15.753c.503.331 1.155.329 1.656-.005.734-.489 1.589-.748 2.471-.748h2.697c1.044.115 2.151-.545 2.007-1.701-.095-.823-.842-1.41-1.662-1.318-.113.013-.228.02-.345.02-1.32 0-2.43-.862-2.831-2.048 1.477-.181 2.858-.878 3.887-1.952h2.095c.129.27.232.552.288.845.034.18.792 4.261 1.083 5.915.14.821.941 1.364 1.737 1.218.816-.144 1.361-.921 1.218-1.737-.293-1.665-1.057-5.772-1.091-5.953-.091-.485-.24-.96-.44-1.412.031-.121.053-.245.053-.375v-3.002c0-1.93-1.57-3.5-3.5-3.5h-5c-1.93 0-3.5 1.57-3.5 3.5v3c0 .132.022.257.054.379-.188.425-.332.87-.424 1.324-.066.325-1.105 6.028-1.105 6.028-.108.592.148 1.192.651 1.522zm4.824-12.753h1v-1c0-.552.448-1 1-1s1 .448 1 1v1h1c.552 0 1 .448 1 1s-.448 1-1 1h-1v1c0 .552-.448 1-1 1s-1-.448-1-1v-1h-1c-.552 0-1-.448-1-1s.448-1 1-1zm9.646 20.984c-.815.123-1.581-.447-1.701-1.267-.153-1.053-.635-1.944-1.47-2.727l-3.397 3.554c-.567.61-1.614.601-2.171-.018l-3.273-3.491c-.893.78-1.406 1.682-1.573 2.706-.129.822-.922 1.375-1.721 1.24-.818-.133-1.373-.904-1.24-1.721.273-1.682 1.109-3.185 2.483-4.468.586-.546 1.35-.828 2.157-.788.807.038 1.576.407 2.111 1.011l2.168 2.312 2.284-2.356c.491-.556 1.262-.923 2.069-.96.8-.03 1.57.244 2.154.791 1.332 1.248 2.135 2.756 2.388 4.482.12.82-.447 1.582-1.268 1.702z"/></svg>