<svg id="Layer_1" viewBox="0 0 24 24" xmlns="http://www.w3.org/2000/svg" data-name="Layer 1"><path d="m22.5 13.5c.829 0 1.5-.671 1.5-1.5s-.671-1.5-1.5-1.5h-.5v-2.5h.5c.829 0 1.5-.671 1.5-1.5s-.671-1.5-1.5-1.5h-1.107c-.527-1.027-1.366-1.866-2.393-2.393v-1.107c0-.829-.671-1.5-1.5-1.5s-1.5.671-1.5 1.5v.5h-2.5v-.5c0-.829-.671-1.5-1.5-1.5s-1.5.671-1.5 1.5v.5h-2.5v-.5c0-.829-.671-1.5-1.5-1.5s-1.5.671-1.5 1.5v1.107c-1.027.527-1.866 1.366-2.393 2.393h-1.107c-.829 0-1.5.671-1.5 1.5s.671 1.5 1.5 1.5h.5v2.5h-.5c-.829 0-1.5.671-1.5 1.5s.671 1.5 1.5 1.5h.5v2.5h-.5c-.829 0-1.5.671-1.5 1.5s.671 1.5 1.5 1.5h1.107c.527 1.027 1.366 1.866 2.393 2.393v1.107c0 .829.671 1.5 1.5 1.5s1.5-.671 1.5-1.5v-.5h2.5v.5c0 .829.671 1.5 1.5 1.5s1.5-.671 1.5-1.5v-.5h2.5v.5c0 .829.671 1.5 1.5 1.5s1.5-.671 1.5-1.5v-1.107c1.027-.527 1.866-1.366 2.393-2.393h1.107c.829 0 1.5-.671 1.5-1.5s-.671-1.5-1.5-1.5h-.5v-2.5zm-3.5 3c0 1.378-1.122 2.5-2.5 2.5h-9c-1.378 0-2.5-1.122-2.5-2.5v-9c0-1.378 1.122-2.5 2.5-2.5h9c1.378 0 2.5 1.122 2.5 2.5zm-2.839-7.086-3.095-2.089c-.644-.434-1.487-.434-2.131 0l-3.095 2.089c-.525.354-.839.946-.839 1.579v4.102c0 1.052.853 1.905 1.905 1.905h6.19c1.052 0 1.905-.853 1.905-1.905v-4.102c0-.633-.315-1.225-.839-1.579zm-2.661 4.086c0 .552-.448 1-1 1h-1c-.552 0-1-.448-1-1v-1c0-.552.448-1 1-1h1c.552 0 1 .448 1 1z"/></svg>