<svg id="Layer_1" viewBox="0 0 24 24" xmlns="http://www.w3.org/2000/svg" data-name="Layer 1"><path d="m10 22.5c0 .829-.671 1.5-1.5 1.5h-3c-3.033 0-5.5-2.467-5.5-5.5v-11c0-2.978 2.379-5.411 5.337-5.498.562-1.183 1.769-2.002 3.163-2.002h3c1.395 0 2.601.819 3.163 2.002 2.958.086 5.337 2.52 5.337 5.498v1c0 .829-.671 1.5-1.5 1.5s-1.5-.671-1.5-1.5v-1c0-1.378-1.122-2.5-2.5-2.5h-1c-.829 0-1.5-.671-1.5-1.5 0-.276-.224-.5-.5-.5h-3c-.276 0-.5.224-.5.5 0 .829-.671 1.5-1.5 1.5h-1c-1.378 0-2.5 1.122-2.5 2.5v11c0 1.378 1.122 2.5 2.5 2.5h3c.829 0 1.5.671 1.5 1.5zm14-5v3c0 1.93-1.57 3.5-3.5 3.5h-5c-1.93 0-3.5-1.57-3.5-3.5v-3c0-1.391.822-2.585 2-3.149v-.851c0-.829.671-1.5 1.5-1.5s1.5.671 1.5 1.5v.5h2v-.5c0-.829.671-1.5 1.5-1.5s1.5.671 1.5 1.5v.851c1.178.564 2 1.758 2 3.149zm-3 3v-2.5h-6v2.5c0 .276.224.5.5.5h5c.276 0 .5-.224.5-.5zm-14.5-13.5c-.828 0-1.5.672-1.5 1.5s.672 1.5 1.5 1.5 1.5-.672 1.5-1.5-.672-1.5-1.5-1.5zm0 5c-.828 0-1.5.672-1.5 1.5s.672 1.5 1.5 1.5 1.5-.672 1.5-1.5-.672-1.5-1.5-1.5zm8.5-3.5c0-.829-.671-1.5-1.5-1.5h-2c-.829 0-1.5.671-1.5 1.5s.671 1.5 1.5 1.5h2c.829 0 1.5-.671 1.5-1.5z"/></svg>