<svg id="Layer_1" viewBox="0 0 24 24" xmlns="http://www.w3.org/2000/svg" data-name="Layer 1"><path d="m5.907 3.471c0-1.381 1.119-2.5 2.5-2.5s2.5 1.119 2.5 2.5-1.119 2.5-2.5 2.5-2.5-1.119-2.5-2.5zm14.993 6.491-3.391-8.811c-.434-.962-1.575-1.41-2.545-.996l-1.55.658c-.762.324-1.118 1.204-.794 1.967s1.206 1.117 1.967.795l.553-.234 2.177 5.659h-.947c-.432 0-.862-.062-1.276-.185l-5.649-1.67c-.91-.315-1.912-.105-2.616.551-.705.655-.987 1.641-.713 2.647 0 0 1.731 5.24 1.743 5.281l-3.19 6.188c-.379.736-.09 1.642.646 2.021.722.376 1.639.098 2.021-.646 0 0 3.552-6.915 3.579-7.002.055.313.088.63.088.951v5.364c0 .828.671 1.5 1.5 1.5s1.5-.672 1.5-1.5v-5.364c0-.916-.147-1.821-.437-2.688l-1.093-3.279 1.772.524c.691.204 1.406.308 2.126.308h3.131c.494 0 .957-.243 1.236-.65.28-.408.341-.927.164-1.388z"/></svg>