<?xml version="1.0" encoding="UTF-8"?>
<svg xmlns="http://www.w3.org/2000/svg" id="Layer_1" data-name="Layer 1" viewBox="0 0 24 24">
  <path d="M9,12c3.309,0,6-2.691,6-6S12.309,0,9,0,3,2.691,3,6s2.691,6,6,6Zm0-9c1.654,0,3,1.346,3,3s-1.346,3-3,3-3-1.346-3-3,1.346-3,3-3Zm.997,12.418c.055,.827-.572,1.541-1.398,1.595-2.988,.197-5.389,2.598-5.585,5.585-.051,.828-.778,1.455-1.595,1.398-.826-.054-1.453-.769-1.398-1.595,.294-4.483,3.898-8.087,8.381-8.381,.828-.059,1.541,.571,1.595,1.398Zm12.003-1.367v-1.051c0-2.206-1.794-4-4-4s-4,1.794-4,4v1.051c-1.14,.232-2,1.242-2,2.449v3c0,2.481,2.019,4.5,4.5,4.5h3c2.481,0,4.5-2.019,4.5-4.5v-3c0-1.207-.86-2.217-2-2.449Zm-4-2.051c.551,0,1,.449,1,1v1h-2v-1c0-.551,.449-1,1-1Zm3,7.5c0,.827-.673,1.5-1.5,1.5h-3c-.827,0-1.5-.673-1.5-1.5v-2.5h6v2.5Z"/>
</svg>
