<svg id="Layer_1" viewBox="0 0 24 24" xmlns="http://www.w3.org/2000/svg" data-name="Layer 1"><path d="m9 3c0-1.657 1.343-3 3-3s2.894 1.343 2.894 3-1.237 3-2.894 3-3-1.343-3-3zm-.807 9.855c.748.354 1.643.035 1.999-.712.33-.694 1.04-1.144 1.808-1.144s1.479.449 1.808 1.144c.356.755 1.267 1.063 1.999.712.748-.355 1.066-1.251.712-1.999-.824-1.735-2.598-2.856-4.519-2.856s-3.694 1.121-4.518 2.856c-.355.748-.037 1.644.711 1.999zm8.973 4.022 4.014-2.04c.738-.375 1.033-1.278.657-2.017-.375-.738-1.277-1.035-2.017-.657l-7.501 3.812c-.199.102-.439.102-.639 0l-7.5-3.812c-.737-.377-1.641-.081-2.017.657-.375.738-.081 1.642.658 2.017l4.014 2.04s-4.205 3.593-4.233 3.622c-1.296 1.211-.321 3.562 1.452 3.501h5.447c.829 0 1.5-.672 1.5-1.5s-.671-1.5-1.5-1.5h-2.874l3.103-2.651c.689.382 1.477.729 2.27.702.792.027 1.582-.32 2.271-.702l3.105 2.651h-2.876c-.828 0-1.5.672-1.5 1.5s.672 1.5 1.5 1.5h5.447c1.837.048 2.78-2.382 1.348-3.598z"/></svg>