<svg id="Layer_1" viewBox="0 0 24 24" xmlns="http://www.w3.org/2000/svg" data-name="Layer 1"><path d="m.211 15.328c.416-.722 1.334-.967 2.049-.547.535.312 1.26.238 1.803-.151 1.161-.832 2.72-.831 3.88 0 .624.447 1.492.447 2.116 0 1.161-.832 2.72-.831 3.88 0 .624.447 1.492.447 2.116 0 1.161-.832 2.72-.831 3.88 0 .542.388 1.267.463 1.803.151.717-.419 1.633-.174 2.049.547.416.722.173 1.646-.543 2.066-.682.399-1.46.61-2.252.61-.983 0-1.976-.323-2.795-.91-.129-.092-.277-.092-.406 0-1.639 1.175-3.951 1.175-5.59 0-.129-.092-.277-.092-.406 0-1.639 1.175-3.951 1.175-5.59 0-.129-.092-.277-.092-.406 0-1.479 1.061-3.519 1.195-5.047.3-.716-.42-.959-1.344-.543-2.066zm21.528 5.449c-.536.313-1.262.238-1.803-.151-1.16-.831-2.719-.831-3.88 0-.624.447-1.492.447-2.116 0-1.16-.831-2.719-.831-3.88 0-.624.447-1.492.447-2.116 0-1.16-.831-2.719-.831-3.88 0-.544.389-1.268.463-1.803.151-.716-.419-1.633-.174-2.049.547-.416.722-.173 1.646.543 2.066 1.528.896 3.568.761 5.047-.3.129-.092.277-.092.406 0 1.639 1.175 3.951 1.175 5.59 0 .129-.092.277-.092.406 0 1.639 1.175 3.951 1.175 5.59 0 .129-.092.277-.092.406 0 .819.587 1.812.91 2.795.91.792 0 1.571-.211 2.252-.61.716-.42.959-1.344.543-2.066-.416-.721-1.332-.965-2.049-.547zm-20.717-9.21c-.01-.19-.015-.382-.015-.575 0-6.061 4.932-10.992 10.993-10.992s10.993 4.931 10.993 10.993c0 .193-.005.385-.015.575-.04.801-.703 1.424-1.496 1.424-.298.002-.587-.095-.821-.251-1.563-.899-3.475-.951-5.073-.145-.38.192-.834.173-1.213-.02-.747-.379-1.561-.584-2.375-.583-.85.066-1.445-.646-1.509-1.425-.042-.853-.222-1.674-.503-2.453-1.284.972-2.294 2.156-3.181 3.38-.231.318-.585.535-.977.547-.861.026-1.715.256-2.485.696-.217.144-.471.239-.75.253-.82.05-1.531-.595-1.572-1.422zm16.378-6.453c.538 1.507.869 3.177 1.001 4.992.499-.136.985-.323 1.457-.551-.318-1.744-1.204-3.288-2.459-4.441zm-5.4-2.116c-.552 0-1.091.056-1.612.163 1.743 1.847 2.814 4.214 3.047 6.786.646.222 1.311.363 1.982.424-.211-2.984-1.055-5.44-2.506-7.317-.299-.034-.602-.056-.911-.056zm-7.957 7.248c1.134-1.793 2.638-3.393 4.431-4.736-.323-.377-.684-.723-1.076-1.044-1.857 1.314-3.133 3.394-3.355 5.78z"/></svg>