<svg id="Layer_1" viewBox="0 0 24 24" xmlns="http://www.w3.org/2000/svg" data-name="Layer 1"><path d="m0 7.5c0-.829.671-1.5 1.5-1.5h.713c.118-.414.281-.81.487-1.178l-.761-.761c-.586-.585-.586-1.536 0-2.121.586-.586 1.535-.586 2.121 0l.761.761c.369-.207.764-.37 1.178-.487v-.713c.001-.83.672-1.501 1.501-1.501 1 0 1.5.671 1.5 1.5v.734c.188.054.38.093.563.167.768.311 1.138 1.186.827 1.953-.311.769-1.184 1.139-1.953.827-.297-.12-.612-.181-.937-.181-1.378 0-2.5 1.122-2.5 2.5 0 .664.261 1.291.735 1.765.585.586.585 1.536 0 2.121l-1.674 1.674c-.586.586-1.535.586-2.121 0-.586-.585-.586-1.536 0-2.121l.759-.759c-.21-.373-.368-.77-.485-1.181h-.713c-.83.001-1.501-.67-1.501-1.499zm23.249 9.27c-.464-.267-1.037-.267-1.501.002-.537.311-1.263.237-1.806-.149-1.161-.825-2.721-.826-3.883 0-.623.443-1.494.443-2.117 0-1.161-.825-2.721-.826-3.883 0-.623.443-1.494.443-2.117 0-1.161-.825-2.721-.826-3.883 0-.543.385-1.268.459-1.805.149-.716-.417-1.635-.172-2.05.544-.416.717-.172 1.634.544 2.05 1.53.889 3.571.754 5.05-.298.129-.092.277-.092.406 0 .508.361 1.084.597 1.681.734l1.21 3.22c.223.607.906.977 1.406.977.175 0 .353-.03.523-.095.776-.289 1.171-1.153.882-1.929l-.925-2.456c.284-.125.56-.268.817-.451.129-.092.277-.092.406 0 1.639 1.165 3.955 1.165 5.594 0 .129-.092.277-.092.406 0 .644.458 1.395.753 2.164.86l-.773 2.047c-.289.776.106 1.64.882 1.929.171.065.348.095.523.095.5 0 1.182-.37 1.406-.977l1.5-3.999c.059-.198.094-.659.094-.954 0-.521-.287-1.032-.751-1.3zm-15.11-4.9c-.348.752-.021 1.643.731 1.991.735.345 1.642.028 1.991-.731l1.909-4.124.591 1.17c.273.541.843.858 1.45.82.604-.045 1.123-.45 1.313-1.025l1.405-4.25 3.622 7.435c.363.745 1.262 1.055 2.005.692.745-.363 1.055-1.261.692-2.005l-4.076-8.367c-.463-.952-1.437-1.525-2.456-1.472-1.036.058-1.937.745-2.306 1.783l-.715 2.163c-.48-.366-1.078-.554-1.689-.519-.943.057-1.782.639-2.189 1.519l-2.277 4.92z"/></svg>