<?xml version="1.0" encoding="UTF-8"?>
<svg xmlns="http://www.w3.org/2000/svg" id="Layer_1" data-name="Layer 1" viewBox="0 0 24 24">
  <path d="m6.5,12c.828,0,1.5.672,1.5,1.5s-.672,1.5-1.5,1.5-1.5-.672-1.5-1.5.672-1.5,1.5-1.5Zm17.5-4.5v1.378c0,.67-.666,1.136-1.294.904-1.223-.452-2.859-1.023-2.859-1.023-.874-.29-1.819-.29-2.694,0,0,0-1.467.496-2.533.862-.734.252-1.503.379-2.278.379H3v4.5c0,1.379,1.122,2.5,2.5,2.5h4c.829,0,1.5.672,1.5,1.5s-.671,1.5-1.5,1.5h-4c-3.033,0-5.5-2.468-5.5-5.5v-7C0,4.468,2.467,2,5.5,2h13c3.033,0,5.5,2.468,5.5,5.5Zm-3.051-.5c-.232-1.14-1.242-2-2.449-2H5.5c-1.207,0-2.217.86-2.449,2h17.899Zm3.051,8.146v2.484c0,3.965-3.638,5.738-4.753,6.188,0,0-.314.183-.746.183-.501,0-.853-.25-.853-.25-1.088-.543-4.648-2.597-4.648-6.12v-2.484c0-1.511.964-2.847,2.398-3.322l1.894-.628c.778-.261,1.637-.259,2.417,0l1.892.627c1.434.474,2.398,1.81,2.398,3.322Zm-3,0c0-.216-.137-.406-.341-.475l-1.896-.628c-.173-.058-.353-.057-.524,0l-1.896.629c-.205.068-.343.259-.343.475v2.484c0,1.522,1.689,2.699,2.565,3.207.896-.445,2.435-1.464,2.435-3.207v-2.484Z"/>
</svg>
