<svg id="Layer_1" viewBox="0 0 24 24" xmlns="http://www.w3.org/2000/svg" data-name="Layer 1"><path d="m7.755 11h-1.255c-.828 0-1.5.671-1.5 1.5 0 .812.647 1.47 1.453 1.495l-.829 1.907c-.33.76.019 1.644.778 1.974.76.332 1.643-.018 1.974-.777l1.347-3.098h4.554l1.347 3.098c.331.767 1.232 1.106 1.974.777.76-.33 1.108-1.214.778-1.974l-.829-1.907c.806-.025 1.453-.683 1.453-1.495 0-.829-.672-1.5-1.5-1.5h-1.255l-1.98-4.553c.452-.525.735-1.2.735-1.947 0-1.108-.607-2.064-1.5-2.584v-.416c0-.829-.672-1.5-1.5-1.5s-1.5.671-1.5 1.5v.416c-.893.52-1.5 1.476-1.5 2.584 0 .747.283 1.422.735 1.947l-1.98 4.553zm3.272 0 .973-2.238.973 2.238zm12.973-6.5v15c0 2.481-2.019 4.5-4.5 4.5h-15c-2.481 0-4.5-2.019-4.5-4.5v-15c0-.829.672-1.5 1.5-1.5s1.5.671 1.5 1.5.673 1.5 1.5 1.5h3.236l-1.32 3h-1.916c-.525 0-1.03-.091-1.5-.257v10.757c0 .827.673 1.5 1.5 1.5h15c.827 0 1.5-.673 1.5-1.5v-10.757c-.47.166-.975.257-1.5.257h-1.916l-1.32-3h3.236c.827 0 1.5-.673 1.5-1.5s.672-1.5 1.5-1.5 1.5.671 1.5 1.5z"/></svg>