<svg id="Layer_1" viewBox="0 0 24 24" xmlns="http://www.w3.org/2000/svg" data-name="Layer 1"><path d="m19.808 12.512c.139.061.204.202.192.487v2.496c0 .827.672 1.498 1.5 1.498.836.005 1.492-.695 1.5-1.498 0-3.633.382-5.333.66-6.574.183-.814.34-1.516.34-2.431-.007-.608-.177-1.205-.491-1.728-.521-.863-1.152-1.665-1.872-2.384-.723-.723-1.526-1.352-2.39-1.871-1.364-.82-3.112-.599-4.254.54l-4.341 4.335c-.795.793-1.216 1.889-1.155 3.007.007.135.043.265.064.398l-8.38 8.368c-1.541 1.539-1.573 4.041-.086 5.563.029.031.152.153.157.157 1.551 1.508 4.056 1.456 5.586-.072l8.379-8.368c.133.021.262.057.398.064 1.13.065 2.218-.36 3.012-1.153l.68-.679c.168-.167.35-.223.501-.156zm-15.091 8.173c-.384.385-.999.406-1.383.034l-.078-.078c-.36-.369-.34-.982.046-1.368l7.857-7.846c.255.215.51.433.744.668.239.239.457.492.67.744l-7.857 7.846zm12.469-10.137-.68.679c-.568.417-.904.407-1.425-.077-.324-.403-.679-.797-1.055-1.173-.371-.371-.767-.725-1.176-1.054-.482-.523-.5-.852-.077-1.424l4.341-4.334c.157-.156.398-.203.585-.092.654.393 1.265.872 1.815 1.423.55.549 1.029 1.159 1.424 1.811.174.641-.068 1.163-.206 1.958-.087.387-.183.813-.275 1.315-1.149-.276-2.38.077-3.271.968zm6.082 9.196c.472.471.732 1.098.732 1.765 0 .887-.461 1.702-1.265 2.175-.739.435-1.699.44-2.444.014-.822-.47-1.291-1.294-1.291-2.189 0-.667.26-1.293.726-1.758l.916-.895c.477-.466 1.239-.466 1.716 0l.909.888z"/></svg>