<svg id="Layer_1" viewBox="0 0 24 24" xmlns="http://www.w3.org/2000/svg" data-name="Layer 1"><path d="m11 11.5v-3c0-.828.672-1.5 1.5-1.5s1.5.672 1.5 1.5v3c0 .828-.672 1.5-1.5 1.5s-1.5-.672-1.5-1.5zm5.5 1.5c.828 0 1.5-.672 1.5-1.5v-3c0-.828-.672-1.5-1.5-1.5s-1.5.672-1.5 1.5v3c0 .828.672 1.5 1.5 1.5zm-7.5-4.447v-7.053c0-.828-.672-1.5-1.5-1.5s-1.5.672-1.5 1.5v6.617c1.01-.247 2.085-.101 3 .436zm2.587 12.843h1.792v-1.792h-1.792zm8.913-14.396c-.828 0-1.5.672-1.5 1.5v3c0 .828.672 1.5 1.5 1.5s1.5-.672 1.5-1.5v-3c0-.828-.672-1.5-1.5-1.5zm0 8c.539 0 1.044-.133 1.5-.351v4.351c0 1.63-.792 3.065-2 3.977v-5.134c0-.476-.385-.861-.861-.861-.233 0-.456.094-.618.262l-1.63 1.682c-.308.317-.299.824.018 1.131s.824.299 1.131-.018l.36-.372v4.109c-.447.131-.911.224-1.4.224h-6.979c-1.824 0-3.576-.712-4.883-1.984l-1.33-1.295c-2.336-2.274-2.372-6.015-.08-8.333l1.787-1.808c.797-.797 2.089-.797 2.886 0s.797 2.089 0 2.886l-2.766 2.874c-.388.401-.372 1.042.035 1.424.399.374 1.023.359 1.403-.035l2.742-2.85c.201-.201.375-.418.525-.647.597.472 1.341.767 2.159.767.744 0 1.432-.238 2-.635.568.398 1.256.635 2 .635s1.432-.238 2-.635c.568.398 1.256.635 2 .635zm-4.518 7.192c0-.44-.356-.796-.796-.796h-.217v-1.792h.199c.44 0 .796-.356.796-.796s-.356-.796-.796-.796h-.199v-.217c0-.44-.356-.796-.796-.796s-.796.356-.796.796v.217h-1.792v-.199c0-.44-.356-.796-.796-.796s-.796.356-.796.796v.199h-.217c-.44 0-.796.356-.796.796s.356.796.796.796h.217v1.792h-.199c-.44 0-.796.356-.796.796s.356.796.796.796h.199v.199c0 .44.356.796.796.796s.796-.356.796-.796v-.199h1.792v.182c0 .44.356.796.796.796s.796-.356.796-.796v-.182h.217c.44 0 .796-.356.796-.796z"/></svg>