<svg id="Layer_1" viewBox="0 0 24 24" xmlns="http://www.w3.org/2000/svg" data-name="Layer 1"><path d="m22.808 7.71c-.755-.609-1.734-.843-2.681-.637-.386.083-.824.166-1.28.247.103-.387.165-.79.151-1.213-.027-2.27-2.078-4.236-4.347-4.104-1.035.036-1.944.431-2.653 1.077-.706-.646-1.608-1.041-2.634-1.077-2.267-.13-4.336 1.831-4.361 4.105-.014.422.049.825.152 1.212-.457-.081-.895-.164-1.282-.247-1.926-.468-3.924 1.154-3.873 3.133v4.588c-.051 1.979 1.947 3.6 3.873 3.133 1.569-.338 3.973-.692 6.127-.847v5.3c0 .544.652.823 1.046.448l.954-.91.954.91c.394.376 1.046.096 1.046-.448v-5.3c2.154.154 4.558.508 6.127.847 1.916.471 3.928-1.155 3.873-3.133v-4.588c0-.975-.435-1.884-1.192-2.496zm-8.053-2.709c.663-.032 1.236.548 1.245 1.208.033.981-1.089 1.35-1.434 1.438-.371.096-.734.167-1.066.22v-1.489c.1-.662.476-1.35 1.255-1.377zm-5.496 0c.944.032 1.186 1.055 1.241 1.406v1.462c-.328-.053-.686-.123-1.05-.219-.348-.091-1.45-.463-1.45-1.44 0-1.018.941-1.221 1.259-1.209zm-6.019 9.994c-.121.027-.245-.076-.24-.201v-4.588c-.005-.125.12-.23.24-.201 1.792.387 4.424.775 6.76.935v3.135c-2.362.156-4.992.538-6.76.92zm17.76-.201c.004.125-.119.229-.24.201-1.768-.382-4.398-.764-6.76-.92v-3.135c2.336-.16 4.968-.548 6.76-.935.121-.03.245.077.24.201z"/></svg>