<svg id="Layer_1" viewBox="0 0 24 24" xmlns="http://www.w3.org/2000/svg" data-name="Layer 1"><path d="m12 22.5c0 .828-.671 1.5-1.5 1.5h-5c-3.033 0-5.5-2.468-5.5-5.5v-13c0-3.032 2.467-5.5 5.5-5.5h7c3.033 0 5.5 2.468 5.5 5.5v2c0 .828-.671 1.5-1.5 1.5s-1.5-.672-1.5-1.5v-2c0-1.379-1.122-2.5-2.5-2.5h-7c-1.378 0-2.5 1.121-2.5 2.5v13c0 1.379 1.122 2.5 2.5 2.5h5c.829 0 1.5.672 1.5 1.5zm-5.5-17.5c-.828 0-1.5.672-1.5 1.5s.672 1.5 1.5 1.5 1.5-.672 1.5-1.5-.672-1.5-1.5-1.5zm3.5 1.5c0 .828.672 1.5 1.5 1.5s1.5-.672 1.5-1.5-.672-1.5-1.5-1.5-1.5.672-1.5 1.5zm-3.5 3.5c-.828 0-1.5.672-1.5 1.5s.672 1.5 1.5 1.5 1.5-.672 1.5-1.5-.672-1.5-1.5-1.5zm5 0c-.828 0-1.5.672-1.5 1.5s.672 1.5 1.5 1.5 1.5-.672 1.5-1.5-.672-1.5-1.5-1.5zm-5 5c-.828 0-1.5.672-1.5 1.5s.672 1.5 1.5 1.5 1.5-.672 1.5-1.5-.672-1.5-1.5-1.5zm17.5.146v2.484c0 3.965-3.638 5.738-4.753 6.188-.234.101-.492.19-.746.183-.297.007-.592-.106-.853-.25-1.088-.543-4.648-2.597-4.648-6.12v-2.484c0-1.511.964-2.847 2.398-3.322l1.894-.628c.778-.26 1.637-.259 2.417 0l1.892.627c1.434.474 2.398 1.81 2.398 3.322zm-3 0c0-.216-.137-.406-.341-.475l-1.896-.628c-.173-.058-.353-.058-.524 0l-1.896.629c-.205.068-.343.259-.343.475v2.484c0 1.522 1.689 2.699 2.565 3.207.896-.445 2.435-1.464 2.435-3.207v-2.484z"/></svg>