<svg id="Layer_1" viewBox="0 0 24 24" xmlns="http://www.w3.org/2000/svg" data-name="Layer 1"><path d="m18.766 16.77v4.931c0 1.348-1.164 2.427-2.539 2.288-1.197-.122-2.06-1.22-2.06-2.422v-4.796c0-.442.358-.8.8-.8s.8.358.8.8v4.931c0 .386.314.7.7.7s.7-.314.7-.7v-4.931c0-.442.358-.8.8-.8s.8.358.8.8zm-6.569-.8c-.442 0-.8.358-.8.8v4.931c0 .386-.314.7-.7.7s-.7-.314-.7-.7v.1c0-.442-.358-.8-.8-.8-.416 0-.747.322-.785.728.074 1.137.904 2.143 2.046 2.26 1.376.14 2.539-.94 2.539-2.288v-4.931c0-.442-.358-.8-.8-.8zm11.003 6.43h-1.6v-5.6c0-.442-.358-.8-.8-.8-.442 0-.8.358-.8.8v6.4c0 .442.358.8.8.8h2.4c.442 0 .8-.358.8-.8 0-.442-.358-.8-.8-.8zm-4.7-20.4h-.5v-.5c0-.829-.672-1.5-1.5-1.5s-1.5.671-1.5 1.5v.5h-6v-.5c0-.829-.671-1.5-1.5-1.5s-1.5.671-1.5 1.5v.5h-.5c-3.033 0-5.5 2.467-5.5 5.5v11c0 3.032 2.467 5.5 5.5 5.5.829 0 1.5-.672 1.5-1.5s-.671-1.5-1.5-1.5c-1.378 0-2.5-1.121-2.5-2.5v-9.5h18v3.5c0 .828.672 1.5 1.5 1.5s1.5-.672 1.5-1.5v-5c0-3.033-2.468-5.5-5.5-5.5z"/></svg>