<svg id="Layer_1" viewBox="0 0 24 24" xmlns="http://www.w3.org/2000/svg" data-name="Layer 1"><path d="m18 13c0-1.65-1.35-3-3-3h-1.5v-.5c0-.828-.671-1.5-1.5-1.5s-1.5.672-1.5 1.5v.5h-1.5c-1.65 0-3 1.35-3 3 0 0-1 0-1 1v1c0 1 1 1 1 1 0 1.657 1.343 3 3 3h6c1.657 0 3-1.343 3-3 0 0 1 0 1-1v-1c0-1-1-1-1-1zm-8.5 3c-.828 0-1.5-.672-1.5-1.5s.672-1.5 1.5-1.5 1.5.672 1.5 1.5-.672 1.5-1.5 1.5zm5 0c-.828 0-1.5-.672-1.5-1.5s.672-1.5 1.5-1.5 1.5.672 1.5 1.5-.672 1.5-1.5 1.5zm7.076-10.673-6.499-4.386c-1.869-1.262-4.285-1.261-6.153 0l-6.501 4.386c-1.517 1.025-2.423 2.729-2.423 4.559v8.614c0 3.032 2.467 5.5 5.5 5.5h13c3.033 0 5.5-2.468 5.5-5.5v-8.614c0-1.83-.906-3.534-2.424-4.559zm-.576 13.173c0 1.379-1.122 2.5-2.5 2.5h-13c-1.378 0-2.5-1.121-2.5-2.5v-8.614c0-.832.412-1.606 1.102-2.072l6.5-4.386c.425-.287.911-.43 1.398-.43s.974.143 1.398.43l6.5 4.386c.69.466 1.102 1.24 1.102 2.072z"/></svg>