<?xml version="1.0" encoding="UTF-8"?>
<svg xmlns="http://www.w3.org/2000/svg" id="Layer_1" data-name="Layer 1" viewBox="0 0 24 24">
  <path d="M12,12c3.314,0,6-2.686,6-6S15.314,0,12,0,6,2.686,6,6s2.686,6,6,6Zm-1-9c0-.552,.448-1,1-1h0c.552,0,1,.448,1,1v2.172c0,.265,.105,.52,.293,.707l1.207,1.207c.391,.39,.391,1.024,0,1.414s-1.024,.39-1.414,0l-1.793-1.793c-.188-.188-.293-.442-.293-.707V3Zm8.5,11H4.5c-2.481,0-4.5,2.019-4.5,4.5s2.019,4.5,4.5,4.5h15c2.481,0,4.5-2.019,4.5-4.5s-2.019-4.5-4.5-4.5ZM3,18.5c0-.827,.673-1.5,1.5-1.5H13v3H4.5c-.827,0-1.5-.673-1.5-1.5Zm16.5,1.5h-3.5v-3h3.5c.827,0,1.5,.673,1.5,1.5s-.673,1.5-1.5,1.5Z"/>
</svg>
