<svg id="Layer_1" viewBox="0 0 24 24" xmlns="http://www.w3.org/2000/svg" data-name="Layer 1"><path d="m13.948 10.471-2.498-1.247-2.157-2.15c.942-.954.94-2.497-.01-3.448l-2.455-2.455c-1.511-1.512-4.147-1.511-5.657 0-1.551 1.489-1.551 4.169.001 5.657l2.455 2.455s0 0 0 0c.984.988 2.609.941 3.546-.087l1.843 1.837 1.455 2.914c.365.629 1.227.742 1.741.227l1.963-1.963c.514-.514.402-1.376-.227-1.741zm-10.655-5.764c-.388-.372-.388-1.042 0-1.414.372-.388 1.042-.388 1.414 0l2.064 2.064-1.414 1.414zm3.707 9.793v8c0 .829-.671 1.5-1.5 1.5s-1.5-.671-1.5-1.5v-8c0-.829.671-1.5 1.5-1.5s1.5.671 1.5 1.5zm17-1v9c0 .829-.671 1.5-1.5 1.5s-1.5-.671-1.5-1.5v-9c0-1.296-.36-2.527-1-3.595v2.095c0 3.063-2.293 5.627-5.335 5.963-.809.094-1.568-.499-1.656-1.326-.091-.823.502-1.565 1.326-1.656 1.52-.168 2.665-1.45 2.665-2.982v-6.5c0-1.378-1.122-2.5-2.5-2.5h-1c-.431 0-.837.104-1.209.311-.723.404-1.638.142-2.04-.583-.402-.724-.142-1.637.583-2.04.811-.451 1.733-.689 2.666-.689h1c3.033 0 5.5 2.467 5.5 5.5v.02c2.512 1.885 4 4.8 4 7.98z"/></svg>