<?xml version="1.0" encoding="UTF-8"?>
<svg xmlns="http://www.w3.org/2000/svg" id="Layer_1" data-name="Layer 1" viewBox="0 0 24 24">
  <path d="M18.5,0H5.5C2.467,0,0,2.467,0,5.5v6c0,3.032,2.467,5.5,5.5,5.5h13c3.033,0,5.5-2.468,5.5-5.5V5.5c0-3.033-2.467-5.5-5.5-5.5Zm2.5,11.5c0,1.378-1.122,2.5-2.5,2.5H5.5c-1.378,0-2.5-1.122-2.5-2.5V5.5c0-1.378,1.122-2.5,2.5-2.5h13c1.378,0,2.5,1.122,2.5,2.5v6Zm-10.5,10c0,1.381-1.119,2.5-2.5,2.5s-2.5-1.119-2.5-2.5,1.119-2.5,2.5-2.5,2.5,1.119,2.5,2.5Zm4.395-11.883l-3.997,2.221c-.851,.473-1.898-.143-1.898-1.117V6.279c0-.974,1.046-1.59,1.898-1.117l3.997,2.221c.876,.487,.876,1.747,0,2.233Zm9.105,11.883c0,.828-.671,1.5-1.5,1.5H13.5c-.829,0-1.5-.672-1.5-1.5s.671-1.5,1.5-1.5h9c.829,0,1.5,.672,1.5,1.5Zm-20,0c0,.828-.671,1.5-1.5,1.5H1.5c-.829,0-1.5-.672-1.5-1.5s.671-1.5,1.5-1.5h1c.829,0,1.5,.672,1.5,1.5Z"/>
</svg>
