<svg id="Layer_1" viewBox="0 0 24 24" xmlns="http://www.w3.org/2000/svg" data-name="Layer 1"><path d="m10.937 18.138c-.227.608-.437 1.429-.437 2.391 0 .941.201 1.735.422 2.326.209.556-.199 1.145-.794 1.145h-2.281c-.601 0-1.029-.595-.818-1.158.24-.639.47-1.473.47-2.313 0-.782-.2-1.569-.42-2.201-.228-.652.255-1.328.945-1.328h2.116c.591 0 1.003.585.796 1.138zm5.563 2.332c0-.94.2-1.733.421-2.324.209-.557-.198-1.147-.793-1.147h-2.092c-.693 0-1.173.68-.943 1.334.215.612.406 1.372.406 2.137 0 .782-.2 1.569-.42 2.201-.228.652.255 1.328.945 1.328h2.116c.593 0 1.003-.586.795-1.141-.227-.607-.436-1.427-.436-2.388zm-6.359-12.471h-2.116c-.69 0-1.173.676-.945 1.328.221.632.42 1.42.42 2.202 0 .765-.191 1.524-.406 2.136-.23.654.25 1.334.943 1.334h2.092c.595 0 1.002-.59.793-1.147-.221-.59-.421-1.384-.421-2.323 0-.961.209-1.781.436-2.388.208-.555-.202-1.141-.795-1.141zm-2.641-4.97c0 .579-.149 1.153-.332 1.641-.242.646.256 1.33.946 1.33h1.945c.592 0 1.014-.593.795-1.144-.193-.484-.353-1.105-.353-1.827 0-.742.17-1.388.37-1.89.218-.548-.207-1.14-.797-1.14h-1.972c-.687 0-1.19.682-.948 1.326.19.507.348 1.108.348 1.704zm9 8.441c0-.94.2-1.733.421-2.323.209-.557-.198-1.147-.793-1.147h-2.092c-.693 0-1.173.68-.943 1.334.215.612.406 1.371.406 2.136 0 .782-.2 1.569-.42 2.202-.228.652.255 1.328.945 1.328h2.116c.593 0 1.003-.586.795-1.141-.227-.607-.436-1.428-.436-2.388zm-14.263-10.418c-.744-.251-1.436.445-1.184 1.187.29.853.793 1.907 1.649 2.763 1.745 1.743 4.298 1.998 4.298 1.998s-.277-2.572-2.022-4.316c-.852-.851-1.896-1.347-2.742-1.632zm-.2 8.255c-1.083 1.082-1.676 2.44-1.993 3.466-.225.727.452 1.407 1.181 1.185 1.018-.311 2.363-.896 3.441-1.973 2.015-2.013 2.334-4.984 2.334-4.984s-2.948.294-4.963 2.307zm19.242 8.682c-1.737-1.736-4.279-1.989-4.279-1.989s.275 2.561 2.013 4.297c.884.883 1.975 1.382 2.835 1.66.679.219 1.329-.433 1.108-1.111-.283-.866-.789-1.969-1.677-2.857zm1.496-8.946c-1.018.311-2.363.896-3.441 1.973-2.015 2.013-2.334 4.984-2.334 4.984s2.948-.294 4.963-2.307c1.083-1.082 1.676-2.44 1.993-3.465.225-.727-.452-1.407-1.181-1.185z"/></svg>