<svg id="Layer_1" viewBox="0 0 24 24" xmlns="http://www.w3.org/2000/svg" data-name="Layer 1"><path d="m10.025 6.488c.033.548.121 1.081.259 1.594-.382-.406-.889-.697-1.476-.794l-3.287-.548c-.302-.05-.521-.309-.521-.616 0-.344.28-.624.624-.624h2.623c.383 0 .711.18.877.482.186.338.54.514.901.506zm.975 3.388c0 1.447-1.177 2.624-2.624 2.624h-.376c0 .552-.448 1-1 1s-1-.448-1-1h-.278c-1.048 0-2.038-.571-2.582-1.49-.282-.476-.125-1.089.351-1.37.477-.282 1.089-.124 1.37.351.186.314.516.51.861.51h2.654c.344 0 .624-.28.624-.624 0-.307-.219-.565-.521-.616l-3.287-.548c-1.27-.211-2.192-1.3-2.192-2.588 0-1.447 1.177-2.624 2.624-2.624h.376c0-.552.448-1 1-1s1 .448 1 1h.247c.74 0 1.422.278 1.956.731.16-.71.411-1.385.746-2.009-1.124-.77-2.483-1.222-3.949-1.222-3.866-.001-7 3.133-7 6.999s3.134 7 7 7c2.373 0 4.466-1.184 5.732-2.99-.693-.608-1.283-1.329-1.733-2.142v.007zm13-3.876c0 3.314-2.686 6-6 6s-6-2.686-6-6 2.686-6 6-6 6 2.686 6 6zm-8.25-1.5c.69 0 1.25-.56 1.25-1.25s-.56-1.25-1.25-1.25-1.25.56-1.25 1.25.56 1.25 1.25 1.25zm5.109-1.247c.25-.364.158-.862-.206-1.112-.363-.25-.861-.158-1.112.206l-4.4 6.4c-.25.364-.158.862.206 1.112.36.249.86.161 1.112-.206zm.641 5.497c0-.69-.56-1.25-1.25-1.25s-1.25.56-1.25 1.25.56 1.25 1.25 1.25 1.25-.56 1.25-1.25zm-.337 10.25h-1.663v-3.5c0-.829-.671-1.5-1.5-1.5s-1.5.671-1.5 1.5v3.5h-1.663c-.891 0-1.337 1.077-.707 1.707l3.163 3c.391.391 1.024.391 1.414 0l3.163-3c.63-.63.184-1.707-.707-1.707zm-11 0h-1.663v-.5c0-.829-.671-1.5-1.5-1.5s-1.5.671-1.5 1.5v.5h-1.663c-.891 0-1.337 1.077-.707 1.707l3.163 3c.391.391 1.024.391 1.414 0l3.163-3c.63-.63.184-1.707-.707-1.707z"/></svg>