<svg id="Layer_1" viewBox="0 0 24 24" xmlns="http://www.w3.org/2000/svg" data-name="Layer 1"><path d="m17.805 16.77v4.931c0 1.348-1.164 2.427-2.539 2.288-1.197-.122-2.06-1.22-2.06-2.422v-4.796c0-.442.358-.8.8-.8s.8.358.8.8v4.931c0 .386.314.7.7.7s.7-.314.7-.7v-4.931c0-.442.358-.8.8-.8s.8.358.8.8zm-6.528.857 1.142 5.435c.107.5-.296.964-.804.937-.368 0-.685-.257-.761-.617l-.165-.782h-2.379l-.175.79c-.079.356-.394.61-.759.61-.494 0-.863-.456-.76-.939l1.165-5.479c.168-.864.87-1.583 1.742-1.581.894.006 1.563.69 1.753 1.627zm-.924 3.373-.641-3.044c-.047-.231-.144-.334-.168-.349l-.017-.006c-.071.042-.146.146-.176.296l-.686 3.104h1.688zm12.849-1.5h-.901c-.441 0-.799.358-.799.799 0 .443.358.801.799.801h.101v.368c0 .479-.361.898-.838.93-.524.035-.962-.381-.962-.898v-2.968c0-.479.361-.898.838-.93.375-.025.705.181.863.489.132.258.409.409.699.409.606 0 .99-.647.703-1.182-.414-.772-1.222-1.3-2.155-1.318-1.401-.027-2.548 1.154-2.548 2.556v2.887c0 1.402 1.147 2.582 2.548 2.556 1.358-.026 2.452-1.135 2.452-2.5v-1.201c0-.441-.358-.799-.799-.799zm-4.702-17.5h-.5v-.5c0-.829-.672-1.5-1.5-1.5s-1.5.671-1.5 1.5v.5h-6v-.5c0-.829-.672-1.5-1.5-1.5s-1.5.671-1.5 1.5v.5h-.5c-3.032 0-5.5 2.467-5.5 5.5v11c0 1.957 1.054 3.782 2.749 4.764.705.41 1.632.176 2.05-.548.414-.717.169-1.635-.548-2.05-.771-.446-1.251-1.276-1.251-2.166v-9.5h18v3.5c0 .828.672 1.5 1.5 1.5s1.5-.672 1.5-1.5v-5c0-3.033-2.468-5.5-5.5-5.5z"/></svg>