<svg id="Layer_1" viewBox="0 0 24 24" xmlns="http://www.w3.org/2000/svg" data-name="Layer 1"><path d="m20.536 19.662-.671-.489.701-1.022c.258-.376.264-.87.016-1.253l-.248-.383c-.208-.321-.565-.515-.948-.515h-.886l-1.37-3.692c-.092-.249-.269-.457-.499-.59l-.14-.081c-.219-.126-.389-.321-.485-.555l-.123-.3c-.085-.208-.231-.387-.417-.513-.215-.145-.375-.359-.451-.607l-.267-.863c-.147-.476-.588-.801-1.086-.801h-.756c-.428 0-.6-.553-.247-.796.204-.14.251-.422.102-.621l-.01-.014c-.149-.2-.101-.483.105-.623l1.713-1.156c.27-.182.432-.486.432-.812 0-.541-.438-.979-.979-.979h-3.687c-.184 0-.333-.149-.333-.333 0-.105.049-.204.133-.267l1.6-1.2c.168-.126.267-.324.267-.533 0-.368-.298-.667-.667-.667-.473 0-.94.105-1.367.307l-.861.407c-.392.185-.711.497-.905.885l-.201.401-.587.308c-.366.192-.672.479-.888.831-.308.505-.231 1.156.188 1.574l.287.287-.293.293c-.453.453-.707 1.067-.707 1.707 0 .552.448 1 1 1v1l.928 1.237c.36.48.926.763 1.526.763h.462c.599 0 1.085.486 1.085 1.085v.415l.871 1.307c.084.126.129.274.129.426 0 .424-.344.768-.768.768h-1.5c-.405 0-.733.328-.733.733-.006.144.009.293.077.422l.423.845-1.174.782c-.204.136-.326.365-.326.61 0 .352.251.655.597.72l.188.035c.597.112 1.132.441 1.502.923l.165.216c.222.29.015.708-.349.708h-.18s-.007-.001-.01-.001c-.551 0-1.057.309-1.308.8l-.106.207h-.882c-.341 0-.618.277-.618.618 0 .234.132.448.342.553l1.135.568c.344.172.723.261 1.107.261h.492c.592 0 1.159-.235 1.577-.653l.347-.347h.882c.685 0 1.312-.387 1.618-1h4l1.592-.318c.528-.106.908-.569.908-1.107 0-.361-.172-.7-.464-.913zm-3.666-.662h-2.37c-.424 0-.835.089-1.209.255-.115-.279-.268-.546-.458-.794-.144-.188-.306-.402-.466-.575.007-.022.013-.044.02-.066 1.281-.413 2.265-1.495 2.538-2.833l.763 2.057c.239.643.683 1.168 1.241 1.512-.031.147-.05.296-.059.445zm-10.216-7.693c.198.396.07.877-.298 1.123l-.432.288c-.262.175-.598.196-.879.055l-.219-.11c-.208-.104-.449-.121-.67-.048-.568.189-1.155-.234-1.155-.833-.015-.319.141-.626.414-.795l1.373-.855c.193-.131.444-.141.671-.133.332 0 .636.188.785.485l.411.822zm-3.358-7.363c-.172-.258-.138-.602.081-.822l.432-.432c.122-.122.191-.288.191-.461v-.96c0-.173.069-.338.191-.461l.618-.618c.122-.122.288-.191.461-.191h1.079c.36 0 .651.292.651.651v.079c0 .173-.069.338-.191.461l-1.618 1.618c-.122.122-.191.288-.191.461v1.079c0 .36-.292.651-.651.651-.218 0-.421-.109-.542-.29l-.51-.766z"/></svg>