<svg id="Layer_1" viewBox="0 0 24 24" xmlns="http://www.w3.org/2000/svg" data-name="Layer 1"><path d="m9.675 14h1.825c.829 0 1.5-.672 1.5-1.5s-.671-1.5-1.5-1.5h-1.954c.249-2.84 1.496-5.344 2.454-6.892.922 1.489 2.112 3.857 2.423 6.564.091.826.853 1.416 1.661 1.319.823-.095 1.414-.838 1.319-1.662-.305-2.655-1.28-4.992-2.222-6.721 2.427.923 4.408 2.852 5.307 5.393.275.788 1.154 1.19 1.914.914.781-.276 1.19-1.133.914-1.914-1.691-4.786-6.239-8.001-11.316-8.001-6.717-.013-12.219 5.607-11.983 12.333.156 6.407 5.476 11.683 11.983 11.667.585 0 1.116-.34 1.361-.871.246-.53.16-1.155-.219-1.601-.031-.037-2.749-3.281-3.467-7.528zm-6.448 0h3.422c.346 2.531 1.276 4.766 2.182 6.424-2.796-1.055-4.93-3.465-5.604-6.424zm3.316-3h-3.481c.379-3.41 2.665-6.253 5.77-7.424-1.024 1.875-2.083 4.48-2.288 7.424zm16.456 7.408v2.511c0 .597-.484 1.081-1.082 1.081-.477 0-.886-.317-1.031-.772-.219-.686-.782-1.228-1.887-1.228h-.998l.884 2.135c.386.879-.258 1.865-1.218 1.865-.529 0-1.008-.314-1.219-.798l-1.828-4.392c-.385-.504-.622-1.127-.622-1.81 0-1.657 1.343-3 3-3h2c1.105 0 1.667-.543 1.887-1.228.146-.455.554-.772 1.031-.772.597 0 1.082.484 1.082 1.082v2.51c.581.207 1 .757 1 1.408s-.419 1.201-1 1.408z"/></svg>