<svg id="Layer_1" viewBox="0 0 24 24" xmlns="http://www.w3.org/2000/svg" data-name="Layer 1"><path d="m3.5 15c-2.485 0-3.5.731-3.5 1.231v6.538c0 .5 1.015 1.231 3.5 1.231s3.5-.731 3.5-1.231v-6.538c0-.5-1.015-1.231-3.5-1.231zm1.5 5.91c-.461.053-.951.09-1.5.09-.553 0-1.041-.033-1.5-.081v-2.005c.421.053.918.086 1.5.086s1.077-.037 1.5-.095zm15.5-5.91c-2.485 0-3.5.731-3.5 1.231v6.538c0 .5 1.015 1.231 3.5 1.231s3.5-.731 3.5-1.231v-6.538c0-.5-1.015-1.231-3.5-1.231zm1.5 5.91c-.461.053-.951.09-1.5.09-.553 0-1.041-.033-1.5-.081v-2.005c.421.053.918.086 1.5.086s1.077-.037 1.5-.095zm-10-5.91c-2.485 0-3.5.731-3.5 1.231v6.538c0 .5 1.015 1.231 3.5 1.231s3.5-.731 3.5-1.231v-6.538c0-.5-1.015-1.231-3.5-1.231zm1.5 5.91c-.461.053-.951.09-1.5.09-.553 0-1.041-.033-1.5-.081v-2.005c.421.053.918.086 1.5.086s1.077-.037 1.5-.095zm6.5-12.66c0-2.031-1.33-3.855-3.316-4.511-.808-2.242-2.874-3.739-5.184-3.739-2.968 0-5.395 2.363-5.499 5.383-1.236.676-2.001 2.018-2.001 3.517 0 2.261 1.839 4.1 4.1 4.1h7.15c2.619 0 4.75-2.131 4.75-4.75zm-13 .65c0-.391.181-.749.449-.889 1.551-.813 1.551-2.091 1.551-2.511 0-1.378 1.122-2.5 2.5-2.5 1.062 0 2.021.732 2.384 1.821.301.9.926 1.494 1.863 1.767.75.22 1.253.887 1.253 1.662 0 .965-.785 1.75-1.75 1.75h-7.15c-.606 0-1.1-.494-1.1-1.1z"/></svg>