<svg id="Layer_1" viewBox="0 0 24 24" xmlns="http://www.w3.org/2000/svg" data-name="Layer 1"><path d="m24 5.5v8c0 3.032-2.467 5.5-5.5 5.5h-5v2h3c.829 0 1.5.672 1.5 1.5s-.671 1.5-1.5 1.5h-9c-.829 0-1.5-.672-1.5-1.5s.671-1.5 1.5-1.5h3v-2h-5c-3.033 0-5.5-2.468-5.5-5.5v-8c0-1.342.489-2.634 1.375-3.639.549-.62 1.496-.679 2.117-.131s.68 1.496.132 2.117c-.403.456-.625 1.043-.625 1.652v8.001c0 1.379 1.122 2.5 2.5 2.5h13c1.378 0 2.5-1.121 2.5-2.5v-8c0-.609-.222-1.196-.625-1.652-.548-.621-.489-1.569.132-2.117.62-.549 1.568-.49 2.117.131.887 1.005 1.375 2.297 1.375 3.639zm-18 3.5v-6c0-1.657 1.343-3 3-3h6c1.657 0 3 1.343 3 3v6c0 1.657-1.343 3-3 3h-6c-1.657 0-3-1.343-3-3zm2-2.955c0 .849 1.026 1.274 1.627.674l.839-.839 1.654 1.654-.839.839c-.6.6-.175 1.627.674 1.627h3.069c.539 0 .976-.437.976-.976v-3.069c0-.849-1.026-1.274-1.627-.674l-.839.839-1.654-1.654.839-.839c.6-.6.175-1.627-.674-1.627h-3.069c-.539 0-.976.437-.976.976z"/></svg>