<svg id="Layer_1" viewBox="0 0 24 24" xmlns="http://www.w3.org/2000/svg" data-name="Layer 1"><path d="m12.5 7c-.828 0-1.5-.672-1.5-1.5s.672-1.5 1.5-1.5 1.5.672 1.5 1.5-.672 1.5-1.5 1.5zm-2.5 2.5c0 .828.672 1.5 1.5 1.5s1.5-.672 1.5-1.5-.672-1.5-1.5-1.5-1.5.672-1.5 1.5zm5.5.5c.828 0 1.5-.672 1.5-1.5s-.672-1.5-1.5-1.5-1.5.672-1.5 1.5.672 1.5 1.5 1.5zm7 11h-1.456c.199-2.558 1.172-4.799 2.877-7.172.361-.502-.271-1.119-.772-.758-1.885 1.356-4.146 3.913-4.679 6.844-.067.366-.107.727-.147 1.086h-2.186c.24-2.213 1.091-3.891 2.14-5.683.283-.483-.311-1.034-.778-.726-1.976 1.304-3.981 3.888-4.229 6.409h-2.225c.339-2.341 1.522-4.338 2.881-6.185.331-.451-.276-.974-.778-.726-1.312.649-2.653 1.793-3.63 3.271-.978-1.491-2.328-2.644-3.647-3.296-.501-.248-1.109.275-.778.726 1.364 1.854 2.551 3.858 2.885 6.21h-2.283c-.04-.359-.08-.72-.147-1.086-.533-2.931-2.793-5.488-4.679-6.844-.502-.361-1.133.256-.772.758 1.706 2.373 2.678 4.614 2.877 7.172h-1.474c-.829 0-1.5.672-1.5 1.5s.671 1.5 1.5 1.5h21c.829 0 1.5-.672 1.5-1.5s-.671-1.5-1.5-1.5zm-16.314-8.609c.472.168.923.376 1.356.612-.955-1.063-1.542-2.464-1.542-4.002 0-3.309 2.691-6 6-6s6 2.691 6 6c0 1.542-.59 2.946-1.55 4.01.429-.233.874-.439 1.339-.605l2.881-1.027c.208-.759.329-1.554.329-2.378.001-4.964-4.037-9.001-8.999-9.001s-9 4.037-9 9c0 .824.121 1.619.329 2.378z"/></svg>