<svg id="Layer_1" viewBox="0 0 24 24" xmlns="http://www.w3.org/2000/svg" data-name="Layer 1"><path d="m5 11.816c0 .654.53 1.184 1.184 1.184.261 0 .52-.079.723-.242 1.238-.993 2.065-2.402 2.065-4.108 2.002-2.214 3.205-4.811 3.949-6.874.105-.291.105-.609 0-.899-.248-.689-1.008-1.046-1.697-.798-2.05.739-4.609 1.896-6.841 3.921-1.737 0-3.149.852-4.142 2.094-.162.203-.241.462-.241.722h0c0 .655.53 1.185 1.184 1.185h.816l.488.488-.57.57c-.559.559-.558 1.464 0 2.023s1.464.559 2.023 0l.57-.569.488.488v.816zm0-5.316c0-.828.672-1.5 1.5-1.5s1.5.672 1.5 1.5-.672 1.5-1.5 1.5-1.5-.671-1.5-1.5zm19 16c0 .828-.672 1.5-1.5 1.5h-14.148c-1.3 0-2.457-.728-3.021-1.899s-.408-2.53.404-3.546l9.265-11.581v-5.474c0-.829.672-1.5 1.5-1.5.913-.031 1.561.205 2.332.7l1.791 1.12c.502.314.502 1.046 0 1.36l-2.623 1.82v1.974l5.671 7.088c.518.647.413 1.591-.233 2.108-.648.521-1.592.413-2.108-.233l-.729-.911-.911 1.433c-.414.685-1.392.727-1.863.08l-.825-1.136-1.604 2.097c-.442.619-1.359.626-1.811.014l-1.459-2.147-4.05 5.062c-.092.114-.105.239-.042.371s.17.199.316.199h14.148c.828 0 1.5.672 1.5 1.5z"/></svg>