<svg id="Layer_1" viewBox="0 0 24 24" xmlns="http://www.w3.org/2000/svg" data-name="Layer 1"><path d="m24 16.8c0 .442-.358.8-.8.8h-.95v5.601c0 .442-.358.8-.8.8s-.8-.358-.8-.8v-5.601h-.851c-.442 0-.8-.358-.8-.8s.358-.8.8-.8h3.4c.442 0 .8.358.8.8zm-11.734 1.5v3.4c0 1.269-1.031 2.3-2.3 2.3s-2.3-1.031-2.3-2.3v-3.4c0-1.269 1.031-2.3 2.3-2.3s2.3 1.031 2.3 2.3zm-1.6 0c0-.386-.314-.7-.7-.7s-.7.314-.7.7v3.4c0 .386.314.7.7.7s.7-.314.7-.7zm5.272-.698c.375-.025.705.181.863.489.132.258.409.409.699.409.606 0 .99-.647.703-1.182-.415-.772-1.222-1.3-2.155-1.318-1.401-.027-2.548 1.154-2.548 2.556v2.887c0 1.402 1.147 2.582 2.548 2.556.933-.018 1.741-.547 2.155-1.318.287-.534-.097-1.182-.703-1.182-.29 0-.567.151-.699.409-.158.308-.488.514-.863.489-.478-.032-.838-.451-.838-.93v-2.936c0-.479.361-.898.838-.93zm2.562-15.602h-.5v-.5c0-.828-.671-1.5-1.5-1.5s-1.5.672-1.5 1.5v.5h-6v-.5c0-.828-.671-1.5-1.5-1.5s-1.5.672-1.5 1.5v.5h-.5c-3.033 0-5.5 2.468-5.5 5.5v11.126c0 2.511 1.697 4.701 4.126 5.326.781.208 1.623-.27 1.827-1.078.207-.802-.276-1.62-1.079-1.826-1.104-.284-1.874-1.28-1.874-2.422v-9.626h18v3.5c0 .828.671 1.5 1.5 1.5s1.5-.672 1.5-1.5v-5c0-3.032-2.467-5.5-5.5-5.5z"/></svg>