<?xml version="1.0" encoding="UTF-8"?>
<svg xmlns="http://www.w3.org/2000/svg" id="Layer_1" data-name="Layer 1" viewBox="0 0 24 24">
  <path d="M22.802,2.031c-.696-.145-1.399,.223-1.681,.878-.825,1.926-2.539,3.919-3.678,4.926-.869-.801-2.309-1.834-3.943-1.834h-3c-1.635,0-3.075,1.034-3.944,1.834-1.137-1.004-2.852-2.999-3.677-4.925-.281-.654-.983-1.023-1.681-.878-.697,.143-1.198,.757-1.198,1.469v5.334c0,4.749,3.815,9.609,9.957,12.684,.64,.32,1.341,.48,2.043,.48s1.403-.16,2.043-.48c6.142-3.074,9.957-7.935,9.957-12.684V3.5c0-.712-.501-1.326-1.198-1.469Zm-1.802,6.804c0,3.551-3.258,7.477-8.301,10.001-.438,.22-.96,.22-1.399,0C6.258,16.312,3,12.386,3,8.834v-.346c.742,.846,1.461,1.527,2,1.956,1.019,.809,2.458,.735,3.352-.173,.76-.772,1.604-1.271,2.148-1.271h3c.544,0,1.388,.499,2.149,1.271,.895,.907,2.335,.981,3.35,.173,.539-.428,1.259-1.11,2.001-1.957v.347Zm-6.159,3.002c.385,.54,.028,1.314-.623,1.446-.713,.144-1.722,.218-2.218,.218-.475,0-1.532-.073-2.229-.208-.726-.141-1.02-1.04-.525-1.59,.382-.424,.924-.702,1.468-.702h2.497c.688,0,1.274,.337,1.631,.837Z"/>
</svg>
