<svg id="Layer_1" viewBox="0 0 24 24" xmlns="http://www.w3.org/2000/svg" data-name="Layer 1"><path d="m21 10.5v6c0 1.704-.779 3.23-2 4.239v1.761c0 .829-.672 1.5-1.5 1.5s-1.5-.671-1.5-1.5v-.525c-.165.015-.331.025-.5.025h-7c-.169 0-.335-.01-.5-.025v.525c0 .829-.672 1.5-1.5 1.5s-1.5-.671-1.5-1.5v-1.761c-1.221-1.01-2-2.535-2-4.239v-9c0-1.704.779-3.23 2-4.239v-1.761c0-.829.672-1.5 1.5-1.5s1.5.671 1.5 1.5v.525c.165-.015.331-.025.5-.025h5c.828 0 1.5.671 1.5 1.5s-.672 1.5-1.5 1.5h-5c-1.379 0-2.5 1.122-2.5 2.5v9c0 1.378 1.121 2.5 2.5 2.5h7c1.379 0 2.5-1.122 2.5-2.5v-6c0-.829.672-1.5 1.5-1.5s1.5.671 1.5 1.5zm-.5-10.5c-1.93 0-3.5 1.57-3.5 3.5s1.57 3.5 3.5 3.5 3.5-1.57 3.5-3.5-1.57-3.5-3.5-3.5zm-8.5 13c-.768 0-1.536-.292-2.121-.877l-1.879-1.879v3.256c0 .828.672 1.5 1.5 1.5h5c.828 0 1.5-.672 1.5-1.5v-3.256l-1.879 1.879c-.585.585-1.353.877-2.121.877zm-2.5-5c-.264 0-.508.074-.723.193l2.516 2.516c.378.377 1.036.377 1.414 0l2.516-2.516c-.215-.119-.459-.193-.723-.193z"/></svg>