<svg id="Layer_1" viewBox="0 0 24 24" xmlns="http://www.w3.org/2000/svg" data-name="Layer 1"><circle cx="11.5" cy="2.5" r="2.5"/><circle cx="22" cy="2" r="2"/><path d="m22.343 5.008-9.421.992h-3.067l-3.854-1.927v-2.573c0-.829-.671-1.5-1.5-1.5s-1.5.671-1.5 1.5v2.882c0 .953.529 1.81 1.382 2.236l3.618 1.809v5.592l-1.843 2.581c-.061.086-.147.149-.249.183l-3.883 1.294c-.786.262-1.21 1.111-.948 1.897.26.793 1.132 1.21 1.897.948l3.882-1.294c.708-.235 1.31-.681 1.742-1.286l2.401-3.289v2.882l-3.129 3.576c-.545.624-.482 1.571.141 2.117.621.544 1.569.484 2.117-.141l3.251-3.716c.399-.456.62-1.041.62-1.647v-9.221l8.657-.911c.824-.086 1.421-.825 1.334-1.649-.086-.824-.818-1.423-1.649-1.334z"/></svg>