<svg id="Layer_1" viewBox="0 0 24 24" xmlns="http://www.w3.org/2000/svg" data-name="Layer 1"><path d="m20.975 8.854-1.975-1.975v-1.379c0-3.032-2.468-5.5-5.5-5.5h-6c-3.032 0-5.5 2.468-5.5 5.5v13c0 3.032 2.468 5.5 5.5 5.5h9c3.032 0 5.5-2.468 5.5-5.5v-7.172c0-.935-.364-1.813-1.025-2.475zm-4.475 12.146h-9c-1.379 0-2.5-1.121-2.5-2.5v-13c0-1.379 1.121-2.5 2.5-2.5h6c1.379 0 2.5 1.121 2.5 2.5v2c0 .397.158.779.439 1.061l2.414 2.414c.093.094.146.222.146.354v2.672h-2c-.552 0-1 .448-1 1v.586c0 .265.105.52.293.707l2.661 2.661c-.215 1.162-1.231 2.046-2.454 2.046zm-6.5-14.5v1c0 .828-.672 1.5-1.5 1.5s-1.5-.672-1.5-1.5v-1c0-.828.672-1.5 1.5-1.5s1.5.672 1.5 1.5zm4 0v1c0 .828-.672 1.5-1.5 1.5s-1.5-.672-1.5-1.5v-1c0-.828.672-1.5 1.5-1.5s1.5.672 1.5 1.5z"/></svg>