<svg id="Layer_1" viewBox="0 0 24 24" xmlns="http://www.w3.org/2000/svg" data-name="Layer 1"><path d="m22 3h-2.379l-.561-.561c-.586-.586-1.535-.586-2.121 0l-.939.939-.939-.939c-.586-.586-1.535-.586-2.121 0l-.939.939-.939-.939c-.586-.586-1.535-.586-2.121 0l-.939.939-.939-.939c-.586-.586-1.535-.586-2.121 0l-.561.561h-2.381c-1.105 0-2 .895-2 2v2h2c.552 0 1 .448 1 1s-.448 1-1 1h-2v2h2c.552 0 1 .448 1 1s-.448 1-1 1h-2v2h2c.552 0 1 .448 1 1s-.448 1-1 1h-2v2c0 1.105.895 2 2 2h2.379l.561.561c.586.586 1.535.586 2.121 0l.939-.939.939.939c.586.586 1.535.586 2.121 0l.939-.939.939.939c.586.586 1.535.586 2.121 0l.939-.939.939.939c.293.293.677.439 1.061.439s.768-.146 1.061-.439l.561-.561h2.379c1.105 0 2-.895 2-2v-14c0-1.105-.895-2-2-2zm-5 14.399v-10.798c.019-.017 1.003-.983 1.003-.983.499.496.987.981.997.99v10.771l-1 1s-.981-.963-1-.98zm-11 .98-1-1v-10.758l1-1s.981.963 1 .98v10.798c-.019.017-1 .98-1 .98zm4 0s-.981-.963-1-.98v-10.798c.019-.017 1-.98 1-.98s.981.963 1 .98v10.798c-.019.017-1 .98-1 .98zm4 0s-.981-.963-1-.98v-10.798c.019-.017 1-.98 1-.98s.981.963 1 .98v10.798c-.019.017-1 .98-1 .98zm7.5-.379c-.828 0-1.5-.672-1.5-1.5s.672-1.5 1.5-1.5 1.5.672 1.5 1.5-.672 1.5-1.5 1.5zm0-4.5c-.828 0-1.5-.672-1.5-1.5s.672-1.5 1.5-1.5 1.5.672 1.5 1.5-.672 1.5-1.5 1.5zm0-4.5c-.828 0-1.5-.672-1.5-1.5s.672-1.5 1.5-1.5 1.5.672 1.5 1.5-.672 1.5-1.5 1.5z"/></svg>