<svg id="Layer_1" viewBox="0 0 24 24" xmlns="http://www.w3.org/2000/svg" data-name="Layer 1"><path d="m24 1.5c0 .828-.671 1.5-1.5 1.5h-2.724c-1.17 0-2.289.363-3.235 1.052l-2.045 1.488c-.022 1.362-1.129 2.461-2.496 2.461s-2.474-1.099-2.496-2.461l-2.045-1.488c-.946-.688-2.065-1.052-3.235-1.052h-2.724c-.829 0-1.5-.672-1.5-1.5s.671-1.5 1.5-1.5h2.724c1.809 0 3.537.562 5 1.626l2.053 1.493c.231-.07.47-.119.724-.119s.493.049.724.119l2.053-1.493c1.462-1.063 3.191-1.626 5-1.626h2.724c.829 0 1.5.672 1.5 1.5zm-4.5 15.5h-1.396l.969-5.813c.377-2.258-.691-4.495-2.58-5.614-.018 1.105-.442 2.103-1.119 2.877.583.547.882 1.39.74 2.244l-1.036 6.218c-.15.902-.766 1.619-1.578 1.926v-4.337c0-.828-.671-1.5-1.5-1.5s-1.5.672-1.5 1.5v4.337c-.812-.307-1.427-1.024-1.578-1.926l-1.036-6.219c-.142-.853.157-1.696.74-2.243-.677-.774-1.101-1.772-1.119-2.877-1.889 1.119-2.957 3.356-2.58 5.614l.969 5.814h-1.396c-.829 0-1.5.672-1.5 1.5s.671 1.5 1.5 1.5h2.643c.833 1.013 2.018 1.704 3.357 1.921v.579c0 .828.671 1.5 1.5 1.5s1.5-.672 1.5-1.5v-.579c1.339-.217 2.524-.908 3.357-1.921h2.643c.829 0 1.5-.672 1.5-1.5s-.671-1.5-1.5-1.5z"/></svg>