<svg id="Layer_1" viewBox="0 0 24 24" xmlns="http://www.w3.org/2000/svg" data-name="Layer 1"><path d="m13 1.5c0-.829.672-1.5 1.5-1.5h2c2.481 0 4.5 2.019 4.5 4.5v.5h.602c.876 0 1.31 1.064.683 1.676l-2.078 2.031c-.39.391-1.024.391-1.414 0l-2.078-2.031c-.627-.612-.193-1.676.683-1.676h.602v-.5c0-.827-.673-1.5-1.5-1.5h-2c-.828 0-1.5-.671-1.5-1.5zm9.732 11.513c-.768-.699-1.764-1.058-2.797-1.008-1.036.048-1.991.498-2.69 1.265l-2.446 2.688c-.647-.589-1.499-.958-2.441-.958h-7.858c-2.481 0-4.5 2.019-4.5 4.5v3c0 .829.671 1.5 1.5 1.5s1.5-.671 1.5-1.5v-3c0-.827.673-1.5 1.5-1.5h7.858c.354 0 .642.288.642.642 0 .317-.237.591-.551.636l-5.161.737c-.82.117-1.39.877-1.273 1.697s.879 1.388 1.697 1.273l5.161-.737c1.612-.231 2.856-1.524 3.08-3.101l3.511-3.858c.159-.175.376-.277.612-.288.23-.011.463.071.636.229.356.325.385.881.055 1.252l-4.398 5.031c-.546.624-.482 1.571.142 2.117.284.249.637.371.986.371.418 0 .834-.173 1.13-.513l4.389-5.02c1.41-1.581 1.283-4.027-.282-5.455zm-10.35-1.966 1.099.463.439 1.097c.095.237.325.393.58.393s.486-.156.58-.393l.436-1.09 1.09-.436c.237-.095.393-.325.393-.58s-.156-.486-.393-.58l-1.09-.436-.436-1.09c-.095-.237-.325-.393-.58-.393s-.486.156-.58.393l-.433 1.084-1.082.41c-.239.09-.399.317-.404.573s.147.488.382.587zm-12.382-5.047c0-3.314 2.686-6 6-6s6 2.686 6 6-2.686 6-6 6-6-2.686-6-6zm4.447.504 2.791.559c.304.062.514.359.451.677-.054.273-.308.46-.586.46h-2.334c-.203 0-.387-.087-.515-.226-.154-.167-.437-.274-.664-.274-.655 0-1.01.763-.592 1.266.422.509 1.059.833 1.77.833h.431v.4c0 .442.358.8.8.8s.8-.358.8-.8v-.4h.28c1.091 0 2.046-.785 2.199-1.865.164-1.158-.613-2.217-1.725-2.439l-2.792-.559c-.304-.061-.514-.36-.449-.678.055-.272.309-.458.587-.458h2.307c.203 0 .387.087.515.226.154.167.437.274.664.274.655 0 1.01-.763.592-1.266-.422-.509-1.059-.833-1.77-.833h-.405v-.4c0-.442-.358-.8-.8-.8s-.8.358-.8.8v.4h-.28c-1.091 0-2.046.786-2.199 1.866-.163 1.158.613 2.216 1.725 2.439z"/></svg>