<svg id="Layer_1" viewBox="0 0 24 24" xmlns="http://www.w3.org/2000/svg" data-name="Layer 1"><path d="m17 10.5c0-.829.671-1.5 1.5-1.5h1c.276 0 .5-.224.5-.5v-2.011c-.604-.456-1-1.173-1-1.989 0-1.381 1.119-2.5 2.5-2.5s2.5 1.119 2.5 2.5c0 .815-.396 1.532-1 1.989v2.011c0 1.93-1.57 3.5-3.5 3.5h-1c-.829 0-1.5-.671-1.5-1.5zm6 9.011v-2.011c0-1.93-1.57-3.5-3.5-3.5h-1c-.829 0-1.5.671-1.5 1.5s.671 1.5 1.5 1.5h1c.276 0 .5.224.5.5v2.011c-.604.456-1 1.173-1 1.989 0 1.381 1.119 2.5 2.5 2.5s2.5-1.119 2.5-2.5c0-.815-.396-1.532-1-1.989zm-8-8.011v4c0 2.481-2.019 4.5-4.5 4.5h-6c-2.481 0-4.5-2.019-4.5-4.5v-4c0-1.76 1.025-3.271 2.5-4.01v-2.49c0-2.757 2.243-5 5-5s5 2.243 5 5v2.49c1.475.739 2.5 2.25 2.5 4.01zm-9.5-6.5v2h4v-2c0-1.103-.897-2-2-2s-2 .897-2 2zm6.5 6.5c0-.827-.673-1.5-1.5-1.5h-6c-.827 0-1.5.673-1.5 1.5v4c0 .827.673 1.5 1.5 1.5h6c.827 0 1.5-.673 1.5-1.5zm-4.5.5c-.828 0-1.5.672-1.5 1.5s.672 1.5 1.5 1.5 1.5-.672 1.5-1.5-.672-1.5-1.5-1.5z"/></svg>