<svg id="Layer_1" viewBox="0 0 24 24" xmlns="http://www.w3.org/2000/svg" data-name="Layer 1"><path d="m18.5 0h-1.601c-2.27 0-4.405.884-6.01 2.489l-8.399 8.401c-1.605 1.604-2.49 3.739-2.49 6.01v1.601c0 3.032 2.467 5.5 5.5 5.5h1.601c2.27 0 4.405-.884 6.01-2.489l8.399-8.4c1.605-1.604 2.49-3.739 2.49-6.01v-1.601c0-3.032-2.467-5.5-5.5-5.5zm0 3c1.378 0 2.5 1.121 2.5 2.5v1.601c0 .401-.043.796-.126 1.179-.561-.232-1.196-.434-1.883-.571.137-1.496-1.126-2.796-2.625-2.704-.12-.663-.318-1.297-.592-1.888.367-.076.743-.115 1.126-.115h1.601zm-5.389 1.512c.464 1.104.516 2.502.137 3.888-.922.447-1.84 1.087-2.723 1.97-.75.75-1.399 1.697-1.901 2.75-1.516.488-3.024.508-4.186.072.056-.062 8.639-8.648 8.673-8.68zm-7.611 16.488c-1.378 0-2.5-1.121-2.5-2.5v-1.601c0-.344.032-.683.093-1.014.595.254 1.236.431 1.909.529-.056 1.434 1.136 2.633 2.57 2.584.079.663.234 1.309.473 1.922-.309.053-.624.08-.944.08zm5.256-1.39c-.764-2.275.207-5.472 1.891-7.119 1.918-1.876 5.071-2.44 6.793-1.553-.021-.011-8.604 8.601-8.683 8.672z"/></svg>