<svg id="Layer_1" viewBox="0 0 24 24" xmlns="http://www.w3.org/2000/svg" data-name="Layer 1"><path d="m21.416 19.295c.361-.691.584-1.463.584-2.295 0-2.757-2.243-5-5-5s-5 2.243-5 5 2.243 5 5 5c.831 0 1.604-.223 2.295-.584l2.145 2.145c.586.586 1.535.586 2.121 0s.586-1.535 0-2.121zm-4.416-.295c-1.103 0-2-.897-2-2s.897-2 2-2 2 .897 2 2-.897 2-2 2zm-7-2.5c0 .828-.672 1.5-1.5 1.5h-3c-3.032 0-5.5-2.468-5.5-5.5v-2c0-3.033 2.468-5.5 5.5-5.5h13c3.032 0 5.5 2.467 5.5 5.5 0 .829-.672 1.5-1.5 1.5s-1.5-.671-1.5-1.5c0-1.378-1.121-2.5-2.5-2.5h-13c-1.379 0-2.5 1.122-2.5 2.5v2c0 1.379 1.121 2.5 2.5 2.5h3c.828 0 1.5.672 1.5 1.5zm2.443-3.043c-.391.391-1.023.391-1.414 0s-.391-1.023 0-1.414l.543-.543-.543-.543c-.391-.391-.391-1.023 0-1.414s1.023-.391 1.414 0l.543.543.543-.543c.391-.391 1.023-.391 1.414 0s.391 1.023 0 1.414zm-3.25-2.5-.543.543.543.543c.391.391.391 1.023 0 1.414s-1.023.391-1.414 0l-.543-.543-.543.543c-.391.391-1.023.391-1.414 0s-.391-1.023 0-1.414l.543-.543-.543-.543c-.391-.391-.391-1.023 0-1.414s1.023-.391 1.414 0l.543.543.543-.543c.391-.391 1.023-.391 1.414 0s.391 1.023 0 1.414z"/></svg>