<svg id="Layer_1" viewBox="0 0 24 24" xmlns="http://www.w3.org/2000/svg" data-name="Layer 1"><path d="m15 5.879v-2.379c0-.398.158-.779.439-1.061l2-2c.428-.429 1.073-.558 1.635-.325.561.232.926.779.926 1.386v1.5h1.5c.607 0 1.154.365 1.386.926s.104 1.206-.325 1.635l-2 2c-.281.281-.663.439-1.061.439h-2.379l-4.059 4.059c-.41.422-1.09.558-1.632.327-.37-.152-.664-.447-.817-.817-.231-.542-.095-1.222.327-1.632l4.059-4.059zm-3.331 1.206c.81-.813.045-2.207-1.067-1.924-1.054.267-2.074.863-2.845 1.599-2.64 2.64-2.301 7.149 1.019 9.309 1.919 1.249 4.475 1.255 6.405.025 1.315-.856 2.309-2.229 2.665-3.661.284-1.139-1.143-1.915-1.969-1.081-.959.968-1.696 1.711-1.756 1.772-1.17 1.17-3.073 1.17-4.243 0s-1.17-3.073 0-4.243c.255-.255.957-.959 1.791-1.796zm7.651 12.102c2.252-2.016 3.679-4.934 3.679-8.187 0-.193-.005-.385-.015-.575-.042-.827-.752-1.471-1.573-1.423-.827.042-1.464.746-1.423 1.573.007.141.011.283.011.425 0 4.411-3.589 8-8 8s-7.999-3.589-7.999-8 3.589-8 8-8c.142 0 .284.004.425.011.832.046 1.532-.596 1.573-1.423.042-.828-.596-1.532-1.423-1.573-.19-.01-.382-.015-.575-.015-6.065 0-11 4.935-11 11 0 3.253 1.428 6.172 3.679 8.187l-1.479 2.563c-.414.717-.168 1.635.55 2.049.705.411 1.632.174 2.049-.55l1.373-2.381c1.46.717 3.094 1.131 4.827 1.131s3.368-.414 4.827-1.131l1.373 2.381c.416.724 1.344.96 2.049.55.718-.414.964-1.332.55-2.049l-1.479-2.563z"/></svg>