<svg id="Layer_1" viewBox="0 0 24 24" xmlns="http://www.w3.org/2000/svg" data-name="Layer 1"><path d="m14.896 22.25c.138.817-.413 1.591-1.229 1.729-.799.14-1.595-.407-1.729-1.229-.366-2.173-2.25-3.75-4.479-3.75s-4.113 1.577-4.479 3.75c-.139.816-.91 1.365-1.729 1.229-.816-.138-1.367-.912-1.229-1.729.612-3.622 3.74-6.25 7.438-6.25s6.825 2.628 7.438 6.25zm-12.896-13.75c0-3.033 2.468-5.5 5.5-5.5s5.5 2.467 5.5 5.5-2.468 5.5-5.5 5.5-5.5-2.467-5.5-5.5zm3 0c0 1.378 1.121 2.5 2.5 2.5s2.5-1.122 2.5-2.5-1.121-2.5-2.5-2.5-2.5 1.122-2.5 2.5zm17.5-5.5h-3.501v-1.563c0-.863-1.043-1.295-1.653-.685l-3.063 3.063c-.378.378-.378.991 0 1.369l3.063 3.063c.61.61 1.653.178 1.653-.685v-1.563h3.501c.828 0 1.5-.671 1.5-1.5s-.672-1.5-1.5-1.5z"/></svg>