<svg id="Layer_1" viewBox="0 0 24 24" xmlns="http://www.w3.org/2000/svg" data-name="Layer 1"><path d="m18.5 0h-13c-3.033 0-5.5 2.467-5.5 5.5v13.5c0 2.761 2.239 5 5 5h14c2.761 0 5-2.239 5-5v-13.5c0-3.033-2.467-5.5-5.5-5.5zm-14 21.5c-.828 0-1.5-.672-1.5-1.5s.672-1.5 1.5-1.5 1.5.672 1.5 1.5-.672 1.5-1.5 1.5zm5 0c-.828 0-1.5-.672-1.5-1.5s.672-1.5 1.5-1.5 1.5.672 1.5 1.5-.672 1.5-1.5 1.5zm10 0c-.828 0-1.5-.672-1.5-1.5s.672-1.5 1.5-1.5 1.5.672 1.5 1.5-.672 1.5-1.5 1.5zm-4.5-5.5v-3c0-1.105-.895-2-2-2h-2c-1.105 0-2 .895-2 2v3h-6v-10.5c0-1.378 1.122-2.5 2.5-2.5h3.5v1.5c0 .398.158.779.439 1.061l1.061 1.061v1.379c0 .829.671 1.5 1.5 1.5s1.5-.671 1.5-1.5v-1.379l1.061-1.061c.281-.281.439-.663.439-1.061v-1.5h3.5c1.378 0 2.5 1.122 2.5 2.5v10.5z"/></svg>