<svg id="Layer_1" viewBox="0 0 24 24" xmlns="http://www.w3.org/2000/svg" data-name="Layer 1"><path d="m4.366.677c.395.497.967 1.507.967 1.99 0 .736-.597 1.333-1.333 1.333s-1.333-.597-1.333-1.333c0-.482.572-1.492.967-1.99.187-.236.546-.236.733 0zm7.267 0c-.395.497-.967 1.507-.967 1.99 0-.482-.572-1.492-.967-1.99-.187-.236-.546-.236-.733 0-.395.497-.967 1.507-.967 1.99 0 .736.597 1.333 1.333 1.333s1.333-.597 1.333-1.333c0 .736.597 1.333 1.333 1.333s1.333-.597 1.333-1.333c0-.482-.572-1.492-.967-1.99-.187-.236-.546-.236-.733 0zm-5.333 0c-.395.497-.967 1.507-.967 1.99 0 .736.597 1.333 1.333 1.333s1.333-.597 1.333-1.333c0-.482-.572-1.492-.967-1.99-.187-.236-.545-.236-.733 0zm16.369 5.358c-.509-.004-.842.464-.782.948 0 5.183-4.006 9.523-9.081 9.958v-1.279c4.513-.406 8.062-4.205 8.062-8.822v-.034c0-.442-.358-.783-.8-.783s-.8.375-.8.817c0 3.734-2.834 6.816-6.463 7.216v-1.104c3.027-.394 5.375-2.984 5.375-6.117v-.029c0-.442-.358-.786-.8-.786s-.8.373-.8.814c0 2.249-1.634 4.114-3.775 4.494v-1.132c1.537-.364 2.688-1.739 2.688-3.386v-.005c0-.442-.358-.797-.8-.797s-.8.36-.8.802c0 .754-.447 1.401-1.088 1.703v-1.708c0-.442-.358-.8-.8-.8s-.8.358-.8.8v1.708c-.64-.303-1.088-.951-1.088-1.708 0-.442-.358-.797-.8-.797s-.8.36-.8.802c0 1.647 1.151 3.022 2.688 3.386v1.132c-2.141-.381-3.775-2.249-3.775-4.523 0-.442-.358-.786-.8-.786s-.8.373-.8.814c0 3.133 2.348 5.723 5.375 6.117v1.104c-3.629-.4-6.463-3.485-6.463-7.25 0-.442-.358-.783-.8-.783s-.8.375-.8.817c0 4.617 3.55 8.416 8.062 8.822v1.28c-5.132-.398-9.143-4.753-9.143-9.982.057-.48-.289-.934-.789-.926-.441 0-.794.364-.781.804l.02.68c0 6.883 4.342 11.22 9.986 11.861v1.619h-3c-.829 0-1.5.671-1.5 1.5s.671 1.5 1.5 1.5h9c.829 0 1.5-.671 1.5-1.5s-.671-1.5-1.5-1.5h-3v-1.627c5.614-.666 9.924-4.995 9.924-11.853l.025-.674c.017-.443-.338-.811-.781-.811zm-21.702-5.358c-.395.497-.967 1.507-.967 1.99 0 .736.597 1.333 1.333 1.333s1.333-.597 1.333-1.333c0-.482-.572-1.492-.967-1.99-.187-.236-.546-.236-.733 0zm18.667 0c-.395.497-.967 1.507-.967 1.99 0 .736.597 1.333 1.333 1.333s1.333-.597 1.333-1.333c0-.482-.572-1.492-.967-1.99-.187-.236-.546-.236-.733 0zm-5.333 0c-.395.497-.967 1.507-.967 1.99 0 .736.597 1.333 1.333 1.333s1.333-.597 1.333-1.333c0-.482-.572-1.492-.967-1.99-.187-.236-.545-.236-.733 0zm8.733 0c-.187-.236-.545-.236-.733 0-.395.497-.967 1.507-.967 1.99 0 .736.597 1.333 1.333 1.333s1.333-.597 1.333-1.333c0-.482-.572-1.492-.967-1.99zm-6.066 0c-.395.497-.967 1.507-.967 1.99 0 .736.597 1.333 1.333 1.333s1.333-.597 1.333-1.333c0-.482-.572-1.492-.967-1.99-.187-.236-.546-.236-.733 0z"/></svg>