<svg id="Layer_1" viewBox="0 0 24 24" xmlns="http://www.w3.org/2000/svg" data-name="Layer 1"><path d="m23.863 20.3c-.202.868-.658 1.667-1.317 2.309-.592.577-1.543.565-2.121-.029-.577-.594-.564-1.543.029-2.121.247-.24.416-.532.488-.842.268-1.14-.495-1.992-1.348-2.218-.442-.097-1.624-.356-2.214-1.737-.485-1.144-1.714-1.821-2.987-1.63-1.032.146-1.87.929-2.136 1.993-.081.328-.107.64-.034.973.201 1.253-.525 2.487-1.689 2.873-.268.089-.606.396-.519.723.033.122.13.243.255.317.711.425.942 1.347.517 2.058-.428.717-1.359.938-2.058.517-.79-.473-1.377-1.243-1.611-2.113-.504-1.873.628-3.53 2.099-4.202-.085-.613-.018-1.266.131-1.871.562-2.254 2.376-3.917 4.623-4.237 2.605-.375 5.127 1.019 6.153 3.383 2.681.554 4.373 3.203 3.739 5.855zm-16.484-8.678c-.566-.567-.879-1.321-.879-2.122 0-1.654 1.346-3 3-3 1.147 0 2.178.639 2.688 1.667.37.743 1.272 1.044 2.011.676.742-.369 1.045-1.269.677-2.011-.064-.13-.145-.247-.217-.37l1.559-1.559c.586-.585.586-1.535 0-2.121s-1.535-.586-2.121 0l-1.55 1.55c-.48-.283-.999-.496-1.546-.636v-2.196c0-.829-.672-1.5-1.5-1.5s-1.5.671-1.5 1.5v2.197c-.548.142-1.066.358-1.542.64l-1.555-1.555c-.586-.586-1.535-.586-2.121 0s-.586 1.536 0 2.121l1.555 1.555c-.282.476-.498.993-.64 1.542h-2.198c-.828 0-1.5.671-1.5 1.5s.672 1.5 1.5 1.5h2.193c.139.544.35 1.065.636 1.549l-1.547 1.548c-.586.586-.586 1.536 0 2.121.586.586 1.535.586 2.121 0l2.475-2.476c.586-.586.586-1.535 0-2.121zm7.131 6.792c-.357.391-1.523 1.964-1.523 3.087 0 .668.26 1.295.732 1.768s1.1.732 1.768.732 1.295-.26 1.768-.732.732-1.1.732-1.768c0-1.145-1.169-2.705-1.557-3.123-.52-.51-1.367-.509-1.92.036z"/></svg>