<?xml version="1.0" encoding="UTF-8"?>
<svg xmlns="http://www.w3.org/2000/svg" id="Layer_1" data-name="Layer 1" viewBox="0 0 24 24">
  <path d="M11.5,22.5c0,.829-.671,1.5-1.5,1.5H5.5c-3.033,0-5.5-2.467-5.5-5.5V5.5C0,2.467,2.467,0,5.5,0H13.5c3.033,0,5.5,2.467,5.5,5.5v3.5c0,.829-.671,1.5-1.5,1.5s-1.5-.671-1.5-1.5v-3.5c0-1.378-1.122-2.5-2.5-2.5H5.5c-1.378,0-2.5,1.122-2.5,2.5v13c0,1.378,1.122,2.5,2.5,2.5h4.5c.829,0,1.5,.671,1.5,1.5ZM6.5,5c-.829,0-1.5,.671-1.5,1.5s.671,1.5,1.5,1.5h6c.829,0,1.5-.671,1.5-1.5s-.671-1.5-1.5-1.5H6.5Zm2,13c.829,0,1.5-.671,1.5-1.5s-.671-1.5-1.5-1.5h-2c-.829,0-1.5,.671-1.5,1.5s.671,1.5,1.5,1.5h2Zm15.5,0c0,3.314-2.686,6-6,6s-6-2.686-6-6,2.686-6,6-6,6,2.686,6,6Zm-5,1c0-.552-.448-1-1-1s-1,.448-1,1v2c0,.552,.448,1,1,1s1-.448,1-1v-2Zm.5-3.5c0-.828-.672-1.5-1.5-1.5s-1.5,.672-1.5,1.5,.672,1.5,1.5,1.5,1.5-.672,1.5-1.5Zm-6.5-4c0-.829-.671-1.5-1.5-1.5H6.5c-.829,0-1.5,.671-1.5,1.5s.671,1.5,1.5,1.5h5c.829,0,1.5-.671,1.5-1.5Z"/>
</svg>
