<svg id="Layer_1" viewBox="0 0 24 24" xmlns="http://www.w3.org/2000/svg" data-name="Layer 1"><path d="m18 0c-3.314 0-6 2.686-6 6s2.686 6 6 6 6-2.686 6-6-2.686-6-6-6zm3.486 6.379-.214 1.419c-.147.979-.988 1.702-1.978 1.702h-2.645c-1.019 0-1.875-.766-1.988-1.779l-.154-1.388c-.071-.642.378-1.207.992-1.311v-.522c0-1.381 1.119-2.5 2.5-2.5s2.5 1.119 2.5 2.5v.522c.632.107 1.085.699.986 1.357zm-2.686-1.379h-1.6v-.5c0-.441.359-.8.8-.8s.8.359.8.8zm-10.3 12.5c0 .276-.224.5-.5.5h-.5v-1h.5c.276 0 .5.224.5.5zm-.5 1.5h-.5v1h.5c.276 0 .5-.224.5-.5s-.224-.5-.5-.5zm13.36-5.747c-1.023.475-2.158.747-3.36.747-1.404 0-2.723-.364-3.87-1h-10.13c-2.209 0-4 1.791-4 4v3c0 2.209 1.791 4 4 4h16c2.209 0 4-1.791 4-4v-3c0-1.729-1.104-3.189-2.64-3.747zm-11.86 6.247c0 .827-.673 1.5-1.5 1.5h-.5c-.551 0-1-.449-1-1v-3c0-.551.449-1 1-1h.5c.827 0 1.5.673 1.5 1.5 0 .384-.145.734-.383 1 .238.266.383.616.383 1zm4 0c0 .827-.673 1.5-1.5 1.5s-1.5-.673-1.5-1.5v-3c0-.276.224-.5.5-.5s.5.224.5.5v3c0 .275.225.5.5.5s.5-.225.5-.5v-3c0-.276.224-.5.5-.5s.5.224.5.5zm3.975-2.842-.975 2.924v.918c0 .276-.224.5-.5.5s-.5-.224-.5-.5v-.918l-.975-2.924c-.087-.262.055-.545.316-.633.263-.088.545.055.633.316l.525 1.577.525-1.577c.089-.261.372-.403.633-.316.262.088.403.371.316.633z"/></svg>