<svg id="Layer_1" viewBox="0 0 24 24" xmlns="http://www.w3.org/2000/svg" data-name="Layer 1"><path d="m21 12.607v-2.607c0-4.962-4.037-9-9-9s-9 4.038-9 9v2.607c-1.778.912-3 2.761-3 4.893 0 3.033 2.468 5.5 5.5 5.5 1.212 0 2.5-.876 2.5-2.5v-1.5h1.5c.4 0 .762-.238.919-.606l.427-.995 1.198 3.895c.127.417.52.708.956.706.366 0 .706-.201.881-.527l1.326-2.473h.793v1.5c0 1.624 1.288 2.5 2.5 2.5 3.032 0 5.5-2.467 5.5-5.5 0-2.132-1.222-3.98-3-4.893zm-16 7.343c-1.14-.232-2-1.242-2-2.45s.86-2.217 2-2.45v4.899zm9.608-2.95c-.368 0-.707.203-.881.527l-.477.888-1.295-4.209c-.124-.401-.484-.682-.903-.705-.411-.021-.806.219-.972.604l-1.24 2.894h-.841v-2.5c0-1.401-.959-2.241-2-2.447v-2.053c0-3.309 2.691-6 6-6s6 2.691 6 6v2.053c-1.041.206-2 1.046-2 2.447v2.5h-1.392zm4.392 2.95v-4.899c1.14.232 2 1.242 2 2.45s-.86 2.217-2 2.45z"/></svg>