<?xml version="1.0" encoding="UTF-8"?>
<svg xmlns="http://www.w3.org/2000/svg" id="Layer_1" data-name="Layer 1" viewBox="0 0 24 24">
  <path d="M6,3.3c0-1.823,1.343-3.3,3-3.3s3,1.477,3,3.3c0-1.823,1.343-3.3,3-3.3s3,1.477,3,3.3c0,2.53-3.216,5.991-4.939,7.333-.627,.489-1.495,.489-2.122,0-1.723-1.343-4.939-4.803-4.939-7.333Zm18,14.2c0-.652-.419-1.201-1-1.408v-1.592c0-.828-.672-1.5-1.5-1.5-.176,0-.343,.036-.5,.092v-.592c0-.829-.672-1.5-1.5-1.5s-1.5,.671-1.5,1.5v3.5H6v-3.5c0-.829-.671-1.5-1.5-1.5s-1.5,.671-1.5,1.5v.592c-.157-.056-.324-.092-.5-.092-.829,0-1.5,.672-1.5,1.5v1.592c-.581,.207-1,.756-1,1.408s.419,1.201,1,1.408v1.592c0,.828,.671,1.5,1.5,1.5,.176,0,.343-.036,.5-.092v.592c0,.828,.671,1.5,1.5,1.5s1.5-.672,1.5-1.5v-3.5h12v3.5c0,.828,.672,1.5,1.5,1.5s1.5-.672,1.5-1.5v-.592c.157,.056,.324,.092,.5,.092,.828,0,1.5-.672,1.5-1.5v-1.592c.581-.207,1-.756,1-1.408Z"/>
</svg>
