<svg id="Layer_1" viewBox="0 0 24 24" xmlns="http://www.w3.org/2000/svg" data-name="Layer 1"><path d="m8 17.89v2.11c0 2.206-1.794 4-4 4s-4-1.794-4-4v-18.5c0-.828.671-1.5 1.5-1.5s1.5.672 1.5 1.5v18.5c0 .552.449 1 1 1s1-.448 1-1v-.5c0-.388.151-.739.394-1.005.256-.411.734-.882 1.091-1.233.559-.559 1.516-.163 1.516.628zm15.235-5.89c.67.938.863 1.837.721 2.803-.167 1.133-1.545 1.6-2.355.79l-2.337-2.337c-.195.231-.488.559-.87.932l.144.161c.675.675.603 1.696-.161 2.27-.76.57-1.823.495-2.495-.177l-.234-.239c-.938.479-2 .819-3.147.819-1.703 0-3.491-.75-5.17-2.169-.833-.702-1.311-1.734-1.312-2.83 0-1.096.478-2.128 1.312-2.832 1.121-.946 2.289-1.587 3.447-1.914 1.785-1.507 4.509-1.722 6.445-.381.808.505 1.003 1.582.507 2.355.696.593 1.216 1.16 1.516 1.515l2.356-2.356c.81-.81 2.189-.343 2.355.79.142.965-.051 1.865-.721 2.803zm-10.735 2.021c1.448 0 2.902-1.09 3.828-2-.925-.909-2.38-2-3.828-2-.552 0-1.093.161-1.597.394.055.44.097.962.097 1.585 0 .637-.044 1.174-.1 1.625.504.233 1.047.395 1.6.395zm5.5-10.021c1.105 0 2-.895 2-2s-.895-2-2-2-2 .895-2 2 .895 2 2 2zm-8.5 1c.828 0 1.5-.672 1.5-1.5s-.672-1.5-1.5-1.5-1.5.672-1.5 1.5.672 1.5 1.5 1.5z"/></svg>