<svg id="Layer_1" viewBox="0 0 24 24" xmlns="http://www.w3.org/2000/svg" data-name="Layer 1"><path d="m14.5 13c-.828 0-1.5-.672-1.5-1.5s.672-1.5 1.5-1.5 1.5.672 1.5 1.5-.672 1.5-1.5 1.5zm7.387-4.932c-.942-4.662-5.035-8.068-9.887-8.068-6.947 0-8.996 4.582-10.219 7.319-.307.685-.769 1.721-1.036 1.885-.567.33-.854.991-.707 1.631.146.64.692 1.11 1.347 1.161.193.015 3.249.213 6.719-1.034-.065.168-.104.348-.104.538 0 .828.672 1.5 1.5 1.5s1.5-.672 1.5-1.5c0-.633-.393-1.171-.947-1.392 1.206-.627 2.407-1.447 3.508-2.548.586-.585.586-1.536 0-2.121-.586-.586-1.535-.586-2.121 0-2.203 2.203-5 3.058-7.045 3.383.042-.092.083-.185.125-.279 1.162-2.598 2.478-5.543 7.48-5.543 3.638 0 6.668 2.725 7.05 6.337.07.663.568 1.2 1.224 1.319.421.076.727.441.727.867.021.613-.596 1.055-1.167.982-.678-.067-1.312.347-1.54.995-.875 2.481-3.699 4.5-6.292 4.5-2.484 0-5.372-2.219-6.107-4.057-.308-.769-1.181-1.144-1.95-.835-.769.308-1.143 1.181-.835 1.95.682 1.704 2.145 3.263 3.893 4.359v3.084c0 .829.671 1.5 1.5 1.5s1.5-.671 1.5-1.5v-1.768c.671.173 1.345.268 2 .268.667 0 1.337-.111 2-.274v1.774c0 .829.671 1.5 1.5 1.5s1.5-.671 1.5-1.5v-3.044c1.575-.994 2.911-2.395 3.718-4.009.789-.141 1.517-.517 2.1-1.094.762-.754 1.182-1.759 1.182-2.83 0-1.488-.843-2.806-2.113-3.455zm-12.249 6.912c.592.628 1.431 1.02 2.362 1.02s1.77-.392 2.362-1.02c.347-.368.059-.98-.447-.98h-3.831c-.506 0-.795.612-.447.98z"/></svg>