<svg id="Layer_1" viewBox="0 0 24 24" xmlns="http://www.w3.org/2000/svg" data-name="Layer 1"><path d="m10 7.5c0-.828.672-1.5 1.5-1.5s1.5.672 1.5 1.5-.672 1.5-1.5 1.5-1.5-.672-1.5-1.5zm5.5-.5c.828 0 1.5-.672 1.5-1.5s-.672-1.5-1.5-1.5-1.5.672-1.5 1.5.672 1.5 1.5 1.5zm7.5 7.496s0 .003 0 .004v3c0 3.584-2.916 6.5-6.5 6.5h-9c-3.584 0-6.5-2.916-6.5-6.5v-3s0-.003 0-.004c-.669-.504-1.079-1.333-.987-2.254.086-.858.637-1.552 1.375-1.93-.246-.555-.388-1.166-.388-1.812v-2c0-3.584 2.916-6.5 6.5-6.5h9c3.584 0 6.5 2.916 6.5 6.5v2c0 .645-.142 1.256-.388 1.812.738.378 1.289 1.072 1.375 1.93.092.921-.318 1.75-.987 2.254zm-19-5.996c0 .827.673 1.5 1.5 1.5h13c.827 0 1.5-.673 1.5-1.5v-2c0-1.93-1.57-3.5-3.5-3.5h-9c-1.93 0-3.5 1.57-3.5 3.5zm16 9v-2.742c-.421.05-.919.246-1.5.751-.384.334-.862.489-1.333.465-.408-.021-.811-.176-1.144-.465-.09-.078-.174-.153-.255-.224-1.156-1.028-2.887-1.048-4.07-.051-.334.281-.717.624-1.198 1.042-.576.5-1.293.733-2 .697-.612-.031-1.217-.263-1.716-.697-1.226-1.065-1.856-1.263-2.784-1.286v2.51c0 1.93 1.57 3.5 3.5 3.5h9c1.93 0 3.5-1.57 3.5-3.5z"/></svg>