<svg id="Layer_1" viewBox="0 0 24 24" xmlns="http://www.w3.org/2000/svg" data-name="Layer 1"><path d="m21.945 15.946c-.69 1.342-1.725 2.491-2.945 3.363v3.191c0 .828-.672 1.5-1.5 1.5s-1.5-.672-1.5-1.5v-1.778c-.654.169-1.322.278-2 .278s-1.348-.091-2-.261v1.761c0 .828-.672 1.5-1.5 1.5s-1.5-.672-1.5-1.5v-.855c1.764-.598 3.408-1.93 4.66-3.671.113.009.229.026.34.026 1.878 0 4.128-1.253 5.226-3.349.315-.604.965-.955 1.633-.825.981.161 1.54 1.236 1.086 2.12zm2.055-7.446v2c0 .828-.672 1.5-1.5 1.5-2.277 0-4.5-.702-6.553-2.049-.21-2.17-1.07-4.021-2.417-5.39.455-.554.842-1.091 1.152-1.561h-2.183c-.324 0-.64.034-.948.088-1.297-.694-2.824-1.081-4.519-1.086 1.479-1.247 3.386-2.001 5.467-2.001h3c4.694 0 8.5 3.806 8.5 8.5zm-3 0c0-2.181-1.276-4.069-3.121-4.958-.384.672-.994 1.648-1.832 2.7 1.562 1.424 3.222 2.302 4.953 2.621zm-14 11.5c-3.467 0-7-4.707-7-9 0-4.249 2.944-7 7-7s7 2.751 7 7c0 4.293-3.533 9-7 9zm-2.5-8c.829 0 1.5-.671 1.5-1.5s-.671-1.5-1.5-1.5-1.5.671-1.5 1.5.671 1.5 1.5 1.5zm4.375 2c-1.034 0-2.713 0-3.748 0-.506 0-.807.517-.507.882.468.569 1.313 1.118 2.383 1.118s1.912-.549 2.379-1.118c.299-.365-.002-.881-.507-.881zm2.125-3.5c0-.829-.671-1.5-1.5-1.5s-1.5.671-1.5 1.5.671 1.5 1.5 1.5 1.5-.671 1.5-1.5z"/></svg>