<svg id="Layer_1" viewBox="0 0 24 24" xmlns="http://www.w3.org/2000/svg" data-name="Layer 1"><path d="m11.2 3.719c-.328-.933-1.181-1.586-2.171-1.664-.959-.076-1.799.016-2.498.271-.743.271-1.391.761-2.016 1.233-.442.334-.942.712-1.2.804-.272.04-.845.024-1.134.047-.738.049-1.395.43-1.8 1.045-.401.609-.491 1.355-.223 2.112l2.004 4.908c.387.946 1.288 1.554 2.299 1.554h.018c.767-.005 1.473-.124 2.1-.353.749-.273 1.405-.766 2.041-1.242.462-.346.94-.704 1.274-.826.207-.076.518-.113.859-.105l3.332 9.492c.273.79 1.151 1.192 1.912.919.781-.274 1.192-1.13.918-1.912zm-2.336 5.072c-.749.274-1.407.767-2.043 1.243-.77.569-1.17.922-2.017.979l-1.486-3.64c.336-.02.626-.06.896-.152.783-.267 1.458-.776 2.11-1.27.449-.34.915-.691 1.236-.809.221-.081.55-.119.92-.113l1.244 3.544c-.289.045-.579.115-.86.217zm15.003-1.292-2.029 4.975c-.388.947-1.289 1.556-2.3 1.556-1.096-.013-2.023-.207-2.907-.738l-1.587-4.523c.792.243 1.471.778 2.133 1.265.462.346.94.704 1.274.826.244.089.508.134.742.154l1.486-3.64c-.336-.02-.626-.06-.896-.153-.78-.266-1.455-.776-2.108-1.269-.449-.34-.915-.691-1.235-.809-.221-.081-.551-.119-.92-.113l-.894 2.547-1.542-4.395c.42-.636 1.105-1.065 1.888-1.127.96-.073 1.799.016 2.497.271.742.271 1.39.76 2.015 1.232.442.334.943.712 1.27.824.189.008.828.01 1.065.027.738.049 1.394.43 1.799 1.045.401.61.492 1.355.25 2.044zm-14.512 6.034 1.573 4.574-1.015 2.89c-.273.79-1.151 1.192-1.912.919-.781-.274-1.192-1.131-.918-1.912l2.271-6.471z"/></svg>