<svg id="Layer_1" viewBox="0 0 24 24" xmlns="http://www.w3.org/2000/svg" data-name="Layer 1"><path d="m24 12.545c0 1.147-.798 2.363-2.283 2.45l-.151 1.193c-.31 2.452-2.217 4.365-4.593 4.743-.213 1.728-1.69 3.068-3.474 3.068h-7c-1.93 0-3.5-1.57-3.5-3.5v-1.124c0-.705-.332-1.279-.609-1.637-1.148-1.479-1.918-3.202-2.226-4.984-.141-.816.406-1.593 1.223-1.733.816-.145 1.593.406 1.733 1.223.225 1.299.791 2.563 1.638 3.654.812 1.044 1.241 2.246 1.241 3.478v1.124c0 .275.224.5.5.5h7c.276 0 .5-.225.5-.5v-1c0-.828.671-1.5 1.5-1.5h.609c1.257 0 2.323-.94 2.48-2.187l.316-2.501c.095-.75.732-1.312 1.488-1.312h.39c-.615-1.47-2.303-4.527-3.268-5.721-.655-.874-1.417-1.567-2.298-2.107-.707-.432-.929-1.355-.497-2.062s1.356-.929 2.062-.497c1.208.738 2.25 1.688 3.1 2.823.983 1.213 4.118 6.448 4.118 8.109zm-21.671-2.627.915-2.858c.396-1.233 1.532-2.061 2.825-2.061h1.431c.775.07 1.522.482 1.988 1.113.411.556.585 1.209.512 1.887.8.232 1.593.911 1.823 1.737 1.276-.522 2.177-1.773 2.177-3.237.006-1.967-1.663-3.603-3.637-3.486-.441-1.729-1.996-3.013-3.863-3.013-2.22-.002-4.04 1.826-3.995 4.05-1.42.237-2.505 1.463-2.505 2.95 0 1.425.996 2.613 2.329 2.918zm4.379 5.082c.183 0 .356-.089.462-.238l2.728-3.816c.268-.4-.018-.937-.499-.938l-2.036-.008.629-2.04c.147-.477-.21-.96-.709-.96h-1.214c-.42 0-.792.271-.92.671l-1.121 3.499c-.121.394.173.828.585.83h2.05l-.51 2.309c-.078.355.192.691.555.691z"/></svg>