<svg id="Layer_1" viewBox="0 0 24 24" xmlns="http://www.w3.org/2000/svg" data-name="Layer 1"><path d="m22.406 17.976c-.415.725-1.342.962-2.048.554l-.528-.303c-1.551 1.96-3.796 3.282-6.33 3.659v.615c0 .828-.671 1.5-1.5 1.5s-1.5-.672-1.5-1.5v-.625c-2.547-.386-4.78-1.728-6.317-3.656l-.541.311c-.706.408-1.633.171-2.048-.554-.413-.719-.165-1.635.554-2.048l.54-.31c-.438-1.124-.688-2.341-.688-3.617s.25-2.494.688-3.617l-.54-.31c-.718-.413-.966-1.329-.554-2.048.413-.718 1.331-.964 2.048-.554l.541.311c1.537-1.929 3.771-3.271 6.317-3.656v-.625c0-.828.671-1.5 1.5-1.5s1.5.672 1.5 1.5v.62c.088.013.177.019.264.035.815.146 1.358.925 1.213 1.74-.146.816-.92 1.357-1.74 1.213-.403-.072-.819-.108-1.236-.108-3.86 0-7 3.141-7 7 0 3.344 2.359 6.145 5.5 6.834v-3.139c-1.267-.521-2.238-1.678-2.451-3.061-.236-1.534.402-2.933 1.49-3.782.389-.304.961-.026.961.468v1.68c0 .828.672 1.5 1.5 1.5s1.5-.672 1.5-1.5v-1.68c0-.496.574-.77.965-.465.934.731 1.535 1.866 1.535 3.145 0 1.675-1.039 3.092-2.5 3.688v3.133c2.435-.528 4.435-2.298 5.192-4.761.244-.792 1.089-1.232 1.874-.993.792.243 1.236 1.082.993 1.874-.071.232-.153.458-.24.681l.533.306c.719.413.966 1.329.554 2.048zm1.005-11.188c.031-.007-2.012-1.269-2.054-1.298.094-.073 2.013-1.352 2.091-1.432.365-.321.551-.691.552-1.101 0-.41-.184-.783-.549-1.108-.086-.086-2.237-1.507-2.34-1.586-.374-.287-.885-.346-1.332-.146-.462.207-.761.661-.761 1.155v2.003l-.409-.299c-.448-.328-1.072-.229-1.397.216-.326.446-.229 1.071.216 1.397l1.245.911-1.245.911c-.445.326-.542.951-.216 1.397.327.448.956.54 1.397.216l.409-.299v2.002c-.046 1.022 1.345 1.675 2.097 1.007l2.354-1.757c.433-.383.523-.789.523-1.062 0-.613-.438-1-.582-1.127z"/></svg>