<svg id="Layer_1" viewBox="0 0 24 24" xmlns="http://www.w3.org/2000/svg" data-name="Layer 1"><path d="m6.5 10c.828 0 1.5.672 1.5 1.5s-.672 1.5-1.5 1.5-1.5-.672-1.5-1.5.672-1.5 1.5-1.5zm17.5-4.5v4c0 .828-.671 1.5-1.5 1.5s-1.5-.672-1.5-1.5v-1.5h-18v4.5c0 1.379 1.122 2.5 2.5 2.5h3c.829 0 1.5.672 1.5 1.5s-.671 1.5-1.5 1.5h-3c-3.033 0-5.5-2.468-5.5-5.5v-7c0-3.032 2.467-5.5 5.5-5.5h13c3.033 0 5.5 2.468 5.5 5.5zm-20.949-.5h17.898c-.232-1.14-1.242-2-2.449-2h-13c-1.207 0-2.217.86-2.449 2zm20.949 13c0 3.314-2.686 6-6 6s-6-2.686-6-6 2.686-6 6-6 6 2.686 6 6zm-4.586 0 1.293-1.293c.391-.391.391-1.023 0-1.414s-1.023-.391-1.414 0l-1.293 1.293-1.293-1.293c-.391-.391-1.023-.391-1.414 0s-.391 1.023 0 1.414l1.293 1.293-1.293 1.293c-.391.391-.391 1.023 0 1.414s1.023.391 1.414 0l1.293-1.293 1.293 1.293c.391.391 1.023.391 1.414 0s.391-1.023 0-1.414z"/></svg>