<svg id="Layer_1" viewBox="0 0 24 24" xmlns="http://www.w3.org/2000/svg" data-name="Layer 1"><path d="m18.438 10.276c-.33-.294-.853-.22-1.078.161-1.269 2.147-1.008 5.416-2.145 5.416-.539 0-.454-.931-.708-1.505-.18-.406-.727-.469-1.007-.123-1.073 1.327-2.076 3.469-1.125 5.752 1.017 2.444 3.314 4.169 5.956 4.014 3.162-.185 5.669-2.808 5.669-6.015 0-3.168-3.512-5.871-5.562-7.7zm1.104 11.013c-.813.948-2.271.948-3.083 0-.703-.82-.566-2.072.197-2.835l.894-.894c.249-.249.652-.249.901 0l.894.894c.763.763.899 2.016.197 2.835zm-15.542-13.289v3c0 2.481 2.019 4.5 4.5 4.5.828 0 1.5.672 1.5 1.5v5.5c0 .828-.672 1.5-1.5 1.5s-1.5-.672-1.5-1.5v-4.15c-3.419-.697-6-3.728-6-7.35v-3.092c-.581-.207-1-.756-1-1.408 0-.829.672-1.5 1.5-1.5h2.5v-3.5c0-.829.672-1.5 1.5-1.5s1.5.671 1.5 1.5v3.5h3v-3.5c0-.829.672-1.5 1.5-1.5s1.5.671 1.5 1.5v3.5h2.5c.828 0 1.5.671 1.5 1.5 0 .652-.419 1.201-1 1.408v.592c0 .829-.672 1.5-1.5 1.5s-1.5-.671-1.5-1.5v-.5z"/></svg>