<svg id="Layer_1" viewBox="0 0 24 24" xmlns="http://www.w3.org/2000/svg" data-name="Layer 1"><path d="m1 15c0-1.657 1.343-3 3-3s3 1.343 3 3-1.343 3-3 3-3-1.343-3-3zm19.001 5c-1.821 0-3.372 1.106-3.953 2.651-.248.661.321 1.349 1.058 1.349h5.782c.79 0 1.31-.763 1.021-1.463-.613-1.486-2.131-2.537-3.908-2.537zm-15.989 0c-1.821 0-3.372 1.106-3.952 2.651-.249.661.321 1.349 1.058 1.349h5.781c.79 0 1.31-.763 1.021-1.463-.613-1.486-2.131-2.537-3.908-2.537zm15.988-2c1.657 0 3-1.343 3-3s-1.343-3-3-3-3 1.343-3 3 1.343 3 3 3zm4-15v2.999c0 1.657-1.343 3-3 3h-2.872l-2.454 1.69c-.692.456-1.674-.039-1.672-.915l-.002-6.772c0-1.65 1.35-3 3-3.001h3.999c1.657-.002 3.001 1.341 3.001 2.999zm-3 0h-4s0 2.999 0 2.999h3.999v-2.999zm-11.001.002-.002 6.772c.002.876-.98 1.371-1.672.915l-2.454-1.69h-2.871c-1.657 0-3-1.343-3-3v-2.999c0-1.657 1.344-3 3.001-3h3.999c1.65.002 2.999 1.352 2.999 3.002zm-3 0h-3.999s0 2.998 0 2.998h3.999v-2.999z"/></svg>