<?xml version="1.0" encoding="UTF-8"?>
<svg xmlns="http://www.w3.org/2000/svg" id="Layer_1" data-name="Layer 1" viewBox="0 0 24 24">
  <path d="M24,12.438c0,1.361-.357,2.676-1.032,3.822-.421,.716-1.342,.952-2.054,.532-.714-.421-.952-1.34-.532-2.054,.404-.687,.618-1.474,.618-2.277,0-2.26-1.589-4.199-3.778-4.637-1.086-.217-1.979-.909-2.446-1.9-1.021-2.151-3.299-3.304-5.678-2.872-2.075,.38-3.767,2.105-4.114,4.194-.105,.637-.099,1.273,.021,1.889,.219,1.131-.198,2.335-1.09,3.144-.555,.506-.914,1.362-.914,2.183,0,.586,.196,1.134,.567,1.586,.525,.64,.434,1.585-.207,2.111-.279,.229-.616,.341-.951,.341-.434,0-.863-.187-1.16-.548-.806-.98-1.249-2.22-1.249-3.49,0-1.675,.709-3.32,1.896-4.402,.116-.105,.183-.25,.162-.354-.188-.967-.198-1.96-.034-2.95C2.584,3.389,5.209,.716,8.558,.102c3.676-.666,7.343,1.196,8.93,4.539,.06,.128,.174,.213,.321,.243,3.588,.716,6.191,3.893,6.191,7.555Zm-5.5,5.062c0,3.59-2.91,6.5-6.5,6.5s-6.5-2.91-6.5-6.5,2.91-6.5,6.5-6.5,6.5,2.91,6.5,6.5Zm-2.752-1.154l-3.063-3.063c-.378-.378-.991-.378-1.369,0l-3.063,3.063c-.61,.61-.178,1.653,.685,1.653h1.563v2.501c0,.828,.671,1.5,1.5,1.5s1.5-.672,1.5-1.5v-2.501h1.563c.863,0,1.295-1.043,.685-1.653Z"/>
</svg>
