<svg id="Layer_1" viewBox="0 0 24 24" xmlns="http://www.w3.org/2000/svg" data-name="Layer 1"><path d="m16 20.159v-4.659c0-1.93-1.57-3.5-3.5-3.5h-8c-1.93 0-3.5 1.57-3.5 3.5v4.659c-.589.271-1 .862-1 1.552v.577c0 .945.766 1.712 1.712 1.712h13.576c.945 0 1.712-.766 1.712-1.712v-.577c0-.69-.411-1.282-1-1.552zm-5.923.841h-3.154l-.923-1h-2v-4.5c0-.275.225-.5.5-.5h8c.275 0 .5.225.5.5v4.5h-2zm13.923-10.5v1c0 1.93-1.57 3.5-3.5 3.5h-1c-.828 0-1.5-.672-1.5-1.5s.672-1.5 1.5-1.5h1c.275 0 .5-.224.5-.5v-1c0-.276-.225-.5-.5-.5h-11.268c-.181 0-.343.094-.434.251-.416.717-1.334.96-2.05.547-.717-.415-.962-1.333-.548-2.049.624-1.079 1.785-1.749 3.031-1.749h7.768v-.5c0-.829.672-1.5 1.5-1.5s1.5.671 1.5 1.5v.5h.5c1.93 0 3.5 1.57 3.5 3.5zm-10.623-6.576c-.531-.631-.45-1.573.181-2.104 1.436-1.208 3.19-1.82 4.942-1.82 1.781 0 3.561.632 5.007 1.875.341.293.49.707.493 1.125.002.347-.09.697-.334.981-.54.627-1.483.694-2.106.158-1.753-1.508-4.31-1.522-6.079-.034-.631.53-1.573.449-2.103-.181z"/></svg>