<svg id="Layer_1" viewBox="0 0 24 24" xmlns="http://www.w3.org/2000/svg" data-name="Layer 1"><path d="m21.5 15h-3.5v-6h4.5c.829 0 1.5-.672 1.5-1.5s-.671-1.5-1.5-1.5h-6.5c-1.654 0-3 1.346-3 3v4.413c-1.225-2.04-3.452-3.413-6-3.413-3.86 0-7 3.141-7 7s3.14 7 7 7c3.878.002 7.043-3.182 6.997-7.062.631.664 1.555 1.026 2.503 1.062h4.5v4.5c0 .828.671 1.5 1.5 1.5s1.5-.672 1.5-1.5v-5c0-1.379-1.122-2.5-2.5-2.5zm-13.252-1.781c.325 1.238 1.295 2.208 2.533 2.533.198.57.282 1.228.16 1.837-2.538.259-4.763-1.999-4.542-4.528.612-.124 1.275-.041 1.85.158zm-5.248 3.781c0-.741.216-1.428.569-2.024.619 2.705 2.75 4.835 5.455 5.454-.596.353-1.282.569-2.024.569-2.206 0-4-1.794-4-4zm11-14.5c0-1.381 1.119-2.5 2.5-2.5s2.5 1.119 2.5 2.5-1.119 2.5-2.5 2.5-2.5-1.119-2.5-2.5z"/></svg>