<svg id="Layer_1" viewBox="0 0 24 24" xmlns="http://www.w3.org/2000/svg" data-name="Layer 1"><path d="m13.5 14.5c0 .828-.672 1.5-1.5 1.5s-1.5-.672-1.5-1.5.672-1.5 1.5-1.5 1.5.672 1.5 1.5zm-1.5 2.5c-.828 0-1.5.672-1.5 1.5s.672 1.5 1.5 1.5 1.5-.672 1.5-1.5-.672-1.5-1.5-1.5zm0 4c-.828 0-1.5.672-1.5 1.5s.672 1.5 1.5 1.5 1.5-.672 1.5-1.5-.672-1.5-1.5-1.5zm3.182-12.682c-.85-.85-1.979-1.318-3.182-1.318s-2.333.468-3.175 1.312l-4.379 4.325c-.589.582-.595 1.532-.013 2.121.583.591 1.532.594 2.122.014l4.386-4.333c.566-.566 1.546-.573 2.127.007l4.379 4.325c.589.581 1.538.577 2.121-.014.582-.589.576-1.539-.014-2.121zm7.374.306-7.374-7.306c-.85-.85-1.979-1.318-3.182-1.318s-2.333.468-3.177 1.313l-7.379 7.315c-.588.583-.592 1.533-.009 2.122s1.533.592 2.122.009l7.383-7.32c.566-.566 1.548-.571 2.125.005l7.379 7.311c.587.583 1.538.579 2.121-.01.583-.588.579-1.538-.01-2.121z"/></svg>