<svg id="Layer_1" viewBox="0 0 24 24" xmlns="http://www.w3.org/2000/svg" data-name="Layer 1"><path d="m23.717 5.185-3.063 3.063c-.61.61-1.653.178-1.653-.685v-1.563h-3.501c-.828 0-1.5-.671-1.5-1.5s.672-1.5 1.5-1.5h3.501v-1.563c0-.863 1.043-1.295 1.653-.685l3.063 3.063c.378.378.378.991 0 1.369zm-16.258 10.815c-3.698 0-6.826 2.628-7.438 6.25-.138.817.413 1.591 1.229 1.729.82.136 1.591-.413 1.729-1.229.366-2.173 2.251-3.75 4.479-3.75s4.112 1.577 4.479 3.75c.135.822.931 1.369 1.729 1.229.816-.138 1.367-.912 1.229-1.729-.612-3.622-3.74-6.25-7.438-6.25zm-5.459-7.5c0-3.033 2.468-5.5 5.5-5.5s5.5 2.467 5.5 5.5-2.468 5.5-5.5 5.5-5.5-2.467-5.5-5.5zm3 0c0 1.378 1.121 2.5 2.5 2.5s2.5-1.122 2.5-2.5-1.121-2.5-2.5-2.5-2.5 1.122-2.5 2.5z"/></svg>