<svg id="Layer_1" viewBox="0 0 24 24" xmlns="http://www.w3.org/2000/svg" data-name="Layer 1"><path d="m13 10c0 2.175-.915 3.803-2.575 4.583-.488.232-1.095.025-1.331-.48-.235-.5-.02-1.095.48-1.331.946-.444 1.425-1.377 1.425-2.773 0-.552.448-1 1-1s1 .448 1 1zm1.587 3.144c-.472-.286-1.087-.133-1.373.34-.264.439-.607.861-1.02 1.254-.4.381-.415 1.014-.034 1.414s1.015.414 1.414.034c.542-.516.997-1.078 1.353-1.669.285-.473.132-1.088-.34-1.373zm-4.587-3.144c0-1.103.897-2 2-2 .229 0 .453.039.666.114.521.185 1.093-.088 1.277-.609s-.088-1.092-.609-1.277c-.429-.151-.877-.229-1.334-.229-2.206 0-4 1.794-4 4 0 .552.448 1 1 1s1-.448 1-1zm4.792-1.486c-.544.092-.912.607-.82 1.152.056.412.026.825.005 1.264-.039.551.376 1.029.928 1.067.544.04 1.03-.375 1.067-.928.031-.613.063-1.157-.027-1.736-.092-.544-.608-.913-1.152-.82zm5.208 10.486c0 2.761-2.239 5-5 5h-6c-2.788.009-4.945-2.273-5-5v-13.5c0-3.038 2.462-5.5 5.5-5.5h5c3.038 0 5.5 2.462 5.5 5.5zm-6 2c0-.552-.448-1-1-1h-2c-.552 0-1 .448-1 1s.448 1 1 1h2c.552 0 1-.448 1-1zm3-3v-12.5c0-1.378-1.122-2.5-2.5-2.5h-5c-1.378 0-2.5 1.122-2.5 2.5v12.5z"/></svg>