<?xml version="1.0" encoding="UTF-8"?>
<svg xmlns="http://www.w3.org/2000/svg" id="Layer_1" data-name="Layer 1" viewBox="0 0 24 24">
  <path d="M9,12c3.309,0,6-2.691,6-6S12.309,0,9,0,3,2.691,3,6s2.691,6,6,6Zm0-9c1.654,0,3,1.346,3,3s-1.346,3-3,3-3-1.346-3-3,1.346-3,3-3Zm14.35,11.925c-.508-.588-1.245-.925-2.022-.925h-1.426l1.435-2.82c.375-.738,.082-1.641-.657-2.017-.737-.375-1.641-.082-2.017,.657l-2.128,4.18h-2.949c-1.583-.037-2.91,1.5-2.643,3.06l.454,3.094c.322,2.193,2.236,3.847,4.452,3.847h3.215c2.216,0,4.13-1.653,4.452-3.845l.455-3.095c.113-.769-.113-1.546-.621-2.135Zm-2.802,4.793c-.107,.731-.746,1.282-1.484,1.282h-3.215c-.739,0-1.377-.551-1.484-1.282l-.399-2.718h3.484s.003,0,.004,0c.001,0,.002,0,.004,0h3.49l-.399,2.718Zm-11.578-4.367c.165,.812-.36,1.604-1.172,1.769-2.641,.536-4.608,2.789-4.785,5.478-.051,.828-.778,1.456-1.595,1.398-.827-.054-1.453-.768-1.398-1.595,.265-4.036,3.218-7.417,7.182-8.222,.812-.163,1.604,.36,1.769,1.172Z"/>
</svg>
