<svg id="Layer_1" viewBox="0 0 24 24" xmlns="http://www.w3.org/2000/svg" data-name="Layer 1"><path d="m.294 4.708c-.391-.391-.391-1.023 0-1.414l2.999-3c.391-.391 1.023-.391 1.414 0s.391 1.023 0 1.414l-.793.793 1.125 1.125c.773-.816 2.073-.836 2.867-.039l.318.318-1.432 1.432c-.39.39-.39 1.023 0 1.414.39.39 1.024.39 1.414 0l1.432-1.432 1.574 1.574-1.401 1.401c-.39.39-.39 1.023 0 1.414.39.39 1.024.39 1.414 0l1.272-1.272c.315.581.502 1.228.502 1.9v1.25l.707.707c.391.391.391 1.023 0 1.414s-1.023.391-1.414 0l-.707-.707h-1.25c-1.061 0-2.078-.421-2.828-1.171l-3.922-3.922c-.797-.794-.777-2.094.039-2.867l-1.125-1.125-.793.793c-.391.391-1.023.391-1.414 0zm19.587-.271c-2.226-2.973-5.754-4.636-9.465-4.418-.827.046-1.46.754-1.414 1.581.047.826.727 1.46 1.582 1.414 2.693-.152 5.273 1.054 6.931 3.266.965 1.194 2.653 4.251 3.267 5.721h-.39c-.756 0-1.393.562-1.488 1.312l-.315 2.5c-.157 1.247-1.224 2.187-2.48 2.187h-.609c-.828 0-1.5.672-1.5 1.5v1c0 .275-.225.5-.5.5h-7c-.275 0-.5-.225-.5-.5v-1.124c0-1.232-.43-2.435-1.241-3.477-1.212-1.56-1.83-3.452-1.741-5.327.04-.828-.6-1.53-1.427-1.57-.864-.033-1.53.6-1.569 1.427-.123 2.589.718 5.184 2.369 7.311.278.356.609.93.609 1.636v1.124c0 1.93 1.57 3.5 3.5 3.5h7c1.784 0 3.26-1.342 3.473-3.068 2.375-.378 4.282-2.291 4.592-4.743l.15-1.193c1.484-.087 2.283-1.303 2.283-2.45 0-1.66-3.135-6.895-4.118-8.109z"/></svg>