<svg id="Layer_1" viewBox="0 0 24 24" xmlns="http://www.w3.org/2000/svg" data-name="Layer 1"><path d="m8.939 11c-.577-.693-.939-1.574-.939-2.546 0-1.033.547-1.772 1.03-2.329.226-.262.657-.119.676.226.035.645.145 1.649.729 1.649 1.544 0-.101-2.921.565-4.562.179-.442.745-.576 1.118-.278 1.369 1.096 3.882 3.302 3.882 5.292 0 .973-.361 1.853-.939 2.546h-6.122zm14.323 2.718c-.488-.163-1.341-.35-2.212-.466.969-.157 2.034-.609 2.502-1.783.613-1.535.476-3.395.296-4.543-.089-.568-.726-.864-1.219-.569-.427.256-.952.623-1.488 1.107.636-1.051 1.176-2.574.55-3.833-.62-1.247-1.787-2.818-2.733-3.435-.725-.474-1.702-.04-1.818.818-.203 1.5-.195 4.389 1.028 6.859.695 4.503-.721 7.4-2.081 9.062-.72.88-1.558 1.559-2.385 2.05l.798-5.984h-5l.798 5.984c-.826-.491-1.665-1.17-2.385-2.05-1.36-1.662-2.776-4.559-2.081-9.062 1.223-2.469 1.231-5.358 1.028-6.859-.116-.858-1.093-1.292-1.818-.818-.946.617-2.113 2.188-2.733 3.435-.626 1.259-.086 2.782.55 3.833-.536-.484-1.061-.851-1.488-1.107-.493-.295-1.13 0-1.219.569-.18 1.148-.317 3.008.296 4.543.469 1.174 1.537 1.649 2.506 1.806-.871.115-1.728.279-2.217.442-.726.242-.98 1.144-.472 1.717.755.853 2.662 1.972 4.027 2.409-.806.393-1.494.805-1.912 1.154-.539.451-.5 1.298.084 1.69.797.534 2.483 1.146 4.066 1.246-.146.19-.275.374-.367.543-.335.612.06 1.371.754 1.443 1.243.128 3.432.155 5.084-.489 1.661.643 3.876.617 5.119.489.694-.072 1.089-.831.754-1.443-.093-.169-.224-.354-.373-.545 1.574-.106 3.241-.714 4.033-1.244.584-.391.624-1.239.084-1.69-.418-.349-1.106-.761-1.912-1.154 1.365-.438 3.272-1.556 4.027-2.409.508-.573.254-1.475-.472-1.717z"/></svg>