<svg id="Layer_1" viewBox="0 0 24 24" xmlns="http://www.w3.org/2000/svg" data-name="Layer 1"><path d="m14 11c0 1.105-.895 2-2 2s-2-.895-2-2 .895-2 2-2 2 .895 2 2zm10-6v8.5c0 3.033-2.467 5.5-5.5 5.5h-5v2h3c.829 0 1.5.671 1.5 1.5s-.671 1.5-1.5 1.5h-9c-.829 0-1.5-.671-1.5-1.5s.671-1.5 1.5-1.5h3v-2h-5c-3.033 0-5.5-2.467-5.5-5.5v-8.5c0-2.761 2.239-5 5-5h14c2.761 0 5 2.239 5 5zm-7.5-.5c0 .828.672 1.5 1.5 1.5s1.5-.672 1.5-1.5-.672-1.5-1.5-1.5-1.5.672-1.5 1.5zm-6 0c0 .828.672 1.5 1.5 1.5s1.5-.672 1.5-1.5-.672-1.5-1.5-1.5-1.5.672-1.5 1.5zm-6 0c0 .828.672 1.5 1.5 1.5s1.5-.672 1.5-1.5-.672-1.5-1.5-1.5-1.5.672-1.5 1.5zm16.5 9v-4.766c-.608-1.032-1.715-1.734-3-1.734s-2.39.696-3 1.723c-.61-1.027-1.719-1.723-3-1.723s-2.39.696-3 1.723c-.61-1.027-1.719-1.723-3-1.723s-2.392.702-3 1.734v4.766c0 1.378 1.122 2.5 2.5 2.5h3.35c.563-1.179 1.756-2 3.15-2s2.587.821 3.15 2h3.35c1.378 0 2.5-1.122 2.5-2.5z"/></svg>