<svg id="Layer_1" viewBox="0 0 24 24" xmlns="http://www.w3.org/2000/svg" data-name="Layer 1"><path d="m7.075 16.925c1.234 1.234 1.234 3.234 0 4.468-.653.653-2.902 2.037-3.998 2.544-.61.282-1.272-.302-1.052-.937.211-.606.628-1.261.961-1.975-.722.337-1.396.74-1.976.942-.635.221-1.22-.441-.938-1.052.507-1.096 1.88-3.337 2.534-3.99 1.234-1.234 3.234-1.234 4.468 0zm15.715-4.892c.751.763 1.21 1.805 1.21 2.933 0 1.068-.415 2.071-1.17 2.825-.175.175-.369.328-.571.466.482 1.006.741 2.113.741 3.243v1c0 .829-.672 1.5-1.5 1.5s-1.5-.671-1.5-1.5v-1c0-.939-.31-1.845-.851-2.605-.524-.054-1.037-.129-1.535-.226.252.81.386 1.659.386 2.515v1.315c0 .829-.672 1.5-1.5 1.5s-1.5-.671-1.5-1.5v-1.315c0-1.443-.587-2.848-1.603-3.872-.39-.177-.771-.359-1.134-.55.479 1.175.737 2.439.737 3.719v2.018c0 .829-.672 1.5-1.5 1.5s-1.5-.671-1.5-1.5v-2.018c0-1.816-.739-3.591-2.027-4.871l-.871-.864c-1.815.552-4.425.419-5.557-.343-1.568-1.055-1.999-3.166-1.002-4.757-.329-.275-.543-.684-.543-1.146 0-.828.672-1.5 1.5-1.5.673 0 1.236.446 1.426 1.057.869-.143 1.824.025 2.588.587.3-1.197 1.104-2.218 2.207-2.724.413-.189.847-.291 1.289-.326.003-.122.003-.247.015-.361.16-1.45.998-2.622 2.251-3.208.858-.4 1.799-.471 2.682-.241.827-.811 2.375-1.785 5.041-1.785h1.99c.979 0 1.9.479 2.466 1.28.552.782.691 1.782.374 2.675-.261.732-.651 1.429-1.13 2.073.812.762 1.299 1.829 1.299 2.997 0 1.13-.444 2.188-1.21 3.008zm-3.79-9.033c-.91 0-1.58.163-2.063.369.952.513 1.941.949 2.989 1.32.481-.52.855-1.112 1.078-1.738l-2.004.05zm-6.539 3.821c2.148 1.534 3.2 2.494 6.423 3.525.962.308 2.192-.077 2.115-1.251-.037-.571-.341-1.012-.849-1.165-2.447-.736-4.555-1.723-6.631-3.106-.816-.372-1.279-.154-1.505.666-.016.145-.059.805.445 1.331zm-3.743 3.738c1.538 1.367 5.618 4.993 11.164 5.399.591.058 1.127-.403 1.118-.992 0-.528-.345-.993-.839-1.128-3.893-.98-7.154-2.78-9.879-4.887-.29-.216-.877-.516-1.311-.304-.638.265-.823 1.466-.254 1.912z"/></svg>