<svg id="Layer_1" viewBox="0 0 24 24" xmlns="http://www.w3.org/2000/svg" data-name="Layer 1"><path d="m2 9h5c1.105 0 2-.895 2-2v-2.909c0-.615-.283-1.196-.767-1.575l-2.5-1.956c-.724-.567-1.741-.567-2.466 0l-2.5 1.956c-.484.379-.767.96-.767 1.575v2.909c0 1.105.895 2 2 2zm1-4c0-.552.448-1 1-1h1c.552 0 1 .448 1 1v1c0 .552-.448 1-1 1h-1c-.552 0-1-.448-1-1zm18.5 12v-.5c0-.828-.672-1.5-1.5-1.5h-2c-.828 0-1.5.672-1.5 1.5v.5c-1.381 0-2.5 1.119-2.5 2.5v2c0 1.381 1.119 2.5 2.5 2.5h5c1.381 0 2.5-1.119 2.5-2.5v-2c0-1.381-1.119-2.5-2.5-2.5zm-2 4h-1c-.552 0-1-.448-1-1s.448-1 1-1h1c.552 0 1 .448 1 1s-.448 1-1 1zm-5.939-8.439-6.771 6.771c1.137.809 2.468 1.369 3.923 1.577.82.118 1.39.878 1.272 1.698-.114.825-.894 1.391-1.697 1.272-5.685-.814-10.006-5.569-10.275-11.309-.039-.827.601-1.53 1.428-1.568.852-.032 1.53.601 1.569 1.428.083 1.772.687 3.413 1.659 4.78l6.331-6.331v-8.372c0-.733.321-1.429.88-1.906.559-.477 1.293-.684 2.018-.57 5.578.888 9.82 5.682 10.089 11.398.039.827-.601 1.53-1.428 1.568-.829.038-1.53-.6-1.569-1.428-.192-4.105-3.095-7.576-6.99-8.466v8.397c0 .397-.158.779-.439 1.061z"/></svg>