<svg id="Layer_1" viewBox="0 0 24 24" xmlns="http://www.w3.org/2000/svg" data-name="Layer 1"><path d="m23.99 1.669c-.101.891-.285 1.747-.547 2.545-.292.89-.799 1.658-1.445 2.271 0 .005.001.009.001.014v9.556c0 1.03.122 2.004.361 2.896.216.804.502 2.048.632 3.405.079.825-.525 1.557-1.35 1.636-.811.082-1.561-.523-1.636-1.35-.11-1.15-.356-2.219-.542-2.913-.308-1.146-.464-2.382-.464-3.675v-8.116c-.258.037-.52.062-.787.062h-3.713c-.829 0-1.5-.671-1.5-1.5s.671-1.5 1.5-1.5h3.713c1.085 0 2.042-.691 2.379-1.72.198-.604.338-1.261.417-1.949.093-.823.837-1.422 1.66-1.321.823.093 1.415.836 1.321 1.66zm-14.49 3.331h-3.698c-1.028 0-1.951-.606-2.297-1.508-.253-.661-.426-1.388-.515-2.162-.094-.823-.841-1.422-1.66-1.32-.823.094-1.414.837-1.32 1.66.117 1.024.35 1.998.693 2.895.284.74.736 1.389 1.298 1.921 0 .005-.001.009-.001.014v9.556c0 1.03-.122 2.004-.361 2.896-.217.804-.502 2.048-.632 3.406-.079.825.525 1.557 1.35 1.636.811.082 1.561-.523 1.636-1.35.11-1.15.356-2.219.543-2.913.308-1.146.464-2.382.464-3.674v-8.118c.263.038.531.061.802.061h3.698c.829 0 1.5-.671 1.5-1.5s-.671-1.5-1.5-1.5zm-3-2c.828 0 1.5-.672 1.5-1.5s-.672-1.5-1.5-1.5-1.5.672-1.5 1.5.672 1.5 1.5 1.5zm11 0c.828 0 1.5-.672 1.5-1.5s-.672-1.5-1.5-1.5-1.5.672-1.5 1.5.672 1.5 1.5 1.5zm-8 7h-1c-.829 0-1.5.671-1.5 1.5s.671 1.5 1.5 1.5h1c.829 0 1.5-.671 1.5-1.5s-.671-1.5-1.5-1.5zm6 0h-1c-.829 0-1.5.671-1.5 1.5s.671 1.5 1.5 1.5h1c.829 0 1.5-.671 1.5-1.5s-.671-1.5-1.5-1.5zm-6 5h-1c-.829 0-1.5.671-1.5 1.5s.671 1.5 1.5 1.5h1c.829 0 1.5-.671 1.5-1.5s-.671-1.5-1.5-1.5zm6 0h-1c-.829 0-1.5.671-1.5 1.5s.671 1.5 1.5 1.5h1c.829 0 1.5-.671 1.5-1.5s-.671-1.5-1.5-1.5zm0 5h-1c-.829 0-1.5.671-1.5 1.5s.671 1.5 1.5 1.5h1c.829 0 1.5-.671 1.5-1.5s-.671-1.5-1.5-1.5zm-6 0h-1c-.829 0-1.5.671-1.5 1.5s.671 1.5 1.5 1.5h1c.829 0 1.5-.671 1.5-1.5s-.671-1.5-1.5-1.5z"/></svg>