<svg id="Layer_1" viewBox="0 0 24 24" xmlns="http://www.w3.org/2000/svg" data-name="Layer 1"><path d="m18.221 8.628-4.721-6.609v-.519c0-.828-.671-1.5-1.5-1.5s-1.5.672-1.5 1.5v.519l-4.721 6.609c-.104.146-.779 1.167-.779 2.872v7c0 3.032 2.467 5.5 5.5 5.5h3c3.033 0 5.5-2.468 5.5-5.5v-7c0-1.551-.675-2.726-.779-2.872zm-6.221-3.547.656.919h-1.313l.656-.919zm4 13.419c0 1.379-1.122 2.5-2.5 2.5h-3c-1.378 0-2.5-1.121-2.5-2.5v-4.5h4.5c.829 0 1.5-.672 1.5-1.5s-.671-1.5-1.5-1.5h-4.449c.232-1.14 1.242-2 2.449-2h3c1.378 0 2.5 1.121 2.5 2.5z"/></svg>