<?xml version="1.0" encoding="UTF-8"?>
<svg xmlns="http://www.w3.org/2000/svg" id="Layer_1" data-name="Layer 1" viewBox="0 0 24 24">
  <path d="M17.086,11.466c.571,.6,.548,1.549-.051,2.12l-3.582,3.412c-1.277,1.332-3.65,1.327-4.933-.026l-1.519-1.353c-.618-.552-.671-1.5-.12-2.118,.552-.618,1.5-.671,2.118-.12l1.582,1.412c.357,.281,.448,.282,.776,.06l3.608-3.438c.6-.571,1.549-.548,2.121,.052Zm6.914-2.966v9c0,3.032-2.467,5.5-5.5,5.5H5.5c-3.033,0-5.5-2.468-5.5-5.5V6.5C0,3.468,2.467,1,5.5,1h2.528c.54,0,1.081,.128,1.564,.369l3.156,1.578c.068,.034,.146,.053,.224,.053h5.528c3.033,0,5.5,2.468,5.5,5.5Zm-3,0c0-.171-.018-.338-.051-.5H3v9.5c0,1.379,1.122,2.5,2.5,2.5h13c1.378,0,2.5-1.121,2.5-2.5V8.5Z"/>
</svg>
