<svg id="Layer_1" viewBox="0 0 24 24" xmlns="http://www.w3.org/2000/svg" data-name="Layer 1"><path d="m1.246 5.657c-1.037-1.116-1.235-3.136-1.246-4.423-.006-.687.508-1.24 1.146-1.234 1.195.012 3.072.224 4.107 1.342.824.889 1.247 3.158 1.247 3.158s.474-2.397 1.247-3.158c1.085-1.069 2.912-1.33 4.107-1.342.638-.006 1.152.547 1.146 1.234-.011 1.287-.209 3.307-1.246 4.423-.94 1.013-2.567 1.281-3.754 1.331v1.511c0 .829-.672 1.5-1.5 1.5s-1.5-.671-1.5-1.5v-1.511c-1.187-.05-2.813-.318-3.754-1.331zm22.754 4.343v10.25c0 2.208-2.775 3.75-6.75 3.75-2.213 0-4.053-.479-5.25-1.284-1.197.805-3.037 1.284-5.25 1.284-3.975 0-6.75-1.542-6.75-3.75v-5.25c0-2.318 2.839-4 6.75-4 1.421 0 2.697.224 3.75.618v-1.618c0-2.318 2.839-4 6.75-4s6.75 1.682 6.75 4zm-20.951 5c.323.349 1.621 1 3.701 1s3.378-.651 3.701-1c-.323-.349-1.621-1-3.701-1s-3.378.651-3.701 1zm7.451 3.382c-1.053.394-2.329.618-3.75.618s-2.697-.224-3.75-.618v1.713c.298.285 1.544.905 3.75.905s3.452-.62 3.75-.905zm3.049-8.382c.323.349 1.621 1 3.701 1s3.378-.651 3.701-1c-.323-.349-1.621-1-3.701-1s-3.378.651-3.701 1zm7.451 8.382c-1.053.394-2.329.618-3.75.618s-2.697-.224-3.75-.618v1.713c.298.285 1.544.905 3.75.905s3.452-.62 3.75-.905zm0-5c-1.053.394-2.329.618-3.75.618s-2.697-.224-3.75-.618v1.555c.209.327 1.537 1.063 3.75 1.063 2.235 0 3.562-.75 3.75-1.071z"/></svg>