<svg id="Layer_1" viewBox="0 0 24 24" xmlns="http://www.w3.org/2000/svg" data-name="Layer 1"><path d="m24 12.5c0 1.487-.454 2.978-1.313 4.312-.448.697-1.378.896-2.072.449-.697-.448-.898-1.376-.45-2.073.539-.837.836-1.792.836-2.688 0-2.236-1.589-4.176-3.777-4.613-1.088-.218-1.979-.911-2.447-1.901-1.021-2.152-3.31-3.305-5.677-2.872-2.076.379-3.768 2.104-4.115 4.194-.105.637-.099 1.273.021 1.889.219 1.129-.198 2.333-1.089 3.143-.581.529-.915 1.284-.915 2.069 0 .609.234 1.231.661 1.752.524.641.43 1.586-.211 2.111-.638.522-1.584.433-2.111-.21-.863-1.055-1.339-2.352-1.339-3.652 0-1.628.691-3.191 1.896-4.289.116-.105.182-.25.162-.354-.187-.967-.198-1.96-.034-2.95.558-3.368 3.184-6.042 6.533-6.654 3.667-.67 7.342 1.195 8.929 4.54.06.127.174.213.322.243 3.587.715 6.19 3.893 6.19 7.555zm-6 4.292v4.922c0 1.262-1.023 2.286-2.286 2.286h-7.428c-1.262 0-2.286-1.023-2.286-2.286v-4.922c0-.76.378-1.47 1.007-1.895l3.714-2.506c.773-.521 1.784-.521 2.557 0l3.714 2.506c.63.425 1.007 1.135 1.007 1.895zm-5 5.208c0-.552-.448-1-1-1s-1 .448-1 1 .448 1 1 1 1-.448 1-1zm1.068-2.924c-1.267-.766-2.87-.766-4.138 0-.431.26-.492.863-.136 1.219.261.261.668.325.986.137.75-.442 1.689-.442 2.439 0 .318.187.724.123.985-.137.356-.356.295-.959-.136-1.219zm1.835-1.776c-1.119-.844-2.476-1.3-3.902-1.3s-2.783.456-3.902 1.3c-.39.294-.434.864-.088 1.209.281.28.726.315 1.042.076.845-.639 1.87-.985 2.948-.985s2.103.346 2.948.985c.316.239.762.204 1.042-.076.346-.345.302-.915-.088-1.209z"/></svg>