<?xml version="1.0" encoding="UTF-8"?>
<svg xmlns="http://www.w3.org/2000/svg" id="Layer_1" data-name="Layer 1" viewBox="0 0 24 24">
  <path d="M22.639,18.476c-.542,.631-1.488,.7-2.115,.163l-2.938-2.519c-.09-.077-.206-.12-.325-.12h-3.688l2.608,5.893c.335,.757-.008,1.644-.765,1.979-.74,.333-1.644,0-1.979-.765L7.614,9.952l-3.86,5.872c-.289,.438-.768,.676-1.255,.676-.283,0-.569-.08-.823-.247-.692-.455-.884-1.385-.43-2.077l3.951-6.011c.598-.897,1.431-1.59,2.415-2.012l5.372-2.303c.087-.037,.161-.098,.215-.176L15.262,.654c.467-.686,1.4-.859,2.084-.393,.685,.467,.86,1.4,.393,2.084l-2.062,3.019c-.374,.55-.896,.98-1.511,1.243l-2.267,.972,2.399,5.42h2.962c.835,0,1.645,.299,2.278,.843l2.938,2.519c.629,.539,.701,1.486,.162,2.115ZM6.5,5c1.381,0,2.5-1.119,2.5-2.5S7.881,0,6.5,0s-2.5,1.119-2.5,2.5,1.119,2.5,2.5,2.5Z"/>
</svg>
