<svg id="Layer_1" viewBox="0 0 24 24" xmlns="http://www.w3.org/2000/svg" data-name="Layer 1"><path d="m11 6c0 .828-.672 1.5-1.5 1.5s-1.5-.672-1.5-1.5.672-1.5 1.5-1.5 1.5.672 1.5 1.5zm-1.971 2h-.529c-.829 0-1.5.671-1.5 1.5 0 .653.417 1.209 1 1.415v1.585c0 .829.671 1.5 1.5 1.5s1.5-.671 1.5-1.5v-2.529c0-1.086-.884-1.971-1.971-1.971zm.471-8c-5.238 0-9.5 4.262-9.5 9.5v6c0 1.93 1.57 3.5 3.5 3.5h6c.829 0 1.5-.671 1.5-1.5s-.671-1.5-1.5-1.5h-6c-.276 0-.5-.224-.5-.5v-6c0-3.584 2.916-6.5 6.5-6.5s6.5 2.916 6.5 6.5c0 .829.672 1.5 1.5 1.5s1.5-.671 1.5-1.5c0-5.238-4.262-9.5-9.5-9.5zm10.5 22c-.552 0-1 .448-1 1s.448 1 1 1 1-.448 1-1-.448-1-1-1zm3-3c-.552 0-1 .448-1 1s.448 1 1 1 1-.448 1-1-.448-1-1-1zm-3 0c-.552 0-1 .448-1 1s.448 1 1 1 1-.448 1-1-.448-1-1-1zm-2-4v1c0 1.103-.897 2-2 2h-1c-1.103 0-2-.897-2-2v-1c0-1.103.897-2 2-2h1c1.103 0 2 .897 2 2zm-1.999 1v-1h-1.001v1zm1.999 5v1c0 1.103-.897 2-2 2h-1c-1.103 0-2-.897-2-2v-1c0-1.103.897-2 2-2h1c1.103 0 2 .897 2 2zm-1.999 1v-1h-1.001v1zm7.999-7v1c0 1.103-.897 2-2 2h-1c-1.103 0-2-.897-2-2v-1c0-1.103.897-2 2-2h1c1.103 0 2 .897 2 2zm-1.999 1v-1h-1.001v1z"/></svg>