<svg id="Layer_1" viewBox="0 0 24 24" xmlns="http://www.w3.org/2000/svg" data-name="Layer 1"><path d="m24 12.545c0 1.146-.799 2.363-2.283 2.45l-.15 1.193c-.311 2.452-2.218 4.365-4.593 4.743-.214 1.727-1.689 3.068-3.474 3.068h-7c-1.93 0-3.5-1.57-3.5-3.5v-1.124c0-.705-.332-1.28-.61-1.639-.373-.479-.709-.989-.998-1.513-.4-.725-.137-1.638.588-2.038.726-.401 1.638-.137 2.038.588.214.388.463.765.741 1.123.812 1.046 1.241 2.249 1.241 3.479v1.124c0 .276.224.5.5.5h7c.275 0 .5-.224.5-.5v-1c0-.829.672-1.5 1.5-1.5h.609c1.257 0 2.323-.94 2.48-2.188l.315-2.5c.095-.75.732-1.312 1.488-1.312h.39c-.614-1.47-2.303-4.527-3.268-5.721-1.658-2.212-4.233-3.409-6.932-3.266-.811.039-1.535-.586-1.581-1.414-.046-.827.587-1.535 1.414-1.581 3.703-.204 7.239 1.446 9.465 4.418.983 1.214 4.118 6.449 4.118 8.109zm-20.963-1.648c-.271.949.996 1.546 1.556.734l4.254-6.225c.399-.602-.032-1.406-.754-1.406h-3.093l.933-2.641c.252-.655-.232-1.359-.933-1.359h-1.894c-.426 0-.806.27-.945.674l-2.121 6.136c-.179.592.264 1.19.883 1.19h3.077z"/></svg>