<?xml version="1.0" encoding="UTF-8"?>
<svg xmlns="http://www.w3.org/2000/svg" id="Layer_1" data-name="Layer 1" viewBox="0 0 24 24">
  <path d="M8,6v2c0,1.09-.878,1.977-1.965,1.996l.36,5.044c.914,.184,1.604,.993,1.604,1.96,0,1.103-.897,2-2,2H2c-1.103,0-2-.897-2-2,0-.967,.69-1.776,1.604-1.96l.36-5.044c-1.086-.019-1.965-.906-1.965-1.996v-2c0-.552,.448-1,1-1s1,.448,1,1v1h1v-1c0-.552,.448-1,1-1s1,.448,1,1v1h1v-1c0-.552,.448-1,1-1s1,.448,1,1Zm13,0c1.657,0,3-1.343,3-3s-1.343-3-3-3-3,1.343-3,3,1.343,3,3,3Zm0,3c-1.657,0-3,1.343-3,3s1.343,3,3,3,3-1.343,3-3-1.343-3-3-3Zm0,9c-1.657,0-3,1.343-3,3s1.343,3,3,3,3-1.343,3-3-1.343-3-3-3ZM14.5,4.5h1c.829,0,1.5-.672,1.5-1.5s-.671-1.5-1.5-1.5h-1c-1.93,0-3.5,1.57-3.5,3.5v5.5h-.5c-.829,0-1.5,.672-1.5,1.5s.671,1.5,1.5,1.5h.5v5.5c0,1.93,1.57,3.5,3.5,3.5h1c.829,0,1.5-.672,1.5-1.5s-.671-1.5-1.5-1.5h-1c-.276,0-.5-.225-.5-.5v-5.5h1.5c.829,0,1.5-.672,1.5-1.5s-.671-1.5-1.5-1.5h-1.5V5c0-.275,.224-.5,.5-.5Z"/>
</svg>
