<svg id="Layer_1" viewBox="0 0 24 24" xmlns="http://www.w3.org/2000/svg" data-name="Layer 1"><path d="m19 0h-14c-2.761 0-5 2.239-5 5v8.5c0 .829.672 1.5 1.5 1.5s1.5-.671 1.5-1.5v-6.5h18v8.5c0 .829.672 1.5 1.5 1.5s1.5-.671 1.5-1.5v-10.5c0-2.761-2.239-5-5-5zm-14.5 5c-.828 0-1.5-.672-1.5-1.5s.672-1.5 1.5-1.5 1.5.672 1.5 1.5-.672 1.5-1.5 1.5zm5 0c-.828 0-1.5-.672-1.5-1.5s.672-1.5 1.5-1.5 1.5.672 1.5 1.5-.672 1.5-1.5 1.5zm1.964 10.056c.152-.886-.191-1.689-.786-2.212.297-.391.484-.871.495-1.397.027-1.347-1.221-2.447-2.569-2.447h-1.304c-.442 0-.8.358-.8.8v6.439c0 .442.358.8.8.8h1.69c1.186 0 2.274-.813 2.474-1.982zm-3.364-4.457h.674c.442 0 .8.358.8.8s-.358.8-.8.8h-.674v-1.599zm1.001 4.839h-1.001v-1.599h1.001c.442 0 .8.358.8.8s-.358.8-.8.8zm4.699-5.439c-.442 0-.8.358-.8.8v5.4c0 .442.358.8.8.8h1.801c1.325 0 2.399-1.074 2.399-2.399v-.022c0-1.336-1.083-2.418-2.418-2.418h-.982v-1.361c0-.442-.358-.8-.8-.8zm1.801 3.801c.442 0 .8.358.8.8s-.358.8-.8.8h-1.001v-1.599h1.001zm-9.704 7.813-4.003 2.224c-.849.472-1.893-.142-1.893-1.114v-4.447c0-.972 1.044-1.586 1.893-1.114l4.003 2.224c.874.486.874 1.743 0 2.228zm18.104-1.114c0 .829-.672 1.5-1.5 1.5h-12.001c-.828 0-1.5-.671-1.5-1.5s.672-1.5 1.5-1.5h12c.828 0 1.5.671 1.5 1.5z"/></svg>