<svg id="Layer_1" viewBox="0 0 24 24" xmlns="http://www.w3.org/2000/svg" data-name="Layer 1"><path d="m19 22.5c0 .829-.672 1.5-1.5 1.5h-11c-3.033 0-5.5-2.467-5.5-5.5v-13c0-3.033 2.467-5.5 5.5-5.5h6.343c1.469 0 2.85.572 3.889 1.611l2.656 2.657c.816.815 1.348 1.848 1.536 2.986.153.877-.518 1.746-1.542 1.746h-5.383c-1.105 0-2-.895-2-2v-4h-5.499c-1.378 0-2.5 1.122-2.5 2.5v13c0 1.378 1.122 2.5 2.5 2.5h11c.828 0 1.5.671 1.5 1.5zm3.2-11.5c-.442 0-.8.358-.8.8v4.9c0 .386-.314.7-.7.7-.643 0-.7-.601-.7-.601 0-.442-.358-.8-.8-.8-.43 0-.775.341-.793.767.036 1.237 1.047 2.233 2.293 2.233 1.269 0 2.3-1.031 2.3-2.3v-4.9c0-.442-.358-.8-.8-.8zm-13.4 0c1.269 0 2.3 1.031 2.3 2.3v3.4c0 1.269-1.031 2.3-2.3 2.3s-2.3-1.031-2.3-2.3v-3.4c0-1.269 1.031-2.3 2.3-2.3zm0 1.6c-.386 0-.7.314-.7.7v3.4c0 .386.314.7.7.7s.7-.314.7-.7v-3.4c0-.386-.314-.7-.7-.7zm8.35.836c-.011.524-.196 1.001-.492 1.39.592.521.933 1.32.782 2.202-.199 1.164-1.282 1.973-2.462 1.973h-1.678c-.442 0-.8-.358-.8-.8v-6.4c0-.442.358-.8.8-.8h1.294c1.341 0 2.584 1.095 2.556 2.436zm-3.058.748h.671c.44 0 .796-.356.796-.796s-.356-.796-.796-.796h-.671zm1.792 2.428c0-.44-.356-.796-.796-.796h-.996v1.592h.996c.44 0 .796-.356.796-.796z"/></svg>