<svg id="Layer_1" viewBox="0 0 24 24" xmlns="http://www.w3.org/2000/svg" data-name="Layer 1"><path d="m24 16.5c0-.609-.365-1.131-.886-1.366l-.15-1.277c-.326-2.769-2.674-4.857-5.462-4.857h-11.004c-2.788 0-5.136 2.088-5.462 4.857l-.15 1.277c-.521.235-.886.757-.886 1.366s.365 1.131.886 1.366l.15 1.277c.326 2.769 2.674 4.857 5.462 4.857h11.004c2.788 0 5.136-2.088 5.462-4.857l.15-1.277c.521-.235.886-.757.886-1.366zm-17.502-4.5h11.004c1.268 0 2.335.949 2.483 2.208l.093.792h-16.156l.093-.792c.148-1.259 1.216-2.208 2.483-2.208zm11.004 9h-11.004c-1.268 0-2.335-.949-2.483-2.208l-.093-.792h5.368c.461.612 1.186 1 1.991 1h1.438c.805 0 1.53-.387 1.991-1h5.369l-.093.792c-.148 1.259-1.216 2.208-2.483 2.208zm-15.502-17c0-2.209 3.791-4 6-4 1.678 0 3.109 1.035 3.703 2.5h8.797c.828 0 1.5.671 1.5 1.5s-.672 1.5-1.5 1.5h-8.797c-.594 1.465-2.026 2.5-3.703 2.5-2.209 0-6-1.791-6-4z"/></svg>