<svg id="Layer_1" viewBox="0 0 24 24" xmlns="http://www.w3.org/2000/svg" data-name="Layer 1"><path d="m14 15c0 .951-.347 1.813-.903 2.5.556.687.903 1.549.903 2.5 0 2.206-1.794 4-4 4h-1.5c-.829 0-1.5-.671-1.5-1.5s.671-1.5 1.5-1.5h1.5c.551 0 1-.449 1-1s-.449-1-1-1h-.5c-.829 0-1.5-.671-1.5-1.5s.671-1.5 1.5-1.5h.5c.551 0 1-.449 1-1s-.449-1-1-1h-1.5c-.829 0-1.5-.671-1.5-1.5s.671-1.5 1.5-1.5h1.5c2.206 0 4 1.794 4 4zm10 0v5c0 2.206-1.794 4-4 4s-4-1.794-4-4v-5c0-2.206 1.794-4 4-4s4 1.794 4 4zm-3 0c0-.551-.449-1-1-1s-1 .449-1 1v5c0 .551.449 1 1 1s1-.449 1-1zm-18-3c0-4.934 3.99-8.953 8.913-9 .029.001.058.002.087.002 2.168 0 4.218.78 5.834 2.163l-1.127 1.127c-.63.63-.184 1.707.707 1.707h4.586c.552 0 1-.448 1-1v-4.585c0-.891-1.077-1.337-1.707-.707l-1.336 1.336c-2.156-1.919-4.921-3.015-7.856-3.04-.034-.002-.067-.003-.101-.003-6.617 0-12 5.383-12 12 0 2.958 1.085 5.799 3.056 8 .554.619 1.503.668 2.118.117.617-.553.67-1.501.117-2.118-1.478-1.651-2.292-3.781-2.292-6z"/></svg>