<svg id="Layer_1" viewBox="0 0 24 24" xmlns="http://www.w3.org/2000/svg" data-name="Layer 1"><path d="m23.157 18.903-.235-.132c.044-.252.078-.507.078-.771s-.034-.519-.078-.771l.235-.132c.722-.407.977-1.322.57-2.043-.407-.722-1.321-.977-2.043-.57l-.243.137c-.42-.366-.904-.653-1.44-.844v-.276c0-.829-.671-1.5-1.5-1.5s-1.5.671-1.5 1.5v.276c-.535.191-1.019.478-1.44.844l-.243-.137c-.723-.408-1.637-.152-2.043.57-.407.721-.152 1.636.57 2.043l.235.132c-.044.252-.078.507-.078.771s.034.519.078.771l-.235.132c-.722.407-.977 1.322-.57 2.043.409.728 1.335.973 2.043.57l.243-.137c.42.366.904.653 1.44.844v.276c0 .829.671 1.5 1.5 1.5s1.5-.671 1.5-1.5v-.276c.535-.191 1.019-.478 1.44-.844l.243.137c.709.404 1.634.159 2.043-.57.407-.721.152-1.636-.57-2.043zm-3.157-.903c0 .827-.673 1.5-1.5 1.5s-1.5-.673-1.5-1.5.673-1.5 1.5-1.5 1.5.673 1.5 1.5zm-8.5 4.5c0 .829-.671 1.5-1.5 1.5h-4.681c-1.575 0-3.059-.691-4.072-1.897s-1.438-2.787-1.166-4.337l2.338-13.364c.446-2.551 2.649-4.402 5.238-4.402h8.672c2.587 0 4.79 1.849 5.238 4.397l.9 4.295c.17.811-.35 1.606-1.161 1.776-.81.167-1.606-.35-1.776-1.161l-.91-4.343c-.205-1.158-1.165-1.964-2.292-1.964h-8.671c-1.128 0-2.089.807-2.283 1.918l-2.338 13.364c-.118.676.067 1.365.509 1.891.441.525 1.088.827 1.775.827h4.681c.829 0 1.5.671 1.5 1.5zm.5-18.5c.829 0 1.5.671 1.5 1.5v1c0 .829-.671 1.5-1.5 1.5s-1.5-.671-1.5-1.5v-1c0-.829.671-1.5 1.5-1.5zm-1.5 7.5c0-.828.672-1.5 1.5-1.5s1.5.672 1.5 1.5-.672 1.5-1.5 1.5-1.5-.672-1.5-1.5z"/></svg>