<svg id="Layer_1" viewBox="0 0 24 24" xmlns="http://www.w3.org/2000/svg" data-name="Layer 1"><path d="m22.736 16.637c-1.002-1.002-4.375-3.863-5.254-4.606-.19-5.013-3.329-9.166-4.706-10.75-.675-.776-1.653-1.241-2.683-1.277-1.046-.048-2.058.365-2.794 1.102l-6.194 6.194c-.738.736-1.139 1.755-1.103 2.794.036 1.03.501 2.008 1.277 2.682 1.584 1.378 5.738 4.517 10.751 4.706.743.879 3.604 4.252 4.606 5.254.814.814 1.897 1.264 3.05 1.264s2.235-.449 3.05-1.264 1.264-1.897 1.264-3.05-.449-2.235-1.264-3.05zm-19.736-6.647c-.004-.124.02-.363.226-.569l6.194-6.194c.209-.202.417-.226.569-.226.118.004.343.042.522.248.892 1.025 3.708 4.57 3.969 8.65l-2.582 2.582c-4.08-.261-7.625-3.077-8.65-3.968-.206-.18-.244-.404-.248-.522zm17.615 10.625c-.512.512-1.346.512-1.857 0-.728-.728-2.767-3.1-4.09-4.661l1.286-1.286c1.561 1.323 3.933 3.362 4.662 4.09.512.512.512 1.346 0 1.857z"/></svg>