<svg id="Layer_1" viewBox="0 0 24 24" xmlns="http://www.w3.org/2000/svg" data-name="Layer 1"><path d="m10 22.5c0 .828-.671 1.5-1.5 1.5h-3c-3.033 0-5.5-2.468-5.5-5.5v-13c0-3.032 2.467-5.5 5.5-5.5h6.343c1.469 0 2.85.572 3.889 1.611l2.657 2.656c.815.816 1.347 1.849 1.536 2.985.154.877-.529 1.733-1.425 1.738v.009h-5.5c-1.105 0-2-.895-2-2v-3.999h-5.5c-1.378 0-2.5 1.121-2.5 2.5v13c0 1.379 1.122 2.5 2.5 2.5h3c.829 0 1.5.672 1.5 1.5zm14-5c0 3.59-2.91 6.5-6.5 6.5s-6.5-2.91-6.5-6.5 2.91-6.5 6.5-6.5 6.5 2.91 6.5 6.5zm-3.988 1.5c-.301 0-.603.115-.774.284-.449.441-1.06.716-1.738.716s-1.274-.283-1.723-.721l.607-.607c.248-.248.072-.672-.278-.672h-2.526c-.32 0-.579.259-.579.579v2.526c0 .351.424.526.672.278l.695-.695c.806.804 1.905 1.311 3.133 1.311 1.252 0 2.379-.517 3.191-1.347.602-.616.183-1.653-.679-1.653zm1.988-5.105c0-.351-.424-.526-.672-.278l-.695.695c-.806-.804-1.905-1.311-3.133-1.311-1.252 0-2.379.517-3.191 1.347-.602.616-.183 1.653.679 1.653.336 0 .603-.115.774-.284.449-.441 1.06-.716 1.738-.716s1.275.283 1.723.721l-.607.607c-.248.248-.072.672.278.672h2.526c.32 0 .579-.259.579-.579v-2.526z"/></svg>