<svg id="Layer_1" viewBox="0 0 24 24" xmlns="http://www.w3.org/2000/svg" data-name="Layer 1"><path d="m10 7.742c0-.41.332-.742.742-.742h2.517c.41 0 .742.332.742.742 0 .281-.159.538-.41.663l-1.204.602c-.243.122-.529.122-.772 0l-1.204-.602c-.251-.126-.41-.382-.41-.663zm8.798 6.406c-1.002-.202-2.058.071-2.898.747-.857.689-1.979 1.534-3.056 1.949-.537.207-1.152.207-1.688 0-1.078-.415-2.199-1.26-3.056-1.949-.84-.676-1.899-.949-2.899-.746-3.257.658-5.201 3.032-5.201 6.352 0 .829.671 1.5 1.5 1.5h1.5v.5c0 .829.671 1.5 1.5 1.5s1.5-.671 1.5-1.5v-5.393c1.276.866 2.755 2.205 4.5 2.656v2.737c0 .829.671 1.5 1.5 1.5s1.5-.671 1.5-1.5v-2.737c1.745-.451 3.223-1.79 4.5-2.655v5.392c0 .829.671 1.5 1.5 1.5s1.5-.671 1.5-1.5v-.5h1.5c.829 0 1.5-.671 1.5-1.5 0-3.319-1.944-5.693-5.202-6.352zm-12.798-5.454v-2.516c0-2.345 2.329-4.389 4.283-5.678.522-.344 1.119-.5 1.717-.5.564 0 1.195.156 1.717.5 1.954 1.29 4.283 3.334 4.283 5.679v2.516c0 1.605-.835 3.083-2.179 3.856-1.208.662-2.477 1.259-3.821 1.45-1.344-.191-2.613-.788-3.822-1.45-1.343-.773-2.178-2.25-2.178-3.856zm3 0c0 .535.259 1.017.675 1.256.744.429 1.525.763 2.325.997.8-.233 1.581-.568 2.325-.996.417-.24.675-.721.675-1.256v-2.516c0-.608-.908-1.821-2.935-3.159-.04-.027-.09-.027-.13 0-2.027 1.337-2.935 2.55-2.935 3.159v2.516z"/></svg>