<svg id="Layer_1" viewBox="0 0 24 24" xmlns="http://www.w3.org/2000/svg" data-name="Layer 1"><path d="m22.787 15.789c-1.537 1.604-4.31 1.604-5.849 0l-9.157-9.059c-1.541-1.542-1.541-4.041-.006-5.577 1.183-1.181 2.931-1.463 4.391-.801 1.82-.713 3.952-.306 5.37 1.113.643.642 1.088 1.45 1.3 2.337.338.187.646.419.921.694 1.48 1.48 1.668 3.787.446 5.484-.485.673-1.423.825-2.094.341-.673-.484-.825-1.421-.342-2.094.359-.498.303-1.175-.133-1.61-.145-.146-.332-.25-.556-.311-.632-.172-1.079-.734-1.104-1.389-.015-.367-.123-.895-.56-1.332-.661-.662-1.712-.771-2.498-.264-.547.356-1.263.315-1.768-.1-.375-.308-.913-.285-1.252.053-.366.366-.366.962 0 1.329l9.158 9.058c.442.442 1.184.435 1.611.006.332-.331.427-.839.236-1.266-.338-.756 0-1.644.757-1.981.759-.339 1.645.002 1.981.758.695 1.555.352 3.408-.854 4.612zm-5.651 3.326c.821.82 1.065 2.044.621 3.117-.444 1.074-1.482 1.768-2.645 1.768h-9.612c-3.033 0-5.5-2.468-5.5-5.5v-9.647c0-1.156.69-2.188 1.758-2.63 1.068-.444 2.286-.2 3.103.617l12.275 12.276zm-2.357 1.885-11.779-11.779v9.279c0 1.379 1.122 2.5 2.5 2.5h9.278z"/></svg>