<svg id="Layer_1" viewBox="0 0 24 24" xmlns="http://www.w3.org/2000/svg" data-name="Layer 1"><path d="m24 12c0 1.381-1.119 2.5-2.5 2.5-.815 0-1.532-.396-1.989-1h-2.011c-.829 0-1.5-.671-1.5-1.5s.671-1.5 1.5-1.5h2.011c.456-.604 1.173-1 1.989-1 1.381 0 2.5 1.119 2.5 2.5zm-2.5 7c-.815 0-1.532.396-1.989 1h-3.361c-.451 0-.874-.2-1.16-.549l-.331-.403c-.525-.64-1.47-.734-2.111-.208-.64.525-.733 1.471-.208 2.111l.331.402c.858 1.046 2.126 1.646 3.479 1.646h3.361c.456.604 1.173 1 1.989 1 1.381 0 2.5-1.119 2.5-2.5s-1.119-2.5-2.5-2.5zm-7.5-7c0 3.866-3.134 7-7 7s-7-3.134-7-7 3.134-7 7-7 7 3.134 7 7zm-3 1.897c.01-1.297-.916-2.397-2.193-2.61l-3.261-.544c-.289-.048-.523-.281-.544-.574-.026-.365.263-.67.622-.67h2.376c.367 0 .689.199.862.494.182.31.509.506.869.506.763 0 1.253-.825.874-1.487-.518-.903-1.491-1.513-2.605-1.513 0-.552-.448-1-1-1s-1 .448-1 1h-.315c-1.451 0-2.673 1.152-2.685 2.603-.01 1.297.915 2.397 2.192 2.61l3.286.548c.315.052.54.331.52.655-.02.334-.315.585-.649.585h-2.35c-.367 0-.688-.199-.862-.494-.182-.31-.509-.506-.869-.506-.763 0-1.253.825-.874 1.487.518.903 1.491 1.513 2.605 1.513 0 .552.448 1 1 1s1-.448 1-1h.315c1.451 0 2.673-1.152 2.685-2.603zm2.499-8.397c.434 0 .864-.187 1.161-.548l.331-.403c.286-.349.708-.548 1.16-.548h3.361c.456.604 1.173 1 1.989 1 1.381 0 2.5-1.119 2.5-2.5s-1.119-2.5-2.5-2.5c-.815 0-1.532.396-1.989 1h-3.361c-1.353 0-2.621.6-3.479 1.646l-.331.403c-.525.641-.432 1.586.208 2.111.279.229.616.34.951.34z"/></svg>