<svg id="Layer_1" viewBox="0 0 24 24" xmlns="http://www.w3.org/2000/svg" data-name="Layer 1"><path d="m9.5 0h-4c-3.033 0-5.5 2.468-5.5 5.5v13c0 3.032 2.467 5.5 5.5 5.5h4c.829 0 1.5-.672 1.5-1.5v-21c0-.828-.671-1.5-1.5-1.5zm-1.5 21h-2.5c-1.378 0-2.5-1.121-2.5-2.5v-13c0-1.379 1.122-2.5 2.5-2.5h2.5zm10.5-21h-4c-.829 0-1.5.672-1.5 1.5v21c0 .828.671 1.5 1.5 1.5h4c3.033 0 5.5-2.468 5.5-5.5v-13c0-3.032-2.467-5.5-5.5-5.5zm2.5 18.5c0 1.379-1.122 2.5-2.5 2.5h-2.5v-18h2.5c1.378 0 2.5 1.121 2.5 2.5z"/></svg>