<svg id="Layer_1" viewBox="0 0 24 24" xmlns="http://www.w3.org/2000/svg" data-name="Layer 1"><path d="m19 5h-1c-.715 0-1.331.504-1.471 1.206l-.679 3.393c-.047.232-.253.401-.49.401h-6.721c-.238 0-.444-.169-.491-.402l-.678-3.392c-.14-.701-.756-1.206-1.471-1.206h-1c-2.756 0-4.999 2.243-4.999 5v3.5c0 3.033 2.467 5.5 5.5 5.5h13c3.032 0 5.5-2.467 5.5-5.5v-3.5c0-2.757-2.243-5-5-5zm2 8.5c0 1.378-1.121 2.5-2.5 2.5h-13c-1.378 0-2.5-1.122-2.5-2.5v-3.5c0-1.026.776-1.874 1.773-1.987l.435 2.173c.326 1.63 1.77 2.814 3.432 2.814h6.721c1.663 0 3.106-1.184 3.432-2.813l.435-2.174c.997.113 1.773.961 1.773 1.987v3.5zm-11.5-7c0-.829.671-1.5 1.5-1.5h2c.828 0 1.5.671 1.5 1.5s-.672 1.5-1.5 1.5h-2c-.829 0-1.5-.671-1.5-1.5z"/></svg>