<svg id="Layer_1" viewBox="0 0 24 24" xmlns="http://www.w3.org/2000/svg" data-name="Layer 1"><path d="m11 22.5c0 .828-.672 1.5-1.5 1.5h-4c-3.032 0-5.5-2.468-5.5-5.5v-13c0-3.032 2.468-5.5 5.5-5.5h6.758c1.184 0 2.344.48 3.181 1.318l3.242 3.242c.838.838 1.318 1.997 1.318 3.182v.758c0 .828-.672 1.5-1.5 1.5s-1.5-.672-1.5-1.5v-.758c0-.395-.16-.781-.439-1.061l-3.242-3.242c-.279-.279-.666-.439-1.061-.439h-6.757c-1.379 0-2.5 1.121-2.5 2.5v13c0 1.379 1.121 2.5 2.5 2.5h4c.828 0 1.5.672 1.5 1.5zm7-6.9c-.965 0-1.794.576-2.175 1.4h4.35c-.381-.824-1.209-1.4-2.175-1.4zm6 2.4c0 3.314-2.686 6-6 6s-6-2.686-6-6 2.686-6 6-6 6 2.686 6 6zm-2.113-.892c-.48-2.064-2.527-3.53-4.836-2.999-1.439.331-2.608 1.498-2.941 2.937-.613 2.634 1.391 4.944 3.89 4.954 1.027 0 2.083-.36 2.785-1 .306-.279.279-.772-.038-1.037-.34-.283-.835-.303-1.183-.03-.396.311-1.019.467-1.564.467-1.115 0-2.046-.768-2.315-1.8h5.003c.783 0 1.386-.731 1.199-1.492zm-13.887 1.892h2v-3h-5c0 1.657 1.343 3 3 3zm5.477-7.596c-.438-.25-.937-.404-1.477-.404h-2v3h1.079c.599-1.033 1.417-1.922 2.398-2.596zm-8.477 2.596h3v-3c-1.657 0-3 1.343-3 3z"/></svg>