<svg id="Layer_1" viewBox="0 0 24 24" xmlns="http://www.w3.org/2000/svg" data-name="Layer 1"><path d="m13.428 3.428c-.819-.819-.573-2.189.465-2.704.954-.474 2.011-.724 3.107-.724 1.87 0 3.628.729 4.949 2.051 1.322 1.321 2.051 3.079 2.051 4.949 0 1.096-.25 2.154-.724 3.108-.515 1.037-1.885 1.283-2.704.465l-2.677-2.677 4.066-.508c.061-.685-.035-1.364-.244-1.985l-3.566.446.446-3.566c-.621-.21-1.299-.306-1.985-.244l-.508 4.067-2.677-2.677zm9.19 9.578c-.959-.09-1.625.71-1.671 1.62-.527 1.804-1.516 3.492-2.785 4.756-1.032 1.028-2.505 1.618-4.04 1.618h-4.244c-1.535 0-3.008-.59-4.04-1.619-1.269-1.263-2.258-2.951-2.784-4.754-.115-.394-.041-.805.202-1.129.14-.187.454-.498.996-.498h12.247c.828 0 1.5-.672 1.5-1.5s-.672-1.5-1.5-1.5h-1.039c.024-.164.039-.33.039-.5 0-1.933-1.567-3.5-3.5-3.5s-3.5 1.567-3.5 3.5c0 .17.016.336.039.5h-1.489c-.017-.167-.051-.328-.051-.5 0-.906.223-1.758.611-2.512-1.254-.429-2.837-.836-3.946-.976-.949-.12-1.762.682-1.655 1.632.086.759.291 1.756.534 2.718-.657.288-1.24.739-1.688 1.336-.812 1.087-1.06 2.461-.679 3.77.676 2.313 1.902 4.402 3.547 6.039 1.59 1.585 3.834 2.493 6.157 2.493h4.244c2.323 0 4.567-.908 6.157-2.492 1.644-1.638 2.871-3.727 3.549-6.045.079-.274.132-.555.155-.834.071-.825-.539-1.552-1.365-1.623z"/></svg>