<svg id="Layer_1" viewBox="0 0 24 24" xmlns="http://www.w3.org/2000/svg" data-name="Layer 1"><path d="m14.5 18c1.93 0 3.5-1.57 3.5-3.5 0-1.983-.368-2.905-.778-3.75-.161-.331-.216-.444-.222-.701.097-1.253.274-1.84.461-2.461.209-.681.474-1.612.538-3.088 0-1.624-1.308-2.5-2.524-2.5-.013 0-1.319-.045-1.453-.772-.13-.711-.751-1.228-1.474-1.228h-1.096c-.723 0-1.344.517-1.475 1.229-.134.727-1.44.772-1.438.772-1.23 0-2.539.876-2.537 2.574.077 1.552.343 2.364.579 3.08.201.611.391 1.189.495 2.4-.006.229-.061.333-.229.656-.446.853-.847 1.785-.847 3.79 0 1.93 1.57 3.5 3.5 3.5h1v2.612c-.913.121-1.505.26-2.128.394-.769.064-1.372.709-1.372 1.494 0 .828.671 1.5 1.5 1.5 1.056-.099 2.106-.514 3.5-.5 1.51 0 3.074.438 3.089.442.799.229 1.626-.235 1.853-1.032.227-.796-.233-1.625-1.029-1.852-.058-.016-1.098-.308-2.413-.463v-2.595h1zm-5.5-3.5c0-1.434.245-1.903.505-2.4.255-.488.572-1.094.572-2.1-.095-1.563-.412-2.584-.646-3.284-.177-.537-.322-.979-.396-1.745.908-.1 2.121-.473 2.966-1.356.842.881 2.052 1.255 2.96 1.356-.079.783-.21 1.221-.371 1.751-.214.696-.5 1.703-.589 3.278 0 .982.29 1.58.523 2.06.246.505.477.982.477 2.44 0 .275-.224.5-.5.5h-5c-.276 0-.5-.225-.5-.5z"/></svg>