<svg id="Layer_1" viewBox="0 0 24 24" xmlns="http://www.w3.org/2000/svg" data-name="Layer 1"><path d="m23.681 10.888-.814 3.036c-.644 2.4-2.828 4.076-5.312 4.076h-10.304c-1.747 0-3.239-1.306-3.469-3.038l-1.537-11.528c-.041-.372-.426-.473-.745-.434-.829 0-1.5-.671-1.5-1.5s.671-1.5 1.5-1.5h.249c1.747 0 3.239 1.306 3.469 3.038l.262 1.962h7.02c.829 0 1.5.671 1.5 1.5s-.671 1.5-1.5 1.5h-6.62l.875 6.566c.033.248.246.434.496.434h10.303c1.129 0 2.123-.762 2.415-1.853l.814-3.036c.214-.8 1.038-1.277 1.837-1.061.8.214 1.275 1.037 1.061 1.837zm-16.681 9.112c-1.105 0-2 .895-2 2s.895 2 2 2 2-.895 2-2-.895-2-2-2zm10 0c-1.105 0-2 .895-2 2s.895 2 2 2 2-.895 2-2-.895-2-2-2zm1.953-12.188c.325.251.769.251 1.094 0 1.199-.927 3.953-3.391 3.953-5.382 0-1.342-1.007-2.43-2.25-2.43s-2.25.908-2.25 2.25c0-1.342-1.007-2.25-2.25-2.25s-2.25 1.088-2.25 2.43c0 1.991 2.754 4.455 3.953 5.382z"/></svg>