<svg id="Layer_1" viewBox="0 0 24 24" xmlns="http://www.w3.org/2000/svg" data-name="Layer 1"><path d="m9.5 21h-4c-1.378 0-2.5-1.122-2.5-2.5v-9.5h7.5c.909 0 1.748.495 2.188 1.29.401.725 1.315.985 2.039.585.725-.402.986-1.315.585-2.039-.97-1.75-2.814-2.836-4.812-2.836h-3.5v-2c0-1.105-.895-2-2-2v-.5c0-.829-.671-1.5-1.5-1.5s-1.5.671-1.5 1.5v.5c-1.105 0-2 .895-2 2v14.5c0 3.033 2.467 5.5 5.5 5.5h4c.829 0 1.5-.671 1.5-1.5s-.671-1.5-1.5-1.5z"/><path d="m18 12c-3.309.004-5.996 2.691-6 6 0 3.309 2.691 6 6 6 3.319.081 6.052-2.68 6-6 0-3.309-2.691-6-6-6zm0 9c-1.654 0-3-1.346-3-3 0-.267.046-.521.112-.767l3.655 3.655c-.246.066-.5.112-.767.112zm2.888-2.233-3.655-3.655c.246-.066.5-.112.767-.112 1.654 0 3 1.346 3 3 0 .267-.046.521-.112.767z"/></svg>