<svg id="Layer_1" viewBox="0 0 24 24" xmlns="http://www.w3.org/2000/svg" data-name="Layer 1"><path d="m24 18.5c0 .829-.672 1.5-1.5 1.5h-3.343c-.333 0-.66.113-.923.318l-3.523 2.75c-.77.601-1.732.933-2.711.933s-1.941-.332-2.711-.933l-3.523-2.749c-.263-.205-.59-.318-.923-.318h-3.343c-.828 0-1.5-.671-1.5-1.5s.672-1.5 1.5-1.5h3.343c.998 0 1.981.338 2.769.953l3.523 2.75c.492.385 1.238.384 1.73 0l2.645-2.065-3.44-3.066-.791.85c-.809.851-2.263.735-2.925-.219-.55-.762-.458-1.807.218-2.483l1.201-1.325-.143-.143c-.255-.254-.644-.318-.967-.157l-1.071.536c-.483.241-1.024.369-1.564.369h-4.528c-.828 0-1.5-.671-1.5-1.5s.672-1.5 1.5-1.5h4.528c.159.032 1.139-.53 1.294-.588 1.479-.739 3.258-.451 4.43.719l.248.249.248-.248c1.17-1.171 2.949-1.458 4.43-.719.162.061 1.129.618 1.294.588h4.528c.828 0 1.5.671 1.5 1.5s-.672 1.5-1.5 1.5h-4.528c-.54 0-1.081-.128-1.564-.369l-1.071-.536c-.324-.162-.712-.098-.967.157l-.714.714 4.632 4.129c.286-.057.576-.095.87-.095h3.343c.828 0 1.5.671 1.5 1.5zm-12-14.5c1.105 0 2-.895 2-2s-.895-2-2-2-2 .895-2 2 .895 2 2 2zm5.5-1c.827 0 1.5.673 1.5 1.5v.5h-.951c-.69 0-1.036.834-.548 1.322l2.451 2.451c.303.303.793.303 1.096 0l2.451-2.451c.488-.488.142-1.322-.548-1.322h-.951v-.5c0-2.481-2.019-4.5-4.5-4.5-.828 0-1.5.671-1.5 1.5s.672 1.5 1.5 1.5zm-14.548 5.773c.303.303.793.303 1.096 0l2.451-2.451c.488-.488.142-1.322-.548-1.322h-.951v-.5c0-.827.673-1.5 1.5-1.5s1.5-.671 1.5-1.5-.672-1.5-1.5-1.5c-2.481 0-4.5 2.019-4.5 4.5v.5h-.951c-.69 0-1.036.834-.548 1.322zm6.817-.773h4.462c.681 0 1.095-.749.74-1.33-.612-1.001-1.71-1.67-2.971-1.67s-2.359.669-2.971 1.67c-.355.581.059 1.33.74 1.33z"/></svg>