<svg id="Layer_1" viewBox="0 0 24 24" xmlns="http://www.w3.org/2000/svg" data-name="Layer 1"><path d="m18.5 5h-.5c-1.654 0-3 1.346-3 3v8h-12v-4.393l1.305 1.018c1.136.887 2.556 1.375 3.999 1.375h1.599c1.41 0 2.679-.783 3.311-2.044l.655-1.309c.633-1.262.5-2.747-.346-3.878l-.959-1.281c-.862-1.152-2.101-1.996-3.488-2.375l-3.613-.989c-1.608-.436-3.323.325-4.07 1.817l-1.019 2.033c-.248.488-.339 1.002-.374 1.526v8.5c0 1.654 1.346 3 3 3h.058c-.034.162-.058.328-.058.5 0 1.381 1.119 2.5 2.5 2.5s2.5-1.119 2.5-2.5c0-.172-.024-.338-.058-.5h8.115c-.034.162-.058.328-.058.5 0 1.381 1.119 2.5 2.5 2.5s2.5-1.119 2.5-2.5c0-.172-.024-.338-.058-.5h1.558c.829 0 1.5-.672 1.5-1.5v-7c0-3.032-2.467-5.5-5.5-5.5zm-8.337 2.258.958 1.31c.16.215.186.496.065.736l-.655 1.309c-.12.239-.361.388-.629.388h-1.579l1.84-3.742zm-7.108.059 1.019-2.032c.109-.221.365-.331.597-.268l2.84.778-1.99 3.973-2.321-1.811c-.193-.151-.254-.42-.144-.64zm17.945 4.683h-3v-4h.5c1.378 0 2.5 1.121 2.5 2.5z"/></svg>