<svg id="Layer_1" viewBox="0 0 24 24" xmlns="http://www.w3.org/2000/svg" data-name="Layer 1"><path d="m11 3c-2.757 0-5 2.243-5 5v8.485c.017.81-.692 1.531-1.5 1.515-2.533-.218-4.5-2.454-4.5-5 0-2 1.229-3.8 3-4.591v-.409c0-4.411 3.589-8 8-8s8 3.589 8 8v.489c1.46.655 2.598 1.927 2.909 3.559.02.103.036.206.049.307.112.872-.567 1.645-1.447 1.645h-3.012c-.828 0-1.5-.672-1.5-1.5v-4.5c0-2.757-2.243-5-5-5zm13 15.5c0 1.5-1.102 2.501-2.478 2.5h-.922v2.2c0 .442-.358.8-.8.8-.442 0-.8-.358-.8-.8v-6.4c0-.442.358-.8.8-.8h1.7c1.381 0 2.5 1.119 2.5 2.5zm-1.6 0c0-.496-.404-.9-.9-.9h-.9v1.8h.9c.496 0 .9-.404.9-.9zm-9.4 0c.014 1.375-1.102 2.501-2.478 2.5h-.922v2.2c0 .442-.358.8-.8.8-.442 0-.8-.358-.8-.8v-6.4c0-.442.358-.8.8-.8h1.7c1.381 0 2.5 1.119 2.5 2.5zm-1.6 0c0-.496-.404-.9-.9-.9h-.9v1.8h.9c.496 0 .9-.404.9-.9zm6.6-.2v3.4c0 1.269-1.031 2.3-2.3 2.3s-2.3-1.031-2.3-2.3v-3.4c0-1.269 1.031-2.3 2.3-2.3s2.3 1.031 2.3 2.3zm-1.6 0c0-.386-.314-.7-.7-.7s-.7.314-.7.7v3.4c0 .386.314.7.7.7s.7-.314.7-.7zm-4.224-12.3h-.008c-.366 0-.688.242-.79.593l-.7 2.407h-1.078v-2.2c0-.442-.358-.8-.8-.8-.442 0-.8.358-.8.8v6.4c0 .442.358.8.8.8.442 0 .8-.358.8-.8v-2.6l.983-.002.798 2.804c.101.354.424.598.792.598.556 0 .952-.54.785-1.07l-.915-2.903.92-2.959c.165-.53-.231-1.067-.786-1.067zm2.024 4.8c.442 0 .8-.358.8-.8s-.358-.8-.8-.8h-.4c-.442 0-.8.358-.8.8s.358.8.8.8z"/></svg>