<svg id="Layer_1" viewBox="0 0 24 24" xmlns="http://www.w3.org/2000/svg" data-name="Layer 1"><path d="m23.879 13.712c-.839 5.865-5.945 10.288-11.879 10.288-2.55 0-5.028-.831-7.068-2.315l-1.582 1.582c-.498.498-1.35.145-1.35-.559v-4.52c0-.656.531-1.187 1.187-1.187h4.52c.705 0 1.058.852.559 1.35l-1.183 1.183c1.446.95 3.133 1.467 4.916 1.467 4.45 0 8.28-3.315 8.908-7.712.117-.819.879-1.389 1.697-1.272.82.117 1.391.877 1.273 1.697zm-20.787-3c.628-4.397 4.458-7.712 8.908-7.712 1.783 0 3.469.517 4.915 1.467l-1.182 1.182c-.498.498-.145 1.35.559 1.35h4.52c.656 0 1.187-.531 1.187-1.187v-4.519c0-.705-.852-1.058-1.35-.559l-1.582 1.582c-2.038-1.486-4.515-2.316-7.067-2.316-5.934 0-11.04 4.423-11.879 10.288-.117.82.453 1.58 1.273 1.697.803.12 1.583-.449 1.697-1.272zm11.908-2.712c2.206 0 4 1.794 4 4s-1.794 4-4 4c-1.24 0-2.258-.707-3-1.475-.742.768-1.76 1.475-3 1.475-2.206 0-4-1.794-4-4s1.794-4 4-4c1.24 0 2.258.707 3 1.475.742-.768 1.76-1.475 3-1.475zm-4.787 4c-.436-.564-.94-1-1.213-1-.552 0-1 .449-1 1s.448 1 1 1c.272 0 .777-.436 1.213-1zm4.787-1c-.272 0-.777.436-1.213 1 .436.564.94 1 1.213 1 .552 0 1-.449 1-1s-.448-1-1-1z"/></svg>