<svg id="Layer_1" viewBox="0 0 24 24" xmlns="http://www.w3.org/2000/svg" data-name="Layer 1"><path d="m11.733 14c1.601 0 3.287-.763 4.245-1.722.707-.708 1.533-2.037.591-3.873l5.035-5.721c.556-.644.522-1.608-.08-2.209-.595-.595-1.547-.637-2.192-.095l-5.847 4.993c-1.78-.856-3.07-.045-3.765.649-1.557 1.557-2.599 5.036-.689 6.945.734.734 1.7 1.033 2.701 1.033zm-.679-4.23c.116-.618.432-1.273.788-1.627.118-.119.184-.145.183-.147.023 0 .336.028 1.143.835.824.824.836 1.132.838 1.134 0 0-.023.067-.148.193-.355.355-1.01.671-1.628.788-.567.106-.955.022-1.078-.099-.122-.122-.204-.51-.099-1.078zm12.461 9.735c-.609.56-1.556.523-2.12-.087l-1.707-1.854c-.527.361-1.075.687-1.644.972l.92 2.391c.297.773-.089 1.642-.861 1.939-.754.294-1.642-.08-1.939-.861l-.934-2.428c-.567.143-1.144.249-1.73.319v2.603c0 .828-.672 1.5-1.5 1.5s-1.5-.672-1.5-1.5v-2.602c-.586-.069-1.164-.176-1.731-.318l-.933 2.425c-.297.781-1.185 1.155-1.939.861-.772-.298-1.158-1.166-.861-1.939l.918-2.387c-.57-.285-1.118-.611-1.646-.973l-1.704 1.85c-.563.61-1.511.647-2.12.087-.609-.562-.648-1.511-.087-2.12l1.628-1.767c-.666-.703-1.272-1.477-1.8-2.323-.438-.703-.225-1.628.478-2.066s1.628-.226 2.066.479c2.045 3.278 5.493 5.257 9.226 5.294 3.723-.037 7.183-2.016 9.226-5.294.438-.704 1.363-.917 2.066-.479.702.438.917 1.363.478 2.066-.527.845-1.132 1.618-1.797 2.32l1.631 1.771c.561.609.522 1.559-.087 2.12z"/></svg>