<svg id="Layer_1" viewBox="0 0 24 24" xmlns="http://www.w3.org/2000/svg" data-name="Layer 1"><path d="m18.5 0h-13c-3.032 0-5.5 2.467-5.5 5.5v13c0 3.033 2.468 5.5 5.5 5.5h13c3.032 0 5.5-2.467 5.5-5.5v-13c0-3.033-2.468-5.5-5.5-5.5zm2.5 18.5c0 1.378-1.121 2.5-2.5 2.5h-13c-1.379 0-2.5-1.122-2.5-2.5v-13c0-1.378 1.121-2.5 2.5-2.5h13c1.379 0 2.5 1.122 2.5 2.5zm-3.366-11.869c.587.587.866 1.36.866 2.13 0 4.261-5.782 9.738-9.738 9.738l-.002.002c-.77 0-1.543-.278-2.13-.866l-.774-.857c-.475-.475-.475-1.246 0-1.721l1.512-1.19c.475-.475 1.246-.475 1.721 0l1.356 1.124c2.206-.842 3.579-2.148 4.538-4.538l-1.124-1.356c-.475-.475-.475-1.246 0-1.721l1.195-1.517c.475-.475 1.246-.475 1.721 0l.857.774z"/></svg>