<svg id="Layer_1" viewBox="0 0 24 24" xmlns="http://www.w3.org/2000/svg" data-name="Layer 1"><path d="m7 9.785 4 2.307v4.908l-2.956-1.86c-.65-.406-1.044-1.118-1.044-1.884v-3.47zm10 3.47v-3.454l-4 2.294v4.887l2.956-1.843c.65-.406 1.044-1.118 1.044-1.884zm-3.822-6.847c-.721-.45-1.635-.45-2.356 0l-2.742 1.714 3.92 2.24 3.92-2.24zm-4.678 11.591c-.829 0-1.5.671-1.5 1.5v.5h-2.092c-.207-.581-.756-1-1.408-1h-2c-.828 0-1.5.672-1.5 1.5v2c0 .828.672 1.5 1.5 1.5h2c.652 0 1.202-.419 1.408-1h2.592c1.378 0 2.5-1.122 2.5-2.5v-1c0-.829-.671-1.5-1.5-1.5zm14 1h-2c-.652 0-1.202.419-1.408 1h-2.092v-.5c0-.829-.672-1.5-1.5-1.5s-1.5.671-1.5 1.5v1c0 1.378 1.121 2.5 2.5 2.5h2.592c.207.581.756 1 1.408 1h2c.828 0 1.5-.672 1.5-1.5v-2c0-.828-.672-1.5-1.5-1.5zm-21-13.999h2c.652 0 1.202-.419 1.408-1h2.092v.5c0 .829.671 1.5 1.5 1.5s1.5-.671 1.5-1.5v-1c0-1.378-1.122-2.5-2.5-2.5h-2.592c-.207-.581-.756-1-1.408-1h-2c-.828 0-1.5.672-1.5 1.5v2c0 .828.672 1.5 1.5 1.5zm21-5h-2c-.652 0-1.202.419-1.408 1h-2.592c-1.379 0-2.5 1.122-2.5 2.5v1c0 .829.672 1.5 1.5 1.5s1.5-.671 1.5-1.5v-.5h2.092c.207.581.756 1 1.408 1h2c.828 0 1.5-.672 1.5-1.5v-2c0-.828-.672-1.5-1.5-1.5z"/></svg>