<svg id="Layer_1" viewBox="0 0 24 24" xmlns="http://www.w3.org/2000/svg" data-name="Layer 1"><path d="m18.5 3h-.551c-.245-1.692-1.691-3-3.449-3h-2.5c-.777 0-1.543.264-2.157.743l-7.348 5.751c-1.586 1.24-2.495 3.107-2.495 5.119v6.887c0 3.032 2.468 5.5 5.5 5.5h13c3.032 0 5.5-2.468 5.5-5.5v-10c0-3.032-2.468-5.5-5.5-5.5zm2.5 5.5v2.5h-7.5v-5h5c1.379 0 2.5 1.121 2.5 2.5zm-15.5 12.5c-1.379 0-2.5-1.121-2.5-2.5v-6.887c0-1.084.489-2.088 1.344-2.756l6.156-4.818v6.961h-1.5c-1.105 0-2 .895-2 2v2c0 1.105.895 2 2 2h1.5v4zm13 0h-5v-7h2.5v.5c0 .828.672 1.5 1.5 1.5s1.5-.672 1.5-1.5v-.5h2v4.5c0 1.379-1.121 2.5-2.5 2.5z"/></svg>