<svg id="Layer_1" viewBox="0 0 24 24" xmlns="http://www.w3.org/2000/svg" data-name="Layer 1"><path d="m12 0c-2.485 0-3.5.731-3.5 1.231v6.538c0 .5 1.015 1.231 3.5 1.231s3.5-.731 3.5-1.231v-6.538c0-.5-1.015-1.231-3.5-1.231zm1.5 5.91c-.461.053-.951.09-1.5.09-.553 0-1.041-.033-1.5-.081v-2.005c.421.053.918.086 1.5.086s1.077-.037 1.5-.095zm-10 9.09c-2.485 0-3.5.731-3.5 1.231v6.538c0 .5 1.015 1.231 3.5 1.231s3.5-.731 3.5-1.231v-6.538c0-.5-1.015-1.231-3.5-1.231zm1.5 5.91c-.461.053-.951.09-1.5.09-.553 0-1.041-.033-1.5-.081v-2.005c.421.053.918.086 1.5.086s1.077-.037 1.5-.095zm12.766-11.88c-.471-.682-.3-1.616.382-2.087.683-.47 1.616-.3 2.087.382.817 1.183 1.358 2.5 1.61 3.912.146.815-.397 1.595-1.214 1.74-.796.149-1.598-.394-1.739-1.213-.176-.987-.555-1.907-1.126-2.733zm-15.611 2.207c.252-1.413.793-2.729 1.61-3.912.471-.682 1.405-.852 2.087-.382.682.471.853 1.405.382 2.087-.571.827-.95 1.747-1.126 2.733-.141.82-.943 1.362-1.739 1.213-.816-.145-1.359-.924-1.214-1.74zm12.821 9.87c.146.815-.398 1.594-1.215 1.739-.579.103-1.172.155-1.762.155s-1.183-.052-1.762-.155c-.816-.145-1.36-.923-1.215-1.739s.921-1.358 1.738-1.215c.814.145 1.662.145 2.477 0 .81-.143 1.594.399 1.738 1.215zm.523-10.488v4.763c0 .341-.277.618-.618.618s-.618-.277-.618-.618v-4.763c0-.341.277-.618.618-.618s.618.277.618.618zm-6.085 4.987.352-.932h1.983l.352.934c.089.236.315.393.568.393.424 0 .717-.424.568-.821l-1.772-4.695c-.11-.291-.389-.484-.7-.484s-.589.192-.699.482l-1.788 4.693c-.151.397.142.823.567.823h.003c.252 0 .479-.156.568-.393zm1.348-3.549.53 1.404h-1.064l.535-1.404zm9.737 2.943c-2.485 0-3.5.731-3.5 1.231v6.538c0 .5 1.015 1.231 3.5 1.231s3.5-.731 3.5-1.231v-6.538c0-.5-1.015-1.231-3.5-1.231zm1.5 5.91c-.461.053-.951.09-1.5.09-.553 0-1.041-.033-1.5-.081v-2.005c.421.053.918.086 1.5.086s1.077-.037 1.5-.095z"/></svg>