<svg id="Layer_1" viewBox="0 0 24 24" xmlns="http://www.w3.org/2000/svg" data-name="Layer 1"><path d="m13.5 1.5v8.396c0 2.802-1.786 5.281-4.444 6.167-.334.093-1.214.463-1.556.438-.628 0-1.214-.397-1.423-1.026-.262-.786.162-1.635.948-1.897l1.081-.36c1.432-.478 2.394-1.812 2.394-3.321v-8.397c0-.829.672-1.5 1.5-1.5s1.5.671 1.5 1.5zm-3.658 16.54c-.815-.191-1.614.313-1.803 1.119-.132.566-.563 1.011-1.146 1.166-.316.069-2.277.696-2.562.675-.723-.04-1.292-.482-1.331-1.335 0-1.137.13-2.277.386-3.388l1.564-6.779c.308-1.334 1.408-2.343 2.736-2.51.822-.103 1.405-.853 1.302-1.675s-.854-1.399-1.675-1.302c-2.571.322-4.696 2.256-5.287 4.811l-1.564 6.781c-.307 1.332-.462 2.698-.462 4.062-.054 2.334 2.017 4.378 4.336 4.335.92.027 2.474-.574 3.35-.782 1.635-.436 2.89-1.729 3.275-3.377.188-.807-.312-1.613-1.119-1.802zm6.472-11.051c.891.112 1.703.61 2.23 1.369.477.685 1.416.844 2.088.375.681-.473.848-1.408.375-2.088-1.013-1.455-2.588-2.415-4.32-2.631-.816-.098-1.572.479-1.675 1.302-.104.822.479 1.572 1.302 1.675zm6.847 16.462c-.528.644-1.472.733-2.11.211-.341-.279-1.14-.954-2.05-1.86-.91.907-1.709 1.582-2.05 1.86-.642.523-1.585.431-2.11-.211-.524-.641-.431-1.585.21-2.111.598-.49 1.282-1.116 1.947-1.794-1.107-1.441-1.997-3.062-1.997-4.545 0-2.206 1.794-4 4-4s4 1.794 4 4c0 1.484-.89 3.104-1.997 4.545.665.678 1.35 1.304 1.947 1.794.641.525.734 1.47.21 2.111zm-3.16-8.45c0-.551-.448-1-1-1s-1 .449-1 1c0 .571.397 1.356 1 2.203.603-.846 1-1.631 1-2.203z"/></svg>