<svg id="Layer_1" viewBox="0 0 24 24" xmlns="http://www.w3.org/2000/svg" data-name="Layer 1"><path d="m5.946 20.532c.715-.51 1.155-1.381 1.035-2.35-.158-1.274-1.33-2.182-2.613-2.182h-1.567c-.442 0-.8.358-.8.8v6.4c0 .442.358.8.8.8.442 0 .8-.358.8-.8v-2.2h.784l.687 2.363c.11.378.456.637.849.637.537 0 .922-.519.754-1.075l-.728-2.393zm-1.446-1.132h-.9v-1.8h.9c.496 0 .9.404.9.9s-.404.9-.9.9zm8-13.956v-2.888c0-1.401 1.147-2.582 2.548-2.556.933.018 1.741.546 2.155 1.318.287.534-.097 1.182-.703 1.182-.29 0-.567-.151-.699-.409-.158-.308-.488-.514-.863-.489-.478.032-.838.45-.838.929v2.938c0 .479.361.897.838.929.375.025.705-.181.863-.489.132-.258.409-.409.699-.409.606 0 .99.647.703 1.182-.414.772-1.222 1.3-2.155 1.318-1.401.027-2.548-1.154-2.548-2.556zm-8.052-.908c.734-.477 1.153-1.388 1.033-2.354-.159-1.274-1.33-2.182-2.613-2.182h-1.568c-.442 0-.8.358-.8.8v6.4c0 .442.358.8.8.8.442 0 .8-.358.8-.8v-2.2h.784l.698 2.402c.103.355.428.598.797.598.557 0 .957-.539.794-1.072l-.726-2.392zm-1.448-1.136h-.9v-1.8h.9c.496 0 .9.404.9.9s-.404.9-.9.9zm14.5 19.8c0 .442-.358.8-.8.8h-1.9c-.442 0-.8-.358-.8-.8v-6.4c0-.442.358-.8.8-.8s.8.358.8.8v5.6h1.1c.442 0 .8.358.8.8zm4.5 0c0 .442-.358.8-.8.8h-1.9c-.442 0-.8-.358-.8-.8v-6.4c0-.442.358-.8.8-.8s.8.358.8.8v5.6h1.1c.442 0 .8.358.8.8zm1.163-16.27c.167.53-.229 1.07-.785 1.07-.368 0-.691-.244-.792-.598l-.798-2.804-.688.002v2.6c0 .442-.358.8-.8.8-.442 0-.8-.358-.8-.8v-6.4c0-.442.358-.8.8-.8.442 0 .8.358.8.8v2.2h.784l.7-2.407c.102-.351.424-.593.79-.593h.008c.555 0 .951.538.786 1.067l-.92 2.959.915 2.903zm-12.863 9.07c-1.269 0-2.3 1.031-2.3 2.3v3.4c0 1.269 1.031 2.3 2.3 2.3s2.3-1.031 2.3-2.3v-3.4c0-1.269-1.031-2.3-2.3-2.3zm.7 5.7c0 .386-.314.7-.7.7s-.7-.314-.7-.7v-3.4c0-.386.314-.7.7-.7s.7.314.7.7zm.1-16v-3.4c0-1.269-1.031-2.3-2.3-2.3s-2.3 1.031-2.3 2.3v3.4c0 1.269 1.031 2.3 2.3 2.3s2.3-1.031 2.3-2.3zm-3 0v-3.4c0-.386.314-.7.7-.7s.7.314.7.7v3.4c0 .386-.314.7-.7.7s-.7-.314-.7-.7zm5.9 9c0 .442-.358.8-.8.8h-1.577c-1.267 0-2.425-.889-2.598-2.145-.166-1.203.526-2.264 1.55-2.673-.307-.346-.574-.762-.574-1.182 0-.828.672-1.5 1.5-1.5s1.5.672 1.5 1.5c0 .348-.488 1.105-.562 1.221.34.455.868 1.165.954 1.292.244.359.09.987-.602.987-.207 0-.578-.043-.788-.327l-.49-.655c-.69.085-.911.535-.911.982 0 .496.404.9.9.9h1.701c.442 0 .799.358.799.8z"/></svg>