<svg id="Layer_1" viewBox="0 0 24 24" xmlns="http://www.w3.org/2000/svg" data-name="Layer 1"><path d="m10.95 17 .445 6.142c.034.463-.333.858-.798.858-.419 0-.768-.324-.798-.742l-.265-3.66-.798 1.756c-.304.668-1.253.668-1.557 0l-.798-1.756-.265 3.66c-.03.418-.378.742-.798.742-.465 0-.832-.394-.798-.858l.445-6.142c.043-.705.472-1 .988-1 .342 0 .66.242.841.64l1.164 2.56 1.164-2.56c.181-.398.499-.64.841-.64.516 0 .945.295.988 1zm11.983 3.544c.024-.014.036-.023.055-.035-.018.012-.018.012-.042.029l.74 2.43c.156.514-.228 1.033-.765 1.033h-.064c-.356 0-.669-.235-.768-.576l-.705-2.424h-.784v2.2c0 .442-.358.8-.8.8-.442 0-.8-.358-.8-.8v-6.4c0-.442.358-.8.8-.8h1.567c1.284 0 2.456.908 2.613 2.182.121.976-.324 1.854-1.047 2.362zm-.533-2.044c0-.496-.404-.9-.9-.9h-.9v1.8h.9c.496 0 .9-.404.9-.9zm-5.441-.874 1.142 5.435c.107.5-.296.964-.804.937-.368 0-.685-.257-.761-.617l-.165-.782h-2.379l-.175.79c-.079.356-.394.61-.759.61-.494 0-.863-.456-.76-.939l1.165-5.479c.168-.864.87-1.583 1.742-1.581.894.006 1.563.69 1.753 1.627zm-.924 3.373-.641-3.044c-.047-.231-.144-.334-.168-.349l-.017-.006c-.071.042-.146.146-.176.296l-.686 3.104h1.688zm2.465-18.999h-.5v-.5c0-.829-.672-1.5-1.5-1.5s-1.5.671-1.5 1.5v.5h-6v-.5c0-.829-.672-1.5-1.5-1.5s-1.5.671-1.5 1.5v.5h-.5c-3.032 0-5.5 2.467-5.5 5.5v12c0 .829.672 1.5 1.5 1.5s1.5-.671 1.5-1.5v-10.5h18v3.5c0 .829.672 1.5 1.5 1.5s1.5-.671 1.5-1.5v-5c0-3.033-2.468-5.5-5.5-5.5z"/></svg>