<svg id="Layer_1" viewBox="0 0 24 24" xmlns="http://www.w3.org/2000/svg" data-name="Layer 1"><path d="m9 20.5c0 .829-.671 1.5-1.5 1.5h-2c-3.033 0-5.5-2.467-5.5-5.5v-11c0-3.033 2.467-5.5 5.5-5.5h2.528c.54 0 1.081.127 1.564.369l3.156 1.579c.068.034.146.053.224.053h5.528c3.032 0 5.5 2.467 5.5 5.5 0 .829-.672 1.5-1.5 1.5s-1.5-.671-1.5-1.5c0-.171-.018-.338-.051-.5h-17.949v9.5c0 1.378 1.122 2.5 2.5 2.5h2c.829 0 1.5.671 1.5 1.5zm7.238 1.131c-.797.567-1.879.477-2.573-.217-.377-.378-.586-.88-.586-1.414s.209-1.036.587-1.414l1.413-1.414c.599-.6 1.514-.755 2.277-.392.496.239 1.095.027 1.333-.471.238-.499.027-1.095-.472-1.333-1.521-.728-3.355-.415-4.553.782l-1.414 1.415c-.756.755-1.172 1.76-1.172 2.828s.416 2.073 1.172 2.828c.778.778 1.799 1.172 2.829 1.172.807 0 1.617-.241 2.318-.74.45-.32.555-.945.234-1.395-.319-.449-.943-.555-1.395-.234zm1.443-9.871c-.45.32-.555.945-.234 1.395s.945.557 1.395.234c.799-.569 1.88-.476 2.572.217.378.378.586.88.586 1.415s-.208 1.036-.586 1.414l-1.414 1.414c-.601.599-1.516.755-2.277.392-.496-.237-1.094-.026-1.333.471-.238.499-.027 1.095.472 1.333.548.262 1.136.389 1.72.389 1.039 0 2.066-.404 2.833-1.171l1.414-1.415c.756-.755 1.172-1.76 1.172-2.828s-.416-2.073-1.172-2.829c-1.387-1.387-3.55-1.569-5.146-.432z"/></svg>