<svg id="Layer_1" viewBox="0 0 24 24" xmlns="http://www.w3.org/2000/svg" data-name="Layer 1"><path d="m0 8.5c0-.829.672-1.5 1.5-1.5h1.197c.142-.548.358-1.066.64-1.542l-.898-.897c-.586-.586-.586-1.536 0-2.122s1.535-.585 2.121 0l.898.898c.476-.281.993-.498 1.541-.639v-1.198c.001-.829.673-1.5 1.501-1.5s1.5.671 1.5 1.5v1.194c.544.14 1.065.35 1.549.636l.891-.891c.586-.585 1.535-.585 2.121 0s.586 1.536 0 2.122l-1.818 1.818c-.586.585-1.535.585-2.121 0-.566-.567-1.32-.879-2.121-.879-1.654 0-3 1.346-3 3 0 .469.104.917.311 1.332.369.741.067 1.642-.675 2.011-.726.366-1.641.075-2.011-.675-.188-.376-.327-.768-.43-1.168h-1.196c-.828 0-1.5-.671-1.5-1.5zm22.5 12.5h-4c-2.262 0-4.673-1.905-7.004-3.748-2.646-2.091-5.383-4.252-8.496-4.252-.616 0-1.253.087-1.89.259-.8.216-1.273 1.039-1.058 1.839.216.799 1.037 1.271 1.839 1.058.383-.104.756-.156 1.109-.156 2.071 0 4.289 1.752 6.636 3.606 2.734 2.16 5.561 4.394 8.864 4.394h4c.828 0 1.5-.671 1.5-1.5s-.672-1.5-1.5-1.5zm-8.5-5.5c0 .828.672 1.5 1.5 1.5s1.5-.672 1.5-1.5-.672-1.5-1.5-1.5-1.5.672-1.5 1.5zm4-3c0 .828.672 1.5 1.5 1.5s1.5-.672 1.5-1.5-.672-1.5-1.5-1.5-1.5.672-1.5 1.5zm-14.5 5.5c-.828 0-1.5.672-1.5 1.5s.672 1.5 1.5 1.5 1.5-.672 1.5-1.5-.672-1.5-1.5-1.5zm4 3c-.828 0-1.5.672-1.5 1.5s.672 1.5 1.5 1.5 1.5-.672 1.5-1.5-.672-1.5-1.5-1.5zm2.135-9.941c-.677.478-.838 1.414-.36 2.091.481.682 1.422.834 2.091.36.851-.601 1.689-1.263 2.5-1.904 2.347-1.854 4.563-3.606 6.635-3.606.492 0 .957.085 1.5.261.786.254 1.634-.177 1.889-.965.256-.788-.177-1.634-.965-1.89-.833-.27-1.624-.407-2.424-.407-3.113 0-5.85 2.162-8.495 4.252-.779.616-1.585 1.252-2.37 1.807z"/></svg>