<svg id="Layer_1" viewBox="0 0 24 24" xmlns="http://www.w3.org/2000/svg" data-name="Layer 1"><path d="m15.334 10.168c.329.598.111 1.35-.488 1.679-.598.329-1.35.111-1.679-.487-.183-.334-.196-1.154-.171-1.814.017-.452.506-.721.897-.493.571.333 1.257.783 1.44 1.116zm8.666 6.832c0 2.155-.564 3.766-1.725 4.924-1.959 1.954-5.061 2.076-8.676 2.076h-2.409c-3.969.01-7.366.019-9.466-2.076-1.16-1.157-1.725-2.768-1.725-4.924.001-4.234 2.259-8.508 5.702-10.938-.616-.876-.838-1.95-.621-2.993.208-1.006.796-1.871 1.655-2.436 1.116-.735 2.511-.822 3.684-.297.988-.438 2.176-.438 3.162 0 1.175-.526 2.567-.437 3.685.298.858.563 1.446 1.429 1.654 2.435.217 1.045-.005 2.121-.621 2.993 3.443 2.43 5.701 6.704 5.701 10.938zm-3 0c0-3.538-2.028-7.108-5.047-8.885-.557-.327-.935-.877-1.037-1.51-.102-.624.078-1.256.494-1.734.203-.234.364-.428.454-.562.121-.185.164-.411.118-.632s-.175-.412-.364-.536c-.322-.212-.745-.18-1.03.075-.567.508-1.423.512-1.993.009-.116-.103-.314-.225-.595-.225s-.479.122-.595.225c-.57.504-1.428.499-1.993-.009-.284-.255-.707-.286-1.029-.076-.19.125-.319.315-.365.537s-.003.448.122.637c.086.129.247.323.45.558.416.478.596 1.109.494 1.733-.103.632-.48 1.183-1.037 1.51-3.019 1.777-5.047 5.347-5.047 8.885 0 1.318.275 2.233.843 2.8 1.22 1.217 4.052 1.214 7.34 1.201h1.635c3.294.015 6.12.016 7.34-1.201.567-.566.843-1.481.843-2.8zm-10.893-7.948c-.571.333-1.257.783-1.44 1.116-.329.598-.111 1.35.488 1.679.598.329 1.35.111 1.679-.487.183-.334.196-1.154.171-1.814-.017-.452-.506-.721-.897-.493z"/></svg>