<svg id="Layer_1" viewBox="0 0 24 24" xmlns="http://www.w3.org/2000/svg" data-name="Layer 1"><path d="m9.058 5.87c.469-1.103 1.609-1.882 2.942-1.882s2.473.779 2.942 1.882c.228.537-.231 1.12-.843 1.12h-4.198c-.612 0-1.071-.582-.843-1.12zm2.942-2.868c.829 0 1.501-.672 1.501-1.501s-.672-1.501-1.501-1.501-1.501.672-1.501 1.501.672 1.501 1.501 1.501zm-3.502 9.992c-.828 0-1.501.673-1.501 1.501s.673 1.501 1.501 1.501 1.501-.673 1.501-1.501-.673-1.501-1.501-1.501zm7.004 0c-.828 0-1.501.673-1.501 1.501s.673 1.501 1.501 1.501 1.501-.673 1.501-1.501-.673-1.501-1.501-1.501zm7.504 7.504c0 1.931-1.571 3.502-3.502 3.502-2.196 0-4.011-2.359-4.897-3.765-.094-.149-.251-.237-.421-.237h-4.373c-.17 0-.326.089-.421.238-.886 1.405-2.702 3.764-4.897 3.764-1.931 0-3.502-1.571-3.502-3.502 0-1.858.689-4.558 2.047-8.027.815-2.081 2.872-3.48 5.119-3.48h7.682c2.247 0 4.304 1.398 5.119 3.48 1.358 3.469 2.047 6.17 2.047 8.027zm-3.001 0c0-.834-.239-2.843-1.84-6.933-.368-.94-1.302-1.572-2.323-1.572h-7.682c-1.022 0-1.955.632-2.323 1.572-1.602 4.089-1.84 6.098-1.84 6.933 0 .276.224.5.5.5.233-.002 1.224-.565 2.359-2.364.647-1.026 1.753-1.639 2.959-1.639h4.373c1.206 0 2.312.613 2.959 1.638 1.135 1.8 2.126 2.363 2.359 2.365.276 0 .5-.225.5-.5zm-3.1-13.508h4.198c.612 0 1.071-.582.843-1.12-.469-1.103-1.609-1.882-2.942-1.882s-2.473.779-2.942 1.882c-.228.537.231 1.12.843 1.12zm2.099-3.988c.829 0 1.501-.672 1.501-1.501s-.672-1.501-1.501-1.501-1.501.672-1.501 1.501.672 1.501 1.501 1.501zm-16.107 3.988h4.198c.612 0 1.071-.582.843-1.12-.469-1.103-1.609-1.882-2.942-1.882s-2.473.779-2.942 1.882c-.228.537.231 1.12.843 1.12zm2.099-3.988c.829 0 1.501-.672 1.501-1.501s-.672-1.501-1.501-1.501-1.501.672-1.501 1.501.672 1.501 1.501 1.501z"/></svg>