<svg id="Layer_1" viewBox="0 0 24 24" xmlns="http://www.w3.org/2000/svg" data-name="Layer 1"><path d="m5 17c.239 0 .478-.057.695-.171 1.294-.677 4.305-2.575 4.305-5.573v-3.1c0-.953-.608-1.793-1.513-2.09l-3.019-.992c-.305-.1-.632-.1-.937 0l-3.018.992c-.905.297-1.514 1.137-1.514 2.09v3.1c0 2.999 3.011 4.896 4.305 5.573.218.114.456.171.695.171zm-2-5.744v-2.521l2-.657 2 .657v2.521c0 .907-.968 1.842-2 2.509-1.032-.667-2-1.602-2-2.509zm10 6.744h-2c-.829 0-1.5-.671-1.5-1.5s.671-1.5 1.5-1.5h2c.828 0 1.5.671 1.5 1.5s-.672 1.5-1.5 1.5zm2.5-7c.828 0 1.5.671 1.5 1.5s-.672 1.5-1.5 1.5h-2.5c-.829 0-1.5-.671-1.5-1.5s.671-1.5 1.5-1.5zm-4.5 11.5c0 .829-.671 1.5-1.5 1.5h-2c-2.511 0-4.702-1.697-5.327-4.126-.207-.802.276-1.62 1.079-1.826.802-.207 1.62.277 1.826 1.079.284 1.103 1.28 1.874 2.421 1.874h2c.829 0 1.5.671 1.5 1.5zm-7.27-19.007c-.548-.621-.489-1.569.132-2.117 1.004-.887 2.296-1.375 3.638-1.375h6.343c1.47 0 2.851.572 3.89 1.611l2.656 2.657c.897.913 1.512 2.042 1.611 3.232v2c0 .829-.672 1.5-1.5 1.5s-1.5-.671-1.5-1.5v-.5h-4c-1.105 0-2-.895-2-2v-4.001h-5.5c-.61 0-1.197.222-1.653.625-.621.548-1.57.49-2.117-.132zm19.53 13.523-5.715 5.715c-.813.813-1.915 1.269-3.064 1.269h-.955c-.276 0-.5-.224-.5-.5v-.955c0-1.149.457-2.252 1.269-3.064l5.808-5.808c.953-.953 2.534-.894 3.409.176.761.93.598 2.317-.252 3.167z"/></svg>