<svg id="Layer_1" viewBox="0 0 24 24" xmlns="http://www.w3.org/2000/svg" data-name="Layer 1"><path d="m2.5 8h.85c.826 2.327 3.043 4 5.65 4s4.824-1.673 5.65-4h.85c.828 0 1.5-.672 1.5-1.5v-1c0-.828-.672-1.5-1.5-1.5h-.85c-.826-2.327-3.043-4-5.65-4s-4.824 1.673-5.65 4h-.85c-.828 0-1.5.672-1.5 1.5v1c0 .828.672 1.5 1.5 1.5zm6.5 1c-1.665.002-3.038-1.379-2.995-3.048.158.015.311.048.474.048 1.818 0 3.394-.979 4.265-2.431.757.545 1.256 1.429 1.256 2.431 0 1.654-1.346 3-3 3zm.997 6.418c.055.827-.572 1.541-1.398 1.596-2.988.196-5.389 2.597-5.585 5.585-.051.828-.778 1.454-1.595 1.398-.827-.055-1.453-.769-1.398-1.596.294-4.483 3.898-8.087 8.381-8.382.825-.05 1.541.571 1.595 1.398zm14.003 7.344c0 .683-.556 1.238-1.238 1.238-.951 0-2.531-1.442-3.456-2.793-.52-.76-1.385-1.207-2.306-1.207-.921 0-1.786.447-2.306 1.207-.924 1.351-2.505 2.793-3.456 2.793-.683 0-1.238-.556-1.238-1.238 0-.603.253-2.635 1-5.058.112-.363.369-1.872 2-2.463v-.741c0-.828.672-1.5 1.5-1.5s1.5.672 1.5 1.5v.5h2v-.5c0-.828.672-1.5 1.5-1.5s1.5.672 1.5 1.5v.741c1.631.591 1.888 2.099 2 2.463.746 2.424 1 4.455 1 5.058z"/></svg>