<svg id="Layer_1" viewBox="0 0 24 24" xmlns="http://www.w3.org/2000/svg" data-name="Layer 1"><path d="m5 14h3v3.07c0 .513-.416.93-.93.93h-.328c-.359 0-.712-.196-.839-.531-.214-.566-.762-.969-1.403-.969-.593 0-1.106.344-1.349.844-.208.427-.696.645-1.143.488-.858-.301-1.539-.981-1.839-1.839-.157-.448.062-.936.488-1.143.499-.243.844-.756.844-1.349 0-.641-.402-1.189-.969-1.403-.336-.127-.531-.48-.531-.839-.005-.363.191-.726.531-.854.566-.214.969-.762.969-1.403s-.402-1.189-.969-1.403c-.336-.127-.531-.48-.531-.839-.005-.363.191-.726.531-.854.566-.214.969-.762.969-1.403 0-.593-.344-1.106-.844-1.349-.427-.211-.646-.699-.489-1.147.301-.858.981-1.538 1.839-1.839.448-.157.935.062 1.143.488.243.499.756.844 1.349.844.641 0 1.189-.403 1.403-.969.127-.336.48-.531.839-.531h.515c.359 0 .712.196.839.531.214.566.762.969 1.403.969.593 0 1.106-.344 1.349-.844.208-.427.696-.645 1.143-.488.859.301 1.539.982 1.84 1.841.156.445-.057.934-.481 1.14-.352.171-.627.478-.759.851h-7.59c-.552 0-1 .448-1 1v8c0 .552.448 1 1 1zm17.5 1c0 .641.402 1.189.969 1.403.341.129.537.491.531.854 0 .359-.196.712-.531.839-.566.215-.969.762-.969 1.403 0 .593.344 1.106.844 1.349.426.208.645.695.488 1.143-.301.859-.981 1.539-1.84 1.84-.448.157-.935-.062-1.143-.488-.243-.5-.756-.844-1.349-.844-.641 0-1.189.402-1.403.969-.127.336-.48.531-.839.531h-.515c-.359 0-.712-.196-.839-.531-.214-.566-.762-.969-1.403-.969-.593 0-1.106.344-1.349.844-.208.426-.695.645-1.143.488-.859-.301-1.539-.981-1.84-1.84-.157-.448.062-.935.488-1.143.5-.243.844-.756.844-1.349 0-.641-.402-1.189-.969-1.403-.336-.127-.531-.48-.531-.839-.005-.363.191-.726.531-.854.566-.214.969-.762.969-1.403s-.402-1.189-.969-1.403c-.336-.127-.531-.48-.531-.839-.005-.363.191-.726.531-.854.566-.214.969-.762.969-1.403 0-.593-.344-1.106-.844-1.349-.426-.208-.645-.695-.488-1.143.301-.859.981-1.539 1.84-1.84.448-.157.935.062 1.143.488.243.5.756.844 1.349.844.641 0 1.189-.403 1.403-.969.127-.336.48-.531.839-.531h.515c.359 0 .712.196.839.531.214.566.762.969 1.403.969.593 0 1.106-.344 1.349-.844.208-.426.695-.645 1.143-.488.859.301 1.539.981 1.84 1.84.157.448-.062.935-.488 1.143-.5.243-.844.756-.844 1.349 0 .641.402 1.189.969 1.403.341.129.537.491.531.854 0 .359-.196.712-.531.839-.566.215-.969.762-.969 1.403zm-2.5-4c0-.552-.448-1-1-1h-4c-.552 0-1 .448-1 1v8c0 .552.448 1 1 1h4c.552 0 1-.448 1-1z"/></svg>