<svg id="Layer_1" viewBox="0 0 24 24" xmlns="http://www.w3.org/2000/svg" data-name="Layer 1"><path d="m9.985 20.521c-.106.749-.748 1.29-1.483 1.29-2.079-.222-3.735-.869-5.236-1.654-.184.433-.269.914-.268 1.347l.002.993c.002.829-.668 1.502-1.496 1.504h-.004c-.827 0-1.498-.669-1.5-1.496l-.002-.995c-.003-2.628 1.474-4.788 3.689-5.426.928-.428 1.309-1.038 1.309-2.083l.004-8.204c-1.903-.524-3.461-2.015-3.952-3.922-.207-.804.276-1.621 1.078-1.828s1.62.277 1.826 1.079c.275 1.068 1.37 1.874 2.547 1.874h5c2.821 0 5.377 1.559 6.67 4.068.379.736.09 1.641-.646 2.021-.721.376-1.64.097-2.021-.646-.776-1.506-2.31-2.442-4.003-2.442h-3.501l-.002 4.602c.451.193 1.108.398 1.89.398.723 0 1.162-.168 1.77-.401.439-.168.937-.359 1.557-.479.821-.155 1.601.374 1.758 1.187.158.813-.374 1.601-1.187 1.758-.363.07-.685.193-1.056.335-.697.268-1.565.6-2.842.6-.703 0-1.333-.103-1.891-.245.062 1.819-.606 3.386-1.947 4.384.79.308 1.636.54 2.661.685.82.116 1.391.875 1.275 1.695zm12.515-1.521c-.202 0-.395.041-.571.114l-.985-.568c.072-.354.072-.741 0-1.094l1.879-1.085c.478-.276.642-.888.366-1.366-.277-.479-.888-.643-1.366-.366l-1.89 1.091c-.274-.234-.587-.418-.933-.541v-1.573c.305-.275.5-.668.5-1.111 0-.828-.672-1.5-1.5-1.5s-1.5.672-1.5 1.5c0 .443.195.836.5 1.111v1.573c-.346.123-.659.307-.933.541l-1.89-1.091c-.48-.276-1.09-.111-1.366.366-.276.479-.112 1.09.366 1.366l1.879 1.085c-.072.353-.072.741 0 1.094l-.985.568c-.176-.073-.368-.114-.571-.114-.828 0-1.5.672-1.5 1.5s.672 1.5 1.5 1.5c.679 0 1.246-.454 1.431-1.073l1.133-.654c.275.235.589.42.936.543v2.184c0 .553.448 1 1 1s1-.447 1-1v-2.184c.347-.124.661-.309.936-.543l1.133.654c.185.619.752 1.073 1.431 1.073.828 0 1.5-.672 1.5-1.5s-.672-1.5-1.5-1.5z"/></svg>