<svg id="Layer_1" viewBox="0 0 24 24" xmlns="http://www.w3.org/2000/svg" data-name="Layer 1"><path d="m9.153 8.311c.959.775.843 2.689.843 2.689s-1.729-.111-2.562-.84c-.529-.463-.581-1.243-.106-1.753s1.278-.537 1.825-.095zm3.522.095c-.475-.51-1.278-.537-1.825-.095-.959.775-.843 2.689-.843 2.689s1.729-.111 2.562-.84c.529-.463.581-1.243.106-1.753zm-.174 2.594h-1.5v5h1.5c.828 0 1.5-.672 1.5-1.5v-2c0-.828-.672-1.5-1.5-1.5zm-6.5 1.5v2c0 .828.672 1.5 1.5 1.5h1.5v-5h-1.5c-.828 0-1.5.672-1.5 1.5zm15-.5c0 .827.673 1.5 1.5 1.5s1.5.671 1.5 1.5v.5c0 3.033-2.468 5.5-5.5 5.5h-13.001c-3.033 0-5.5-2.467-5.5-5.5v-7c0-3.033 2.467-5.5 5.5-5.5h13c3.032 0 5.5 2.467 5.5 5.5v.5c0 .829-.672 1.5-1.5 1.5s-1.5.673-1.5 1.5zm-3 0c0-1.917 1.205-3.559 2.898-4.206-.305-1.036-1.265-1.794-2.398-1.794h-13.001c-1.378 0-2.5 1.122-2.5 2.5v7c0 1.378 1.122 2.5 2.5 2.5h13c1.134 0 2.094-.758 2.398-1.794-1.693-.646-2.898-2.288-2.898-4.206z"/></svg>