<svg id="Layer_1" viewBox="0 0 24 24" xmlns="http://www.w3.org/2000/svg" data-name="Layer 1"><path d="m22.732 13.013c1.565 1.428 1.692 3.875.282 5.455l-4.389 5.02c-.296.339-.712.513-1.13.513-.35 0-.702-.122-.986-.371-.624-.545-.688-1.493-.142-2.117l4.398-5.031c.33-.371.302-.927-.055-1.252-.173-.158-.404-.24-.636-.229-.236.011-.453.113-.612.288l-3.511 3.858c-.224 1.577-1.467 2.87-3.079 3.101l-5.162.737c-.818.114-1.58-.453-1.697-1.273s.453-1.58 1.273-1.697l5.161-.737c.313-.045.551-.318.551-.636 0-.354-.288-.642-.643-.642h-7.855c-.827 0-1.5.673-1.5 1.5v3c0 .829-.672 1.5-1.5 1.5s-1.5-.671-1.5-1.5v-3c0-2.481 2.019-4.5 4.5-4.5h7.857c.942 0 1.794.369 2.441.958l2.446-2.688c.699-.768 1.654-1.217 2.69-1.265 1.032-.05 2.029.31 2.797 1.008zm-3.232-8.013c1.381 0 2.5-1.119 2.5-2.5s-1.119-2.5-2.5-2.5-2.5 1.119-2.5 2.5 1.119 2.5 2.5 2.5zm-19.5 1c0-3.314 2.686-6 6-6s6 2.686 6 6-2.686 6-6 6-6-2.686-6-6zm4.447.504 2.791.559c.304.062.514.359.451.677-.054.273-.308.46-.586.46h-2.334c-.203 0-.387-.087-.515-.226-.154-.167-.437-.274-.664-.274-.655 0-1.01.763-.592 1.266.422.509 1.059.833 1.77.833h.431v.4c0 .442.358.8.8.8s.8-.358.8-.8v-.4h.28c1.091 0 2.046-.785 2.199-1.865.164-1.158-.613-2.217-1.725-2.439l-2.792-.559c-.304-.061-.514-.36-.449-.678.055-.272.309-.458.587-.458h2.307c.203 0 .387.087.515.226.154.167.437.274.664.274.655 0 1.01-.763.592-1.266-.422-.509-1.059-.833-1.77-.833h-.405v-.4c0-.442-.358-.8-.8-.8s-.8.358-.8.8v.4h-.28c-1.091 0-2.046.786-2.199 1.866-.163 1.158.613 2.216 1.725 2.439zm15.053-.504c-2.485 0-4.5 2.015-4.5 4.5v.5c0 .462.319.833.745.948 1.055-1.215 2.669-1.94 4.255-1.947 1.467-.026 2.885.492 4 1.473v-.975c0-2.485-2.015-4.5-4.5-4.5z"/></svg>