<svg id="Layer_1" viewBox="0 0 24 24" xmlns="http://www.w3.org/2000/svg" data-name="Layer 1"><path d="m5 16.5c0-.828.672-1.5 1.5-1.5s1.5.672 1.5 1.5-.672 1.5-1.5 1.5-1.5-.672-1.5-1.5zm19-5v6c0 3.033-2.467 5.5-5.5 5.5h-13c-3.033 0-5.5-2.467-5.5-5.5v-7c0-3.033 2.467-5.5 5.5-5.5h8c.829 0 1.5.671 1.5 1.5s-.671 1.5-1.5 1.5h-8c-1.208 0-2.217.86-2.45 2h19.45c.829 0 1.5.671 1.5 1.5zm-3 1.5h-18v4.5c0 1.378 1.122 2.5 2.5 2.5h13c1.378 0 2.5-1.122 2.5-2.5zm-.5-5c1.93 0 3.5-1.57 3.5-3.5s-1.57-3.5-3.5-3.5-3.5 1.57-3.5 3.5 1.57 3.5 3.5 3.5z"/></svg>