<svg id="Layer_1" viewBox="0 0 24 24" xmlns="http://www.w3.org/2000/svg" data-name="Layer 1"><path d="m4.524 11.231c.106-.583 1.039-5.703 1.106-6.033.612-3.01 3.291-5.198 6.37-5.198 3.122 0 5.808 2.224 6.387 5.288.034.181.798 4.288 1.091 5.953.144.816-.401 1.594-1.218 1.737-.796.146-1.598-.397-1.737-1.218-.291-1.654-1.049-5.735-1.083-5.915-.185-.977-.774-1.788-1.568-2.292-1.176 1.486-2.976 2.39-4.871 2.444v.003c0 1.654 1.346 3 3 3 .116 0 .231-.006.345-.02.811-.093 1.566.495 1.662 1.318.143 1.157-.962 1.817-2.007 1.702h-2.697c-.882 0-1.736.259-2.471.749-.502.333-1.154.335-1.656.005-.503-.331-.76-.93-.651-1.522zm14.001 4.57c-.584-.547-1.354-.823-2.154-.791-.808.037-1.578.404-2.069.96l-2.284 2.356-2.168-2.312c-.535-.604-1.306-.973-2.112-1.01-.819-.046-1.571.242-2.155.788-1.714 1.599-2.582 3.52-2.582 5.709v1c0 .829.672 1.5 1.5 1.5s1.5-.671 1.5-1.5v-1c0-1.343.533-2.493 1.633-3.465l3.272 3.491c.281.299.672.471 1.082.474.438.008.805-.162 1.09-.456l3.397-3.554c1.026.961 1.525 2.11 1.525 3.51v1c0 .829.672 1.5 1.5 1.5s1.5-.671 1.5-1.5v-1c0-2.244-.833-4.161-2.475-5.699z"/></svg>