<svg id="Layer_1" viewBox="0 0 24 24" xmlns="http://www.w3.org/2000/svg" data-name="Layer 1"><path d="m12 5.006c-1.068 0-2.073.416-2.828 1.172-.756.755-1.172 1.76-1.172 2.829s.416 2.073 1.181 2.837l1.685 1.657c.63.616 1.637.616 2.267 0l1.694-1.666c.756-.755 1.172-1.76 1.172-2.828s-.416-2.073-1.172-2.829c-.755-.755-1.76-1.172-2.828-1.172zm0 5.5c-.828 0-1.5-.672-1.5-1.5s.672-1.5 1.5-1.5 1.5.672 1.5 1.5-.672 1.5-1.5 1.5zm3.5-10.506h-7c-3.032 0-5.5 2.467-5.5 5.5v8c0 2.512 1.695 4.632 4 5.287v2.213h-.5c-.828 0-1.5.671-1.5 1.5s.672 1.5 1.5 1.5h11c.828 0 1.5-.671 1.5-1.5s-.672-1.5-1.5-1.5h-.5v-2.213c2.305-.655 4-2.775 4-5.287v-8c0-3.033-2.468-5.5-5.5-5.5zm-5.5 21v-2h4v2zm8-7.5c0 1.378-1.121 2.5-2.5 2.5h-7c-1.379 0-2.5-1.122-2.5-2.5v-8c0-1.378 1.121-2.5 2.5-2.5h7c1.379 0 2.5 1.122 2.5 2.5z"/></svg>