<svg id="Layer_1" viewBox="0 0 24 24" xmlns="http://www.w3.org/2000/svg" data-name="Layer 1"><path d="m9 11h4.173c.092.045 2.565 1.711 2.656 1.766.882.628 2.205-.081 2.171-1.162v-8.604c0-1.657-1.343-3-3-3h-6c-1.657 0-3 1.343-3 3v5c0 1.657 1.343 3 3 3zm.203-2.36 1.413-5.993c.271-1.486 2.631-1.52 2.898.049l1.363 5.947c.1.439-.233.857-.683.857-.327 0-.61-.226-.683-.544l-.264-1.156h-2.409l-.274 1.161c-.074.316-.356.539-.681.539-.451 0-.784-.421-.681-.86zm3.723-2.24h-1.757l.811-3.437c.008-.037.041-.063.079-.063.038 0 .07.026.079.063l.787 3.437zm11.074 8.1v4c0 3.033-2.468 5.5-5.5 5.5h-13c-3.032 0-5.5-2.467-5.5-5.5v-4c0-1.678.751-3.242 2.062-4.293.647-.517 1.591-.414 2.108.232.519.646.415 1.59-.231 2.109-.597.478-.938 1.189-.938 1.952v4c0 1.378 1.121 2.5 2.5 2.5h13c1.379 0 2.5-1.122 2.5-2.5v-4c0-.609-.222-1.196-.625-1.653-.548-.621-.488-1.569.133-2.117.622-.548 1.568-.489 2.117.133.887 1.005 1.375 2.297 1.375 3.638zm-6.5.5c.828 0 1.5.672 1.5 1.5s-.672 1.5-1.5 1.5h-2.797c.189-.464.297-.969.297-1.5s-.109-1.036-.297-1.5zm-12.5 1.5c0-.828.672-1.5 1.5-1.5h.797c-.189.464-.297.969-.297 1.5s.109 1.036.297 1.5h-.797c-.828 0-1.5-.672-1.5-1.5zm6-2c1.105 0 2 .895 2 2s-.895 2-2 2-2-.895-2-2 .895-2 2-2z"/></svg>