<svg id="Layer_1" viewBox="0 0 24 24" xmlns="http://www.w3.org/2000/svg" data-name="Layer 1"><path d="m15 11.014h3.266c2.921 0 5.507-2.176 5.719-5.09.244-3.355-2.54-6.14-5.896-5.895-2.913.212-5.09 2.798-5.09 5.719v3.266c0 1.105.895 2 2 2zm4-7.514c0-.276.224-.5.5-.5s.5.224.5.5v2c0 .5.5.5.5.5h.5v-2.5c0-.276.224-.5.5-.5s.5.224.5.5v4c0 .276-.224.5-.5.5s-.5-.224-.5-.5v-.5h-.5c-.828 0-1.5-.672-1.5-1.5zm-2.469.501c-.2-.012-.376.093-.467.254-.089.157-.265.245-.446.245-.376 0-.611-.405-.427-.733.269-.478.791-.794 1.384-.765.905.044 1.534.899 1.404 1.795-.117.806-.701 1.244-1.179 1.603-.298.224-.521.398-.654.6h1.354c.276 0 .5.224.5.5s-.224.5-.5.5h-2c-.276 0-.5-.224-.5-.5 0-1 .666-1.499 1.2-1.9.491-.368.777-.605.798-1.045.013-.275-.193-.537-.467-.554zm6.403 12.099-2.237-2.074c-1.32-1.32-3.621-1.323-4.943-.006l-.412.405c-2.587-1.199-4.481-3.1-5.755-5.777l.388-.395c.661-.661 1.025-1.54 1.025-2.475s-.364-1.814-.986-2.434l-2.152-2.319c-1.308-1.309-3.582-1.324-4.908-.042-.013.012-1.126.978-1.091.955-1.201 1.199-1.863 2.819-1.863 4.562 0 7.523 9.977 17.5 17.5 17.5 1.743 0 3.363-.662 4.562-1.863.008.001.927-1.061.955-1.091.635-.656.984-1.517.984-2.433 0-.935-.364-1.814-1.066-2.514zm-2.081 2.867c0-.009-.924 1.058-.948 1.084-.629.612-1.481.949-2.405.949-5.51 0-14.5-8.101-14.5-14.5 0-.924.337-1.776.949-2.405.028-.025 1.092-.947 1.084-.948.25-.2.43-.195.667-.041l2.152 2.319c.21.286.21.425-.009.715l-1.108 1.127c-.418.425-.544 1.058-.322 1.611 1.694 4.22 4.632 7.153 8.732 8.717.549.21 1.168.079 1.586-.332l1.127-1.108c.305-.226.428-.228.756.03l2.237 2.075c.208.279.208.427 0 .706z"/></svg>