<svg id="Layer_1" viewBox="0 0 24 24" xmlns="http://www.w3.org/2000/svg" data-name="Layer 1"><path d="m21.08 14.492-7.165-5.767c-.901-.771-2.131-.943-3.208-.446-1.078.496-1.748 1.542-1.748 2.729v9.493c0 .605.364 1.151.922 1.384.553.232 1.202.11 1.633-.318l2.087-2.066 1.727 3.359c.526 1.028 1.805 1.427 2.811.919 1.026-.487 1.468-1.829.935-2.833l-1.723-3.397 2.987-.401c.594-.08 1.084-.506 1.245-1.083.161-.578-.037-1.196-.504-1.572zm-9.081-3.459 4.479 3.606-2.083.28c-.323.043-.624.191-.855.421l-1.566 1.55.025-5.856zm-2.04-7.533v-2c0-.829.671-1.5 1.5-1.5s1.5.671 1.5 1.5v2c0 .829-.671 1.5-1.5 1.5s-1.5-.671-1.5-1.5zm-2.013 3.188c-.52.65-1.466.749-2.108.233l-1.561-1.25c-.647-.518-.751-1.462-.233-2.108s1.463-.751 2.108-.233l1.561 1.25c.647.518.751 1.462.233 2.108zm7.026 0c-.518-.646-.414-1.59.233-2.108l1.561-1.25c.647-.518 1.591-.412 2.108.233.518.646.414 1.59-.233 2.108l-1.561 1.25c-.276.222-.608.329-.937.329-.44 0-.875-.192-1.172-.562zm-7.99 3.266c.083.824-.517 1.56-1.341 1.644l-1.99.202c-.81.087-1.564-.514-1.644-1.341-.083-.824.517-1.56 1.341-1.644l1.99-.202c.821-.089 1.561.517 1.644 1.341z"/></svg>