<svg id="Layer_1" viewBox="0 0 24 24" xmlns="http://www.w3.org/2000/svg" data-name="Layer 1"><path d="m10.796 7.265c.512-.651 1.456-.763 2.106-.251l3.143 2.474c.651.512.763 1.456.251 2.106-.512.651-1.456.763-2.106.251l-3.143-2.474c-.651-.512-.763-1.456-.251-2.106zm2.67-1.086 3.143 2.474c.651.512 1.594.4 2.106-.251s.4-1.594-.251-2.106l-3.143-2.474c-.651-.512-1.594-.4-2.106.251s-.4 1.594.251 2.106zm-4.893 6.336 3.143 2.474c.651.512 1.594.4 2.106-.251s.4-1.594-.251-2.106l-3.143-2.474c-.651-.512-1.594-.4-2.106.251-.512.651-.4 1.594.251 2.106zm13.427-10.515c-1.103 0-2 .897-2 2v3.744c0 .979.364 1.927 1 2.657v1.807c0 .991-.334 1.968-.939 2.752l-1.661 2.148c-1.171 1.515-3.363 1.805-4.888.645l-11.104-8.444c-.66-.502-1.601-.373-2.102.286-.501.66-.374 1.601.286 2.102l11.104 8.444c1.17.89 2.551 1.32 3.924 1.32 1.948 0 3.877-.867 5.153-2.518l1.661-2.148c1.01-1.307 1.566-2.936 1.566-4.587v-8.208c0-1.103-.897-2-2-2z"/></svg>