<svg id="Layer_1" viewBox="0 0 24 24" xmlns="http://www.w3.org/2000/svg" data-name="Layer 1"><path d="m16 18v4c0 1.105-.895 2-2 2h-4c-1.105 0-2-.895-2-2v-4c0-1.105.895-2 2-2h4c1.105 0 2 .895 2 2zm-12 0h-2c-1.105 0-2 .895-2 2v2c0 1.105.895 2 2 2h2c1.105 0 2-.895 2-2v-2c0-1.105-.895-2-2-2zm13.5-11h-1.431c-.641.851-1.473 1.663-2.569 2.195v.805c0 .551.448 1 1 1 .828 0 1.5.671 1.5 1.5s-.672 1.5-1.5 1.5h-5c-.828 0-1.5-.671-1.5-1.5s.672-1.5 1.5-1.5c.552 0 1-.449 1-1v-.805c-1.096-.532-1.928-1.344-2.57-2.195h-1.43c-.828 0-1.5-.671-1.5-1.5 0-.783.602-1.418 1.366-1.487-.067-.184-.14-.506-.284-1.155-.153-.697.017-1.419.467-1.978.449-.559 1.119-.88 1.837-.88h7.229c.718 0 1.388.321 1.837.88.45.559.62 1.281.466 1.981-.145.653-.214.964-.283 1.152.764.069 1.366.704 1.366 1.487 0 .829-.672 1.5-1.5 1.5zm-8.3-4c.257.759 1.051 2.73 2.613 3.5h.373c1.562-.77 2.356-2.705 2.625-3.5 0 0-5.614-.011-5.611 0zm12.8 16h-2c-1.105 0-2 .895-2 2v1c0 1.105.895 2 2 2h2c1.105 0 2-.895 2-2v-1c0-1.105-.895-2-2-2z"/></svg>