<svg id="Layer_1" viewBox="0 0 24 24" xmlns="http://www.w3.org/2000/svg" data-name="Layer 1"><path d="m10.261 8.615c4.65-2.376 7.198-6.698 6.661-7.752-.537-1.054-5.527-1.523-10.176.854s-7.333 6.435-6.661 7.752 5.527 1.523 10.176-.854zm-2.218-4.224c3.537-1.807 6.812-2.471 6.812-2.471s-2.458 2.267-5.995 4.074-6.812 2.471-6.812 2.471 2.458-2.267 5.995-4.074zm-3.728 9.829c-3.691 3.697-4.994 8.386-3.949 9.431s5.726-.259 9.417-3.955 4.785-8.594 3.949-9.431c-.835-.837-5.726.258-9.417 3.955zm3.328 3.416c-2.808 2.812-5.719 4.455-5.719 4.455s1.64-2.916 4.448-5.727c2.808-2.812 5.719-4.455 5.719-4.455s-1.64 2.916-4.448 5.727zm12.345-12.671c-1.22 0-3.994 4.253-3.994 9.5s2.469 9.5 3.994 9.5 3.994-4.253 3.994-9.5-2.774-9.5-3.994-9.5zm0 16.785s-.928-3.235-.928-7.226.928-7.226.928-7.226.928 3.235.928 7.226-.928 7.226-.928 7.226z"/></svg>