<svg id="Layer_1" viewBox="0 0 24 24" xmlns="http://www.w3.org/2000/svg" data-name="Layer 1"><path d="m22.866 4.676c-1.129-.386-2.896-1.165-4.329-2.58-1.335-1.318-3.109-2.096-4.986-2.096h-2.687c-2.291 0-4.065.778-5.4 2.096-1.433 1.414-3.2 2.193-4.329 2.58-.684.234-1.134.889-1.134 1.612 0 .946.767 1.712 1.712 1.712h5.287v12.5c0 1.93 1.57 3.5 3.5 3.5h3c1.93 0 3.5-1.57 3.5-3.5v-12.5h5.288c.946 0 1.712-.767 1.712-1.712 0-.723-.45-1.378-1.134-1.612zm-9.366 16.324h-3c-.276 0-.5-.225-.5-.5v-17.5h4v2h-1.5c-.829 0-1.5.672-1.5 1.5s.671 1.5 1.5 1.5h1.5v2.5h-1.5c-.829 0-1.5.672-1.5 1.5s.671 1.5 1.5 1.5h1.5v2.5h-1.5c-.829 0-1.5.672-1.5 1.5s.671 1.5 1.5 1.5h1.5v1.5c0 .275-.224.5-.5.5z"/></svg>