<svg id="Layer_1" viewBox="0 0 24 24" xmlns="http://www.w3.org/2000/svg" data-name="Layer 1"><path d="m8 21.01c0 1.657-1.343 3-3 3s-3-1.343-3-3 1.343-3 3-3 3 1.343 3 3zm11-3c-1.657 0-3 1.343-3 3s1.343 3 3 3 3-1.343 3-3-1.343-3-3-3zm5-9.01c0 .759-.044 1.508-.13 2.225-.324 2.721-2.668 4.775-5.452 4.775h-12.836c-2.784 0-5.128-2.054-5.452-4.777-.086-.72-.13-1.469-.13-2.223s.043-1.503.13-2.224c.324-2.722 2.668-4.776 5.452-4.776h2.418v-.5c0-.829.671-1.5 1.5-1.5h5c.828 0 1.5.671 1.5 1.5v.5h2.418c2.784 0 5.128 2.054 5.452 4.777.086.715.13 1.464.13 2.223zm-3 0c0-.64-.036-1.269-.108-1.867-.145-1.217-1.208-2.133-2.474-2.133h-12.836c-1.265 0-2.328.917-2.473 2.131-.072.604-.108 1.232-.108 1.869s.037 1.265.108 1.868c.145 1.215 1.208 2.132 2.473 2.132h12.836c1.266 0 2.329-.917 2.474-2.131.072-.6.108-1.229.108-1.869zm-8.423-2.762c-.319-.317-.835-.317-1.154 0l-1.241 1.372c-1.004 1.004-1.004 2.632 0 3.637.502.502 1.16.753 1.818.753s1.316-.251 1.818-.753c1.004-1.004 1.004-2.632 0-3.637zm.923 11.762h-3c-.829 0-1.5.671-1.5 1.5s.671 1.5 1.5 1.5h3c.828 0 1.5-.671 1.5-1.5s-.672-1.5-1.5-1.5z"/></svg>