<svg id="Layer_1" viewBox="0 0 24 24" xmlns="http://www.w3.org/2000/svg" data-name="Layer 1"><path d="m18.5 3h-13c-3.033 0-5.5 2.468-5.5 5.5v7c0 3.032 2.467 5.5 5.5 5.5h13c3.033 0 5.5-2.468 5.5-5.5v-7c0-3.032-2.467-5.5-5.5-5.5zm2.5 12.5c0 1.379-1.122 2.5-2.5 2.5h-13c-1.378 0-2.5-1.121-2.5-2.5v-7c0-1.379 1.122-2.5 2.5-2.5h13c1.378 0 2.5 1.121 2.5 2.5zm-6.4-5.9v1.65h1.601c.442 0 .8.358.8.8s-.358.8-.8.8h-1.601v1.551h1.601c.442 0 .8.358.8.8s-.358.8-.8.8h-2.2c-.552 0-1-.448-1-1v-6c0-.552.448-1 1-1h2.2c.442 0 .8.358.8.8s-.358.8-.8.8h-1.601zm-4.899-1.6h-1.7c-.552 0-1 .448-1 1v6c0 .552.448 1 1 1h1.7c1.27 0 2.3-1.03 2.3-2.3v-3.4c0-1.27-1.03-2.3-2.3-2.3zm.7 5.7c0 .386-.314.7-.7.7s-1.101 0-1.101 0v-4.802s.715 0 1.101 0 .7.314.7.7v3.4z"/></svg>