<svg id="Layer_1" viewBox="0 0 24 24" xmlns="http://www.w3.org/2000/svg" data-name="Layer 1"><path d="m22.5 5h-.5v-1c0-2.206-1.794-4-4-4h-12.5c-1.93 0-3.5 1.57-3.5 3.5v1.5h-.5c-.829 0-1.5.671-1.5 1.5s.671 1.5 1.5 1.5h.5v1.5c0 2.481 2.019 4.5 4.5 4.5h.5v5.5c0 2.481 2.019 4.5 4.5 4.5h6c2.481 0 4.5-2.019 4.5-4.5v-8c0-.829-.671-1.5-1.5-1.5s-1.5.671-1.5 1.5v4.5h-9v-2h2.5c2.481 0 4.5-2.019 4.5-4.5v-1.5h5.5c.829 0 1.5-.671 1.5-1.5s-.671-1.5-1.5-1.5zm-3.5 14v.5c0 .827-.673 1.5-1.5 1.5h-6c-.827 0-1.5-.673-1.5-1.5v-.5zm-5-9.5c0 .827-.673 1.5-1.5 1.5h-6c-.827 0-1.5-.673-1.5-1.5v-6c0-.276.224-.5.5-.5h8.626c-.083.32-.126.655-.126 1zm3-5.5c0-.551.449-1 1-1s1 .449 1 1v1h-2z"/></svg>