<svg id="Layer_1" viewBox="0 0 24 24" xmlns="http://www.w3.org/2000/svg" data-name="Layer 1"><path d="m10.293 0h-4.586c-2.759 0-5.102 2.047-5.451 4.761-.17 1.321-.256 2.748-.256 4.239 0 3.649.705 7.797 1.297 10.636.528 2.529 2.791 4.364 5.382 4.364h2.643c2.591 0 4.854-1.835 5.382-4.364.592-2.834 1.297-6.98 1.297-10.636 0-1.493-.086-2.919-.257-4.239-.349-2.714-2.691-4.761-5.45-4.761zm-4.586 3h4.586c1.203 0 2.222.852 2.443 2h-9.472c.22-1.148 1.24-2 2.443-2zm6.059 16.023c-.239 1.146-1.267 1.977-2.445 1.977h-2.643c-1.178 0-2.206-.832-2.445-1.977-.562-2.7-1.233-6.63-1.233-10.023 0-.342.019-.667.029-1h9.942c.01.333.029.657.029 1 0 3.399-.671 7.327-1.234 10.023zm7.234-9.023c0-1.105.895-2 2-2s2 .895 2 2-.895 2-2 2-2-.895-2-2zm-8 4c0 1.657-1.343 3-3 3s-3-1.343-3-3 1.343-3 3-3 3 1.343 3 3zm13 6.5c0 1.933-1.567 3.5-3.5 3.5s-3.5-1.567-3.5-3.5c0-.934.371-1.777.967-2.405-.584-.406-.967-1.08-.967-1.845 0-1.243 1.007-2.25 2.25-2.25s2.25 1.007 2.25 2.25c0 .305-.062.594-.172.859 1.531.374 2.672 1.745 2.672 3.391z"/></svg>