<svg id="Layer_1" viewBox="0 0 24 24" xmlns="http://www.w3.org/2000/svg" data-name="Layer 1"><path d="m18 0c-3.314 0-6 2.686-6 6s2.686 6 6 6 6-2.686 6-6-2.686-6-6-6zm2.707 7.293c.391.391.391 1.023 0 1.414s-1.023.391-1.414 0l-1.293-1.293-1.293 1.293c-.391.391-1.023.391-1.414 0s-.391-1.023 0-1.414l1.293-1.293-1.293-1.293c-.391-.391-.391-1.023 0-1.414s1.023-.391 1.414 0l1.293 1.293 1.293-1.293c.391-.391 1.023-.391 1.414 0s.391 1.023 0 1.414l-1.293 1.293zm-13.207 10.207v1h-1v-1c0-.276.225-.5.5-.5s.5.224.5.5zm13.86-4.247c-1.023.475-2.158.747-3.36.747-1.404 0-2.723-.364-3.87-1h-10.13c-2.209 0-4 1.791-4 4v3c0 2.209 1.791 4 4 4h16c2.209 0 4-1.791 4-4v-3c0-1.729-1.104-3.189-2.64-3.747zm-18.11 6.747c.178 0 .344-.096.434-.25.137-.239.442-.322.683-.183.239.138.321.444.182.683-.267.463-.765.75-1.299.75-.827 0-1.5-.673-1.5-1.5v-2c0-.827.673-1.5 1.5-1.5.534 0 1.032.287 1.299.75.139.238.057.545-.182.683-.241.139-.546.056-.683-.183-.089-.154-.255-.25-.434-.25-.276 0-.5.225-.5.5v2c0 .275.224.5.5.5zm5.25.5c0 .276-.224.5-.5.5s-.5-.224-.5-.5v-1h-1v1c0 .276-.224.5-.5.5s-.5-.224-.5-.5v-3c0-.827.673-1.5 1.5-1.5s1.5.673 1.5 1.5zm4 0c0 .276-.224.5-.5.5s-.5-.224-.5-.5v-3c0-.275-.225-.5-.5-.5s-.5.225-.5.5v3c0 .276-.224.5-.5.5s-.5-.224-.5-.5v-4c0-.276.224-.5.5-.5.14 0 .266.058.357.151.196-.094.412-.151.643-.151.827 0 1.5.673 1.5 1.5zm2.5-.5c.178 0 .344-.096.434-.25.137-.239.442-.322.683-.183.239.138.321.444.182.683-.267.463-.765.75-1.299.75-.827 0-1.5-.673-1.5-1.5v-2c0-.827.673-1.5 1.5-1.5.534 0 1.032.287 1.299.75.139.238.057.545-.182.683-.241.139-.546.056-.683-.183-.089-.154-.255-.25-.434-.25-.276 0-.5.225-.5.5v2c0 .275.224.5.5.5zm4-2c.276 0 .5.224.5.5s-.224.5-.5.5h-.75v1h.75c.276 0 .5.224.5.5s-.224.5-.5.5h-.75c-.552 0-1-.448-1-1v-3c0-.552.448-1 1-1h.75c.276 0 .5.224.5.5s-.224.5-.5.5h-.75v1zm3 3h-1c-.276 0-.5-.224-.5-.5v-4c0-.276.224-.5.5-.5s.5.224.5.5v3.5h.5c.276 0 .5.224.5.5s-.224.5-.5.5z"/></svg>