<svg id="Layer_1" viewBox="0 0 24 24" xmlns="http://www.w3.org/2000/svg" data-name="Layer 1"><path d="m5 12v-5c0-3.646 2.736-6.645 6.365-6.972.821-.072 1.555.534 1.629 1.359s-.534 1.555-1.359 1.629c-2.072.187-3.635 1.899-3.635 3.983v1h1.5c.829 0 1.5.672 1.5 1.5s-.671 1.5-1.5 1.5h-1.5v1c0 2.206 1.794 4 4 4 2.084 0 3.797-1.562 3.983-3.635.075-.825.817-1.431 1.628-1.359.825.074 1.434.804 1.36 1.629-.327 3.629-3.324 6.365-6.972 6.365-3.86 0-7-3.141-7-7zm17.5-1c-.829 0-1.5.672-1.5 1.5 0 4.687-3.813 8.5-8.5 8.5h-1c-4.687 0-8.5-3.813-8.5-8.5 0-.828-.671-1.5-1.5-1.5s-1.5.672-1.5 1.5c0 6.341 5.159 11.5 11.5 11.5h1c6.341 0 11.5-5.159 11.5-11.5 0-.828-.671-1.5-1.5-1.5zm-6-8c2.481 0 4.5 2.019 4.5 4.5 0 .828.671 1.5 1.5 1.5s1.5-.672 1.5-1.5c0-4.136-3.364-7.5-7.5-7.5-.829 0-1.5.672-1.5 1.5s.671 1.5 1.5 1.5zm-.436 4.936c.187.616.759 1.064 1.436 1.064.829 0 1.5-.672 1.5-1.5 0-1.379-1.122-2.5-2.5-2.5-.829 0-1.5.672-1.5 1.5 0 .677.448 1.249 1.064 1.436z"/></svg>