<?xml version="1.0" encoding="UTF-8"?>
<svg xmlns="http://www.w3.org/2000/svg" id="Layer_1" data-name="Layer 1" viewBox="0 0 24 24">
  <path d="M22.418,13.424c-.555-1.446-1.968-2.419-3.518-2.421l-3.707-.002h-.006c-1.006,0-1.953,.393-2.664,1.104l-2.419,2.419c-.712,.712-1.104,1.659-1.104,2.666v1.244c0,1.007,.392,1.954,1.104,2.666l1.795,1.795c.712,.712,1.659,1.104,2.666,1.104h4.561c1.366,0,2.627-.741,3.293-1.935l1.104-1.981c.545-.979,.628-2.139,.228-3.185l-1.332-3.476Zm-1.516,5.199l-1.104,1.981c-.136,.244-.394,.396-.673,.396h-4.561c-.203,0-.401-.082-.545-.226l-1.795-1.795c-.146-.146-.226-.339-.226-.545v-1.244c0-.206,.08-.399,.226-.545l2.42-2.42c.145-.145,.338-.225,.544-.225h0l3.708,.002c.316,0,.605,.199,.719,.495l1.332,3.476c.082,.213,.064,.45-.047,.649ZM12,7.58v-2.335c0-1.223-.651-2.372-1.7-3.001L7.392,.499c-1.191-.716-2.692-.658-3.825,.146L1.476,2.127c-.924,.655-1.476,1.723-1.476,2.855v3.117c0,1.466,.926,2.788,2.304,3.289l3.085,1.121c.389,.142,.792,.211,1.194,.211,.824,0,1.636-.291,2.281-.843l1.915-1.641c.777-.665,1.222-1.634,1.222-2.657Zm-3,0c0,.146-.063,.284-.174,.38l-1.915,1.64c-.137,.119-.329,.153-.497,.091l-3.086-1.122c-.196-.071-.329-.26-.329-.469v-3.117c0-.162,.079-.314,.211-.408l2.091-1.482c.162-.114,.377-.123,.546-.021l2.909,1.745c.15,.09,.243,.254,.243,.429v2.335Zm6.902,.196c.58,.767,1.5,1.224,2.462,1.224h1.292c.826,0,1.601-.321,2.184-.905l1.255-1.255c.906-.906,1.158-2.298,.626-3.465l-.713-1.564c-.5-1.1-1.604-1.811-2.812-1.811h-2.196c-.944,0-1.823,.423-2.412,1.159l-.913,1.141c-.885,1.105-.905,2.666-.049,3.796l1.275,1.681Zm1.117-3.603l.982-1.174,2.277,.053,.713,1.566c.016,.034,.009,.073-.018,.1l-1.255,1.255s-.062,.025-.063,.026l-1.362-.035-1.275-1.682c-.025-.032-.024-.078,0-.109ZM5.665,17.411c.444,.644,.405,1.504-.095,2.105l-1.068,1.281c-.57,.684-1.564,.828-2.305,.334l-1.422-.948c-.485-.323-.776-.867-.776-1.45v-.831c0-.69,.407-1.314,1.037-1.593l1.644-.727c.765-.338,1.663-.085,2.138,.603l.846,1.225Z"/>
</svg>
