<svg id="Layer_1" viewBox="0 0 24 24" xmlns="http://www.w3.org/2000/svg" data-name="Layer 1"><path d="m20.5 11h-8.5c-2.206 0-4 1.794-4 4v5c0 2.206 1.794 4 4 4h4.672c.935 0 1.813-.364 2.475-1.025l.975-.975h.379c1.93 0 3.5-1.57 3.5-3.5v-4c0-1.93-1.57-3.5-3.5-3.5zm.5 7.5c0 .275-.225.5-.5.5h-1c-.397 0-.779.158-1.061.439l-1.414 1.414c-.094.093-.222.146-.354.146h-.672v-1c0-.552-.448-1-1-1h-.474c-.337 0-.659.134-.898.372l-1.628 1.628c-.552 0-1-.448-1-1v-5c0-.552.448-1 1-1h8.5c.275 0 .5.225.5.5v4zm-7.5-13.5c.828 0 1.5.672 1.5 1.5v1c0 .828-.672 1.5-1.5 1.5s-1.5-.672-1.5-1.5v-1c0-.828.672-1.5 1.5-1.5zm-4 0c.828 0 1.5.672 1.5 1.5v1c0 .828-.672 1.5-1.5 1.5s-1.5-.672-1.5-1.5v-1c0-.828.672-1.5 1.5-1.5zm-6.5 2.742v10.758c0 1.379 1.121 2.5 2.5 2.5.828 0 1.5.672 1.5 1.5s-.672 1.5-1.5 1.5c-3.032 0-5.5-2.468-5.5-5.5v-10.758c0-1.184.48-2.344 1.318-3.181l3.243-3.243c.837-.838 1.997-1.318 3.181-1.318h6.758c3.032 0 5.5 2.468 5.5 5.5v3c0 .828-.672 1.5-1.5 1.5s-1.5-.672-1.5-1.5v-3c0-1.379-1.121-2.5-2.5-2.5h-6.758c-.395 0-.781.16-1.061.439l-3.242 3.242c-.279.279-.439.666-.439 1.061z"/></svg>