<svg id="Layer_1" viewBox="0 0 24 24" xmlns="http://www.w3.org/2000/svg" data-name="Layer 1"><path d="m14.945 17.366c.26.784-.438 1.634-1.436 1.634h-6.986c-1.134 0-1.771-.612-1.431-1.649.66-1.964 2.588-3.351 4.924-3.351s4.274 1.394 4.929 3.366zm4.245-2.463c.522 1.205.81 2.54.81 3.954 0 4.946-4.423 5.083-6.311 5.142h-6.846c-2.235-.03-6.843-.095-6.843-5.142 0-3.322 1.587-6.211 4.071-7.988-.047-.319-.071-.658-.071-1.012 0-5.527 4.393-9.857 10-9.857s10 4.33 10 9.857c0 3.882-2.725 4.802-4.81 5.046zm-2.19 3.954c-.001-3.852-3.107-6.865-7-6.857-3.925 0-7 3.012-7 6.857 0 1.372.172 2.091 3.864 2.143h6.779c3.199-.1 3.357-.841 3.357-2.143zm4-9c0-3.846-3.075-6.857-7-6.857-3.779 0-6.769 2.791-6.987 6.431.94-.28 1.942-.431 2.987-.431 2.879 0 5.437 1.141 7.245 3h.397c3.199-.1 3.357-.841 3.357-2.143z"/></svg>