<svg id="Layer_1" viewBox="0 0 24 24" xmlns="http://www.w3.org/2000/svg" data-name="Layer 1"><path d="m8 15.5v7c0 .829-.671 1.5-1.5 1.5s-1.5-.671-1.5-1.5v-7c0-.829.671-1.5 1.5-1.5s1.5.671 1.5 1.5zm3.5-3.5c-.829 0-1.5.671-1.5 1.5v9c0 .829.671 1.5 1.5 1.5s1.5-.671 1.5-1.5v-9c0-.829-.671-1.5-1.5-1.5zm12.5 6.413c0-1.476-.885-2.783-2.255-3.331l-2.376-.95c-.225-.09-.369-.304-.369-.545 0-.324.264-.587.587-.587h1.181c.181 0 .343.094.434.251.415.718 1.333.962 2.05.547s.962-1.333.548-2.049c-.499-.863-1.344-1.457-2.299-1.664v-.585c0-.829-.672-1.5-1.5-1.5s-1.5.671-1.5 1.5v.687c-1.444.464-2.5 1.804-2.5 3.4 0 1.476.885 2.783 2.255 3.331l2.376.95c.225.09.369.304.369.545 0 .324-.264.587-.587.587h-1.181c-.181 0-.343-.094-.434-.25-.416-.718-1.334-.962-2.05-.547-.717.415-.962 1.333-.548 2.049.499.863 1.344 1.457 2.299 1.663v.585c0 .829.672 1.5 1.5 1.5s1.5-.671 1.5-1.5v-.687c1.444-.464 2.5-1.804 2.5-3.4zm-2.5-11.913c.828 0 1.5-.671 1.5-1.5v-3.5c0-.829-.672-1.5-1.5-1.5s-1.5.671-1.5 1.5v3.5c0 .829.672 1.5 1.5 1.5zm-3.5 0v-2c0-.829-.672-1.5-1.5-1.5s-1.5.671-1.5 1.5v2c0 .829.672 1.5 1.5 1.5s1.5-.671 1.5-1.5zm-15-.5c0-1.115.615-2.082 1.522-2.597.295-.168.478-.48.478-.819v-1.226c0-.69-.709-1.144-1.343-.874-2.147.913-3.657 3.039-3.657 5.516 0 .796.157 1.555.441 2.25.26.637 1.08.814 1.567.327l.863-.863c.247-.248.329-.608.235-.945-.068-.245-.106-.503-.106-.77zm8.516 2.343c.27-.635-.185-1.343-.874-1.343h-1.226c-.34 0-.652.183-.819.478-.515.906-1.481 1.522-2.597 1.522-.267 0-.525-.038-.77-.106-.337-.094-.697-.013-.945.235l-.863.863c-.487.487-.31 1.306.327 1.567.695.284 1.454.442 2.25.442 2.477 0 4.603-1.51 5.516-3.657zm-4.045-4.943c.473.268.867.66 1.135 1.132.166.292.478.468.813.468h1.222c.693 0 1.143-.713.871-1.351-.607-1.418-1.743-2.555-3.161-3.162-.637-.273-1.351.177-1.351.871v1.227c0 .337.178.649.471.815zm-5.971 13.6c-.829 0-1.5.671-1.5 1.5v4c0 .829.671 1.5 1.5 1.5s1.5-.671 1.5-1.5v-4c0-.829-.671-1.5-1.5-1.5z"/></svg>