<svg id="Layer_1" viewBox="0 0 24 24" xmlns="http://www.w3.org/2000/svg" data-name="Layer 1"><path d="m16 9.5c0 .828-.672 1.5-1.5 1.5s-1.5-.672-1.5-1.5.672-1.5 1.5-1.5 1.5.672 1.5 1.5zm-7-1c0-.828-.672-1.5-1.5-1.5s-1.5.672-1.5 1.5.672 1.5 1.5 1.5 1.5-.672 1.5-1.5zm3.81 5.465-2.701 6.521c-.376.908-1.133 1.591-2.076 1.875-.928.28-1.936.133-2.746-.415-.641-.432-1.245-.931-1.794-1.482-.547-.549-1.042-1.155-1.473-1.8-.541-.811-.688-1.812-.401-2.748.288-.941.975-1.694 1.885-2.066l6.534-2.669c.797-.325 1.704-.142 2.312.469s.788 1.52.458 2.315zm-3.572.783-4.599 1.879c-.095.039-.135.112-.151.167-.023.074-.014.143.027.204.323.483.695.938 1.105 1.351.411.413.863.787 1.344 1.11.063.043.131.053.206.029.055-.017.129-.057.168-.15zm10.762-2.248c0-.828-.672-1.5-1.5-1.5s-1.5.672-1.5 1.5.672 1.5 1.5 1.5 1.5-.672 1.5-1.5zm-8-12.5c-5.933 0-11.04 4.423-11.878 10.288-.117.819.453 1.579 1.272 1.697.824.114 1.581-.453 1.697-1.273.629-4.397 4.459-7.712 8.909-7.712 4.963 0 9 4.037 9 9 0 4.45-3.315 8.28-7.712 8.908-.82.118-1.39.878-1.273 1.697.114.824.894 1.392 1.697 1.273 5.865-.839 10.288-5.945 10.288-11.879 0-6.616-5.383-11.999-12-11.999zm2 16.5c0 .828.672 1.5 1.5 1.5s1.5-.672 1.5-1.5-.672-1.5-1.5-1.5-1.5.672-1.5 1.5zm-2.5-12.5c-.828 0-1.5.672-1.5 1.5s.672 1.5 1.5 1.5 1.5-.672 1.5-1.5-.672-1.5-1.5-1.5z"/></svg>