<svg id="Layer_1" viewBox="0 0 24 24" xmlns="http://www.w3.org/2000/svg" data-name="Layer 1"><path d="m8.5 9c2.481 0 4.5-2.019 4.5-4.5s-2.019-4.5-4.5-4.5-4.5 2.019-4.5 4.5 2.019 4.5 4.5 4.5zm0-6c.827 0 1.5.673 1.5 1.5s-.673 1.5-1.5 1.5-1.5-.673-1.5-1.5.673-1.5 1.5-1.5zm7 14h-.5v-.5c0-3.584-2.916-6.5-6.5-6.5s-6.5 2.916-6.5 6.5v.5h-.5c-.829 0-1.5.671-1.5 1.5 0 .652.419 1.202 1 1.408v2.592c0 .829.671 1.5 1.5 1.5s1.5-.671 1.5-1.5v-2.5h9v2.5c0 .829.672 1.5 1.5 1.5s1.5-.671 1.5-1.5v-2.592c.581-.207 1-.756 1-1.408 0-.829-.672-1.5-1.5-1.5zm-7-4c1.93 0 3.5 1.57 3.5 3.5v.5h-7v-.5c0-1.93 1.57-3.5 3.5-3.5zm12.499-13h-2.999c-1.657.001-3 1.345-2.999 3.002l.002 5.771c0 .638.524 1.088 1.089 1.088.196 0 .397-.054.583-.173l2.454-1.69h1.872c1.657 0 3-1.343 3-3v-1.999c-.001-1.655-1.345-2.999-3.002-2.999zm.001 5h-3v-2h3z"/></svg>