<svg id="Layer_1" viewBox="0 0 24 24" xmlns="http://www.w3.org/2000/svg" data-name="Layer 1"><path d="m12.6 11.8v5.6h.851c.442 0 .8.358.8.8s-.358.8-.8.8h-1.65c-.442 0-.8-.358-.8-.8v-6.4c0-.442.358-.8.8-.8s.8.358.8.8zm10.601 2.6h-1.601v-1.801h1.601c.442 0 .8-.358.8-.8s-.358-.8-.8-.8h-2.4c-.442 0-.8.358-.8.8v6.4c0 .442.358.8.8.8s.8-.358.8-.8v-2.2h1.601c.442 0 .8-.358.8-.8s-.358-.8-.8-.8zm-5-3.4h-3.401c-.442 0-.8.358-.8.8s.358.8.8.8h.851v5.6c0 .442.358.8.8.8s.8-.358.8-.8v-5.6h.951c.442 0 .8-.358.8-.8s-.358-.8-.8-.8zm-10.762 1.602c.375-.025.705.181.863.489.132.258.409.409.699.409.606 0 .99-.647.703-1.182-.414-.772-1.222-1.3-2.155-1.318-1.401-.027-2.548 1.154-2.548 2.556v2.887c0 1.402 1.147 2.583 2.548 2.556 1.358-.026 2.452-1.135 2.452-2.5v-1.201c0-.441-.358-.799-.799-.799h-.901c-.442 0-.8.358-.8.8s.358.8.8.8h.1v.368c0 .479-.361.898-.838.93-.524.035-.962-.381-.962-.898v-2.968c0-.479.361-.898.838-.93zm10.95-8.334-2.656-2.656c-1.023-1.024-2.441-1.611-3.889-1.611h-6.344c-3.033-.001-5.5 2.467-5.5 5.499v13c0 3.032 2.467 5.5 5.5 5.5h11c.828 0 1.5-.672 1.5-1.5s-.672-1.5-1.5-1.5h-11c-1.378 0-2.5-1.121-2.5-2.5v-13c0-1.379 1.122-2.5 2.5-2.5h5.5v4c0 1.105.895 2 2 2h5.5v-.009c.895-.005 1.578-.861 1.425-1.737-.188-1.138-.72-2.17-1.536-2.986z"/></svg>