<?xml version="1.0" encoding="UTF-8"?>
<svg xmlns="http://www.w3.org/2000/svg" id="Layer_1" data-name="Layer 1" viewBox="0 0 24 24">
  <path d="m24,7.5v2c0,.829-.671,1.5-1.5,1.5s-1.5-.671-1.5-1.5v-.5H3v9.5c0,1.378,1.122,2.5,2.5,2.5h4c.829,0,1.5.671,1.5,1.5s-.671,1.5-1.5,1.5h-4c-3.033,0-5.5-2.467-5.5-5.5V7.5C0,4.467,2.467,2,5.5,2h.5v-.5c0-.829.671-1.5,1.5-1.5s1.5.671,1.5,1.5v.5h6v-.5c0-.829.671-1.5,1.5-1.5s1.5.671,1.5,1.5v.5h.5c3.033,0,5.5,2.467,5.5,5.5Zm-.049,12.001c.127.609-.025,1.234-.418,1.719-.402.496-1.003.78-1.648.78h-1.159c-.126,1.123-1.068,2-2.225,2s-2.099-.877-2.225-2h-1.165c-.644,0-1.245-.284-1.647-.779-.394-.483-.546-1.108-.42-1.715l.847-3.807c.509-2.151,2.445-3.699,4.609-3.699,2.035,0,3.959,1.417,4.575,3.369.015.047.876,4.133.876,4.133Zm-3.171-.501l-.586-2.786c-.247-.686-.979-1.214-1.695-1.214-.776,0-1.5.589-1.685,1.37l-.585,2.63h4.551Z"/>
</svg>
