<svg id="Layer_1" viewBox="0 0 24 24" xmlns="http://www.w3.org/2000/svg" data-name="Layer 1"><path d="m24 18c0 1.654-1.346 3-3 3-1.552 0-2.817-1.189-2.97-2.701-1.119.174-2.344.401-3.549.626-2.839.528-5.776 1.075-7.981 1.075-.829 0-1.5-.671-1.5-1.5s.671-1.5 1.5-1.5c1.939 0 4.791-.533 7.5-1.038v-11.962c1.712.248 3 1.711 3 3.491v7.935c1.512-.25 2.889-.425 4-.425 1.623.035 3.008 1.329 3 3zm-24-10.5v15c0 .829.671 1.5 1.5 1.5s1.5-.671 1.5-1.5v-18.449c-1.692.245-3 1.691-3 3.449zm14 13.493v1.507c0 .828.672 1.5 1.5 1.5s1.5-.672 1.5-1.5v-2.03c-.812.135-1.649.283-2.452.426-.182.032-.365.065-.548.097zm-7-8.993c-1.657 0-3-1.343-3-3v-6c0-1.657 1.343-3 3-3h3c1.657 0 3 1.343 3 3v6c0 1.657-1.343 3-3 3zm1-6v3.5c0 .276.224.5.5.5h1c.276 0 .5-.224.5-.5s-.224-.5-.5-.5h-.5v-3c1.214 0 2.178-1.086 1.972-2.338-.162-.983-1.087-1.662-2.084-1.662h-.776c-.997 0-1.922.679-2.084 1.662-.206 1.252.758 2.338 1.972 2.338zm1-1c.551 0 1-.449 1-1s-.449-1-1-1h-1c-.551 0-1 .449-1 1s.449 1 1 1z"/></svg>