<svg id="Layer_1" viewBox="0 0 24 24" xmlns="http://www.w3.org/2000/svg" data-name="Layer 1"><path d="m12 0c-2.761 0-5 2.239-5 5s2.239 5 5 5 5-2.239 5-5-2.239-5-5-5zm2 6h-1v1c0 .552-.448 1-1 1s-1-.448-1-1v-1h-1c-.552 0-1-.448-1-1s.448-1 1-1h1v-1c0-.552.448-1 1-1s1 .448 1 1v1h1c.552 0 1 .448 1 1s-.448 1-1 1zm2 5c0-.105.023-.204.031-.308-1.142.811-2.523 1.308-4.031 1.308s-2.889-.496-4.031-1.308c.133 1.008-.253 2.022-.836 2.767.473.783 1.009 1.443 1.582 1.976-.545.75-.784 1.683-.614 2.686l.777 3.384c.336 1.469 1.624 2.495 3.131 2.495 1.484 0 2.767-1.007 3.121-2.448l.835-3.409c.009-.037.016-.073.022-.11.155-.93-.089-1.866-.645-2.618.553-.528 1.072-1.177 1.53-1.947-.539-.682-.874-1.531-.874-2.468zm-3.783 9.837c-.047.193-.369.192-.414-.003l-.76-3.296c-.006-.352.108-.486.457-.538h1.073c.338.049.442.173.461.501l-.818 3.336zm11.783-13.837c0 2.412-1.065 6-4 6-1.078-.012-2.006-.888-2-2 0-1.103.897-2 2-2 .218 0 .424.044.621.109.214-.582.379-1.364.379-2.109 0-.728 0-1-1.5-1-.829 0-1.5-.672-1.5-1.5s.671-1.5 1.5-1.5c3.719 0 4.5 2.175 4.5 4zm-21 0c0 .744.165 1.527.379 2.109.197-.065.403-.109.621-.109 1.103 0 2 .897 2 2 .006 1.112-.922 1.988-2 2-2.935 0-4-3.587-4-6 0-1.825.781-4 4.5-4 .829 0 1.5.672 1.5 1.5s-.671 1.5-1.5 1.5c-1.5 0-1.5.272-1.5 1z"/></svg>