<svg id="Layer_1" viewBox="0 0 24 24" xmlns="http://www.w3.org/2000/svg" data-name="Layer 1"><path d="m23.975 17.965c-.266-2.784-2.745-4.965-5.646-4.965-1.284 0-2.328 1.044-2.328 2.328v6.172c0 1.624 1.288 2.5 2.5 2.5 1.546 0 3.03-.656 4.07-1.801 1.04-1.144 1.552-2.688 1.404-4.234zm-3.624 2.216c-.365.402-.833.667-1.351.771v-4.87c1.063.26 1.889 1.12 1.988 2.169.068.718-.158 1.403-.638 1.931zm-2.941-13.77 1.245-.911-1.245-.911c-.445-.326-.542-.951-.216-1.397.325-.445.949-.543 1.397-.216l.409.299v-2.002c0-.494.299-.948.761-1.155.447-.2.959-.143 1.332.146.103.079 2.254 1.5 2.34 1.586.365.325.55.698.549 1.108 0 .409-.187.779-.552 1.101-.078.08-1.996 1.359-2.091 1.432.042.03 2.084 1.29 2.054 1.298.144.127.581.514.582 1.127 0 .272-.091.679-.523 1.062l-2.354 1.757c-.19.173-.472.27-.77.27-.692.019-1.344-.579-1.327-1.276v-2.002l-.409.3c-.44.325-1.071.232-1.397-.216-.326-.445-.229-1.071.216-1.397zm-3.61-3.23c-.588-.12-1.193-.181-1.799-.181-4.964 0-9.001 4.037-9.001 9v1.652c-1.471.753-2.57 2.102-2.893 3.754-.321 1.643.096 3.315 1.146 4.589 1.049 1.274 2.598 2.006 4.247 2.006 1.212 0 2.5-.876 2.5-2.5v-6.172c0-1.172-.872-2.134-2-2.295v-1.033c0-3.309 2.691-6 6-6 .405 0 .809.04 1.201.12.805.164 1.604-.359 1.769-1.171s-.358-1.604-1.171-1.769zm-8.8 17.769c-.557-.113-1.062-.414-1.432-.863-.484-.588-.668-1.336-.517-2.105.181-.926.969-1.664 1.948-1.901v4.87z"/></svg>