<svg id="Layer_1" viewBox="0 0 24 24" xmlns="http://www.w3.org/2000/svg" data-name="Layer 1"><path d="m18.927 15.686c-.591 4.74-4.644 8.314-9.427 8.314-5.238 0-9.5-4.262-9.5-9.5 0-4.783 3.574-8.835 8.314-9.426.818-.101 1.571.481 1.674 1.303s-.48 1.571-1.303 1.674c-3.241.404-5.686 3.177-5.686 6.45 0 3.584 2.916 6.5 6.5 6.5 3.272 0 6.046-2.444 6.45-5.686.103-.823.87-1.4 1.674-1.303.822.103 1.405.852 1.303 1.674zm5.073-9.686c0 3.314-2.686 6-6 6s-6-2.686-6-6 2.686-6 6-6 6 2.686 6 6zm-7-1c0 .553.448 1 1 1s1-.447 1-1v-2c0-.553-.448-1-1-1s-1 .447-1 1zm2.5 3.5c0-.828-.672-1.5-1.5-1.5s-1.5.672-1.5 1.5.672 1.5 1.5 1.5 1.5-.672 1.5-1.5zm-6.857 2.858-2.859-2.135s-.258-.223-.668-.223c-.615 0-.616.679-.616.679v2.605l-.84-.796c-.408-.382-1.051-.352-1.423.066-.361.406-.329 1.026.071 1.393l1.677 1.552-1.677 1.552c-.4.367-.431.988-.071 1.393.372.418 1.014.448 1.423.066l.84-.796v2.617s-.037.667.577.667c.407 0 .708-.223.708-.223l2.859-2.135c.437-.328.454-.978.034-1.328l-2.178-1.815 2.178-1.815c.42-.35.403-1-.034-1.328z"/></svg>