<svg id="Layer_1" viewBox="0 0 24 24" xmlns="http://www.w3.org/2000/svg" data-name="Layer 1"><path d="m23.986 12.662c.027-.506-.024-1.011-.149-1.517-1.346-5.223-5.759-9.636-10.982-10.981-1.375-.354-2.854-.105-4.055.638.001.002.003.005.004.007-.945.592-1.721 1.474-2.154 2.555l-6.457 16.398c-.424 1.165-.142 2.434.734 3.31.884.892 2.186 1.151 3.348.72l16.37-6.446c1.963-.782 3.235-2.625 3.34-4.684zm-3.986-3.662c.828 0 1.5.672 1.5 1.5s-.672 1.5-1.5 1.5-1.5-.672-1.5-1.5.672-1.5 1.5-1.5zm-5-5c0 .828-.672 1.5-1.5 1.5-.432 0-.819-.186-1.093-.478-.13-.419-.262-.813-.393-1.166.074-.76.706-1.356 1.485-1.356.828 0 1.5.672 1.5 1.5zm-11.758 16.976c-.034.012-.124.046-.193-.025-.068-.068-.029-.184-.029-.184l6.212-15.773c.812 2.238 1.768 6.205 1.768 12.506v.421zm16.295-6.417-5.547 2.185c-.045-3.789-.418-6.791-.913-9.126l2.216-.573c1.007-.26 1.923.656 1.663 1.663 0 0-.95 3.661-.953 3.674 2.021.425 3.51.937 4.542 1.385-.254.345-.597.628-1.006.792z"/></svg>