<svg id="Layer_1" viewBox="0 0 24 24" xmlns="http://www.w3.org/2000/svg" data-name="Layer 1"><path d="m18 12c-3.314 0-6 2.686-6 6s2.686 6 6 6 6-2.686 6-6-2.686-6-6-6zm-1 3c0-.553.448-1 1-1s1 .447 1 1v2c0 .553-.448 1-1 1s-1-.447-1-1zm1 7c-.828 0-1.5-.672-1.5-1.5s.672-1.5 1.5-1.5 1.5.672 1.5 1.5-.672 1.5-1.5 1.5zm-8.5-1h-6c-.275 0-.5-.225-.5-.5v-7.5h1.343c1.47 0 2.851-.572 3.89-1.611l2.707-2.708c.566-.566 1.555-.566 2.121 0l1.379 1.379c.586.586 1.535.586 2.121 0 .568-.568.574-1.472.04-2.061h1.899c1.142 0 2.138.771 2.422 1.874.206.802 1.025 1.282 1.826 1.079.803-.207 1.285-1.024 1.078-1.827-.625-2.429-2.815-4.126-5.326-4.126h-5.5l2.857-.952c1.478-.493 1.472-2.585-.009-3.069-.527-.13-2.706-.981-3.212-.978-.904 0-1.636.732-1.636 1.636v3.364h-5.5c-3.032 0-5.5 2.467-5.5 5.5v10c0 1.93 1.57 3.5 3.5 3.5h6c.828 0 1.5-.672 1.5-1.5s-.672-1.5-1.5-1.5zm-4-13h1.879l-1.268 1.268c-.473.472-1.101.732-1.769.732h-1.292c.232-1.14 1.242-2 2.449-2zm1 8c.828 0 1.5.672 1.5 1.5s-.672 1.5-1.5 1.5h-1c-.828 0-1.5-.672-1.5-1.5s.672-1.5 1.5-1.5zm5.5-6c.828 0 1.5.672 1.5 1.5s-.672 1.5-1.5 1.5-1.5-.672-1.5-1.5.672-1.5 1.5-1.5z"/></svg>