<svg id="Layer_1" viewBox="0 0 24 24" xmlns="http://www.w3.org/2000/svg" data-name="Layer 1"><path d="m12 0c-6.617 0-12 5.383-12 12s5.383 12 12 12 12-5.383 12-12-5.383-12-12-12zm1.5 20.865v-.365c0-.829-.672-1.5-1.5-1.5s-1.5.671-1.5 1.5v.365c-3.761-.635-6.73-3.604-7.365-7.365h.365c.828 0 1.5-.671 1.5-1.5s-.672-1.5-1.5-1.5h-.365c.635-3.76 3.604-6.73 7.365-7.365v.365c0 .829.672 1.5 1.5 1.5s1.5-.671 1.5-1.5v-.365c3.761.635 6.73 3.604 7.365 7.365h-.365c-.828 0-1.5.671-1.5 1.5s.672 1.5 1.5 1.5h.365c-.635 3.76-3.604 6.73-7.365 7.365zm-6.5-10.58 4 2.307v4.908l-2.956-1.86c-.65-.406-1.044-1.118-1.044-1.884v-3.47zm6 2.31 4-2.294v3.454c0 .766-.395 1.478-1.044 1.884l-2.956 1.843zm2.92-3.973-3.92 2.24-3.92-2.24 2.742-1.714c.721-.45 1.635-.45 2.356 0z"/></svg>