<svg id="Layer_1" viewBox="0 0 24 24" xmlns="http://www.w3.org/2000/svg" data-name="Layer 1"><path d="m10.5 1.5c0-.828.672-1.5 1.5-1.5s1.5.672 1.5 1.5-.672 1.5-1.5 1.5-1.5-.672-1.5-1.5zm1.5 19.5c-.828 0-1.5.672-1.5 1.5s.672 1.5 1.5 1.5 1.5-.672 1.5-1.5-.672-1.5-1.5-1.5zm-2.5-11.4c-.221 0-.4.179-.4.4v4c0 .221.179.4.4.4s.4-.179.4-.4v-4c0-.221-.179-.4-.4-.4zm10.411 11.4h2.589c.828 0 1.5.672 1.5 1.5s-.672 1.5-1.5 1.5h-7.35c.218-.456.35-.961.35-1.5 0-.735-.229-1.416-.616-1.979 1.477-.504 2.783-1.383 3.805-2.521h-13.378c1.022 1.138 2.328 2.017 3.805 2.521-.387.563-.616 1.244-.616 1.979 0 .539.132 1.044.35 1.5h-7.35c-.828 0-1.5-.672-1.5-1.5s.672-1.5 1.5-1.5h2.589c-2.5-2.201-4.089-5.415-4.089-9s1.589-6.799 4.089-9h-2.589c-.828 0-1.5-.672-1.5-1.5s.672-1.5 1.5-1.5h7.35c-.218.456-.35.961-.35 1.5 0 .735.229 1.416.616 1.979-1.477.504-2.783 1.383-3.805 2.521h13.378c-1.022-1.139-2.328-2.017-3.805-2.521.387-.563.616-1.244.616-1.979 0-.539-.132-1.044-.35-1.5h7.35c.828 0 1.5.672 1.5 1.5s-.672 1.5-1.5 1.5h-2.589c2.501 2.201 4.089 5.415 4.089 9s-1.589 6.799-4.089 9zm-12.911-5.8c0-.442-.358-.8-.8-.8h-.601v-5.601c0-.442-.358-.8-.8-.8s-.8.358-.8.8v6.4c0 .442.358.8.8.8h1.4c.442 0 .8-.358.8-.8zm4.5-5.2c0-1.103-.897-2-2-2s-2 .897-2 2v4c0 1.103.897 2 2 2s2-.897 2-2zm2.1 4v-4c0-.221.18-.4.4-.4s.4.18.4.4c0 .442.358.8.8.8s.8-.358.8-.8c0-1.103-.897-2-2-2s-2 .897-2 2v4c0 1.103.897 2 2 2s2-.897 2-2v-1.184c0-.442-.358-.816-.8-.816h-.533c-.441 0-.8.375-.8.816 0 .348.223.645.533.754v.429c0 .221-.18.4-.4.4s-.4-.18-.4-.4zm6.9-4c0-1.103-.897-2-2-2s-2 .897-2 2v4c0 1.103.897 2 2 2s2-.897 2-2zm-2-.4c-.221 0-.4.179-.4.4v4c0 .221.179.4.4.4s.4-.179.4-.4v-4c0-.221-.179-.4-.4-.4z"/></svg>