<svg id="Layer_1" viewBox="0 0 24 24" xmlns="http://www.w3.org/2000/svg" data-name="Layer 1"><path d="m24 10c0-1.583-.932-2.942-2.27-3.59.167-.44.27-.912.27-1.41 0-2.206-1.794-4-4-4h-4.592c-.206-.581-.756-1-1.408-1s-1.202.419-1.408 1h-4.592c-2.206 0-4 1.794-4 4 0 .498.103.97.27 1.41-1.338.648-2.27 2.007-2.27 3.59s.932 2.942 2.269 3.59c-.167.44-.269.912-.269 1.41 0 1.581.921 2.95 2.255 3.6-.167.443-.255.918-.255 1.4 0 2.206 1.794 4 4 4h8c2.206 0 4-1.794 4-4 0-.482-.089-.957-.255-1.4 1.334-.649 2.255-2.019 2.255-3.6 0-.495-.096-.97-.264-1.413 1.335-.649 2.264-2.006 2.264-3.587zm-18-6h12c.551 0 1 .449 1 1s-.449 1-1 1h-12c-.551 0-1-.449-1-1s.449-1 1-1zm12 12h-.5c-.829 0-1.5.672-1.5 1.5v.5c0 .472.222.916.6 1.199.254.191.4.483.4.801 0 .552-.449 1-1 1h-8c-.551 0-1-.448-1-1 0-.317.146-.609.4-.801.377-.283.6-.728.6-1.199v-.5c0-.828-.671-1.5-1.5-1.5h-.5c-.551 0-1-.448-1-1s.449-1 1-1h.5c.829 0 1.5-.672 1.5-1.5s-.671-1.5-1.5-1.5h-2.5c-.551 0-1-.448-1-1s.449-1 1-1h16c.551 0 1 .449 1 1s-.449 1-1 1h-1.5c-.829 0-1.5.672-1.5 1.5 0 .009.002.017.003.025-.012.709.479 1.349 1.199 1.494.463.094.798.507.798.98 0 .552-.449 1-1 1zm-3-1c0 1.657-1.343 3-3 3s-3-1.343-3-3 1.343-3 3-3 3 1.343 3 3z"/></svg>