<svg id="Layer_1" viewBox="0 0 24 24" xmlns="http://www.w3.org/2000/svg" data-name="Layer 1"><path d="m20.946 22.401c.061.862-.635 1.602-1.499 1.599-.783 0-1.442-.608-1.495-1.401-.165-2.507-1.876-4.577-4.159-5.31l-.944 1.417 1.093 3.99c.183.666-.405 1.305-1.201 1.305h-1.532c-.796 0-1.383-.639-1.201-1.305l1.093-3.99-.944-1.417c-2.284.733-3.994 2.803-4.16 5.311-.055.826-.765 1.456-1.596 1.397-.827-.055-1.452-.769-1.397-1.596.311-4.71 4.252-8.401 8.971-8.401s8.66 3.69 8.972 8.401zm-15.77-9.648c.504.331 1.155.329 1.656-.005.734-.489 1.589-.748 2.471-.748h2.697c1.044.115 2.151-.545 2.007-1.701-.095-.823-.842-1.411-1.662-1.318-.113.013-.228.02-.345.02-1.654 0-3-1.346-3-3 0 0 0-.002 0-.003 1.896-.054 3.695-.958 4.871-2.444.795.504 1.384 1.315 1.568 2.292.034.18.792 4.261 1.083 5.915.14.821.941 1.364 1.737 1.218.816-.144 1.361-.921 1.218-1.737-.293-1.665-1.057-5.772-1.091-5.953-.579-3.064-3.265-5.288-6.387-5.288-3.079 0-5.758 2.188-6.37 5.203-.066.325-1.105 6.028-1.105 6.028-.108.592.148 1.192.651 1.522z"/></svg>