<svg id="Layer_1" viewBox="0 0 24 24" xmlns="http://www.w3.org/2000/svg" data-name="Layer 1"><path d="m24 22.5c0 .829-.672 1.5-1.5 1.5h-19c-1.93 0-3.5-1.57-3.5-3.5v-19c0-.829.671-1.5 1.5-1.5s1.5.671 1.5 1.5v19c0 .276.224.5.5.5h19c.828 0 1.5.671 1.5 1.5zm-1.308-13.5h-4.416c-1.101 0-1.652 1.331-.874 2.109l1.202 1.202-2.567 2.567-1.103-1.103c-.951-.951-2.497-.95-3.466.02l-3.048 3.163c-.575.597-.557 1.546.039 2.121.291.28.666.42 1.041.42.393 0 .786-.154 1.08-.459l2.639-2.738 1.095 1.095c.951.951 2.496.951 3.447 0l2.965-2.965 1.203 1.203c.779.779 2.072.227 2.072-.874v-4.416c0-.743-.565-1.345-1.308-1.345zm-8.772-6.878-2.742-1.713c-.721-.45-1.635-.45-2.356 0l-2.742 1.714 3.92 2.24 3.92-2.24zm-7.876 7.017 2.956 1.86v-4.907l-4-2.307v3.47c0 .766.395 1.478 1.044 1.884zm4.956 1.843 2.956-1.843c.65-.406 1.044-1.118 1.044-1.884v-3.453l-4 2.294v4.887z"/></svg>