<?xml version="1.0" encoding="UTF-8"?>
<svg xmlns="http://www.w3.org/2000/svg" id="Layer_1" data-name="Layer 1" viewBox="0 0 24 24">
  <path d="M3.029,8.319c-.251,2.011,.43,3.948,1.87,5.312,.754,.715,1.23,1.52,1.54,2.368h1.038v-4.917c-.892-.52-1.5-1.477-1.5-2.583,0-.829,.671-1.5,1.5-1.5s1.5,.671,1.5,1.5c0-.829,.671-1.5,1.5-1.5s1.5,.671,1.5,1.5c0,1.105-.608,2.062-1.5,2.583v6.417c0,.829-.671,1.5-1.5,1.5h-2.014c.009,.26,.014,.52,.014,.779-.064,.632,.394,1.227,1.022,1.221h1.5c.829,0,1.5,.671,1.5,1.5s-.671,1.5-1.5,1.5h-1.5c-2.275,.005-4.104-1.928-4.022-4.221,0-1.782-.191-3.068-1.142-3.969C.696,13.781-.319,10.915,.053,7.947,.566,3.843,3.881,.527,7.933,.06c2.434-.283,4.815,.419,6.704,1.971,1.904,1.564,3.111,3.878,3.311,6.348,.067,.826-.548,1.549-1.374,1.616-.833,.061-1.55-.549-1.616-1.374-.135-1.664-.946-3.221-2.225-4.272-1.254-1.03-2.838-1.492-4.457-1.309-2.696,.311-4.902,2.53-5.247,5.279Zm20.972,6.683l-.002,7.772c.002,.876-.98,1.371-1.672,.915l-2.454-1.69h-3.873c-1.657,0-3-1.343-3-3v-4c0-1.657,1.344-3.001,3.001-3h5.001c1.65,.002,2.999,1.352,2.999,3.002Zm-3,0h-5.001s0,3.999,0,3.999h5v-3.999Z"/>
</svg>
