<svg id="Layer_1" viewBox="0 0 24 24" xmlns="http://www.w3.org/2000/svg" data-name="Layer 1"><path d="m8.012 12.9c2.757 0 5-2.243 5-5s-2.243-5-5-5-5 2.243-5 5 2.243 5 5 5zm0-7c1.103 0 2 .897 2 2s-.897 2-2 2-2-.897-2-2 .897-2 2-2zm9.388-3.38c-.556-.614-.509-1.562.105-2.119.615-.556 1.562-.51 2.119.105.876.967 1.639 2.033 2.267 3.167.401.725.14 1.637-.585 2.039-.23.128-.479.188-.725.188-.528 0-1.04-.279-1.313-.774-.517-.933-1.145-1.81-1.867-2.607zm4.491 17.607c-.656 1.184-1.457 2.291-2.38 3.291-.564.609-1.512.645-2.12.084-.608-.562-.646-1.511-.084-2.12.761-.823 1.42-1.735 1.96-2.709.401-.725 1.312-.988 2.039-.585.725.401.986 1.314.585 2.039zm1.995-4.337c-.334.767-1.235 1.102-1.976.772l-5.405-2.369c-.305.132-.64.207-.993.207-1.381 0-2.5-1.119-2.5-2.5s1.119-2.5 2.5-2.5c1.265 0 2.3.943 2.466 2.162l5.136 2.251c.759.333 1.104 1.217.772 1.976zm-2.117-8.366c.844-.255 1.737.266 1.911 1.13.059.293.11.587.154.883.171 1.165-1.016 2.064-2.095 1.591-.487-.213-.807-.67-.884-1.196-.034-.232-.074-.463-.119-.693-.149-.752.298-1.492 1.032-1.714h.002zm-5.786 14.964c.055.827-.571 1.541-1.397 1.596-.83.056-1.541-.571-1.596-1.397-.132-2.001-1.441-3.665-3.218-4.348l-.816 1.224.997 3.133c.183.666-.405 1.305-1.201 1.305h-1.532c-.796 0-1.383-.639-1.201-1.305l.997-3.133-.816-1.223c-1.777.683-3.086 2.347-3.219 4.348-.052.828-.779 1.455-1.596 1.397-.827-.055-1.452-.769-1.397-1.596.278-4.199 3.791-7.488 7.997-7.488s7.719 3.289 7.997 7.488z"/></svg>