<svg id="Layer_1" viewBox="0 0 24 24" xmlns="http://www.w3.org/2000/svg" data-name="Layer 1"><path d="m20.996 23c0 .552-.448 1-1 1s-1-.448-1-1 .448-1 1-1 1 .448 1 1zm2-4c-.552 0-1 .448-1 1s.448 1 1 1 1-.448 1-1-.448-1-1-1zm-3 0c-.552 0-1 .448-1 1s.448 1 1 1 1-.448 1-1-.448-1-1-1zm-2-4v1c0 1.103-.897 2-2 2h-1c-1.103 0-2-.897-2-2v-1c0-1.103.897-2 2-2h1c1.103 0 2 .897 2 2zm-1.999 1v-1h-1.001v1zm1.999 5v1c0 1.103-.897 2-2 2h-1c-1.103 0-2-.897-2-2v-1c0-1.103.897-2 2-2h1c1.103 0 2 .897 2 2zm-1.999 1v-1h-1.001v1zm7.999-7v1c0 1.103-.897 2-2 2h-1c-1.103 0-2-.897-2-2v-1c0-1.103.897-2 2-2h1c1.103 0 2 .897 2 2zm-1.999 1v-1h-1.001v1zm-12.001-9c-1.657 0-3 1.343-3 3s1.343 3 3 3 3-1.343 3-3-1.343-3-3-3zm9.981 2.419c-.15-2.443-1.183-4.743-2.908-6.476-1.889-1.898-4.401-2.943-7.073-2.943s-5.184 1.045-7.073 2.943c-3.895 3.914-3.895 10.281.017 14.212l3.528 3.432c.821.79 1.882 1.315 3.023 1.4.732 0 1.374-.537 1.482-1.284.12-.82-.448-1.581-1.268-1.701-.434-.063-.831-.259-1.146-.566l-3.511-3.415c-2.733-2.747-2.733-7.216 0-9.962 1.322-1.328 3.08-2.06 4.948-2.06s3.625.731 4.947 2.06c1.209 1.215 1.934 2.829 2.04 4.544.051.827.769 1.459 1.589 1.405.827-.051 1.456-.762 1.405-1.589z"/></svg>