<svg id="Layer_1" viewBox="0 0 24 24" xmlns="http://www.w3.org/2000/svg" data-name="Layer 1"><path d="m21.3 15h-.3l-3-2v-1h1c1.657 0 3-1.343 3-3v-4c0-1.657-1.343-3-3-3h-1.7v1.2h.405c.711 0 1.348.324 1.77.833.418.504.063 1.266-.592 1.266-.227 0-.51-.107-.664-.274-.128-.139-.312-.226-.515-.226h-2.307c-.278 0-.532.186-.587.458-.064.318.146.617.449.678l2.792.559c1.196.239 2.004 1.446 1.672 2.703-.257.971-1.205 1.602-2.21 1.602h-.215v1.201h-1.6v-1.201h-.431c-.711 0-1.348-.325-1.77-.833-.418-.504-.063-1.266.592-1.266.227 0 .51.107.664.274.128.139.312.226.515.226h2.334c.278 0 .532-.187.586-.46.063-.318-.146-.615-.451-.677l-2.791-.559c-1.196-.239-2.004-1.446-1.672-2.702.256-.972 1.205-1.603 2.209-1.603h.216v-1.2h-1.7c-1.657 0-3 1.343-3 3v4c0 1.657 1.343 3 3 3h1v3h-1.299c-1.704 0-2.982 1.559-2.648 3.229l.575 2.877c.337 1.683 1.814 2.894 3.53 2.894h6.141c1.491 0 2.7-1.209 2.7-2.7v-3.6c0-1.491-1.209-2.7-2.7-2.7zm-6.73 5.518-.504-2.518h5.933v3h-4.841c-.285 0-.532-.203-.588-.482zm-10.57-4.518v3h4.841c.113 0 .216-.039.307-.095.056.256.537 2.785.626 2.958-.3.081-.61.137-.933.137h-6.141c-1.491 0-2.7-1.209-2.7-2.7v-3.6c0-1.491 1.209-2.7 2.7-2.7h.3l3-2v-1h-1c-1.657 0-3-1.343-3-3v-4c0-1.657 1.343-3 3-3h6c.473 0 .914.119 1.312.314-1.925.696-3.312 2.524-3.312 4.686v8h1.299c.536 0 1.021.167 1.436.431-.638.294-1.21.729-1.669 1.288-.32.39-.567.823-.745 1.28h-5.321z"/></svg>