<?xml version="1.0" encoding="UTF-8"?>
<svg xmlns="http://www.w3.org/2000/svg" id="Layer_1" data-name="Layer 1" viewBox="0 0 24 24">
  <path d="M20.993,8.469c-.123-2.334-1.891-4.32-4.255-4.839C15.805,1.089,13.068-.444,10.342,.12c-2.377,.492-4.138,2.612-4.325,5.131-1.868,.652-3.116,2.48-3.011,4.489,.125,2.389,2.174,4.26,4.664,4.26H15.75c1.433,0,2.82-.596,3.808-1.636,1.001-1.055,1.511-2.438,1.436-3.895Zm-3.611,1.83c-.43,.452-1.009,.701-1.632,.701H7.67c-.879,0-1.627-.636-1.668-1.417-.038-.715,.437-1.361,1.126-1.537,1.103-.279,1.872-1.246,1.872-2.35,0-1.274,.838-2.409,1.949-2.639,1.471-.307,2.69,.649,3.021,1.749,.271,.902,1.043,1.58,1.969,1.726,1.138,.179,2.004,1.061,2.059,2.095,.032,.626-.186,1.221-.615,1.673Zm-10.382,7.201v2c0,.828-.672,1.5-1.5,1.5h-1v1c.553,0,1,.448,1,1s-.447,1-1,1H2.5c-.553,0-1-.448-1-1s.447-1,1-1v-1H1.5c-.828,0-1.5-.672-1.5-1.5v-2c0-.828,.672-1.5,1.5-1.5H5.5c.828,0,1.5,.672,1.5,1.5Zm8.5,0v2c0,.828-.672,1.5-1.5,1.5h-1v1c.553,0,1,.448,1,1s-.447,1-1,1h-2c-.553,0-1-.448-1-1s.447-1,1-1v-1h-1c-.828,0-1.5-.672-1.5-1.5v-2c0-.828,.672-1.5,1.5-1.5h4c.828,0,1.5,.672,1.5,1.5Zm8.5,0v2c0,.828-.672,1.5-1.5,1.5h-1v1c.553,0,1,.448,1,1s-.447,1-1,1h-2c-.553,0-1-.448-1-1s.447-1,1-1v-1h-1c-.828,0-1.5-.672-1.5-1.5v-2c0-.828,.672-1.5,1.5-1.5h4c.828,0,1.5,.672,1.5,1.5Z"/>
</svg>
