<svg id="Layer_1" viewBox="0 0 24 24" xmlns="http://www.w3.org/2000/svg" data-name="Layer 1"><path d="m22.895 7.249c-.438-1.208-1.67-2.693-3.895-3.249.199-.399.717-.638 1.267-.783.732-.192.938-1.137.35-1.613-.967-.783-2.393-1.604-4.117-1.604-3.458 0-4.5 2-4.5 2s-1.042-2-4.5-2c-1.724 0-3.149.821-4.117 1.604-.588.476-.382 1.421.35 1.613.55.144 1.067.384 1.267.783-2.225.556-3.457 2.041-3.895 3.249-.242.668.353 1.358 1.049 1.212.577-.121 1.543-.162 2.346.039 0 0-1.932 1.037-2.483 3.984-.122.655.531 1.197 1.152.957.891-.344 1.728-.472 1.809-.448-.077 2.344-.63 4.351-1.017 5.494-.617 1.235-.96 2.603-.96 4.012 0 .828.672 1.5 1.5 1.5s1.5-.672 1.5-1.5c0-1.65.685-3.228 1.885-4.359 1.044 1.184 2.534 1.859 4.115 1.859s3.071-.676 4.115-1.859c1.2 1.131 1.885 2.709 1.885 4.359 0 .828.672 1.5 1.5 1.5s1.5-.672 1.5-1.5c0-1.41-.343-2.778-.96-4.013-.388-1.143-.94-3.15-1.017-5.493.081-.025.917.103 1.809.448.621.24 1.274-.303 1.152-.957-.551-2.947-2.483-3.984-2.483-3.984.803-.201 1.769-.16 2.346-.039.695.146 1.291-.545 1.049-1.212zm-6.073 3.047c-.399 1.45-1.442 2.654-2.822 3.282v2.437c-.498.603-1.231.952-2 .943-.721 0-1.523-.368-2-.943v-2.436c-1.38-.627-2.423-1.832-2.822-3.282-.182-.659.256-1.306.917-1.478 2.774-.721 3.677-3.157 3.905-4.318.227 1.161 1.131 3.597 3.905 4.318.661.172 1.099.819.917 1.478z"/></svg>