<svg id="Layer_1" viewBox="0 0 24 24" xmlns="http://www.w3.org/2000/svg" data-name="Layer 1"><path d="m23.62 15.49c-.539.633-1.487.706-2.114.171-2.614-2.223-6.415-2.23-9.038-.016-.632.536-1.579.456-2.114-.178-.535-.633-.455-1.579.178-2.113 3.748-3.166 9.18-3.156 12.917.021.631.536.708 1.483.171 2.114zm-3.784 1.406c-1.71-1.193-4.008-1.191-5.717 0-.679.475-.846 1.409-.372 2.089.477.684 1.417.842 2.088.372.682-.477 1.6-.477 2.283 0 .681.473 1.615.307 2.088-.372.474-.68.308-1.614-.372-2.089zm-2.859 4.104c-.828 0-1.5.672-1.5 1.5s.672 1.5 1.5 1.5 1.5-.672 1.5-1.5-.672-1.5-1.5-1.5zm-5.977-.341c-.64.227-1.313.341-2 .341-3.309 0-6-2.691-6-6v-2.5c0-.827.673-1.5 1.5-1.5h5c.829 0 1.5-.672 1.5-1.5v-1.5c0-1.103-.897-2-2-2s-2 .897-2 2h-2v-3.5c0-.827.673-1.5 1.5-1.5h5c.827 0 1.5.673 1.5 1.5v3c0 .828.671 1.5 1.5 1.5s1.5-.672 1.5-1.5v-3c0-2.481-2.019-4.5-4.5-4.5h-5c-2.481 0-4.5 2.019-4.5 4.5v4.262c-1.205.808-2 2.182-2 3.738v2.5c0 4.963 4.038 9 9 9 1.029 0 2.038-.173 3-.513.781-.276 1.19-1.133.914-1.914-.276-.78-1.132-1.189-1.914-.914z"/></svg>