<svg id="Layer_1" viewBox="0 0 24 24" xmlns="http://www.w3.org/2000/svg" data-name="Layer 1"><path d="m24 21c0 1.657-1.343 3-3 3s-3-1.343-3-3c0-.695.246-1.326.642-1.835l-.629-2.656-1.141 1.426c-1.05 1.312-2.615 2.064-4.295 2.064h-4.761c.112.314.184.647.184 1 0 1.657-1.343 3-3 3s-3-1.343-3-3c0-.353.072-.686.184-1h-.684c-.828 0-1.5-.671-1.5-1.5s.672-1.5 1.5-1.5h11.077c.764 0 1.476-.342 1.953-.938l2.605-3.257-1.789-7.553c-.313-1.326-1.484-2.251-2.847-2.251-.828 0-1.5-.671-1.5-1.5s.672-1.5 1.5-1.5c2.76 0 5.131 1.875 5.767 4.56l3.194 13.486c1.437.223 2.539 1.455 2.539 2.954zm-24-12c0-3.314 2.686-6 6-6s6 2.686 6 6-2.686 6-6 6-6-2.686-6-6zm3.546 1h1.793l-.519 2.339c-.103.326.127.663.452.661.147 0 .285-.073.375-.197l3.266-3.93c.233-.376-.023-.875-.448-.873h-2.073l.844-2.275c.14-.343-.097-.725-.45-.725h-1.665c-.348 0-.66.227-.785.571l-1.313 3.691c-.104.37.159.74.523.738z"/></svg>