<svg id="Layer_1" viewBox="0 0 24 24" xmlns="http://www.w3.org/2000/svg" data-name="Layer 1"><path d="m6.806 13.851c-.462.288-1.084.148-1.376-.325-.266-.43-.414-.907-.429-1.381-.023-.76.347-1.627.921-2.161.885-.821 1.759-.981 2.971-.981 1.802 0 3.321.197 4.278.363.544.094.908.612.814 1.156s-.605.906-1.156.815c-.879-.152-2.276-.333-3.937-.333-.965 0-1.248.112-1.609.447-.299.333-.373.675-.152 1.024.29.47.145 1.086-.325 1.376zm10.194 5.149c0 2.757-2.243 5-5 5s-5-2.243-5-5c0-.809.211-1.562.554-2.239l-.201-.201c-.442-.442-.442-1.159 0-1.602l.812-.812c.442-.442 1.159-.442 1.602 0l.261.261c.606-.261 1.271-.409 1.972-.409 2.757 0 5 2.243 5 5zm-3 0c0-1.103-.897-2-2-2s-2 .897-2 2 .897 2 2 2 2-.897 2-2zm10-13.5v11c.004 2.086-1.17 3.9-2.88 4.833-1.049.572-2.307-.321-2.168-1.508.044-.458.291-.895.701-1.107.801-.417 1.348-1.255 1.348-2.218v-9.5h-18.001v9.5c0 .963.548 1.8 1.348 2.218.409.213.657.65.701 1.108.147 1.225-1.136 2.084-2.214 1.485-1.688-.939-2.839-2.739-2.835-4.811v-11c0-3.038 2.462-5.5 5.5-5.5h13c3.038 0 5.5 2.462 5.5 5.5zm-18-2c0-.828-.672-1.5-1.5-1.5s-1.5.672-1.5 1.5.672 1.5 1.5 1.5 1.5-.672 1.5-1.5zm5 0c0-.828-.672-1.5-1.5-1.5s-1.5.672-1.5 1.5.672 1.5 1.5 1.5 1.5-.672 1.5-1.5zm9 7c0-.256-.156-.486-.393-.58l-1.09-.436-.436-1.09c-.095-.237-.325-.393-.58-.393s-.485.156-.58.393l-.433 1.084-1.082.41c-.239.09-.399.317-.404.573s.147.488.382.587l1.099.463.439 1.097c.095.237.325.393.58.393s.486-.156.58-.393l.436-1.09 1.09-.436c.237-.095.393-.325.393-.58z"/></svg>