<svg id="Layer_1" viewBox="0 0 24 24" xmlns="http://www.w3.org/2000/svg" data-name="Layer 1"><path d="m8.5 11.885c0 .936-.847 1.643-1.768 1.476l-.5-.091c-.713-.13-1.232-.751-1.232-1.476 0-.936.847-1.643 1.768-1.476l.5.091c.713.13 1.232.751 1.232 1.476zm-1.232 3.225-.5-.091c-.921-.167-1.768.54-1.768 1.476 0 .725.518 1.346 1.232 1.476l.5.091c.921.167 1.768-.54 1.768-1.476 0-.725-.518-1.346-1.232-1.476zm0-9.5-.5-.091c-.921-.167-1.768.54-1.768 1.476 0 .725.518 1.346 1.232 1.476l.5.091c.921.167 1.768-.54 1.768-1.476 0-.725-.518-1.346-1.232-1.476zm16.154 7.823c.38.739.577 1.548.577 2.387 0 1.729-.848 3.333-2.25 4.323-.809 2.302-2.967 3.858-5.455 3.858-1.084 0-2.095-.304-2.963-.824-.248.487-.748.824-1.332.824-.568 0-1.14-.052-1.699-.153l-5.807-1.146c-2.595-.472-4.494-2.747-4.494-5.407v-11.794c.001-1.635.721-3.174 1.977-4.223 1.256-1.048 2.901-1.482 4.508-1.188l3.342.699c.615.115 1.172.362 1.666.692.633-.771 1.523-1.306 2.542-1.443 1.21-.166 2.443.22 3.394 1.05.652.57 1.122 1.297 1.371 2.093 1.768.506 3.081 2.016 3.196 3.828 1.256 1.014 2.006 2.492 2.006 4.037 0 .838-.197 1.647-.577 2.386zm-12.922-8.221c0-.726-.518-1.346-1.231-1.476-.013-.002-.026-.005-.039-.007l-3.321-.695c-.707-.126-1.44.075-2.011.548-.571.477-.898 1.176-.898 1.919v11.792c0 1.209.863 2.243 2.053 2.46l5.447 1.075zm9.974 7.277c.24-.297.526-.789.526-1.444 0-.781-.48-1.517-1.284-1.968-.555-.312-.853-.94-.742-1.568.2-.852-.665-1.519-1.474-1.509-.829 0-1.5-.671-1.5-1.5 0-.423-.205-.854-.547-1.153-.175-.153-.537-.398-1.018-.336-.516.07-.935.634-.935 1.258v13.936c0 1.542 1.254 2.796 2.795 2.796 1.305 0 2.421-.891 2.715-2.166.097-.422.372-.781.754-.985.762-.408 1.235-1.186 1.235-2.03 0-.655-.286-1.146-.526-1.444-.444-.55-.444-1.335 0-1.885z"/></svg>