<svg id="Layer_1" viewBox="0 0 24 24" xmlns="http://www.w3.org/2000/svg" data-name="Layer 1"><path d="m19.866 4.415c-2.487-3.306-6.579-4.938-10.684-4.261-4.23.698-7.682 3.816-8.793 7.945-.897 3.333-.168 6.846 2.002 9.64.277.358.609.932.609 1.638v1.124c0 1.93 1.57 3.5 3.5 3.5h7c1.784 0 3.26-1.341 3.474-3.068 2.376-.378 4.284-2.291 4.593-4.743l.15-1.193c1.484-.087 2.283-1.303 2.283-2.45 0-1.652-3.098-6.833-4.134-8.13zm-13.866 16.085v-1.124c0-1.232-.43-2.435-1.241-3.479-.933-1.201-2.364-3.71-1.474-7.019.794-2.949 3.36-5.266 6.385-5.765.45-.074.899-.11 1.345-.11 2.53 0 4.925 1.172 6.467 3.231.011.015.022.03.034.044.966 1.193 2.653 4.251 3.269 5.721h-1.956l-2.981-1.235c-1.274-.528-2.644-.788-4.025-.764-2.14.038-3.823 1.859-3.823 3.998v7h-1.5c-.275 0-.5-.224-.5-.5zm10.109-2.5h-.609c-.828 0-1.5.671-1.5 1.5v1c0 .276-.225.5-.5.5h-2.5v-3c0-1.657 1.343-3 3-3h4.692l-.103.813c-.157 1.247-1.224 2.187-2.48 2.187z"/></svg>