<svg id="Layer_1" viewBox="0 0 24 24" xmlns="http://www.w3.org/2000/svg" data-name="Layer 1"><path d="m16 18c0 1.608-2.065 4-5 4-.774 0-1.446.44-1.778 1.084-.277.536-.779.916-1.381.916h-3.34c-.828 0-1.5-.672-1.5-1.5v-13c0-.829.672-1.5 1.5-1.5s1.5.671 1.5 1.5v7.5h8.999c1 0 1 1 1 1zm.5-13c1.381 0 2.5-1.119 2.5-2.5s-1.119-2.5-2.5-2.5-2.5 1.119-2.5 2.5 1.119 2.5 2.5 2.5zm3.162 8.514c-.514-.357-1.143-.514-1.769-.514h-3.727s1.256-3.232 1.256-3.232l2.567 2.34c.611.557 1.559.516 2.119-.098.559-.612.515-1.561-.098-2.119l-4.641-4.231s-.011-.005-.016-.009c-.512-.475-1.23-.742-2.044-.623-.884.129-1.608.779-1.932 1.611l-2.122 5.457c-.453.976-.303 2.12.417 2.959.546.636 1.385.945 2.223.945.137-.001 6.102 0 6.102 0l-1.281 6.121c-.235.937.497 1.912 1.455 1.879.693 0 1.317-.485 1.466-1.191l1.296-6.148c.25-1.185-.218-2.416-1.273-3.148z"/></svg>