<svg id="Layer_1" viewBox="0 0 24 24" xmlns="http://www.w3.org/2000/svg" data-name="Layer 1"><path d="m3.234 10.267c.487.477 1.126.714 1.766.714s1.279-.237 1.766-.714l1.77-1.73c.944-.944 1.465-2.2 1.465-3.536s-.521-2.591-1.465-3.535c-.944-.944-2.2-1.465-3.535-1.465s-2.594.52-3.536 1.463c-.944.944-1.465 2.2-1.465 3.536s.521 2.592 1.477 3.547l1.758 1.72zm.353-6.682c.377-.377.879-.585 1.413-.585s1.036.208 1.414.586c.378.378.586.88.586 1.414s-.208 1.036-.574 1.402l-1.426 1.395-1.414-1.384c-.378-.377-.586-.879-.586-1.413s.208-1.036.587-1.415zm15.095 2.415h-1.854c-.362-1.416-1.292-2.642-2.612-3.358-.727-.394-1.64-.125-2.034.603-.396.729-.125 1.639.603 2.034.75.407 1.216 1.188 1.216 2.04v10.682h-9.638c-.752 0-1.363-.611-1.363-1.363v-3.137c0-.828-.672-1.5-1.5-1.5s-1.5.672-1.5 1.5v3.137c0 1.935 1.273 3.56 3.02 4.13-.006.078-.02.154-.02.233 0 1.657 1.343 3 3 3s3-1.343 3-3h6c0 1.657 1.343 3 3 3s3-1.343 3-3c0-.08-.014-.155-.02-.233 1.746-.57 3.02-2.195 3.02-4.13v-5.364c0-2.907-2.386-5.272-5.318-5.272zm2.318 5.272v.728h-4v-3h1.682c1.3 0 2.318.998 2.318 2.272zm-1.363 6.728h-2.637v-3h4v1.637c0 .752-.611 1.363-1.363 1.363z"/></svg>