<svg id="Layer_1" viewBox="0 0 24 24" xmlns="http://www.w3.org/2000/svg" data-name="Layer 1"><path d="m23.02 13.599c0-3.088-2.197-5.768-5.186-6.365l-3.434-.783c-.63-.126-1.109-.639-1.208-1.363l-.401-2.082c-.138-.962-.676-1.831-1.475-2.384-.8-.552-1.803-.748-2.75-.538-.116.019-4.169 1.321-4.293 1.354-1.926.547-3.273 2.327-3.273 4.331v7.731c0 1.157.451 2.202 1.17 3-.72.798-1.17 1.843-1.17 3 0 2.481 2.019 4.5 4.5 4.5 1.28 0 2.43-.543 3.25-1.404.82.861 1.97 1.404 3.25 1.404s2.43-.543 3.25-1.404c.82.861 1.97 1.404 3.25 1.404 2.481 0 4.5-2.019 4.5-4.5 0-1.136-.437-2.163-1.134-2.956.709-.782 1.154-1.809 1.154-2.945zm-19.02-7.83c0-.668.449-1.261 1.136-1.457l4.125-1.307c.371.014.459.075.572.496l.289 1.493-1.628.006c-.828.003-1.497.677-1.494 1.505.003.827.674 1.495 1.5 1.495h.006l2.847-.01c.063.071.132.135.2.202l-1.171 1.308c-.552.617-.499 1.566.118 2.118.616.552 1.563.501 2.118-.117l1.769-1.977 2.819.643c1.63.326 2.813 1.77 2.813 3.433 0 .772-.628 1.4-1.4 1.4h-13.119c-.827 0-1.5-.673-1.5-1.5zm1.5 15.231c-.827 0-1.5-.673-1.5-1.5s.673-1.5 1.5-1.5 1.5.673 1.5 1.5-.673 1.5-1.5 1.5zm6.5 0c-.827 0-1.5-.673-1.5-1.5s.673-1.5 1.5-1.5 1.5.673 1.5 1.5-.673 1.5-1.5 1.5zm6.5 0c-.827 0-1.5-.673-1.5-1.5s.673-1.5 1.5-1.5 1.5.673 1.5 1.5-.673 1.5-1.5 1.5z"/></svg>