<svg id="Layer_1" viewBox="0 0 24 24" xmlns="http://www.w3.org/2000/svg" data-name="Layer 1"><path d="m23.98 18.182c-.158-1.274-1.33-2.182-2.613-2.182h-1.567c-.442 0-.8.358-.8.8v6.4c0 .442.358.8.8.8.442 0 .8-.358.8-.8v-2.2h.784l.705 2.424c.104.365.455.6.832.576.537 0 .922-.519.765-1.033l-.74-2.43c.023-.017.024-.016.042-.029-.019.012-.031.021-.055.035.723-.508 1.168-1.386 1.047-2.362zm-2.48 1.218h-.9v-1.8h.9c.496 0 .9.404.9.9s-.404.9-.9.9zm-12.575-3.4c-.873-.001-1.575.717-1.742 1.581l-1.165 5.479c-.103.484.266.939.76.939.365 0 .68-.253.759-.61l.175-.79h2.379l.165.782c.076.36.393.617.761.617.509.026.911-.437.804-.937l-1.142-5.435c-.19-.937-.859-1.621-1.753-1.627zm-.86 5 .686-3.104c.03-.149.105-.253.176-.296l.017.006c.024.016.121.118.168.349l.641 3.044h-1.688zm7.294-5h-1.7c-.442 0-.8.358-.8.8v6.4c0 .442.358.8.8.8s.8-.358.8-.8v-2.2h.922c1.368 0 2.478-1.109 2.478-2.478v-.022c0-1.381-1.119-2.5-2.5-2.5zm0 3.4h-.9v-1.8h.9c.496 0 .9.404.9.9s-.404.9-.9.9zm8.641-11.9v5c0 .829-.672 1.5-1.5 1.5s-1.5-.671-1.5-1.5v-3.5h-18v9.5c0 .763.342 1.475.938 1.952.646.518.751 1.462.233 2.108-.521.65-1.467.749-2.108.233-1.311-1.05-2.062-2.615-2.062-4.293v-11c-.001-3.033 2.467-5.5 5.499-5.5h.5v-.5c0-.829.672-1.5 1.5-1.5s1.5.671 1.5 1.5v.5h6v-.5c0-.829.672-1.5 1.5-1.5s1.5.671 1.5 1.5v.5h.5c3.032 0 5.5 2.467 5.5 5.5z"/></svg>