<svg id="Layer_1" viewBox="0 0 24 24" xmlns="http://www.w3.org/2000/svg" data-name="Layer 1"><path d="m24 18.664v.336s0 2-2 2-2-2.107-2-2.107v-.23l.842-2.664h-1.842v6h2c.552 0 1 .448 1 1s-.448 1-1 1h-6c-.552 0-1-.448-1-1s.448-1 1-1h2v-6h-1.842l.842 2.664v.336s0 2-2 2-2-2-2-2v-.336l1.054-3.276c.266-.827 1.035-1.388 1.904-1.388h2.042c0-.552.448-1 1-1s1 .448 1 1h2.042c.869 0 1.638.561 1.904 1.388l1.054 3.276zm-7-9.664v.5c0 .829.671 1.5 1.5 1.5s1.5-.671 1.5-1.5v-2c-.099-1.189-.715-2.318-1.611-3.232l-2.657-2.657c-1.039-1.039-2.419-1.611-3.889-1.611h-6.343c-3.033 0-5.5 2.467-5.5 5.5v13c0 3.033 2.467 5.5 5.5 5.5h4c.829 0 1.5-.671 1.5-1.5s-.671-1.5-1.5-1.5h-4c-1.378 0-2.5-1.122-2.5-2.5v-13c0-1.378 1.122-2.5 2.5-2.5h5.5v4c0 1.105.895 2 2 2zm-7.5 6h-3c-.829 0-1.5.671-1.5 1.5s.671 1.5 1.5 1.5h3c.829 0 1.5-.671 1.5-1.5s-.671-1.5-1.5-1.5zm0-5h-3c-.829 0-1.5.671-1.5 1.5s.671 1.5 1.5 1.5h3c.829 0 1.5-.671 1.5-1.5s-.671-1.5-1.5-1.5z"/></svg>