<svg id="Layer_1" viewBox="0 0 24 24" xmlns="http://www.w3.org/2000/svg" data-name="Layer 1"><path d="m23.776 21.55-4.808-8.242c-.629-1.078-2.186-1.078-2.814 0l-4.808 8.242c-.633 1.086.15 2.45 1.407 2.45h9.616c1.257 0 2.041-1.364 1.407-2.45zm-6.215 1.45c-.552 0-1-.448-1-1s.448-1 1-1 1 .448 1 1-.448 1-1 1zm1-4c0 .552-.448 1-1 1s-1-.448-1-1v-2.002c0-.552.448-1 1-1s1 .448 1 1zm-11 2h-2.638l-.859-8.917c.048-.729.275-.976.997-1.083h15c.828 0 1.5-.671 1.5-1.5s-.672-1.5-1.5-1.5h-2.158c.112-.816.173-1.508.173-2-.001-3.314-2.687-6-6.001-6s-6 2.686-6 6c0 .493.061 1.184.173 2h-1.187c-2.284-.043-4.225 2.069-3.985 4.351l.644 6.683c-.941.162-1.659.978-1.659 1.966v1.154c0 1.02.827 1.846 1.846 1.846h5.654c.829 0 1.5-.671 1.5-1.5s-.671-1.5-1.5-1.5zm1.5-14c0-1.657 1.343-3 3-3s3 1.343 3 3c0 .252-.033.599-.092 1h-5.817c-.059-.401-.092-.748-.092-1z"/></svg>