<svg id="Layer_1" viewBox="0 0 24 24" xmlns="http://www.w3.org/2000/svg" data-name="Layer 1"><path d="m24 6.5v7c0 3.033-2.467 5.5-5.5 5.5h-5v2h3c.829 0 1.5.671 1.5 1.5s-.671 1.5-1.5 1.5h-9c-.829 0-1.5-.671-1.5-1.5s.671-1.5 1.5-1.5h3v-2h-5c-3.033 0-5.5-2.467-5.5-5.5v-7c0-1.677.751-3.242 2.061-4.292.646-.518 1.591-.415 2.109.231.519.646.415 1.59-.231 2.108-.596.479-.938 1.19-.938 1.953v7c0 .171.018.338.051.5h17.897c.033-.162.051-.329.051-.5v-7c0-.763-.342-1.474-.938-1.953-.646-.519-.75-1.462-.231-2.108s1.463-.75 2.109-.231c1.31 1.051 2.061 2.615 2.061 4.292zm-17.528.182.028-3.229c0-1.016.656-1.926 1.632-2.251l3.396-1.126c.307-.102.637-.102.944 0l3.391 1.124c.979.325 1.638 1.235 1.636 2.265l-.028 3.189c-.033 1.945-.91 4.594-4.901 6.233-.379.155-.806.149-1.181-.018-1.128-.503-4.817-2.436-4.917-6.188zm3-.027c.042 1.564 1.629 2.669 2.562 3.185 1.616-.803 2.415-1.862 2.438-3.225l.024-2.708-2.496-.827-2.504.83-.024 2.746z"/></svg>