<svg id="Layer_1" viewBox="0 0 24 24" xmlns="http://www.w3.org/2000/svg" data-name="Layer 1"><path d="m14.573 7.987c-.405-1.324-1.447-1.987-2.573-1.987-1.667 0-5 2.727-5 7.537 0 2.465 2.239 4.463 5 4.463s5-1.998 5-4.463c0-1.184-.263-1.861-.977-2.784-.645-.833-1.144-1.765-1.45-2.767zm-2.573 8.013c-.828 0-1.5-.596-1.5-1.5 0-1.273.856-2.5 1.5-2.5s1.5 1.227 1.5 2.5c0 .904-.672 1.5-1.5 1.5zm11.85-10.976c-.576-2.37-2.759-4.024-5.306-4.024h-13.082c-2.547 0-4.73 1.654-5.306 4.024-.483 1.984.251 4.028 1.847 5.33v7.151c0 3.029 2.466 5.494 5.497 5.494h9.006c3.031 0 5.497-2.465 5.497-5.494v-7.151c1.596-1.302 2.33-3.346 1.847-5.33zm-4.102 3.253c-.461.269-.745.762-.745 1.296v7.933c0 1.375-1.12 2.494-2.497 2.494h-9.006c-1.377 0-2.497-1.119-2.497-2.494v-7.933c0-.534-.284-1.027-.745-1.296-.787-.459-1.46-1.423-1.188-2.544.245-1.004 1.251-1.733 2.392-1.733h13.082c1.141 0 2.146.729 2.392 1.733.272 1.121-.4 2.085-1.188 2.544z"/></svg>