<svg id="Layer_1" viewBox="0 0 24 24" xmlns="http://www.w3.org/2000/svg" data-name="Layer 1"><path d="m23.967 6.979c-.518 3.213-2.799 5.492-6.013 6.006-.727.116-1.385-.443-1.458-1.176-.053-.537-.167-1.176-.38-1.787l-.539.539c-.586.586-1.535.586-2.121 0s-.586-1.535 0-2.121l.86-.86-1.714-1.743c-.782-.786-.78-2.056.003-2.839l1.408-1.408c.786-.786 2.062-.785 2.846.003l2.627 2.671c.864.864 2.268 1.161 3.296 1.258.736.07 1.301.728 1.183 1.458zm-16.301.549 2.364-2.315c.809-.778.82-2.068.024-2.859l-.775-.771c-.758-.754-1.974-.779-2.762-.057l-4.22 4.023c-2.327 2.381-2.477 4.737-2.15 6.363.215 1.066 1.549 1.448 2.332.695l3.044-2.98 12.934 12.934c.586.586 1.535.586 2.121 0s.586-1.535 0-2.121zm-1.209 7.912-5 4.999c-.586.586-.586 1.535 0 2.121s1.535.586 2.121 0l5-5c.586-.586.586-1.535 0-2.121s-1.535-.586-2.121 0z"/></svg>