<svg id="Layer_1" viewBox="0 0 24 24" xmlns="http://www.w3.org/2000/svg" data-name="Layer 1"><path d="m18.439 8.942.805-.803c.562-.562.839-1.337.76-2.127-.078-.79-.502-1.495-1.164-1.936l-4.825-3.212c-1.152-.766-2.535-1.039-3.892-.76-1.358.277-2.529 1.074-3.297 2.246-.901 1.373-1.037 3.096-.447 4.65l-1.182 1.181c-1.417 1.418-2.196 3.301-2.196 5.304v7.515h-1.501c-.829 0-1.5.672-1.5 1.5s.671 1.5 1.5 1.5h6c.829 0 1.5-.672 1.5-1.5s-.671-1.5-1.5-1.5h-1.5v-7.515c0-1.201.468-2.332 1.318-3.183l.648-.648 2.118 3.172c.486.733 1.319 1.177 2.199 1.174.697 0 1.365-.274 1.863-.772l.793-.791c.982.792 2.417.744 3.329-.169s.961-2.344.171-3.326zm-9.001-2.485c-.519-.776-.561-1.766-.104-2.462.326-.497.819-.835 1.388-.951.562-.117 1.149-.005 1.63.318l4.458 2.967-4.475 4.467zm12.622 7.482c.586.586.586 1.535 0 2.121s-1.535.586-2.121 0l-.5-.5c-.586-.586-.586-1.535 0-2.121s1.535-.586 2.121 0zm1.939-3.439c0 .828-.671 1.5-1.5 1.5h-.5c-.829 0-1.5-.672-1.5-1.5s.671-1.5 1.5-1.5h.5c.829 0 1.5.672 1.5 1.5zm-6 5.5v.5c0 .828-.671 1.5-1.5 1.5s-1.5-.672-1.5-1.5v-.5c0-.828.671-1.5 1.5-1.5s1.5.672 1.5 1.5z"/></svg>