<svg id="Layer_1" viewBox="0 0 24 24" xmlns="http://www.w3.org/2000/svg" data-name="Layer 1"><path d="m18 0c-3.314 0-6 2.686-6 6s2.686 6 6 6 6-2.686 6-6-2.686-6-6-6zm0 10.5c-.552 0-1-.447-1-1s.448-1 1-1 1 .447 1 1-.448 1-1 1zm1.447-3.371c-.57.335-.983.371-1.447.371-.552 0-1-.447-1-1s.448-1 1-1c.587 0 1.088-.521.983-1.189-.069-.392-.402-.725-.793-.793-.522-.094-.895.202-1.057.483-.276.478-.888.642-1.366.364-.478-.276-.641-.889-.364-1.366.64-1.104 1.871-1.677 3.133-1.451 1.209.211 2.204 1.205 2.417 2.417.223 1.272-.382 2.543-1.506 3.164zm-15.447 10.371v1h-1v-1c0-.276.225-.5.5-.5s.5.224.5.5zm17.36-4.247c-1.023.475-2.158.747-3.36.747-1.404 0-2.723-.364-3.87-1h-10.13c-2.209 0-4 1.791-4 4v3c0 2.209 1.791 4 4 4h16c2.209 0 4-1.791 4-4v-3c0-1.729-1.104-3.189-2.64-3.747zm-16.36 7.247c0 .276-.224.5-.5.5s-.5-.224-.5-.5v-1h-1v1c0 .276-.224.5-.5.5s-.5-.224-.5-.5v-3c0-.827.673-1.5 1.5-1.5s1.5.673 1.5 1.5zm4.23-.788c-.133.747-.845 1.288-1.693 1.288-.448 0-.877-.118-1.243-.334-.298-.176-.339-.592-.083-.825.166-.15.413-.186.605-.072.21.124.462.194.721.194.371 0 .634-.22.672-.432.051-.286-.374-.466-.506-.516-.624-.23-1.186-.481-1.186-.481-.497-.316-.717-.804-.645-1.31.078-.539.471-.977 1.028-1.145.601-.181 1.131-.017 1.492.172.279.146.347.516.143.757-.141.166-.374.221-.573.134-.2-.086-.475-.155-.762-.07-.243.073-.291.234-.3.299-.006.049-.01.17.108.25.013 0 .509.218 1.056.42 1.014.374 1.268 1.108 1.168 1.671zm3.738.612c.098.259-.033.547-.292.644-.252.096-.547-.031-.644-.292l-.628-1.676h-.404v1.5c0 .276-.224.5-.5.5s-.5-.224-.5-.5v-4c0-.276.224-.5.5-.5s.5.224.5.5v1.5h.403l.629-1.676c.097-.259.386-.388.644-.292.259.097.39.385.292.644l-.684 1.824zm5.032-.824c0 .827-.673 1.5-1.5 1.5s-1.5-.673-1.5-1.5v-3c0-.276.224-.5.5-.5s.5.224.5.5v3c0 .276.224.5.5.5s.5-.224.5-.5v-3c0-.276.224-.5.5-.5s.5.224.5.5zm4.23.212c-.133.747-.845 1.288-1.693 1.288-.448 0-.877-.118-1.243-.334-.298-.176-.339-.592-.083-.825.166-.15.413-.186.605-.072.21.124.462.194.721.194.371 0 .634-.22.672-.432.051-.286-.374-.466-.506-.516-.624-.23-1.186-.481-1.186-.481-.497-.316-.717-.804-.645-1.31.078-.539.471-.977 1.028-1.145.601-.181 1.131-.017 1.492.172.279.146.347.516.143.757-.141.166-.374.221-.573.134-.2-.086-.475-.155-.762-.07-.243.073-.291.234-.3.299-.006.049-.01.17.108.25.013 0 .509.218 1.056.42 1.014.374 1.268 1.108 1.168 1.671z"/></svg>