<svg id="Layer_1" viewBox="0 0 24 24" xmlns="http://www.w3.org/2000/svg" data-name="Layer 1"><path d="m23.269 14.731c-1.341-1.342-5.25-.787-7.287 1.25s-2.592 5.945-1.25 7.287 5.25.787 7.287-1.25 2.592-5.945 1.25-7.287zm-2.561 3.975-2 2c-.39.391-1.024.391-1.414 0-.39-.391-.39-1.024 0-1.414l2-2c.39-.391 1.024-.391 1.414 0s.39 1.023 0 1.414zm-9.207-3.707h-7.909c-.225-.709-.329-1.428-.411-2.105-.039-.669.062-1.175.301-1.512.865-1.219 4.286-1.383 7.519-1.383s6.642.163 7.514 1.376c.282.392.735.624 1.218.624h.756c.835.018 1.559-.745 1.498-1.578-.305-5.843-5.131-10.421-10.987-10.421-6.065 0-11 4.935-11 11 0 .478.073 1.238.19 2.157.248 2.084.68 4.381 1.036 6.475.299 1.677 1.487 3.019 3.1 3.502 1.778.533 3.847.822 6.148.862.825.014 1.512-.645 1.526-1.475.014-.828-.646-1.511-1.474-1.525-.252-.004-.492-.014-.729-.025l-.424-2.971h2.128c.829 0 1.5-.672 1.5-1.5s-.671-1.5-1.5-1.5zm-.5-12c3.266 0 6.091 1.957 7.33 4.785-1.176-.413-2.644-.621-4.4-.716-.186-.617-.752-1.07-1.43-1.07h-3c-.678 0-1.244.453-1.43 1.07-1.753.095-3.219.302-4.395.714 1.241-2.813 4.057-4.783 7.325-4.783zm-4.283 17.629c-.618-.117-1.13-.247-1.531-.367-.522-.157-.908-.6-1.007-1.155-.067-.378-.132-.747-.194-1.105h2.357l.375 2.628z"/></svg>