<svg id="Layer_1" viewBox="0 0 24 24" xmlns="http://www.w3.org/2000/svg" data-name="Layer 1"><path d="m18.5 3h-.551c-.245-1.692-1.691-3-3.449-3h-5c-1.758 0-3.204 1.308-3.449 3h-.551c-3.033 0-5.5 2.467-5.5 5.5v10c0 3.033 2.467 5.5 5.5 5.5h13c3.033 0 5.5-2.467 5.5-5.5v-10c0-3.033-2.467-5.5-5.5-5.5zm-13 3h13c1.378 0 2.5 1.122 2.5 2.5v5.5h-18v-5.5c0-1.378 1.122-2.5 2.5-2.5zm13 15h-13c-1.378 0-2.5-1.122-2.5-2.5v-1.5h3v.5c0 .829.671 1.5 1.5 1.5s1.5-.671 1.5-1.5v-.5h6v.5c0 .829.671 1.5 1.5 1.5s1.5-.671 1.5-1.5v-.5h3v1.5c0 1.378-1.122 2.5-2.5 2.5zm-9.5-11c0-.552.448-1 1-1h1v-1c0-.552.448-1 1-1s1 .448 1 1v1h1c.552 0 1 .448 1 1s-.448 1-1 1h-1v1c0 .552-.448 1-1 1s-1-.448-1-1v-1h-1c-.552 0-1-.448-1-1z"/></svg>