<svg id="Layer_1" viewBox="0 0 24 24" xmlns="http://www.w3.org/2000/svg" data-name="Layer 1"><path d="m22.852 14h-1.852v-1.065c1.701-.306 3-1.81 3-3.623 0-3.052-1.815-4.911-5-5.243v-1.069h2.5c.829 0 1.5-.672 1.5-1.5s-.671-1.5-1.5-1.5h-7c-.829 0-1.5.672-1.5 1.5s.671 1.5 1.5 1.5h2.5v1h-6.852c-.094-.146-.148-.318-.148-.5 0-.828-.671-1.5-1.5-1.5s-1.5.672-1.5 1.5c0 1.165.509 2.234 1.363 2.968.166.195.378.346.623.436.062.035 3.074 1.554 3.074 1.554.066.555.208 1.083.437 1.57l-9.522 6.113c-.65.367-1.246.82-1.774 1.348l-.004.004c-.563.563-.993 1.267-1.134 2.051-.227 1.258.164 2.484 1.036 3.357.732.731 1.693 1.098 2.654 1.098s1.923-.366 2.655-1.098c.52-.521.968-1.109 1.332-1.748l6.067-9.413c.36.31.756.576 1.192.778v1.483h-.5c-.828 0-1.5.672-1.5 1.5s.672 1.5 1.5 1.5h6.869c.996 0 1.879-.485 2.424-1.233.535-.732-.034-1.767-.941-1.767zm-7.852-7h2.956c2.809 0 3.044 1.193 3.044 2.312 0 .36-.302.688-.633.688h-3.222c-1.183 0-2.145-.962-2.145-2.145zm-9.5 13.5-2-2 6-4zm11.5-7.515c.049.001.095.015.145.015h1.855v1h-2z"/></svg>