<svg id="Layer_1" viewBox="0 0 24 24" xmlns="http://www.w3.org/2000/svg" data-name="Layer 1"><path d="m9.634 20.514 8.614-8.569c2.547-2.524 4.42-5.309 5.567-8.28.388-1.006.155-2.106-.607-2.87s-1.864-.998-2.869-.612c-2.961 1.137-5.749 3.009-8.279 5.558l-2.106 2.095-3.834-3.834 1.439-1.439c.586-.585.586-1.536 0-2.121-.586-.586-1.535-.586-2.121 0l-4.999 4.999c-.586.585-.586 1.536 0 2.121.586.586 1.535.586 2.121 0l1.439-1.439 3.829 3.829-4.39 4.367-.878-.878c-.586-.586-1.535-.586-2.121 0s-.586 1.535 0 2.121l2.939 2.939-2.939 2.939c-.586.586-.586 1.535 0 2.121s1.535.586 2.121 0l2.939-2.939 2.939 2.939c.586.586 1.535.586 2.121 0s.586-1.535 0-2.121l-.925-.925zm4.548-12.653c2.04-2.055 4.243-3.601 6.558-4.603-1.01 2.324-2.556 4.527-4.605 6.558l-8.622 8.577-1.954-1.954zm9.816 10.722v1.917c0 1.93-1.57 3.5-3.5 3.5h-1.879c-2.003 0-3.886-.78-5.302-2.196l-.312-.313c-.585-.586-.583-1.536.004-2.121.586-.585 1.537-.583 2.121.004l.311.312c.86.859 1.96 1.315 3.179 1.315h1.879c.275 0 .5-.225.5-.5v-1.917c0-1.22-.455-2.32-1.317-3.18l-.312-.314c-.585-.586-.583-1.536.004-2.121.585-.586 1.536-.582 2.121.004l.311.312c1.414 1.413 2.194 3.296 2.194 5.3z"/></svg>