<svg id="Layer_1" viewBox="0 0 24 24" xmlns="http://www.w3.org/2000/svg" data-name="Layer 1"><path d="m21 23c0 .552-.448 1-1 1s-1-.448-1-1 .448-1 1-1 1 .448 1 1zm2-4c-.552 0-1 .448-1 1s.448 1 1 1 1-.448 1-1-.448-1-1-1zm-3 0c-.552 0-1 .448-1 1s.448 1 1 1 1-.448 1-1-.448-1-1-1zm-2-4v1c0 1.103-.897 2-2 2h-1c-1.103 0-2-.897-2-2v-1c0-1.103.897-2 2-2h1c1.103 0 2 .897 2 2zm-1.999 1v-1h-1.001v1zm1.999 5v1c0 1.103-.897 2-2 2h-1c-1.103 0-2-.897-2-2v-1c0-1.103.897-2 2-2h1c1.103 0 2 .897 2 2zm-1.999 1v-1h-1.001v1zm7.999-7v1c0 1.103-.897 2-2 2h-1c-1.103 0-2-.897-2-2v-1c0-1.103.897-2 2-2h1c1.103 0 2 .897 2 2zm-1.999 1v-1h-1.001v1zm-9.501-16h-.5c-.828 0-1.5.671-1.5 1.5s-.673 1.5-1.5 1.5-1.5-.673-1.5-1.5-.672-1.5-1.5-1.5h-.5c-3.032 0-5.5 2.467-5.5 5.5v13c0 3.033 2.468 5.5 5.5 5.5h4c.828 0 1.5-.671 1.5-1.5s-.672-1.5-1.5-1.5h-4c-1.379 0-2.5-1.122-2.5-2.5v-13c0-1.134.759-2.093 1.794-2.398.647 1.693 2.288 2.898 4.206 2.898s3.559-1.206 4.206-2.898c1.035.305 1.794 1.265 1.794 2.398v4c0 .829.672 1.5 1.5 1.5s1.5-.671 1.5-1.5v-4c0-3.033-2.468-5.5-5.5-5.5z"/></svg>