<svg id="Layer_1" viewBox="0 0 24 24" xmlns="http://www.w3.org/2000/svg" data-name="Layer 1"><path d="m23.437 8.54c.368-.791.563-1.668.563-2.54 0-3.309-2.691-6-6-6h-12c-3.308 0-6 2.692-6 6 0 .872.195 1.75.564 2.541l1.281 2.741c-1.131 1.246-1.845 3.299-1.845 5.718 0 3.991 1.935 7 4.5 7h1c1.031 0 1.958-.493 2.7-1.334.984.696 2.293 1.334 3.8 1.334s2.816-.638 3.8-1.334c.743.841 1.669 1.334 2.7 1.334h1c2.565 0 4.5-3.009 4.5-7 0-2.419-.714-4.472-1.845-5.718l1.281-2.742zm-17.437-5.54h12c1.654 0 3 1.346 3 3 0 .436-.098.875-.282 1.27l-1.276 2.729h-.942c-1.031 0-1.958.493-2.7 1.334-.984-.696-2.293-1.334-3.8-1.334s-2.816.638-3.8 1.334c-.743-.841-1.669-1.334-2.7-1.334h-.942l-1.276-2.729c-.185-.396-.282-.835-.282-1.271 0-1.654 1.346-3 3-3zm-3 14c0-2.489 1.042-4 1.5-4s1.5 1.511 1.5 4-1.042 4-1.5 4-1.5-1.511-1.5-4zm9 4c-.871 0-1.745-.514-2.398-1.039.254-.891.398-1.889.398-2.961s-.143-2.07-.398-2.961c.654-.525 1.527-1.039 2.398-1.039s1.744.514 2.397 1.039c-.254.891-.397 1.889-.397 2.961s.143 2.07.398 2.961c-.654.525-1.527 1.039-2.398 1.039zm7.5 0c-.458 0-1.5-1.511-1.5-4s1.042-4 1.5-4 1.5 1.511 1.5 4-1.042 4-1.5 4z"/></svg>