<svg id="Layer_1" viewBox="0 0 24 24" xmlns="http://www.w3.org/2000/svg" data-name="Layer 1"><path d="m13.5 2.115v-.615c0-.829-.671-1.5-1.5-1.5s-1.5.671-1.5 1.5v.615c-5.357.735-9.5 5.33-9.5 10.885 0 2.517.859 4.832 2.286 6.687-.724.603-1.286 1.515-1.286 2.813 0 .829.671 1.5 1.5 1.5s1.5-.671 1.5-1.5c0-.151.001-.523.455-.68 1.832 1.363 4.092 2.18 6.545 2.18s4.711-.816 6.542-2.177c.458.162.458.528.458.677 0 .829.671 1.5 1.5 1.5s1.5-.671 1.5-1.5c0-1.297-.562-2.21-1.286-2.813 1.427-1.856 2.286-4.17 2.286-6.687 0-5.555-4.143-10.15-9.5-10.885zm-9.5 10.885c0-4.411 3.589-8 8-8s8 3.589 8 8-3.589 8-8 8-8-3.589-8-8zm19.959-8.5c0 .829-.671 1.5-1.5 1.5s-1.5-.671-1.5-1.5c0-.451-.142-1.5-1.459-1.5-.829 0-1.5-.671-1.5-1.5s.671-1.5 1.5-1.5c2.583 0 4.459 1.893 4.459 4.5zm-22.418 1.5c-.829 0-1.5-.671-1.5-1.5 0-2.607 1.876-4.5 4.459-4.5.829 0 1.5.671 1.5 1.5s-.671 1.5-1.5 1.5c-1.317 0-1.459 1.049-1.459 1.5 0 .829-.671 1.5-1.5 1.5zm14.959 6c.03 1.042-.433 2.196-1.5 3.343v1.657c0 .552-.448 1-1 1s-1-.448-1-1v-8c0-1 .75-1.186 1.218-.841.816.585 2.178 1.704 2.282 3.841zm-4.5 0c0 1.23-.618 2.009-1.5 2.33v2.67c0 .552-.448 1-1 1s-1-.448-1-1v-2.67c-.882-.321-1.5-1.1-1.5-2.33 0-1.657 1.119-4 2.5-4s2.5 2.343 2.5 4z"/></svg>