<svg id="Layer_1" viewBox="0 0 24 24" xmlns="http://www.w3.org/2000/svg" data-name="Layer 1"><path d="m23 15.779v-2.279c0-2.481-2.019-4.5-4.5-4.5s-4.5 2.019-4.5 4.5v2.279c-.61.549-1 1.336-1 2.221v3c0 1.657 1.343 3 3 3h5c1.657 0 3-1.343 3-3v-3c0-.885-.39-1.672-1-2.221zm-4.5-3.779c.827 0 1.5.673 1.5 1.5v1.5h-3v-1.5c0-.827.673-1.5 1.5-1.5zm0 9c-.828 0-1.5-.672-1.5-1.5s.672-1.5 1.5-1.5 1.5.672 1.5 1.5-.672 1.5-1.5 1.5zm-8.5-14v-4h-4.5c-1.378 0-2.5 1.121-2.5 2.5v11c0 1.379 1.122 2.5 2.5 2.5h4c.829 0 1.5.672 1.5 1.5s-.671 1.5-1.5 1.5h-4c-3.033 0-5.5-2.468-5.5-5.5v-11c0-3.032 2.467-5.5 5.5-5.5h5.343c1.469 0 2.85.572 3.889 1.611l2.657 2.656c.765.765 1.271 1.717 1.488 2.751-.126-.007-.25-.019-.377-.019-1.842 0-3.501.769-4.684 2h-1.816c-1.105 0-2-.895-2-2z"/></svg>