<svg id="Layer_1" viewBox="0 0 24 24" xmlns="http://www.w3.org/2000/svg" data-name="Layer 1"><path d="m10.031 6.608c.189 2.508 1.527 4.696 3.498 6.027-.464.227-.978.365-1.529.365-1.933 0-3.5-1.567-3.5-3.5 0-1.202.607-2.262 1.531-2.892zm1.969-.608c0-3.309 2.691-6 6-6s6 2.691 6 6-2.691 6-6 6-6-2.691-6-6zm6 3c.267 0 .521-.046.767-.112l-3.655-3.655c-.066.246-.112.5-.112.767 0 1.654 1.346 3 3 3zm0-6c-.267 0-.521.046-.767.112l3.655 3.655c.066-.246.112-.5.112-.767 0-1.654-1.346-3-3-3zm5.657 11.855c-1.314 5.385-6.108 9.145-11.657 9.145-6.617 0-12-5.383-12-12 0-5.549 3.76-10.343 9.145-11.657.806-.201 1.616.297 1.812 1.102s-.297 1.616-1.102 1.812c-4.036.985-6.855 4.581-6.855 8.743 0 2.824 1.31 5.346 3.351 6.997.827-2.325 3.044-3.997 5.649-3.997s4.829 1.678 5.653 4.009c1.495-1.205 2.607-2.887 3.09-4.864.196-.805 1.009-1.3 1.812-1.102.805.196 1.298 1.008 1.102 1.812zm-11.657 6.145c1.028 0 2.022-.173 2.95-.493-.237-1.419-1.465-2.507-2.95-2.507s-2.707 1.081-2.949 2.494c.925.322 1.915.506 2.949.506z"/></svg>