<svg id="Layer_1" viewBox="0 0 24 24" xmlns="http://www.w3.org/2000/svg" data-name="Layer 1"><path d="m22 16v-7.5c0-3.032-2.468-5.5-5.5-5.5h-9c-3.033 0-5.5 2.468-5.5 5.5v7.5c-1.105 0-2 .895-2 2v1.154c0 1.02.827 1.846 1.846 1.846h20.308c1.02 0 1.846-.827 1.846-1.846v-1.154c0-1.105-.895-2-2-2zm-7.231 1h-5.538l-.923-1h-3.308v-7.5c0-1.379 1.122-2.5 2.5-2.5h9c1.379 0 2.5 1.121 2.5 2.5v7.5h-3.308zm-.769-9v2.303c0 .62-.75.931-1.188.492l-.596-.596-1.509 1.509c-.195.195-.451.293-.707.293s-.512-.098-.707-.293l-.793-.793-.793.793c-.391.391-1.023.391-1.414 0s-.391-1.023 0-1.414l1.5-1.5c.391-.391 1.023-.391 1.414 0l.793.793.802-.802-.596-.596c-.438-.438-.128-1.188.492-1.188h2.303c.552 0 1 .448 1 1zm4 3.5v2c0 .828-.672 1.5-1.5 1.5s-1.5-.672-1.5-1.5v-2c0-.828.672-1.5 1.5-1.5s1.5.672 1.5 1.5zm-5.5.5c.828 0 1.5.672 1.5 1.5s-.672 1.5-1.5 1.5-1.5-.672-1.5-1.5.672-1.5 1.5-1.5z"/></svg>