<svg id="Layer_1" viewBox="0 0 24 24" xmlns="http://www.w3.org/2000/svg" data-name="Layer 1"><path d="m10 15.682 2.062 5.165c-1.139 1.886-3.203 3.153-5.562 3.153-3.584 0-6.5-2.916-6.5-6.5v-13.5c0-2.206 1.795-4 4-4s4 1.794 4 4v13.5c0 .829-.671 1.5-1.5 1.5s-1.5-.671-1.5-1.5v-13.5c0-.551-.449-1-1-1s-1 .449-1 1v13.5c0 1.93 1.57 3.5 3.5 3.5s3.5-1.57 3.5-3.5zm13.89-5.744-2.352-5.813c-.644-1.612-1.876-2.877-3.472-3.562-1.596-.686-3.361-.708-4.975-.064-3.329 1.329-4.955 5.118-3.627 8.447l5.005 12.538c.817 2.068 3.2 3.044 5.198 2.232 2.013-.756 3.071-3.218 2.232-5.198l-5.018-12.573c-.308-.77-1.181-1.146-1.949-.837-.77.307-1.144 1.18-.837 1.949l5.018 12.573c.21.494-.055 1.11-.558 1.299-.495.21-1.11-.055-1.299-.558l-5.006-12.538c-.715-1.793.161-3.833 1.954-4.549.869-.346 1.82-.333 2.678.035.859.369 1.523 1.05 1.872 1.925l2.355 5.819c.311.769 1.187 1.137 1.953.828.768-.311 1.139-1.186.828-1.953z"/></svg>