<?xml version="1.0" encoding="UTF-8"?>
<svg xmlns="http://www.w3.org/2000/svg" id="Layer_1" data-name="Layer 1" viewBox="0 0 24 24">
  <path d="M7,2.5c0-1.381,1.119-2.5,2.5-2.5s2.5,1.119,2.5,2.5-1.119,2.5-2.5,2.5-2.5-1.119-2.5-2.5Zm9.5,6.5c.828,0,1.5-.671,1.5-1.5v-1c0-.829-.672-1.5-1.5-1.5s-1.5,.671-1.5,1.5v1c0,.829,.672,1.5,1.5,1.5Zm0-5c.828,0,1.5-.671,1.5-1.5V1.5c0-.829-.672-1.5-1.5-1.5s-1.5,.671-1.5,1.5v1c0,.829,.672,1.5,1.5,1.5Zm0,11c-.828,0-1.5,.671-1.5,1.5v1c0,.829,.672,1.5,1.5,1.5s1.5-.671,1.5-1.5v-1c0-.829-.672-1.5-1.5-1.5Zm0,5c-.828,0-1.5,.671-1.5,1.5v1c0,.829,.672,1.5,1.5,1.5s1.5-.671,1.5-1.5v-1c0-.829-.672-1.5-1.5-1.5Zm-1.939-8.061l-1.319-1.32-1.358-2.819c-.495-.892-1.351-1.505-2.326-1.715-.349-.131-.799-.071-1.17-.086-.75,0-1.49,.12-2.202,.357l-3.185,1.062c-.742,.247-1.333,.838-1.581,1.581l-.842,2.526c-.262,.786,.163,1.635,.948,1.897,.789,.262,1.636-.163,1.897-.949l.763-2.288,1.602-.534-.757,3.233c-.303,1.298,.146,2.634,1.169,3.485l2.8,2.333v3.797c0,.829,.672,1.5,1.5,1.5s1.5-.671,1.5-1.5v-4.032c0-.745-.328-1.445-.9-1.92l-1.633-1.36,.865-3.695,.316,.658c.073,.152,.172,.291,.291,.411l1.5,1.5c.586,.586,1.535,.586,2.121,0,.586-.585,.586-1.536,0-2.121Zm-8.659,6.115c-.802-.221-1.625,.245-1.847,1.044l-.833,3c-.222,.798,.246,1.625,1.044,1.847,.777,.222,1.627-.239,1.847-1.044l.833-3c.222-.798-.246-1.625-1.044-1.847Zm17.271-6.777l-2.74-2.507c-.563-.516-1.471-.116-1.471,.648v1.082h-1.462c-.828,0-1.5,.671-1.5,1.5s.672,1.5,1.5,1.5h1.462v1.168c0,.755,.897,1.151,1.455,.641l2.756-2.522c.449-.403,.449-1.107,0-1.51Z"/>
</svg>
