<svg id="Layer_1" viewBox="0 0 24 24" xmlns="http://www.w3.org/2000/svg" data-name="Layer 1"><path d="m21.602.821-1.895-.628c-.777-.258-1.637-.258-2.414 0l-1.895.628s0 0 0 0c-1.434.476-2.397 1.811-2.397 3.322v2.487c0 3.522 3.561 5.576 4.651 6.122.26.143.553.255.85.248.253.006.513-.081.745-.183 1.115-.449 4.754-2.221 4.754-6.187v-2.487c0-1.511-.964-2.846-2.398-3.322zm-.602 5.809c0 1.744-1.537 2.761-2.436 3.207-.877-.509-2.564-1.686-2.564-3.207v-2.487c0-.216.138-.407.343-.475l1.894-.627c.172-.057.355-.057.527 0l1.894.627c.205.068.343.259.343.475v2.487zm3 14.37v1.154c0 1.02-.827 1.846-1.846 1.846h-20.308c-1.02 0-1.846-.827-1.846-1.846v-1.154c0-1.105.895-2 2-2v-7.5c0-3.033 2.468-5.5 5.5-5.5h2c.828 0 1.5.671 1.5 1.5s-.672 1.5-1.5 1.5h-2c-1.379 0-2.5 1.122-2.5 2.5v7.5h3.308l.923 1h5.538l.923-1h3.308v-2.5c0-.829.672-1.5 1.5-1.5s1.5.671 1.5 1.5v2.5c1.105 0 2 .895 2 2z"/></svg>