<svg id="Layer_1" viewBox="0 0 24 24" xmlns="http://www.w3.org/2000/svg" data-name="Layer 1"><path d="m24 3.5c0 .829-.672 1.5-1.5 1.5h-7.5v.5c0 .398-.158.779-.439 1.061l-1.061 1.061v.879c0 .829-.671 1.5-1.5 1.5s-1.5-.671-1.5-1.5v-.879l-1.061-1.061c-.281-.281-.439-.663-.439-1.061v-.5h-7.5c-.829 0-1.5-.671-1.5-1.5s.671-1.5 1.5-1.5h7.684c.414-1.161 1.514-2 2.816-2s2.402.839 2.816 2h7.684c.828 0 1.5.671 1.5 1.5zm-1 14.5c0 2.206-1.794 4-4 4h-2.261c-1.01 1.221-2.535 2-4.239 2h-1c-3.033 0-5.5-2.467-5.5-5.5v-3c0-1.93 1.57-3.5 3.5-3.5h5c1.391 0 2.585.822 3.149 2h1.351c2.206 0 4 1.794 4 4zm-8 .5v-3c0-.276-.225-.5-.5-.5h-5c-.276 0-.5.224-.5.5v3c0 1.378 1.122 2.5 2.5 2.5h1c1.379 0 2.5-1.122 2.5-2.5zm5-.5c0-.551-.448-1-1-1h-1v1.5c0 .169-.01.335-.025.5h1.025c.552 0 1-.449 1-1z"/></svg>