<svg id="Layer_1" viewBox="0 0 24 24" xmlns="http://www.w3.org/2000/svg" data-name="Layer 1"><path d="m12 17c.347 0 .679-.058 1-.141v1.141c0 .552-.448 1-1 1s-1-.448-1-1v-1.141c.321.083.653.141 1 .141zm-1.218-8.986c-1.289 1.316-2.782 3.276-2.782 4.986 0 1.862 1.278 3.413 3 3.859v-3.859c0-.552.448-1 1-1s1 .448 1 1v3.859c1.722-.447 3-1.997 3-3.859 0-1.71-1.492-3.67-2.782-4.986-.672-.686-1.765-.686-2.437 0zm9.218-.514v11c0 3.033-2.468 5.5-5.5 5.5h-5c-3.033 0-5.5-2.467-5.5-5.5v-11c0-2.512 1.695-4.632 4-5.287v-1.213c0-.552.448-1 1-1h6c.552 0 1 .448 1 1v1.213c2.305.655 4 2.775 4 5.287zm-3 0c0-1.378-1.121-2.5-2.5-2.5h-5c-1.378 0-2.5 1.122-2.5 2.5v11c0 1.378 1.122 2.5 2.5 2.5h5c1.379 0 2.5-1.122 2.5-2.5z"/></svg>