<svg id="Layer_1" viewBox="0 0 24 24" xmlns="http://www.w3.org/2000/svg" data-name="Layer 1"><path d="m24 5.5v4c0 .829-.671 1.5-1.5 1.5s-1.5-.671-1.5-1.5v-4c0-1.378-1.122-2.5-2.5-2.5h-5v8.56c-1.227 1.253-2.559 2.487-3.174 4.44h-.826c-.828 0-1.5-.672-1.5-1.5s.672-1.5 1.5-1.5h1v-10h-5c-1.378 0-2.5 1.122-2.5 2.5v13c0 1.378 1.122 2.5 2.5 2.5h4c.829 0 1.5.671 1.5 1.5s-.671 1.5-1.5 1.5h-4c-3.033 0-5.5-2.467-5.5-5.5v-13c0-3.033 2.467-5.5 5.5-5.5h13c3.033 0 5.5 2.467 5.5 5.5zm-15.5 1c0-.828-.672-1.5-1.5-1.5h-.5c-.828 0-1.5.672-1.5 1.5v3c0 .828.672 1.5 1.5 1.5h.5c.828 0 1.5-.672 1.5-1.5zm10.5 0c0-.828-.672-1.5-1.5-1.5h-.5c-.828 0-1.5.672-1.5 1.5v3.015c.908-.964 2.175-1.516 3.5-1.515zm5 11.474c0 3.208-2.507 5.831-5.669 6.016-2.642.155-4.939-1.57-5.956-4.014-.95-2.283.052-4.425 1.125-5.752.28-.346.827-.283 1.007.123.254.575.17 1.505.708 1.505 1.137 0 .876-3.27 2.145-5.416.225-.381.748-.455 1.078-.161 2.05 1.829 5.562 4.532 5.562 7.699zm-4.655.479-.894-.894c-.249-.249-.652-.249-.901 0l-.894.894c-.763.763-.899 2.015-.197 2.835.813.948 2.271.948 3.083 0 .703-.819.566-2.072-.197-2.835z"/></svg>