<svg id="Layer_1" viewBox="0 0 24 24" xmlns="http://www.w3.org/2000/svg" data-name="Layer 1"><path d="m22.977 6.482c-1.02-1.545-2.666-2.746-4.955-3.639-.584-.266-1.154-.587-1.758-.927-.577-.325-1.173-.661-1.806-.96-2.005-.949-4.071-1.18-6.142-.681-1.921.463-3.546 1.532-4.605 3.051-.455.698-.746 1.439-1.001 2.092-.797 2.133-2.895 3.868-2.703 6.082 0 1.193.467 2.283.88 3.244.162.379.324.75.438 1.109.134.423.175.933.217 1.474.049.614.103 1.31.308 2.016.497 1.713 1.665 2.991 3.29 3.597 1.212.453 2.486.295 3.61.155.464-.058.902-.112 1.26-.112.92 0 1.78.238 2.692.49.952.264 1.973.546 3.07.546.898 0 1.845-.189 2.844-.733 1.835-.86 2.936-2.703 3.029-5.063.091-.756.236-1.722.55-2.614.167-.475.388-.951.623-1.455.154-.332.308-.664.451-1.001 1.057-2.496.956-4.802-.293-6.672zm-2.468 5.503c-.129.305-.268.605-.408.905-.254.546-.517 1.11-.733 1.723-.435 1.262-.615 2.451-.716 3.449-.022.719-.221 2.001-1.384 2.549-1.182.641-2.101.433-3.766-.028-1.014-.281-2.163-.598-3.49-.598-.543 0-1.095.068-1.629.135-.821.102-1.669.208-2.193.012-.915-.342-1.299-1.071-1.459-1.624-.119-.411-.158-.899-.198-1.415-.052-.654-.11-1.394-.348-2.145-.15-.473-.349-.937-.541-1.385-.313-.73-.637-1.484-.637-2.061 0-.59.29-1.314.819-2.048.883-.919 1.304-1.99 1.676-2.938.224-.571.436-1.11.697-1.512.612-.877 1.614-1.52 2.821-1.811 1.406-.337 2.767-.182 4.16.476.536.253 1.061.549 1.616.862.631.356 1.284.723 2.059 1.075 1.771.693 2.956 1.521 3.624 2.533.002.003.004.005.006.008.671 1.004.681 2.295.026 3.84zm-6.509-4.484c0 .828-.672 1.5-1.5 1.5s-1.5-.672-1.5-1.5.672-1.5 1.5-1.5 1.5.672 1.5 1.5zm4 3c0 .828-.672 1.5-1.5 1.5s-1.5-.672-1.5-1.5.672-1.5 1.5-1.5 1.5.672 1.5 1.5zm-7 5c0 .828-.672 1.5-1.5 1.5s-1.5-.672-1.5-1.5.672-1.5 1.5-1.5 1.5.672 1.5 1.5zm-3-4c0 .828-.672 1.5-1.5 1.5s-1.5-.672-1.5-1.5.672-1.5 1.5-1.5 1.5.672 1.5 1.5zm9 6c0 .828-.672 1.5-1.5 1.5s-1.5-.672-1.5-1.5.672-1.5 1.5-1.5 1.5.672 1.5 1.5z"/></svg>