<svg id="Layer_1" viewBox="0 0 24 24" xmlns="http://www.w3.org/2000/svg" data-name="Layer 1"><path d="m23.902 14.502c-.284-1.037-1.306-1.912-2.054-2.328-.566-.315-1.281-.065-1.53.533-.259.624-.324 1.719-.324 2.292 0 .737.406 1.371 1 1.718v.532c0 2.068-1.682 3.75-3.749 3.75-1.432 0-2.664-.816-3.295-2h1.305c1.126 0 2.107-.621 2.62-1.538.366-.655-.154-1.462-.903-1.462h-1.649c.157-.308.295-.641.405-1h1.268c.357 0 .695-.073 1.013-.188.047-.952.429-2.027.772-2.812h-2.785v-1h1.999c2.071 0 3.802-1.415 4.323-3.324.996-.481 1.673-1.502 1.675-2.676 0-1.5-.657-3.829-1.196-4.707-.285-.45-.965-.366-1.136.139-.228.673-.585 1.678-1.098 2.576-.216-.261-.405-.51-.555-.709-.31-.411-.925-.394-1.223.027-.411.58-.838 1.609-.785 2.674-.002 0 .002.01 0 .01 0 .979.474 1.828 1.199 2.376-.273.371-.709.615-1.204.615h-1.999v-.461c0-1.169-.458-2.391-1-3.345v-2.194c0-.552-.447-1-1-1s-1 .448-1 1v.204c-.642-.231-1.358-.231-1.999 0v-.204c0-.552-.447-1-1-1s-1 .448-1 1v2.194c-.541.953-1 2.176-1 3.345v.461h-1.999c-.495 0-.931-.244-1.204-.615.726-.548 1.2-1.399 1.2-2.378-.002 0 0-.007 0-.007.053-1.065-.374-2.094-.785-2.674-.298-.42-.913-.438-1.223-.027-.15.199-.339.448-.555.709-.513-.897-.87-1.903-1.098-2.576-.171-.504-.851-.588-1.136-.139-.54.878-1.197 3.207-1.197 4.707.002 1.174.679 2.195 1.675 2.676.521 1.909 2.252 3.324 4.323 3.324h1.999v1h-2.976c-.75 0-1.269.807-.903 1.462.513.918 1.494 1.538 2.62 1.538h1.525c.109.36.246.692.402 1h-1.643c-.75 0-1.269.807-.903 1.462.513.918 1.494 1.538 2.62 1.538h1.997c.774 2.875 3.395 5 6.51 5 3.721 0 6.748-3.028 6.748-6.75-.025-.387.073-2.42-.091-2.748zm-10.902-1.297c0 1.071-.531 1.869-1.007 2.371-.474-.5-.993-1.294-.993-2.371v-5.666c0-.852.628-2.009.997-2.46.369.452 1.003 1.609 1.003 2.46v5.667z"/></svg>