<svg id="Layer_1" viewBox="0 0 24 24" xmlns="http://www.w3.org/2000/svg" data-name="Layer 1"><path d="m24 20.976v1.524c0 .829-.672 1.5-1.5 1.5s-1.5-.671-1.5-1.5v-1.524c0-1.113-.716-2.075-1.781-2.394l-6.219-1.866v5.282c0 1.105-.897 2.001-2.002 2h-.783c-.499-.001-.979-.188-1.347-.525l-3.133-2.864c-.866-.722-.983-2.008-.261-2.874s2.008-.983 2.874-.261l1.64 1.296v-10.27c0-.958.883-1.705 1.884-1.449.682.175 1.129.839 1.129 1.543v4.991l7.08 2.124c2.345.703 3.92 2.819 3.92 5.268zm-19.894-9.961 6.913-6.913.67.67c.486.486 1.318.142 1.318-.546v-3.454c0-.426-.346-.772-.772-.772h-3.454c-.688 0-1.032.832-.546 1.318l.663.663-6.913 6.913-.667-.667c-.486-.486-1.318-.142-1.318.546v3.454c0 .426.346.772.772.772h3.454c.688 0 1.032-.832.546-1.318l-.667-.667z"/></svg>