<svg id="Layer_1" viewBox="0 0 24 24" xmlns="http://www.w3.org/2000/svg" data-name="Layer 1"><path d="m18.5 0c-.828 0-1.5.671-1.5 1.5v7.5h-10v-7.5c0-.829-.672-1.5-1.5-1.5s-1.5.671-1.5 1.5v21c0 .829.672 1.5 1.5 1.5s1.5-.671 1.5-1.5v-.5h10v.5c0 .829.672 1.5 1.5 1.5s1.5-.671 1.5-1.5v-21c0-.829-.672-1.5-1.5-1.5zm-1.5 12v2h-10v-2zm-10 7v-2h10v2zm1.235-15.405c-.213-.181-.291-.476-.194-.738.096-.262.346-.437.626-.437h2.001l.708-1.987c.097-.261.346-.434.625-.434s.528.173.625.434l.708 1.987h2.001c.28 0 .53.175.626.438s.017.558-.197.739l-1.577 1.285.652 1.987c.089.269-.001.565-.226.738s-.534.185-.771.031l-1.836-1.196-1.805 1.208c-.235.157-.544.149-.771-.021s-.321-.464-.236-.734l.627-2.011-1.585-1.29z"/></svg>