<svg id="Layer_1" viewBox="0 0 24 24" xmlns="http://www.w3.org/2000/svg" data-name="Layer 1"><path d="m16 3.624c0-1.447 1.177-2.624 2.624-2.624h.376c0-.552.447-1 1-1s1 .448 1 1h.268c1.067 0 2.063.575 2.598 1.5.092.158.135.33.135.5 0 .345-.179.68-.499.866-.48.276-1.091.113-1.366-.365-.179-.309-.511-.5-.867-.5h-2.644c-.344 0-.624.28-.624.624 0 .307.22.565.521.616l3.285.548c1.271.211 2.193 1.212 2.193 2.588 0 1.447-1.177 2.624-2.624 2.624h-.376c0 .553-.447 1-1 1s-1-.447-1-1h-.268c-1.067 0-2.063-.574-2.598-1.499-.277-.478-.113-1.089.364-1.366.479-.278 1.09-.113 1.366.365.179.308.511.5.867.5h2.644c.344 0 .624-.28.624-.624 0-.307-.22-.565-.521-.616l-3.285-.548c-1.271-.211-2.193-1.3-2.193-2.588zm2.038 12.293c.151-.205.309-.403.446-.622.439-.702.227-1.628-.477-2.066-.699-.44-1.628-.227-2.066.477-.515.807-1.166 1.491-1.94 2.036v-3.741c0-.553-.447-1-1-1s-1 .447-1 1v4.701c-.326.097-.659.175-1 .223v-3.924c0-.553-.447-1-1-1s-1 .447-1 1v3.92c-.341-.049-.676-.118-1-.215v-3.205c0-.553-.447-1-1-1s-1 .447-1 1v2.236c-1.065-.745-1.916-1.776-2.434-2.983l3.338-3.338.495.496c.818.818 2.152.817 2.971 0l1.381-1.381.705.705c.57.57 1.544.166 1.544-.639v-2.31c0-.709-.575-1.284-1.284-1.284h-2.31c-.806 0-1.209.974-.639 1.544l.57.57-1.434 1.472-.514-.514c-.792-.794-2.178-.795-2.972 0l-2.394 2.395c-.01-.155-.024-.309-.024-.466 0-3.86 3.141-7 7-7 .702 0 1.396.104 2.06.308.789.242 1.631-.201 1.874-.994.243-.792-.201-1.631-.993-1.875-.95-.292-1.939-.439-2.94-.439-5.515-.004-10.001 4.496-10.001 9.996s4.486 10 10 10c2.182 0 4.244-.697 5.933-1.945l5.506 5.506c.293.293.677.439 1.061.439s.768-.146 1.061-.439.439-.677.439-1.061-.146-.768-.439-1.061l-5.523-5.523z"/></svg>