<svg id="Layer_1" viewBox="0 0 24 24" xmlns="http://www.w3.org/2000/svg" data-name="Layer 1"><path d="m11.344 23.172c-.372.747-1.288 1.037-2.013.669l-.38-.19c-2.099-1.049-8.951-4.98-8.951-11.5v-5.105c0-2.278 1.454-4.292 3.617-5.01l5.911-1.96c.307-.102.638-.102.944 0l5.911 1.96c2.164.718 3.617 2.73 3.617 5.01v1.454c0 .828-.672 1.5-1.5 1.5s-1.5-.672-1.5-1.5v-1.454c0-.983-.627-1.853-1.562-2.162l-5.438-1.804-5.439 1.804c-.934.31-1.561 1.179-1.561 2.162v5.105c0 4.799 5.582 7.962 7.292 8.816l.381.191c.741.37 1.041 1.271.67 2.013zm12.336-2.143c-.422.722-1.35.95-2.053.537l-.242-.142c-.408.344-.872.616-1.385.799v.276c0 .828-.672 1.5-1.5 1.5s-1.5-.672-1.5-1.5v-.276c-.513-.183-.977-.455-1.385-.799l-.242.142c-.703.413-1.631.185-2.053-.537-.418-.716-.178-1.634.537-2.053l.228-.133c-.052-.274-.085-.555-.085-.843s.033-.569.085-.843l-.228-.133c-.715-.419-.955-1.337-.537-2.053.42-.715 1.34-.952 2.053-.537l.242.142c.408-.344.872-.616 1.385-.799v-.276c0-.828.672-1.5 1.5-1.5s1.5.672 1.5 1.5v.276c.513.183.977.455 1.385.799l.242-.142c.714-.416 1.633-.178 2.053.537.418.716.178 1.634-.537 2.053l-.228.133c.052.274.085.555.085.843s-.033.569-.085.843l.228.133c.715.419.955 1.337.537 2.053zm-5.18-4.529c-.827 0-1.5.673-1.5 1.5s.673 1.5 1.5 1.5 1.5-.673 1.5-1.5-.673-1.5-1.5-1.5zm-3.71-5.584c-2.268 1.19-3.89 3.435-4.221 6.084h-2.569c-1.657 0-3-1.343-3-3v-2c0-1.108.607-2.064 1.5-2.584v-.916c0-1.929 1.571-3.489 3.5-3.49 1.929.001 3.5 1.561 3.5 3.49v.916c.583.339 1.04.867 1.29 1.5zm-5.79-1.916h2v-.5c0-.551-.449-1-1-1s-1 .449-1 1zm2.5 4c0-.828-.672-1.5-1.5-1.5s-1.5.672-1.5 1.5.672 1.5 1.5 1.5 1.5-.672 1.5-1.5z"/></svg>