<svg id="Layer_1" viewBox="0 0 24 24" xmlns="http://www.w3.org/2000/svg" data-name="Layer 1"><path d="m24 3.5v5.5c0 7.18-5.82 13-13 13h-9.5c-.828 0-1.5-.672-1.5-1.5s.672-1.5 1.5-1.5h.531c-1.264-1.484-2.031-3.403-2.031-5.5 0-6.341 5.159-11.5 11.5-11.5.774 0 1.548.078 2.299.23.812.165 1.336.957 1.171 1.769s-.966 1.333-1.769 1.171c-.555-.113-1.127-.17-1.701-.17-4.687 0-8.5 3.813-8.5 8.5 0 3.033 2.467 5.5 5.5 5.5 2.481 0 4.5-2.019 4.5-4.5 0-1.378-1.122-2.5-2.5-2.5-.827 0-1.5.673-1.5 1.5 0 .276.224.5.5.5.829 0 1.5.671 1.5 1.5s-.671 1.5-1.5 1.5c-1.95.008-3.5-1.5-3.5-3.5 0-2.473 2.028-4.459 4.5-4.5 2.891 0 5.263 2.244 5.479 5.081.689-1.623 1.024-3.57 1.021-5.581v-5c0-.829.672-1.5 1.5-1.5s1.5.671 1.5 1.5v1.557c.344-.048.678-.045 1 .002v-1.558c0-.829.672-1.5 1.5-1.5s1.5.671 1.5 1.5z"/></svg>