<svg id="Layer_1" viewBox="0 0 24 24" xmlns="http://www.w3.org/2000/svg" data-name="Layer 1"><path d="m20.843 15.981c-.528 1.062-1.222 2.027-2.063 2.872l-3.808 3.536c-1.044 1.027-2.466 1.61-3.973 1.61s-2.928-.583-4.004-1.641l-3.734-3.465c-4.327-4.345-4.327-11.35-.041-15.656 1.651-1.659 3.74-2.73 6.043-3.099.813-.128 1.587.426 1.718 1.244s-.426 1.588-1.244 1.719c-1.671.268-3.19 1.047-4.391 2.253-3.124 3.139-3.124 8.245 0 11.383l3.723 3.454c1.085 1.066 2.81 1.036 3.832.03l3.796-3.525c.571-.574 1.076-1.278 1.46-2.05.369-.742 1.268-1.048 2.011-.675.742.368 1.044 1.269.675 2.011zm3.157-9.981c0 3.314-2.686 6-6 6s-6-2.686-6-6 2.686-6 6-6 6 2.686 6 6zm-7-1c0 .553.448 1 1 1s1-.447 1-1v-2c0-.553-.448-1-1-1s-1 .447-1 1zm2.5 3.5c0-.828-.672-1.5-1.5-1.5s-1.5.672-1.5 1.5.672 1.5 1.5 1.5 1.5-.672 1.5-1.5zm-9.867-.162c-1.116.571-1.828 1.815-1.586 3.203.207 1.185 1.162 2.166 2.343 2.399 1.039.205 2.003-.128 2.673-.768.273-.261.216-.701-.077-.938-1.129-.911-2.001-2.124-2.503-3.514-.127-.351-.518-.55-.85-.381z"/></svg>