<svg id="Layer_1" viewBox="0 0 24 24" xmlns="http://www.w3.org/2000/svg" data-name="Layer 1"><path d="m6.5 3h.5v9c0 2.757 2.243 5 5 5s5-2.243 5-5v-9h.5c.829 0 1.5-.672 1.5-1.5s-.671-1.5-1.5-1.5h-11c-.829 0-1.5.672-1.5 1.5s.671 1.5 1.5 1.5zm5.5 11c-1.103 0-2-.897-2-2v-3h4v3c0 1.103-.897 2-2 2zm2-8h-4v-3h4zm-.5 15.946v.554c0 .828-.671 1.5-1.5 1.5s-1.5-.672-1.5-1.5v-.554c-4.77-.502-8.5-4.546-8.5-9.446 0-.828.671-1.5 1.5-1.5s1.5.672 1.5 1.5c0 3.584 2.916 6.5 6.5 6.5h1c3.584 0 6.5-2.916 6.5-6.5 0-.828.671-1.5 1.5-1.5s1.5.672 1.5 1.5c0 4.9-3.73 8.945-8.5 9.446z"/></svg>