<svg id="Layer_1" viewBox="0 0 24 24" xmlns="http://www.w3.org/2000/svg" data-name="Layer 1"><path d="m22.795 9c-.482 0-.918.287-1.108.73l-.544 1.27h-2.705c.886-1.414.711-3.248-.47-4.451-.111-.114-3.862-3.425-3.97-3.526-.676-.667-1.557-1.002-2.444-1.013-.302-.307-.637-.59-1.001-.842-2.219-1.535-5.223-1.571-7.472-.09-2.039 1.344-3.187 3.585-3.075 5.922 0 3.431.392 5.946 2.344 7.88.07.07 4.116 3.682 4.188 3.749.946.966 2.267 1.46 3.598 1.358 1.344-.103 2.57-.794 3.375-1.914l2.849-4.073h4.782l.544 1.27c.19.443.626.73 1.108.73.666 0 1.205-.54 1.205-1.205v-4.589c0-.666-.54-1.205-1.205-1.205zm-18.063-5.417c1.102-.725 2.586-.769 3.751-.158-.491.387-4.139 3.237-5.465 4.3-.006-.258-.013-.513-.013-.797-.063-1.34.582-2.591 1.728-3.346zm6.333 12.754c-.28.389-.691.622-1.157.658-.457.031-.898-.131-1.299-.535l-4.133-3.697c-.333-.34-.501-.792-.473-1.275.028-.478.245-.903.61-1.197 1.405-1.131 5.876-4.623 6.567-5.173.254-.208.591-.121.792.12l3.878 3.44c.185.213.2.538.021.787l-4.807 6.874zm12.933 2.637c-.039.669-.221 1.559-.844 2.195-.47.481-1.089.687-1.654.772v.558c0 .828-.672 1.5-1.5 1.5s-1.5-.672-1.5-1.5v-.558c-.559-.086-1.177-.293-1.663-.78-.665-.665-.823-1.583-.836-2.248-.01-.504.411-.925.915-.915.665.013 1.583.172 2.248.836.824.824.867 2.026.824 2.663h.016c-.006-.633.097-1.82.895-2.636.623-.637 1.494-.823 2.149-.863.542-.033.984.419.952.973z"/></svg>