<svg id="Layer_1" viewBox="0 0 24 24" xmlns="http://www.w3.org/2000/svg" data-name="Layer 1"><path d="m19.781 3.238c-2.078-2.089-4.841-3.238-7.781-3.238s-5.704 1.149-7.781 3.237c-4.285 4.306-4.285 11.311.043 15.658l3.734 3.465c1.076 1.058 2.498 1.641 4.004 1.641s2.928-.582 3.973-1.61l3.808-3.536c4.285-4.306 4.285-11.311 0-15.615zm-2.084 13.457-3.796 3.524c-1.023 1.006-2.748 1.037-3.833-.029l-3.723-3.454c-3.123-3.138-3.123-8.244 0-11.383 1.51-1.518 3.519-2.354 5.654-2.354s4.144.836 5.654 2.354c3.123 3.138 3.123 8.244.042 11.341zm-5.197-11.695h-2c-1.378 0-2.5 1.121-2.5 2.5v8c0 .828.671 1.5 1.5 1.5s1.5-.672 1.5-1.5v-1.5h1.5c2.481 0 4.5-2.019 4.5-4.5s-2.019-4.5-4.5-4.5zm0 6h-1.5v-3h1.5c.827 0 1.5.673 1.5 1.5s-.673 1.5-1.5 1.5z"/></svg>