<svg id="Layer_1" viewBox="0 0 24 24" xmlns="http://www.w3.org/2000/svg" data-name="Layer 1"><path d="m23.394 8.846-1.081-1.503c-.605-.84-1.584-1.342-2.619-1.342h-1.271c-.864 0-1.706.355-2.308.973l-1.198 1.227c-.591.606-.917 1.407-.917 2.253v.47c0 .847.326 1.647.917 2.253l.831.851c.603.619 1.444.974 2.309.974h2.053c1.11 0 2.128-.56 2.723-1.496l.665-1.046c.71-1.118.669-2.536-.103-3.612zm-2.429 2.003-.665 1.047c-.041.065-.112.104-.19.104h-2.053c-.06 0-.119-.025-.162-.068l-.831-.851c-.042-.042-.064-.099-.064-.158v-.47c0-.06.023-.116.064-.158l1.198-1.227c.042-.043.101-.068.161-.068h1.271c.073 0 .141.035.183.094l1.08 1.502c.054.076.057.175.007.253zm-13.484-6.232c-.308-.316-.481-.739-.481-1.181v-.499c0-.441.173-.865.481-1.181l1.218-1.248c.318-.326.754-.51 1.21-.51h.905c.544 0 1.055.262 1.372.704l1.104 1.537c.403.561.424 1.31.054 1.893l-.688 1.083c-.31.488-.848.784-1.427.784h-1.688c-.455 0-.891-.184-1.21-.51l-.852-.873zm9.885-1.493c-.234-.24-.366-.562-.366-.898v-.203c0-.336.131-.658.366-.898l.72-.738c.242-.248.574-.388.92-.388h.455c.414 0 .802.199 1.044.535l.626.871c.306.426.323.996.041 1.44l-.354.558c-.236.371-.645.596-1.085.596h-.971c-.346 0-.678-.14-.92-.388l-.476-.488zm-12.506 3.715c-.817-.817-2.035-1.061-3.103-.617-1.068.442-1.758 1.475-1.758 2.63v9.647c0 3.032 2.467 5.5 5.5 5.5h9.613c1.162 0 2.2-.693 2.644-1.767s.201-2.298-.621-3.118zm.64 14.161c-1.378 0-2.5-1.121-2.5-2.5v-9.279l11.778 11.779z"/></svg>