<svg id="Layer_1" viewBox="0 0 24 24" xmlns="http://www.w3.org/2000/svg" data-name="Layer 1"><path d="m20.603 21.49c.244.267.397.619.397 1.01 0 .829-.672 1.5-1.5 1.5h-11c-.828 0-1.5-.671-1.5-1.5 0-.381.147-.725.381-.99-1.077-.95-1.948-2.142-2.541-3.51h-2.34c-.828 0-1.5-.671-1.5-1.5s.672-1.5 1.5-1.5h8c.828 0 1.5.671 1.5 1.5s-.672 1.5-1.5 1.5h-2.245c1.28 1.849 3.393 3 5.745 3 3.859 0 7-3.14 7-7 0-1.602-.539-3.12-1.524-4.354l-4.416 4.415c-.586.586-1.535.586-2.121 0s-.586-1.536 0-2.121l5.868-5.868c.194-.195.194-.513 0-.708-.186-.184-.486-.485-.671-.67-.165-.165-.422-.254-.706 0l-2.369 2.368c-.586.586-1.535.586-2.121 0s-.586-1.536 0-2.121l2.368-2.368c1.069-1.07 2.779-1.259 4.095-.595l1.037-1.037c.586-.586 1.535-.585 2.121 0 .586.586.586 1.536 0 2.122l-1.028 1.029c.547 1.039.538 2.285-.03 3.316 1.609 1.826 2.498 4.14 2.498 6.595 0 2.983-1.32 5.657-3.397 7.49zm-17.672-11.563 1.133-.654c.275.235.589.419.936.543v2.184c0 .552.447 1 1 1s1-.448 1-1v-2.184c.347-.124.661-.309.936-.543l1.133.654c.185.619.752 1.073 1.431 1.073.828 0 1.5-.672 1.5-1.5s-.672-1.5-1.5-1.5c-.202 0-.395.041-.571.114l-.985-.568c.033-.177.055-.359.055-.545 0-.188-.022-.371-.055-.549l1.879-1.085c.479-.276.643-.888.366-1.366-.276-.479-.89-.642-1.366-.366l-1.89 1.091c-.274-.233-.587-.418-.933-.541v-1.573c.305-.275.5-.668.5-1.111 0-.828-.672-1.5-1.5-1.5s-1.5.672-1.5 1.5c0 .443.195.836.5 1.111v1.573c-.346.123-.659.307-.933.541l-1.89-1.091c-.479-.276-1.09-.113-1.366.366-.276.478-.112 1.09.366 1.366l1.879 1.085c-.033.179-.055.361-.055.549 0 .187.022.368.055.545l-.984.568c-.176-.073-.368-.114-.571-.114-.828 0-1.5.672-1.5 1.5s.672 1.5 1.5 1.5c.679 0 1.246-.454 1.431-1.073z"/></svg>