<svg id="Layer_1" viewBox="0 0 24 24" xmlns="http://www.w3.org/2000/svg" data-name="Layer 1"><path d="m16.148 9h-8.296l.36-1.009c.426-1.194 1.557-1.991 2.825-1.991h1.926c1.268 0 2.399.797 2.825 1.991zm.852 3.5c0-.579-.072-.937-.201-1.5h-9.598c-.129.563-.201.921-.201 1.5 0 .652.419 1.202 1 1.408v.842c0 .69.56 1.25 1.25 1.25s1.25-.56 1.25-1.25v-.75h3v.75c0 .69.56 1.25 1.25 1.25s1.25-.56 1.25-1.25v-.842c.581-.207 1-.756 1-1.408zm-1.027 9.89 3.808-3.537c4.284-4.305 4.284-11.31 0-15.615-2.079-2.088-4.842-3.238-7.781-3.238s-5.704 1.15-7.781 3.238c-4.285 4.305-4.285 11.31.043 15.656l3.734 3.466c1.076 1.057 2.498 1.64 4.003 1.64s2.928-.583 3.973-1.61zm1.681-17.036c3.124 3.138 3.124 8.245.043 11.342l-3.796 3.525c-1.021 1.004-2.747 1.035-3.833-.029l-3.723-3.455c-3.123-3.138-3.123-8.245 0-11.383 1.51-1.518 3.519-2.354 5.654-2.354s4.144.836 5.653 2.354z"/></svg>