<svg id="Layer_1" viewBox="0 0 24 24" xmlns="http://www.w3.org/2000/svg" data-name="Layer 1"><path d="m16 16c0 .828-.671 1.5-1.5 1.5h-1v1c0 .828-.671 1.5-1.5 1.5s-1.5-.672-1.5-1.5v-1h-1c-.829 0-1.5-.672-1.5-1.5s.671-1.5 1.5-1.5h1v-1c0-.828.671-1.5 1.5-1.5s1.5.672 1.5 1.5v1h1c.829 0 1.5.672 1.5 1.5zm8-2.5v5c0 3.032-2.467 5.5-5.5 5.5h-13c-3.033 0-5.5-2.468-5.5-5.5v-7c0-2.863 2.201-5.221 5-5.475v-2.025c0-2.206 1.794-4 4-4h5.171c.935 0 1.814.364 2.475 1.025l1.328 1.328c.661.661 1.025 1.54 1.025 2.475v3.197c2.799.254 5 2.611 5 5.475zm-16-7.345c.202.059.404.12.592.214l3.262 1.631h4.146v-3h-1c-.552 0-1-.448-1-1v-1h-5c-.551 0-1 .448-1 1zm13 7.345c0-1.379-1.122-2.5-2.5-2.5h-7c-.233 0-.462-.055-.671-.158l-3.578-1.789c-.068-.034-.146-.053-.224-.053h-1.528c-1.378 0-2.5 1.121-2.5 2.5v7c0 1.379 1.122 2.5 2.5 2.5h13c1.378 0 2.5-1.121 2.5-2.5v-5z"/></svg>