<svg id="Layer_1" viewBox="0 0 24 24" xmlns="http://www.w3.org/2000/svg" data-name="Layer 1"><path d="m10 8c0 1.104.895 2 2 2 1.104 0 2-.895 2-2v-3h4.001v2.774c-.002 1.469-.443 2.934-1.385 4.06-1.163 1.39-2.83 2.165-4.616 2.165-1.784 0-3.451-.774-4.615-2.165-.943-1.126-1.384-2.591-1.384-4.06v-2.775s4 0 4 0v3zm8-6.5c0-.828-.672-1.5-1.5-1.5h-1c-.828 0-1.5.672-1.5 1.5v1.5h4zm-8 0c0-.828-.672-1.5-1.5-1.5h-1c-.828 0-1.5.672-1.5 1.5v1.5h4zm12.669 4.06c-.519-.646-1.462-.748-2.109-.229-.646.519-.748 1.463-.229 2.108.305.38.669.959.669 1.562v8.293c0 1.209-.863 2.243-2.075 2.464l-5.425 1.072v-3.329c0-.828-.671-1.5-1.5-1.5s-1.5.672-1.5 1.5v3.328l-5.447-1.076c-1.189-.217-2.053-1.251-2.053-2.46v-8.293c0-.603.364-1.182.669-1.562.519-.646.417-1.59-.229-2.108-.646-.519-1.59-.416-2.109.229-.871 1.083-1.331 2.272-1.331 3.44v8.293c0 2.66 1.899 4.936 4.494 5.407l5.807 1.146c.566.107 1.135.153 1.699.153s1.143-.049 1.722-.157l5.762-1.139c2.617-.476 4.517-2.751 4.517-5.411v-8.291c0-1.168-.46-2.357-1.331-3.44z"/></svg>