<svg id="Layer_1" viewBox="0 0 24 24" xmlns="http://www.w3.org/2000/svg" data-name="Layer 1"><path d="m22.5 18c-2.971 0-5.914-1.053-8.482-2.769 1.218-.92 2.351-1.245 3.535-1.576 1.412-.394 3.012-.839 4.503-2.332 2.586-2.586 2.586-6.794 0-9.381-2.586-2.586-6.795-2.586-9.381 0-1.647 1.647-2.081 3.28-2.462 4.72-.305 1.15-.587 2.178-1.444 3.319-1.716-2.567-2.77-5.511-2.77-8.482 0-.829-.671-1.5-1.5-1.5s-1.5.671-1.5 1.5c0 2.754.735 5.458 1.98 7.944-2.904 1.048-4.98 3.846-4.98 7.056 0 4.136 3.364 7.5 7.5 7.5 3.209 0 6.008-2.076 7.056-4.98 2.486 1.246 5.19 1.98 7.944 1.98.829 0 1.5-.672 1.5-1.5s-.671-1.5-1.5-1.5zm-9.387-10.568c.34-1.28.608-2.292 1.684-3.368 1.417-1.417 3.722-1.417 5.138 0s1.417 3.722 0 5.139c-.935.935-1.929 1.212-3.188 1.563-1.456.406-3.233.91-5.134 2.554-.322-.301-.633-.611-.933-.933 1.604-1.859 2.063-3.56 2.433-4.954zm-5.613 13.568c-2.481 0-4.5-2.019-4.5-4.5 0-2.13 1.527-3.944 3.56-4.383 1.448 2.057 3.266 3.875 5.323 5.323-.438 2.033-2.253 3.56-4.383 3.56z"/></svg>