<svg id="Layer_1" viewBox="0 0 24 24" xmlns="http://www.w3.org/2000/svg" data-name="Layer 1"><path d="m23 14.5c0 .828-.672 1.5-1.5 1.5h-4c-.828 0-1.5-.672-1.5-1.5 0-.652.419-1.199 1-1.406v-6.844c0-.689-.561-1.25-1.25-1.25s-1.25.561-1.25 1.25v4.75h-5v-4.75c0-3.446 2.804-6.25 6.25-6.25s6.25 2.804 6.25 6.25v6.844c.581.207 1 .755 1 1.406zm-20-6.033v1.033c0 .828.672 1.5 1.5 1.5s1.5-.672 1.5-1.5v-1.036c1.747-.618 3-2.281 3-4.24 0-1.432-.673-2.699-1.718-3.518-.52-.408-1.282-.058-1.282.603v1.915c0 .828-.672 1.5-1.5 1.5s-1.5-.672-1.5-1.5v-1.92c0-.627-.721-1.024-1.221-.645-1.251.947-1.991 2.526-1.725 4.272.248 1.626 1.413 3.001 2.946 3.536zm6.5 9.283c0 .689-.561 1.25-1.25 1.25s-1.25-.561-1.25-1.25v-1.842c.581-.207 1-.756 1-1.408 0-.828-.672-1.5-1.5-1.5h-4c-.828 0-1.5.672-1.5 1.5 0 .652.419 1.201 1 1.408v1.842c0 3.446 2.804 6.25 6.25 6.25s6.25-2.804 6.25-6.25v-4.75h-5zm9.227.114c-.734.899-1.727 2.351-1.727 3.636 0 1.381 1.119 2.5 2.5 2.5s2.5-1.119 2.5-2.5c0-1.256-.999-2.723-1.734-3.631-.396-.489-1.141-.492-1.539-.004z"/></svg>