<svg id="Layer_1" viewBox="0 0 24 24" xmlns="http://www.w3.org/2000/svg" data-name="Layer 1"><path d="m21.789 16.078c-.808 1.935-1.852 3.99-3.191 6.284-.606 1.039-1.751 1.674-2.968 1.636-1.482-.046-2.629-1.332-2.629-2.815v-6.183c0-.552-.448-1-1-1s-1 .448-1 1v6.183c0 1.483-1.147 2.77-2.63 2.815-1.217.037-2.362-.597-2.968-1.636-2.32-3.973-5.403-9.964-5.403-16.09 0-2.521 1.67-6.272 6.272-6.272 1.799 0 2.968.355 3.907.64.688.209 1.185.36 1.82.36.125 0 .244-.006.359-.017.936-.09 1.767.716 1.625 1.72-.103.728-.763 1.227-1.496 1.279-.158.011-.32.017-.488.017-1.081 0-1.9-.249-2.692-.489-.865-.263-1.682-.511-3.036-.511-3.181 0-3.272 2.938-3.272 3.272 0 5.403 2.855 10.915 4.999 14.588v-5.86c0-2.209 1.791-4 4-4s4 1.791 4 4v5.86c1.256-2.15 2.233-4.068 2.986-5.858.291-.691 1.02-1.138 1.75-.966.93.219 1.404 1.199 1.052 2.042zm1.305-12.078h-3.093l.933-2.641c.252-.655-.232-1.359-.933-1.359h-1.894c-.426 0-.806.27-.945.674l-2.12 6.137c-.179.592.264 1.19.883 1.19h3.077l-.963 2.897c-.271.949.996 1.546 1.556.734l4.254-6.225c.399-.602-.032-1.406-.754-1.406z"/></svg>