<svg id="Layer_1" viewBox="0 0 24 24" xmlns="http://www.w3.org/2000/svg" data-name="Layer 1"><path d="m10 5.5c0-.828.672-1.5 1.5-1.5s1.5.672 1.5 1.5-.672 1.5-1.5 1.5-1.5-.672-1.5-1.5zm-2.5 9.489c-.835 0-1.511.677-1.511 1.511s.677 1.511 1.511 1.511 1.511-.677 1.511-1.511-.677-1.511-1.511-1.511zm-.032-2.646-1.436-1.436-.667.505c-.43.325-.525.931-.216 1.373.325.464.969.567 1.421.227zm2.532 2.532v3.124c0 .552.448 1 1 1s1-.448 1-1v-1.124zm14-2.876c0 6.617-5.383 12-12 12s-12-5.382-12-11.999 5.383-12 12-12 12 5.383 12 12zm-12-8.999c-1.941 0-3.735.624-5.206 1.672l3.535 3.535c.448-.134.915-.207 1.392-.207h5.279c.552 0 1 .448 1 1s-.448 1-1 1h-2.882l1.5 3h2.382c.552 0 1 .448 1 1s-.448 1-1 1h-.879l2.206 2.206c1.049-1.472 1.672-3.266 1.672-5.206 0-4.962-4.038-9-9-9zm0 18c1.941 0 3.735-.624 5.206-1.672l-12.534-12.534c-1.049 1.472-1.672 3.266-1.672 5.206 0 4.962 4.038 9 9 9z"/></svg>