<?xml version="1.0" encoding="UTF-8"?>
<svg xmlns="http://www.w3.org/2000/svg" id="Layer_1" data-name="Layer 1" viewBox="0 0 24 24">
  <path d="M24,12.477c0,1.872-.678,3.648-1.91,5.024-.553,.619-1.501,.67-2.118,.117-.617-.553-.67-1.501-.117-2.118,.739-.825,1.146-1.891,1.146-3,0-2.259-1.588-4.199-3.777-4.636-1.085-.216-1.977-.908-2.447-1.899-1.021-2.154-3.304-3.31-5.678-2.874-2.075,.38-3.767,2.104-4.114,4.193-.106,.639-.1,1.274,.02,1.889,.219,1.129-.198,2.334-1.088,3.144-.557,.506-.916,1.363-.916,2.183,0,.763,.342,1.474,.938,1.952,.646,.518,.75,1.462,.232,2.108-.296,.37-.732,.562-1.171,.562-.329,0-.66-.108-.937-.33-1.311-1.05-2.062-2.615-2.062-4.293s.709-3.322,1.898-4.402c.114-.104,.181-.25,.161-.353-.188-.966-.199-1.959-.034-2.952C2.583,3.427,5.209,.753,8.558,.14c3.67-.673,7.343,1.195,8.929,4.54,.06,.126,.174,.212,.322,.242,3.587,.716,6.191,3.893,6.191,7.555Zm-6.5,5.523v3c0,1.657-1.343,3-3,3h-5c-1.657,0-3-1.343-3-3v-3c0-.885,.39-1.672,1-2.221v-2.279c0-2.481,2.019-4.5,4.5-4.5s4.5,2.019,4.5,4.5v2.279c.61,.549,1,1.336,1,2.221Zm-7-4.5v1.5h3v-1.5c0-.827-.673-1.5-1.5-1.5s-1.5,.673-1.5,1.5Zm3,6c0-.828-.672-1.5-1.5-1.5s-1.5,.672-1.5,1.5,.672,1.5,1.5,1.5,1.5-.672,1.5-1.5Z"/>
</svg>
