<svg id="Layer_1" viewBox="0 0 24 24" xmlns="http://www.w3.org/2000/svg" data-name="Layer 1"><path d="m23.841 9.671-2.633 5.268.42.226c.994.535 1.556 1.656 1.33 2.763-.406 1.986-1.375 3.706-2.355 5.029-.432.583-1.193.812-1.886.594-.496-.156-.981-.328-1.454-.515.621-1.185 1.237-2.798 1.237-4.536-1.726 2.157-3.82 2.824-4.363 2.967-.694-.427-1.359-.893-1.992-1.4-.77-.617-.831-1.784-.135-2.484 1.002-1.009 1.962-2.161 2.749-3.366.747-1.144 2.222-1.555 3.424-.907l.382.206 2.593-5.186c.37-.741 1.271-1.04 2.013-.671.741.371 1.041 1.271.671 2.013zm-20.841 1.829v7c0 1.379 1.122 2.5 2.5 2.5h4c.829 0 1.5.672 1.5 1.5s-.671 1.5-1.5 1.5h-4c-3.033 0-5.5-2.468-5.5-5.5v-7c0-2.513 1.694-4.638 4-5.292v-1.708c0-2.481 2.019-4.5 4.5-4.5h4.305c.928 0 1.802.36 2.462 1.013l1.696 1.681c.658.652 1.036 1.559 1.036 2.486v4.32c0 .829-.672 1.5-1.5 1.5h-5.138c-.695 0-1.391-.165-2.013-.476l-3.049-1.524h-.8c-1.378 0-2.5 1.122-2.5 2.5zm4-5.459c.112.026.221.066.325.118l3.367 1.683c.208.104.439.159.67.159h3.638v-2.82c0-.062-.014-.123-.036-.18h-.964c-.552 0-1-.448-1-1v-.959c-.061-.026-.127-.041-.195-.041h-4.305c-.827 0-1.5.673-1.5 1.5v1.541z"/></svg>