<svg id="Layer_1" viewBox="0 0 24 24" xmlns="http://www.w3.org/2000/svg" data-name="Layer 1"><path d="m24 10.5v6c0 2.481-2.019 4.5-4.5 4.5-.261 0-.503-.073-.717-.19-.565 1.84-2.26 3.19-4.283 3.19h-5c-1.953 0-3.602-1.258-4.224-3h-.776c-2.481 0-4.5-2.019-4.5-4.5v-6c0-2.481 2.019-4.5 4.5-4.5h.5v-1.5c0-1.511.752-2.913 2.012-3.749.688-.46 1.621-.271 2.079.419.459.69.271 1.621-.419 2.079-.421.28-.672.747-.672 1.251v1.5h1.5c.828 0 1.5.672 1.5 1.5s-.672 1.5-1.5 1.5h-5c-.827 0-1.5.673-1.5 1.5v6c0 .827.673 1.5 1.5 1.5h.5v-.5c0-2.481 2.019-4.5 4.5-4.5h4c.828 0 1.5.672 1.5 1.5s-.672 1.5-1.5 1.5h-4c-.827 0-1.5.673-1.5 1.5v2c0 .827.673 1.5 1.5 1.5h5c.827 0 1.5-.673 1.5-1.5v-2c0-.172-.028-.34-.085-.501-.276-.78.134-1.638.915-1.913.779-.276 1.639.134 1.913.915.171.481.257.986.257 1.499v.592c.157-.056.324-.092.5-.092.827 0 1.5-.673 1.5-1.5v-6c0-.828.672-1.5 1.5-1.5s1.5.672 1.5 1.5zm-11.51-5.854c2.622-2.215 6.423-2.208 9.038.016.628.535 1.575.462 2.114-.171.537-.631.46-1.578-.171-2.114-3.737-3.178-9.17-3.187-12.917-.021-.633.534-.713 1.48-.178 2.113.533.634 1.481.715 2.113.178zm7.74 3.34c.474-.68.308-1.614-.372-2.089-1.711-1.194-4.008-1.191-5.717 0-.68.474-.846 1.409-.371 2.088.476.684 1.418.842 2.088.371.683-.475 1.599-.477 2.283 0 .679.471 1.613.308 2.089-.372zm-3.231 2.015c-.828 0-1.5.672-1.5 1.5s.672 1.5 1.5 1.5 1.5-.672 1.5-1.5-.672-1.5-1.5-1.5z"/></svg>