<svg id="Layer_1" viewBox="0 0 24 24" xmlns="http://www.w3.org/2000/svg" data-name="Layer 1"><path d="m22.428 1.605c-.984-.656-2.222-.776-3.312-.321l-2.759 1.15c-4.119-1.609-7.273-2.434-9.357-2.434-3.86 0-7 3.141-7 7 0 2.184 1.007 4.136 2.58 5.421l3.727 9.114c.785 2.002 3.263 3.022 5.231 2.154 2.035-.848 3.001-3.194 2.154-5.23l-2.182-5.236c1.423-.398 3.043-.953 4.847-1.658l2.804 1.168c.434.181.884.267 1.339.267 1.994 0 3.499-1.479 3.499-3.492v-4.968c0-1.182-.587-2.279-1.571-2.934zm-15.428 1.395c1.171 0 3.497.379 8 2.12v3.759c-4.503 1.741-6.829 2.12-8 2.12-2.205 0-4-1.794-4-4s1.794-4 4-4zm3.922 16.612c.212.509-.03 1.096-.538 1.308-.484.218-1.112-.04-1.304-.529l-2.625-6.42c.18.014.361.028.544.028.456 0 .974-.049 1.53-.126l2.392 5.74zm10.078-10.104c0 .23-.139.356-.221.411-.083.055-.253.133-.464.045l-2.316-.965v-4l2.271-.946c.229-.092.407-.01.495.048.087.059.235.193.235.438v4.968z"/></svg>