<svg id="Layer_1" viewBox="0 0 24 24" xmlns="http://www.w3.org/2000/svg" data-name="Layer 1"><path d="m19.5 15h-15c-2.448.052-4.508 1.994-4.5 4.5-.008 2.506 2.052 4.448 4.5 4.5h15c2.481 0 4.5-2.019 4.5-4.5s-2.019-4.5-4.5-4.5zm-6.5 4.5c0 .827-.673 1.5-1.5 1.5h-2.776c.168-.471.276-.971.276-1.5s-.108-1.029-.276-1.5h2.776c.827 0 1.5.673 1.5 1.5zm-8.5-1.5c.827 0 1.5.673 1.5 1.5s-.673 1.5-1.5 1.5-1.5-.673-1.5-1.5.673-1.5 1.5-1.5zm15 3h-3.776c.168-.471.276-.971.276-1.5s-.108-1.029-.276-1.5h3.776c.827 0 1.5.673 1.5 1.5s-.673 1.5-1.5 1.5zm-15.606-8.023c.816-.145 1.36-.923 1.215-1.738-.072-.407-.109-.824-.109-1.238 0-.797.14-1.56.387-2.274.525 1.687 1.333 3.28 2.418 4.71.503.663 1.448.785 2.102.287.66-.5.789-1.441.288-2.102-1.372-1.806-2.202-3.934-2.432-6.18.672-.514 1.437-.91 2.269-1.155.31 4.733 4.159 8.505 8.923 8.694.189.582.771 1.027 1.416 1.019.713 0 1.346-.511 1.475-1.238.103-.579.155-1.172.155-1.762-.001-5.514-4.487-10-10.001-10s-10.033 4.487-10 10c0 .59.052 1.183.155 1.762.145.816.925 1.36 1.739 1.215zm15.023-3.998c-3.161-.204-5.692-2.735-5.896-5.896 3.042.448 5.449 2.854 5.896 5.896z"/></svg>