<svg id="Layer_1" viewBox="0 0 24 24" xmlns="http://www.w3.org/2000/svg" data-name="Layer 1"><path d="m9 10c0 1.105-.895 2-2 2s-2-.895-2-2 .895-2 2-2 2 .895 2 2zm10.5 4c-.828 0-1.5.672-1.5 1.5v2.172l-3.682-3.682c-1.28-1.28-3.356-1.28-4.636 0l-6.097 6.097c-.359-.433-.585-.982-.585-1.587v-10c0-1.378 1.122-2.5 2.5-2.5h3c.829 0 1.5-.671 1.5-1.5s-.671-1.5-1.5-1.5h-3c-3.033 0-5.5 2.467-5.5 5.5v10c0 3.032 2.467 5.5 5.5 5.5h10c3.032 0 5.5-2.468 5.5-5.5v-3c0-.828-.672-1.5-1.5-1.5zm4.5-8c0 3.314-2.686 6-6 6s-6-2.686-6-6 2.686-6 6-6 6 2.686 6 6zm-7-1c0 .553.448 1 1 1s1-.447 1-1v-2c0-.553-.448-1-1-1s-1 .447-1 1zm2.5 3.5c0-.828-.672-1.5-1.5-1.5s-1.5.672-1.5 1.5.672 1.5 1.5 1.5 1.5-.672 1.5-1.5z"/></svg>