<svg id="Layer_1" viewBox="0 0 24 24" xmlns="http://www.w3.org/2000/svg" data-name="Layer 1"><path d="m24 17v3.5c0 .829-.672 1.5-1.5 1.5s-1.5-.671-1.5-1.5v-3.5c0-.157-.075-.306-.201-.401l-4.483-3.362 2.16 3.49c.343.553.524 1.19.524 1.842v3.931c0 .829-.672 1.5-1.5 1.5s-1.5-.671-1.5-1.5v-3.931c0-.093-.025-.184-.074-.262l-4.871-7.869-1.342 2.151c-.553.884-1.504 1.411-2.545 1.411h-2.668c-.828 0-1.5-.671-1.5-1.5s.672-1.5 1.5-1.5h2.668l1.348-2.159c.604-.966 1.453-1.759 2.457-2.294l5.99-3.194c.436-.231.923-.353 1.412-.353h3.125c.828 0 1.5.671 1.5 1.5s-.672 1.5-1.5 1.5h-3.125l-2.636 1.405 1.889 3.065 4.973 3.729c.877.659 1.399 1.706 1.399 2.8zm-14.003-12c1.381 0 2.5-1.119 2.5-2.5s-1.119-2.5-2.5-2.5-2.5 1.119-2.5 2.5 1.119 2.5 2.5 2.5zm-5.997 4c0-1.105-.895-2-2-2s-2 .895-2 2 .895 2 2 2 2-.895 2-2z"/></svg>