<svg id="Layer_1" viewBox="0 0 24 24" xmlns="http://www.w3.org/2000/svg" data-name="Layer 1"><path d="m10 11.5c0-.828.672-1.5 1.5-1.5h1c.828 0 1.5.672 1.5 1.5s-.672 1.5-1.5 1.5h-1c-.828 0-1.5-.672-1.5-1.5zm1.157 6.652c-.808-.582-1.943-.411-2.647.294l-.51.525v-6.471c0-.828-.672-1.5-1.5-1.5s-1.5.672-1.5 1.5v3.5s-2.486.994-2.486.994c-1.519.607-2.514 2.078-2.514 3.714v1.292c0 1.105.895 2 2 2h5.699c.517 0 1.015-.2 1.387-.559l2.328-2.242c.859-.859.773-2.305-.257-3.047zm1.843-11.652c0-.828-.672-1.5-1.5-1.5s-1.5.672-1.5 1.5.672 1.5 1.5 1.5 1.5-.672 1.5-1.5zm-6.5 1.5c.828 0 1.5-.672 1.5-1.5s-.672-1.5-1.5-1.5-1.5.672-1.5 1.5.672 1.5 1.5 1.5zm12-8h-13c-3.032 0-5.5 2.468-5.5 5.5v7c0 .464.059.926.173 1.373.206.803 1.022 1.287 1.826 1.08.803-.206 1.286-1.024 1.08-1.826-.053-.204-.079-.415-.079-.627v-7c0-1.379 1.121-2.5 2.5-2.5h13c1.379 0 2.5 1.121 2.5 2.5v7c0 .212-.026.423-.079.627-.206.802.277 1.62 1.08 1.826.781.206 1.623-.271 1.826-1.08.114-.447.173-.909.173-1.373v-7c0-3.032-2.468-5.5-5.5-5.5zm-1 8c.828 0 1.5-.672 1.5-1.5s-.672-1.5-1.5-1.5h-1c-.828 0-1.5.672-1.5 1.5s.672 1.5 1.5 1.5zm3.986 8.994-2.486-.994v-3.5c0-.828-.672-1.5-1.5-1.5s-1.5.672-1.5 1.5v6.471l-.51-.525c-.704-.705-1.839-.876-2.647-.294-1.03.742-1.116 2.188-.257 3.047l2.328 2.242c.373.359.87.559 1.387.559h5.699c1.105 0 2-.895 2-2v-1.292c0-1.636-.996-3.106-2.514-3.714z"/></svg>