<svg id="Layer_1" viewBox="0 0 24 24" xmlns="http://www.w3.org/2000/svg" data-name="Layer 1"><path d="m20.07 13.201c-.717.414-.963 1.331-.549 2.049.089.154.089.346 0 .5l-.866 1.5c-.089.154-.254.25-.433.25h-1.732c-.178 0-.344-.096-.433-.25l-.866-1.499c-.089-.155-.089-.347 0-.501l.578-1c.415-.717.169-1.635-.548-2.049s-1.635-.168-2.049.549l-.578 1.001c-.089.153-.254.249-.433.249h-1.732c-.178 0-.344-.096-.433-.25l-.866-1.5c-.089-.154-.089-.346 0-.5l.867-1.5c.623-1.08.623-2.42 0-3.5l-.866-1.5c-.089-.154-.089-.345 0-.5l.867-1.5c.069-.121.289-.25.504-.25h1c.829 0 1.5-.671 1.5-1.5s-.673-1.5-1.502-1.5h-1c-1.271 0-2.489.687-3.103 1.75-.109.198-.937 1.591-.999 1.77-.176-.035-1.818-.015-2.032-.02-1.246 0-2.408.67-3.032 1.75l-.865 1.5c-.624 1.08-.624 2.421 0 3.5.117.193.91 1.607 1.033 1.75-.119.135-.922 1.567-1.033 1.75-.623 1.079-.623 2.421 0 3.5l.866 1.5c.624 1.079 1.785 1.75 3.032 1.75.225-.005 1.846.015 2.032-.02.058.17.895 1.581.999 1.769.623 1.08 1.784 1.751 3.031 1.751h1.732c1.247 0 2.409-.671 3.031-1.75.108-.197.937-1.592.999-1.77.176.035 1.818.015 2.032.02 1.247 0 2.408-.671 3.031-1.75l.866-1.5c.623-1.079.623-2.421 0-3.5-.414-.717-1.331-.963-2.049-.549zm-17.003-4.951.865-1.5c.089-.155.255-.25.434-.25h1.732c.177 0 .343.096.433.25s0 0 .001.001l.865 1.498c.089.155.089.346 0 .5l-.867 1.5c-.089.154-.254.25-.433.25h-1.732c-.178 0-.344-.096-.433-.25l-.866-1.5c-.089-.154-.089-.345 0-.5zm.866 9-.866-1.5c-.089-.154-.089-.346 0-.5l.866-1.5c.089-.154.255-.25.433-.25h1.732c.178 0 .344.096.433.25l.866 1.499c.089.155.089.347 0 .501l-.867 1.5c-.089.154-.254.25-.433.25h-1.732c-.178 0-.344-.096-.433-.25zm9.526 2-.867 1.501c-.089.153-.254.249-.433.249h-1.732c-.178 0-.344-.096-.433-.25l-.866-1.5c-.089-.154-.089-.346 0-.5l.867-1.501c.089-.153.254-.249.433-.249h1.732c.178 0 .344.096.433.25l.866 1.5c.089.154.089.346 0 .5zm10.007-10.513c-.712.712-1.866.712-2.578 0-.242-.242-.556-.624-.896-1.061-.04 1.581-.598 3.346-1.117 4.323-.374.705-1.378.705-1.752 0-.518-.978-1.077-2.742-1.117-4.323-.34.437-.654.819-.896 1.061-.712.712-1.866.712-2.578 0s-.712-1.866 0-2.578 2.895-1.16 5.466-1.16 4.754.448 5.466 1.16.712 1.866 0 2.578zm-5.466-3.737c-1.105 0-2-.894-2-1.999 0-.297.069-.576.185-.829-.131-.084-.276-.159-.45-.207-.532-.146-.845-.697-.698-1.229.146-.532.695-.847 1.229-.698.704.194 1.244.553 1.653.972.055-.009.108-.009.163 0 .409-.419.949-.778 1.653-.972.533-.149 1.083.166 1.229.698s-.166 1.083-.698 1.229c-.175.048-.319.123-.45.207.116.253.185.532.185.829 0 1.105-.895 1.999-2 1.999z"/></svg>