<?xml version="1.0" encoding="UTF-8"?>
<svg xmlns="http://www.w3.org/2000/svg" id="Layer_1" data-name="Layer 1" viewBox="0 0 24 24">
  <path d="m23.895,9.349l-1.122,4.485c-.612,2.452-2.807,4.166-5.335,4.166H7.188c-1.747,0-3.239-1.306-3.469-3.037L2.182,3.434c-.033-.248-.246-.434-.496-.434h-.187c-.829,0-1.5-.671-1.5-1.5S.671,0,1.5,0h.187c1.747,0,3.239,1.306,3.469,3.038l.262,1.962h1.583c.829,0,1.5.671,1.5,1.5s-.671,1.5-1.5,1.5h-1.183l.875,6.566c.033.247.246.434.496.434h10.249c1.149,0,2.146-.778,2.425-1.894l1.122-4.485c.051-.206-.035-.357-.091-.429-.056-.072-.182-.192-.394-.192h-.499c-.829,0-1.5-.671-1.5-1.5s.671-1.5,1.5-1.5h.499c1.085,0,2.091.491,2.759,1.346.668.855.9,1.95.637,3.003ZM7,20c-1.105,0-2,.895-2,2s.895,2,2,2,2-.895,2-2-.895-2-2-2Zm10,0c-1.105,0-2,.895-2,2s.895,2,2,2,2-.895,2-2-.895-2-2-2Zm-4.597-12.376c.625.501,1.507.501,2.132,0,1.331-1.067,3.434-3.579,3.434-5.374,0-1.243-1.007-2.25-2.25-2.25s-2.25,1.007-2.25,2.25c0-1.243-1.007-2.25-2.25-2.25s-2.25,1.007-2.25,2.25c0,1.795,2.103,4.307,3.434,5.374Z"/>
</svg>
