<svg id="Layer_1" viewBox="0 0 24 24" xmlns="http://www.w3.org/2000/svg" data-name="Layer 1"><path d="m11.49 16.898 2.828 2.83-2.193 2.192c-1.341 1.341-3.125 2.08-5.022 2.08s-3.681-.739-5.022-2.081c-1.341-1.34-2.08-3.124-2.08-5.021s.739-3.682 2.081-5.022l2.191-2.192 2.829 2.828-2.192 2.193c-.587.586-.909 1.364-.909 2.193s.322 1.607.908 2.192c1.173 1.174 3.216 1.173 4.388 0l2.194-2.193zm4.326-2.204c-.586-.586-1.536-.586-2.122 0l-.808.807 2.829 2.83.808-.808c.586-.586.586-1.535 0-2.121l-.708-.708zm-6.51-4.387c.586-.586.586-1.536 0-2.122l-.707-.707c-.586-.586-1.535-.586-2.121 0l-.808.808 2.829 2.828zm8.616-10.194c-1.956.408-3.507 2.033-3.846 4.001-.343 1.997.506 3.815 1.944 4.886h1.979v-2.277c-.432-.251-.763-.656-.913-1.141-.089-.29.138-.582.442-.582h2.943c.303 0 .531.292.442.582-.15.485-.481.89-.913 1.141v2.277h1.98c1.222-.91 2.02-2.358 2.02-4 0-3.113-2.846-5.562-6.078-4.887zm-.922 11.387c0 .828.672 1.5 1.5 1.5h1c.828 0 1.5-.672 1.5-1.5v-.5h-4z"/></svg>