<svg id="Layer_1" viewBox="0 0 24 24" xmlns="http://www.w3.org/2000/svg" data-name="Layer 1"><path d="m12 22.5c0 .828-.671 1.5-1.5 1.5h-5c-3.033 0-5.5-2.468-5.5-5.5v-13c0-3.032 2.467-5.5 5.5-5.5h7c3.033 0 5.5 2.468 5.5 5.5v5c0 .828-.671 1.5-1.5 1.5s-1.5-.672-1.5-1.5v-5c0-1.379-1.122-2.5-2.5-2.5h-7c-1.378 0-2.5 1.121-2.5 2.5v13c0 1.379 1.122 2.5 2.5 2.5h5c.829 0 1.5.672 1.5 1.5zm-5.5-17.5c-.828 0-1.5.672-1.5 1.5s.672 1.5 1.5 1.5 1.5-.672 1.5-1.5-.672-1.5-1.5-1.5zm5 0c-.828 0-1.5.672-1.5 1.5s.672 1.5 1.5 1.5 1.5-.672 1.5-1.5-.672-1.5-1.5-1.5zm-5 5c-.828 0-1.5.672-1.5 1.5s.672 1.5 1.5 1.5 1.5-.672 1.5-1.5-.672-1.5-1.5-1.5zm5 0c-.828 0-1.5.672-1.5 1.5s.672 1.5 1.5 1.5 1.5-.672 1.5-1.5-.672-1.5-1.5-1.5zm-5 5c-.828 0-1.5.672-1.5 1.5s.672 1.5 1.5 1.5 1.5-.672 1.5-1.5-.672-1.5-1.5-1.5zm5 0c-.828 0-1.5.672-1.5 1.5s.672 1.5 1.5 1.5 1.5-.672 1.5-1.5-.672-1.5-1.5-1.5zm9.637 4.016 2.439-2.439c.586-.586.586-1.535 0-2.121s-1.535-.586-2.121 0l-2.439 2.439-2.439-2.439c-.586-.586-1.535-.586-2.121 0s-.586 1.535 0 2.121l2.439 2.439-2.439 2.439c-.586.586-.586 1.535 0 2.121s1.535.586 2.121 0l2.439-2.439 2.439 2.439c.586.586 1.535.586 2.121 0s.586-1.535 0-2.121z"/></svg>