<svg id="Layer_1" viewBox="0 0 24 24" xmlns="http://www.w3.org/2000/svg" data-name="Layer 1"><path d="m8 2.5v-1c0-.828.672-1.5 1.5-1.5s1.5.672 1.5 1.5v1c0 .828-.672 1.5-1.5 1.5s-1.5-.672-1.5-1.5zm6.5 1.5c.828 0 1.5-.672 1.5-1.5v-1c0-.828-.672-1.5-1.5-1.5s-1.5.672-1.5 1.5v1c0 .828.672 1.5 1.5 1.5zm-10 0c.828 0 1.5-.672 1.5-1.5v-1c0-.828-.671-1.5-1.5-1.5s-1.5.672-1.5 1.5v1c0 .828.672 1.5 1.5 1.5zm7 17h-9.999c-.829 0-1.501.672-1.501 1.5s.672 1.5 1.5 1.5h10c.828 0 1.5-.672 1.5-1.5s-.672-1.5-1.5-1.5zm9.597-1.829c-.882-.882-2.312-.882-3.194 0l-2.501 2.501c-.859.859-.251 2.328.964 2.328h6.267c1.215 0 1.823-1.469.964-2.328l-2.501-2.501zm-15.973-.206.733-.006c1.264-.116 3.79-.846 4.139-3.899.076-.667-.515-1.2-1.169-1.048-1.933.448-2.88 1.994-3.314 3.187-.484-1.558-1.659-3.714-4.431-4.187-.579-.099-1.118.387-1.08.974.269 4.103 3.618 4.872 5.121 4.979zm-5.107-9.273c-.096-.937.212-1.875.845-2.576.641-.709 1.561-1.116 2.524-1.116l12.228.003c.964 0 1.884.407 2.524 1.117.474.526.766 1.187.841 1.88h.521c2.733 0 4.5 1.43 4.5 3.643 0 2.362-2.06 4.357-4.5 4.357h-3.806c-.765.735-1.694 1.312-2.736 1.646-.768.251-1.636-.174-1.887-.971-.253-.789.182-1.634.971-1.887 2.666-1.291 3.458-3.288 3.955-6.398.04-.249-.121-.361-.383-.387l-12.228-.003c-.263.026-.38.135-.385.388.084.824-.516 1.561-1.34 1.645-.821.077-1.56-.516-1.644-1.34zm19.483 2.308h-.925c-.21.799-.467 1.448-.75 2h1.675c.785 0 1.5-.647 1.5-1.357 0-.56-.939-.643-1.5-.643z"/></svg>