<svg id="Layer_1" viewBox="0 0 24 24" xmlns="http://www.w3.org/2000/svg" data-name="Layer 1"><path d="m11 22.5c0 .829-.671 1.5-1.5 1.5h-4c-3.033 0-5.5-2.467-5.5-5.5v-6.5c0-2.864 2.201-5.224 5-5.478 0 0 .004-1.555.005-1.572-1.143-.23-2.005-1.239-2.005-2.45 0-1.381 1.119-2.5 2.5-2.5h7c1.381 0 2.5 1.119 2.5 2.5 0 1.211-.862 2.22-2.005 2.45 0 .017.005 1.572.005 1.572 2.547.231 4.636 2.214 4.957 4.792.103.822-.48 1.571-1.303 1.674-.806.106-1.575-.477-1.674-1.303-.155-1.246-1.222-2.186-2.48-2.186h-1c-.829 0-1.5-.671-1.5-1.5v-3h-2v3c0 .829-.671 1.5-1.5 1.5h-1c-1.378 0-2.5 1.122-2.5 2.5v6.5c0 1.378 1.122 2.5 2.5 2.5h4c.829 0 1.5.671 1.5 1.5zm.5-9h-1v-1c0-.829-.671-1.5-1.5-1.5s-1.5.671-1.5 1.5v1h-1c-.829 0-1.5.671-1.5 1.5s.671 1.5 1.5 1.5h1v1c0 .829.671 1.5 1.5 1.5s1.5-.671 1.5-1.5v-1h1c.829 0 1.5-.671 1.5-1.5s-.671-1.5-1.5-1.5zm11.533.467c-1.29-1.29-3.381-1.29-4.67 0l-1.49 1.49 4.67 4.67 1.491-1.491c1.29-1.29 1.29-3.381 0-4.67zm-9.066 4.395c-1.29 1.29-1.29 3.381 0 4.67s3.381 1.29 4.67 0l1.49-1.491-4.67-4.67-1.491 1.491z"/></svg>