<svg id="Layer_1" viewBox="0 0 24 24" xmlns="http://www.w3.org/2000/svg" data-name="Layer 1"><path d="m19 0h-14c-2.761 0-5 2.239-5 5v3.5c0 .828.672 1.5 1.5 1.5s1.5-.672 1.5-1.5v-1.5h18v9.5c0 1.378-1.122 2.5-2.5 2.5h-2.5c-.829 0-1.5.671-1.5 1.5s.671 1.5 1.5 1.5h2.5c3.033 0 5.5-2.467 5.5-5.5v-11.5c0-2.761-2.239-5-5-5zm-14.5 5c-.828 0-1.5-.672-1.5-1.5s.672-1.5 1.5-1.5 1.5.672 1.5 1.5-.672 1.5-1.5 1.5zm5 0c-.828 0-1.5-.672-1.5-1.5s.672-1.5 1.5-1.5 1.5.672 1.5 1.5-.672 1.5-1.5 1.5zm7 8c0-.827-.673-1.5-1.5-1.5-.732 0-1.34.527-1.472 1.221-.508-.745-1.135-1.399-1.848-1.949.539-.801 1.36-1.397 2.32-1.645v-.627c0-.552.448-1 1-1s1 .448 1 1v.642c.712.185 1.351.551 1.852 1.061l.649-.374c.479-.274 1.09-.111 1.366.368s.111 1.09-.368 1.366l-.659.38c.094.339.16.689.16 1.058s-.066.719-.16 1.058l.659.38c.479.276.643.887.368 1.366-.277.483-.896.64-1.366.368l-.649-.374c-.726.741-1.735 1.203-2.852 1.203-.009 0-.017-.003-.025-.003-.054-.923-.251-1.805-.577-2.626.185.081.388.128.602.128.827 0 1.5-.673 1.5-1.5zm-10-2c-3.59 0-6.5 2.91-6.5 6.5s2.91 6.5 6.5 6.5 6.5-2.91 6.5-6.5-2.91-6.5-6.5-6.5zm3.063 6.999h-1.563v2.501c0 .828-.671 1.5-1.5 1.5s-1.5-.672-1.5-1.5v-2.501h-1.563c-.863 0-1.295-1.043-.685-1.653l3.063-3.063c.378-.378.991-.378 1.369 0l3.063 3.063c.61.61.178 1.653-.685 1.653z"/></svg>