<svg id="Layer_1" viewBox="0 0 24 24" xmlns="http://www.w3.org/2000/svg" data-name="Layer 1"><path d="m8.526 5.208 1.766-4.59c.143-.371.499-.617.896-.617h1.754c.402 0 .672.414.513.783l-.959 2.22h2.393c.484-.003.776.535.511.94l-3.719 4.846c-.102.133-.26.211-.428.212-.37.001-.632-.361-.515-.712l.762-2.285h-2.378c-.415.002-.715-.397-.596-.795zm15.474-1.708v8.147c0 3.194-1.116 6.338-3.325 8.644-2.293 2.394-5.382 3.709-8.673 3.709-6.502 0-12.007-5.58-12.002-12.349v-8.151c0-1.933 1.567-3.5 3.5-3.5h2c.936.037 1.853.387 2.482 1.037l-1.374 3.587c-.48 1.48.611 3.164 2.147 3.341h.244v4.009c0 1.647 1.328 2.986 2.974 3 1.667.014 3.026-1.333 3.026-3v-4.239l2.071-2.708c.529-.805.571-1.83.112-2.676-.291-.535-.755-.933-1.295-1.158.636-.739 1.606-1.15 2.612-1.194h2c1.933 0 3.5 1.567 3.5 3.5zm-3 2.5h-3v5.807c.009 3.372-2.714 6.217-5.988 6.192-3.224.068-6.076-2.771-6.012-5.999v-6h-3v5.651c0 5.065 3.961 9.258 8.831 9.347 2.44.031 4.737-.871 6.475-2.576 1.738-1.706 2.695-3.987 2.695-6.422v-6z"/></svg>