<svg id="Layer_1" viewBox="0 0 24 24" xmlns="http://www.w3.org/2000/svg" data-name="Layer 1"><path d="m8.992 12c3.309 0 6-2.691 6-6s-2.692-6-6-6-6 2.691-6 6 2.691 6 6 6zm0-9c1.654 0 3 1.346 3 3s-1.346 3-3 3-3-1.346-3-3 1.346-3 3-3zm15 15.5c0 .829-.671 1.5-1.5 1.5h-.71l-1.374 2.002c-.292.427-.789.673-1.304.65-.518-.023-.986-.312-1.241-.763l-1.98-3.522-.644.965c-.278.417-.747.668-1.248.668h-1.5c-.829 0-1.5-.671-1.5-1.5s.671-1.5 1.5-1.5h.697l1.555-2.332c.289-.434.769-.68 1.305-.667.521.02.995.309 1.251.764l1.998 3.553.458-.666c.28-.408.742-.651 1.237-.651h1.5c.829 0 1.5.671 1.5 1.5zm-14.004-3.082c.055.827-.572 1.541-1.398 1.595-2.988.197-5.389 2.598-5.585 5.585-.051.828-.778 1.455-1.595 1.398-.826-.054-1.453-.769-1.398-1.595.294-4.483 3.898-8.087 8.381-8.381.831-.058 1.541.571 1.595 1.398z"/></svg>