<svg id="Layer_1" viewBox="0 0 24 24" xmlns="http://www.w3.org/2000/svg" data-name="Layer 1"><path d="m16.48 5.372c.623.541.695 1.479.158 2.105-.062.072-.838.959-2.234 1.824l.871 1.411c.436.705.217 1.629-.488 2.064-.693.431-1.626.223-2.064-.488l-1.08-1.749c-.512.152-1.06.272-1.643.352v1.609c0 .829-.672 1.5-1.5 1.5s-1.5-.671-1.5-1.5v-1.609c-.583-.08-1.131-.2-1.643-.352l-1.08 1.749c-.439.711-1.371.919-2.064.488-.705-.436-.924-1.36-.488-2.064l.871-1.411c-1.396-.866-2.172-1.752-2.234-1.825-.539-.629-.467-1.576.162-2.115.627-.539 1.569-.467 2.11.156.508.865 3.982 2.732 5.866 2.482 1.867.259 5.386-1.635 5.867-2.483.543-.619 1.489-.688 2.113-.146zm-7.98.628c2.822 0 4.461-1.816 4.639-2.023.183-.192.562-.917 1.861-.977h7.5c.828 0 1.5-.671 1.5-1.5s-.672-1.5-1.5-1.5h-7.5c-2.111 0-3.573 1.241-4.169 2.055-.167.166-1.021.945-2.331.945-1.442 0-2.316-.928-2.372-.989-.541-.616-1.481-.686-2.104-.149-.629.539-.701 1.486-.162 2.115.178.208 1.817 2.023 4.639 2.023zm14.034-.466c-.494-.733-1.573-.733-2.068 0l-.613.91c-.556.826-.853 1.798-.853 2.794v12.262c0 1.381 1.119 2.5 2.5 2.5s2.5-1.119 2.5-2.5v-12.262c0-.995-.297-1.968-.853-2.794z"/></svg>