<svg id="Layer_1" viewBox="0 0 24 24" xmlns="http://www.w3.org/2000/svg" data-name="Layer 1"><path d="m23.56 6.788c-.586.586-1.535.586-2.121 0l-3.034-3.034c-1.007-1.007-2.647-1.007-3.654 0l-.363.363 4.946 4.946c.586.586.586 1.536 0 2.121-.586.586-1.535.586-2.121 0l-4.946-4.946-1.954 1.954 4.854 4.854c.586.586.586 1.536 0 2.121-.586.586-1.535.586-2.121 0l-4.854-4.854-1.923 1.923 4.903 4.903c.586.586.586 1.536 0 2.121-.586.586-1.535.586-2.121 0l-4.903-4.903-.394.394c-1.007 1.007-1.007 2.646 0 3.654l3.033 3.034c.586.586.586 1.536 0 2.121-.586.586-1.535.586-2.121 0l-3.034-3.034c-2.177-2.177-2.177-5.719 0-7.896l10.998-10.997c2.177-2.177 5.719-2.177 7.896 0l3.034 3.034c.586.586.586 1.536 0 2.121z"/></svg>