<svg id="Layer_1" viewBox="0 0 24 24" xmlns="http://www.w3.org/2000/svg" data-name="Layer 1"><path d="m19.939 17.04c-.273-1.597-.866-2.668-1.342-3.528-.393-.708-.597-1.097-.597-1.512 0-.983.322-2.243.581-3.256.234-.917.419-1.641.419-2.244 0-.289-.09-.581-.246-.823-.008-.012-.754-1.185-.754-2.677v-1.5c0-.74-.539-1.369-1.271-1.482-.73-.108-1.436.324-1.659 1.029-.441 1.207-1.7 2.9-3.07 2.954-1.37-.054-2.628-1.745-3.07-2.954-.224-.705-.927-1.137-1.659-1.029-.731.113-1.271.743-1.271 1.482v1.5c0 1.492-.746 2.665-.748 2.668-.164.247-.252.536-.252.832 0 .603.185 1.327.419 2.244.259 1.013.581 2.274.581 3.256 0 .416-.204.804-.597 1.512-.476.86-1.068 1.931-1.342 3.527-.256 1.491.313 3.055 1.503 4.096l2.128 1.8c.812.687 1.844 1.065 2.906 1.065h2.803c1.063 0 2.095-.378 2.906-1.065l2.148-1.816c1.171-1.025 1.739-2.589 1.483-4.079zm-3.441 1.805-2.128 1.8c-.271.229-.615.355-.969.355h-2.803c-.354 0-.698-.126-.969-.355l-2.108-1.784c-.391-.342-.584-.845-.503-1.315.188-1.096.605-1.851 1.01-2.581.172-.311.339-.633.491-.965h2.98c.828 0 1.5-.671 1.5-1.5s-.672-1.5-1.5-1.5h-2.561c-.117-1.052-.385-2.108-.613-2.999-.097-.377-.218-.852-.282-1.18.154-.295.345-.706.514-1.206.958.82 2.124 1.384 3.443 1.384s2.484-.564 3.443-1.384c.169.5.359.91.514 1.206-.064.328-.186.803-.282 1.18-.3 1.175-.674 2.638-.674 3.999 0 1.21.494 2.103.972 2.965.404.73.822 1.485 1.01 2.582.081.468-.112.972-.483 1.297z"/></svg>