<svg id="Layer_1" viewBox="0 0 24 24" xmlns="http://www.w3.org/2000/svg" data-name="Layer 1"><path d="m19 13.997c-2.761 0-5 2.239-5 5s2.239 5 5 5 5-2.239 5-5-2.239-5-5-5zm2 6h-1v1c0 .552-.448 1-1 1s-1-.448-1-1v-1h-1c-.552 0-1-.448-1-1s.448-1 1-1h1v-1c0-.552.448-1 1-1s1 .448 1 1v1h1c.552 0 1 .448 1 1s-.448 1-1 1zm-11.533-.314c-.467-.188-1.337-.539-1.467-.686 0-.902 1.749-1 2.5-1h.5c1 0 1.192-.648 1.297-1 .362-1.219 1.047-2.298 1.957-3.139.482-.445.761-1.067.746-1.723.718.575 1.687.867 2.564.864 1.439 0 2.825-.727 3.599-2.029.708-1.191.837-2.312.837-4.088 0-2.718-1.353-5.03-3.712-6.346-1.997-1.11-4.56-.434-5.716 1.511-.536.901-.677 1.967-.399 2.999.218.809.691 1.53 1.324 2.091-.94.864-1.502 2.078-1.496 3.36v4.5h-2v-4.5c.006-1.29-.551-2.49-1.496-3.36.633-.561 1.107-1.283 1.324-2.092.278-1.032.136-2.098-.399-2.999-1.157-1.944-3.721-2.62-5.719-1.51-2.358 1.316-3.711 3.628-3.711 6.346 0 1.776.129 2.896.837 4.087.775 1.306 2.165 2.033 3.602 2.033.88.003 1.846-.292 2.562-.869v3.585c-1.808.965-2 2.629-2 3.279 0 2.12 2.014 2.932 3.346 3.469.403.162 1.063.428 1.268.604.296.73 1.131 1.099 1.86.85.786-.262 1.211-1.111.949-1.897-.442-1.327-1.778-1.865-2.956-2.34zm5.684-16.104s0 0 0 0c.222-.374.631-.583 1.054-.583.211 0 .426.052.623.162 1.795 1.001 2.172 2.578 2.172 3.725 0 1.456-.089 2.006-.416 2.556-.322.542-1.042.72-1.661.393-.552-.307-.568-.997-.304-1.49.342-.64.94-2.236-.889-3.257-.525-.285-.898-.969-.58-1.504zm-10.098 6.264c-.592.315-1.314.139-1.637-.406-.327-.549-.416-1.099-.416-2.555 0-1.146.377-2.724 2.171-3.725.197-.109.413-.162.624-.162.423 0 .831.209 1.053.583t0 0c.319.536-.055 1.218-.58 1.505-1.074.599-1.309 1.396-1.252 2.082-.04.405.197.829.364 1.175.264.492.248 1.183-.328 1.502z"/></svg>