<svg id="Layer_1" viewBox="0 0 24 24" xmlns="http://www.w3.org/2000/svg" data-name="Layer 1"><path d="m19.5 3h-15c-2.481 0-4.5 2.019-4.5 4.5v1.523c0 1.658.625 3.236 1.758 4.445l5.613 5.987c.633.676 1.431 1.131 2.311 1.318.709.15 1.489.227 2.318.227s1.609-.076 2.319-.227c.878-.187 1.677-.642 2.309-1.317l5.613-5.988c1.134-1.209 1.758-2.788 1.758-4.445v-1.523c0-2.481-2.019-4.5-4.5-4.5zm1.5 4.5v1.523c0 .202-.022.4-.056.596-1.081.157-2.068.476-2.944.943v-4.562h1.5c.827 0 1.5.673 1.5 1.5zm-18 0c0-.827.673-1.5 1.5-1.5h1.5v4.562c-.876-.467-1.863-.786-2.944-.943-.034-.196-.056-.394-.056-.596zm7.443 10.359c-.151-1.73-.649-3.251-1.443-4.506v-7.353h6v7.353c-.795 1.255-1.292 2.776-1.443 4.506-.95.179-2.164.179-3.113 0z"/></svg>