<svg id="Layer_1" viewBox="0 0 24 24" xmlns="http://www.w3.org/2000/svg" data-name="Layer 1"><path d="m13.886 2.5c0-1.381 1.119-2.5 2.5-2.5s2.5 1.119 2.5 2.5-1.119 2.5-2.5 2.5-2.5-1.119-2.5-2.5zm8.614 6.5h-2.59c-.145 0-.282-.062-.377-.171l-1.418-1.626c-.663-.764-1.626-1.202-2.64-1.202h-6.484c-1.211 0-2.318.612-2.963 1.637l-1.298 2.064c-.441.701-.23 1.627.471 2.068.69.436 1.625.236 2.068-.472l1.298-2.064c.093-.147.251-.234.424-.234h2.09l-1.834 4.069c-.391.866-.316 1.859.199 2.657.516.798 1.39 1.274 2.34 1.274h4.213v1.5c0 .829.672 1.5 1.5 1.5s1.5-.671 1.5-1.5v-2c0-1.378-1.121-2.5-2.5-2.5h-1.859l1.847-4.099.783.899c.665.763 1.627 1.201 2.639 1.201h2.59c.828 0 1.5-.671 1.5-1.5s-.672-1.5-1.5-1.5zm-8 12c-.828 0-1.5.672-1.5 1.5s.672 1.5 1.5 1.5 1.5-.672 1.5-1.5-.672-1.5-1.5-1.5zm3 0c-.828 0-1.5.672-1.5 1.5s.672 1.5 1.5 1.5 1.5-.672 1.5-1.5-.672-1.5-1.5-1.5zm3 0c-.828 0-1.5.672-1.5 1.5s.672 1.5 1.5 1.5 1.5-.672 1.5-1.5-.672-1.5-1.5-1.5zm-17.5-4.5c0-.828-.672-1.5-1.5-1.5s-1.5.672-1.5 1.5.672 1.5 1.5 1.5 1.5-.672 1.5-1.5zm-3 3c0 .828.672 1.5 1.5 1.5s1.5-.672 1.5-1.5-.672-1.5-1.5-1.5-1.5.672-1.5 1.5zm0 3c0 .828.672 1.5 1.5 1.5s1.5-.672 1.5-1.5-.672-1.5-1.5-1.5-1.5.672-1.5 1.5zm5.5-4.5c-.828 0-1.5.672-1.5 1.5s.672 1.5 1.5 1.5h3.695c.787 0 1.5-.461 1.824-1.179l.381-.846c-.927-.075-1.788-.423-2.509-.976h-3.39z"/></svg>