<svg id="Layer_1" viewBox="0 0 24 24" xmlns="http://www.w3.org/2000/svg" data-name="Layer 1"><path d="m23.036 10.946c-.346-.524-.735-1.009-1.146-1.472l1.713-1.86c.562-.609.522-1.558-.087-2.12-.609-.56-1.558-.522-2.12.087l-1.734 1.883c-.517-.366-1.065-.683-1.629-.972l.931-2.421c.297-.773-.089-1.641-.861-1.938-.773-.298-1.642.087-1.939.861l-.934 2.427c-.565-.144-1.144-.246-1.73-.316v-2.605c0-.829-.671-1.5-1.5-1.5s-1.5.671-1.5 1.5v2.603c-.587.07-1.167.17-1.733.314l-.932-2.423c-.297-.773-1.164-1.161-1.938-.861-.773.297-1.159 1.165-.861 1.938l.928 2.414c-.565.289-1.115.606-1.632.973l-1.728-1.877c-.562-.609-1.511-.648-2.12-.087-.609.562-.648 1.51-.087 2.12l1.708 1.854c-.404.456-.786.934-1.127 1.449-1.3 1.871-1.308 4.277-.039 6.1 2.446 3.704 6.581 5.939 11.087 5.982 4.46-.042 8.575-2.264 10.991-5.917 1.304-1.874 1.312-4.282.02-6.137zm-2.502 4.452c-1.885 2.849-5.075 4.569-8.508 4.602-3.479-.033-6.688-1.766-8.604-4.665-.574-.825-.566-1.862.039-2.734 1.882-2.845 5.067-4.564 8.523-4.601 3.473.037 6.668 1.756 8.59 4.661.575.826.567 1.864-.04 2.738zm-4.534-1.398c0 2.209-1.791 4-4 4s-4-1.791-4-4 1.791-4 4-4 4 1.791 4 4z"/></svg>