<svg id="Layer_1" viewBox="0 0 24 24" xmlns="http://www.w3.org/2000/svg" data-name="Layer 1"><path d="m22.5.5c-.828 0-1.5.672-1.5 1.5 0 3.477-2.733 6-6.5 6h-1.5v-.5c0-.828-.672-1.5-1.5-1.5s-1.5.672-1.5 1.5v.5h-2v-.5c0-.828-.672-1.5-1.5-1.5s-1.5.672-1.5 1.5v.5h-.857c-2.11 0-3.92 1.578-4.122 3.593-.113 1.128.257 2.255 1.014 3.091.757.837 1.838 1.316 2.966 1.316h1v2h-1.5l-1.869-.935c-.802-.267-1.631.33-1.631 1.175v2.521c0 .846.828 1.443 1.631 1.175l1.869-.935h11.499c1.128 0 2.209-.479 2.966-1.316.757-.836 1.127-1.963 1.014-3.092-.202-2.014-2.013-3.592-4.122-3.592h-1.857v-2h1.5c3.235 0 6.5 1.7 6.5 5.5 0 .828.672 1.5 1.5 1.5s1.5-.672 1.5-1.5v-14.501c0-.828-.672-1.5-1.5-1.5zm-17.5 12.5h-1c-.552 0-1-.448-1-1s.448-1 1-1h1zm5 5h-2v-2h2zm0-5h-2v-2h2zm5 3c.552 0 1 .448 1 1s-.448 1-1 1h-2v-2z"/></svg>