<svg id="Layer_1" viewBox="0 0 24 24" xmlns="http://www.w3.org/2000/svg" data-name="Layer 1"><path d="m17.405 24c-.297 0-.598-.027-.901-.083-1.717-.315-3.118-1.507-3.657-3.107-.287-.764-.712-2.803-1.371-2.803s-1.1 2.041-1.6 2.927c-.655 1.621-1.877 2.677-3.44 2.974-1.585.302-3.191-.247-4.292-1.467-.834-.926-1.22-2.141-1.086-3.42.122-1.17.695-2.295 1.574-3.077.449-.399.97-.694 1.542-.875.475-.15 1.112-.414.965-.977s-1.38-.342-2.168-.691c-2.079-.668-3.341-2.866-2.874-5.005.505-2.316 2.825-3.784 5.173-3.273 1.376.289 2.448 1.288 2.979 1.79-.087-1.294-.421-2.438-.026-3.726.614-2.002 2.615-3.377 4.662-3.172 2.263.107 4.18 2.228 4.118 4.625-.019.631-.185 1.078-.314 1.621.749-.404 1.315-.834 2.38-1.025 1.926-.373 3.952.718 4.671 2.546.71 1.808.017 3.925-1.648 5.036-.636.425-1.366.66-2.123.74-.359.038-.719.043-1.08.036-.29-.006-.745-.14-.849.255-.132.502.741.826 1.05 1.042.786.496 1.765 1.112 2.365 2.233.892 1.667.688 3.762-.507 5.214-.882 1.072-2.163 1.661-3.542 1.661zm-5.9-8.998c1.093 0 1.736.412 2.498 1.1.931.842 1.212 1.94 1.501 3.118.209.852.613 1.576 1.542 1.747.823.151 1.665-.325 1.9-1.15.271-.952-.364-1.647-1.092-2.137-.887-.598-1.888-1.167-2.405-2.147-.452-.856-.539-1.879-.206-2.791.502-1.377 1.806-2.217 3.343-2.16.898.041 1.429.014 1.839-.26.334-.223.584-.622.587-1.028.005-.739-.714-1.224-1.409-1.105-.763.13-1.352.692-2.053.977-1.399.567-2.994-.045-3.634-1.394-.331-.697-.315-1.464-.147-2.201.123-.537.324-1.107.105-1.648-.194-.48-.674-.889-1.203-.915-.72-.063-1.378.402-1.58 1.061-.265.866.077 1.751.137 2.62.057.832-.125 1.654-.683 2.297-.637.734-1.621 1.11-2.586.995-.66-.078-1.219-.432-1.728-.838-.484-.386-.96-.949-1.59-1.084-.749-.161-1.458.267-1.615.98-.105.478.092.996.474 1.299.689.547 1.792.38 2.587.752s1.455 1.006 1.804 1.815c.582 1.351.343 2.758-.639 3.767-.368.378-.814.658-1.29.879-.432.2-.914.323-1.293.621-.356.28-.583.712-.63 1.162-.025.245-.017.714.331 1.1.404.447.937.635 1.505.528.95-.178 1.265-1.202 1.543-1.993.368-1.045.871-2.079 1.663-2.869.693-.692 1.431-1.096 2.423-1.096z"/></svg>