<?xml version="1.0" encoding="UTF-8"?>
<svg xmlns="http://www.w3.org/2000/svg" id="Layer_1" data-name="Layer 1" viewBox="0 0 24 24">
  <path d="M16.368,7.43c.377-.74,.08-1.644-.66-2.018,.049-.271,.05-.55,0-.821,.763-.391,1.054-1.346,.622-2.09-.415-.719-1.336-.965-2.049-.55l-.068,.039c-.222-.164-.459-.31-.715-.422,.036-.851-.646-1.57-1.5-1.568-.854-.002-1.536,.716-1.5,1.568-.257,.113-.493,.258-.716,.423l-.021-.013c-.702-.438-1.628-.225-2.066,.479-.472,.748-.181,1.732,.595,2.139-.049,.267-.049,.543,0,.81-.776,.407-1.066,1.391-.595,2.139,.445,.717,1.396,.916,2.088,.465,.223,.165,.459,.31,.716,.423-.036,.851,.646,1.57,1.5,1.568,.828,0,1.5-.671,1.5-1.5v-.068c.254-.111,.488-.255,.709-.417,.74,.46,1.754,.223,2.159-.585Zm-5.868-2.43c0-.827,.672-1.5,1.5-1.5s1.5,.673,1.5,1.5-.672,1.5-1.5,1.5-1.5-.673-1.5-1.5ZM1.5,18c0-1.105,.895-2,2-2s2,.895,2,2-.895,2-2,2-2-.895-2-2Zm20-2h-3c-1.381,0-2.5,1.119-2.5,2.5v3c0,1.381,1.119,2.5,2.5,2.5h3c1.381,0,2.5-1.119,2.5-2.5v-3c0-1.381-1.119-2.5-2.5-2.5Zm-1,4h-1c-.552,0-1-.448-1-1s.448-1,1-1h1c.552,0,1,.448,1,1s-.448,1-1,1Zm-6.5-.078c0,.501-.371,.923-.866,.995-.37,.054-.748,.083-1.134,.083-.098,0-.488-.024-.876-.051l-.183,1.07c-.103,.602-.866,.803-1.252,.33l-1.886-2.311c-.387-.488-.265-1.205,.263-1.537l2.546-1.539c.521-.315,1.171,.128,1.069,.728l-.221,1.291c.243,.01,.497,.019,.539,.019,.298,0,.591-.022,.877-.064,.595-.086,1.123,.384,1.123,.985Zm-7.168,2.657c.456,.609-.071,1.422-.904,1.422H1.073c-.833,0-1.361-.812-.904-1.422,.711-.95,1.934-1.578,3.332-1.578s2.62,.628,3.332,1.578Zm.092-9.865l-1.145-.305c-.177,.426-.08,1.139-.006,1.52,.113,.58-.375,1.106-.966,1.084-.006,0-.013,0-.019,0-.441-.016-.814-.333-.898-.766-.106-.548-.141-1.212-.141-1.495,0-.295,.026-.583,.057-.869l-1.127-.301c-.59-.157-.72-.936-.214-1.277l2.474-1.667c.522-.341,1.224-.154,1.506,.402l1.3,2.676c.266,.548-.234,1.155-.823,.998Zm9.778-1.345l1.254-.382c-.11-.377-.345-.992-.573-1.496-.186-.411-.061-.892,.299-1.164,.004-.003,.009-.007,.013-.01,.456-.344,1.124-.225,1.408,.271,.324,.566,.575,1.178,.764,1.817l.051-.016,.986-.301c.584-.178,1.106,.414,.856,.971l-1.22,2.722c-.263,.565-.958,.777-1.491,.455l-2.518-1.585c-.515-.324-.411-1.104,.171-1.282Z"/>
</svg>
