<svg id="Layer_1" viewBox="0 0 24 24" xmlns="http://www.w3.org/2000/svg" data-name="Layer 1"><path d="m22.363 11.751-3.391-1.124c-.307-.102-.637-.102-.944 0l-3.396 1.125c-.977.325-1.632 1.235-1.632 2.253l-.028 3.677c.101 3.752 3.79 5.685 4.917 6.188.375.167.801.173 1.181.018 3.991-1.64 4.868-4.288 4.901-6.235l.028-3.637c.001-1.03-.657-1.94-1.636-2.265zm-1.392 5.865c-.023 1.363-.822 2.422-2.438 3.225-.933-.516-2.52-1.621-2.562-3.187l.025-3.194 2.504-.829 2.496.828zm-7.479 4.807c-.011-.329-.149-.639-.35-.895-.032-.037-2.757-3.29-3.471-7.545.747-.086 1.328-.713 1.328-1.483 0-.811-.644-1.466-1.447-1.495.249-2.844 1.492-5.357 2.45-6.905.653 1.054 1.442 2.556 1.958 4.321.232.794 1.063 1.252 1.861 1.018.795-.232 1.251-1.065 1.018-1.861-.446-1.523-1.06-2.875-1.661-3.978 2.286.862 4.174 2.616 5.145 4.971.316.767 1.193 1.133 1.958.815.766-.316 1.131-1.193.815-1.958-1.859-4.512-6.215-7.428-11.096-7.428-6.717-.013-12.219 5.607-11.983 12.333.157 6.407 5.476 11.684 11.984 11.667.831.006 1.556-.747 1.491-1.577zm-4.662-18.835c-1.023 1.875-2.084 4.469-2.289 7.412h-3.482c.379-3.408 2.669-6.239 5.771-7.412zm-5.598 10.412h3.414c.346 2.531 1.278 4.753 2.184 6.412-2.792-1.056-4.923-3.456-5.598-6.412z"/></svg>