<svg id="Layer_1" viewBox="0 0 24 24" xmlns="http://www.w3.org/2000/svg" data-name="Layer 1"><path d="m.001 9.128c0-1.147.731-1.92 1.357-2.233l3.703-1.896c.736-.378 1.641-.086 2.018.651.378.737.086 1.641-.651 2.019l-2.401 1.229c.51.252.942.638 1.31 1.268.243.416.509.825.808 1.005.333.201.887.341 1.243.317 1.404-.116 2.594.617 3.168 1.936.152.351.417.659.726.845.426.304 1.01.304 1.435 0 .31-.186.574-.494.726-.845.574-1.319 1.755-2.037 3.169-1.936.35.025.909-.116 1.243-.318.298-.179.563-.588.806-1.003.367-.628.796-1.014 1.292-1.262l-2.126-1.063c-.741-.371-1.041-1.271-.671-2.013.371-.741 1.273-1.039 2.012-.671l3.41 1.705c1.234.616 1.419 1.7 1.419 2.291.074 1.373-1.302 2.264-2.685 2.426-.467.793-.995 1.611-1.909 2.161-.906.558-2.135.807-3.14.744-.683 1.702-2.451 3.045-4.288 3.013-1.864.038-3.567-1.393-4.254-3.02-1.005.078-2.222-.19-3.126-.737-.925-.549-1.442-1.387-1.926-2.175.004.01-.086-.033-.41-.085-1.349-.22-2.258-1.165-2.258-2.353zm22.372 5.588c-.211.013-.38.018-.467.012-1.411-.107-2.756.539-3.325 1.846-.152.351-.416.659-.726.845-.333.202-.893.342-1.242.317-1.423-.104-2.596.617-3.169 1.936-.147.418-.359.723-.638.975-.451.408-1.16.408-1.611 0-.28-.253-.493-.558-.638-.975-.574-1.32-1.763-2.042-3.169-1.937-.355.022-.908-.116-1.242-.317-.31-.186-.574-.494-.726-.846-.568-1.306-1.911-1.95-3.325-1.844-.088.006-.259.001-.473-.012-.876-.054-1.621.639-1.621 1.516 0 .82.649 1.515 1.469 1.522.281.003.565-.013.848-.034.153-.011.29.077.352.218.401.919 1.084 1.544 1.925 2.05.904.549 2.116.819 3.127.738.475 1.007 1.163 2.145 2.152 2.672 1.304.802 2.946.802 4.251 0 .973-.525 1.696-1.662 2.139-2.667 1.006.064 2.235-.185 3.14-.744.841-.507 1.524-1.133 1.925-2.052.061-.14.198-.228.35-.217.298.023.598.039.893.034.796-.013 1.425-.683 1.425-1.478v-.037c0-.88-.748-1.576-1.626-1.521zm-10.252-8.75c.129.016.632.022.733-.006 1.264-.116 3.79-.846 4.138-3.899.076-.667-.515-1.2-1.169-1.048-1.933.448-2.88 1.994-3.314 3.187-.482-1.558-1.657-3.714-4.429-4.187-.579-.099-1.118.387-1.08.974.269 4.103 3.617 4.872 5.121 4.979z"/></svg>