<svg id="Layer_1" viewBox="0 0 24 24" xmlns="http://www.w3.org/2000/svg" data-name="Layer 1"><path d="m18.5 8h-1.5v-3.05c1.141-.232 2-1.24 2-2.45 0-1.381-1.119-2.5-2.5-2.5h-9c-1.381 0-2.5 1.119-2.5 2.5 0 1.209.859 2.218 2 2.45v3.05h-1.5c-3.033 0-5.5 2.467-5.5 5.5v5c0 3.032 2.467 5.5 5.5 5.5h13c3.032 0 5.5-2.468 5.5-5.5v-5c0-3.033-2.468-5.5-5.5-5.5zm2.5 10.5c0 1.379-1.121 2.5-2.5 2.5h-13c-1.378 0-2.5-1.121-2.5-2.5v-5c0-1.378 1.122-2.5 2.5-2.5h3c.829 0 1.5-.671 1.5-1.5v-4.5h4v4.5c0 .829.672 1.5 1.5 1.5h3c1.379 0 2.5 1.122 2.5 2.5zm-6.879-4.621c1.172 1.172 1.172 3.071 0 4.243-.586.586-1.353.879-2.121.879s-1.536-.293-2.121-.879c-1.172-1.172-1.172-3.071 0-4.243l1.254-1.227c.482-.471 1.252-.471 1.734 0z"/></svg>