<?xml version="1.0" encoding="UTF-8"?>
<svg xmlns="http://www.w3.org/2000/svg" id="Layer_1" data-name="Layer 1" viewBox="0 0 24 24">
  <path d="M20.718,15.446c-.302,.603-.685,1.187-1.132,1.737,.239,.112,.474,.227,.74,.316,.886,.296,1.002,1.5-.278,1.951-.799,.281-2.608,.585-3.548,.542-1.778-.083-3.559-.86-4.5-3.07-.941,2.21-2.722,2.987-4.5,3.07-.94,.044-2.748-.26-3.548-.542-1.28-.451-1.164-1.655-.278-1.951,.272-.091,.513-.208,.756-.323-.575-.682-1.034-1.396-1.323-2.12-.308-.769,.066-1.642,.836-1.95,.769-.309,1.642,.066,1.949,.835,.204,.51,.571,1.052,1.055,1.571,.155-.121,.306-.239,.468-.362,.996-.754,1.945-1.152,3.001-1.152s1.583,.454,1.583,.563c0-.108,.528-.563,1.583-.563s2.005,.398,3.001,1.152c.164,.124,.316,.243,.472,.365,.556-.629,.99-1.318,1.235-2.016,.229-.648,.858-1.061,1.541-.996,.587,.084,1.181-.373,1.167-.982,0-.426-.306-.791-.727-.867-.656-.119-1.154-.656-1.225-1.319-.381-3.613-3.411-6.337-7.049-6.337-5.002,0-6.318,2.945-7.48,5.543-.042,.094-.083,.187-.125,.279,2.046-.325,4.842-1.18,7.045-3.383,.586-.586,1.535-.586,2.121,0,.586,.585,.586,1.536,0,2.121-1.101,1.101-2.302,1.92-3.507,2.548,.554,.221,.947,.759,.947,1.392,0,.828-.672,1.5-1.5,1.5s-1.5-.672-1.5-1.5c0-.19,.039-.37,.103-.537-3.47,1.247-6.525,1.049-6.719,1.033-.654-.05-1.2-.521-1.347-1.161-.146-.64,.14-1.301,.707-1.631,.267-.164,.729-1.2,1.036-1.885C3.005,4.582,5.053,0,12,0c4.852,0,8.944,3.406,9.887,8.068,1.271,.649,2.113,1.967,2.113,3.455,0,1.07-.42,2.076-1.182,2.83-.583,.578-1.312,.953-2.101,1.094Zm-13.562,6.555c-.052,0-.103-.007-.155-.008v.507c0,.828,.672,1.5,1.5,1.5s1.5-.672,1.5-1.5v-1.019c-.88,.364-1.889,.526-2.845,.521Zm8.186-.129c-.473-.084-.915-.225-1.341-.392v1.019c0,.828,.672,1.5,1.5,1.5s1.5-.672,1.5-1.5v-.507c-.552,.025-1.107-.027-1.659-.121Zm.659-10.373c0-.828-.672-1.5-1.5-1.5s-1.5,.672-1.5,1.5,.672,1.5,1.5,1.5,1.5-.672,1.5-1.5Z"/>
</svg>
