<svg id="Layer_1" viewBox="0 0 24 24" xmlns="http://www.w3.org/2000/svg" data-name="Layer 1"><path d="m24 14c0 1.701-.754 3.19-1.483 4.63-.462.913-.939 1.857-1.254 2.887-.266.877-.886 1.601-1.698 1.983-1.755.823-3.49.572-4.861-.405-.129-.092-.278-.092-.405 0-1.639 1.165-3.951 1.168-5.594 0-.131-.093-.279-.093-.406 0-.39.296-.727.628-1.337.831-.153.05-.309.073-.461.073-.633 0-1.222-.404-1.427-1.039-.25-.772.16-1.599.918-1.872.191-.127.382-.312.566-.437 1.164-.827 2.723-.827 3.885 0 .624.443 1.493.443 2.116 0 1.16-.826 2.722-.826 3.884 0 .311.222.696.349 1.058.349.202-.021.745-.064.893-.356.402-1.316.972-2.425 1.484-3.443-.178-.111-.38-.263-.579-.105-.822.583-1.815.904-2.798.904s-1.976-.321-2.796-.903c-.131-.093-.279-.093-.406 0-.678.48-1.612.323-2.092-.353-.48-.675-.323-1.611.352-2.092 1.162-.826 2.723-.826 3.885 0 .623.442 1.49.443 2.117 0 1.005-.715 2.309-.809 3.395-.284.015-.122.045-.246.045-.366 0-.748-.416-1.417-1.035-2.044-.156.018-.312.044-.465.044-.982 0-1.976-.321-2.796-.903-.131-.093-.279-.093-.406 0-.405.289-.854.514-1.334.67-.792.256-1.635-.175-1.891-.963s.175-1.634.963-1.891c.37-.108.648-.382.99-.538-1.155-.922-2.026-1.975-2.026-3.374 0-.589.115-1.106.303-1.572-3.065.47-5.303 1.266-5.303 2.072 0 .696.466 1.233 1.226 2.053.79.853 1.774 1.914 1.774 3.447 0 2.636-1.875 4.068-3.688 5.453-1.926 1.471-3.917 2.991-4.324 6.233-.1.826-.869 1.408-1.675 1.302-.822-.103-1.405-.853-1.302-1.675.563-4.49 3.405-6.659 5.479-8.244 1.603-1.224 2.509-1.97 2.509-3.069 0-.356-.474-.867-.975-1.407-.855-.922-2.025-2.185-2.025-4.093 0-5.107 10.5-5.503 14-5.503h3.5c.828 0 1.5.671 1.5 1.5s-.672 1.5-1.5 1.5h-2c-1.41 0-4.5.503-4.5 2 0 .532 1.697 1.63 2.711 2.285 2.356 1.524 5.289 3.715 5.289 6.715z"/></svg>