<svg id="Layer_1" viewBox="0 0 24 24" xmlns="http://www.w3.org/2000/svg" data-name="Layer 1"><path d="m23 8h-1.213c-.655-2.305-2.775-4-5.287-4h-11c-3.033 0-5.5 2.467-5.5 5.5v5c0 3.033 2.467 5.5 5.5 5.5h11c2.512 0 4.632-1.695 5.287-4h1.213c.552 0 1-.448 1-1v-6c0-.552-.448-1-1-1zm-4 6.5c0 1.378-1.122 2.5-2.5 2.5h-11c-1.378 0-2.5-1.122-2.5-2.5v-5c0-1.378 1.122-2.5 2.5-2.5h11c1.378 0 2.5 1.122 2.5 2.5zm-4-3.8c0 1.554-1.819 3.482-3.004 4.445-.582.473-1.41.473-1.992 0-1.185-.963-3.004-2.891-3.004-4.445 0-1.215.895-2.2 2-2.2s2 .985 2 2.2c0-1.215.895-2.2 2-2.2s2 .985 2 2.2z"/></svg>