<svg id="Layer_1" viewBox="0 0 24 24" xmlns="http://www.w3.org/2000/svg" data-name="Layer 1"><path d="m22.883 14.243-12.775-12.813c-.849-.882-1.99-1.371-3.214-1.378h-.025c-1.215 0-2.352.475-3.201 1.338l-1.764 1.778c-1.216 1.227-1.885 2.852-1.885 4.578v.767c0 .828.671 1.5 1.5 1.5h1.498v1.497c0 .828.671 1.5 1.5 1.5h1.497v1.498c0 .828.671 1.5 1.5 1.5h1.498v1.497c0 .828.671 1.5 1.5 1.5h1.317v.039c.013 1.146.476 2.211 1.303 3.002l.852.814c.823.787 1.87 1.18 2.917 1.18 1.071 0 2.142-.411 2.97-1.23l2.98-2.951c1.527-1.529 1.549-4.041.032-5.615zm-9.812 1.762h-1.06v-1.497c0-.828-.671-1.5-1.5-1.5h-1.498v-1.498c0-.828-.671-1.5-1.5-1.5h-1.497v-1.497c0-.828-.671-1.5-1.5-1.5h-1.421c.138-.65.459-1.249.938-1.731l1.769-1.783c.286-.29.67-.468 1.075-.446.407.002.787.165 1.088.477l8.775 8.802-3.669 3.675zm7.662 1.728-2.975 2.945c-.474.47-1.222.476-1.701.015l-.853-.814c-.239-.229-.373-.537-.377-.868s.123-.643.357-.877l3.672-3.679 1.883 1.889c.374.388.368 1.015-.007 1.39z"/></svg>