<svg id="Layer_1" viewBox="0 0 24 24" xmlns="http://www.w3.org/2000/svg" data-name="Layer 1"><path d="m17.5 0h-11c-3.033 0-5.5 2.468-5.5 5.5v14c0 2.5 1.994 4.508 4.5 4.5h12c3.032 0 5.5-2.468 5.5-5.5v-13c0-3.032-2.468-5.5-5.5-5.5zm-11 3h11c1.379 0 2.5 1.121 2.5 2.5v9.5h-14.5c-.529 0-1.029.108-1.5.276v-9.776c0-1.379 1.122-2.5 2.5-2.5zm11 18h-12c-.827 0-1.5-.673-1.5-1.5s.673-1.5 1.5-1.5h14.5v.5c0 1.379-1.121 2.5-2.5 2.5zm-6.515-7.898c.564.552 1.466.552 2.03 0l1.813-1.774c1.562-1.562 1.562-4.095 0-5.657-.781-.781-1.805-1.172-2.828-1.172-1.024 0-2.047.391-2.829 1.172-1.562 1.562-1.562 4.095 0 5.657l1.813 1.774zm1.015-6.102c.828 0 1.5.672 1.5 1.5s-.672 1.5-1.5 1.5-1.5-.672-1.5-1.5.672-1.5 1.5-1.5z"/></svg>