<svg id="Layer_1" viewBox="0 0 24 24" xmlns="http://www.w3.org/2000/svg" data-name="Layer 1"><path d="m4.5 0c-2.48 0-4.5 2.02-4.5 4.5s2.02 4.5 4.5 4.5 4.5-2.02 4.5-4.5-2.02-4.5-4.5-4.5zm0 6c-.83 0-1.5-.67-1.5-1.5s.67-1.5 1.5-1.5 1.5.67 1.5 1.5-.67 1.5-1.5 1.5zm6.5 16.5c0 .83-.67 1.5-1.5 1.5s-1.5-.67-1.5-1.5c0-8 6.5-14.5 14.5-14.5.83 0 1.5.67 1.5 1.5s-.67 1.5-1.5 1.5c-6.34 0-11.5 5.16-11.5 11.5zm11.24-6.49c-.3.46-.5.77-.5.77l.85 1.42c.17.28.12.64-.11.88-.22.22-.55.27-.83.13l-1.06-.53-1.14 1.14 1.14 1.14h1.22c.45 0 .88.13 1.26.36l.92.58v.59c0 .83-.67 1.5-1.5 1.5h-1.53l-.3-.31c-.43-.45-.68-1.04-.68-1.66v-.53l-.55-.5h-1.26c-.66 0-1.28-.27-1.73-.75l-.04-.04c-.27.71-.42 1.48-.42 2.29 0 .95-.88 1.69-1.86 1.46-.7-.16-1.15-.85-1.14-1.58.06-5.14 4.24-9.32 9.38-9.38.72 0 1.41.44 1.58 1.14.23.98-.51 1.86-1.46 1.86-.09 0-.17 0-.26.01zm-10.8-12.45c-.59-.59-.59-1.54 0-2.12s1.54-.59 2.12 0l1.34 1.34.45-.45c.63-.63 1.67-.18 1.66.71v2.96c0 .56-.44 1-1 1h-3c-.89.01-1.3-1.03-.67-1.66l.45-.45-1.34-1.34zm-4.44 9.44v3c0 .56-.44 1-1 1h-2.96c-.89.01-1.34-1.03-.71-1.66l.45-.45-1.34-1.34c-.59-.59-.59-1.54 0-2.12s1.54-.59 2.12 0l1.34 1.34.45-.45c.63-.63 1.67-.22 1.66.67z"/></svg>