<svg id="Layer_1" viewBox="0 0 24 24" xmlns="http://www.w3.org/2000/svg" data-name="Layer 1"><path d="m11 22.5c0 .829-.671 1.5-1.5 1.5h-4.181c-1.575 0-3.059-.691-4.072-1.897s-1.438-2.787-1.166-4.337l2.338-13.364c.446-2.551 2.649-4.402 5.238-4.402h8.672c2.587 0 4.79 1.849 5.238 4.397l.2.824c.143.816-.402 1.594-1.218 1.737-.816.138-1.593-.402-1.737-1.218l-.199-.824c-.195-1.11-1.156-1.917-2.283-1.917h-8.673c-1.128 0-2.089.807-2.283 1.918l-2.338 13.364c-.118.676.067 1.365.509 1.891.441.525 1.088.827 1.775.827h4.181c.829 0 1.5.671 1.5 1.5zm-.5-17v1c0 .829.671 1.5 1.5 1.5s1.5-.671 1.5-1.5v-1c0-.829-.671-1.5-1.5-1.5s-1.5.671-1.5 1.5zm13.5 12.5v3c0 1.657-1.343 3-3 3h-5c-1.657 0-3-1.343-3-3v-3c0-.887.388-1.682 1-2.232v-2.268c0-2.481 2.019-4.5 4.5-4.5s4.5 2.019 4.5 4.5v2.268c.612.549 1 1.344 1 2.232zm-7-4.5v1.5h3v-1.5c0-.827-.673-1.5-1.5-1.5s-1.5.673-1.5 1.5zm3 6c0-.828-.672-1.5-1.5-1.5s-1.5.672-1.5 1.5.672 1.5 1.5 1.5 1.5-.672 1.5-1.5zm-8-6.5c.828 0 1.5-.672 1.5-1.5s-.672-1.5-1.5-1.5-1.5.672-1.5 1.5.672 1.5 1.5 1.5z"/></svg>