<svg id="Layer_1" viewBox="0 0 24 24" xmlns="http://www.w3.org/2000/svg" data-name="Layer 1"><path d="m23 15.5c0 1.381-1.119 2.5-2.5 2.5-.815 0-1.532-.396-1.989-1h-3.511l1.5 2c1.38 0 2.499 1.119 2.499 2.5s-1.119 2.5-2.5 2.5-2.5-1.119-2.5-2.5c0-.241.045-.469.108-.689l-2.108-2.811-2.108 2.811c.063.22.108.448.108.689 0 1.381-1.119 2.5-2.5 2.5s-2.5-1.119-2.5-2.5 1.119-2.5 2.499-2.5l1.5-2h-3.511c-.456.604-1.173 1-1.989 1-1.381 0-2.5-1.119-2.5-2.5s1.119-2.5 2.5-2.5c.815 0 1.532.396 1.989 1h5.011v-.5c0-.828.671-1.5 1.5-1.5s1.5.672 1.5 1.5v.5h5.011c.456-.604 1.173-1 1.989-1 1.381 0 2.5 1.119 2.5 2.5zm-7.08-13.448-2.742-1.714c-.721-.45-1.635-.45-2.356 0l-2.742 1.714 3.92 2.24zm-7.876 7.017 2.956 1.86v-4.907l-4-2.307v3.47c0 .766.395 1.478 1.044 1.884zm4.956 1.843 2.956-1.843c.65-.406 1.044-1.118 1.044-1.884v-3.454l-4 2.294z"/></svg>