<svg id="Layer_1" viewBox="0 0 24 24" xmlns="http://www.w3.org/2000/svg" data-name="Layer 1"><path d="m24 10.824v-1.909c0-1.146-.666-2.207-1.712-2.709-1.399-.672-2.609-1.252-3.063-3.069l-.225-.902v-2.235c-1.392 0-2.551.952-2.89 2.237-3.202.96-4.11 4.667-4.11 6.763v2.025c-.172-.006-.337-.025-.512-.025-1.038 0-1.996.118-2.89.31-.7-1.355-2.672-4.31-6.598-4.31v3c1.996 0 3.168 1.393 3.716 2.289-3.758 1.784-5.636 4.808-5.744 4.988l2.566 1.554c.116-.189 2.805-4.442 8.235-4.796l-3.253 2.8 3.499 2.316-2.15 1.849h-3.869v3h14v-3h-5.53l2.511-2.159-3.501-2.318 2.339-2.014c4.136 1.258 6.715 4.433 6.745 4.471l2.357-1.855c-.105-.133-1.505-1.867-3.922-3.456v-2.344l4-.5zm-9 .622v-2.441c.003-.353.079-3.047 1.78-3.807.743 1.601 1.923 2.496 3.049 3.123l-2.829.354v3.419c-.63-.253-1.296-.472-2-.648z"/></svg>