<svg id="Layer_1" viewBox="0 0 24 24" xmlns="http://www.w3.org/2000/svg" data-name="Layer 1"><path d="m20 8c0-4.411-3.589-8-8-8s-8 3.589-8 8c0 3.898 2.804 7.149 6.5 7.854v2.083l-3.129 3.576c-.545.623-.482 1.57.141 2.116.285.249.637.371.987.371.417 0 .833-.174 1.129-.513l2.371-2.71 2.371 2.71c.296.34.712.513 1.129.513.351 0 .703-.122.987-.371.624-.546.687-1.493.141-2.116l-3.129-3.576v-2.083c3.696-.705 6.5-3.956 6.5-7.854zm-13 0c0-2.757 2.243-5 5-5s5 2.243 5 5c0 2.231-1.479 4.103-3.5 4.745v-3.245c.829 0 1.5-.672 1.5-1.5s-.671-1.5-1.5-1.5h-3c-.829 0-1.5.672-1.5 1.5s.671 1.5 1.5 1.5v3.245c-2.021-.642-3.5-2.514-3.5-4.745z"/></svg>