<svg id="Layer_1" viewBox="0 0 24 24" xmlns="http://www.w3.org/2000/svg" data-name="Layer 1"><path d="m9 10.092c-.581.207-1 .756-1 1.408 0 .829.672 1.5 1.5 1.5h7c.828 0 1.5-.671 1.5-1.5 0-.652-.419-1.201-1-1.408v-7.184c.581-.207 1-.756 1-1.408 0-.829-.672-1.5-1.5-1.5h-7c-.828 0-1.5.671-1.5 1.5 0 .652.419 1.201 1 1.408v2.092h-7.5c-.828 0-1.5.671-1.5 1.5s.672 1.5 1.5 1.5h7.5zm3-6.092h2v5h-2zm7.061 10.22c-.234-.794.219-1.628 1.014-1.863l2-.591c.795-.234 1.629.219 1.863 1.014s-.219 1.628-1.014 1.863l-2 .591c-.773.235-1.631-.212-1.863-1.014zm-13.136-1.863c.795.235 1.248 1.069 1.014 1.863-.232.802-1.09 1.249-1.863 1.014l-2-.591c-.795-.235-1.248-1.069-1.014-1.863s1.071-1.247 1.863-1.014zm15.075 10.143c0 .829-.672 1.5-1.5 1.5h-13c-.828 0-1.5-.671-1.5-1.5s.672-1.5 1.5-1.5h.5c0-1.103.897-2 2-2h8c1.103 0 2 .897 2 2h.5c.828 0 1.5.671 1.5 1.5zm2.938-3.78c-.232.802-1.09 1.249-1.863 1.014l-2-.591c-.795-.235-1.248-1.069-1.014-1.863s1.07-1.249 1.863-1.014l2 .591c.795.235 1.248 1.069 1.014 1.863zm-18.013.423-2 .591c-.773.235-1.631-.212-1.863-1.014-.234-.794.219-1.628 1.014-1.863l2-.591c.794-.235 1.629.219 1.863 1.014s-.219 1.628-1.014 1.863z"/></svg>