<svg id="Layer_1" viewBox="0 0 24 24" xmlns="http://www.w3.org/2000/svg" data-name="Layer 1"><path d="m7.938 20.99c-.145.006-.291.01-.438.01-2.904 0-4.5-1.127-4.5-1.5v-1.339c.951.407 2.089.685 3.375.793.814.071 1.554-.542 1.62-1.369.069-.826-.543-1.552-1.369-1.621-2.495-.209-3.625-1.193-3.625-1.464v-1.357c1.238.541 2.781.857 4.5.857.829 0 1.5-.672 1.5-1.5s-.671-1.5-1.5-1.5c-2.904 0-4.5-1.127-4.5-1.5v-1.357c1.238.541 2.781.857 4.5.857 1.775 0 3.364-.337 4.621-.911.229.535.76.911 1.379.911.828 0 1.5-.672 1.5-1.5v-3c-.001-2.565-3.225-4.5-7.501-4.5s-7.5 1.935-7.5 4.5v15c0 2.565 3.224 4.5 7.5 4.5.189 0 .376-.004.562-.012.828-.034 1.471-.733 1.437-1.562-.034-.828-.743-1.489-1.561-1.437zm-.438-17.99c2.904 0 4.5 1.127 4.5 1.5s-1.596 1.5-4.5 1.5-4.5-1.127-4.5-1.5 1.596-1.5 4.5-1.5zm9.5 7c-3.866 0-7 3.134-7 7s3.134 7 7 7 7-3.134 7-7-3.134-7-7-7zm1.315 11.5h-.315c0 .552-.448 1-1 1s-1-.448-1-1c-1.113 0-2.087-.61-2.605-1.513-.38-.662.11-1.487.874-1.487.359 0 .686.196.869.506.174.296.495.494.862.494h2.35c.334 0 .629-.251.649-.585.02-.324-.206-.602-.52-.655l-3.286-.548c-1.277-.213-2.203-1.312-2.192-2.61.011-1.451 1.234-2.603 2.685-2.603h.315c0-.552.448-1 1-1s1 .448 1 1c1.113 0 2.087.61 2.605 1.513.38.662-.11 1.487-.874 1.487-.359 0-.686-.196-.869-.506-.174-.295-.495-.494-.862-.494h-2.376c-.36 0-.649.305-.622.67.021.292.255.525.544.574l3.261.544c1.277.213 2.203 1.312 2.193 2.61-.011 1.451-1.234 2.603-2.685 2.603z"/></svg>