<svg id="Layer_1" viewBox="0 0 24 24" xmlns="http://www.w3.org/2000/svg" data-name="Layer 1"><path d="m9 10c-1.381 0-2.5-1.119-2.5-2.5s1.119-2.5 2.5-2.5 2.5 1.119 2.5 2.5-1.119 2.5-2.5 2.5zm9.5-10h-13c-3.033 0-5.5 2.467-5.5 5.5v9c0 3.033 2.467 5.5 5.5 5.5h4c.829 0 1.5-.671 1.5-1.5s-.671-1.5-1.5-1.5h-4c-1.378 0-2.5-1.122-2.5-2.5v-9c0-1.378 1.122-2.5 2.5-2.5h13c1.378 0 2.5 1.122 2.5 2.5v2.5c0 .829.671 1.5 1.5 1.5s1.5-.671 1.5-1.5v-2.5c0-3.033-2.467-5.5-5.5-5.5zm-1 8c.829 0 1.5-.671 1.5-1.5s-.671-1.5-1.5-1.5h-2c-.829 0-1.5.671-1.5 1.5s.671 1.5 1.5 1.5zm6.5 5.966v3.665c0 3.966-3.639 5.738-4.753 6.187-.233.102-.448.183-.746.183s-.59-.105-.85-.248c-1.091-.545-4.651-2.599-4.651-6.122v-3.665c0-1.03.658-1.94 1.636-2.265l3.392-1.125c.307-.102.638-.102.944 0l3.392 1.125c.979.325 1.636 1.235 1.636 2.265zm-3 .443-2.5-.829-2.5.829v3.221c0 1.521 1.688 2.698 2.564 3.207.898-.445 2.436-1.463 2.436-3.207zm-15.941-.758c-.247.661.32 1.348 1.054 1.348h4.887v-1.034c0-.763.204-1.486.556-2.122-.708-.525-1.591-.844-2.556-.844-1.816 0-3.362 1.106-3.941 2.652z"/></svg>