<svg id="Layer_1" viewBox="0 0 24 24" xmlns="http://www.w3.org/2000/svg" data-name="Layer 1"><path d="m22.849 21.041c-.858-.205-1.247-.619-1.25-.619-.557-.556-.974-1.259-1.103-2.075-.312-1.84-1.701-3.229-3.54-3.54-.743-.125-1.432-.475-1.941-.983-.509-.509-.858-1.198-.983-1.941-.289-1.713-1.563-3.026-3.408-3.512-.64-.168-.978-.38-1.316-.687.427-.684.678-1.437.693-2.203.016-.856-.235-2.146-1.516-3.427-.931-.931-2.269-1.63-3.67-1.917-1.625-.336-3.039-.044-3.879.799-.842.841-1.134 2.254-.801 3.877.288 1.402.987 2.74 1.917 3.67 1.245 1.246 2.499 1.517 3.354 1.517.553.001 1.098-.124 1.619-.343.611.606 1.38 1.231 2.833 1.614.323.085 1.088.363 1.214 1.111.229 1.352.875 2.617 1.821 3.562s2.211 1.593 3.562 1.821c.57.096.985.511 1.081 1.081.225 1.328.854 2.573 1.773 3.514.178.281 1.659 1.523 3.19 1.64.679 0 1.294-.463 1.458-1.151.192-.807-.305-1.615-1.11-1.808zm-17.424-14.041c-.511-.021-.955-.342-1.251-.639-1.085-1.084-1.335-2.942-1.145-3.281.089-.055.253-.084.468-.084.728 0 2.027.34 2.865 1.178t0 0c.296.296.647.753.638 1.25-.008.444-.29.816-.524 1.051-.235.234-.607.516-1.051.524zm7.419-.232c-1.749-1.748-2.423-5.055-1.277-6.201s4.453-.472 6.201 1.277c1.125 1.125 1.411 2.33 1.116 3.41.505.636.859 1.401.996 2.216.026.155.131.26.286.286.993.167 1.923.643 2.618 1.339.354.345 1.215 1.301 1.215 2.405 0 .829-.672 1.5-1.5 1.5-.777 0-1.417-.591-1.492-1.349-.286-.486-.781-.849-1.34-.938-1.404-.237-2.508-1.34-2.745-2.746-.017-.103-.063-.197-.097-.295-1.213.591-2.654.424-3.982-.904zm.156 15.732c0 .828-.671 1.5-1.5 1.5-1.104 0-2.061-.86-2.42-1.23-.681-.68-1.157-1.609-1.324-2.602-.026-.156-.131-.261-.288-.288-.813-.136-1.578-.491-2.214-.995-1.08.295-2.285.009-3.41-1.116-1.749-1.749-2.423-5.056-1.277-6.202s4.453-.472 6.201 1.277c1.328 1.328 1.494 2.769.904 3.982.098.034.192.08.294.097 1.407.238 2.51 1.342 2.747 2.747.08.558.484 1.08.938 1.339.757.076 1.348.715 1.348 1.492z"/></svg>