<svg id="Layer_1" viewBox="0 0 24 24" xmlns="http://www.w3.org/2000/svg" data-name="Layer 1"><path d="m10.5 10.5h-.773c.324-2.597 1.409-4.855 2.274-6.318.568.959 1.228 2.254 1.707 3.77.248.796 1.114 1.228 1.883.978.79-.25 1.228-1.092.979-1.882-.422-1.335-.956-2.514-1.477-3.495 1.9.691 3.534 2.004 4.622 3.81.43.71 1.351.938 2.06.511s.938-1.349.511-2.059c-2.138-3.549-6.02-5.76-10.154-5.807-.006 0-.011 0-.017-.001-.036 0-.071-.007-.107-.007-.007 0-.01 0-.015 0-6.614.003-11.993 5.385-11.993 12-.006 5.621 3.949 10.647 9.5 11.701.801.017 1.517-.694 1.5-1.5v-3.987c0-.203-.041-.404-.121-.59-.6-1.403-.979-2.783-1.146-4.123h.767c.828 0 1.5-.671 1.5-1.5s-.672-1.5-1.5-1.5zm-1.6-6.95c-.94 1.768-1.911 4.192-2.186 6.95h-3.586c.541-3.211 2.786-5.851 5.773-6.95zm-.9 14.965v1.554c-2.576-1.271-4.385-3.713-4.863-6.569h3.576c.165 1.644.592 3.323 1.287 5.015zm15-2.737v-1.279c0-2.481-2.019-4.5-4.5-4.5s-4.5 2.019-4.5 4.5v1.279c-.61.549-1 1.336-1 2.221v3c0 1.657 1.343 3 3 3h5c1.657 0 3-1.343 3-3v-3c0-.885-.39-1.672-1-2.221zm-4.5-2.779c.827 0 1.5.673 1.5 1.5v.5h-3v-.5c0-.827.673-1.5 1.5-1.5zm0 8c-.828 0-1.5-.672-1.5-1.5s.672-1.5 1.5-1.5 1.5.672 1.5 1.5-.672 1.5-1.5 1.5z"/></svg>