<svg id="Layer_1" viewBox="0 0 24 24" xmlns="http://www.w3.org/2000/svg" data-name="Layer 1"><path d="m24 21v1.154c0 1.02-.827 1.846-1.846 1.846h-20.308c-1.02 0-1.846-.827-1.846-1.846v-1.154c0-1.105.895-2 2-2v-7.5c0-3.033 2.467-5.5 5.5-5.5h2c.829 0 1.5.671 1.5 1.5s-.671 1.5-1.5 1.5h-2c-1.378 0-2.5 1.122-2.5 2.5v7.5h3.308l.923 1h5.538l.923-1h3.308v-.5c0-.829.671-1.5 1.5-1.5s1.5.671 1.5 1.5v.5c1.105 0 2 .895 2 2zm0-12v3c0 1.657-1.343 3-3 3h-5c-1.657 0-3-1.343-3-3v-3c0-.885.39-1.672 1-2.221v-2.279c0-2.481 2.019-4.5 4.5-4.5s4.5 2.019 4.5 4.5v2.279c.61.549 1 1.336 1 2.221zm-7-4.5v1.5h3v-1.5c0-.827-.673-1.5-1.5-1.5s-1.5.673-1.5 1.5zm3 6c0-.828-.672-1.5-1.5-1.5s-1.5.672-1.5 1.5.672 1.5 1.5 1.5 1.5-.672 1.5-1.5z"/></svg>