<svg id="Layer_1" viewBox="0 0 24 24" xmlns="http://www.w3.org/2000/svg" data-name="Layer 1"><path d="m15.665 20.208-1.453 1.015.566 1.722c.257.7-.622 1.353-1.22.908l-1.558-1.085-1.553 1.085c-.593.445-1.465-.198-1.216-.896l.553-1.733-1.451-1.01h.001c-.638-.414-.302-1.499.462-1.474h1.898l.441-1.691c.2-.878 1.54-.878 1.74 0l.441 1.691h1.886c.762-.025 1.097 1.053.461 1.468zm-8.461-6.217h-1.886l-.441-1.691c-.2-.878-1.54-.878-1.74 0l-.441 1.691h-1.898c-.764-.025-1.1 1.06-.462 1.476h-.001s1.451 1.009 1.451 1.009l-.553 1.733c-.249.699.624 1.341 1.216.896l1.553-1.085 1.558 1.085c.597.445 1.477-.208 1.22-.908l-.566-1.722 1.453-1.015c.637-.415.301-1.493-.461-1.468zm15.998.013h-1.898l-.441-1.691c-.2-.878-1.54-.878-1.74 0l-.441 1.691h-1.886c-.762-.025-1.097 1.053-.461 1.468l1.453 1.015-.566 1.722c-.257.7.622 1.353 1.22.908l1.558-1.085 1.553 1.085c.593.445 1.465-.198 1.216-.896l-.553-1.733 1.451-1.01h-.001c.638-.414.302-1.499-.462-1.474zm-17.202-6.185v-2.906c0-1.258.68-2.425 1.775-3.045l2.497-1.414c1.064-.602 2.385-.601 3.447 0l2.503 1.415c1.097.619 1.778 1.786 1.778 3.047v2.962c0 1.271-.69 2.443-1.801 3.06l-2.485 1.38c-.52.288-1.105.439-1.697.439-.605.002-1.207-.157-1.737-.46l-2.517-1.438c-1.087-.622-1.763-1.786-1.763-3.038zm5 1.434v-2.427l-2-1.143v2.136c0 .179.097.346.252.435zm4-1.376v-2.192l-2 1.144v2.453l1.743-.968c.159-.088.257-.255.257-.437zm-4.908-3.873 1.909 1.091 1.906-1.089-1.665-.941c-.153-.087-.34-.084-.493 0l-1.657.938z"/></svg>