<svg id="Layer_1" viewBox="0 0 24 24" xmlns="http://www.w3.org/2000/svg" data-name="Layer 1"><path d="m12 12c3.309 0 6-2.691 6-6s-2.691-6-6-6-6 2.691-6 6 2.691 6 6 6zm0-3c-1.654 0-3-1.346-3-3 0-.016.005-.031.005-.048.158.015.311.048.474.048 1.818 0 3.394-.979 4.265-2.431.757.545 1.256 1.429 1.256 2.431 0 1.654-1.346 3-3 3zm9 11.5v2c0 .828-.671 1.5-1.5 1.5s-1.5-.672-1.5-1.5v-2c0-1.399-.499-2.548-1.526-3.51l-3.397 3.554c-.565.612-1.615.6-2.171-.018l-3.273-3.491c-1.1.973-1.633 2.122-1.633 3.465v2c0 .828-.671 1.5-1.5 1.5s-1.5-.672-1.5-1.5v-2c0-2.188.869-4.109 2.582-5.709.585-.545 1.349-.834 2.157-.787.807.038 1.576.406 2.111 1.01l2.168 2.312 2.283-2.356c.493-.557 1.264-.924 2.071-.96.813-.031 1.57.245 2.154.791 1.642 1.539 2.474 3.456 2.474 5.699z"/></svg>