<svg id="Layer_1" viewBox="0 0 24 24" xmlns="http://www.w3.org/2000/svg" data-name="Layer 1"><path d="m19.5 0h-4.5c-1.157 0-2.202.451-3 1.17-.798-.72-1.843-1.17-3-1.17h-4.5c-2.481 0-4.5 2.019-4.5 4.5v11c0 1.953 1.258 3.602 3 4.224v3.578c0 .621.751.932 1.19.493l1.31-1.31 1.31 1.31c.439.439 1.19.128 1.19-.493v-3.301h1c1.157 0 2.202-.451 3-1.17.798.72 1.843 1.17 3 1.17h4.5c2.481 0 4.5-2.019 4.5-4.5v-11.001c0-2.481-2.019-4.5-4.5-4.5zm-10.5 17h-4.5c-.827 0-1.5-.673-1.5-1.5v-11c0-.827.673-1.5 1.5-1.5h4.5c.827 0 1.5.673 1.5 1.5v11c0 .827-.673 1.5-1.5 1.5zm4.5-1.5v-11c0-.827.673-1.5 1.5-1.5h1v14h-1c-.827 0-1.5-.673-1.5-1.5zm7.5 0c0 .827-.673 1.5-1.5 1.5h-.5v-14h.5c.827 0 1.5.673 1.5 1.5zm-12-9c0 .829-.671 1.5-1.5 1.5h-1c-.829 0-1.5-.671-1.5-1.5s.671-1.5 1.5-1.5h1c.829 0 1.5.671 1.5 1.5zm0 5c0 .829-.671 1.5-1.5 1.5h-1c-.829 0-1.5-.671-1.5-1.5s.671-1.5 1.5-1.5h1c.829 0 1.5.671 1.5 1.5z"/></svg>