<svg id="Layer_1" viewBox="0 0 24 24" xmlns="http://www.w3.org/2000/svg" data-name="Layer 1"><path d="m16.056 14.061c-.586-.585-.586-1.535 0-2.121l.639-.639 2.574 2.573-.639.639c-.585.585-1.535.586-2.12 0l-.453-.453zm-6.112-6.112c.586.586 1.535.586 2.121 0l.639-.639-2.573-2.573-.639.639c-.585.586-.586 1.535 0 2.12l.452.452zm9.586-3.476c1.068 1.067 1.067 2.925 0 3.991l-1.566 1.567 2.574 2.573 1.565-1.566c1.22-1.22 1.892-2.842 1.892-4.568s-.672-3.348-1.893-4.568c-1.218-1.222-2.841-1.894-4.567-1.894s-3.349.672-4.569 1.893l-1.565 1.564 2.573 2.573 1.566-1.565c.533-.534 1.241-.827 1.995-.827s1.462.293 1.994.826zm-12.038 5.023c-.586-.585-1.535-.585-2.12 0l-.639.639 2.573 2.573.639-.639c.586-.586.586-1.535 0-2.121l-.452-.452zm.968 10.039c-1.066 1.066-2.924 1.067-3.991 0-.533-.532-.826-1.24-.826-1.994s.293-1.462.827-1.995l1.565-1.566-2.573-2.573-1.564 1.565c-1.222 1.219-1.894 2.841-1.894 4.567s.672 3.349 1.892 4.568c1.221 1.221 2.843 1.893 4.568 1.893s3.348-.672 4.568-1.892l1.566-1.565-2.573-2.574-1.567 1.566zm5.597-3.475c-.585-.586-1.535-.586-2.121 0l-.639.639 2.573 2.574.639-.639c.585-.585.586-1.535 0-2.12l-.453-.453zm-13.385-9.681 1.999 1.408c.67.473 1.61.319 2.09-.363.476-.677.314-1.613-.362-2.09l-1.999-1.408c-.677-.476-1.613-.315-2.09.363-.476.677-.314 1.613.362 2.09zm4.88-2.25c.349.759 1.256 1.076 1.991.731.752-.348 1.079-1.239.731-1.991l-.925-1.999c-.349-.752-1.239-1.08-1.991-.731-.752.348-1.079 1.239-.731 1.991zm13.118 15.476c-.476-.677-1.415-.838-2.089-.363-.678.477-.84 1.412-.363 2.09l1.408 1.999c.479.681 1.421.836 2.089.363.678-.477.84-1.412.363-2.09zm4.463-2.949-1.999-.925c-.752-.346-1.642-.021-1.991.731-.348.751-.021 1.643.731 1.991l1.999.925c.735.345 1.641.028 1.991-.731.348-.751.021-1.643-.731-1.991z"/></svg>