<svg id="Layer_1" viewBox="0 0 24 24" xmlns="http://www.w3.org/2000/svg" data-name="Layer 1"><path d="m24 1.5v1.643c0 2.13-1.727 3.857-3.857 3.857h-1.424l.288 1.13c.226.883-.384 1.782-1.332 1.866-.744.066-1.409-.478-1.594-1.202l-.621-2.435c-.555-1.412-1.938-2.357-3.463-2.359-1.521.002-2.903.947-3.459 2.359l-1.971 7.741c-.022.117-.033.335-.038.626.004 2.941 2.407 5.271 5.473 5.274.399 0 .801-.042 1.188-.124.912-.192 1.827.501 1.811 1.509-.012.719-.587 1.307-1.293 1.447-.558.111-1.132.167-1.707.168-2.672-.003-5.019-1.16-6.561-3h-1.44c-.552 0-1 .448-1 1v1.5c0 .829-.672 1.5-1.5 1.5s-1.5-.671-1.5-1.5v-1.643c0-2.13 1.727-3.857 3.857-3.857-.208-.728-.326-1.497-.328-2.298.004-.222.015-.458.037-.702h-2.066c-.828 0-1.5-.671-1.5-1.5s.672-1.5 1.5-1.5h2.762l1.017-4h-1.422c-2.13 0-3.857-1.727-3.857-3.857v-1.643c0-.829.672-1.5 1.5-1.5s1.5.671 1.5 1.5v1.5c0 .552.448 1 1 1h2.43c1.229-1.83 3.304-2.997 5.568-3 2.268.003 4.343 1.17 5.572 3h2.431c.552 0 1-.448 1-1v-1.5c0-.829.672-1.5 1.5-1.5s1.5.671 1.5 1.5zm-1.787 9.911c-.478-.401-1.213-.055-1.213.569v1.643c0 .997-.679 1.923-1.662 2.085-1.252.206-2.338-.759-2.338-1.972v-1.762c0-.612-.718-.973-1.189-.583-1.313 1.087-2.061 2.831-1.734 4.731.313 1.823 1.672 3.338 3.424 3.878v2.5c0 .828.671 1.5 1.5 1.5s1.5-.672 1.5-1.5v-2.501c2.027-.638 3.5-2.525 3.5-4.763 0-1.537-.695-2.909-1.787-3.825z"/></svg>