<svg id="Layer_1" viewBox="0 0 24 24" xmlns="http://www.w3.org/2000/svg" data-name="Layer 1"><path d="m17.5 0h-11c-3.033 0-5.5 2.467-5.5 5.5v14c0 2.526 1.994 4.508 4.5 4.5h12c3.032 0 5.5-2.467 5.5-5.5v-13c0-3.033-2.468-5.5-5.5-5.5zm0 21h-12c-.827 0-1.5-.673-1.5-1.5s.673-1.5 1.5-1.5h2c.829 0 1.5-.671 1.5-1.5s-.671-1.5-1.5-1.5h-2c-.529 0-1.029.108-1.5.276v-9.776c0-1.378 1.122-2.5 2.5-2.5h11c1.379 0 2.5 1.122 2.5 2.5v9.5h-3.5c-.828 0-1.5.671-1.5 1.5s.672 1.5 1.5 1.5h3.5v.5c0 1.378-1.121 2.5-2.5 2.5zm-3.571-8.495c-.159.118-.429.679-.429.995 0 .829-.671 1.5-1.5 1.5s-1.5-.671-1.5-1.5c0-1.244.741-2.939 1.98-3.623.291-.16.596-.536.502-1.071-.067-.382-.406-.722-.788-.789-.417-.078-.703.104-.837.216-.227.191-.357.47-.357.767 0 .829-.671 1.5-1.5 1.5s-1.5-.671-1.5-1.5c0-1.185.521-2.302 1.428-3.064s2.102-1.081 3.284-.874c1.615.283 2.941 1.609 3.225 3.225.298 1.697-.51 3.392-2.009 4.218zm-.429 4.995c0 .828-.672 1.5-1.5 1.5s-1.5-.672-1.5-1.5.672-1.5 1.5-1.5 1.5.672 1.5 1.5z"/></svg>