<svg id="Layer_1" viewBox="0 0 24 24" xmlns="http://www.w3.org/2000/svg" data-name="Layer 1"><path d="m20.225 15.152c-2.36 2.323-5.32 3.834-8.445 3.845-1.373 0-2.632-.322-3.718-.933l-5.498 5.496c-.587.587-1.537.587-2.124 0-.587-.586-.587-1.537 0-2.123l5.425-5.423c-.348-.556-.628-1.197-.763-1.921-.199-1.067 1.153-1.723 1.917-.952l1.666 1.68c.853.861 2.109 1.26 3.571 1.152l-1.928-1.927c-.587-.587-.587-1.537 0-2.123.587-.587 1.537-.587 2.124 0l3.061 3.061c.496-.264.98-.577 1.446-.935l-3.001-3c-.587-.586-.587-1.537 0-2.123s1.537-.587 2.124 0l2.995 2.994c.356-.47.667-.956.929-1.451l-3.05-3.048c-.587-.586-.587-1.537 0-2.123s1.537-.587 2.124 0l1.934 1.933c.132-1.468-.223-2.802-1.123-3.709l-1.496-1.508c-.779-.786-.073-2.113 1.015-1.907 1.056.201 1.947.647 2.587 1.292 3.337 3.281 2.34 9.636-1.772 13.756zm-12.854-4.063c.587.586 1.537.586 2.124 0 .587-.587.587-1.537 0-2.124l-1.901-1.9c-.587-.586-1.537-.586-2.124 0s-.587 1.537 0 2.124zm6.628-6.626c.587.587 1.537.586 2.124 0 .587-.587.587-1.537 0-2.124l-1.9-1.9c-.587-.587-1.537-.586-2.124 0-.587.587-.587 1.537 0 2.124zm-3.045 3.582c.587.587 1.537.587 2.124 0 .587-.586.587-1.537 0-2.123l-2.969-2.968c-.587-.587-1.537-.587-2.124 0-.587.586-.587 1.537 0 2.123z"/></svg>