<svg id="Layer_1" viewBox="0 0 24 24" xmlns="http://www.w3.org/2000/svg" data-name="Layer 1"><path d="m23.578 18.065-5.579 5.935 2.064-6h-4.129l2.064 6-5.577-5.935c-.534-.623-.564-1.532-.071-2.188l1.561-2.077c.378-.504.972-.8 1.603-.8h1.608l-1.128 3h4.008l-1.128-3h1.61c.631 0 1.224.296 1.603.8l1.561 2.077c.493.656.464 1.566-.071 2.188zm-11.581 2.761c.049.827-.583 1.537-1.41 1.584-.107.006-.214.009-.32.009-.964 0-1.907-.252-2.747-.737l-4.77-2.752c-1.696-.98-2.75-2.806-2.75-4.764v-5.815c0-1.977 1.069-3.811 2.79-4.786l4.986-2.824c1.672-.946 3.748-.945 5.416-.002l5.002 2.826c1.724.974 2.794 2.809 2.794 4.789l.012 1.131c.009.828-.656 1.506-1.484 1.515h-.016c-.821 0-1.491-.662-1.5-1.485l-.011-1.055-5.996 3.427v.64c0 .829-.672 1.5-1.5 1.5s-1.5-.671-1.5-1.5v-.645l-5.993-3.425v5.71c0 .89.479 1.72 1.25 2.166l4.77 2.752c.425.245.904.357 1.394.331.815-.048 1.536.583 1.584 1.411zm-7.334-14.874 5.834 3.335 5.829-3.331-4.61-2.605c-.758-.43-1.701-.43-2.461 0l-4.592 2.6z"/></svg>