<svg id="Layer_1" viewBox="0 0 24 24" xmlns="http://www.w3.org/2000/svg" data-name="Layer 1"><path d="m21.321 15.393s2.527-5.784 2.546-5.852c.084-.3.134-.604.134-.906 0-.635-.234-1.568-.728-2.219-.682-.899-1.721-1.416-2.85-1.416h-13.886l-.171-1.167c-.327-2.185-2.24-3.833-4.45-3.833h-.416c-.828 0-1.5.671-1.5 1.5s.672 1.5 1.5 1.5h.416c.749 0 1.373.537 1.482 1.273l2.282 15.557c.147 1.004.846 1.799 1.822 2.074.948.273 1.986-.03 2.624-.805l3.492-4.1 1.965.328c-.361.647-.584 1.381-.584 2.173 0 2.481 2.019 4.5 4.5 4.5s4.5-2 4.5-4.5c0-1.832-1.104-3.406-2.679-4.107zm-12.82 2.99-.339-2.313c.077.017 2.008.354 2.008.354l-1.668 1.959zm.382-5.215c-.654-.109-1.242-.706-1.409-1.788l-.496-3.38h13.445c.249 0 .395.143.459.228.058.076.143.228.111.431l-2.663 6.084-9.447-1.576zm10.617 7.833c-.827 0-1.5-.673-1.5-1.5s.673-1.5 1.5-1.5 1.5.673 1.5 1.5-.673 1.5-1.5 1.5z"/></svg>