<svg id="Layer_1" enable-background="new 0 0 24 24" viewBox="0 0 24 24" xmlns="http://www.w3.org/2000/svg"><path d="m3 5.5c0-1.4 1.1-2.5 2.5-2.5h5c1.4 0 2.5 1.1 2.5 2.5v2c0 .8.7 1.5 1.5 1.5s1.5-.7 1.5-1.5v-2c0-3-2.5-5.5-5.5-5.5h-5c-3 0-5.5 2.5-5.5 5.5v13.5c0 2.8 2.2 5 5 5h6.1c0-.2-.1-.3-.1-.5v-1c0-1.7.7-3.3 1.9-4.5h-9.9zm2 9.3c0 .7.6 1.2 1.3 1 .6-.2 1.2-.5 1.7-.9.9.6 1.9 1.1 3 1.1.6 0 1.1-.1 1.5-.2 1.5-.4 2.5-1.8 2.5-3.3 0-1-.9-1.7-1.9-1.5-.7.2-1.1.9-1.1 1.6 0 .4.1.8.2 1.1-.6.3-1.1.3-1.2.3-.5 0-1-.2-1.5-.4.9-1.1 1.5-2.4 1.5-3.5 0-1.6-1.3-3-3-3s-3 1.3-3 3c0 1.1.6 2.4 1.5 3.5-.2.1-.5.3-.7.3-.5.1-.8.5-.8.9zm3-5.8c.5 0 1 .4 1 1s-.4 1.5-1 2.2c-.6-.8-1-1.6-1-2.2s.4-1 1-1zm15.3 8-5.7 5.7c-.8.8-1.9 1.3-3.1 1.3h-1c-.3 0-.5-.2-.5-.5v-1c0-1.1.5-2.3 1.3-3.1l5.8-5.8c1-1 2.5-.9 3.4.2.8 1 .6 2.4-.2 3.2z"/></svg>