<svg id="Layer_1" viewBox="0 0 24 24" xmlns="http://www.w3.org/2000/svg" data-name="Layer 1"><path d="m18.473 14.416-1.748-.655c-.472-1.037-1.512-1.761-2.725-1.761-1.657 0-3 1.343-3 3 0 .696.247 1.329.645 1.838-.802.953-2.052 2.181-3.049 2.181-.519 0-.856-.587-1.109-.794-.164-.134-.356-.195-.544-.195-.389 0-.763.264-.841.695-.49 2.691 1.206 5.275 4.277 5.275h3.968c1.662 0 3.661-1.143 3.661-3.6 0-1.289-1.021-2.771-1.693-3.514.056-.068.118-.13.168-.203l1.99-.746c.317-.119.527-.422.527-.76s-.21-.641-.527-.76zm-4.126 6.584h-2.779c.962-.646 1.782-1.497 2.394-2.237.385.346.994 1.284 1.047 1.637 0 .398-.223.6-.661.6zm9.653-17.5c0 .829-.672 1.5-1.5 1.5h-7.5v.5c0 .398-.158.779-.439 1.061l-1.061 1.061v.879c0 .829-.672 1.5-1.5 1.5s-1.5-.671-1.5-1.5v-.879l-1.061-1.061c-.281-.281-.439-.663-.439-1.061v-.5h-7.5c-.828 0-1.5-.671-1.5-1.5s.672-1.5 1.5-1.5h7.684c.414-1.161 1.514-2 2.816-2s2.402.839 2.816 2h7.684c.828 0 1.5.671 1.5 1.5z"/></svg>