<svg id="Layer_1" viewBox="0 0 24 24" xmlns="http://www.w3.org/2000/svg" data-name="Layer 1"><path d="m14 24.001h-4c-2.757 0-5-2.243-5-5v-3c0-2.757 2.243-5 5-5h2c2.159.048 4.072-1.883 4-4.036-.003-.277-.034-.559-.092-.841-.316-1.517-1.447-2.671-2.95-3.013-1.182-.268-2.358-.038-3.307.652-.936.68-1.532 1.728-1.635 2.873-.074.826-.806 1.433-1.629 1.359-.825-.075-1.434-.804-1.359-1.629.181-2.007 1.223-3.841 2.859-5.03 1.659-1.205 3.696-1.616 5.737-1.15 2.662.605 4.663 2.646 5.221 5.326.098.47.148.942.153 1.411.001.026.002 12.079.002 12.079 0 2.757-2.243 5-5 5zm-4-10c-1.103 0-2 .897-2 2v3c0 1.103.897 2 2 2h4c1.103 0 2-.897 2-2v-6.253c-1.16.809-2.548 1.253-4 1.253z"/></svg>