<svg id="Layer_1" viewBox="0 0 24 24" xmlns="http://www.w3.org/2000/svg" data-name="Layer 1"><path d="m14.782 19.669c.428.709.202 1.631-.507 2.06l-.413.25c-.574.348-1.218.522-1.862.522s-1.288-.174-1.862-.522l-9.408-5.696c-.709-.429-.935-1.351-.507-2.06.429-.709 1.353-.935 2.058-.507l9.407 5.696c.191.115.429.115.621 0l.413-.25c.707-.428 1.629-.202 2.058.506zm-2.782-12.669c-.828 0-1.499.672-1.499 1.5s.671 1.5 1.499 1.5 1.499-.672 1.499-1.5-.671-1.5-1.499-1.5zm11.993 2.011.014 4.989c0 .828-.671 1.5-1.499 1.5s-1.499-.672-1.499-1.5v-.5c0-.777-.847-1.257-1.514-.857-.301.181-.485.506-.485.857v5.5c0 .828-.671 1.5-1.499 1.5s-1.499-.672-1.499-1.5v-2.635c0-.648-.589-1.081-1.17-.979l-.98.593c-.574.348-1.218.522-1.862.522s-1.288-.174-1.862-.522l-9.408-5.696c-.448-.271-.723-.758-.723-1.283s.274-1.012.723-1.283l9.408-5.696c1.148-.696 2.577-.696 3.724 0l9.407 5.696c.449.271.723.758.723 1.283v.011zm-8.578 2.523c-.257-.269-.416-.632-.416-1.033 0-.828.671-1.5 1.499-1.5.66 0 1.213.429 1.414 1.021l1.687-1.021-7.288-4.413c-.191-.115-.429-.115-.621 0l-7.288 4.413 2.829 1.713c.264-.427.733-.713 1.271-.713.828 0 1.499.672 1.499 1.5 0 .279-.081.537-.214.761l1.902 1.152c.191.115.429.115.621 0l3.104-1.88z"/></svg>