<svg id="Layer_1" viewBox="0 0 24 24" xmlns="http://www.w3.org/2000/svg" data-name="Layer 1"><path d="m13.5 13c0 1.381-1.119 2.5-2.5 2.5s-2.5-1.119-2.5-2.5 1.119-2.5 2.5-2.5 2.5 1.119 2.5 2.5zm3.5 2c-1.105 0-2 .895-2 2s.895 2 2 2 2-.895 2-2-.895-2-2-2zm-10-10c-1.105 0-2 .895-2 2s.895 2 2 2 2-.895 2-2-.895-2-2-2zm17 12v2.748c0 1.421-.841 2.688-2.142 3.226-1.127.468-2.886 1.026-4.858 1.026-1.87 0-3.627-.729-4.95-2.051-.424-.423-.793-.905-1.096-1.433-.003-.005-.005-.01-.008-.015-4.121-.06-7.417-3.372-7.447-7.447-.534-.305-1.021-.676-1.45-1.105-1.321-1.321-2.049-3.079-2.049-4.949 0-1.97.558-3.729 1.026-4.859.539-1.301 1.805-2.141 3.226-2.141h2.748c1.87 0 3.627.729 4.95 2.051 1.069 1.068 1.749 2.43 1.964 3.936.011.077.052.131.125.163 1.702.756 3.056 2.11 3.812 3.812.032.073.085.113.162.124 1.506.215 2.867.895 3.937 1.965 1.322 1.321 2.05 3.079 2.05 4.949zm-3 0c0-1.068-.416-2.073-1.171-2.828-.607-.607-1.381-.993-2.239-1.115-1.103-.157-2.03-.859-2.481-1.879-.453-1.021-1.265-1.833-2.287-2.286-1.019-.453-1.721-1.381-1.877-2.481-.123-.857-.508-1.632-1.115-2.238-.756-.756-1.76-1.172-2.829-1.172h-2.748c-.204 0-.382.113-.455.289-.364.878-.797 2.234-.797 3.711 0 1.068.416 2.073 1.171 2.828.262.262.563.485.895.666.661.357 1.434 1.229 1.434 2.506 0 2.481 2.019 4.5 4.5 4.5 1.12 0 1.976.504 2.542 1.498.185.321.392.593.629.829.756.757 1.761 1.173 2.829 1.173 1.478 0 2.833-.434 3.709-.798.177-.073.291-.251.291-.454v-2.748z"/></svg>