<svg id="Layer_1" viewBox="0 0 24 24" xmlns="http://www.w3.org/2000/svg" data-name="Layer 1"><path d="m23.216 9.784c-.511-.511-1.228-.791-1.931-.781-2.083.041-3.699.681-4.804 1.902-1.428 1.578-1.533 3.663-1.46 4.81l-1.522 1.522v-7.012c.856-.724 2.413-2.341 2.526-4.601.083-1.666-.617-3.283-2.08-4.805-1-1.039-2.863-1.04-3.864 0-1.463 1.522-2.163 3.139-2.08 4.805.112 2.236 1.637 3.841 2.498 4.577v7.037l-1.522-1.522c.073-1.147-.032-3.231-1.46-4.81-1.104-1.221-2.721-1.861-4.804-1.902-.695-.032-1.419.27-1.93.78s-.795 1.214-.781 1.93c.041 2.083.681 3.7 1.902 4.804 1.356 1.228 3.09 1.478 4.278 1.478.313 0 .573-.019.794-.04l3.523 3.523v1.021c0 .829.671 1.5 1.5 1.5s1.5-.671 1.5-1.5v-1.021l3.523-3.523c.221.021.481.04.794.04 1.189 0 2.922-.25 4.278-1.478 1.221-1.104 1.861-2.721 1.902-4.804.015-.716-.27-1.419-.781-1.931zm-19.299 4.509c-.524-.474-.826-1.239-.899-2.275 1.037.073 1.801.375 2.275.899.518.572.68 1.405.705 2.08-.677-.024-1.509-.187-2.081-.704zm8.097-11.145c.711.812 1.053 1.593 1.016 2.325-.042.84-.558 1.561-1.016 2.042-.459-.481-.974-1.201-1.016-2.041-.037-.732.305-1.513 1.016-2.325zm8.068 11.145c-.572.518-1.405.68-2.08.705.024-.677.187-1.509.704-2.081.474-.524 1.238-.826 2.275-.899-.073 1.037-.375 1.801-.899 2.275z"/></svg>