<svg id="Layer_1" viewBox="0 0 24 24" xmlns="http://www.w3.org/2000/svg" data-name="Layer 1"><path d="m8 11.5c0 .828-.672 1.5-1.5 1.5s-1.5-.672-1.5-1.5.672-1.5 1.5-1.5 1.5.672 1.5 1.5zm-1.5 3.5c-.828 0-1.5.672-1.5 1.5s.672 1.5 1.5 1.5 1.5-.672 1.5-1.5-.672-1.5-1.5-1.5zm7.5 7.5c0 .829-.672 1.5-1.5 1.5h-7c-3.032 0-5.5-2.467-5.5-5.5v-17c0-.829.672-1.5 1.5-1.5s1.5.671 1.5 1.5v2.5h2v-2.5c0-.829.672-1.5 1.5-1.5s1.5.671 1.5 1.5v2.5h2v-2.5c0-.829.672-1.5 1.5-1.5s1.5.671 1.5 1.5v2.5h2v-2.5c0-.829.672-1.5 1.5-1.5s1.5.671 1.5 1.5v7.346c0 .695-.469 1.281-1.131 1.491-.843.267-1.63.694-2.322 1.266-.294.244-.652.397-1.035.397h-2.012c-.828 0-1.5-.671-1.5-1.5v-3.5h-7v11.5c0 1.378 1.121 2.5 2.5 2.5h7c.828 0 1.5.671 1.5 1.5zm-1-15.5v2h2v-2zm9.535 13.535-2.648 2.59c-.493.482-1.281.482-1.774 0l-2.648-2.59c-1.953-1.953-1.953-5.118 0-7.071.976-.976 2.256-1.465 3.536-1.464 1.28 0 2.559.488 3.535 1.464 1.953 1.953 1.953 5.118 0 7.071zm-2.035-3.482c0-.828-.672-1.5-1.5-1.5s-1.5.672-1.5 1.5.672 1.5 1.5 1.5 1.5-.672 1.5-1.5zm-9-2.054c-.828 0-1.5.672-1.5 1.5s.672 1.5 1.5 1.5c.199 0 .389-.041.563-.111-.037-.293-.063-.589-.063-.889 0-.616.086-1.217.24-1.798-.219-.125-.469-.202-.74-.202z"/></svg>