<svg id="Layer_1" viewBox="0 0 24 24" xmlns="http://www.w3.org/2000/svg" data-name="Layer 1"><path d="m23 15.092v-2.318c0-4.803-3.27-9.036-7.968-10.353-.734-.862-1.813-1.421-3.031-1.421s-2.297.559-3.032 1.42c-4.698 1.317-7.969 5.55-7.969 10.354v2.318c-.581.207-1 .756-1 1.408-.006.924.5 1.5 1.719 1.5l.962 1.374c1.589 2.271 4.192 3.626 6.963 3.626h4.711c2.771 0 5.375-1.355 6.963-3.625l.962-1.375c1.219 0 1.725-.576 1.719-1.5 0-.652-.419-1.202-1-1.408zm-15-9.023v5.431c0 .829.671 1.5 1.5 1.5s1.5-.671 1.5-1.5v-6.499c0-.552.449-1.001 1.001-1.001s.999.448.999.999v6.501c0 .829.671 1.5 1.5 1.5s1.5-.671 1.5-1.5v-5.431c2.418 1.367 4 3.892 4 6.705v2.226h-16v-2.226c0-2.813 1.582-5.338 4-6.705zm6.355 13.931h-4.711c-1.645 0-3.191-.744-4.23-2h13.172c-1.039 1.256-2.586 2-4.231 2z"/></svg>