<svg id="Layer_1" viewBox="0 0 24 24" xmlns="http://www.w3.org/2000/svg" data-name="Layer 1"><path d="m23.577 4.829-3.406-3.406c-.564-.564-1.479-.564-2.044 0-.997.997-1.317 2.405-.992 3.681-1.16.275-2.125 1.12-2.514 2.288l-.675 2.026-2.585-3.937c-1.021-1.554-2.739-2.481-4.598-2.481h-.264c-1.93 0-3.5 1.57-3.5 3.5v4.776c-1.742.621-3 2.271-3 4.224v2c0 1.208.86 2.217 2 2.449v.551c0 1.381 1.119 2.5 2.5 2.5s2.5-1.119 2.5-2.5v-.5h3v.5c0 1.381 1.119 2.5 2.5 2.5s2.5-1.119 2.5-2.5v-.551c1.14-.232 2-1.242 2-2.449v-2c0-.792-.223-1.526-.584-2.173-.051-.244-.233-.507-.373-.715l1.423-4.271c.068-.204.259-.342.475-.342h2.91c.987 0 1.974-.375 2.725-1.127.564-.564.564-1.479 0-2.044zm-17.077 1.171h.264c.845 0 1.626.422 2.09 1.128l2.542 3.872h-5.396v-4.5c0-.275.225-.5.5-.5zm-3.5 9.5c0-.827.673-1.5 1.5-1.5h8c.827 0 1.5.673 1.5 1.5v1.5h-11z"/></svg>