<svg id="Layer_1" viewBox="0 0 24 24" xmlns="http://www.w3.org/2000/svg" data-name="Layer 1"><path d="m19 16.5c0 .828-.672 1.5-1.5 1.5s-1.5-.672-1.5-1.5.672-1.5 1.5-1.5 1.5.672 1.5 1.5zm5-4v8c0 1.93-1.57 3.5-3.5 3.5h-15c-3.032 0-5.5-2.467-5.5-5.5v-9c-.019-2.965 2.442-5.512 5.5-5.5.828 0 1.5.671 1.5 1.5s-.672 1.5-1.5 1.5c-.817 0-1.544.394-2.001 1.002.465.621 1.197.998 2.001.998h3.5v-4.511c-.604-.456-1-1.173-1-1.989 0-1.381 1.119-2.5 2.5-2.5s2.5 1.119 2.5 2.5c0 .815-.396 1.532-1 1.989v4.511h3v-3.529c0-.941.368-1.825 1.037-2.487.67-.663 1.567-1.018 2.498-1.012l.992.01c.457-.592 1.166-.981 1.973-.981 1.381 0 2.5 1.119 2.5 2.5s-1.119 2.5-2.5 2.5c-.824 0-1.549-.404-2.005-1.019l-.99-.01h-.005c-.18 0-.297.09-.352.144-.056.055-.148.174-.148.355v3.529h2.5c1.93 0 3.5 1.57 3.5 3.5zm-3 0c0-.276-.225-.5-.5-.5h-15c-.892 0-1.743-.211-2.5-.596v7.096c0 1.378 1.121 2.5 2.5 2.5h15c.275 0 .5-.224.5-.5z"/></svg>