<svg id="Layer_1" viewBox="0 0 24 24" xmlns="http://www.w3.org/2000/svg" data-name="Layer 1"><path d="m12.218 3.184c-.397-.217-.87-.242-1.289-.071-.418.172-.736.523-.866.957-.37 1.231-1.654 3.931-3.063 3.931-1.385 0-2.526-1.159-3.239-2.131-.535-.729-1.47-1.027-2.326-.749-.858.281-1.435 1.077-1.435 1.981v6.398c0 1.704.779 3.229 2 4.239v1.761c0 .828.671 1.5 1.5 1.5s1.5-.672 1.5-1.5v-.525c.165.015.331.025.5.025h1.5v.5c0 .828.671 1.5 1.5 1.5s1.5-.672 1.5-1.5v-.5h4v.5c0 .828.671 1.5 1.5 1.5s1.5-.672 1.5-1.5v-.5h2v.5c0 .828.671 1.5 1.5 1.5s1.5-.672 1.5-1.5v-1.262c1.205-.808 2-2.182 2-3.738v-.5c0-4.075-9.018-9.31-11.782-10.816zm-9.218 10.316v-4.061c1.228 1.027 2.583 1.561 4 1.561 2.729 0 4.411-2.536 5.264-4.345.839.492 1.648.997 2.418 1.503l-1.484 2.597c-.411.72-.161 1.636.558 2.047.707.406 1.633.167 2.046-.559l1.345-2.354c2.319 1.752 3.853 3.322 3.853 4.11v.5c0 .827-.673 1.5-1.5 1.5h-14c-1.378 0-2.5-1.121-2.5-2.5z"/></svg>