<svg id="Layer_1" viewBox="0 0 24 24" xmlns="http://www.w3.org/2000/svg" data-name="Layer 1"><path d="m11 22.5c0 .829-.671 1.5-1.5 1.5h-4.181c-1.575 0-3.059-.691-4.072-1.897s-1.438-2.787-1.166-4.337l2.338-13.364c.446-2.551 2.649-4.402 5.238-4.402h8.673c2.588 0 4.79 1.85 5.237 4.397l.765 4.342c.144.816-.401 1.594-1.218 1.737-.808.144-1.594-.401-1.737-1.217l-.765-4.343c-.194-1.111-1.154-1.917-2.282-1.917h-8.673c-1.129 0-2.089.807-2.283 1.918l-2.338 13.364c-.118.676.067 1.365.509 1.891.441.525 1.088.827 1.775.827h4.181c.829 0 1.5.671 1.5 1.5zm2.5-17c0-.829-.671-1.5-1.5-1.5s-1.5.671-1.5 1.5v1c0 .829.671 1.5 1.5 1.5s1.5-.671 1.5-1.5zm10.5 12.5c0 3.314-2.686 6-6 6s-6-2.686-6-6 2.686-6 6-6 6 2.686 6 6zm-2.288-1.702c-.383-.399-1.017-.41-1.414-.029l-2.713 2.624c-.143.141-.379.144-.522.002l-1.354-1.331c-.396-.388-1.028-.381-1.414.014-.387.395-.381 1.027.014 1.414l1.354 1.332c.46.449 1.062.674 1.663.674s1.201-.225 1.653-.671l2.703-2.614c.398-.383.411-1.016.029-1.414zm-9.712-3.298c.828 0 1.5-.672 1.5-1.5s-.672-1.5-1.5-1.5-1.5.672-1.5 1.5.672 1.5 1.5 1.5z"/></svg>