<svg id="Layer_1" viewBox="0 0 24 24" xmlns="http://www.w3.org/2000/svg" data-name="Layer 1"><path d="m19 17.5c0 .828-.672 1.5-1.5 1.5s-1.5-.672-1.5-1.5.672-1.5 1.5-1.5 1.5.672 1.5 1.5zm-6.5-1.5c-.828 0-1.5.672-1.5 1.5s.672 1.5 1.5 1.5 1.5-.672 1.5-1.5-.672-1.5-1.5-1.5zm11.5-8.5v11c0 3.032-2.467 5.5-5.5 5.5h-13c-3.033 0-5.5-2.468-5.5-5.5v-14c0-2.481 2.019-4.5 4.5-4.5 1.557 0 2.93.795 3.738 2h10.262c3.033 0 5.5 2.468 5.5 5.5zm-21 7c0 .827.673 1.5 1.5 1.5s1.5-.673 1.5-1.5v-10c0-.827-.673-1.5-1.5-1.5s-1.5.673-1.5 1.5zm18-7c0-1.379-1.122-2.5-2.5-2.5h-9.5v9.5c0 2.481-2.019 4.5-4.5 4.5-.52 0-1.012-.106-1.477-.269.119 1.269 1.177 2.269 2.477 2.269h13c1.378 0 2.5-1.121 2.5-2.5zm-3.5-.5h-5c-.828 0-1.5.672-1.5 1.5v4c-.002.847.705 1.527 1.55 1.5.232-1.141 1.24-2 2.45-2s2.218.859 2.45 2c.846.027 1.552-.653 1.55-1.5v-4c0-.828-.672-1.5-1.5-1.5zm-2.5 4c-.828 0-1.5-.672-1.5-1.5s.672-1.5 1.5-1.5 1.5.672 1.5 1.5-.672 1.5-1.5 1.5z"/></svg>