<svg id="Layer_1" viewBox="0 0 24 24" xmlns="http://www.w3.org/2000/svg" data-name="Layer 1"><path d="m8.992 12c3.309 0 6-2.691 6-6s-2.692-6-6-6-6 2.691-6 6 2.691 6 6 6zm0-9c1.654 0 3 1.346 3 3s-1.346 3-3 3-3-1.346-3-3 1.346-3 3-3zm13.804 15.531c-.379-.9-1.268-1.531-2.305-1.531h-6c-1.381 0-2.5 1.119-2.5 2.5v2c0 1.381 1.119 2.5 2.5 2.5h6c1.037 0 1.926-.632 2.305-1.531.682-.141 1.195-.745 1.195-1.469v-1c0-.724-.513-1.328-1.195-1.469zm-1.805 2.969c0 .276-.224.5-.5.5h-4.5v-3h4.5c.276 0 .5.224.5.5zm-11.003-6.082c.055.827-.572 1.541-1.398 1.596-2.988.196-5.389 2.597-5.585 5.585-.051.828-.778 1.454-1.595 1.398-.827-.055-1.453-.769-1.398-1.596.294-4.483 3.898-8.087 8.381-8.382.828-.048 1.541.572 1.595 1.398zm5.504-1.918c1.067 0 .415-2.956 1.5-5.385.298-.667 1.171-.825 1.687-.309 2.163 2.167 5.313 4.689 5.313 7.923 0 .123-.004.574-.011.964-.825-1.024-2.074-1.693-3.489-1.693h-6c-.912 0-1.758.277-2.468.744.13-1.579.649-2.656 1.063-3.335.348-.57 1.221-.513 1.471.106.212.525.517.984.934.984z"/></svg>