<svg id="Layer_1" viewBox="0 0 24 24" xmlns="http://www.w3.org/2000/svg" data-name="Layer 1"><path d="m11 11.376c0-.307-.219-.565-.522-.616l-3.285-.547c-1.271-.212-2.193-1.301-2.193-2.589 0-1.447 1.177-2.624 2.624-2.624h.376c0-.553.448-1 1-1s1 .447 1 1h.247c1.106 0 2.114.582 2.629 1.518.267.484.09 1.092-.394 1.358-.482.267-1.092.091-1.358-.394-.167-.302-.494-.482-.877-.482h-2.623c-.344 0-.624.28-.624.624 0 .307.219.565.522.616l3.285.547c1.271.212 2.193 1.301 2.193 2.589 0 1.447-1.177 2.624-2.624 2.624h-.376c0 .553-.448 1-1 1s-1-.447-1-1h-.278c-1.048 0-2.038-.571-2.582-1.49-.282-.476-.125-1.089.351-1.37s1.089-.125 1.37.351c.186.314.516.51.861.51h2.654c.344 0 .624-.28.624-.624zm-1.258 9.814-3.497-1.998c-.434-.247-.965-.263-1.416-.039l-1.829.915v-15.068c0-1.102.897-1.999 1.996-2h8.157c.494 0 .955.192 1.303.541.349.35.543.814.543 1.31v3.649c0 .828.67 1.5 1.498 1.5.828 0 1.5-.671 1.5-1.5v-3.649c.001-1.295-.502-2.513-1.416-3.429-.913-.917-2.131-1.422-3.428-1.422h-8.158c-2.754.003-4.995 2.246-4.995 5v17.496c-.018.806.5 1.5 1.5 1.5.23 0 .46-.053.672-.158l3.281-1.642 2.8 1.6c.719.41 1.636.16 2.047-.559s.161-1.636-.558-2.047zm14.258-3.19c0 3.314-2.686 6-6 6s-6-2.686-6-6 2.686-6 6-6 6 2.686 6 6zm-2.288-1.702c-.383-.399-1.017-.41-1.414-.029l-2.713 2.624c-.143.141-.379.144-.522.002l-1.354-1.331c-.396-.388-1.028-.381-1.414.014-.387.395-.381 1.027.014 1.414l1.354 1.332c.46.449 1.062.674 1.663.674s1.201-.225 1.653-.671l2.703-2.614c.398-.383.411-1.016.029-1.414z"/></svg>