<svg id="Layer_1" viewBox="0 0 24 24" xmlns="http://www.w3.org/2000/svg" data-name="Layer 1"><path d="m11.293 12.707c-.391-.39-.391-1.024 0-1.414l.782-.799c-.176-.666-.011-1.403.511-1.925l4.293-4.293-.576-.576c-.42-.42-.42-1.101 0-1.521.315-.315.798-.457 1.203-.271.697.319 1.548.191 2.122-.383l.88-.88c.705-.705 1.839-.877 2.648-.295 1.03.741 1.116 2.188.257 3.046l-.957.957c-.574.574-.701 1.425-.383 2.122.185.405.044.888-.271 1.203-.42.42-1.101.42-1.521 0l-.576-.576-4.293 4.293c-.39.391-.902.586-1.414.586-.172 0-.343-.031-.511-.075l-.782.799c-.391.391-1.024.391-1.414 0zm10.295-2.567c-.57-.6-1.52-.625-2.121-.054s-.625 1.52-.054 2.121c.409.43.783.9 1.15 1.455.576.825.568 1.863-.04 2.738-1.884 2.848-5.076 4.568-8.509 4.601-3.479-.032-6.688-1.766-8.604-4.665-.574-.825-.566-1.861.04-2.733 1.318-1.995 3.319-3.473 5.632-4.164.794-.237 1.245-1.073 1.008-1.867s-1.073-1.245-1.867-1.008c-2.987.892-5.571 2.804-7.257 5.355-1.3 1.871-1.308 4.276-.039 6.101 2.447 3.703 6.582 5.939 11.087 5.981 4.459-.042 8.576-2.265 10.991-5.917 1.304-1.873 1.311-4.282.02-6.137-.425-.642-.908-1.249-1.438-1.806zm-7.451 3.965c-.594.595-1.369.891-2.142.891-.768 0-1.532-.292-2.115-.875-.488-.487-.773-1.117-.847-1.794-.642.71-1.044 1.641-1.044 2.673 0 2.209 1.791 4 4 4s4-1.791 4-4c0-.498-.102-.97-.269-1.41-.453.216-.943.351-1.454.385l-.129.131z"/></svg>