<?xml version="1.0" encoding="UTF-8"?>
<svg xmlns="http://www.w3.org/2000/svg" id="Layer_1" data-name="Layer 1" viewBox="0 0 24 24">
  <path d="M18.5,0H5.5C2.467,0,0,2.467,0,5.5v13c0,3.033,2.467,5.5,5.5,5.5h13c3.033,0,5.5-2.467,5.5-5.5V5.5c0-3.033-2.467-5.5-5.5-5.5Zm2.5,18.5c0,1.378-1.122,2.5-2.5,2.5H5.5c-1.378,0-2.5-1.122-2.5-2.5V5.5c0-1.378,1.122-2.5,2.5-2.5h13c1.378,0,2.5,1.122,2.5,2.5v13ZM10,6.5c0-1.381,1.119-2.5,2.5-2.5s2.5,1.119,2.5,2.5-1.119,2.5-2.5,2.5-2.5-1.119-2.5-2.5Zm8.865,5.811l-1.431,4.645c-.41,1.239-1.557,2.048-2.82,2.046-.591,0-1.173-.18-1.678-.528l-3.546-2.767-1.618,2.588c-.439,.703-1.365,.917-2.067,.477-.703-.439-.916-1.364-.477-2.067l2.5-4c.442-.743,1.526-.936,2.195-.387l2.884,2.252,1.327-3.879c.448-1.305,1.872-2.001,3.176-1.555,1.304,.447,2.001,1.872,1.554,3.176Z"/>
</svg>
