<svg id="Layer_1" viewBox="0 0 24 24" xmlns="http://www.w3.org/2000/svg" data-name="Layer 1"><path d="m3.572 17.55c.277.587.186 1.278-.273 1.737-.721.721-1.959.54-2.404-.378-.573-1.182-.895-2.507-.895-3.908 0-3.532 2.038-6.582 5-8.054v-2.446c0-.276-.224-.5-.5-.5h-.011c-.456.604-1.173 1-1.989 1-1.381-.001-2.5-1.12-2.5-2.501s1.119-2.5 2.5-2.5c.815 0 1.532.396 1.989 1h.011c1.93 0 3.5 1.57 3.5 3.5v3.439c0 .648-.423 1.202-1.033 1.421-2.313.832-3.967 3.04-3.967 5.64 0 .913.206 1.776.572 2.55zm7.454-8.192c1.681.603 3.013 1.935 3.616 3.616.218.607.772 1.026 1.417 1.026 1.028 0 1.771-1.016 1.43-1.986-.779-2.215-2.41-4.013-4.489-5.05v-2.464c0-.276.225-.5.5-.5h2.011c.456.604 1.173 1 1.989 1 1.381 0 2.5-1.119 2.5-2.5s-1.119-2.5-2.5-2.5c-.815 0-1.532.396-1.989 1h-2.011c-1.93 0-3.5 1.57-3.5 3.5v3.441c0 .645.419 1.199 1.026 1.417zm12.974 2.142c0-1.381-1.119-2.5-2.5-2.5s-2.5 1.119-2.5 2.5c0 .815.396 1.532 1 1.989v2.011c0 .276-.225.5-.5.5h-3.439c-.648 0-1.202.423-1.421 1.033-.832 2.313-3.04 3.967-5.64 3.967-.913 0-1.776-.206-2.55-.572-.587-.277-1.278-.186-1.737.273-.721.721-.54 1.959.379 2.404 1.182.573 2.507.895 3.908.895 3.532 0 6.582-2.038 8.054-5h2.446c1.93 0 3.5-1.57 3.5-3.5v-2.011c.604-.456 1-1.173 1-1.989zm-15-.5c2.206 0 4 1.794 4 4s-1.794 4-4 4-4-1.794-4-4 1.794-4 4-4zm-1 4c0 .551.449 1 1 1s1-.449 1-1-.449-1-1-1-1 .449-1 1z"/></svg>