<svg id="Layer_1" viewBox="0 0 24 24" xmlns="http://www.w3.org/2000/svg" data-name="Layer 1"><path d="m17 4.5c0-1.93 1.57-3.5 3.5-3.5s3.5 1.57 3.5 3.5-1.57 3.5-3.5 3.5-3.5-1.57-3.5-3.5zm5.5 4.5c-.829 0-1.5.671-1.5 1.5v7c0 1.381-1.119 2.5-2.5 2.5h-13c-1.381 0-2.5-1.119-2.5-2.5v-9.5h13.257c-.779-.943-1.249-2.15-1.257-3.466-.005-.842-.658-1.534-1.5-1.534h-.948c-.179-.018-.25-.035-.326-.053l-3.156-1.579c-.485-.242-1.019-.369-1.561-.369h-2.009c-3.038.001-5.5 2.463-5.5 5.501v11c0 3.038 2.462 5.5 5.5 5.5h13c3.038 0 5.5-2.462 5.5-5.5v-7c0-.829-.671-1.5-1.5-1.5z"/></svg>