<svg id="Layer_1" viewBox="0 0 24 24" xmlns="http://www.w3.org/2000/svg" data-name="Layer 1"><path d="m14.939 7.061c-.586-.585-.586-1.536 0-2.121l.5-.5c.586-.586 1.535-.586 2.121 0 .586.585.586 1.536 0 2.121l-.5.5c-.586.586-1.535.586-2.121 0zm-8.5-2.622c-.586.585-.586 1.536 0 2.121l.5.5c.586.586 1.535.586 2.121 0 .586-.585.586-1.536 0-2.121l-.5-.5c-.586-.586-1.535-.586-2.121 0zm5.561 1.561c.828 0 1.5-.671 1.5-1.5v-1c0-.829-.672-1.5-1.5-1.5s-1.5.671-1.5 1.5v1c0 .829.672 1.5 1.5 1.5zm12 13v.5c0 2.481-2.019 4.5-4.5 4.5h-15c-2.481 0-4.5-2.019-4.5-4.5v-.5c0-.883.391-1.67 1-2.22v-11.28c0-3.033 2.467-5.5 5.5-5.5.829 0 1.5.671 1.5 1.5s-.671 1.5-1.5 1.5c-1.378 0-2.5 1.122-2.5 2.5v10.5h3.1c-.066-.326-.1-.66-.1-1 0-2.188 1.423-4.033 3.385-4.709l-.623-1.024c-.313-.514-.251-1.173.153-1.62l.181-.2c.258-.285.624-.448 1.009-.448h1.814c.372 0 .728.153.985.422l.213.223c.424.445.497 1.12.177 1.645l-.62 1.018c1.933.692 3.328 2.523 3.328 4.691 0 .34-.034.674-.1 1h3.1v-10.498c0-1.378-1.121-2.5-2.5-2.5-.828 0-1.5-.671-1.5-1.5s.672-1.5 1.5-1.5c3.032 0 5.5 2.467 5.5 5.5v11.28c.609.549 1 1.337 1 2.22zm-13.72-3h3.44c.178-.302.28-.642.28-1 0-1.103-.897-2-2-2s-2 .897-2 2c0 .358.103.698.28 1zm10.72 3h-18v.5c0 .827.673 1.5 1.5 1.5h15c.827 0 1.5-.673 1.5-1.5z"/></svg>