<svg id="Layer_1" viewBox="0 0 24 24" xmlns="http://www.w3.org/2000/svg" data-name="Layer 1"><path d="m13.817 17.066c-.388.732-1.293 1.012-2.027.625-.867-.459-1.809-.691-2.799-.691-3.15 0-5.78 2.459-5.987 5.599-.052.829-.778 1.454-1.595 1.398-.827-.055-1.453-.769-1.398-1.596.31-4.711 4.254-8.401 8.98-8.401 1.463 0 2.916.359 4.201 1.039.732.388 1.012 1.295.624 2.027zm1.174-11.066c0 3.309-2.691 6-6 6s-6-2.691-6-6 2.692-6 6.001-6 6 2.691 6 6zm-2.999 0c0-1.654-1.346-3-3-3s-3 1.346-3 3 1.346 3 3 3 3-1.346 3-3zm9.684 11.266-3.04-.506c-.373-.062-.644-.382-.644-.761 0-.552.449-1 1-1h2.268c.356 0 .688.191.867.501.277.479.89.643 1.366.364.479-.276.642-.888.365-1.366-.535-.925-1.531-1.499-2.598-1.499h-.268c0-.553-.448-1-1-1s-1 .447-1 1c-1.654 0-3 1.346-3 3 0 1.359.974 2.51 2.315 2.733l3.04.506c.373.062.644.382.644.761 0 .552-.449 1-1 1h-2.268c-.356 0-.688-.191-.867-.501-.277-.479-.89-.642-1.366-.364-.479.276-.642.888-.365 1.366.535.925 1.531 1.499 2.598 1.499h.268c0 .553.448 1 1 1s1-.447 1-1c1.654 0 3-1.346 3-3 0-1.359-.974-2.51-2.315-2.733zm-4.343-10.266h1.158v1.5c0 .828.671 1.5 1.5 1.5s1.5-.672 1.5-1.5v-1.5h1.158c.749 0 1.123-.905.594-1.434l-2.658-2.658c-.328-.328-.86-.328-1.188 0l-2.658 2.658c-.529.529-.154 1.434.594 1.434z"/></svg>