<svg id="Layer_1" viewBox="0 0 24 24" xmlns="http://www.w3.org/2000/svg" data-name="Layer 1"><path d="m23.797 21.316c.416.716.173 1.634-.543 2.05-.682.396-1.461.605-2.254.605-.983 0-1.977-.321-2.796-.903-.131-.093-.279-.093-.406 0-1.643 1.166-3.954 1.165-5.594 0-.13-.093-.278-.092-.407 0-1.639 1.165-3.955 1.165-5.594 0-.129-.092-.277-.092-.406 0-1.478 1.052-3.52 1.187-5.05.298-.716-.416-.96-1.333-.544-2.05.416-.716 1.334-.961 2.05-.544.536.311 1.263.236 1.806-.149 1.162-.825 2.722-.825 3.883 0 .623.443 1.494.443 2.117 0 1.162-.825 2.721-.825 3.883 0 .623.443 1.493.444 2.118 0 1.16-.825 2.721-.826 3.883 0 .537.383 1.274.458 1.804.149.717-.416 1.635-.173 2.051.543zm.203-8.427v3.611c0 .829-.672 1.5-1.5 1.5s-1.5-.671-1.5-1.5v-3.611c0-.515-.255-.995-.682-1.282l-4.952-3.342c-.526-.354-1.205-.355-1.731 0l-4.953 3.342c-.427.288-.682.767-.682 1.282v3.611c0 .829-.671 1.5-1.5 1.5-.664 0-1.22-.434-1.418-1.031-.177.019-.355.029-.53.029-2.032 0-3.828-1.303-4.375-3.236-.312-1.104-.206-2.261.298-3.261-.312-.647-.477-1.325-.476-2.001 0-1.461.718-2.835 1.921-3.675.073-.051.082-.162.08-.223-.015-.613.099-1.225.339-1.817.524-1.289 1.624-2.27 2.946-2.624.799-.214 1.63-.214 2.43 0 1.321.354 2.422 1.334 2.944 2.623.303.64.3 1.369.379 2.013.379.259.714.577.997.936 1.533-.991 3.489-.981 5.008.046l4.952 3.342c1.255.846 2.004 2.255 2.004 3.769zm-14.489-5.461c-.055-.051-.101-.111-.163-.153-.87-.593-1.374-1.619-1.349-2.742.026-.636-.438-1.321-1.06-1.474-.295-.079-.584-.079-.878 0-.621.153-1.086.837-1.061 1.473.026 1.11-.483 2.139-1.361 2.752-.406.284-.639.727-.639 1.216 0 .217.055.438.167.675.658 1.385.185 2.296.006 2.639-.188.372-.22.742-.109 1.133.19.67.912 1.125 1.666 1.042l.27-.027v-1.073c0-1.514.749-2.922 2.004-3.769zm5.989 10.572c.828 0 1.5-.672 1.5-1.5v-2c0-.828-.672-1.5-1.5-1.5h-2c-.828 0-1.5.672-1.5 1.5v2c0 .828.672 1.5 1.5 1.5z"/></svg>