<svg id="Layer_1" viewBox="0 0 24 24" xmlns="http://www.w3.org/2000/svg" data-name="Layer 1"><path d="m17.418 5.826c.399.286.939.241 1.288-.107.351-.351.391-.912.092-1.306-.5-.659-.369-1.598.291-2.097.66-.498 1.601-.369 2.101.291 1.197 1.58 1.041 3.828-.364 5.23-.778.776-1.799 1.174-2.827 1.174-.812 0-1.628-.248-2.333-.753-.673-.482-.826-1.418-.343-2.09s1.419-.826 2.093-.342zm6.407 9.635c-.678 2.319-1.937 4.476-3.546 6.075-1.591 1.581-3.834 2.488-6.156 2.488h-4.245c-2.322 0-4.566-.907-6.156-2.488-1.609-1.599-2.868-3.756-3.546-6.075-.382-1.305-.133-2.676.682-3.761.336-.448.75-.811 1.211-1.089-.039-.241-.067-.484-.067-.732 0-1.535.78-2.955 2.021-3.802.031-.328.109-.64.207-.944-.317-.165-.704-.159-1.01.044-.692.456-1.621.267-2.078-.423-.456-.69-.267-1.618.424-2.075 1.381-.911 3.176-.86 4.499.064.642-.415 1.394-.676 2.204-.718.816-1.231 2.202-2.002 3.731-2.002s2.925.776 3.741 2.016c.713.115 1.258.733 1.258 1.478 0 .827-.671 1.497-1.5 1.497-.841.214-1.806-.044-2.086-.957-.202-.622-.77-1.039-1.413-1.039s-1.211.418-1.413 1.039c-.24.735-.998 1.171-1.756.998-.999-.257-2.005.669-1.802 1.68.109.703-.294 1.385-.962 1.633-.661.244-1.153.937-1.043 1.636h4.118c-.084-.324-.141-.655-.141-.998 0-1.066.416-2.069 1.172-2.823.586-.584 1.535-.584 2.121 0 .585.585.585 1.533 0 2.117-.189.188-.293.439-.293.705-.011.536.463 1.009 1 .998h6.747c1.349 0 2.587.618 3.397 1.695.815 1.085 1.063 2.456.682 3.761zm-3.082-1.965c-.14-.186-.455-.497-.996-.497h-2.889c.084.321.142.651.142.998v2.495c0 .827-.671 1.497-1.5 1.497s-1.5-.67-1.5-1.497v-2.495c0-.55-.449-.998-1-.998s-1 .448-1 .998v.499c0 .827-.671 1.497-1.5 1.497s-1.5-.67-1.5-1.497v-.499c0-.347.058-.677.142-.998h-4.889c-.542 0-.857.311-.996.497-.243.324-.317.734-.202 1.126.539 1.842 1.527 3.544 2.783 4.792 1.033 1.027 2.505 1.615 4.04 1.615h4.245c1.534 0 3.007-.589 4.04-1.615 1.256-1.249 2.245-2.95 2.783-4.792.115-.392.041-.802-.202-1.126z"/></svg>