<svg id="Layer_1" viewBox="0 0 24 24" xmlns="http://www.w3.org/2000/svg" data-name="Layer 1"><path d="m13.024 10.821c.729-.392 1.003-1.302.61-2.031-.516-.96-1.1-1.745-1.59-2.321l.833-2.778c.263-.876.101-1.801-.445-2.535s-1.385-1.155-2.3-1.155h-5.265c-.915 0-1.753.421-2.3 1.155-.546.734-.708 1.659-.445 2.535l.833 2.777c-1.194 1.405-2.955 4.066-2.955 7.532v4.526c.014 3.019 2.473 5.474 5.481 5.474h3.519c.829 0 1.5-.672 1.5-1.5s-.671-1.5-1.5-1.5h-3.519c-1.362 0-2.475-1.116-2.481-2.48v-4.52c0-2.922 1.815-5.16 2.61-6h3.78c.399.42 1.051 1.188 1.602 2.21.391.729 1.3 1.002 2.031.61zm-3.071-7.821-.6 2h-3.707l-.6-2h4.906zm11.547 10h-7c-1.378 0-2.5 1.121-2.5 2.5v4c0 2.481 2.019 4.5 4.5 4.5h3c2.481 0 4.5-2.019 4.5-4.5v-4c0-1.379-1.122-2.5-2.5-2.5zm-.5 6.5c0 .827-.673 1.5-1.5 1.5h-3c-.827 0-1.5-.673-1.5-1.5v-3.5h6z"/></svg>