<svg id="Layer_1" viewBox="0 0 24 24" xmlns="http://www.w3.org/2000/svg" data-name="Layer 1"><path d="m22.732 9.013c-1.517-1.437-4.113-1.317-5.487.257l-2.438 2.679c-.646-.589-1.507-.949-2.449-.949h-7.858c-2.481 0-4.5 2.019-4.5 4.5v4c0 2.481 2.019 4.5 4.5 4.5h5.414c3.03 0 5.912-1.309 7.905-3.589l5.197-5.943c1.409-1.581 1.282-4.028-.283-5.455zm-1.966 3.47-5.206 5.954c-1.425 1.629-3.482 2.563-5.647 2.563h-5.413c-.827 0-1.5-.673-1.5-1.5v-4c0-.827.673-1.5 1.5-1.5h7.858c.354 0 .642.288.642.643 0 .317-.237.591-.551.635l-5.161.737c-.82.117-1.39.877-1.273 1.697s.879 1.383 1.697 1.273l5.16-.737c1.619-.231 2.877-1.53 3.095-3.116l3.497-3.843c.313-.358.901-.385 1.248-.059.356.325.385.882.055 1.252zm-15.052-3.482h5.571c.947 0 1.714-.768 1.714-1.714v-3.693c0-.57-.283-1.102-.755-1.421l-2.785-1.88c-.579-.391-1.338-.391-1.918 0l-2.786 1.88c-.472.319-.755.851-.755 1.421v3.692c0 .947.768 1.714 1.714 1.714zm1.786-4c0-.276.224-.5.5-.5h1c.276 0 .5.224.5.5v1c0 .276-.224.5-.5.5h-1c-.276 0-.5-.224-.5-.5z"/></svg>