<?xml version="1.0" encoding="UTF-8"?>
<svg xmlns="http://www.w3.org/2000/svg" id="Layer_1" data-name="Layer 1" viewBox="0 0 24 24">
  <path d="M7,2.5c0-1.381,1.119-2.5,2.5-2.5s2.5,1.119,2.5,2.5-1.119,2.5-2.5,2.5-2.5-1.119-2.5-2.5ZM24,12.763c0-3.666-3.206-6.763-7-6.763h-1.5c-.828,0-1.5,.671-1.5,1.5s.672,1.5,1.5,1.5h1.5c2.131,0,4,1.758,4,3.763,0,1.669-1.319,3.152-3,3.592v-.976c0-.764-.907-1.163-1.471-.648l-2.74,2.507c-.449,.403-.449,1.107,0,1.51l2.756,2.522c.557,.51,1.455,.115,1.455-.641v-1.21c3.34-.484,6-3.331,6-6.656Zm-13.352-.613c.073,.152,.172,.291,.292,.411l1.5,1.5c.586,.586,1.535,.586,2.121,0,.586-.585,.586-1.536,0-2.121l-1.319-1.32-1.358-2.819c-.495-.893-1.352-1.506-2.328-1.716-.349-.13-.799-.071-1.169-.085-.75,0-1.49,.12-2.202,.357l-3.186,1.062c-.742,.248-1.333,.838-1.58,1.581l-.842,2.526c-.262,.786,.163,1.635,.949,1.897,.786,.264,1.636-.162,1.897-.949l.763-2.289,1.603-.534-.756,3.232c-.304,1.298,.144,2.634,1.168,3.486l2.8,2.333v3.797c0,.829,.671,1.5,1.5,1.5s1.5-.671,1.5-1.5v-4.032c0-.744-.328-1.444-.9-1.92l-1.633-1.36,.865-3.695,.316,.658Zm-4.747,5.905c-.795-.219-1.625,.246-1.847,1.044l-.833,3c-.222,.798,.246,1.625,1.044,1.847,.777,.222,1.627-.239,1.847-1.044l.833-3c.222-.798-.246-1.625-1.044-1.847Z"/>
</svg>
