<svg id="Layer_1" viewBox="0 0 24 24" xmlns="http://www.w3.org/2000/svg" data-name="Layer 1"><path d="m18.431 12h-6.431v-6.431c0-.719-.31-1.404-.85-1.881-.538-.475-1.255-.698-1.961-.607-5.386.672-9.335 5.279-9.185 10.716.147 5.575 4.996 10.203 10.499 10.203 5.306 0 9.756-3.902 10.416-9.188.089-.709-.132-1.424-.607-1.962-.477-.54-1.162-.85-1.881-.85zm-9.431 8.845c-3.314-.696-5.901-3.661-5.997-7.131-.044-1.606.411-3.11 1.233-4.356l4.764 4.764v6.724zm0-10.966-2.643-2.644c.784-.517 1.676-.892 2.643-1.086v3.729zm3 10.973v-5.852h5.851c-.6 2.991-2.928 5.265-5.851 5.852zm7-16.56-3.92-2.24 2.742-1.714c.721-.45 1.635-.45 2.356 0l2.742 1.714zm-5 2.893v-3.47l4 2.307v4.908l-2.956-1.86c-.65-.406-1.044-1.118-1.044-1.884zm10-3.454v3.454c0 .766-.395 1.478-1.044 1.884l-2.956 1.843v-4.887z"/></svg>