<svg id="Layer_1" viewBox="0 0 24 24" xmlns="http://www.w3.org/2000/svg" data-name="Layer 1"><path d="m18 7.5c-.828 0-1.5-.672-1.5-1.5s.672-1.5 1.5-1.5 1.5.672 1.5 1.5-.672 1.5-1.5 1.5zm-1.5 4c0 .829.672 1.5 1.5 1.5s1.5-.671 1.5-1.5v-1c0-.829-.672-1.5-1.5-1.5s-1.5.671-1.5 1.5zm.773-11.457c-2.618.31-4.788 2.389-5.197 4.993-.266 1.697.186 3.287 1.097 4.518.581.784 1.827.38 1.827-.596v-2.84c0-1.451.978-2.784 2.402-3.06 1.915-.372 3.598 1.092 3.598 2.942v2.965c0 .946 1.217 1.395 1.788.641.76-1.004 1.212-2.252 1.212-3.606 0-3.548-3.095-6.386-6.727-5.957zm-11.521 10.625c.296-.445.8-.701 1.341-.665.534.033 1.009.348 1.249.826l1.844 3.688.566-.849c.278-.417.747-.668 1.248-.668h2.13c-2.29-1.269-3.886-3.627-4.099-6.376-1.069-1.016-2.486-1.61-3.986-1.624-3.462.138-6.162 3.048-6.041 6.511 0 .493.064.99.178 1.489h4.016l1.555-2.332zm5.496 7.664c-.279.419-.749.668-1.248.668-.581 0-1.103-.351-1.342-.829l-1.844-3.688-.566.849c-.278.417-.747.668-1.248.668h-3.558c1.528 2.577 4.027 5.02 6.26 6.889 1.761 1.481 4.333 1.481 6.094 0 2.23-1.869 4.73-4.312 6.259-6.889h-7.252z"/></svg>