<svg id="Layer_1" viewBox="0 0 24 24" xmlns="http://www.w3.org/2000/svg" data-name="Layer 1"><path d="m15.226 15.832c.398.593.35 1.408-.155 1.912l-5.871 5.865c-.742.733-2.057.383-2.239-.644-.068-.422-.265-.798-.553-1.082-.283-.28-.653-.473-1.073-.543-.6-.1-1.176-.341-1.742-.907s-.833-1.168-.933-1.768c-.07-.42-.264-.79-.543-1.073-.284-.288-.66-.485-1.082-.553-1.027-.182-1.378-1.498-.644-2.239l5.862-5.867c.519-.521 1.338-.571 1.933-.141.757.52.841 1.607.191 2.257l-3.38 3.38 4.574 4.574 3.384-3.384c.657-.657 1.756-.56 2.271.213zm7.604-8.073-3.17 3.171c.769.73.911 1.895.368 2.806-.192.322-.397.643-.617.961-.763 1.106-2.451 1.017-3.074-.174-.112-.214-.19-.413-.218-.579-.071-.415-.266-.781-.549-1.061s-.653-.473-1.073-.543c-1.209-.11-2.646-1.546-2.756-2.756-.07-.42-.264-.79-.543-1.073s-.646-.478-1.061-.549c-.213-.036-.487-.163-.781-.342-1.114-.679-1.092-2.325.007-3.026.367-.234.737-.449 1.108-.649.853-.46 1.909-.282 2.599.397l3.172-3.171c1.452-1.453 3.759-1.567 5.367-.269.51.41 1.078.977 1.488 1.488 1.301 1.609 1.186 3.917-.267 5.369zm-2.065-3.48c-.281-.354-.693-.764-1.045-1.045-.408-.33-.991-.306-1.357.058l-3.171 3.17 2.347 2.347 3.17-3.171c.364-.364.389-.949.056-1.359z"/></svg>