<svg id="Layer_1" viewBox="0 0 24 24" xmlns="http://www.w3.org/2000/svg" data-name="Layer 1"><path d="m22.5 0c-.829 0-1.5.671-1.5 1.5v.5h-1v-.5c0-.829-.671-1.5-1.5-1.5s-1.5.671-1.5 1.5v2c0 1.394.821 2.587 2 3.15v7.85c0 1.215-.872 2.228-2.022 2.452-.049-.969-.221-1.925-.529-2.849l-1.114-3.342c-.75-2.25-2.846-3.761-5.217-3.761h-3.234c-2.371 0-4.468 1.511-5.217 3.76l-1.115 3.343c-.365 1.098-.551 2.24-.551 3.397 0 1.503.747 2.828 1.883 3.646v.854c0 1.103.897 2 2 2s2-.897 2-2h5.117c0 1.103.897 2 2 2s2-.897 2-2v-.762c.489-.328.91-.749 1.238-1.238h.262c3.033 0 5.5-2.467 5.5-5.5v-7.85c1.179-.563 2-1.756 2-3.15v-2c0-.829-.671-1.5-1.5-1.5zm-19.5 17.5c0-.828.672-1.5 1.5-1.5s1.5.672 1.5 1.5-.672 1.5-1.5 1.5-1.5-.673-1.5-1.5zm8 0c0-.828.672-1.5 1.5-1.5s1.5.672 1.5 1.5-.673 1.5-1.5 1.5-1.5-.672-1.5-1.5zm-4.117-7.5h3.234c1.078 0 2.031.687 2.372 1.709l.43 1.291h-8.838l.43-1.291c.341-1.022 1.294-1.709 2.372-1.709z"/></svg>