<svg id="Layer_1" viewBox="0 0 24 24" xmlns="http://www.w3.org/2000/svg" data-name="Layer 1"><path d="m15.5 0h-3c-4.687 0-8.5 3.813-8.5 8.5v2c0 .828.671 1.5 1.5 1.5 1.696 0 3.22-.378 4.583-.971-.049.149-.083.305-.083.471 0 .828.672 1.5 1.5 1.5s1.5-.672 1.5-1.5c0-.691-.47-1.267-1.106-1.441.77-.492 1.48-1.039 2.113-1.618.679.619 1.384 1.154 2.109 1.615-.641.17-1.116.749-1.116 1.444 0 .828.672 1.5 1.5 1.5s1.5-.672 1.5-1.5c0-.171-.035-.333-.087-.486 1.479.646 3.02.986 4.587.986.828 0 1.5-.672 1.5-1.5v-2c0-4.687-3.813-8.5-8.5-8.5zm-8.5 8.861v-.361c0-3.032 2.467-5.5 5.5-5.5h2.183c-1.315 1.989-3.946 5.162-7.683 5.861zm14 .002c-1.731-.319-3.391-1.197-4.953-2.621.838-1.052 1.448-2.028 1.832-2.7 1.845.889 3.121 2.777 3.121 4.958zm-14 6.637c0 .828-.671 1.5-1.5 1.5h-.5v4.357c0 1.308-.941 2.499-2.242 2.63-1.496.15-2.758-1.021-2.758-2.487v-4c0-1.933 1.567-3.5 3.5-3.5h2c.829 0 1.5.672 1.5 1.5zm14.913.507c-.689 1.316-1.712 2.443-2.913 3.301v3.191c0 .828-.672 1.5-1.5 1.5s-1.5-.672-1.5-1.5v-1.777c-.654.169-1.322.277-2 .277s-1.348-.091-2-.261v1.761c0 .828-.671 1.5-1.5 1.5s-1.5-.672-1.5-1.5v-4.088c0-1.154 1.251-1.806 2.246-1.222.892.524 1.863.81 2.754.81 1.878 0 4.128-1.253 5.226-3.349.315-.604.965-.955 1.633-.825 1.01.165 1.529 1.275 1.054 2.181z"/></svg>