<?xml version="1.0" encoding="UTF-8"?>
<svg xmlns="http://www.w3.org/2000/svg" id="Layer_1" data-name="Layer 1" viewBox="0 0 24 24">
  <path d="m18,12c-3.314,0-6,2.686-6,6s2.686,6,6,6,6-2.686,6-6-2.686-6-6-6Zm.296,9.5c-2.093,0-3.796-1.703-3.796-3.796,0-.338.058-.659.142-.971l4.625,4.626c-.312.083-.633.141-.97.141Zm3.062-2.233l-4.625-4.626c.312-.083.633-.141.97-.141,2.093,0,3.796,1.703,3.796,3.796,0,.338-.058.659-.142.971ZM18.5,0H5.5C2.468,0,0,2.467,0,5.5v1c0,.95.383,1.81,1,2.442v9.558c0,3.033,2.468,5.5,5.5,5.5h3c.828,0,1.5-.671,1.5-1.5s-.672-1.5-1.5-1.5h-3c-1.379,0-2.5-1.122-2.5-2.5v-8.5h16.5c1.93,0,3.5-1.57,3.5-3.5v-1c0-3.033-2.468-5.5-5.5-5.5Zm2.5,6.5c0,.276-.225.5-.5.5H3.5c-.275,0-.5-.224-.5-.5v-1c0-1.378,1.121-2.5,2.5-2.5h13c1.379,0,2.5,1.122,2.5,2.5v1Z"/>
</svg>
