<svg id="Layer_1" viewBox="0 0 24 24" xmlns="http://www.w3.org/2000/svg" data-name="Layer 1"><path d="m20.389 4.268-2.657-2.657c-1.039-1.039-2.419-1.611-3.889-1.611h-6.343c-3.033 0-5.5 2.467-5.5 5.5v13.5c0 2.761 2.239 5 5 5h10c2.761 0 5-2.239 5-5v-10.843c0-1.469-.572-2.85-1.611-3.889zm-11.667 16.1c0 .346-.28.627-.626.627l-1.468.003c-.347 0-.629-.28-.629-.627l-.005-4.744c0-.347.281-.628.628-.628s.627.28.627.626c.001 1.249.003 2.869.004 4.118.71-.001.592-.003.837-.004.348-.002.631.28.631.628zm4.765-1.353c0 1.094-.902 1.985-2.012 1.985-1.086 0-1.967-.881-1.967-1.967l-.008-2.066c0-1.086.881-1.967 1.967-1.967 1.109 0 2.012.891 2.012 1.985v.015l.008 2zm5 0c0 1.094-.902 1.985-2.012 1.985-1.086 0-1.967-.881-1.967-1.967l-.008-2.066c0-1.086.881-1.967 1.967-1.967.772 0 1.445.432 1.782 1.064.223.417-.08.921-.553.921-.228 0-.441-.122-.548-.324-.125-.237-.38-.404-.669-.409-.402.007-.725.333-.724.736 0 .095.008 1.886.008 2.024 0 .403.322.729.724.736.32-.005.593-.212.698-.491-.036 0-.063 0-.085 0-.349.004-.633-.278-.633-.627 0-.346.28-.626.625-.627l.766-.002c.346-.001.627.278.628.624v.374s.001.015.001.015zm-13.487-7.015v-6.5c0-1.378 1.122-2.5 2.5-2.5h5.5v4c0 1.105.895 2 2 2h4v3zm7.229 5 .008 2.015c0 .395-.342.726-.75.733-.402-.007-.725-.333-.724-.736 0-.138-.008-1.929-.008-2.024 0-.403.322-.729.724-.736.408.007.75.339.75.733z"/></svg>