<svg width="34" height="30" viewBox="0 0 34 30" fill="none" xmlns="http://www.w3.org/2000/svg">
<path d="M6.94922 4.6875C6.27539 4.6875 5.69531 5.15039 5.54297 5.80664L3.33984 15.252C4.54102 14.8887 6.16992 14.5312 7.95117 14.5312C9.84375 14.5312 11.5723 14.9355 12.8027 15.3223C13.4238 15.5156 13.9336 15.7148 14.291 15.8613C14.4727 15.9375 14.6133 16.002 14.7188 16.0488C14.7715 16.0723 14.8125 16.0898 14.8418 16.1074L14.877 16.125L14.8887 16.1309H14.8945C14.8945 16.1309 14.8945 16.1309 14.5254 16.875L14.8945 16.1309C15.2344 16.3008 15.5039 16.5586 15.6855 16.875H18.0645C18.2461 16.5645 18.5156 16.3008 18.8555 16.1309L19.2246 16.875C18.8555 16.1309 18.8555 16.1309 18.8555 16.1309H18.8613L18.873 16.125L18.9082 16.1074C18.9375 16.0957 18.9785 16.0723 19.0312 16.0488C19.1367 16.002 19.2773 15.9375 19.459 15.8613C19.8164 15.709 20.3262 15.5156 20.9473 15.3223C22.1777 14.9355 23.9004 14.5312 25.7988 14.5312C27.5801 14.5312 29.209 14.8887 30.4102 15.252L28.207 5.80664C28.0547 5.15039 27.4688 4.6875 26.8008 4.6875C26.6191 4.6875 26.4375 4.72266 26.2617 4.79297L24.4277 5.52539C23.707 5.8125 22.8867 5.46094 22.5996 4.74023C22.3125 4.01953 22.6641 3.19922 23.3848 2.91211L25.2188 2.17969C25.7227 1.98047 26.2559 1.875 26.8008 1.875C28.7813 1.875 30.498 3.24023 30.9492 5.16797L33.5215 16.1836C33.6211 16.6113 33.6914 17.0449 33.7266 17.4785C33.7441 17.5898 33.7559 17.7012 33.7559 17.8125V18.2051V20.625V21.5625C33.7559 25.1895 30.8203 28.125 27.1934 28.125H24.5918C21.1113 28.125 18.2344 25.4062 18.041 21.9258L17.9648 20.625H15.7852L15.7148 21.9258C15.5215 25.4062 12.6445 28.125 9.1582 28.125H6.5625C2.93555 28.125 0 25.1895 0 21.5625V20.625V18.2051V17.8125C0 17.7012 0.0117188 17.5898 0.0292969 17.4785C0.0644531 17.0449 0.134766 16.6113 0.234375 16.1836L2.80664 5.16797C3.25195 3.24023 4.96875 1.875 6.94922 1.875C7.48828 1.875 8.02734 1.98047 8.53125 2.17969L10.3652 2.91211C11.0859 3.19922 11.4375 4.01953 11.1504 4.74023C10.8633 5.46094 10.043 5.8125 9.32227 5.52539L7.48828 4.79297C7.31836 4.72266 7.13672 4.6875 6.94922 4.6875ZM3.75 19.0664V21.5625C3.75 23.1152 5.00977 24.375 6.5625 24.375H9.1582C10.6523 24.375 11.8828 23.209 11.9648 21.7207L12.1113 19.0488C11.9766 19.002 11.8242 18.9492 11.6719 18.9023C10.6641 18.5859 9.33399 18.2871 7.94531 18.2871C6.55664 18.2871 5.23828 18.5859 4.24219 18.9023C4.06055 18.9609 3.89648 19.0137 3.74414 19.0723L3.75 19.0664ZM30 21.5625V19.0664C29.8477 19.0137 29.6777 18.9551 29.502 18.8965C28.5059 18.5801 27.1875 18.2812 25.7988 18.2812C24.4102 18.2812 23.0801 18.5801 22.0723 18.8965C21.9141 18.9434 21.7676 18.9961 21.6328 19.043L21.7793 21.7148C21.8613 23.2031 23.0977 24.3691 24.5859 24.3691H27.1875C28.7402 24.3691 30 23.1094 30 21.5566V21.5625Z" fill="#9CA3AF"/>
</svg>
