<svg width="14" height="14" viewBox="0 0 14 14" fill="none" xmlns="http://www.w3.org/2000/svg">
<path d="M0 11.375C0 11.859 0.391016 12.25 0.875 12.25H2.3707C2.70703 13.0238 3.47813 13.5625 4.375 13.5625C5.27187 13.5625 6.04297 13.0238 6.3793 12.25H13.125C13.609 12.25 14 11.859 14 11.375C14 10.891 13.609 10.5 13.125 10.5H6.3793C6.04297 9.72617 5.27187 9.1875 4.375 9.1875C3.47813 9.1875 2.70703 9.72617 2.3707 10.5H0.875C0.391016 10.5 0 10.891 0 11.375ZM3.5 11.375C3.5 11.1429 3.59219 10.9204 3.75628 10.7563C3.92038 10.5922 4.14294 10.5 4.375 10.5C4.60706 10.5 4.82962 10.5922 4.99372 10.7563C5.15781 10.9204 5.25 11.1429 5.25 11.375C5.25 11.6071 5.15781 11.8296 4.99372 11.9937C4.82962 12.1578 4.60706 12.25 4.375 12.25C4.14294 12.25 3.92038 12.1578 3.75628 11.9937C3.59219 11.8296 3.5 11.6071 3.5 11.375ZM8.75 7C8.75 6.76794 8.84219 6.54538 9.00628 6.38128C9.17038 6.21719 9.39294 6.125 9.625 6.125C9.85706 6.125 10.0796 6.21719 10.2437 6.38128C10.4078 6.54538 10.5 6.76794 10.5 7C10.5 7.23206 10.4078 7.45462 10.2437 7.61872C10.0796 7.78281 9.85706 7.875 9.625 7.875C9.39294 7.875 9.17038 7.78281 9.00628 7.61872C8.84219 7.45462 8.75 7.23206 8.75 7ZM9.625 4.8125C8.72812 4.8125 7.95703 5.35117 7.6207 6.125H0.875C0.391016 6.125 0 6.51602 0 7C0 7.48398 0.391016 7.875 0.875 7.875H7.6207C7.95703 8.64883 8.72812 9.1875 9.625 9.1875C10.5219 9.1875 11.293 8.64883 11.6293 7.875H13.125C13.609 7.875 14 7.48398 14 7C14 6.51602 13.609 6.125 13.125 6.125H11.6293C11.293 5.35117 10.5219 4.8125 9.625 4.8125ZM5.25 3.5C5.01794 3.5 4.79538 3.40781 4.63128 3.24372C4.46719 3.07962 4.375 2.85706 4.375 2.625C4.375 2.39294 4.46719 2.17038 4.63128 2.00628C4.79538 1.84219 5.01794 1.75 5.25 1.75C5.48206 1.75 5.70462 1.84219 5.86872 2.00628C6.03281 2.17038 6.125 2.39294 6.125 2.625C6.125 2.85706 6.03281 3.07962 5.86872 3.24372C5.70462 3.40781 5.48206 3.5 5.25 3.5ZM7.2543 1.75C6.91797 0.976172 6.14687 0.4375 5.25 0.4375C4.35313 0.4375 3.58203 0.976172 3.2457 1.75H0.875C0.391016 1.75 0 2.14102 0 2.625C0 3.10898 0.391016 3.5 0.875 3.5H3.2457C3.58203 4.27383 4.35313 4.8125 5.25 4.8125C6.14687 4.8125 6.91797 4.27383 7.2543 3.5H13.125C13.609 3.5 14 3.10898 14 2.625C14 2.14102 13.609 1.75 13.125 1.75H7.2543Z" fill="#374151"/>
</svg>
