<svg width="30" height="30" viewBox="0 0 30 30" fill="none" xmlns="http://www.w3.org/2000/svg">
<path d="M9.375 1.875C9.375 0.837891 10.2129 0 11.25 0H13.125C14.1621 0 15 0.837891 15 1.875C16.0371 1.875 16.875 2.71289 16.875 3.75V16.875C16.875 17.9121 16.0371 18.75 15 18.75C15 19.7871 14.1621 20.625 13.125 20.625H11.25C10.2129 20.625 9.375 19.7871 9.375 18.75C8.33789 18.75 7.5 17.9121 7.5 16.875V3.75C7.5 2.71289 8.33789 1.875 9.375 1.875ZM1.875 26.25H18.75C22.8926 26.25 26.25 22.8926 26.25 18.75C26.25 14.6074 22.8926 11.25 18.75 11.25V7.5C24.9609 7.5 30 12.5391 30 18.75C30 21.6328 28.916 24.2578 27.1348 26.25H28.125C29.1621 26.25 30 27.0879 30 28.125C30 29.1621 29.1621 30 28.125 30H18.75H1.875C0.837891 30 0 29.1621 0 28.125C0 27.0879 0.837891 26.25 1.875 26.25ZM6.5625 22.5H17.8125C18.3281 22.5 18.75 22.9219 18.75 23.4375C18.75 23.9531 18.3281 24.375 17.8125 24.375H6.5625C6.04688 24.375 5.625 23.9531 5.625 23.4375C5.625 22.9219 6.04688 22.5 6.5625 22.5Z" fill="#9CA3AF"/>
</svg>
