<svg width="23" height="30" viewBox="0 0 23 30" fill="none" xmlns="http://www.w3.org/2000/svg">
<path d="M3.75 0C1.68164 0 0 1.68164 0 3.75V26.25C0 28.3184 1.68164 30 3.75 30H18.75C20.8184 30 22.5 28.3184 22.5 26.25V9.375H15C13.9629 9.375 13.125 8.53711 13.125 7.5V0H3.75ZM15 0V7.5H22.5L15 0ZM6.09375 11.4844H10.3125C12.252 11.4844 13.8281 13.0605 13.8281 15C13.8281 16.4941 12.8965 17.7656 11.584 18.2754L14.1035 20.6367L16.084 18.8203C16.5586 18.3809 17.3027 18.416 17.7422 18.8906C18.1816 19.3652 18.1465 20.1094 17.6719 20.5488L15.8203 22.248L17.6777 23.9883C18.1523 24.4336 18.1758 25.1719 17.7305 25.6465C17.2852 26.1211 16.5469 26.1445 16.0723 25.6992L14.0859 23.8359L12.041 25.7109C11.5664 26.1504 10.8223 26.1152 10.3828 25.6406C9.94336 25.166 9.97852 24.4219 10.4531 23.9824L12.3633 22.2305L8.56641 18.668C8.51367 18.6211 8.47266 18.5684 8.43164 18.5156H7.26562V21.0938C7.26562 21.7383 6.73828 22.2656 6.09375 22.2656C5.44922 22.2656 4.92188 21.7383 4.92188 21.0938V17.3438V12.6562C4.92188 12.0117 5.44922 11.4844 6.09375 11.4844ZM10.3125 16.1719C10.957 16.1719 11.4844 15.6445 11.4844 15C11.4844 14.3555 10.957 13.8281 10.3125 13.8281H7.26562V16.1719H10.3125Z" fill="#9CA3AF"/>
</svg>
