<svg width="27" height="24" viewBox="0 0 27 24" fill="none" xmlns="http://www.w3.org/2000/svg">
<path d="M5.55937 3.75C5.02031 3.75 4.55625 4.12031 4.43437 4.64531L2.67188 12.2016C3.63281 11.9109 4.93594 11.625 6.36094 11.625C7.875 11.625 9.25781 11.9484 10.2422 12.2578C10.7391 12.4125 11.1469 12.5719 11.4328 12.6891C11.5781 12.75 11.6906 12.8016 11.775 12.8391C11.8172 12.8578 11.85 12.8719 11.8734 12.8859L11.9016 12.9L11.9109 12.9047H11.9156C11.9156 12.9047 11.9156 12.9047 11.6203 13.5L11.9156 12.9047C12.1875 13.0406 12.4031 13.2469 12.5484 13.5H14.4516C14.5969 13.2516 14.8125 13.0406 15.0844 12.9047L15.3797 13.5C15.0844 12.9047 15.0844 12.9047 15.0844 12.9047H15.0891L15.0984 12.9L15.1266 12.8859C15.15 12.8766 15.1828 12.8578 15.225 12.8391C15.3094 12.8016 15.4219 12.75 15.5672 12.6891C15.8531 12.5672 16.2609 12.4125 16.7578 12.2578C17.7422 11.9484 19.1203 11.625 20.6391 11.625C22.0641 11.625 23.3672 11.9109 24.3281 12.2016L22.5656 4.64531C22.4438 4.12031 21.975 3.75 21.4406 3.75C21.2953 3.75 21.15 3.77813 21.0094 3.83438L19.5422 4.42031C18.9656 4.65 18.3094 4.36875 18.0797 3.79219C17.85 3.21563 18.1313 2.55938 18.7078 2.32969L20.175 1.74375C20.5781 1.58438 21.0047 1.5 21.4406 1.5C23.025 1.5 24.3984 2.59219 24.7594 4.13437L26.8172 12.9469C26.8969 13.2891 26.9531 13.6359 26.9812 13.9828C26.9953 14.0719 27.0047 14.1609 27.0047 14.25V14.5641V16.5V17.25C27.0047 20.1516 24.6562 22.5 21.7547 22.5H19.6734C16.8891 22.5 14.5875 20.325 14.4328 17.5406L14.3719 16.5H12.6281L12.5719 17.5406C12.4172 20.325 10.1156 22.5 7.32656 22.5H5.25C2.34844 22.5 0 20.1516 0 17.25V16.5V14.5641V14.25C0 14.1609 0.009375 14.0719 0.0234375 13.9828C0.0515625 13.6359 0.107812 13.2891 0.1875 12.9469L2.24531 4.13437C2.60156 2.59219 3.975 1.5 5.55937 1.5C5.99062 1.5 6.42188 1.58438 6.825 1.74375L8.29219 2.32969C8.86875 2.55938 9.15 3.21563 8.92031 3.79219C8.69063 4.36875 8.03438 4.65 7.45781 4.42031L5.99063 3.83438C5.85469 3.77813 5.70937 3.75 5.55937 3.75ZM3 15.2531V17.25C3 18.4922 4.00781 19.5 5.25 19.5H7.32656C8.52188 19.5 9.50625 18.5672 9.57187 17.3766L9.68906 15.2391C9.58125 15.2016 9.45937 15.1594 9.3375 15.1219C8.53125 14.8688 7.46719 14.6297 6.35625 14.6297C5.24531 14.6297 4.19063 14.8688 3.39375 15.1219C3.24844 15.1688 3.11719 15.2109 2.99531 15.2578L3 15.2531ZM24 17.25V15.2531C23.8781 15.2109 23.7422 15.1641 23.6016 15.1172C22.8047 14.8641 21.75 14.625 20.6391 14.625C19.5281 14.625 18.4641 14.8641 17.6578 15.1172C17.5312 15.1547 17.4141 15.1969 17.3063 15.2344L17.4234 17.3719C17.4891 18.5625 18.4781 19.4953 19.6688 19.4953H21.75C22.9922 19.4953 24 18.4875 24 17.2453V17.25Z" fill="white"/>
</svg>
