<svg width="20" height="16" viewBox="0 0 20 16" fill="none" xmlns="http://www.w3.org/2000/svg">
<path d="M18 2H2C0.896875 2 0 2.89688 0 4V12C0 13.1031 0.896875 14 2 14H5.7625C6.51875 14 7.2125 13.5719 7.55 12.8938L8.55 10.8938C8.825 10.3469 9.38437 10 9.99687 10C10.6094 10 11.1688 10.3469 11.4438 10.8938L12.4438 12.8938C12.7812 13.5719 13.475 14 14.2312 14H18C19.1031 14 20 13.1031 20 12V4C20 2.89688 19.1031 2 18 2ZM3 7.5C3 6.96957 3.21071 6.46086 3.58579 6.08579C3.96086 5.71071 4.46957 5.5 5 5.5C5.53043 5.5 6.03914 5.71071 6.41421 6.08579C6.78929 6.46086 7 6.96957 7 7.5C7 8.03043 6.78929 8.53914 6.41421 8.91421C6.03914 9.28929 5.53043 9.5 5 9.5C4.46957 9.5 3.96086 9.28929 3.58579 8.91421C3.21071 8.53914 3 8.03043 3 7.5ZM15 5.5C15.5304 5.5 16.0391 5.71071 16.4142 6.08579C16.7893 6.46086 17 6.96957 17 7.5C17 8.03043 16.7893 8.53914 16.4142 8.91421C16.0391 9.28929 15.5304 9.5 15 9.5C14.4696 9.5 13.9609 9.28929 13.5858 8.91421C13.2107 8.53914 13 8.03043 13 7.5C13 6.96957 13.2107 6.46086 13.5858 6.08579C13.9609 5.71071 14.4696 5.5 15 5.5Z" fill="white"/>
</svg>
