<svg width="38" height="30" viewBox="0 0 38 30" fill="none" xmlns="http://www.w3.org/2000/svg">
<path d="M3.45119 2.4667C3.62697 2.10928 4.01369 1.9042 4.40627 1.95694L18.75 3.74991L33.0938 1.95694C33.4863 1.91006 33.8731 2.11514 34.0488 2.4667L36.4922 7.35342C37.0196 8.40225 36.4571 9.67373 35.3321 9.996L25.7578 12.7323C24.9434 12.9667 24.0703 12.621 23.6367 11.8944L18.75 3.74991L13.8633 11.8944C13.4297 12.621 12.5567 12.9667 11.7422 12.7323L2.17385 9.996C1.04299 9.67373 0.486347 8.40225 1.01369 7.35342L3.45119 2.4667ZM18.8145 7.49991L22.0313 12.8554C22.9043 14.3085 24.6446 14.9999 26.2793 14.5312L33.75 12.3983V22.1835C33.75 23.4726 32.8711 24.5976 31.6172 24.914L19.6582 27.9023C19.0606 28.0546 18.4336 28.0546 17.8418 27.9023L5.88283 24.914C4.62893 24.5917 3.75002 23.4667 3.75002 22.1776V12.3925L11.2266 14.5312C12.8555 14.9999 14.6016 14.3085 15.4746 12.8554L18.6856 7.49991H18.8145Z" fill="#9CA3AF"/>
</svg>
