<svg width="12" height="16" viewBox="0 0 12 16" fill="none" xmlns="http://www.w3.org/2000/svg">
<path d="M2 0C0.896875 0 0 0.896875 0 2V14C0 15.1031 0.896875 16 2 16H10C11.1031 16 12 15.1031 12 14V5H8C7.44688 5 7 4.55312 7 4V0H2ZM8 0V4H12L8 0ZM3.25 6.125H5.5C6.53438 6.125 7.375 6.96562 7.375 8C7.375 8.79688 6.87812 9.475 6.17812 9.74687L7.52187 11.0063L8.57812 10.0375C8.83125 9.80313 9.22812 9.82187 9.4625 10.075C9.69687 10.3281 9.67813 10.725 9.425 10.9594L8.4375 11.8656L9.42813 12.7937C9.68125 13.0312 9.69375 13.425 9.45625 13.6781C9.21875 13.9313 8.825 13.9438 8.57187 13.7063L7.5125 12.7125L6.42188 13.7125C6.16875 13.9469 5.77187 13.9281 5.5375 13.675C5.30312 13.4219 5.32187 13.025 5.575 12.7906L6.59375 11.8562L4.56875 9.95625C4.54063 9.93125 4.51875 9.90312 4.49687 9.875H3.875V11.25C3.875 11.5938 3.59375 11.875 3.25 11.875C2.90625 11.875 2.625 11.5938 2.625 11.25V9.25V6.75C2.625 6.40625 2.90625 6.125 3.25 6.125ZM5.5 8.625C5.84375 8.625 6.125 8.34375 6.125 8C6.125 7.65625 5.84375 7.375 5.5 7.375H3.875V8.625H5.5Z" fill="#1B263B"/>
</svg>
