<svg width="32" height="36" viewBox="0 0 32 36" fill="none" xmlns="http://www.w3.org/2000/svg">
<path d="M0 15.1875C0 10.5258 3.77578 6.75 8.4375 6.75H9C10.2445 6.75 11.25 7.75547 11.25 9C11.25 10.2445 10.2445 11.25 9 11.25H8.4375C6.26484 11.25 4.5 13.0148 4.5 15.1875V15.75H9C11.482 15.75 13.5 17.768 13.5 20.25V24.75C13.5 27.232 11.482 29.25 9 29.25H4.5C2.01797 29.25 0 27.232 0 24.75V22.5V20.25V15.1875ZM18 15.1875C18 10.5258 21.7758 6.75 26.4375 6.75H27C28.2445 6.75 29.25 7.75547 29.25 9C29.25 10.2445 28.2445 11.25 27 11.25H26.4375C24.2648 11.25 22.5 13.0148 22.5 15.1875V15.75H27C29.482 15.75 31.5 17.768 31.5 20.25V24.75C31.5 27.232 29.482 29.25 27 29.25H22.5C20.018 29.25 18 27.232 18 24.75V22.5V20.25V15.1875Z" fill="#F3F4F6"/>
</svg>
